<?xml version="1.0" encoding="utf-8"?>
<!-- Generator: Adobe Illustrator 24.1.2, SVG Export Plug-In . SVG Version: 6.00 Build 0)  -->
<svg version="1.1" xmlns="http://www.w3.org/2000/svg" xmlns:xlink="http://www.w3.org/1999/xlink" x="0px" y="0px"
	 viewBox="0 0 539.2 1023.3" style="enable-background:new 0 0 539.2 1023.3;" xml:space="preserve">
<style type="text/css">
	.st0{fill:#444518;}
	.st1{fill:#5F862E;}
	.st2{fill:none;stroke:#2A4C22;stroke-miterlimit:10;}
</style>
<g id="Capa_2">
</g>
<g id="Capa_3">
</g>
<g id="Capa_4">
	<g>
		<g id="region">
			<path class="st0" d="M121.8,349c0,3.6-0.3,7.1-0.9,10.6c-0.6,3.5-1.6,6.9-3,10.2c0,0.1,0.1,0.3,0.2,0.5s0.2,0.4,0.3,0.6
				c0.1,0.2,0.2,0.4,0.2,0.6s0.1,0.3,0.1,0.4c0,0.2-0.1,0.4-0.2,0.5s-0.3,0.2-0.5,0.2s-0.4,0.1-0.6,0.1s-0.4,0-0.5,0
				c-0.4,0-0.7,0-1-0.1c-0.3,0-0.6-0.2-0.9-0.5c-0.2-0.2-0.5-0.6-0.7-1.4c-0.3-0.7-0.6-1.6-0.9-2.7c-0.3-1.1-0.7-2.3-1-3.7
				c-0.4-1.4-0.7-2.8-1.1-4.2c-0.4-1.5-0.7-2.9-1-4.3s-0.6-2.8-0.9-4s-0.5-2.3-0.7-3.3s-0.4-1.7-0.5-2.1c-0.2-0.8-0.4-1.5-0.6-2.3
				s-0.3-1.5-0.3-2.3c0-0.3,0.1-0.4,0.3-0.5c0.2-0.1,0.4-0.1,0.6-0.1c0.4,0,0.9,0.1,1.2,0.2c0.4,0.2,0.7,0.4,0.9,0.8
				c0.1,0.2,0.2,0.5,0.3,0.8s0.1,0.6,0.2,0.9c0.5,2.2,1,4.4,1.5,6.6s1.1,4.4,1.6,6.5c0.4,1.4,0.7,2.7,1.1,4.1c0.4,1.3,0.7,2.7,1.2,4
				c0.8-2.4,1.3-4.8,1.6-7.3c0.3-2.5,0.5-5,0.5-7.5c0-0.4,0-0.9,0-1.5s0-1.2,0-1.9c0-0.7,0-1.4-0.1-2.1c0-0.7-0.1-1.4-0.1-2
				c-0.1-0.6-0.1-1.2-0.2-1.8c-0.1-0.6-0.2-1-0.4-1.3c0-0.1-0.1-0.2-0.1-0.3c-0.1-0.1-0.1-0.2-0.1-0.4c0-0.2,0.1-0.3,0.2-0.4
				s0.3-0.2,0.5-0.2c0.2-0.1,0.4-0.1,0.6-0.1s0.4,0,0.5,0c0.4,0,0.8,0,1.1,0.1c0.3,0.1,0.6,0.3,0.9,0.6c0.1,0.1,0.2,0.4,0.3,0.9
				c0.1,0.5,0.2,1.1,0.2,1.7c0.1,0.7,0.1,1.4,0.1,2.1c0,0.8,0.1,1.5,0.1,2.2s0,1.3,0,1.9C121.8,348.3,121.8,348.7,121.8,349z"/>
			<path class="st0" d="M149.8,371.5c0,0.2-0.1,0.3-0.3,0.5s-0.4,0.2-0.6,0.3s-0.5,0.1-0.7,0.2s-0.4,0-0.6,0c-0.3,0-0.5,0-0.7-0.1
				s-0.4-0.1-0.7-0.3c-0.1,0-0.3-0.2-0.5-0.6c-0.3-0.3-0.6-0.8-1-1.3s-0.9-1.2-1.4-1.9s-1.1-1.4-1.6-2.1c-0.6-0.7-1.1-1.5-1.6-2.2
				s-1-1.4-1.5-2s-0.8-1.1-1.2-1.6c-0.3-0.5-0.6-0.8-0.7-1h-0.1c0.1,1.8,0.2,3.6,0.4,5.4c0.1,1.8,0.4,3.6,0.7,5.3
				c0,0.2,0.1,0.4,0.1,0.6c0.1,0.2,0.1,0.4,0.1,0.6c0,0.3-0.1,0.6-0.3,0.7c-0.2,0.1-0.5,0.1-0.7,0.1s-0.3,0-0.5,0s-0.4,0-0.7-0.1
				c-0.2,0-0.4-0.1-0.6-0.2c-0.2-0.1-0.3-0.2-0.4-0.3c-0.2-0.2-0.3-0.4-0.4-0.6c-0.1-0.2-0.1-0.4-0.1-0.7c-0.4-3-0.7-6.1-0.8-9.1
				c-0.1-3.1-0.2-6.1-0.2-9.2c0-1.3,0-2.6,0-3.9s0-2.6,0.1-3.9c-0.2,0-0.4-0.1-0.5-0.2s-0.3-0.2-0.4-0.4c-0.1-0.2-0.2-0.3-0.3-0.5
				c-0.1-0.2-0.1-0.3-0.1-0.5s0-0.3,0.1-0.5s0.2-0.3,0.3-0.5c0.1-0.1,0.3-0.3,0.4-0.4c0.2-0.1,0.3-0.2,0.4-0.3v-0.4
				c0-0.2,0-0.3,0-0.5s0-0.4,0.1-0.6s0.1-0.3,0.3-0.4c0.1-0.1,0.3-0.2,0.5-0.2c0.3,0,0.6,0.1,1,0.2s0.6,0.3,0.8,0.6
				c1.1-0.5,2.3-0.7,3.6-0.7c1.1,0,2.1,0.2,3,0.7c0.9,0.4,1.7,1,2.3,1.8c0.6,0.7,1.1,1.6,1.5,2.6c0.3,1,0.5,2,0.5,3
				c0,1.1-0.2,2.2-0.6,3.3c-0.4,1.1-1,2.1-1.7,3c-0.7,1-1.5,1.8-2.3,2.6c-0.9,0.8-1.7,1.5-2.6,2.1c1.4,1.9,2.9,3.8,4.3,5.6
				c1.5,1.8,2.9,3.7,4.5,5.5c0.1,0.1,0.2,0.3,0.4,0.5c0.2,0.2,0.4,0.4,0.6,0.7c0.2,0.2,0.4,0.5,0.5,0.7
				C149.7,371.2,149.8,371.3,149.8,371.5z M143.2,346.6c0-0.6-0.1-1.1-0.3-1.7c-0.2-0.6-0.5-1.2-0.8-1.6c-0.4-0.5-0.8-0.9-1.3-1.2
				c-0.5-0.3-1.1-0.5-1.7-0.5c-0.5,0-1,0.1-1.5,0.2s-1,0.3-1.4,0.6c0,2.2,0.1,4.5,0.1,6.7s0.1,4.5,0.1,6.7h0.4
				c0.8-0.4,1.6-1,2.3-1.7c0.8-0.7,1.4-1.4,2.1-2.2s1.1-1.7,1.5-2.6C143,348.4,143.2,347.5,143.2,346.6z"/>
			<path class="st0" d="M157.5,367.4c0,0.5-0.1,0.9-0.4,1.4s-0.6,0.9-1,1.3c-0.4,0.4-0.8,0.7-1.3,1s-1,0.4-1.5,0.4
				c-0.7,0-1.3-0.1-1.8-0.4c-0.5-0.3-1-0.7-1.3-1.1c-0.4-0.5-0.7-1-0.9-1.6c-0.2-0.6-0.4-1.2-0.6-1.9c-0.1-0.6-0.2-1.3-0.3-1.9
				c-0.1-0.6-0.1-1.2-0.1-1.8c0-0.5,0-1,0.1-1.6s0.1-1.3,0.3-1.9c0.1-0.7,0.3-1.3,0.5-2c0.2-0.6,0.5-1.2,0.8-1.7s0.7-0.9,1.2-1.2
				c0.5-0.3,1-0.5,1.6-0.5c0.5,0,0.9,0.1,1.3,0.3c0.4,0.2,0.7,0.5,1,0.8s0.5,0.7,0.6,1.1s0.2,0.9,0.2,1.3c0,0.6-0.1,1.2-0.4,1.9
				c-0.3,0.7-0.6,1.4-1.1,2c-0.4,0.6-0.9,1.2-1.4,1.8c-0.5,0.5-1.1,0.9-1.6,1.2c0,0.3,0.1,0.7,0.2,1.2s0.2,1,0.4,1.5s0.3,1,0.6,1.3
				c0.2,0.4,0.5,0.6,0.8,0.6c0.2,0,0.3,0,0.4-0.1s0.2-0.2,0.3-0.4c0.1-0.2,0.2-0.3,0.2-0.5s0.1-0.4,0.2-0.5l0.1-0.3
				c0,0,0-0.1,0.1-0.1c0,0,0,0,0-0.1c0.1-0.2,0.2-0.4,0.3-0.5c0.1-0.2,0.2-0.3,0.4-0.4l0,0c0.1-0.1,0.1-0.1,0.2-0.1s0.1,0,0.2,0
				c0.2,0,0.3,0.1,0.5,0.2c0.2,0.1,0.4,0.2,0.5,0.4c0.2,0.2,0.3,0.3,0.4,0.5C157.4,367.1,157.5,367.2,157.5,367.4z M153,357.4
				c0-0.2,0-0.3,0-0.5s-0.1-0.3-0.1-0.4c-0.2,0.3-0.4,0.6-0.6,0.9c-0.2,0.4-0.3,0.7-0.4,1.1s-0.2,0.8-0.3,1.2
				c-0.1,0.4-0.1,0.8-0.1,1.1c0.4-0.5,0.7-1,1-1.6C152.9,358.6,153,358,153,357.4z"/>
			<path class="st0" d="M170,365.9c0,0.2,0,0.3-0.1,0.5s-0.2,0.4-0.3,0.6c-0.1,0.2-0.3,0.4-0.4,0.7c-0.2,0.2-0.3,0.4-0.4,0.6
				l-0.3,0.5l-0.3,0.6l-0.3,0.5c0,0.3,0,0.6,0.1,1c0,0.3,0.1,0.7,0.1,1c0.2,1.6,0.3,3.1,0.4,4.8c0.1,1.6,0.2,3.2,0.2,4.8
				c0,0.8-0.1,1.7-0.2,2.5c-0.1,0.9-0.4,1.6-0.8,2.3s-0.9,1.2-1.5,1.7c-0.6,0.4-1.5,0.7-2.5,0.7c-0.7,0-1.3-0.1-1.8-0.4
				c-0.5-0.3-0.9-0.6-1.2-1c-0.3-0.4-0.5-0.9-0.6-1.5s-0.2-1.2-0.2-1.8c0-1.2,0.1-2.5,0.4-3.7c0.3-1.3,0.7-2.5,1.1-3.7
				c0.5-1.2,1-2.4,1.6-3.6c0.6-1.2,1.2-2.3,1.8-3.4v-0.1c0,0,0-0.1,0-0.2c-0.2,0.4-0.4,0.7-0.7,1.1c-0.2,0.4-0.5,0.7-0.8,1
				s-0.6,0.6-1,0.7c-0.4,0.2-0.8,0.3-1.2,0.3c-0.6,0-1.2-0.2-1.6-0.5s-0.8-0.7-1-1.2s-0.4-1-0.5-1.5c-0.1-0.6-0.2-1.1-0.2-1.6
				c0-0.6,0-1.1,0.1-1.7c0.1-0.6,0.1-1.1,0.2-1.6c0.2-0.8,0.3-1.8,0.6-2.7c0.2-1,0.5-2,0.9-2.9c0.3-1,0.7-1.9,1.2-2.7
				c0.5-0.9,1-1.6,1.6-2.2l0.2-0.2c0.2-0.2,0.4-0.4,0.7-0.6c0.3-0.2,0.5-0.3,0.8-0.3c0.2,0,0.3,0,0.4,0.1s0.2,0.2,0.3,0.4
				s0.2,0.3,0.2,0.5c0.1,0.2,0.1,0.3,0.1,0.5s-0.1,0.4-0.2,0.6l0,0c0.9,0,1.5,0.4,1.9,1.3c0.2,0.2,0.3,0.3,0.4,0.5s0.1,0.4,0.1,0.7
				c0,0.1,0,0.3,0,0.4s0,0.3-0.1,0.4c0,0.1-0.1,0.3-0.1,0.4s0,0.2,0,0.3c0,0.3,0,0.8,0,1.3s0,1,0.1,1.6c0,0.6,0.1,1.1,0.1,1.6
				s0.1,1,0.1,1.4c0.1-0.1,0.2-0.3,0.4-0.4c0.1-0.1,0.3-0.2,0.5-0.2s0.4,0.1,0.6,0.2c0.2,0.1,0.4,0.3,0.6,0.5s0.3,0.4,0.5,0.6
				C170,365.6,170,365.8,170,365.9z M163.8,356.6c0-0.1,0-0.2,0-0.3c0-0.1,0-0.2,0.1-0.3l-0.2,0.2c-0.1,0.1-0.2,0.3-0.3,0.4
				c-0.1,0.1-0.2,0.2-0.3,0.4c-0.4,0.6-0.7,1.3-1,2.2c-0.3,0.9-0.5,1.9-0.7,2.9c-0.2,1-0.3,2-0.4,3s-0.1,1.8-0.1,2.5
				c0,0.3,0,0.7,0,1s0.1,0.7,0.2,1c0.2-0.2,0.4-0.5,0.5-0.7c0.1-0.3,0.3-0.5,0.4-0.8c0.3-0.7,0.6-1.6,0.9-2.6c0.2-1,0.4-2,0.6-3
				s0.3-2.1,0.3-3.1C163.8,358.3,163.8,357.4,163.8,356.6z M165.5,380.8c0-1,0-2-0.1-2.9c0-0.9-0.1-1.9-0.2-2.9
				c-0.3,0.6-0.5,1.3-0.8,2.1c-0.3,0.7-0.5,1.5-0.7,2.3s-0.4,1.5-0.5,2.3s-0.2,1.5-0.2,2.1v0.2c0,0.3,0,0.7,0.1,1.1
				c0,0.4,0.2,0.7,0.4,1h0.2c0.3,0,0.6-0.1,0.8-0.3c0.2-0.2,0.4-0.5,0.5-0.8s0.2-0.7,0.3-1.1c0.1-0.4,0.1-0.8,0.2-1.2
				c0-0.4,0-0.8,0.1-1.1C165.5,381.3,165.5,381,165.5,380.8z"/>
			<path class="st0" d="M173.5,352.5c0,0.3-0.1,0.4-0.2,0.6c-0.1,0.1-0.3,0.2-0.6,0.2c-0.1,0-0.3,0-0.6-0.1c-0.3,0-0.6-0.1-0.9-0.2
				s-0.6-0.2-0.8-0.3c-0.2-0.1-0.3-0.3-0.3-0.5c0-0.1,0-0.2,0.1-0.5c0-0.3,0.1-0.6,0.2-0.9s0.1-0.6,0.2-0.9s0.1-0.4,0.1-0.4l0,0
				c0.1-0.1,0.2-0.2,0.3-0.2c0.1,0,0.2,0,0.3,0c0.1,0,0.3,0,0.5,0.1c0.2,0,0.4,0.1,0.7,0.2c0.2,0.1,0.4,0.2,0.6,0.3
				c0.2,0.1,0.3,0.2,0.3,0.3c0,0.1,0.1,0.3,0.1,0.5s0,0.4,0,0.6c0,0.1,0,0.1,0,0.2s0,0.1,0,0.2s0,0.2,0,0.2c0,0.1,0,0.2,0,0.2
				c0,0.1,0,0.2,0,0.2C173.5,352.3,173.5,352.4,173.5,352.5z M174.3,370.6c0,0.3-0.1,0.6-0.2,0.7c-0.2,0.1-0.4,0.2-0.8,0.2
				c-0.2,0-0.4,0-0.6-0.1c-0.2,0-0.4-0.1-0.6-0.2c-0.2-0.1-0.4-0.2-0.6-0.3s-0.3-0.3-0.4-0.4c-0.1-0.1-0.1-0.4-0.2-0.8
				c0-0.5-0.1-1-0.1-1.7s0-1.5-0.1-2.3c0-0.9,0-1.7,0-2.6c0-0.9,0-1.7,0-2.6s0-1.6,0-2.2v-1.7c0-0.2,0-0.3,0-0.5s0-0.3,0.1-0.4
				s0.1-0.2,0.2-0.3c0.1-0.1,0.3-0.1,0.5-0.1c0.7,0,1.1,0.2,1.5,0.6c0.3,0.4,0.5,0.9,0.6,1.5c0.1,0.9,0.1,1.8,0.2,2.7
				c0,0.9,0.1,1.8,0.1,2.8c0,0.8,0.1,1.7,0.1,2.5s0.1,1.6,0.1,2.5c0,0.2,0,0.3,0,0.5s0,0.3,0.1,0.5c0,0.3,0.1,0.6,0.1,0.9
				C174.3,369.9,174.3,370.2,174.3,370.6z"/>
			<path class="st0" d="M186.2,362.3c0,1.3-0.1,2.6-0.3,3.9c-0.2,1.3-0.7,2.5-1.3,3.7c-0.2,0.3-0.5,0.7-0.7,1
				c-0.3,0.3-0.6,0.6-0.9,0.9c-0.3,0.3-0.7,0.5-1.1,0.6c-0.4,0.2-0.8,0.2-1.2,0.2c-0.7,0-1.2-0.2-1.7-0.5s-0.9-0.7-1.3-1.2
				s-0.6-1.1-0.9-1.7c-0.2-0.6-0.4-1.3-0.5-2s-0.2-1.3-0.3-2c-0.1-0.6-0.1-1.2-0.1-1.7s0-1.1,0.1-1.8c0-0.6,0.1-1.3,0.2-2
				s0.3-1.3,0.5-2s0.4-1.3,0.7-1.9c0.3-0.6,0.7-1.1,1.1-1.6s0.9-0.8,1.5-1.1l0,0c0.5-0.3,1-0.4,1.4-0.4c0.3,0,0.5,0.1,0.7,0.2
				s0.2,0.3,0.2,0.6c0.8,0.2,1.5,0.6,2,1.2s0.9,1.4,1.2,2.3c0.3,0.9,0.5,1.7,0.6,2.6C186.2,360.8,186.2,361.6,186.2,362.3z
				 M181.1,356.6c-0.3,0-0.5-0.1-0.7-0.3c-0.3,0.4-0.5,0.9-0.7,1.5s-0.4,1.1-0.5,1.7s-0.2,1.2-0.2,1.8s-0.1,1.2-0.1,1.7
				c0,0.4,0,1,0.1,1.7c0,0.7,0.1,1.4,0.3,2.1c0.1,0.7,0.3,1.3,0.5,1.9c0.2,0.6,0.5,1,0.9,1.3c0.5-0.3,0.9-0.7,1.2-1.3
				c0.3-0.6,0.6-1.2,0.7-2c0.2-0.7,0.3-1.4,0.4-2.1s0.1-1.3,0.1-1.9c0-0.4,0-0.9-0.1-1.5c0-0.6-0.1-1.2-0.2-1.8
				c-0.1-0.6-0.3-1.2-0.4-1.8c-0.2-0.5-0.4-1-0.7-1.2C181.5,356.6,181.3,356.6,181.1,356.6z M180.1,350.6c0-0.2,0.1-0.3,0.2-0.5
				s0.3-0.4,0.5-0.5c0.2-0.2,0.4-0.3,0.5-0.5s0.3-0.3,0.5-0.4l2.2-2c0.2-0.1,0.4-0.3,0.6-0.5s0.4-0.3,0.6-0.3s0.3,0.1,0.5,0.2
				s0.4,0.2,0.5,0.4s0.3,0.3,0.4,0.5s0.2,0.4,0.2,0.5v0.1v0.1c0,0.2-0.1,0.3-0.3,0.5c-0.1,0.1-0.3,0.3-0.5,0.4
				c-0.5,0.4-0.8,0.7-1.1,0.8s-0.5,0.4-0.7,0.5c-0.2,0.2-0.4,0.3-0.7,0.5c-0.3,0.2-0.6,0.4-1.1,0.8c-0.2,0.1-0.3,0.2-0.5,0.3
				s-0.3,0.1-0.5,0.1c-0.1,0-0.3,0-0.4-0.1c-0.2-0.1-0.3-0.1-0.4-0.2s-0.2-0.2-0.3-0.4C180.2,350.9,180.1,350.7,180.1,350.6z"/>
			<path class="st0" d="M191.6,371.4c0,0.3-0.1,0.6-0.3,0.7c-0.2,0.1-0.4,0.2-0.7,0.2c-0.3,0-0.5,0-0.8-0.1s-0.5-0.1-0.7-0.2
				c-0.2-0.1-0.4-0.2-0.6-0.4s-0.3-0.4-0.3-0.7c-0.2-0.9-0.3-1.8-0.4-2.7c0-0.9,0-1.8,0-2.7v-2.8c0-1.3,0.1-2.6,0.2-3.9
				c0.1-1.4,0.2-2.7,0.3-3.9c0,0,0-0.1,0-0.2s0-0.1,0-0.1c0-0.2,0-0.3,0.1-0.5c0-0.2,0.1-0.4,0.1-0.5s0.2-0.3,0.3-0.4
				c0.1-0.1,0.3-0.2,0.5-0.2s0.5,0,0.7,0.1s0.4,0.2,0.6,0.4c0.2,0.2,0.3,0.4,0.4,0.6s0.1,0.5,0.1,0.7c0,0.3,0,0.5,0,0.8
				s0,0.6-0.1,0.9c0,0.1,0,0.2,0,0.2c0,0.1,0,0.2,0,0.2c0.2-0.4,0.5-0.9,0.7-1.3c0.3-0.5,0.6-0.9,0.9-1.3c0.4-0.4,0.7-0.7,1.2-0.9
				c0.4-0.2,0.9-0.4,1.4-0.4c0.4,0,0.8,0.1,1.1,0.2c0.3,0.1,0.5,0.3,0.7,0.6c0.2,0.2,0.3,0.5,0.4,0.9s0.1,0.7,0.1,1.1
				c0,0.5,0,1,0,1.5s-0.1,1-0.1,1.5s-0.1,1-0.1,1.6c0,0.5,0,1,0,1.6s0,1.3,0,2s0.1,1.3,0.1,1.9c0.1,0.6,0.1,1.2,0.2,1.7
				s0.2,0.9,0.2,1.1c0.1,0.2,0.1,0.5,0.2,0.8s0.1,0.6,0.2,0.9s0.1,0.6,0.2,0.9c0,0.3,0.1,0.5,0.1,0.8s-0.1,0.5-0.4,0.6
				s-0.5,0.1-0.8,0.1s-0.5,0-0.9-0.1c-0.3,0-0.6-0.1-0.9-0.3s-0.5-0.5-0.6-1c-0.1-0.4-0.2-0.8-0.2-1.2l-0.1-0.6
				c0-0.4-0.1-0.8-0.2-1.4c-0.1-0.6-0.1-1.2-0.2-1.9s-0.1-1.4-0.2-2.2c0-0.8-0.1-1.5-0.1-2.2c0-0.6,0-1.3,0.1-1.9s0.1-1.2,0.2-1.8
				c0-0.3,0.1-0.6,0.1-0.8c0-0.2,0-0.5,0.1-0.8c-0.3,0.5-0.6,1-0.9,1.7c-0.3,0.6-0.6,1.3-0.9,2s-0.5,1.4-0.7,2
				c-0.2,0.7-0.4,1.2-0.5,1.7l-0.1,0.5c-0.1,0.2-0.1,0.5-0.2,0.7s-0.1,0.5-0.1,0.7c0,0.3,0,0.6,0,0.9c0,0.4,0.1,0.7,0.1,1
				c0,0.4,0.1,0.8,0.2,1.2c0,0,0,0.1,0,0.3s0.1,0.4,0.1,0.6c0,0.2,0.1,0.5,0.1,0.7C191.6,371,191.6,371.3,191.6,371.4z"/>
		</g>
		<polygon id="pintado" class="st1" points="232.5,342.3 233.3,342.3 237.2,341.4 237.6,341.2 238.5,340.2 239.1,339.2 244.7,339.1 
			246,339.8 246.1,340.6 246.1,341.1 247,341.7 247.8,341.9 248.3,341.9 248.7,341.9 249.2,342 249.8,342.5 250.1,343.5 250.2,344 
			250.7,344.3 252.5,344.1 252.5,344.1 252.6,344.5 253.9,345.1 254.2,345.8 255.6,348.7 255.7,349.4 255.6,350.2 256.4,351 
			257.5,352.2 259.2,354.4 259.4,356.2 258.6,357.6 258.1,359.2 257.1,360.4 256.6,361.4 256.6,361.4 255.7,362 254.1,363.3 
			252.2,362.5 250.9,361 250.5,361 249.3,362 248.8,362 248.2,361 247.9,360.2 247.2,359.4 246.2,359.1 244.5,358.6 241.9,358.6 
			239.7,359.5 239.4,359.7 239.2,360.5 239.4,361.5 239.5,364.3 238.2,365.1 237.1,365.2 235.9,365.4 235.7,365.8 235.7,367.4 
			235.5,367.9 235,368.7 233.7,370 233.2,370.2 233.1,370.7 233.4,372.2 234.1,373.9 233.3,377 232.4,378 231.8,378 230.8,377.7 
			229.8,377.7 229.4,377.7 228.8,379.7 228.8,379.7 227,380.9 227,380.9 226.4,381.7 225.7,381.6 225,381.4 224.5,381 223.6,381 
			223.6,381 224.2,379 224.8,377.5 225.3,377.3 226,377.2 226.5,376.9 227.2,376.3 227.5,375.4 227.6,375 227.7,374.3 227.9,372.6 
			226.9,368.5 226.7,365.9 225.7,362.6 225.9,362.2 226.8,362.3 229.2,360.5 230.1,358.1 230.5,355.1 231.3,353.6 231.5,352.9 
			231.6,352.2 231.6,349.1 232.3,346.9 231.1,344.9 230.3,343.7 229.8,342.4 229.8,342.4 230.2,342 230.7,341.7 231.2,341.7 
			231.2,341.7 232,342.1 232.5,342.3 		"/>
		<g id="chilee">
			<path id="CL-AI" class="st2" d="M204.9,660.4l0.3-0.1l0.6-1.3l-0.2-0.5l-1.1-0.2l-0.4,0.4l-0.5,0.1l-1.9-0.9l-1-1.2l-0.9-0.9
				l-1.5-1.2l-0.6-0.2l-0.4,0.1l-0.5,0.6l-0.4,0.5l-0.7,0.1l-0.9-0.1l-0.5-0.1l-0.3-0.3l-0.1-0.6l0.3-1.4l0.5-0.1l1.1-0.1l0.4-0.2
				l0.7-1.1l-1.3-1.9l-0.5-1.1l0.1-1l0.4-0.7l0.5-0.2l0.4,0l1.2,0.3h0.6l1.6-0.6l3.7-2.1l1-0.9l2.3-2.1l0.7-1.6l0.5-1.4l1.6-4.3
				l0.1-2.4l-1,0.9l-1.5,1.1l-2-1.5l-1.5-1.3v-0.7l-1.7-0.8l-1.2-0.4l-0.6-0.1l-0.8-0.2l-0.5-0.3l-1.8-1.9l-0.1-0.8l0.2-0.8l1.3-1.2
				l1.4-1.2l0-1l0.6-1.4l1.6-3.2l0.5,0l0.8-0.2l1.9-0.6l-0.1-0.7l0,0l1.2,0l0.4,0.3l1.2,0.3l3.6,0.6l0.3-1l0.6-0.9l0.8-0.8l0.6-0.4
				l0.9,0.4l0.1,1.1l1.4,2.4l0.4,0.2l0.8,0.1l0.5,0.4l0.6,0.8l0.3,0.7l0.1,1l2.6-0.3l0.3-1l2.6-1.3l0.6,0l1.4,0.7l0,0l0.9,1.3l0,0.6
				l-0.2,0.5l-1.7,2.6l-0.6,0.6l-0.7,2l0.3,0.7l0.1,0.7l-0.1,2.9l-0.9,0.6l-0.2,0.5l0.5,0.7l0.9,0.2l2.8,0.1h1.5l1.2-0.2l1.5-0.1
				l3.8,0.8l0.6,0.5l1,2.2l-0.2,0.9l-0.4,0.5l-0.8,0.1l-0.8,1.9l0.1,0.7l0.1,0.7l-0.1,0.8l-1,1.3l-0.5,0.1h-0.6l-0.6-0.2l-0.5-0.2
				l-0.9-0.7l-0.5-0.4l-0.4-0.1h-0.5l-0.7,0.3l-1,0.5l-0.4,0.1l-0.5,0.1l-0.4-0.1l-0.4-0.2l-0.4-0.2l-1.1-0.2l-0.4,0.2l-0.3,0.6
				l-0.5,0.2l-2.1-0.2l-0.4-0.2l-0.4-0.2l-0.5-0.3l-0.5-0.1l-0.5,0.3l-0.1,0.5l0.3,3l2.5,0.5l2.4,0.2l1.2,0.2l2.9,1l0.6,0.6l1,2
				l3.1,4.1l0.6,2l-3.1,4.6l-2.6,1.2l-0.4,0l-0.4,0.1l-0.4,0.1l-0.7,0.3l-0.7,0.5l-0.6,2.6l-0.2,2l0.7,3.2l0.5,0.3l0.6,0.2l0.8,0.4
				l0.4,0.5l0.5,2l-0.6,0.5l-0.1,0.1l-0.4,0.4l-0.6,0.9l-0.4,0.6l-0.4,0.8l-0.5,0.5l-0.5,0.2l-0.6,0.1l-0.5,0.1l-0.9,0.4l1.2,1.4
				l0.6,0.2l0.6,0.3l0.4,0.7l0.1,0.7l0.3,4.3l0.7,1.6l0.4,1.3l0.1,3.1l-0.1,0.9l-0.2,0.5l-2.4,2.3l-0.7,0.3l-1.3,0.1l-0.4,0.4
				l-0.7,5.9l1.6,2.2l0.6,0.7l0.2,0.9l-0.3,1.3l-0.3,0.4l-2.5,1.2l-1.2,2.1l-1.4,1.6l-0.7,0.2l-0.7-0.2l-0.5,0l-0.7,0.2l-0.4,0.2
				l-0.4,0.2l-0.3,0.4l-0.2,0.8l0.3,0.3l0.6,0.4l-0.4,2.5l-0.2,0.6l-0.2,0.5l-1,1.5l-0.5,0.8l-0.5,1.2l-1.5,4.2l0.1,0.7l0.3,0.5
				l0.7,0.8l0.5,0.4l0.8,0.2l1.6,2l0.4,3.1l0.2,4.4l-2.5,1.6l-1.2,0.5l-1.2,0.7l-0.4,0.3l-0.3,0.5l-0.2,0.6l0.4,2l0.1,0.6l0.2,1.8
				l0.2,2.2v1.3l-0.2,0.6l-0.5,0.7l-2.3,2.2l-0.5,0.5l-0.3,0.2l-0.5,0.3l-0.5,0.2l-0.9,0.2l-0.7,0l-0.4,0.1l-0.7,0.3l-0.6,0.4
				l-0.4,0.6l-1.3,2l-1.8,4.4l0,0.6l0.1,0.3l0,0l-0.3-0.2l-5.5-4.8l-4.4-3.8l-6.4-5.6l0,0l-0.1-0.3l-0.9-0.6l-1-0.2l-0.5,0l-0.7,0.3
				l-0.4,0.2l-0.4,0.2l-0.7-0.1l-1.1-1.4l-0.5-1.8l0.8-1.2l1.8-1.9l1-0.7l1,0.6l1.9,1.4l0.4-0.4l0.1-3.4l-1.6-0.5l-0.5-0.6l-0.3-0.3
				l-0.4-0.1l-1.1-0.2l0.5-0.5l1.6-0.4l-2.7-1l-2.5-2.3l-1.7-2l-1.7-1.3l-0.7,0l-0.5-0.2l-0.2-1.3l0.5-0.8l2-1.2l2.1,0.9l1.2,1
				l0.4,0.7l0.3,0.6l0.3,1l0.4,2.4l1.2,1.2l0.6-0.2l-1.4-3.5l-1.1-2.1l-0.1-0.5l0.5-0.3l1.9-0.1l2.3,0.1l0.5,0.3l0.6,0.7l1,0.4l2,0
				l1.6-0.5l3.3,3l0.1,1.3l0.7,1.7l0.3-1l0.9-0.9l0.9,0.1l0.4,0.2l0.5,0.3l0.8,0.1l0.9-0.8l0.3-0.4l0.1-0.8l0.1-0.9l-0.2-0.6
				l-0.1,1.5l-0.4,0.5l-0.8,0.6l-0.4,0.1l-0.5-0.2l-1.6-1l-1.7-2l-1.2-1.8l-0.2-2.1h1.6l0.2,0.9l0.6,0.8l0.3,0.2l0.4,0.2l0.9,0.3
				l3.9,0.2l-0.8-0.7l-1.3-0.4l-0.6,0l-0.5,0.1l-0.7,0.2l-0.7-0.1l-0.8-0.6l-3.7-4.5l-0.5-1.4l0.1-0.7l0.4-0.6l0.6-0.6l0.5-0.8
				l-0.4-1.8l-0.9-1l-0.9,1.8l0.7,0.5l0.1,0.6l-0.8,4.1l-0.4,0.4l-0.5,0.3l-2.2,1l-1.5-0.3l-0.4-0.2l-0.5-1.2l-0.6-0.1l-0.9,0
				l-3.1-0.6l-1.5-0.3l-1.6,0.5l-0.5,0.3l-0.9,0.2l-1.3-0.2l-0.5-0.2l-1.3-0.7l-0.5-0.8l2.6-3.9l0.8-0.5l0.4-0.1l1.6,0.2l0.5,0.2
				l1,0.9l0.4,1.4l0.7,1.8l0.8,0.9l0.7,0.3l0.7,0.1l0.4-0.2l-0.5,0l-0.9-0.3l-0.5-0.5l-0.3-1l0.8-1.3l1.7-0.4l1,0.4h0.5l0.8-0.3
				l-0.3-2.2l-1.3,0.7l-0.7,0.7l-2.2,0.5l-0.4-0.1l-3.9-4.1l-0.2-0.5l1-1.8l1.9-1.9l0.4-0.9l0.3-0.6l0.2-0.6l2.3-0.4l0.4,0.2
				l0.2,0.8l0,0.9l0.9,1.8l0.2,0.2l-0.2-0.4l-0.5-1.6v-0.7l0.2-0.9l0.2-0.4l1.4-1.3l2-3.1l-1.4-1.4l-0.4-0.2l-0.4,0l-0.4,0.2
				l-0.5,0.3l-0.5-0.2l-2-3.1l-0.3-1.6l0-0.7l-1.4-0.6l-5.2,0.5l-0.1,1.5l0.6-0.1l0.8,0l2.1,0.6l-0.2,0.7l-0.5,0.4l-0.5,0l-1.2-0.1
				l-1.5-0.7l-4.5-2.1l-2.3-1.1l-1.2-2.5l-0.1-0.8l0.2-0.6l1-1.3l1.3-1.3l-0.1-1.8l-0.4,0.7l-0.3,0.9l-1.8,2l-0.7,0.6l-1.3,0.8
				l-3,0.9l-0.8-0.2l-0.7-0.1l-1.4,0.4l-1.2,0.6l-0.5,0.4l-1,1.7l0.4,0.4l0.9-0.8l2-1.4l0.5,0l0.5,0.3l1.4,4.4l-0.2,0.7l-1.1,0.8
				l-1,0.4l-0.4,0.2l-0.2,0l-0.2,0l-1.1-0.4l-1.4-1.6l-1.3-2.4l-0.1-1.8l0.2-2.5l1.2-1.7l0.4-0.1l0.5,0l0.6,0.1l0.9-0.5l2.3-2
				l-0.1-0.9l0.9-1l0.4-0.4l1.2-0.7l0.8,0.8l0,0.3l0.1-1.6l0.3-1.3l2.1-2.3l0.8-0.1l1.7,0.1l2.5-2.7l0.6-1.5l1.2-3.6l0.6-2.2
				l0.3-0.4l4.1-0.5l1.6-0.4l0.6,0.2l0.4,0.9l1-0.7l2-0.3l0.4,0.3l0.5,0.7l1,2.9l-0.5,2.8l-0.3,0.8l-0.4,0.8l-0.4,0.4l-0.3,0.3
				l0.4-0.1l1.2-1l0.4-1.4l0-0.6l-0.2-0.6l0.2-0.5l1.5,1.4l0.1,0.6l-0.1,0.8l-0.2,0.7l-0.2,0.4l-0.5,0.5l-0.9,0.8l-1,0.6l-1.2,0.6
				l-2.2,0.7l-0.6,0.1l-0.6-0.2l-0.8-0.6l-0.4-0.4l-0.8-0.5l1.6,1.6l0.4,0.3l0.4,0.2l0.5,0l1.8-0.5l1.5-0.4l0.6-0.3l1-0.5l0.4-0.1
				l0.8,2.5l1.9,1.3l0.5,0.2l0.2,0l0.2-0.3l-0.5-0.8l-0.5-0.3L185,682l-1.5-1.8l0.6-1.5l0.4-0.4l1.3-0.1l2.4,2.7l-0.1,1.5l-0.2,1
				l-0.3,0.8l-0.3,0.6l-1.3,1.7l-0.6,0.6l-1.5,2.4l1.5,1.2l0.7,0l0.5-0.3l0.3-0.4l1-2.2l0.2-0.6l0.4-1.4l3.2-4l0.7-2.3l2-3.1
				l-0.3-0.3l-1.8,2.5l-0.8,1.3l-0.3,0.9l-0.6,1.1l-0.5,0.6l-0.6,0.2l-0.1-1.2l0.1-0.5l0.6-1.4l0.3-1l0.2-1.1l0.1-0.9l-0.5-1.6
				l-0.4-1.2l2.3-4.5l1.9-2.2l0.4-0.4l0.6-0.5l0.5-0.2l0.4-0.1h0.9l1,0.1l0.6-0.1l0.4-0.4l-2.6-0.9l-0.7,0.1l-0.8,0.3l-0.6,0.5
				l-0.5,1l-0.3,0.4l-1.5,1.4l-0.4,0.1l0.2-2.4l1-6.1l2.2-2.1l1.9-1.4l1.5-0.6l0.6,0.5l0.1,0.8l0.6,0.6l0.8,0.7l1.6,1.2l1.2,0.4
				L204.9,660.4L204.9,660.4z M205,641l-0.1,0.1l-0.9,0.7l-0.9,0.5l-1.3,1.3l-0.2,0.4l-0.2,0.3l-0.2,0.2l-1.2,1l-1.1,0.5l-0.5,0.2
				l-0.7,0.1l-0.3-0.1l-0.3-0.2l-2-2.3l-0.1-0.3l0-0.3l0.1-0.2l1.8-0.7l0.3,0.1l0.2,0.2l0.3,0.3l0.8-0.2l0.2-0.1l-0.5-0.5l-1.2-0.5
				l-0.8,0.5l-0.2,0.2l-0.2,0.2l-0.2,0l-0.3-0.2l-0.2-0.2l-0.6-1.2l-0.2-0.6l-0.3-1.7l0.7-1.1l0.2-0.2l0.6-0.1l0.2,0l1.8-0.3
				l0.2-1.2l0.1-1l0-0.4l0.1-0.3l0.4-1l0.2-0.3l0.2-0.1l2.4-0.8l1.7-0.4l0.2,0.1l2.2,1.8l1.5,0.5l0.4,0.3l0.8,1.4l0.1,0.3l-0.1,0.3
				l-1.4,2.1l-0.2,0.2l-0.2,0.1l-0.4,0.1l-1.2-0.1l-0.2-0.2l-0.2-0.3l-1-0.4l0,0.4l0.2,0.3l1.1,0.8l0.6,0.2l0.7,0.2l0.2,0.4
				l-0.3,0.6l-0.3,0.4L205,641L205,641z M161.6,748.4l-0.2,0.2l-0.4,0.1l-0.8-2l-0.3-1.4l-0.4-2.7l0.1-0.4l0.4-1.2l-1.9-1.1
				l-1.2,0.6l-0.3,0.1l-0.4,0.1h-0.4l-0.2-0.1l-0.4-0.2l-0.1-0.2l0-0.3l0.1-0.3l0.4-0.3l0.3-0.2l0.5-0.2l0.7-0.1l0.5-0.1l0.3-0.1
				l0.4-0.2l0.3-0.3l0.3-0.5l0.2-0.4l-0.2-0.1l-0.9,0.5l-2.5,0.3l-0.2-0.3l-0.7-6.1l0.1-0.3l0.8-1l0.5-0.4l2.7-0.8l0.3,0.1l0.2,0.3
				l1.1,3.6l0.1,0.5l0.1,1.6l0.7,2.1l0.4,1.2l0.5,0.6l0.7,1.2l1,2.8l0.2,2.4l-0.1,0.5l-0.2,0.2L161.6,748.4L161.6,748.4z
				 M172.4,748.2l-2.3-1.6h-0.3l-0.3,0.2l-0.3,0.1l-0.4,0l-2.2-0.5l-1.2-0.7l-0.3-0.2l-0.1-0.3l-0.3-2.1l0.1-0.5l0.2-0.3l0.2-0.2
				l1.3-1.5l0.3-0.2l1.2-0.1l0.2,0.1l0.2,0.4l0.4,0.6l0.1,0.4l0.2,0.3l0.8,0.7l0.9-1.1l0.1-0.3l-0.2-0.3l-0.2-0.1l-0.5-0.1l-0.6-1.2
				l-0.1-0.3l-0.2-1v-0.4l0-0.4l0.8-4.1l0.2-0.4l0.1-0.2l0.2-0.2l0.2,0.1l0.4,0.5l0.1,0.2l0.1,0.5v0.5l0.1,1.1l0.2,2l1.7,3l-0.4,1.3
				v1.6l0.1,1.3l0.1,0.5l0.9,1.2l0.3,0.1l0.2-0.2v-0.3l-0.1-0.3l0-0.3l0.2-0.1l0.2,0.1l0.2,0.2l0.2,0.2l0,0.4l-0.1,0.8l-0.1,0.5
				l-0.2,0.2l-0.2,0.2l-1,0.6l-0.3,0.1l-0.4,0L172.4,748.2L172.4,748.2z M164.9,741.2l-0.3,0l-0.2-0.1l-2.6-5.9l-1.2-3.5l0.1-0.8
				l0.6-0.1l1.2,0.3l2.2,0.5l0.5,0.3l1.6,1.3l2.1,0.5l0.2,0.3l0,0.5l-0.1,0.6l-0.6,4l-0.2,0.2l-0.3,0.1l-0.5,0l-1,0.7l-0.4,0.3
				l-0.5,0.4L164.9,741.2L164.9,741.2z M189,655.4l-1.1-0.4l-0.7-0.8l-0.8,0l-1,0.3l-0.3,0l-0.7-0.1l-0.2-0.1l-0.2-0.2l-0.2-0.3
				l-1.7-2l-0.6,0.3l-1.3,0.3l-0.3-0.1l-0.2-0.2l-0.1-0.7l-0.1-0.8l0-0.3l0.1-0.5l0.3-0.4l0.6-0.6l0.2-0.2l0.4-0.1l0.4,0l0.2,0.1
				l0.3,0.1l0.9-0.1l1.5-0.3l0.4-0.1l0.7-0.4l0.2-0.2l0.3-0.1l0.4,0.1l0.3,0.1l0.2,0.1l1.1,0.9l0.2,0.2l0.2,0.2l0.1,0.2l0.7,1.2
				l0.3,0.8l0,0.3l0,0.3l-0.1,0.7L189,655.4L189,655.4z M178,728.4l-0.7-0.4l-2.3-0.9l-0.4-0.3l0-0.3l1.5-1.7l0.2-0.2l0.3-0.2
				l1.8-0.9l0.4-0.1l4.2,1.4l2.2,0.9l0.5,0.1l0.3-0.1l0.6-0.5l0.2-0.1l0.2,0l0.2,0.2l0.3,0.4l0.1,0.3l-0.1,0.4l-0.4,1l-0.3,0.2
				l-0.6,0.2l-0.3,0l-0.7,0l-2,0l-0.4-0.1l-0.4-0.2l-0.3-0.1l-0.4-0.1l-0.2,0l-3,0.9L178,728.4L178,728.4z M179.1,642.8l-0.3-0.1
				l-0.5-0.2l-0.3-0.2l-0.2-0.2l-0.3-0.3l-0.4-0.5l-0.7-1.6l0-0.3l0.1-1.1l0.2-0.2l2.5-0.7l0.3-0.1l1.6,0l3,0.2l0.6,0.2l0.2,0.1
				l0.4,0.3l0.2,0.2l0.2,0.3l0.5,0.8l0.1,0.4l-2.6,0.7l-3.2,1.4l-0.5,0.2L179.1,642.8L179.1,642.8z M164,677l-0.2-0.2l-0.1-0.3
				l-0.2-0.8l0.1-0.3l0.2-0.2l2.2-0.6l0.3,0.1l-0.1-0.6l-0.5-0.1l-0.5,0.2l-0.7,0.1l-0.3-0.1l-0.2-0.4l-0.7-2.4l0.1-0.3l0.3-0.2
				l0.4-0.1l1.7,0.7l0.2,0.1l0.3,0.2l1.2-0.7l1.6-1.5l1-0.5l0.4-0.1l0.2,0.4v0.4l-0.1,0.4l-0.9,3.7l-0.1,0.3l-0.1,0.2l-0.5,0.6
				l-2,1.9l-0.3,0.2l-1.3,0.1l-0.4-0.1l-0.7-0.2L164,677L164,677z M154.1,748.1l0.5-0.7l0.6,0.1l0.5-0.2l0.3-0.1l0.5-0.3l0.2-0.2
				l0.4-0.4l0.1-0.4l-0.2-0.2l-0.3,0.3l-0.3,0.3l-0.2,0.1l-0.4,0.1h-0.3l-1.3-0.1l-0.9-0.4l-0.4-0.8l0.4-3l0.5-1l0.4-0.1l4-0.4
				l0.9,0.2l0.1,0.4l0.4,4l-0.1,0.3l-0.9,0.8l-0.4,0.4l-1.2,0.9l-0.6,0.4l-0.2,0.1l-0.3,0.1l-0.6,0.1l-0.7-0.1l-0.4-0.1L154.1,748.1
				L154.1,748.1z M175.4,668.5l-0.3-0.1l-0.2-0.4l-0.2-0.5l0-0.4l0.2-0.3l0.4-0.5l0.3-0.5l0-1l-0.2-1.1l-0.2-0.8v-0.4l0-0.4l0.1-0.5
				l0.1-0.3l0.2-0.6l0.2-0.5l0.3-0.5l0.4-0.2l1.7,0.8l0.3,0.2l0.2,0.2l0.4,0.8l0.2,0.5l0.4,1.4l0.2,1.1l-0.4,1l-0.2,0.2l-2.9,2.3
				l-0.2,0.1L175.4,668.5L175.4,668.5z M167.4,730.8l-0.3,0l-1-0.3l-1.1-0.5l-0.2-0.1l-0.1-0.3l0.3-0.5l-0.4-0.3l-0.5-0.1l-0.5,0
				l-0.4,0.2l-0.4,0.5l-0.3,0.5l-0.3,0.1l-0.5,0.1l-0.6,0.1l-0.4-0.1l-0.3-0.2l1.1-1.6l0.5-0.4l0.2-0.2l1.3-0.4l0.6-0.1l0.4,0
				l1.7-1.2l1.3-1.8l1.1-0.5l0.3,0.2l0.1,0.9l0,0.3l0,1l0,3.9l-1,0.7l-0.2,0.1L167.4,730.8L167.4,730.8z M190.4,668l-0.2,0l-0.3-0.2
				l-1.9-2.2l-0.1-2.8v-0.4l0.1-0.4l0.1-0.3l0.2-0.4l1-1.5l0.2-0.2l0.4-0.1l0.3,0l1.4,0.4l0.2,0.3l0.1,0.9l-0.6,5.1l-0.4,1.4
				l-0.2,0.3L190.4,668z M178.8,648.7l-0.2,0l-1.4-0.4l-0.1-0.2l0.3-0.7l2.8-2.7l0.3-0.2l0.3-0.1l0.3,0l3.4,0.9l0.2,0.2l0.7,0.9
				l0.1,0.3l-0.2,0.2l-0.7,0.4l-0.4,0.1l-1.2,0.3l-0.3,0l-1.5,0l-1-0.1l-0.3,0.1l-0.2,0.1L178.8,648.7L178.8,648.7z M188.7,641.2
				l-0.2,0l-1.2-1.6l-0.1-2.5l0.1-0.4l0.3-0.2l1.8-0.4l0.3,0l0.3,0.2l0.3,0.3l0.6,1.5l0.7,2.2l0,0.3l-0.2,0.1l-2,0.6L188.7,641.2
				L188.7,641.2z M184.1,620.3l-0.5-0.6l-1.9-0.6l-0.9-0.3l-0.1-0.2l0.4-1.4l0.2-0.2l0.3-0.1l1.1,0.1l0.3,0.1l2.5-0.4l1-0.9l1.3,1.5
				l0.4,1.2l0.1,0.6l-1.7,0.1l-0.2-0.2l-0.3-0.1l-0.1-0.3l0.3-0.2l0.2-0.2l-0.3-0.2l-0.5-0.1l-1.1,0.3l-0.1,0.6l0.2,0.3l0.1,0.3
				l0.5,0.3l-0.6,0.7l-0.3,0.1L184.1,620.3L184.1,620.3z M183.9,657.3l-0.2,0l-2.2-0.9l-0.2-0.2l-0.4-1.7l0.4-0.5l1.1-0.5l0.3,0
				l0.3,0.1l0.2,0.2l0.2,0.7l0.2,0.2l0.2,0.1l0.3,0.1l0.3,0.1l0.7,0l0.3,0l0.7-0.1l0.5-0.1l0.5,0.1l0.2,0.1l0.2,0.2l0.3,0.5l0.2,0.5
				l0,0.5l-0.2,0.4l-0.2,0.1l-1.4,0l-1.6,0.1L183.9,657.3L183.9,657.3z M174.2,738.3l-0.2-0.1l-1.2-2.5l-0.1-0.3l0-0.5l0-0.7l0-1
				l0.6-0.9h0.3l0.4,0.3l0.6,0.6l2,2l0.4,0.9l-0.8,1.1l-0.2,0.2L174.2,738.3L174.2,738.3z M188.2,680l-0.6-0.6l-0.2-0.2l-2.2-3
				l0-0.4l0.2-0.7l0.2-0.2l0.3-0.1l0.9,0l0.3,0l1.7,0.7l0.8,0.6l0.3,0.3l0.1,0.5l-0.1,0.5l-1,2l-0.3,0.5l-0.2,0.1L188.2,680
				L188.2,680z M176.5,636.1l-2.1-0.5l-0.3-0.3l-0.1-0.2l-0.2-0.9l0.1-0.4l0.4-0.4l0.3-0.2l3.6-1.1l0.9,0.3l0.6,1.1l0.2,0.4l0,0.3
				l-0.4,0.2l-1.6,0.4l-1.3,0.3l-0.2,0.1L176.5,636.1L176.5,636.1z M184.2,667H184l-1-0.2l-0.2-0.2l-0.6-1.5l-0.4-1l0-0.5l0.9-1.2
				l0.6-0.4l0.3,0l0.9,0.5l0.9,0.9l0.4,0.8l0,0.4l-0.2,0.8l-0.4,1L184.2,667L184.2,667z M153.9,751.1l-0.2,0l-0.2-0.1l-0.3-0.3
				l-0.1-0.4l0.1-1.7l0.4-0.1l0.8,0.4l0.8,0.2l0.4,0.1l0.3-0.1l0.2-0.2l1.1-1l1.5-1.3l0.9,0.6l0.3,0.8l0.1,0.3l0,0.4l-0.4,0.5
				l-0.3,0.3l-3.2,1.2L153.9,751.1L153.9,751.1z M181.4,663.2l-0.1-0.2l0-0.3l0.1-0.7l0.1-0.4l0.2-0.2l0.3-0.2l0-0.6l0.2-0.4
				l0.2-0.3l0.2-0.3l0.1-0.3l0.2-0.2l0.3,0l0.3,0.2l0.2,0.1l0.3,0l0.4,0l0.2,0.1l0.2,0.2l0.2,0.2l0.5,0.2l0.2,0.2l0.2,0.1l0.3-0.1
				l0.5-0.4l0.3-0.1l0.3,0.2l0.1,0.4l-0.1,0.5l-0.2,0.5l-0.1,0.4l-0.3,0.5l-0.1,0.5l-0.2,0.1l-0.4-0.3l-0.2,0l-0.3-0.1l-0.3-0.5
				l-0.4-0.1l-0.4,0l-0.6-0.3l-0.6-0.1l-0.2,0.1l-0.3,0.2l-0.4,0.1l-0.3,0.3l-0.2,0.5l-0.2,0.3L181.4,663.2L181.4,663.2z
				 M180.8,706.1l-0.2-0.2l-0.8-1.1l0-0.4l0-0.4l0.6-1.8l0.2-0.3l0.2-0.2l0.2-0.1l2.4,0.1l1.1,0.8l-1.5,2.2l-0.4,0.4l-0.2,0.2
				l-0.2,0.1l-0.9,0.3L180.8,706.1z M186.8,646.8l-0.7-0.7l-0.6-0.7l-0.2-0.3l-0.1-0.2l-0.1-1.9l0.1-0.4l0.3-0.3l0.3-0.2l0.3-0.1
				l0.4,0l0.4,0.2l0.2,0.3l1.2,3l0.1,0.8l-0.1,0.4l-0.1,0.2l-0.3,0.2l-0.4,0.1l-0.2-0.1l-0.2-0.1L186.8,646.8z M178.9,741.9
				l-0.3-0.4l-0.2-0.2l-0.3-0.2l-1.3-0.9l-0.4-0.2l-0.9-0.4l-0.3-0.2l-0.3-0.4l-0.1-0.3l2.4-1.8l0.3-0.2l0.2,0l0.4,0.1l0.3,0.3
				l0,0.5l-0.3,0.8l0,0.3l0.2,0.4l0.5,0.8l0.4,0.4l0.4,0.3l0.3,0.3l-0.1,0.4l-0.2,0.2l-0.5,0.3L178.9,741.9L178.9,741.9z
				 M170.9,667.2l-0.1-0.3l0-0.5l0.1-0.3l0.3-1.4l0.1-0.3l0.1-0.2l0.2-0.3l0.2-0.2l0.2-0.1l1-0.5l0.4,0l0.2,0.2l0.1,0.3l-0.2,2.5
				l-0.6,1.4l-0.2,0.2l-0.2,0.1l-0.4,0.1l-0.2,0l-1-0.2l-0.2-0.2L170.9,667.2L170.9,667.2z M185.7,674.1l-0.2-0.1l-0.2-0.3l-0.3-0.9
				l0-0.4l0.2-0.4l0.1-0.2l0.5-0.8l0.3-0.4l2.7-1.6l0.3,0.1l0.2,0.4l0.1,0.3l0.1,0.4l0.1,1.4l-0.3-0.2l-0.2-0.2l-0.3-0.1l-0.8,0.1
				l-0.4,0.2l-0.3,1.3l-0.6,1.2L185.7,674.1L185.7,674.1z M161.9,724.3l0.1-0.5l-0.1-0.3l-0.2-0.2L161,723l-0.3-0.1l-0.4,0l-0.3-0.1
				l-0.2-0.3l0.7-0.8l2.3-1.3l0.3,0.2l0.6,0.8l0.2,0.5l0.3,1.1l-0.1,0.4l-0.3,0.5l-0.2,0.2l-0.2,0.2l-0.5,0.3l-1.3,0.2L161.9,724.3
				L161.9,724.3z M183.5,672.2l-0.9-2.1l-0.4-0.8l-0.2-0.7l0.2-0.5l0.2-0.2l0.7-0.6l0.3-0.1l1.3,0.5l0.1,0.9l-0.1,2l-0.1,0.4
				l-0.3,0.7l-0.6,0.4L183.5,672.2L183.5,672.2z M176.8,644.2l-0.3-0.1l-1.2-0.7l-1.2-1.8l0-0.4l0.2-0.3l0.2-0.1l1.1-0.4l0.4,0.2
				l2.1,3l0,0.3l-1.2,0.3L176.8,644.2z M176.7,658.4l-1.8-1l-0.2-0.2l-0.3-0.3l-0.3-0.5l-0.1-0.3l0.1-0.4l0.2-0.2l0.4-0.1l0.3,0
				l0.3,0h0.8l0.4,0.1l0.2,0.2l0.3,0.4l0.2,0.4l0.7,1.8l-0.2,0.2l-0.3,0.1l-0.4,0.1l-0.5-0.1L176.7,658.4L176.7,658.4z M183.1,636.3
				l-0.5-0.1l-0.6-0.2l-0.4-0.2l-0.2-0.2l-0.1-0.3l0.1-1.8l1.9,0.3l0.5,0.1l0.4,0.2l0.2,0.2l0.2,0.2l0.1,0.3l0.1,0.4l0,0.5l-0.1,0.4
				l-0.3,0.2L183.1,636.3L183.1,636.3z M199.5,622.6l-0.5-0.1l-1.4-0.7l-0.2-0.4l-0.1-0.5l0.1-0.4l0.3-0.7l0.2-0.3l1.2-0.7l0.4-0.1
				l0.2,0.1l0.2,0.2l0.1,0.2l0.1,0.4l-0.3,2.7L199.5,622.6L199.5,622.6z M183.8,630.5l-0.3,0l-0.2-0.1l-0.7-0.6l-0.3-0.4l-0.6-2.2
				l1.1-1.3l0.3,0.1l1.2,1.4l0.7,0.8l-1.1,0.4l-0.1,0.4l0,0.3L183.8,630.5L183.8,630.5z M190.4,625.4l-1.3-2.4l-0.5-1.3l0-0.4
				l0.1-0.4l0.2-0.5l0.2-0.2l0.4,0l1.3,1.8l0.4,1.8l-0.1,0.7l-0.5,0.7L190.4,625.4L190.4,625.4z M175.9,743.5l-0.4-0.9l-0.9-1.7
				l-0.1-0.3l0-0.3l0.3-0.4l0.3,0l0.5,0.2l1.4,0.8l0.9,0.6l0.3,0.3l0.2,0.3l0,0.3l-0.2,0.2l-0.4,0.2l-1,0.5l-0.5,0.2l-0.2,0
				L175.9,743.5L175.9,743.5z M177.7,655.7l-1-0.8l-0.3-0.3l-0.2-0.2l-0.1-0.3l0-0.4l0.3-1.4l0.2-0.5l0.5,0l0.2,0.1l1.5,1.4
				l-0.6,2.3l-0.2,0.2l-0.2-0.1L177.7,655.7L177.7,655.7z M175.3,640l-0.7,0l-2.3,0l-0.9-0.4l0-0.3l0.1-0.3l0.7-0.8l0.3-0.2l0.4-0.1
				l0.3,0l0.5,0.1l1.4,0.3l0.3,0.2l0.1,1.3L175.3,640z M175.3,705.7l-0.4-0.9v-1l0.1-0.2l1.1-0.6l0.3-0.1l0.6-0.1l0.6,0.1l0.4,0.1
				l0.2,0.2l-0.1,0.4l-0.2,0.5l-0.2,0.2l-2.1,1.7l-0.3,0.2l-0.2-0.3L175.3,705.7L175.3,705.7z M163.7,646l-0.2,0l-0.3-0.2l-0.6-1.8
				l-0.1-0.3l0-0.3l0.1-0.3l0.2-0.4l0.4-0.6l0.4-0.1l0.3,0.2l1,1.7v1.2l-0.9,0.8L163.7,646L163.7,646z M184.6,633.1l-1.9-1l-0.3-0.3
				l-0.4-1.5l0.3-0.1l2.9,0.9l0.1,2.1l-0.1,0.2l-0.4-0.1L184.6,633.1L184.6,633.1z M177.9,636.9l-0.2,0l-0.2-0.2l-0.3-0.4l-0.1-0.3
				l0-0.3l0.1-0.2l1.3-0.6l1.9-0.2l1,1.4l-0.9,0.3L177.9,636.9L177.9,636.9z M182.7,742.5l-0.2,0l-0.4-0.2l-1.6-1.1l-1.1-1.2
				l-0.2-0.4l0.1-0.4l0.4-0.1l0.3,0l0.2,0l0.4,0.1l1.8,1.3l0.2,0.2l0.2,0.3l0.1,0.3L182.7,742.5L182.7,742.5z M189.8,675.2l-0.2,0
				l-1.8-0.5l-0.5-0.4l-0.1-0.3l0-0.4l0.9-1.8l0.3-0.2l0.2-0.1l0.8,0.8l0.5,2.6L189.8,675.2L189.8,675.2z M189.7,643.6l-0.7-0.4
				l-0.4-0.3l-0.1-1.1l0.1-0.4l2.1-0.5h0.3l0.2,0.2l0.1,0.3l-0.3,1.9l-0.3,0.4l-0.4,0.1l-0.5-0.1L189.7,643.6L189.7,643.6z
				 M186.4,627l-1.4-0.3l-0.6-0.2l-0.3-0.2l-0.2-0.2l-0.1-0.2l-0.1-0.3l0.7-0.7l0.5-0.4l0.4-0.1l0.2,0.1l0.8,0.6l0.8,1l-0.1,0.5
				l-0.1,0.2l-0.2,0.1L186.4,627L186.4,627z M183.2,644.2l-0.5,0l-1.9-0.8l-0.3-0.3l0.3-0.2l1-0.2l0.6-0.1l0.3-0.1l0.5-0.2l0.3-0.2
				l0.3-0.1l0.7,0.2l0.2,0.3l-0.1,1l-0.2,0.2l-0.2,0.1l-0.7,0.3L183.2,644.2L183.2,644.2z M165.4,722.9l-0.2,0l-0.7-0.6l-0.2-0.2
				l-0.4-1.6l0.2-0.2l0.4,0l1.5,0.3l0.2,0.1l0.3,0.4l0.4,0.7l0.1,0.3l-0.2,0.4l-0.7,0.3L165.4,722.9L165.4,722.9z M169.3,639.7
				l-0.2-0.1l-0.4-0.6l-0.1-0.3l-0.1-0.6l0-0.5l0-1l0.1-0.3l0.2-0.2h0.3l1,0.6l0.2,0.3l0.1,0.4l0,0.4l-0.3,1.6l-0.4,0.3l-0.2,0.1
				L169.3,639.7L169.3,639.7z M185.4,659.3l-1.3-0.4l-0.5-0.2l-0.1-0.2l0.1-0.4l0.3-0.2l0.8-0.3l0.4-0.1l1.9,0l0.2,0.1l0.1,0.4
				l0,0.5l-1.3,0.7l-0.2,0L185.4,659.3L185.4,659.3z M186.6,630.6l-1.8-0.4l-0.2-0.3l-0.1-0.9l2.9-0.3l0.3,0.1l0.1,1l0,0.4l-0.3,0.2
				l-0.3,0.1l-0.4,0.1L186.6,630.6L186.6,630.6z M201.8,615l0.8-0.6l0.9-0.2l0.7,0.7l0.5,0.2l0.3,0l0,0l-0.3,0.3l-1.2,0.1L201.8,615
				L201.8,615z"/>
			<path id="CL-MA" class="st2" d="M199.1,847.3l-0.4,0l-0.6-0.2l-0.6-1.6l-0.3-3.4l-0.1-3.3l-0.4-2.6l-0.3-0.7l-0.9-1l0.2,0.7
				l0.6,1.6l0.2,1.5l1,9.9l-0.2,1l-0.5,0.3l-0.6-0.3l-3.7-3.1l-0.4-0.5l-0.3-0.9l0.1-1.2l-0.6-2l-0.8-2.2l0.9-0.6l0.2,0.7l1.5,3.3
				l1.4,2.3l0.6-0.2l-1.4-3.2l-2.1-4.7l0.7-0.3l0.6-0.4l0.8-1.1l-2.7,0.8l-1.6,2.1l-1.2-2.3l-0.5-2.1l-1.2-0.3l-0.9-0.3l-0.4-5.6
				l0.1-0.7l0.4-1l1.7,0.5l1.9,2.2l0.5,1.2l1,2.4l0.2,1.3l0.2-0.2l0.1-0.8l-1.8-5.5l-1.6-5.9l0.7-0.5l0.7,1.1l0.2,0.8l-0.4-3.3
				l-0.4-0.5l-0.5,0.3l-1.8,2.2l-0.5,0.4l-0.4,0.1l-3.4-1l-0.8-0.7l-0.4-3.3L180,816l-0.4-0.3l-0.2-3.2l0.4-0.7l0.8-0.6l0.8-0.3
				l4.3,0l0.4,0.3l0.6,1.1l1.3-3.7l0-3l0.5-0.8l1.6-0.5h0.6l1.1,0.7l0.2,0.9l0.5,0.4l0.6-1.3l-1.1-1.2l-0.9-0.2l-0.8-0.2l-1.2-1.4
				l-0.1-0.7l0.4-0.7l0.4-0.1l0.6-0.1l0.5-0.3l0.3-0.4l0.6-2.5l-3.5,3.4l-0.3,0.6l-0.5,1.9l-0.5,2.5l0.2,0.7l0.1,0.8l-0.2,0.5
				l-2,1.9l-0.4,0.2l-1.8-0.2l-1.4-1.7L181,806l-1.3-3l-1-3.6l1.4-0.5l1.7,0.7l0.5,0.3l0.4,0.4l0.4,0.4l0.5,0.3l2.4,0.4l-0.9-0.7
				l-0.9-0.3l-1.6-1.2l-0.8-1l-3.2-0.3l-3.4-2.4l-4-4l-0.1-0.9l0.4-0.8l0.7-0.8l0.9-0.7l1.8-0.6l1.1,0.4l1.6-0.2l1,1.3l0.4,0.9
				l1.3,1.5l4.5,2l1.2,0.2l0.3,0l0.3-0.2l-4.9-2.3l-0.4,0l-0.4-0.2l-0.6-0.6l-3-5.5l0.2-1.2l0.4-0.7l1.3,0.2l0.9,0.3l1.8,2l4.4,1.8
				l0.1-0.9l-0.2-0.8l-2-0.9l-1.7-0.7l-3.7-1.9l-0.5-0.8l-0.4-1.9l1.9-1.1l1-0.4l0.9-0.2l0.6,0.2l0.8-0.2l0.2-0.9l-2.4,0.3l-1.6,0.4
				l-0.4-0.1l-0.4-1.2l-0.1-1.5l0.1-0.7l1.5-1.5l2.4-0.8l0.4-0.1l2.6,0.6l0.3,0.6l0.4,1.6l0.5,0.9l0.7,0.3l0.5,0.2l1.2,1.3l0.5,1.7
				l0.2-0.9l-0.4-1.3l-0.5-1.1l-0.4-0.3l-1.4-0.1l-0.5-2l0.1-1.6l-0.8-0.5l-1.4,0.2l-1.9-0.6l-0.3-0.4l-0.2-2l0.7-3.9l0.3-0.4l0.6,0
				l0.7,0.6l0.2,0.6l0.4,0.6l0.9,0.6l0.6,0.2l0.7-0.2l-0.8-0.5l-0.6-0.1l-0.3-0.3l-1-1.7l-0.6-4.6l0.2-0.5l0.6-0.8l0.3-0.4l0.4-0.2
				l0.6,0l0.5,0.4l0.4,0.4l0.6,0.1l-0.1-0.6l-1.2-0.6l-2.8,0.3l-0.1,1.2l0.2,2.6l-1.2,2.3l-0.8,2.4l-0.2,1.6l-0.6,3.9l-0.4,0.6
				l-0.4,0.1l-0.5-0.3l-2-2.7l-0.4-2.4l0-5.1l0.1-5.6l-0.3-0.9l-0.4-0.9l-0.3-1.4v-0.9l0.2-0.6l1.1-1.9l0.8,0.5l0.6,0.2l0.4-0.1
				l0.7-0.6l0.6-0.2l1.5,0.1l1.2,0.5l0,0l6.4,5.6l4.4,3.8l5.5,4.8l0.3,0.2l0,0l1.5,0.4l-0.9,1l-5.3,0.2l-0.8,0.1l-1.4,3.8l-0.8,2.8
				l0.2,0.5l1,1.3l1.3,5.3l-0.4,0.5l-0.7,0.6l-0.5,0.6l-0.5,2.5l0.7,0.8l0.5,0.4l0.4,0.5l-0.1,0.9l-0.5,0.7l-0.4,0.9l-0.2,0.9
				l0.3,0.8l1.6,1.2l1.6,1.3l0.3,0.4l0.3,0.5l0.7,1.8l0.2,0.8l0.3,4.2l0.4,2.9l1,4.2l0.3,0.6l0.4,0.3l0.5,0.1l0.5-0.1l0.6-0.2
				l0.6-0.4l0.6-0.6l1.1-1.5l0.4-0.3l0.6-0.4l2-1h0.5l0.5,0.5l0.3,0.4l0.4,0.3l0.6,0.2l0.6-0.1l0.4-0.3l0.4-0.8l0.4-0.5l0.5-0.2
				l0.5-0.1l2.3,0.3l1.4,1.1l-0.1,0.7l-0.7,1.6l0.1,0.7l0.6,0.7l0.4,0.6l0.5,0.9l0.2,0.7l-0.4,4.6l-0.3,0.6l-1,0.1l-1.1,2.2l0.4,1.5
				l0.4,0.6l0.5,0.4l0.7,0.4l0.8,1l-0.2,0.8l-0.5,0.6l-0.4,0.8l0,1.4l0.1,1.2l-0.7,2.6l-0.4,0.4l-0.6,0.4l2.1,5.5l0.6,0.3l0.9,0.2
				l0.5,0.2l0.4,0.2l0.5,0.4l0.9,0.7l2.4,2.7l0.3,0.8v1l0.6,2.5l4,0l8.6,0h14.9l6,0h2.1l1,0.4l3.3,1.5l5.7,2.5l3.2,0l1,0l3.7,1.6
				l0.8,0.3l1,0.7l2,1.5l1.9,0.3l1.5,0.2l1.4,0.2l2.6,0.7l-0.1,1.5l-0.7-1.3l-0.6-0.3l-3.2-0.5l-2.2-0.1l-0.4,0l-2.3-0.4l-0.7-0.3
				l-0.4-0.3l-0.8-0.7l-0.5-0.4l-0.9-0.6l-0.7-0.3l-0.7-0.1l-0.4,0l-1.1,0.1l-3.3,1.5l-0.5,0.4l-0.2,0.5l-0.1,0.9l-0.1,2.1l-1.2,2.1
				l-0.5,0.6l-1,1l-0.3,0.5l-0.4,0.3l-2-0.3l-0.5-0.5l-1.9,0.4l-4.2,1.9l-0.5,0.3l-6.1,3.7l-0.6,0.1l-2.9,0.4l-2.4,0.4l-0.6,4.5
				l0.2,0.9l0.4,0.4l0,2.3l-1.4,4.2l-0.4,0.6l-0.4,0.5l-0.3,0.7l-0.2,0.9l-0.7,5.3l0,1l0.1,0.8l0.2,1l0.3,0.8l0.2,1l0.1,0.9l0.1,1.2
				l-0.1,1l-0.7,4l-0.4,0.8l-0.9,1.2l-3.5,1.6l-0.9,0.4l-3.1-1.6l-0.6-0.2l-0.8-0.1l-0.9-0.1h-0.4l-0.7-0.1l-1.2-0.4l-2.9-2.1
				l-1.5-0.4l-2.1-0.7l-1.2-0.7l-3.2-3.4l-1.1-1.7l-0.9-1.5l-0.4-0.8l-0.6-1.6l0.5-2.6l2.6-2.3l3.2,0.4l0.5,1.5l0.1,0.7l-0.1,1.1
				l-0.2,0.7l-1.2,0.8l-1.3,0.7l0.7,0.3l1.6-0.5l0.6-0.4l1.1-0.8l0.1-0.7l-0.1-1l-0.2-1.3l-0.1-0.7l0.2-1l0.4-0.6h2.3l0.5,0.7
				l0.9,5.8l-0.2,0.8l-0.4,0.4l-0.6,0.5l-1.8,1l-0.5,0.2l-0.7,0.5l0,0.9l0.2,0.2l0.9-0.6l2.2-0.9l0.6-0.4l0.8-1.6l-0.1-2.1l-0.2-1.5
				l0.1-1.9l0.5-2.2l4.9-2.6l0.6,0.1l0.5,0l0.6-0.2l0.4-0.2l0.4-0.3l0.4-0.4l3.7-6.5l0.2-0.8l-0.9-1.6l-1.6-0.5l-1.8-0.1l-4.7,2.6
				l-4,2.5l-1.5,1.3l-0.3,0.8l-2,3l-1,0.3l-0.5,0l-0.7-0.5l-0.4-0.5l-0.4-0.7l-0.3-0.6l-0.4-0.4l-1.5-0.5l-4,1l-0.5,0.6l1.5-0.2
				l1.9,0l2.9,2.5l0.4,0.8l-0.2,0.6l-2.6,0.8l-0.6-0.1l-0.7-0.6l-1.3-0.4l-0.9,0.5l0.5,0.8l0.7,0.3l0.4,0l0.6,0.3l-1.8,3.6l-0.6,0.2
				l-1-0.3l-0.5-0.8l-0.3-0.4l0.2,1.2l1.6,1.8l0.5-0.5l0.5-0.1l1.9,2.9l0.3,0.8l-0.3,0.6l-1.8,0.3l-0.2,0l-0.5-0.6l-3.6-3l-2.5-1.4
				l-1.4-1l-0.4-0.6l-2-1.6l-0.4-0.2l-0.6,0l-0.5-0.2l-1.3-1.2l-1.6-2.3l4.1,0.3l1.5-0.3l1,0.2l1.8,1.5l1.3,2.2l0.4,0.4l0.8-0.1
				l0.3-1.6l-1-0.9l-0.8-0.9l0.6-1.3l0.8,0.2h1.1l-0.9-0.6l-1.3-0.2l-0.5,0.2l-0.5,0.5l-0.5,0.2l-1.6-1.4l0.5-0.6l0.2-0.3l0.4-1.4
				l-0.8-1l-0.6-1.8l-0.2-2.4l0.8-1l3.7-2.4l2.5,1.6l2.2,0.7l0.8-0.2l2.2-1.9l2.2-2.6l0.3-0.6l3.1-0.4l2.1,1.5l0.9,0.2l1,0.1
				l1.4-0.1l0.7-0.1l0.5-0.1l0.6-0.2l2.7-1.3l-0.8-1.9l-0.5-0.4l-0.7,0l-0.5,0.2l-0.6,0l-2.4-0.4l-2.8-0.6l-4-0.5l-2.7,0.1l-0.7,0.1
				l-0.6,0.8l-0.5,1.2l-1,2.2l-2.3-2l0.9-1.3l0.5-0.4l0.6,0l0.8-0.4l-0.4-0.5l-2,0.7l-0.4,0.3l-1.6,0.2l-3,0l-2,2.5l0.3,0.4l1.3-0.9
				l2.4,0.9l0.1,0.7l-1.4,2.1l-0.8,0.9l-1.2,1.1L204,869l-0.5,0.1l-0.5,0.7l-0.5,0.8l0.6,1.9l0.5,2.1l-0.1,1.3l-0.5,1.2l-2,0.7
				l-0.1,0.1l-0.6,0.3l-1.5,0.1l-2.1-0.9l-2.4-2.3l2.6-2l1.4-1.5l-2.3-0.3l-3.7-2.4l0.9-0.8l1.7,0.1l0.5,0.5l2.9-0.4l-0.4-1
				l-0.1-1.2l2.9-6.5l0.8-0.4l1.6,0.3l1,0.3l0.6,0.1l-0.5-0.7l-1.8-0.4l-0.6-0.1l-0.5,0.1l-1.4,0.3l-0.5,0.5l0.3,1.6l-0.2,0.6
				l-1.8,2.8l-0.7,0l-0.4-0.3l-0.1-0.6l-0.1-1.3l-0.5-0.3l-0.5,0.2l-2.1,1.8l-1,1.1l-0.7,1.2l-0.3,0.6l-1.5-0.7l0.2-3.8l1-1.2
				l0.7-0.2l0.5,0.2l0.2-0.5l-0.9-0.3l-0.3-0.6l-0.9-2.8l0-0.9l0.3-0.6l0.5,0.1l0.5,0.1l0.5-1.6l-0.3-2.8l-1.1-2l-1.5-2.2l-0.3-0.8
				l0.1-1l0.5-0.4l0.5,0.5l0.3,1.1l2.2,3.5l0.6,0.1l0.9-0.7l2.2,1.4l0.4,0.1l1.1-0.2l0.4-0.4l0.5-1.3l0.9-1.5l1.3-0.7l1.4-0.7
				l0.7,0.1l0.1,2.1l-0.1,1.4l1.4,1.9l0.8,0.4l0.6-0.7l1.1-4.2l-0.2-1.1l-0.6,0.6l-0.6,1.6l0,0.8l-0.5,1.3l-1.2-0.9l0-2.6l1.5-3.9
				l1.1-0.6l2,1.5l-0.1,1.7l0.7,1.3l0.7,0.4l0.3,0.3l0.9,1.8l0.4,0.9l-0.8,3.7l-0.6,0.7l-2.5,1l-3.5,2.2l0.5,0.2l1.5-0.5l3.5-1.4
				l1-0.7l1.7-1.7l0.4-3.4l-0.3-0.7l-1.3-1.5l-1.8-2.4l-0.3-2.6l0.6-0.6l2.1,0.3l0.5-0.2l0.4-0.4l0.3-0.5l-0.2-3.9l-0.7-1.8
				l-2.8-3.4l-1-1l-0.5-0.3l-0.8-0.1l-0.9,0l-1.6-0.7l-2.6-1.7l-0.4-0.7l-0.7-0.6l-0.8,0.1l-1.5,0.4l-0.5,0.6l0.2,0.5l0.7,0.3
				l0.5-0.1l0.7-0.5l1.6,0.5l1.6,0.9l2.4,2.1l2.6,2.7l0.4,0.2l2.1,0.6l0.4,0.5l-0.3,1.5l-1.1,1.3l-1.7,0.2l-1.3-0.9l-0.5-1l-3.1-1.4
				l-3.7-2.8l-1.2-0.8l-0.8,0.1l1.1,2.9l0.6,0.4l0.7,0.1l0.5,0l0.7-0.3l0.7,0.4l0.5,0.5l0.6,1.1l-1.2,1.9l-0.4,0.3l-0.7,0.2
				l-1.3,0.4l2.2-0.3l1.2-1l0.7-0.4l0.6,0.4l0.2,0.8l-0.6,0.7l-1.3,0.5l-1.1,0.6l-0.9,0.6l-0.3,0.8L199.1,847.3L199.1,847.3z
				 M283.8,931.4l0,3.1l-0.1,0.1l-0.1,0l-0.3,0l-0.2-0.1l-0.4-0.4l-0.7-0.8l-0.4-0.3l-2.5-1.2l0.7,1.3l0.2,0.2l0.2,0.3l0.5,0.3
				l0.8,0.3l0.2,0.6l-0.4,0.5l-0.6,0.3l-2.9,0.6l-2,0.2l-0.4,0l-0.4-0.1l-6.9-2.5l-1.3-0.5l-2-1.1l-0.2-0.7l0.1-0.4l0.5-0.6l0.1-0.4
				l-0.1-2l-0.2,0l-1.4,1l-0.1,1.9l-0.3,0.7l-6.5,1.4l-2.3,0.2l-0.6,0l-0.6-0.2l-0.5-0.3l-0.3-0.6l-0.1-1.1l0.3-0.5l0.4-0.5l1-1.7
				l0.1-0.4l-0.2-0.2l-1.6,2.1l-0.5,1.1l-0.2,0.5l0,0.3l-0.6,0.2l-0.7-0.2l-3.7-0.2l-2,1l-0.3,0.1l-0.2,0l-0.7-0.2l-0.4-0.3
				l-0.3-0.4l0.9-1.1l0.3-0.2l0.3-0.1l0.7-0.2l0.6-0.2l1.1-0.7l1.6-1l0.3-0.3l1.1-1.6l0.1-0.4l-0.2-0.2l-0.4,0l-1.1,0.1l-0.2,0.1
				l-1.2,1.4l0.3,0.3l0.5,0.3l-0.1,0.3l-0.9,0.5l-1.7,0.6l-1.3,0.4l-1.8-0.1l-0.4-1l0.3-0.2l0.8,0l1.5-0.5l0.2-0.2l-0.2-0.2
				l-0.3-0.1l-0.2,0l-1.2,0.4l-1.2,1l-1.4,1.8l-0.5,0.1l-0.2-0.2l0-0.4l0.2-0.4l0.2-0.3l0.3-0.4l0.2-0.3l0.1-0.3l0.5-2.1l0-0.7
				l-0.8-0.2l-0.5,0.4l0.1,0.5L239,927l-0.3,0.4l-2,1.1l-0.3,0.1l-1.7-0.8l-0.4-0.2l-0.2-0.3l0-0.4l0.2-0.2l0.3,0l0.3-1l-0.1-1.2
				l-1.3-1.8l-0.4,0l-0.9,1l-1.4,3.7l-0.1,0.7l-0.2,0l-0.3-0.2l-3-2.2l-0.2-0.3l-0.5-0.1l-0.5,0.2l-0.8,0.7l-0.4,0.5l-0.4,0.1
				l-1.8,0.1l-0.2,0L222,927l-0.3-0.3l-0.2-0.6l-0.4-1.9l-0.1-1.9l0.1-1.5l0.2-0.2l0.3,0l1,0.4l0.9,1l0.3,0.7l0.1,0.4l0.2,0.4
				l0.4,0.2l1.4,0.5l1.2,0.4l0.2,0l1.7-0.9l-2.2-2.5l-0.4-0.2l-0.2,0.1l-0.6,0.3l-0.3,0l-0.8-0.5l-0.2-0.3l-0.1-1l1.1-0.6l0.5-0.1
				l0.4,0l0.2,0l0.3,0.4l0.2,0.8l1.3,1.9l0.3,0.2l0.3,0.1l0.7,0.2l1.3-0.5l0.1-0.3l-0.3-0.3l-1.1-0.2L229,921l-0.2-0.2l-0.3-0.6
				l-0.2-0.7l0.3-0.4l0.2,0l2.6,1.2l1.3-0.6l-0.9-0.5l0.4-0.5l0.7-0.5l0.3,0l3.1,1.9l4.1,1.2l0.6-1.7l0-0.4l0-0.4l-0.1-0.4l-0.2-0.8
				l0.2-0.4l0.8-0.5l0.7-0.2l0.8,0l0.6,0l2,0.2l0.2,0l0.7,0.3l0.1,0.3l-1.1,1.7l-0.7,1.8l-0.4,1.9l-0.4,2.6l0.6-0.8l1.4,1.2
				l-0.9-1.6l-0.1-0.3l-0.2-0.7l0.1-0.5l0.6-1.9l0.1-0.3l0.4-0.6l0.2-0.3l0.7-0.7l0.3,0l0.2,0.6l0.3,0.4l2,1.7l0.6,0.3l0.2,0.2
				l0.2,0.2l1,0.8l0.2,0.2l0.2,0.3l0.2,0.4l0.2,0.4l0.4,0.2l0.4,0l2.1-0.9l-1.7-1.3l-0.4-0.3l-0.8-0.4l-0.5-0.2l-0.9-0.5l-0.3-0.2
				l-0.4-0.3l-0.7-0.5l-0.2-0.3l-0.9-1.6l0.2-0.6l-0.1-0.5l-0.3-0.5l-0.2-0.3l-0.3-0.4l-0.5-0.3l-1.1-0.4l-0.4-0.1l-0.8-0.1
				l-1.6,0.1l-0.7,0l-0.3-0.1l-0.3-0.2l-0.4-0.4l-0.3-0.4l-0.7-3l0.7-0.2l0.5,0.4l1.4,1l2.5,1.3l5.6,3.2l3.5,3.3l0.3,0.2l1.3-1.5
				l0.1-0.3l-0.2-0.2l-1.3-0.3l-0.3-0.1l-0.4-0.4l-0.2-0.4l0-0.4l1.2-1.2l0.7-0.6l0.3-0.2l0.3-0.1l0.2,0l0.9,0.6l0.6,0.9l1.9,4.2
				l1.4,3.5l0.5,0.6l0.3-0.2l0.3-2.3l-1.2-3l-0.7-1.6l-0.3-0.2l-0.4-0.4l0.3-0.8l0.2-0.2l0.4,0l0.7,0.2l2.1,1.1l0.4,0.4l0.5,0.7
				l4.6,1.1l2.5,1.5l0.3,0.2l0.2,0.3l0.1,0.5l-0.1,0.4l-1.4,1.7l-0.2,0.1l-0.7,0.4l-0.3,0.3l-0.7,1.6l-0.2,0.5l0.6,1.7l0.2,0.2
				l0.2-1.1l0.7-1.7l0.5-1.1l0.2-0.5l0.2-0.3l0.6-0.4l0.4-0.1l0.2,0.1l0.2,0.3l0.2,0.6l0.3,0.8l0.1-0.1l0.4-0.8l-0.3-1.1l-0.2-0.5
				l0-0.7l0.1-0.5l0.3-0.5l0.2-0.1l0.8,0l0.2,0l0.5,0.2l0.7,0.6l0.2,0l0.2-0.3l0-1.2l-0.3-0.3l-0.3-0.2l-1.2-0.8l-3.5-2l-2.6-1.2
				l-0.5-0.2l-1.5-0.7l-0.3-0.2l-0.2-0.3l-0.4-0.6l-2-0.8l-0.5-0.1l-0.4-0.1l-0.4,0l-0.4-0.1l-0.5-0.2l-1.6-0.7l-3.1-2.1l-0.3-0.4
				l-0.2-0.4l-1.5-4.9l-0.5-2.7l-0.1-0.7l-0.1-0.6l0.1-0.6l0.4-0.7l0.3-0.3l4.2-2.7l0.2-0.1l0.6,0.1l0.4,0l0.2,0l0.4,0l1-0.3
				l7.5-4.2l0.2-0.2l0.2-0.5l0.1-0.6v-0.3l-0.3-3.2l-0.2-0.4l-0.4-0.3l-3.6-0.3l-0.6,0l-5.4,0.8l-0.2,0.1l-0.8,0.3l-0.7,0.4
				l-0.8,0.6l-0.2,0.3l-0.4,0.7l-0.4,0.2l-2.4,1.1l-0.3,0.1l-0.2,0l-0.3-0.1l-0.4-0.3l-3.4-2.9l-0.1-0.3l-0.5-2.4l-0.1-1.5l0-0.4
				l0.5-5.6l0.1-0.4l0.1-0.3l0.3-0.4l1.4-1.7l0.2,0.2l-0.3,0.7l0,0.5l0.4,1.5l0.3,0.1l2.1-0.7l0.3-0.1l0.4-0.2l0.2-0.2l0.2-0.2
				l0.2-0.2l0.1-0.3l0.5-1.8l0.1-0.4l0-0.5l-0.2-0.3l-1.9-0.3l-0.9-1.4l0-0.4l-0.2-0.4l-0.3-0.4l-0.4-0.2l-0.6-0.1h-0.2l-0.4,0.1
				l-0.5,0.1l-0.3-0.1l-0.1-0.3l0.4-0.6l0.5-0.3l3.4-0.6l0.4-0.1l0.5,0.1l0.5,0.3l0.2,0.2l0.2,0.4l0.3,0.7l0.6,0.9l0.3,0.4l0.5,0.4
				l0.5,0.2l0.4,0.1l0.4,0l0.4-0.2l3.2-1.9l0.4-0.4l0.3-0.5l1.7-2.9l0.2-0.6l0-0.4l-0.1-2.5l0.4-0.5l0.4-0.3l2.1-1.1l0.7-0.2l1,1.4
				l0.2,0.2l0.1,0.3l0.1,0.3l0,0.4l0.2,0.4l2.1,2.8l0.2,0.2l0.6,0.5l0.5,0.3l0.5,0.1l0.3,0l0.5-0.2l2.1-1l2.4-1.6l0.2-0.2l0.3-0.4
				l2.2,0.9l1.4,1.1l0,0.3l0,4.4l-0.1,14.9l0,1.9l0,5.4l-0.1,10.4l0,5l-0.1,10.7l0,0.7l0,6.1L283.8,931.4L283.8,931.4z M169.8,787
				l-0.2-0.1l-1.4-0.8l-0.4-0.5l0.5-1l0.6-0.5l1.2-0.8l0.5-0.2l0.4,0.3l0.6,0.4l-0.9-1.2l-0.5-0.1l-0.5,0.2l-1.5,1.3l-0.6,0.1
				l-0.5-0.8l0.1-1.4l0.4-2.7l-0.7-2.9l0.7-4.3l0.8-0.8l1.1-0.9l2.4-3.3l-0.7,0.3l-1.1,1.5l-2.1,2.4l-1.5,1l-0.3-0.6l-0.1-1.2
				l-0.7,0.8l-0.1,0.8l0,1.5l0,1.1l0.3,0.7l0.5,0.7l-0.4,3.8l-0.6,2.6l-0.6-0.1l-1.7-1.3l-1.3-2.7l-1.5-3.5l0.4-1.7l-0.4-2l-0.6-1.2
				l-0.8-0.8l-0.6,0.3l-0.6,0.3l-0.5-1.5l-0.1-0.9l0-1.6l0.7-0.9l0.4-0.2l0.4,0.1l1,1.8l0.2,0.8l0.7,1.4l1.5,1.9l0.5,0.4l0.2,0.1
				l0-0.2l-0.7-1.2l-0.7-0.9l-0.3-0.4l-0.4-0.6l-0.8-1.9l0.1-1.4l0.9-0.2l0.4,0.5l1,1.7l0.6,0.2l1.6-2.2l0.2-0.5l-0.4-1.2l0.6,0.5
				l1.5,1.8l1.1,1.4l0.5-1.3l1.2-5.5l-1.2-1.4l-0.7-0.7l-0.4-0.3l-0.4-0.6l-1-2.3l-0.7-1.9l0.2-1.2l1.3-1l2.6-1.8l1.8-0.5l3.7,0.9
				l0.3,1.2l0.5,4.2l0.4,1.2l0.1,0.6l-0.1,3.5l0.6,3.1l0.1,0.6l0,2.4l-0.5,3.5l-0.4,1.3l-0.4,0.8l-0.2,1.1l0.4,1.3l-0.9,1l-0.9,2
				l0.1,0.8l1.2-1.3l-0.1-0.6l0.1-0.6l1.2-0.2l0.5,0.5l0.4,0.9l0.1,1.8l-1,5.6l-0.2,0.5l-1.2,1.4l-1.6,1.4l-0.6,0.2L169.8,787
				L169.8,787z M285.1,948.4l-0.4-0.1l-0.4-0.1l-0.4-0.5l-0.4-0.9l-0.5-0.4l-0.5,0l-0.7,0.5l2.6,2.8l1-0.3l0.5-0.4l0.5-0.2l0.6-0.1
				l0.9,0.2l1.3,0.5l3.4,1.6l0.3,0.7l-0.1,0.9l-0.3,0.7l0.8,0.2l1.1-0.1l-0.8,1.7l1.2,1.9l0.6,0.2l0.9,0.1l-0.2,2.6l-1.4,1.3
				l-0.2,0.2l-0.1,0l-0.5-0.1l-0.2-0.5l-0.6-1l-1.5-1.7l-0.7-1.6l0.2-1.2l-2-1.7l-0.4-0.1l-0.6,0.8l-1.1,0.1l-1.3-1.1l-1.3-0.1
				l-2.3,0l-0.7,0.9l-1,0.4l-0.5,0l-0.8-0.6l-0.8-1l-0.5-1.1l0.6-0.9l1.2-0.4l0.5-0.1l0.5,0.2l0.6-0.1l0.3-1.6L279,950l-0.3-0.6
				l0.4-1.9l0.6-1.6l0.8-0.8l0.2-0.6l-2.9,2.3l-1.2,0.3l-2.1-0.7l-0.5-0.3l-0.5-0.5l-0.4-0.7l-0.5-2.1l-2.4,0.4l-0.5,0.2l-0.4,0.3
				l1.2-0.1l1.3,0.1l0.5,2l-2,0.7l-0.3,1.3l1.6,2.5l0.1,2l1.6,0.4l1.3,0.1l-0.2,1.9l-0.3,0.3l-2.9-0.7l-1.9,0.4l-1.2-2.9l0.5-1.1
				l1-0.2l0.3-0.3l-1.3-0.7l-0.5,0l-1.5,1.3l-0.7-1.4l-1.7-0.8l0.1-1l0.6-1.1l1.4-1.1l0.5-0.2l0.6-0.3l0.4-0.6h-0.8l-0.8,0.5
				l-1.7,1.3l-2.8,0.8l-0.5,0l-1.2-1.1l1-0.2l0.4-0.3l-1.1-1.2l-2.1-0.1l-0.3-0.3l0.4-0.9l1.5-1.7l0.7-0.3l1.9-0.4l2.8-0.3l5.2-1
				l3.2-0.8l3.8-0.3l3,0.1l0.4-0.1l1.3-1l1.5-0.3l2.7-0.3l2,0.8l1.2,1.6l0.3,1.3l-0.2,0.9l-4.3,2l-0.3,0.5l-1.1,0.3l-2.3-0.6l-1-0.6
				l-0.7-0.7l-0.6-0.5l-0.4-0.3l-2.1-1.5h-0.4l-0.4,0.8l1.8,2l1.3,0.8l2.2,1.3l3.3,0.1l2.8,0.1l1.2,0.1l1.9,1.3l1.3,1.4l-0.1,0.6
				l-5.5,0.8L285.1,948.4L285.1,948.4z M196.8,900.8l0.9-0.6l0.2-3l-2.5,0.1l-0.8,0.6l-0.7,0.3l-0.5,0.2l-1.6,0l0.9-0.7l0.5-0.3
				l0.4-0.4l-0.2-1.3l-0.5,0l-0.7,0.1l-0.6-0.1l-0.4-0.4l0-1.3l0.2-0.6l0.3-0.3l0.8-0.1l0.5,0.4l0.4,0l0.4-0.3l0.6-0.6l0.4,0
				l1.4,0.8l0.4,0.5l0.2,0.6l0.5,0.8l0.5,0.3l1.6,0.5l0.5,0l1.7-0.1l1.7-0.3l0-0.8l-0.6,0l-0.4,0.4l-1.3,0.1l-1.2-0.1l-0.6-0.1
				l-1.3-0.4l-0.6-0.4l-2.3-3.7l-0.4-1.2l0.8-0.1l0.7,0.2l1,0.5l3.4,0.7l-0.5-1.6l-0.8-1.2l1.8-0.6l1.4,0.2l1.6,0.7l0.7,3.4
				l-0.3,1.4l-0.3,1.2l0.6,1.8l1.1-3.3l0.2-1l-0.5-1.2l-0.4-1.2l1.4,0.5l1,1.2l1.1,2.6l1.6-1.3l1.9,0.3l0.9,0.5l0.7,1.2l-0.1,0.9
				l-0.6-0.1l-0.5,0.2l-0.3,0.6l0.8,2.1l0.6-0.9l0.7-0.8l2.1,0.8l0.4,0.3l1.8,2.3l-0.7,0.5l-0.3,0.1l-0.4,1.3l-0.6,0.4l-0.5-0.1
				l-1.5-0.3l-1.2,1l0,2.3l0.4,0.3l0.8,0.4l0.6,0.2l-0.1,1.5l-1.9,0.2l-2,1.7h-0.5l-0.4-0.2l-0.8-1l-1.6,0.8l-2.1,1.4l-1,0l-2.2-1.1
				l-0.6-0.6l0.4-0.5l2.1,0l2.1-1.4l0.9-5.4l-1.4-0.7l-0.5,0.3l-1.2,1.1l-0.6,0.3l-1.6-0.1l-0.1-0.7l-0.1-0.8l-0.7-0.3l-0.8,3.3
				l0,0.8l-0.6,2.2l-1.7-0.8l-0.7-1.6l-0.6-1.8l-0.4-1.2L196.8,900.8L196.8,900.8z M294.4,935.2l1.8,0l1.9,0.2l1.6,0.2l2.6,0.1
				l1.2-0.1l0.4,0l2.4,0l0.8,0.1l1.3,0.3l0.7,0.2l0.6,0.3l0.4,0.2l0.7,0.4l0.3,0.3l2.1,3.2l0,2.1l-0.5,1.4l-0.2,0.5l-0.2,0.3
				l-2.4,3.3l-0.2,0.1l-0.8,0.1h-0.2l-1.9-0.6l-0.3-0.1l-0.4-0.3l-0.2-0.3l-0.1-0.3l0.1-0.5l0.4-0.5l0.2-0.3l0.1-0.4l-0.1-0.3
				l-0.4-0.4l-0.4-0.3l-0.5-0.2l-0.5-0.1l-0.4,0l-0.4,0.1l-0.6,0.3l-0.2,0.2l-0.2,0.3l-0.2,0.5l-0.2,0.8l0.1,0.8l-0.2,0.2L302,947
				l-2.7-0.2l-0.3-0.1l-1-0.6l0.3-0.4h0.2l0-0.6l-0.6-1l-0.4,0.1l-2.4,1.3l-0.6,0.4l-0.1,0l-0.4-0.1l-0.3-0.1l-0.3-0.2l-0.3-0.3
				l-0.1-0.3l-0.7-3.5l0.1-0.5l-0.4-3.1l-0.4,0.1l-1.7,0.1l-0.6-0.7l-0.2-1.1l0.3-0.4l0.2-0.1l2.5-0.4L294.4,935.2L294.4,935.2z
				 M195.7,883.3l1.2-0.2l0.2,0.1l1.4,0.9l2.1,1.5l0.2,0.4l-0.2,0.4l-0.3,0.2l-0.2,0l-2.1-0.1l-4.6-1.2l-0.2-0.9l-0.1-0.4l-1.3-0.6
				l-0.5-1.1l-2.1-2.1l-0.3,0.1l-1.8-1.8l-1.2-1.5l-1.6,0.4l-0.8,0.4l-0.9,0.6l-4.4-0.2l-0.4-0.3l-0.5-1.8l-1.4-1.7l-0.4,0l-1.2-0.3
				l-1.5-1.2l-0.2-0.4l0.2-0.5l0.4-1.5l-0.5-0.8l-0.2-0.1l-0.5-0.1l-0.9-0.4l-0.3-0.2l-1-1.3l0.8-1.2l0.2,0l0.9,0.6l2.7,2.6l1,1.2
				l0.7,1.7l0.8,0.9l2.1,0.5l0.2-0.4l0.8-0.2l1.3-0.2l2,0.8l2.4,1.4l1.2,1l0.8,0.5l1.4,0.7l1.2,0l0-0.6l0.9,0.2l0.8,1l0.1,0.2
				l0.3,1.3l-0.2,0.4l-0.3,0.4l-0.2,0.4l0.7,1.9l0.2,0.3l0.3,0.2l0.7-1.3l-0.2-0.6l-0.2-0.7l-0.2-1.1l0.2-0.3l0.3,0l0.3,0.1l0.5,0.2
				l2,2.6l0.1,0.4L195.7,883.3L195.7,883.3z M234.6,906.6l0.4,2l1.5,0.3l1.7-0.7l1.3,0.9l0.2,0.4l0.3,2.4l0.1,2.9l-2.3,3.5l-0.2,0.2
				l-0.3,0l-0.3-0.3l-0.7-0.9l-1.1-0.2l-1.8-0.8l-1.8-3.3l-0.1-0.5l0.1-0.5l0.2-0.2l0.6-0.1l0.3-0.2l0.1-0.2l-0.7-1.2l-1.5,1.3
				l-0.7,2.1l-0.1,0.3l-0.1,0.7l-1.9-0.4l-0.3-0.2l-0.4-1L227,912l-0.1-0.6l0.1-0.4l1.1-1.3l-0.5-3.7l0.2-0.7l0.4-0.5l0.3-0.2
				l0.8-0.2l1.9,0l1.7,0.8l1.4,0.8l0.2,0.2L234.6,906.6L234.6,906.6z M248.7,913.5l-0.2-0.1l-1.6-0.6l-0.8-0.4l-0.7-0.4l-0.2-0.2
				l-1.7-1.6l-0.4-0.4l-1.1-2l-0.4-3.2l0-0.4l0-1.8l0.1-0.3l1-0.7l0.9-0.4l0.3,0.1l1.6,0.5l0.4,0.4l0.2,0.1l0.2,0l0.3-0.2l0.2-0.4
				l0-0.4l-0.2-0.5l-0.3-0.4l-0.2-0.2l-0.8-0.4l-0.2-0.3l-0.1-0.4l-0.1-2.1l0.1-0.4l0.6-0.2l0.3-0.2l0.2-0.2l0.3-0.3l0.4-0.5
				l0.3-0.4l0.1-0.3l0.2-0.5l0.1-0.6l0.1-0.4l0.2-0.3l0.3-0.2l0.9-0.1l0.3,0.3l-0.1,2.3l-0.1,0.4l-0.1,0.4l-0.1,0.4l0,0.6l0,0.4
				l0.1,0.4l0.9,4.4l1.1,2.7l0.7,1.9l-0.1,0.5l-0.4,0.4l-0.4,0.1l-0.7,0l-0.2,0l-0.4-0.1l-0.3-0.1l-0.5-0.4l-0.6-0.5l-0.5-0.8
				l-0.2-0.3l-1.8-1.7l-0.1,0.3v0.4l0.2,1l0.1,0.3l0.1,0.3l0.4,0.5l0.3,0.3l0.2,0.2l0.4,0.6l0.8,2.6l0.1,0.5l0.3,2.4L248.7,913.5
				L248.7,913.5z M227.3,904.4l-0.9,1l0.2,0.4l0.4,0.4l0.7,2.6l-0.1,0.5l-1.1,1.6l-0.3,0.4l-0.3,0.1l-0.2,0l-0.7-0.2l-0.3-0.2
				l-0.2-0.2l-0.3-0.4l-1.6-2.5l0-0.5l0.1-0.7l-0.2-0.3l-0.3,0l-0.2,0.5l0,0.4l0.1,0.4l0.6,2.2l0.7,0.9l0.3,0.2l0.4,0.2l1.8,2.3
				l0,0.5l-0.2,0.4l-1.5,2.4l-0.2,0.1l-0.3,0l-1.6-0.4l-0.3-0.7l0.2-1.7l-2.9-3l-1.7-1.8l-0.2-0.3l-0.2-0.4l-0.1-0.3l-0.5-3.4
				l-0.1-0.7l0.1-0.5l0.8-0.2l0.2,0l0.2,0l1.1,0.5l0.3,0.3l0.2,0.6l0.8,0l1-2.3l0.3-0.9l0.5-0.3l0.4-0.2l4.1,1.5l1.3,0.7l-0.1,0.5
				L227.3,904.4L227.3,904.4z M164.3,794.1l-0.4,0.6l-2.3,3.1l-0.2,0.3l-0.4,0.2l-1.4-0.1l-0.2-0.1l-0.1-0.3v-0.4l0.2-0.5l0.7-0.4
				l0.5-0.7l0.8-1.2l-0.3-0.2l-1.3,0.4l-0.9,0.6l-1.9,0.8H157l-0.2-0.2l0-0.5l0.2-2l0.5-1.6l0.5-1.4l0.1-0.4l0.2-0.3l0.2-0.1l0.3,0
				l0.3,0.1l1.2,0.5l0.1,0.3l-0.2,0.3l-0.2,0.1l-0.5,0.1h-0.7l-0.1,0.2l0.3,0.5l0.3,0.2l0.8,0.4l1.5,0.4l1-0.2l-0.1-1.4l-0.2-0.9
				l-1.3-0.4l-1.4-0.9l-1.5-1.3l-0.3-1l1.5-1.2l0.3,0l2.9,0.7l0.2,0.2l2.4,3l-0.9,0.9l-0.3,0.3l-0.1,0.3l0.8,0l3.1-0.7l0.3-0.7
				l-0.2-0.3l0.8-0.4l0.3,0.3l0.2,0.6l-0.1,1l-0.3,0.9l-3.6,2.1l-0.3,0.1L164.3,794.1L164.3,794.1z M170.5,817.9l-3.1-1.5l-1.4-2.5
				l-0.1-0.3v-0.5l0.1-0.5l0.5-1.3l0.2-0.2l1.1,0.1l2.2,0.6l1,0.4l1.4-0.8l0.1-2.3l-0.1-0.6l-0.2-0.4l-0.5-0.5l-0.2-0.1l-0.3-0.2
				l-0.1-0.3l0.1-0.3l0.4-0.2l0.7,0.2l1.3,0.6l1.2,0.8l1.5,1.5l0.2,0.4l0.1,0.5l0.5,4.8l-0.4,1.7l-0.2,0.2l-0.2-0.1l-0.1-0.6
				l-0.3-1.1l-0.5-0.8l-0.3-0.1l-0.2,0.1l-2.1,1.3l-0.4,1.2l-0.1,0.2l-1.5,0.5L170.5,817.9L170.5,817.9z M251.9,934.9l0.5,0.1
				l0.2,0.2l-2.4,1.1l-0.8,0.1l-0.4,0.3l-0.1,0.5l0.1,0.5l-0.2,0.3l-2.1,0.3l-0.6-0.1l-0.5-0.2l-0.4-0.3l-0.2,0.1l-0.2,0.5l1.5,0.6
				l3,0.4l2.4-0.4l0.3,0l1,0l0.2,0.1l0.1,0.6l0.3,2l-0.5,0.5l-0.5,0.1l-0.2-0.1l-0.2-0.2l-0.2-0.5l-0.5-0.5l-0.4-0.1l-0.2-0.1
				l-0.6,0.5l-0.1,0.7l0.2,0.3l0.5,0.3l0.4,0.1l0.2,0.1l0.1,0.3l-0.2,0.5l-2.7,1.3l-0.3,0l-0.2-0.3l-0.1-0.4l-0.1-0.6v-0.8l0.3-0.7
				l-1.1-1.3l-1.7,1.5l-0.4-0.1l-4-1.5l-1.3-1.1l-0.1-2.5l0.2-0.3l0.3-0.2l2.1-0.4l1.5,0.4l0.8,0.2l0.9,0.4l2.3,0.1l0.3-0.2l-1-0.4
				l0.1-0.3l1.9-1.1l0.2-0.1l1.1-0.1L251.9,934.9L251.9,934.9z M180.1,810.3l-0.5-1.4l-0.2-0.3l-0.4-0.3l-0.8,0.4l-0.1,0.3l-1.6-0.6
				l-1.8-1.5l-0.2-0.2l-0.9-2l-0.1-0.4l-0.1-0.6l0.1-0.3l1.4-1.4l1.3-1.3l-1.4-0.6l-0.2,0l-0.7,0.2h-0.3l-2-1l1.1-1l0.2-0.2l0.6-0.4
				l0.3-0.1l0.2,0l3.1,2.1l1.7,3.8l0.7,1.6l1,2.7l0.1,0.6l0,0.7l-0.2,1l-0.2,0.1L180.1,810.3L180.1,810.3z M260.2,939.6l0.1-0.9
				l0-0.4l-0.3-0.7l-0.5-0.2l-0.1-0.5l0.4-2l0.2-0.1l1.1-0.4l0.2,0l2.1-0.4l1,0l5.3,1.1l0.5,0.1l3.1,1l0.7,0.7l-0.3,0.2l-0.6,0.1
				l-3.5,0.9l-1.8,0.5l-2.7,0.5l-2.1,0.4L260.2,939.6L260.2,939.6z M185.5,866.6l-0.2,0l-0.3-0.2l-2.4-2.8l-0.2-0.4l0-0.3l0.4-1.1
				l0.2-0.2l1.1-1.3l3-2.8l1.2-0.8l0.3,0l0.3,0.1l0.2,0.2l0.2,0.3l0.8,1.7l-1.1,3.8l-1,2.3l-0.1,0.3l-0.3,0.4l-0.3,0.2l-0.3-0.1
				l-0.2,0l-0.6,0.4L185.5,866.6L185.5,866.6z M165.5,828.8l-0.2,0l-0.4-0.3l0.1-0.8l1.3-1l1-0.4l0.4-0.2l1.4-1.5l0.2-0.4l-0.2-0.1
				l-2,1.1l-0.4,0.3l-0.4-0.1l-0.2-0.3l-0.1-0.4l0.1-0.4l0.2-0.3l3-3.2l1.5-0.4l1.9-0.1l0.8,1l0.1,0.3l0.5,1.3l-0.1,2.5l-0.2,0.4
				l-0.8,0.9l-0.2,0.1h-0.4l-0.2-0.2l-0.7-2.2l-0.8,0.4l-0.4,0.9l-0.8,1.7l-0.3,0.1l-0.8,0.2l-0.7,0.1l-1,0.1l-0.3,0.2L165.5,828.8
				L165.5,828.8z M159.2,808.5l-1.8-0.5l-0.4-0.2l-0.2-0.2l-1.1-3l0.2-0.4l0.9-0.9l0.6-0.4l0.3,0l0.3,0.1l0.5,0.3l0.1-0.8l-0.6-1.4
				l-0.5-0.5l-0.6-0.5l0-0.4l0.9-0.8l0.4-0.1l3.8,0.8l1.6,0.1l0.2,0.2l-0.1,0.4l-1.9,2.5l-0.3,0.1l-0.2,0l-0.3-0.1l-0.3-0.1
				l-0.3-0.3l-0.1,0.8l0.1,1.9l0.1,2.2l-0.3,0.9l-0.3,0.2l-0.3,0.1L159.2,808.5L159.2,808.5z M162,782.7l-0.3-0.5l-1.1-1.3l-0.4-0.2
				l0.2,0.9l0.1,0.5l0,0.3l-0.2,0.1l-0.4-0.2l-0.6-0.6l-0.4-0.4l-0.5-1l0-0.4l0.1-0.4l-1.1-0.8l-2.1,2l-0.4-0.1l-0.5-1.2l-0.1-0.3
				l-0.2-3.5l0.8-1l3.3-0.3l0.2,0.1l0.2,0.2l0.3,0.3l0.7,1l2.1,4.2l0.1,0.3l0.4,2.1L162,782.7L162,782.7z M165.9,848l-0.3-0.6
				l-1.4-3.8l1.6-4.4l0.3-0.4l0.6,0.6l0.1,0.3l-0.2,0.4l0,0.3l0.5,0.1l0.6-0.1l0.4-0.1l0.4-0.5l-0.6-3.6l-0.5-1.5l-0.5-0.2l-0.3-0.2
				l0-0.3l0.2-0.3l0.4-0.3l0.3-0.1l0.4-0.1l1.2,0.4l0.3,0.4l0.1,0.3l0.3,2.7l0.1,1l-0.3,1.3l-0.9,3.7l-1,3.1l-0.9,1.6l-0.3,0.4
				l-0.2,0.2L165.9,848L165.9,848z M160.5,759.2l-1-3.2l-0.2-0.4l-1.9,0.9l-0.6,1.2l-0.2,0.2l-0.3,0.2l-0.4,0.1l-2.6-2l-0.1-0.2
				l-0.1-0.3l-0.1-0.5v-0.3l0-0.4l0.1-0.3l0.3-0.9l0.2-0.3l1.4-0.5l3.3,0.2l0.3,0.1l0.7,0.3l0.2,0.2l0.4,0.6l1.5,4.1v0.4l-0.7,0.8
				l-0.2,0.2L160.5,759.2L160.5,759.2z M166.2,764.7l-1.7-2.1l-2.7-0.9l-0.8-0.6l0-0.5l0.2-0.4l0.5-0.9l0.2-0.4l1.2-1.5l2.7,0.2
				l0.5,0.4l1,1.2l0.1,1l0,0.4l-0.7,4.7l-0.3-0.2L166.2,764.7L166.2,764.7z M159.6,833.5l-0.1-0.4l0.1-2.3l0.8-0.8l0.8-1.3l0.2-1.5
				l0.1-2.1l0-0.5l0-0.4l0.1-0.3l0.1-0.3l0.9-0.8l0.3-0.2l0.2,0l2.3,2.1l0.2,0.9l-0.1,0.9l-0.1,0.3l-0.3,0.2h-0.2l-0.3-0.2l-0.3-0.1
				l-0.2,0.1l-1.2,2.6l0.1,0.5l0,0.5l0,0.5l-0.1,0.4l-0.2,0.5l-2.5,1.6l-0.2,0.1L159.6,833.5L159.6,833.5z M181.3,856.4l-0.8-0.7
				l-0.7-1.3l-0.1-2.4l0.1-0.3l0.3-0.2l0.2-0.1l0.4,0.1l0.4,0.2l0.2,0.2l0.5,0.3l0.2-0.1l-0.7-1.6l-0.2-0.2l-0.5-0.4l-1.6-0.5
				l-1.1,0.2l-0.3,0.1l-0.4,0l-0.4-0.2l-0.5-0.4l0-0.4l1.3-1.2l0.3-0.2l0.4-0.1l0.2,0l0.3,0.2l0.2,0.2l1.5,1.3l1.2,1.3l0.8,0.9
				l2.8,3.5l0,0.4l-0.8,0.6l-2.4,1.2l-0.6,0L181.3,856.4L181.3,856.4z M155.8,764.6l-0.2,0l-2.1-1.1l-0.3-0.2l-0.1-0.3l1-2l1-0.7
				l0.3-0.1l0.4,0.2l0.9-0.9l0.5-1.4l0.9-1.1l0.3-0.3l0.3-0.1l0.2,0.1l0.3,0.7l0.7,2l0.1,0.4l-0.4,0.8l-0.3,0.5l-0.2,0.2l-2.7,2.9
				L155.8,764.6L155.8,764.6z M170.9,811.4l-1.5-0.1l-0.7-0.2l-2-0.7l-0.2-0.4l-0.5-2l0.1-1l0.1-0.3l1.1-1.5l1.3-0.5l0.3,0.1
				l1.2,1.1l1.5,3.4l0,0.3l-0.2,1.1l-0.3,0.6L170.9,811.4L170.9,811.4z M180.9,843l-1.3-0.2l-2.7-1.6l-1-1.3l-1.4-4.1l2.4,0.8
				l3.8,3.1l1.5,1l0,0.3l-0.8,1.7l-0.2,0.2L180.9,843z M238.7,936.8l-0.3,0l-1.4-0.7l-1-0.9l-2.2,1.4l-0.3,0.1l-1.2-0.4l-0.9-2
				l1-1.8l0.9,0.1l2.9,0.6l1.2,0.4l0.5,0.4l0.6,0.3l0.5-0.1l0.4-0.2l0.3-0.4l0.2-0.1l1,0.7l0.6,1.5L241,936l-0.6,0L238.7,936.8
				L238.7,936.8z M189.1,851.3L189,851l-0.5-0.9l-0.9-1.3l-1.3-1.4l-0.4-0.3l-1.1-0.8l-2.4-1.4l-0.3-0.2l-0.3-0.3l0-1.1l0.3-1.2
				l0.7-0.5l0.2,0.1l0.4,0.3l3.2,2.9l1,0.9l0.7,0.7l0.2,0.3l1,2.2l0.4,1.6l0,0.5l-0.1,0.5l-0.3,0L189.1,851.3L189.1,851.3z
				 M183.5,838.5l-0.4-0.1l-0.3-0.1l-2.6-1.9l-0.4-0.3l-0.3-0.4l0-0.5l0.1-0.3l0.9-0.2l0.8,0l1-1.7l-0.3-1.8l0.1-0.3l0.2-0.1
				l0.3,0.1l0.3,0.3l2.5,6.3l0,0.5l-0.3,0.3l-0.2,0.2l-0.5,0.2l-0.4,0.1l-0.2,0L183.5,838.5z M308,964.1l0-1l-0.2-0.2l-1-0.3
				l-1.1,0.3l-1.7-0.6l-0.1-0.8l0.2-1.6l2.1-2.3l1.1-0.6l0.3,0l1.6,4.8l0.3,1.3l-0.1,0.4l-0.4,0.4l-0.4,0.2L308,964.1L308,964.1z
				 M167.7,848.7l-0.1-0.1l-0.4-0.7l1.9-6.5l0.1-0.4l0.4-0.9l0.2-0.4l0.2-0.3l0.2,0l2.4,0.3l-0.1,0.5l-3.1,6.8l-0.2,0.2l-1.6,1.4
				L167.7,848.7L167.7,848.7z M215.7,908.7l1,1l0.6,1.2l-0.8,1.8l-0.9,1.7l-0.4,0.1l-2,0.1l-0.7-0.1l-0.4-0.3l-0.2-0.2l-0.2-1.3
				l2.3-3.5l0.4-0.4l0.6-0.3l0.5,0l0.2,0.1L215.7,908.7L215.7,908.7z M186.9,856.4l-0.8-1l-0.6-1.8l-1.6-1.4l-1.4-1.9l-0.1-0.3
				l-0.2-0.7l0.3-0.4l0.6-0.3l0.2,0l0.9,0.6l0.8,1.2l2.6,1.4l0.4,0.4l0.2,0.4l0.1,0.3l0.5,2.1l-0.1,0.5l-0.2,0.3l-0.8,0.4l-0.5,0
				L186.9,856.4L186.9,856.4z M194.6,887.3l0.4,0.2l0.2,0.4l-1.3,1.8l1.2,1.7l0.1,0.5l-1.8,1l-0.4-0.1l-2.5-1.5l-2.3-1.7L188,889
				l-0.3-0.6l0.1-0.3l0.3,0l0.7,0.7l0.6,0.5l0.4,0.3l0.3,0.1l0.2,0l0.8,0.1l1.6-0.6l0-0.3l-0.2-0.2l-0.6-0.3l0.3-1.2l2.1,0.1l0.2,0
				L194.6,887.3L194.6,887.3z M161.5,756.7l-0.4-0.8l-1.5-4.7l0.6,0l0.9,0.3l0.3,0.1l0.5,0.3l0.6,0.4l0.6,0.5l0.2,0.2l0.2,0.2
				l0.3,0.5l0.1,0.3l0.3,1.4l-0.1,0.3L164,756l-1.9,0.8l-0.3,0L161.5,756.7L161.5,756.7z M176,820.7l-2.5-1.2l-0.3-0.2l-0.5-1.6
				l0.1-0.8l2-1.5l0.3,0l0.2,0.1l0.2,0.4l1.2,2.4l0.1,0.3l0.1,0.3v0.8l-0.4,1l-0.2,0.1L176,820.7L176,820.7z M178.7,821.1l-0.8-3.9
				l-0.3-1.7l-0.2-2.8l0.1-0.3l0.5,0l0.4,0.8l1.1,3.6l0.7,2.7l0.1,1.1l-1.1,1.3L179,822l-0.3,0l-0.1-0.3l0-0.5L178.7,821.1
				L178.7,821.1z M253.2,915H253l-0.4-0.1l-2.5-1l-0.4-0.2l-0.7-1.1l-0.1-0.3l0-0.4l0.1-0.6l0.2-0.4l0.2-0.1l0.4,0.1l3.3,1.3
				l1.1,0.7l0.3,0.5l-0.1,0.5l-0.2,0.4l-0.5,0.5l-0.2,0.1L253.2,915L253.2,915z M197.5,910.5l-1.2-0.6l-2.3-1.1l-0.2-0.3l1.5-1.3
				l0.7,0l0.6,0l1.3,0.2l0.2,0.1l1,0.6l0.1,0.3l0.3,1.6l-0.3,0.3l-0.3,0.1L197.5,910.5L197.5,910.5z M316.7,945.8l0.4,0.4l0.4,1.6
				l-0.3,0.8l-0.6,0.5l-0.4,0.1l-2-0.1l-0.9-0.1l-0.2-0.2l-0.2-1.6l0.5-0.9l0.4-0.2l1.5-0.6l0.5-0.1l0.4,0.1l0.3,0.1L316.7,945.8
				L316.7,945.8z M200.5,846l-0.1-0.6l0.1-0.6l0.1-0.4l0.1-0.3l0.8-1.7l0.2-0.1l1.5-0.8l1.5-0.5l-0.1,1l-1.8,3.8l-0.5,0.2l-1,0.4
				l-0.4,0.1l-0.2-0.1L200.5,846L200.5,846z M182.5,825.8l-0.2-0.2l-0.2-0.3l-0.3-2l0-0.3l0.2-1.4l0.1-0.3l0.2-0.1l0.4,0l1.4,0.2
				l0.5,0.3l0.1,0.4l0.2,1.5l-0.1,0.7l-1.8,1.5L182.5,825.8L182.5,825.8z M162.9,752.2l-0.1-0.1l-2-1.3l-0.1-0.4l1.1-1.5l2-2.3
				l0.2-0.1l0.1,0.3l0.1,0.3l0.1,0.5l0,0.4l0,0.4l-0.5,2.1l-0.5,1.3l-0.2,0.3L162.9,752.2L162.9,752.2z M169.8,800l-0.4-0.1
				l-0.1-0.2l0.6-2.8l1-0.8l0.2-0.1l0.3,0l1.1,0.1l1.2,0.4l0.1,0.3l-0.3,0.5l-1.6,1.4l-1.5,1.3l-0.3,0.1L169.8,800L169.8,800z
				 M176,774.3l-0.2-1.1l-0.2-2.6l0.1-1.1l0.1-0.4l0.2-0.1l1.1,1l0.5,0.4l0.2,0.3l0.8,1.8l-0.1,0.3l-2.3,2L176,774.3L176,774.3z
				 M163.3,841.4l-0.2-0.2l-0.1-0.3l0.5-2.8l0.3-1.2l0.1-0.3l0.3-0.4l0.4-0.3l0.4-0.1l0.5,0.1l0.4,0.4l0.1,0.5l-0.2,1.1l-0.3,1.2
				l-0.3,0.9l-0.2,0.4l-0.2,0.2l-0.8,0.7l-0.4,0.2L163.3,841.4L163.3,841.4z M181.4,828l-1.1-0.6l-0.7-0.5l-0.2-0.3l-0.3-1.6
				l-0.1-0.9l0.1-0.5l1.4-0.5l0.2,0.2l1,2.7l0.1,0.3l0,1.6l-0.1,0.3l-0.2,0.1L181.4,828L181.4,828z M322.1,947.5l-0.9-0.2L321,947
				l-0.1-0.6l0-0.3l0.3-1.3l1.6-1.2l0.4,0l0.3,0l1.3,0.6l0.2,0.6l-1.7,2.2l-1.1,0.5H322.1L322.1,947.5z M249.8,933l0.5,0.1l0.4,0.2
				l0.4,0.6l-0.2,0.4l-0.2,0.1l-3.4,0.7h-1.4l-1-0.6l-0.3-0.5l0.3-0.3l0.6-0.4l2-0.6l1.4-0.2l0.8,0.3L249.8,933L249.8,933z
				 M164.1,808.7l-0.2-0.3l-0.1-0.3l-0.4-1.3l0-0.5l0.6-1.8l0.2-0.1l1.4,0.1l0.2,0.2l0.1,0.4l-0.1,3.9l-0.2,0.2l-0.6-0.1
				L164.1,808.7L164.1,808.7z M212.6,919.9l-0.2-0.1l-0.9-1.3l-0.3-1.3l2.1-1.2l0.4,0l2,0.8l0.1,0.3l-0.2,0.7l-1.3,0.6l-0.2,0
				L212.6,919.9L212.6,919.9z M170.5,846.4l0.2-0.7l0.1-0.3l0.2-0.3l2.9-2.9l0.7,0.4l0.4,0.5l0,0.9l-0.2,0.6l-1.1,0.7l-2.2,1.4
				l-0.8,0.4l-0.2-0.2L170.5,846.4L170.5,846.4z M251.8,911.2l-0.2,0l-1.6-1.2l-0.5-0.6l-0.2-0.4l-0.1-0.4l0.1-0.3l0.2-0.1l3.2-0.6
				l0.2,0.3l0.2,0.6l0.1,0.6l-0.4,1.2l-0.3,0.6l-0.2,0.2L251.8,911.2L251.8,911.2z M186.9,893.4l-0.2-0.1l-0.4-1.5l0.2-2.4l0.2-0.3
				l0.2,0l2.4,1.7l0.4,0.4l0,0.4l-0.2,0.3l-1.9,1.3l-0.3,0.1l-0.3,0.1L186.9,893.4L186.9,893.4z M194.9,873.6l-0.5,0.1l-0.2,0
				l-0.6-0.7l-0.1-0.3l0.2-0.4l0.3,0l0.2-0.1l-0.7-0.4l-0.7-0.3l-1.5-0.1l-0.3,0.1l-1.6,0.3l-0.4,0.2l-0.2-0.2l1-0.9l2.3-0.5
				l2.7,0.8l0.2,0.2l0.8,0.9l-0.2,1.4L194.9,873.6L194.9,873.6z M187.7,839h-0.2l-0.4-0.1l-0.3-0.2l-0.1-0.3l-1.6-3.3l0-0.6l0.1-0.3
				l0.4,0l1.2,0.7l1,1.3l0.5,1.3l0,0.4L187.7,839L187.7,839z M302.9,967.8l-0.6-1.6l-0.2-0.1l-1.1,0l-2.2,0.6l-0.2-0.1l-0.2-0.3
				l0-0.5l0.3-0.7l0.6-0.2l0.2,0l0.5,0.2l0.4,0.1l0.7,0.1l2,0.1l0.7-0.5l0.2-0.1l0.8,0.2l0.3,0.4l-0.5,1.5l-0.2,0.2l-0.9-0.3l-0.2,0
				L302.9,967.8L302.9,967.8z M314,938.1l0.9,0.2l2,0.8l0.2,0.3l0.7,2.5l-0.3,0.1l-0.4-0.2l-4.1-2.9l-0.2-0.4l0.1-0.3l0.2-0.2
				l0.4-0.1l0.4,0.1L314,938.1z M170,854.1l-1.1-1.2l-0.2-1.5l3.2-0.8l0.4,0.1l0.1,0.3l-1.3,2.5l-0.6,0.4l-0.4,0.1L170,854.1
				L170,854.1z M187.9,825.7l-1.3-0.3l-0.2-0.1l-0.5-0.5l-0.4-1.2l0.1-0.3l0.4-0.5l0.7-0.7l0.3-0.1l0.3,0.1l0.3,0.2l0.2,0.3l0.2,0.2
				l0.1,0.3l0.1,0.5l0,0.6l-0.3,1.1l-0.1,0.3L187.9,825.7L187.9,825.7z M165.2,749.6l-0.4,0l-0.2-0.2l0-0.4l0.7-1.6l0.3-0.4l1.6,0
				l0.9,0.1l0.5,0.3l-1.7,1.6l-0.3,0.3l-0.2,0.1l-0.6,0.2L165.2,749.6L165.2,749.6z M169.6,850.2l-0.3-0.1l-0.2-0.2l-0.1-0.3l0-0.6
				l0.2-0.7l3.3-1.9l0.2,0.6l-1.6,2.7l-1.2,0.5l-0.3,0.1L169.6,850.2L169.6,850.2z M300.7,958.6l-0.2-0.2l0.7-3.4l0.3-0.4l0.4-0.3
				l0.3,0l0.3,0.3l0.2,0.2l0.3,0.4l0.2,0.3l0.2,0.5l-0.1,1.1l-0.9,0.7l-0.4,0.3l-0.5,0.2L300.7,958.6L300.7,958.6z M255.4,938.5
				l-0.2,0l-0.3-0.2l-0.3-0.3v-0.3l0.2-0.3l0.2-0.2l2.7-1.5l0.3-0.1l0.3,0l0.2,0.2l0.2,0.3l0,0.5l-0.6,1l-1.8,0.7L255.4,938.5
				L255.4,938.5z M182.9,882.8l-0.1,0.4l-0.8,1.4l-0.5,0.3l-1.2,0.4l-0.3,0l-0.2-0.1l-0.3-0.4l-0.1-0.3l1-1l0.8-0.7l0.8-0.6h0.2
				l0.3,0.2l0.4,0.4L182.9,882.8z M309.7,967.5l-1.9-1l-1.2-1l0.1-0.5l0.2-0.1l0.3-0.1l1,0.1l1.4,0.4l0.6,0.9l0.1,1.2L309.7,967.5
				L309.7,967.5z M186.6,841.5l-1.5-0.3l-0.2-0.2l-0.2-1.4l0.6-1.1l0.2-0.2l0.2,0l0.2,0.2l0.2,0.2l0.4,0.5l0.8,1.3l-0.1,0.4
				l-0.4,0.4L186.6,841.5L186.6,841.5z"/>
			<path id="CL-TA" class="st2" d="M253.2,75.6l3-0.1l2.9-1.8l2.9-2.2h5.1l2.9,2.2l2.9-0.4l0.4-2.2l1.8-1.8h2.8l0,0l-0.2,0.5
				l1.2,2.2l2.2,1.5l0.8,0.7l1.5,1.8l0.3,0.3l0.6,0.3l0.5,0.1l0.6,0.3l1.1,1l0.9,1.3l-2,2.1l-0.4,0.5l-0.5,0.8l-1.6,1.9l-0.1,0.8
				l1.2,0.9l1.1,0.9l0.8,1.6l-1,2.7l-0.6,0l-0.7,0.1l-2.4,0.6l-0.1,0.5l0.3,0.4l0.9,2l0.3,2l-0.6,0.3l-0.4,0.4l0,1l0.2,0.5l0.3,0.4
				l0.6,0.7l0.5,0.4l0.6,0.3l0.5,0.2l0.5,0.2l0.4,0.2l1.1,0.7l0.5,0.5l-0.1,0.4l-0.7,0.4l-0.4,0.3l-0.7,0.9l0,2.7l0.1,0.4l0,0.1l0,0
				l-1.4-0.1l-3.4-0.4l-1.6,0.2l-0.4,0.1l-0.4,0.2l-0.2,0.5l0.3,0.4l0.5,0.3l1.5,0.6h0.5l0.5,0l1-0.2l0.5,0.1l0.2,0.5l-0.1,0.9
				l-0.2,0.5l-0.8,1.4l-0.3,0.5l-0.2,0.5l-0.1,0.6v0.6l-1.7,0.7l-2.3,0.2l-5,1.5l-6,1.4l-1.4,0.3l-1.3-0.5l-1.2-0.2l-2.1-0.2l-0.5,0
				l-2,0.1l-0.3,0.1l0,0l-0.6-1.2l-0.1-0.6l0.4-0.7l-1-3.9l-0.4-1l-0.4-0.9l0.3-1.1l0.3-0.6l-0.1-1l-0.3-0.5l-0.3-0.2l-0.7-0.6
				l0.8-8.1l0.5-1.8l0.1-0.5l-0.5-1.2l0.2-1.5l0.2-0.6l0.2-0.6l0-1.5l0-0.5l-0.3-1.3l-0.7-5.2l-0.6-3l-0.7-2.4l-0.8-1.5L253.2,75.6z
				"/>
			<path id="CL-AN" class="st2" d="M286.3,108.9l0.5,0.1l0.5-0.1l0.5,0l3.6,5.8l0.8,1.3l0.1,6.2l0.3,0.4l0.6,0.8l0.3,0.6l0.3,0.9
				l0.3,1.5l0.1,0.4l0,0.7l0,0.7l0,1l1.6,1.7l0.4,0.3l0.5,0.9l0.4,2.7v0.7l-0.2,0.5l0.8,2.5l0.8,2.6l-0.6,3.2l0.1,2.3l1.5,1l4,0.5
				l4.5-1l2.8-0.6l1.5,1.6l1.9,2.1l-0.9,2.4l-0.9,2.4l-0.8,2.4l-0.2,0.7l-3.4,12.7l-5.7,2.6l-4.8,2.2l-5.4,2.4l-1.2,0.5l-0.4,1
				l-0.8,1l-0.9-0.1l-0.5,0.3l-1.3,2.1l-0.8,1.3l-0.6,1.2l-0.5,1.1l-0.1,0.6l0.4,1.1l0.9,0.5l2.7,4.6l-1.2,0.6l-1.2,0.2l-0.2,0.2
				l-0.3,0.6l-0.4,1.5l0,0l-1,0l-0.8,0.2l-0.6,0.4l-0.8,0.6l-0.6,0.6l-0.4,0.3l-0.5,0.1l-0.9-0.1l-0.7-0.1l-0.6,0.1l-0.7,0.3
				l-0.5,0.3l-0.4,0.3l-0.9,0.7l-0.4,1l-0.2,1.4l-0.4,0.7l-0.4,0l0.2,3.6h-5.5l-0.7,2.2l-1.8,0.4l-1.8,2.2l-2.9-2.2l-1.5-2l-0.2,0
				l-1.3-0.1l-0.5-0.1l-0.7-0.1l-0.7,0.3l-0.4,0.2l-0.7,0.4l-0.4,0.4l-2.4,1.4l-1.3,0.1l-1.7,0.3l-0.8,0.2l-0.5,0.1l-0.5,0.2
				l-0.4,0.2l-0.3,0.2l-1,0.8l-0.9,1.2l0,0l0.5-0.9l0.1-0.4l-0.1-0.7l-0.4-1.1l-0.5-0.5l-0.4-0.4l-0.6-1.5l0.6-2.2l0.3-1l0.9-2
				l1.1-1.5l0.7-0.5l1.6-2.2l0.3-2.2l0-1.2l-0.4-1.1l-0.9-1.2l0.1-2.7l-0.6-1.2l-0.3-1.1l-0.7-2.6l0.3-3.2l0.4-3.3l0.2-1l-0.2-0.4
				l0.3-1.7l0.3-1l0.2-0.4l0.1-1.4l-0.1-1.2l-0.3-0.7l0-0.7l0.2-2.5l0.2-1.4l0.6-0.7l0.5-0.4l0.3-0.5l0.4-0.9l0.2-0.5l0.1-0.5l0-0.8
				l-0.2-0.6l-0.2-0.6l-0.2-0.3l-0.6-0.4l-0.5-0.3l-0.4,0.2l-0.5,1.1l-1.6-0.3l0.4-2.4l0.1-2.9l0.4-3.3l0.7-0.7l0.7-0.3l0.1,0.9
				l0.4,0.5l1.1-0.2l0.6-0.3l0.4-0.3l0.3-0.4l0.2-0.4l0.5-1.3l0.4-1.1l-0.1-0.6l-0.2-0.4l-0.2-0.9l0.5-2.9l0.5-3.9l0.3-2.8l0.4-3
				l0.3-1.3l0.4-1.5l0.7-5.1l-0.1-0.6l0-1.3l0.3-1.1l0.9-0.7l0.1-1l0.6-2.1l0,0l0.3-0.1l2-0.1l0.5,0l2.1,0.2l1.2,0.2l1.3,0.5
				l1.4-0.3l6-1.4l5-1.5l2.3-0.2l1.7-0.7v-0.6l0.1-0.6l0.2-0.5l0.3-0.5l0.8-1.4l0.2-0.5l0.1-0.9l-0.2-0.5l-0.5-0.1l-1,0.2l-0.5,0
				h-0.5l-1.5-0.6l-0.5-0.3l-0.3-0.4l0.2-0.5l0.4-0.2l0.4-0.1l1.6-0.2l3.4,0.4l1.4,0.1l0,0l0.1,0.2l0.4,0.4L286.3,108.9z"/>
			<path id="CL-AT" class="st2" d="M285,197.7l-0.4,1.6l-0.1,0.4l-0.1,0.6l0.1,0.5l0.8,2.4l1,2.1l0.1,0.5l0.7,3.3l1,5.2l-0.4,0.6
				l-1.1,1l-0.7,0.5l-0.5,0.4l-0.4,0.5l-0.2,1l-0.1,0.6l-0.1,1.1v0.4l0,1l0.1,0.4l0.2,0.4l0.5,0.8l2,2.3l2.6,4.1l0.1,0.4l-0.7,2.3
				l-0.6,0.4l-0.7,0.4l-0.4,0.2l-4.4,1.5l-0.9-0.6l-0.8-0.1l-0.8,0.1l-0.5,0.3l-0.7,1.2l-0.4,0.7l-0.2,0.6l0.2,0.8l-0.6,1.8l-2.6,5
				l-0.5,0.6l-0.7,2.1l-0.1,0.9l-0.7,2.7l-0.2,0.5l-0.2,0.5l-0.3,0.4l-0.5,0.1l-0.7,0.1l-0.7,0.4L271,254l-0.2,0.9l-0.2,0.5
				l-0.9,1.1l-2.5,2.8l-1.4,1.1l-0.9,0.7l-0.1,3l-0.1,0.7l-0.6,0.3l-0.8,1.7l0,1l0.1,0.5l0.2,0.5l0.1,0.7l-0.6,1.9l-0.6,2.8l0,1.1
				l-0.1,0.5l-0.2,0.4l-0.6,0.4l-1.2,0.1l-1.1,1.3l-1.3,1.9l-0.1,1.3l0.1,0.5l0.5,1l0.7,2.4l0.1,0.2l0,0l-2.2-0.2l-3.3-1.5l-1.5-0.7
				l-2.6-0.7l0.1-0.6l0-0.8l-0.3-0.9l-0.2-0.3l-2.4-2.9l-0.4-0.4l-0.5-0.5l-0.6-0.4l-0.5-0.3l-0.6-0.2l-1.4,1.1l-0.7,1.5l-1.5,3.6
				l-2.9,0.4l-1.5-2.2l-1.2-2.6l-0.3,0.2l-0.4,0.2l-2.3,0.5l-0.7,0.1l-0.7,0l0,0l0.3-1.6l-0.5-2.8l-0.1-1.7l0.2-0.5l0.6-0.7l1.7-1.6
				l1.5-1.8l0.2-1.1l0.1-1.3l0.5-0.9l0.5-0.8l1.2-2.6l0.1-2.4l0-1.7l0.3-4l0.7-2.5l0.4-1.2l0.7-1.3l0.7-1l0.8-0.4l1-0.7l0.4-2.9
				l-0.3-1.1l-0.5-2.1l-0.6-3.2l0.2-0.5l0.2-0.6l0.4-0.3l1.1-0.2l0.9-1.3l0.5-1l-0.3-1.3l-0.3-0.7l-0.1-0.5l2.3-5.6l0.2-0.7l0.2-2.6
				l0.8-2.8l-0.6-2.1v-0.7l0.2-1.6l0,0l0.9-1.2l1-0.8l0.3-0.2l0.4-0.2l0.5-0.2l0.5-0.1l0.8-0.2l1.7-0.3l1.3-0.1l2.4-1.4l0.4-0.4
				l0.7-0.4l0.4-0.2l0.7-0.3l0.7,0.1l0.5,0.1l1.3,0.1l0.2,0l1.5,2l2.9,2.2l1.8-2.2l1.8-0.4l0.7-2.2h5.5l-0.2-3.6l0.4,0l0.4-0.7
				l0.2-1.4l0.4-1l0.9-0.7l0.4-0.3l0.5-0.3l0.7-0.3l0.6-0.1l0.7,0.1l0.9,0.1l0.5-0.1l0.4-0.3l0.6-0.6l0.8-0.6l0.6-0.4l0.8-0.2l1,0
				l0,0l-0.1,0.1l-0.4,0.8L285,197.7z"/>
			<path id="CL-CO" class="st2" d="M230.6,277.7l0.7,0l0.7-0.1l2.3-0.5l0.4-0.2l0.3-0.2l1.2,2.6l1.5,2.2l2.9-0.4l1.5-3.6l0.7-1.5
				l1.4-1.1l0.6,0.2l0.5,0.3l0.6,0.4l0.5,0.5l0.4,0.4l2.4,2.9l0.2,0.3l0.3,0.9l0,0.8l-0.1,0.6l2.6,0.7l1.5,0.7l3.3,1.5l2.2,0.2l0,0
				l0,0.2l0.1,1l-0.1,0.6l-0.1,0.6l0.1,0.5l0.2,0.3l0.6,0.4l0.1,0.2l0.2,1.7l-0.1,2.5l-0.2,1.2l-0.1,0.5l1.2,2.2l0.4,0.4l0.2,0.5
				l-0.1,1l-1.3,2.9l-0.7,1l-1.1,0.5l-0.6,0.1l-0.4-0.1l-1.5,1l-1.4,2.6l-0.8,1.7l-0.3,0.9l-0.9,3.2l-0.2,1.4l-0.1,0.9l0.1,0.5
				l0.7,0.8l-0.1,0.7l-1.2,1.4l-1.3,0.4l-0.4-0.4l-1.3,1.4l-0.2,0.5l-0.5,3.1l-0.1,3.2l-0.2,1.3l-0.1,0.7l2.4,5.9l0.2,0.4l0.3,0.4
				l0.3,0.2l0.7,0.2l1.3-0.1l0.4,0.2l0.9,1l0.1,0.6l-0.6,1.7l-0.8,0.1l-0.8,0.9l0.6,3.1l-0.1,0.8l0,0l-1.8,0.2l-0.5-0.3l-0.2-0.5
				l-0.3-1l-0.5-0.4l-0.5-0.2l-0.4,0l-0.5,0l-0.9-0.1l-0.9-0.6l0-0.5l-0.1-0.7l-1.3-0.8l-5.7,0.2l-0.6,0.9l-0.9,1l-0.4,0.3l-3.9,0.9
				l-0.8,0l0,0l-0.5-0.2l-0.9-0.4l0,0l-0.5,0l-0.4,0.3l-0.4,0.4l0,0l0.1-2.1l0.2-1l0.1-0.5l0.2-0.9l0-1.9l-0.1-2.6l-0.5-1.3
				l-0.5-2.2l0-1.3l-0.1-0.6l-1-4.5l-0.7-2.9l-0.1-0.4v-0.7l0.2-1.2l0.1-2l-0.2-0.8l-0.3-0.5l-0.1-0.5l-0.4-3.1l0-2.2l0.1-2.1
				l0.1-1.2l0.3-3.5l0.6-1.5l0.6-0.2l0.2,0.4l0.6,0.2l0.4,0l0.7-0.3l2-2l0.4-0.7l0.9-4.3l0.9-0.9l0-1.6l-0.6-0.6l-0.3-1.3l0.1-4.2
				l0.3-1.6l0.2-0.7l0-0.5l-0.6-2l-0.3-0.4l-0.5-0.4l-1-0.7l-0.5-0.3l-0.4-0.3l-0.2-0.5L230.6,277.7z"/>
			<path id="CL-RM" class="st2" d="M257.6,388.9l0-0.5l-0.1-0.4l-0.5-0.3l-0.9-0.4l-0.6-0.6l-0.1-0.5l0.1-1.5l-0.2-0.9l-0.3-0.2
				l-0.5,0l-0.5,0.4l-0.4,0.1l-1.3-0.4l0.2-1.1l-0.7-2.4l-0.4-0.4l-0.7-0.2h-0.7l-2.2,0.9l-0.7,0.5l-1.4,0.1l-0.5-0.2l-1.5,1
				l-2.4,2.8l-0.1,0.5l0.1,0.9l-1.5,0.4l-1.8,0.1l-0.1,0l-1.5-2.2l-2.3-1l-1.2-2.2l-3,0.2l-1.8-0.8l0,0l1-0.6l0,0l0.6-2.1l0.4,0
				l1.1,0.1l0.9,0.3l0.6,0l0.9-1l0.8-3.1l-0.7-1.7l-0.3-1.5l0-0.4l0.5-0.3l1.3-1.3l0.6-0.7l0.2-0.5l0-1.6l0.2-0.5l1.2-0.2l1.1,0
				l1.3-0.9l-0.1-2.8l-0.2-1l0.2-0.8l0.4-0.2l2.1-0.8h2.6l1.8,0.4l1,0.4l0.8,0.7l0.2,0.9l0.6,0.9l0.4,0l1.2-1l0.4,0.1l1.3,1.4
				l1.9,0.9l1.6-1.4l0.9-0.5l0,0l0.3,0.5l-0.1,1l-0.2,0.7l0.1,0.6l1.8,2.6l0.5-0.1l0.4-0.7l0.5-0.5l0.5-0.1l0.5,0.2l1.3,0.7l0.5,2.4
				l-0.2,0.6L262,370l-1.1,2.6l-0.7,5l0,1.1l0.4,1.4l0.7,4.6l0.6,3.1l-1.3,1l-0.9-0.1l-0.4-0.1l-0.5,0l-0.8,0.2L257.6,388.9z"/>
			<polygon class="st2" points="232.5,342.3 233.3,342.3 237.2,341.4 237.6,341.2 238.5,340.2 239.1,339.2 244.7,339.1 246,339.8 
				246.1,340.6 246.1,341.1 247,341.7 247.8,341.9 248.3,341.9 248.7,341.9 249.2,342 249.8,342.5 250.1,343.5 250.2,344 
				250.7,344.3 252.5,344.1 252.5,344.1 252.6,344.5 253.9,345.1 254.2,345.8 255.6,348.7 255.7,349.4 255.6,350.2 256.4,351 
				257.5,352.2 259.2,354.4 259.4,356.2 258.6,357.6 258.1,359.2 257.1,360.4 256.6,361.4 256.6,361.4 255.7,362 254.1,363.3 
				252.2,362.5 250.9,361 250.5,361 249.3,362 248.8,362 248.2,361 247.9,360.2 247.2,359.4 246.2,359.1 244.5,358.6 241.9,358.6 
				239.7,359.5 239.4,359.7 239.2,360.5 239.4,361.5 239.5,364.3 238.2,365.1 237.1,365.2 235.9,365.4 235.7,365.8 235.7,367.4 
				235.5,367.9 235,368.7 233.7,370 233.2,370.2 233.1,370.7 233.4,372.2 234.1,373.9 233.3,377 232.4,378 231.8,378 230.8,377.7 
				229.8,377.7 229.4,377.7 228.8,379.7 228.8,379.7 227,380.9 227,380.9 226.4,381.7 225.7,381.6 225,381.4 224.5,381 223.6,381 
				223.6,381 224.2,379 224.8,377.5 225.3,377.3 226,377.2 226.5,376.9 227.2,376.3 227.5,375.4 227.6,375 227.7,374.3 227.9,372.6 
				226.9,368.5 226.7,365.9 225.7,362.6 225.9,362.2 226.8,362.3 229.2,360.5 230.1,358.1 230.5,355.1 231.3,353.6 231.5,352.9 
				231.6,352.2 231.6,349.1 232.3,346.9 231.1,344.9 230.3,343.7 229.8,342.4 229.8,342.4 230.2,342 230.7,341.7 231.2,341.7 
				231.2,341.7 232,342.1 232.5,342.3 			"/>
			<path id="CL-AR" class="st2" d="M193.2,481.8L193.2,481.8l0.4,0.2l0.6,0.3l1.5,1l4.9-4.8l0.3-0.6l0.1-0.5l0.1-0.7l-0.3-0.6
				l-0.7-0.3l-0.7-1.8l2.2-3.4l0.5-0.6l0.2-2.1l-0.2-0.5l-1.2-0.1l-0.4-0.5l1.7-2.1l2.6-0.4l0.8,0.4l0.8,0.5l0.7,0.4l2.6,0.6l1.6,0
				l1.1,1.3l0.5,1.3l1.2,1.6l0.9,0.5l0.4,0.2l0.6,0.1l0.7,0.2l0.5,0.2l1.6,1.4l0.2,0.6l0.6,0.7l0.4,0.3l2.8,0.5l2.3-0.2l0.5-0.2
				l0.6,0.2l0.6,0.9v1l-0.1,0.7l0,0.8l0.1,0.5l0.4,1.4l0.2,0.5l0.7,0.5l0.3-0.6l0.2-0.6l0.3-0.3l1.6-0.8l1.2-0.6l0.3-0.3l0.3-0.8
				l1.9-0.4l4.3-0.1l1.2,0.2l0,0l0,1.1l-0.2,1.7l0.2,1.4l0.6,3.1l0.4,0.8l0.8,0.8l0.5,0.3l0.7,0.5l0.3,0.8l-0.1,0.8l-0.6,2.4
				l-1.2,1.2l-0.4,0.2l-0.9,0l-0.6-0.1l-0.5,0.1l-0.8,0.4l-2.6,1.5l-1.8,1.1l-0.5,0.3l-0.6,0.6l-0.3,0.5L232,497l-0.1,1.3l0,0.6
				l0.2,0.6l0.2,1.5l0.3,2.6l-0.3,2.2l-0.9,2.5l-0.7,3l-0.1,0.9l-0.3,0.4l-1.7,0.1l-0.5-0.2l-0.8-1.1l-0.3,0l0,0l-0.1-0.5l-0.1-0.6
				l-0.2-0.6l-0.4-0.1l-1.3,0l-1-0.7l-0.5-0.5l-0.6-0.4l-0.5-0.2l-3-0.3l-0.5,0.1l-0.5,0.2l-0.5,0.5l-0.4,0.4l-0.5,0.3l-1.8,0.7
				l-0.7-0.1l-0.9-0.4l-2.7-1l-0.5,0l-1.4,0.3l-0.5,0l-0.6-0.1l-0.5-0.1l-0.5-0.3l-0.5-0.6l-0.5-1l-0.2-1.4l-0.4-0.3l-2.7,0.1
				l-0.9,1.1l-0.4,0.6l-0.5,0.5l-0.6,0.3l-0.6,0.1l-0.5-0.1l-0.5-0.1l-0.6-0.2l0,0l0.5-0.8l-0.1-2.6l-1-3.7l-3.3-9.4l-1.1-3.6
				l-0.4-2.8l0-0.8l0.3-1.4L193.2,481.8z"/>
			<path id="CL-LI" class="st2" d="M227.7,380.4l1.8,0.8l3-0.2l1.2,2.2l2.3,1l1.5,2.2l0.1,0l1.8-0.1l1.5-0.4l-0.1-0.9l0.1-0.5
				l2.4-2.8l1.5-1l0.5,0.2l1.4-0.1l0.7-0.5l2.2-0.9h0.7l0.7,0.2l0.4,0.4l0.7,2.4l-0.2,1.1l1.3,0.4l0.4-0.1l0.5-0.4l0.5,0l0.3,0.2
				l0.2,0.9l-0.1,1.5l0.1,0.5l0.6,0.6l0.9,0.4l0.5,0.3l0.1,0.4l0,0.5l0,0l-0.1,0.2v1.3l0.1,1l-1.9,2.9l-1.5,2.9l-1.2,4.3l-1.2,3.2
				l0,0l-0.1,0l-1.1-0.1l-3.4-0.3l-2.1-1.6l-0.8-0.8l-0.4-0.2l-5.2-1.6l-0.7-0.2h-0.5l-3.3,0.3l-1.5,1.3l0.1,0.5l0.1,0.8l-2.9-0.5
				l-2.8-0.2l-1.9-0.6l-2.6-1l-0.6-1l-1.1-1.3l-0.3-0.2L220,398l0,0l0.2-0.9l0.3-3l-0.1-1.3l-0.1-0.9l0.4-0.6l0.7-0.4l0.2-0.6l0-1.2
				l-0.1-1.7l-0.4-0.5l-0.1-0.4l0.1-0.7l2.2-4l0.5-0.7l0,0l0.9,0l0.5,0.4l0.7,0.2l0.6,0.1l0.7-0.8l0,0L227.7,380.4z"/>
			<path id="CL-LL" class="st2" d="M172.1,611.6l-0.4,0.3l-0.4,0l-0.5-0.1l-0.3,0.1l-0.4,0.1l-0.2,0.1l-0.7,0.5l-0.2,0l-0.3-0.2
				l-0.6-1l-0.1-0.2l-0.1-0.2l-0.1-0.2l0.1-0.4l1.6-0.8l0.2,0l1.6,0.8l0.2,0.2l0.4,0.5L172.1,611.6L172.1,611.6z M194.8,584.2l0,0.9
				l-0.4-0.1l-0.2-0.7l-0.1-0.2l-0.1-0.2l-0.3-0.2l-1.7-0.9l-0.2-0.1l-0.6-0.1l-0.3-0.2l-0.5-1.5l0.1-0.2l0.3-0.1l0.4-0.1l0.6,0
				l0.4,0.1l0.4,0.3L194.8,584.2L194.8,584.2z M186.1,566.7l-0.4,0.5h-0.5l-0.5-0.3l-0.4-0.1l-0.3,0.5l0.6,0.7l1.6,0.6l0.5-0.4
				l0.8-0.5l2-1.2l1.8-0.2l0.5,0.1l1.3,0.9l-0.4,3.3l1.4,2.2l-0.3,0.8l-0.5,0.2l-0.1,0.5l0.2,0.7l1.3,0.9l0.5,0.1l0.5,1.4l-0.2,0.9
				l-0.2,0.6l-2,0.5l-1-0.1l-0.4,0l-1.3,0.7l-0.4,0.3l-0.3,0.5l-0.1,2.1l0.6,0.6l0.5,0.3l0.3,0.3l-2,0.8l-1-0.9l0.4-1l-0.6,0.2
				l-0.5,1l0.2,2.3l3.5,3.5l0.9,0.3l1,0.7l0.3,0.3l0.3,1.3l-0.1,0.6l-1.4,0.2l-0.7-0.1l-0.6,0.3l-0.2,1l0.6,0.7l1,0.8l0.1,0.4
				l0.6,1.2l0.5,0.7l0.2,0.8l-0.4,0.4l-4.2-0.4l-0.8,0.3l0.3,2.1l0.4,0.5l0.5,0.4l0.3,0.9l-0.4,2.3l-0.4,0.2l-2.5,0.6l-0.7-0.5
				l-0.5-0.5l-0.5-0.2l-1.7-0.1l-2-0.3l-2.4-0.7l-1.7-0.9l-0.3-0.3l-0.3-0.5l1.3-3.5l1.8-2.2l-0.3-0.8l0.6-0.6l0.8-2.1l0.6-6
				l-0.1-1.8l-0.4-1.3l-0.3-0.3l-0.5-0.3l0.3-2.1l0.4-4.6l0.2-0.4l0.4-0.5l0.4-0.5l0.9-0.9l0.6-2l0.6-3.8l-0.7-1.5l-0.2-0.5l0-0.5
				l0.6-1l2.2,0.2L186.1,566.7L186.1,566.7z M188.6,528.5l5.6,0.5l1.1,1.8l1.8,0.4l2.9-2.2l2.9,1.1l1.8,3.3l2.6,1.8l3.3,2.9l3.6,1.5
				l2.2-2.6l1.5-2.2l2.9-0.4l3.4,0.5l0,0l-0.1,1l0,0.7l-0.4,1l-0.4,0.5l-0.4,0.4l-0.6,0.5l-0.4,0.6l0.7,1.9l1.2,2.6l0.2,1.1
				l-0.4,1.4l0.4,1.2l-0.4,4.5l-0.1,0.6l-0.3,0.7l-0.3,1.5l0.1,0.7l0.5,1.1l0.3,2.9l-0.8,1.3l-0.4,0.5v0.7l1.2,2.8l1.2,2.4l0.2,0.6
				l0.3,1.5l0.1,1.3l0.5,0.7l0.1,1.6l-0.9,0.9l-2.4,1.2l-0.6-0.1l-0.2-0.6l-0.3-0.4l-0.6-0.1l-0.4,0.2l-0.4,0.4l-1.7,3.4l0.4,0.8
				l1,0.8l0.2,0.5l-1.2,4l-0.3,0.5l-0.2,0.5l-0.1,0.5l0.2,2l0.3,1.3l0.1,1l0.1,2.4l-0.1,0.7l-0.2,0.8l-0.2,0.6l-0.1,0.5l-0.1,1.3
				l0.3,0.9l0.7,1.3l0.5,0.4l1,0.4l0.7,0l0.5,0l1.2,0.1l0.6,0.2l1.8,1.1l0.1,2.6l-0.1,0.5l-0.4,0.2l-0.7-0.2l-1.9,0.6l-0.6,1.6
				l-0.1,1.7l1.6,1.2l2.7,2.6l0.2,1.6l-0.2,0.6l-1.2,0.8l-0.4,0.1l-0.4,0.2v0.7l1,1.4l1.1,1.2l0,0l-1.4-0.7l-0.6,0l-2.6,1.3l-0.3,1
				l-2.6,0.3l-0.1-1l-0.3-0.7l-0.6-0.8l-0.5-0.4l-0.8-0.1l-0.4-0.2l-1.4-2.4l-0.1-1.1l-0.9-0.4l-0.6,0.4l-0.8,0.8l-0.6,0.9l-0.3,1
				L208,616l-1.2-0.3l-0.4-0.3l-1.2,0l0,0v-1.1l-0.3,0.9l0,0l-0.3,0l-0.5-0.2l-0.7-0.7l-0.9,0.2l-0.8,0.6l0,0l-0.1-0.9l0.1-3l-1.2-3
				l-0.2-0.6l0.6-3.3l0.4-0.5l0.7-0.5l0.5-0.3l0.4-0.2l0.4-0.1l0.7-0.3l0-1.9l-0.3-1.1l0.1-0.6l0.7-1.4l0.7-0.8l0.6,0l1.3,0.9
				l0.1-3.4l-0.6-0.7l-0.5-0.3l-0.5-0.5l-0.3-0.7l-0.3-1.5l0-1.3l0.1-3.6l0.7-1.7l0.4-0.2l1.7,0.1l0.5,0.1l0.4,0.5l1.5,1l0.5,0.2
				l0.2-0.3l-0.5-0.8l-0.9-0.2l-0.6-0.3l-0.7-0.6l-3.1-4.8l0.9-1.1l0.9-0.7l2.7-0.9l0.6,0.3l0.5,1l0,0.5l1.7,4.9l0.3,0.2l0.3-0.5
				l-0.2-1.9l-0.7-3.3l-0.2-1.1l-0.2-1.8l0-0.7l0.1-1l0.1-0.7l0.2-0.6l0.1-0.8l-0.3-0.3l-0.8,0l-0.6,0.7l-1.2,0.7l-2.3-0.4l-1.4-0.8
				l-0.8-1.1l0.2-0.6l1-1.6l2.8-2.9l0.8,0l0.6,0.1l1.9-0.5l1.3-0.7l1-0.9l0.3-0.4l0.4-5l-0.7,0.2l-0.7,4.4l-0.4,0.8l-1.3,0.7
				l-1.9,0.6l-0.6,0l-0.4-0.2l-0.7-0.6l-0.5-1.7l-0.6-0.9l-1.2-1.5l-0.7-0.4l-1.7-0.4l-1.4,0.4l-0.6,0.3l-1.2,1.8l0.3,1l0.4,0.3
				l0.3,1.5l-1.3,1.4l-1.2,0.9l-0.6,0.1l-1.3-0.3l-0.6-0.2l-1.2,0l-0.4,0.2l-0.9,0.4l-0.5,0.2l-0.3,0l-1.2-0.8l-2.2-0.4l-1-0.1
				l0.3-1.9l0.8-1.3l0.3-0.2l0.6,0l0.6,0.1l0.7-0.2l1.2-2.3l-0.6,0.5l-0.4,0.9l-0.4,0.5l-0.5,0.2L189,561l-1.1-0.7l-1.7-2.1l0-0.9
				l0.3-0.8l-0.1-1.7l-0.2-1l-0.6-1.8l-0.6-0.7l-0.3-0.6l-0.4-2.4l-0.4-2.8l0.9-2.7l2.1-5.8l0.9-1.1l0.8-1.6l-0.1-0.9l-0.5-1.3
				L188.6,528.5L188.6,528.5z"/>
			<path id="CL-ML" class="st2" d="M239.5,438.7l-0.1-0.1l-0.5-0.6l-0.2-0.8l-0.1-0.7l-0.6-0.3l-0.4,0.1l-0.4,0.3l-1.5,1.9l-0.1,0.6
				l-0.1,0.5l-0.5,0.6l-0.8-0.1l-1.8-1l-0.4-0.4l-2-1.6l-1.6-0.5l-1.2-0.5l-0.7-0.4l-0.5-0.4l-0.2-0.6l-0.5-1l-1.2-0.2l-0.4,0.1
				l-0.5,0.2l-0.4,0l-1-0.2l-0.3-0.3l-0.1-0.4l-0.2-0.6l-1.4-1.5l-0.1,0.7l0,0.6l-1.3,1.5l-2.3-0.1l-0.5-0.2l-3.6-1.9l-2.7-2.4
				l-0.1-0.8l-0.3-0.3l-2.1-0.9l0,0l0.4-0.2l0.9-0.9l2-2l0.2-0.5l0.2-0.7l0-0.8l-0.4-1.1l-0.8-1.9l0.1-0.6l0.4-0.5l0.8-0.4l1.3-1.1
				l1.2-3l0.7-1.9l0.3-0.5l0.8-0.9l0.6-0.4l0.7-0.4l1.1-1l0.4-0.8l0.2-1l0.1-0.7l0-0.8l0-0.7l0.2-1.2l1-2.3l0.4-0.4l0.4-0.6l0.4-1.3
				l0,0l0.5,0.2l0.3,0.2l1.1,1.3l0.6,1l2.6,1l1.9,0.6l2.8,0.2l2.9,0.5l-0.1-0.8l-0.1-0.5l1.5-1.3l3.3-0.3h0.5l0.7,0.2l5.2,1.6
				l0.4,0.2l0.8,0.8l2.1,1.6l3.4,0.3l1.1,0.1l0.1,0l0,0l0,0.2l0,0.9l0,0.8l0.1,0.5l-0.1,1l-0.3,0.5l-1.3,0.7l-0.6,0.1l-0.6,0
				l-0.4,0.1l-0.5,0.7l0,0.6l0.3,0.7l0.3,0.3l2.1,1.3l0.5,3.4l-0.1,2.3l-0.3,0.5l0.2,0.9l0.6,1.4l0.6,1.7l-0.6,0.5l-0.5,0.9
				l-0.2,0.5l0.1,1.8l0.2,2.4l-0.5,1.4l-0.3,0.4l-0.5,0.3l-0.7-0.1l-1.6,0.1l-2.2,2.4l-0.2,1.7l0.4,1.1l-0.2,0.5l-4.6,1.7l-0.5-0.1
				L239.5,438.7z"/>
			<path id="CL-AP" class="st2" d="M277.9,69.3h-2.8l-1.8,1.8l-0.4,2.2l-2.9,0.4l-2.9-2.2H262l-2.9,2.2l-2.9,1.8l-3,0.1l0,0l0-0.8
				l0.2-0.5l-0.1-0.8l-1-5.3l-0.3-0.8l-0.2-3.8l0.2-1.1l0.5-2.7l-0.5-0.7l-0.5-0.5l-0.6-0.5l-0.2-0.1l0.3-0.3l0.4-0.2l0.7-0.1
				l1.5,0.2l0.9,0.1l0.4,0l0.9-0.2l2.6-1l0.6-0.4l1.7-1.8l0.4-0.5l0.9-1.8l0.4-1l0.1-0.6l-0.8-2.9l-0.2-0.4l-0.3-0.3l-0.2-0.4
				l0.1-0.8l0.2-0.5l0.4-0.6l0.8,0.1l1.6,0.1l3.4-3.1l0.2,2.5l2.1,1.8l0.4,0.4l0.5,1l0.2,0.5l-0.1,1.3l0.1,0.7l0.2,0.6l0.3,0.5
				l2.9,1l1.2,0.2l0,0.6l-0.2,0.4l-0.7,0.4l-0.4,0.3l-0.2,0.5l0.2,0.6l0.4,0.4l0.4,0.5l0.3,3.2l0.3,0.4l0.4,0.5l0.2,0.4l0.1,0.5
				l0,0.5l-0.1,1l0.1,1l0.1,0.9l0.4,1.6l0.9,2l0.4,0.7L277.9,69.3z"/>
			<path id="CL-LR" class="st2" d="M224.2,534.9l-3.4-0.5l-2.9,0.4l-1.5,2.2l-2.2,2.6l-3.6-1.5l-3.3-2.9l-2.6-1.8L203,530l-2.9-1.1
				l-2.9,2.2l-1.8-0.4l-1.1-1.8l-5.6-0.5l0,0l0.4-2.3l1.3-1.5l-0.1-1.4l-0.2-0.6l-0.5-0.6l-0.2-0.5l0.4-0.6l0.3-0.3l3.5-1.7l1.6,0.3
				l0.5-0.7l0-2.9l1.4-3.5l0.3-0.5l0.7-1.7l0.6-1.9l-0.4-0.7l0,0l0.6,0.2l0.5,0.1l0.5,0.1l0.6-0.1l0.6-0.3l0.5-0.5l0.4-0.6l0.9-1.1
				l2.7-0.1l0.4,0.3l0.2,1.4l0.5,1l0.5,0.6l0.5,0.3l0.5,0.1l0.6,0.1l0.5,0l1.4-0.3l0.5,0l2.7,1l0.9,0.4l0.7,0.1l1.8-0.7l0.5-0.3
				l0.4-0.4l0.5-0.5l0.5-0.2l0.5-0.1l3,0.3l0.5,0.2l0.6,0.4l0.5,0.5l1,0.7l1.3,0l0.4,0.1l0.2,0.6l0.1,0.6l0.1,0.5l0,0l-0.1,0.2
				l-0.4,1.2l0.1,2.4l0.7,3.1l0.7,2.3l-0.6,2.3l-1.6,1l-0.8,0.6l-0.5,2.2l0.5,1l1.3,1.4l0.3-0.6l0.6,0.4l0.1,0.9l-0.7,1.7l-0.3,0.5
				l-0.4,0.1l-0.4-0.4l-0.4,0L224.2,534.9z"/>
			<path id="CL-BI" class="st2" d="M237.7,453.6l-0.5,0.1l-0.7-0.5l-0.5,0.2l-0.7,0.2l-0.7-0.2l-0.5-0.5l-0.5-0.2l-0.5-0.2l-0.3,0.4
				l-0.4-0.1l-0.6-0.4l-0.1-0.5l-0.6-0.5l-0.5-0.4l-0.6,0.2v0.5v0.4v0.6l-0.2,0.5l-0.1,0.8l-0.4-0.2l-0.6,0.2h-0.7l-0.6,0.4
				l-0.5-0.4l-0.5-0.2l-0.8-0.3l-0.7,0.1l-0.5,0.2l-0.3,0.7l-0.4,0.4l-0.7,0.3l-0.8,0.1h-0.6l-0.8-0.5h-0.3l-0.2,0.4h-0.4l-0.9-0.2
				l-0.7,0.5l-1.3-0.3l-0.7,0.2v-0.7V454l0.2-0.8l0.6-0.3l0.7-0.8l-0.2-0.5l-0.4-0.2l-0.5-0.4H216l-0.8-0.6l-1-1.6l-0.4,0.4l-1-0.1
				l-0.3-0.6H212l-0.3,0.6L209,449l0.2-0.8l1.7,0.1l-0.2-0.6l0.4-0.6l-0.7-0.4l-0.3-1.2l0.1-0.5l-0.2-0.9l-1-1.1l-1-0.2l-0.4-0.9
				l-0.4-0.4l-0.6,0.2l-0.4-1.4l-0.2-0.7l0.4-0.5l-0.1-0.9h-0.9l-0.2-0.9v-0.3l-0.1,0.2l-0.8,2.2l-0.7,2.6l-0.4,1.7l-0.3,0.3
				l-0.4,0.2h-0.5l-0.6-0.1l-0.4-0.4l-0.7-0.3l-0.3,4.5l-0.4,4.2l-0.5,1.8l-0.3,0.6l-0.4,0.6l-0.5,0.4l-0.8,0.4l-1,0.3l-0.5,0.1
				l-0.4,0l-0.8,0l-1.5-0.7l-0.5-0.3l-0.8-0.9l-0.8,0.6l-0.2,0.5L190,459l0.2,0.4l0.5,0.4l0.4,0.5l0.4,0.7l0.1,0.9l-0.2,0.9
				l-0.6,0.6l-0.7,0.9l-0.2,0.6l0.3,2.9l1.2,1.3l1.3,2.3l0.8,2l0.4,1.2l0.2,1l-0.3,3.5l-0.2,0.5l-0.4,0.4l-0.3,0.6l0.3,1.2l0.1,0
				l0.4,0.2l0.6,0.3l1.5,1l4.9-4.8l0.3-0.6l0.1-0.5l0.1-0.7l-0.3-0.6l-0.7-0.3l-0.7-1.8l2.2-3.4l0.5-0.6l0.2-2.1l-0.2-0.5l-1.2-0.1
				l-0.4-0.5l1.7-2.1l2.6-0.4l0.8,0.4l0.8,0.5l0.7,0.4l2.6,0.6l1.6,0l1.1,1.3l0.5,1.3l1.2,1.6l0.9,0.5l0.4,0.2l0.6,0.1l0.7,0.2
				l0.5,0.2l1.6,1.4l0.2,0.6l0.6,0.7l0.4,0.3l2.8,0.5l2.3-0.2l0.5-0.2l0.6,0.2l0.6,0.9v1l-0.1,0.7l0,0.8l0.1,0.6l0.4,1.4l0.2,0.5
				l0.7,0.5l0.3-0.6l0.2-0.6l0.3-0.3l1.6-0.8l1.2-0.6l0.3-0.3l0.3-0.8l1.9-0.4l4.3-0.1l1.2,0.2l0-0.9l-1.8-4.4l-0.5-1l-0.2-1.1
				l-0.4-1.1l-0.4-1.2l0-0.9l0.1-0.8l0.3-0.4l0.6-0.5l0.3-3l-0.2-0.5l-0.5-0.7l-0.4-0.6l-0.5-1.8l0.2-0.8l0.7-0.8l0.3-1L237.7,453.6
				L237.7,453.6z"/>
			<path id="CL-NU" class="st2" d="M206.7,426.9l-0.3,0.3l-0.4,3.3l-0.4,4.7l-0.7,1.8v0.3l0.2,0.9h0.9l0.1,0.9l-0.4,0.5l0.2,0.7
				l0.4,1.4l0.6-0.2l0.4,0.4l0.4,0.9l1,0.2l1,1.1l0.2,0.9l-0.1,0.5l0.3,1.2l0.7,0.4l-0.4,0.6l0.2,0.6l-1.7-0.1L209,449l2.7,0.2
				l0.3-0.6h0.5l0.3,0.6l1,0.1l0.4-0.4l1,1.6l0.8,0.6h0.7l0.5,0.4l0.4,0.2l0.2,0.5l-0.7,0.8l-0.6,0.3l-0.2,0.8v0.8v0.7l0.7-0.2
				l1.3,0.3l0.7-0.5l0.9,0.2h0.4l0.2-0.4h0.3l0.8,0.5h0.6l0.8-0.1l0.7-0.3l0.4-0.4l0.3-0.7l0.5-0.2l0.7-0.1l0.8,0.3l0.5,0.2l0.5,0.4
				l0.6-0.4h0.7l0.6-0.2l0.4,0.2l0.1-0.8l0.2-0.5v-0.6v-0.4v-0.5l0.6-0.2l0.5,0.4l0.6,0.5l0.1,0.5l0.6,0.4l0.4,0.1l0.3-0.4l0.5,0.2
				l0.5,0.2l0.5,0.5l0.7,0.2l0.7-0.2l0.5-0.2l0.7,0.5l0.5-0.1l0-0.1l-0.7-3.2l-0.7-3l0.9-2.4l1.5-4.5l0.4-1.5l0.3-0.2l-0.1-0.1
				l-0.5-0.6l-0.2-0.8l-0.1-0.7l-0.6-0.3l-0.4,0.1l-0.4,0.3l-1.5,1.9l-0.1,0.6l-0.1,0.5l-0.5,0.6l-0.8-0.1l-1.8-1l-0.4-0.4l-2-1.6
				l-1.6-0.5l-1.2-0.5l-0.7-0.4l-0.5-0.4l-0.2-0.6l-0.5-1l-1.2-0.2l-0.4,0.1l-0.5,0.2l-0.4,0l-1-0.2l-0.3-0.3l-0.1-0.4l-0.2-0.6
				l-1.4-1.5l-0.1,0.7l0,0.6l-1.3,1.5l-2.3-0.1l-0.5-0.2l-3.6-1.9l-2.7-2.4l-0.1-0.8l-0.3-0.3L206.7,426.9L206.7,426.9z"/>
		</g>
	</g>
</g>
</svg>
