<?xml version="1.0" encoding="utf-8"?>
<!-- Generator: Adobe Illustrator 24.1.2, SVG Export Plug-In . SVG Version: 6.00 Build 0)  -->
<svg version="1.1" id="Layer_1" xmlns="http://www.w3.org/2000/svg" xmlns:xlink="http://www.w3.org/1999/xlink" x="0px" y="0px"
	 viewBox="0 0 1920 1080" style="enable-background:new 0 0 1920 1080;" xml:space="preserve">
<image style="overflow:visible;" width="1200" height="632" xlink:href="CE1DD46D.jpg"  transform="matrix(0.4019 0 0 0.4019 88 413)">
</image>
<image style="overflow:visible;" width="800" height="533" xlink:href="CE1DD46F.jpg"  transform="matrix(0.375 0 0 0.375 692 450)">
</image>
<image style="overflow:visible;" width="900" height="600" xlink:href="CE1DD46A.jpg"  transform="matrix(0.265 0 0 0.265 1132 475)">
</image>
<image style="overflow:visible;" width="1200" height="600" xlink:href="CE1DD46B.jpg"  transform="matrix(0.1992 0 0 0.1992 1484 495)">
</image>
<g>
	<path d="M302.4,363.9c0,0.4-0.1,0.7-0.4,1c-0.3,0.3-0.6,0.7-1,1c-0.4,0.3-0.8,0.6-1.2,0.9c-0.4,0.3-0.8,0.5-1,0.7
		c-0.7,0.5-1.4,0.9-2.1,1.3c-0.7,0.4-1.4,0.8-2.2,1c-0.8,0.3-1.5,0.5-2.3,0.7c-0.8,0.2-1.6,0.3-2.5,0.3l-0.5,0.1
		c-0.7,0-1.4-0.1-2.1-0.2c-0.7-0.2-1.3-0.4-1.9-0.7c-0.6-0.3-1.1-0.7-1.6-1.3c-0.5-0.5-0.8-1.1-1.1-1.8c-0.2-0.6-0.3-1.2-0.4-2
		c-0.1-0.8-0.2-1.6-0.2-2.4c-0.1-0.8-0.1-1.7-0.1-2.5c0-0.8-0.1-1.5-0.1-2.2c-0.3-6.5-0.6-12.9-0.8-19.4c0-0.7-0.1-1.5-0.1-2.2
		c0-0.7,0-1.5,0-2.2c0-1.3,0.1-2.3,0.2-3.2c0.1-0.9,0.4-1.6,0.9-2.2c0.4-0.6,1.1-1,1.9-1.2c0.8-0.3,1.9-0.4,3.3-0.4
		c1.4,0,2.8,0,4.1,0c1.4,0,2.8,0,4.2,0c0.4,0,0.8,0,1.3,0c0.4,0,0.8,0,1.3,0.1c0.3,0,0.5,0.1,0.7,0.2c0.2,0.1,0.3,0.3,0.3,0.6
		c0,0.8-0.3,1.3-0.8,1.7s-1.1,0.6-1.8,0.7s-1.4,0.2-2.2,0.2c-0.8,0-1.4,0-1.9,0H288c-0.4,0-0.8,0-1.3,0c-0.4,0-0.8,0-1.3,0.1
		c-0.1,0.3-0.2,0.6-0.3,1c0,0.3-0.1,0.7-0.1,1c0,2.3,0.1,4.6,0.2,6.8c0.1,2.2,0.2,4.5,0.3,6.8c1.3-0.1,2.6-0.2,3.9-0.4
		c1.3-0.1,2.6-0.3,3.9-0.5c0.2,0,0.4,0,0.5,0c0.2,0,0.3,0,0.5,0c0.4,0,0.8,0.1,0.9,0.3c0.2,0.2,0.3,0.6,0.3,1c0,0.3,0,0.6,0,0.8
		c0,0.3-0.1,0.5-0.2,0.8c-0.1,0.4-0.4,0.7-0.7,0.9c-0.3,0.2-0.7,0.3-1.1,0.4c-0.4,0.1-0.9,0.1-1.3,0.1c-0.5,0-0.9,0-1.2,0
		c-0.9,0-1.8,0.1-2.6,0.1c-0.9,0-1.7,0.1-2.6,0.1c0,0.4,0.1,1.1,0.1,2c0,0.9,0.1,1.9,0.1,3c0.1,1.1,0.1,2.3,0.2,3.4
		c0.1,1.2,0.2,2.3,0.2,3.3c0.1,1,0.2,2,0.3,2.7c0.1,0.8,0.2,1.3,0.3,1.6c0.2,0.4,0.5,0.7,0.8,0.9c0.3,0.1,0.7,0.2,1.2,0.2
		c0.8,0,1.6-0.2,2.5-0.5c0.9-0.3,1.7-0.7,2.5-1.2c0.8-0.5,1.6-1,2.4-1.6c0.8-0.6,1.4-1.1,2-1.7c0.2-0.2,0.5-0.4,0.7-0.6
		c0.2-0.2,0.5-0.3,0.8-0.3s0.6,0.1,0.9,0.3c0.3,0.2,0.6,0.4,0.8,0.7c0.2,0.3,0.4,0.6,0.6,0.9C302.3,363.3,302.4,363.6,302.4,363.9z"
		/>
	<path d="M326,363.9c0,0.4-0.1,0.7-0.4,1c-0.3,0.3-0.6,0.7-1,1c-0.4,0.3-0.8,0.6-1.2,0.9c-0.4,0.3-0.8,0.5-1,0.7
		c-0.7,0.5-1.4,0.9-2.1,1.3c-0.7,0.4-1.4,0.8-2.2,1c-0.8,0.3-1.5,0.5-2.3,0.7c-0.8,0.2-1.6,0.3-2.5,0.3l-0.5,0.1
		c-0.7,0-1.4-0.1-2.1-0.2c-0.7-0.2-1.3-0.4-1.9-0.7c-0.6-0.3-1.1-0.7-1.6-1.3c-0.5-0.5-0.8-1.1-1.1-1.8c-0.2-0.6-0.3-1.2-0.4-2
		c-0.1-0.8-0.2-1.6-0.2-2.4c-0.1-0.8-0.1-1.7-0.1-2.5c0-0.8-0.1-1.5-0.1-2.2c-0.3-6.5-0.6-12.9-0.8-19.4c0-0.7-0.1-1.5-0.1-2.2
		c0-0.7,0-1.5,0-2.2c0-1.3,0.1-2.3,0.2-3.2c0.1-0.9,0.4-1.6,0.9-2.2c0.4-0.6,1.1-1,1.9-1.2c0.8-0.3,1.9-0.4,3.3-0.4
		c1.4,0,2.8,0,4.1,0c1.4,0,2.8,0,4.2,0c0.4,0,0.8,0,1.3,0c0.4,0,0.8,0,1.3,0.1c0.3,0,0.5,0.1,0.7,0.2c0.2,0.1,0.3,0.3,0.3,0.6
		c0,0.8-0.3,1.3-0.8,1.7s-1.1,0.6-1.8,0.7s-1.4,0.2-2.2,0.2c-0.8,0-1.4,0-1.9,0h-4.1c-0.4,0-0.8,0-1.3,0c-0.4,0-0.8,0-1.3,0.1
		c-0.1,0.3-0.2,0.6-0.3,1c0,0.3-0.1,0.7-0.1,1c0,2.3,0.1,4.6,0.2,6.8c0.1,2.2,0.2,4.5,0.3,6.8c1.3-0.1,2.6-0.2,3.9-0.4
		c1.3-0.1,2.6-0.3,3.9-0.5c0.2,0,0.4,0,0.5,0c0.2,0,0.3,0,0.5,0c0.4,0,0.8,0.1,0.9,0.3c0.2,0.2,0.3,0.6,0.3,1c0,0.3,0,0.6,0,0.8
		c0,0.3-0.1,0.5-0.2,0.8c-0.1,0.4-0.4,0.7-0.7,0.9c-0.3,0.2-0.7,0.3-1.1,0.4c-0.4,0.1-0.9,0.1-1.3,0.1c-0.5,0-0.9,0-1.2,0
		c-0.9,0-1.8,0.1-2.6,0.1c-0.9,0-1.7,0.1-2.6,0.1c0,0.4,0.1,1.1,0.1,2c0,0.9,0.1,1.9,0.1,3c0.1,1.1,0.1,2.3,0.2,3.4
		c0.1,1.2,0.2,2.3,0.2,3.3c0.1,1,0.2,2,0.3,2.7c0.1,0.8,0.2,1.3,0.3,1.6c0.2,0.4,0.5,0.7,0.8,0.9c0.3,0.1,0.7,0.2,1.2,0.2
		c0.8,0,1.6-0.2,2.5-0.5c0.9-0.3,1.7-0.7,2.5-1.2c0.8-0.5,1.6-1,2.4-1.6c0.8-0.6,1.4-1.1,2-1.7c0.2-0.2,0.5-0.4,0.7-0.6
		c0.2-0.2,0.5-0.3,0.8-0.3s0.6,0.1,0.9,0.3c0.3,0.2,0.6,0.4,0.8,0.7c0.2,0.3,0.4,0.6,0.6,0.9C326,363.3,326,363.6,326,363.9z"/>
	<path d="M326.4,367.3c0-0.2,0.1-0.4,0.2-0.5c0.1-0.1,0.3-0.2,0.6-0.3c0.2-0.1,0.4-0.1,0.7-0.1c0.2,0,0.4,0,0.6,0c0.2,0,0.5,0,0.7,0
		c0.3,0,0.6,0.1,0.8,0.1c0.3,0.1,0.5,0.2,0.7,0.3c0.2,0.2,0.3,0.4,0.3,0.7c0,0.1,0,0.3,0,0.7c0,0.3,0,0.7,0,1.1c0,0.4,0,0.8,0,1.1
		c0,0.3,0,0.5,0,0.5c-0.2,0.2-0.4,0.4-0.7,0.4c-0.3,0-0.5,0-0.7,0c-0.7,0-1.1,0-1.5-0.1c-0.3-0.1-0.6-0.2-0.7-0.4
		c-0.1-0.2-0.2-0.5-0.3-0.8c0-0.3-0.1-0.8-0.2-1.3c-0.1-0.3-0.1-0.5-0.2-0.8C326.4,367.9,326.4,367.6,326.4,367.3z"/>
	<path d="M355.7,351.3c0,1.1,0,2.4-0.1,3.8c-0.1,1.4-0.2,2.9-0.5,4.3c-0.2,1.5-0.6,2.9-1,4.3c-0.4,1.4-1,2.7-1.8,3.8
		c-0.8,1.1-1.7,2-2.8,2.6c-1.1,0.7-2.4,1-4,1c-0.9,0-1.7-0.1-2.5-0.4s-1.6-0.6-2.3-1.1c-1.1-0.8-2-2-2.8-3.5
		c-0.8-1.5-1.4-3.2-1.9-5.1c-0.5-1.9-0.9-3.9-1.1-6c-0.3-2.1-0.4-4.2-0.6-6.3c-0.1-2.1-0.2-4-0.2-5.8c0-1.8,0-3.4,0-4.7
		c0-0.3,0-0.8,0-1.5s0-1.3,0-2.1c0-0.8,0-1.6,0-2.4c0-0.8,0.1-1.6,0.1-2.4c0-0.8,0.1-1.4,0.2-2c0.1-0.6,0.1-1,0.3-1.2
		c0.1-0.3,0.2-0.4,0.4-0.5c0.1-0.1,0.4-0.2,0.7-0.2c1,0,1.7,0.3,2.3,0.9s0.8,1.3,0.8,2.3c0,1.4,0,2.8-0.1,4.2s-0.1,2.8-0.1,4.2
		c0,0.6,0,1.5,0,2.7c0,1.2,0,2.5,0.1,4c0.1,1.5,0.2,3.1,0.3,4.9c0.1,1.7,0.3,3.5,0.5,5.2c0.2,1.7,0.5,3.3,0.8,4.9
		c0.3,1.6,0.7,3,1.2,4.2c0.5,1.2,1,2.2,1.7,2.9c0.6,0.7,1.4,1.1,2.2,1.1c0.8,0,1.5-0.3,2-0.9c0.6-0.6,1.1-1.4,1.5-2.4
		c0.4-1,0.7-2,1-3.2c0.2-1.2,0.4-2.4,0.6-3.5c0.1-1.2,0.2-2.2,0.3-3.2c0-1,0.1-1.8,0.1-2.3c0-1.2,0-2.5-0.1-3.9
		c-0.1-1.4-0.1-2.9-0.2-4.5c-0.1-1.5-0.2-3.1-0.4-4.7c-0.2-1.6-0.4-3.2-0.6-4.7c-0.2-1.5-0.5-3-0.8-4.3c-0.3-1.4-0.7-2.6-1.1-3.7
		c-0.1-0.2-0.2-0.4-0.3-0.7c-0.1-0.3-0.2-0.5-0.2-0.7c0-0.3,0.1-0.6,0.2-0.8c0.2-0.2,0.4-0.3,0.6-0.4c0.2-0.1,0.5-0.1,0.8-0.1
		c0.3,0,0.5,0,0.8,0c0.5,0,0.9,0,1.3,0.1c0.3,0,0.7,0.2,1.2,0.4c0.3,0.2,0.6,0.6,0.8,1.4c0.3,0.8,0.5,1.7,0.7,2.9
		c0.2,1.2,0.4,2.5,0.7,4c0.2,1.5,0.4,3,0.6,4.5c0.2,1.6,0.3,3.1,0.4,4.6c0.1,1.5,0.2,3,0.3,4.3c0.1,1.3,0.1,2.5,0.2,3.5
		C355.7,350.1,355.7,350.8,355.7,351.3z"/>
	<path d="M382.1,351.3c0,1.1,0,2.4-0.1,3.8c-0.1,1.4-0.2,2.9-0.5,4.3c-0.2,1.5-0.6,2.9-1,4.3c-0.4,1.4-1,2.7-1.8,3.8
		c-0.8,1.1-1.7,2-2.8,2.6c-1.1,0.7-2.4,1-4,1c-0.9,0-1.7-0.1-2.5-0.4s-1.6-0.6-2.3-1.1c-1.1-0.8-2-2-2.8-3.5
		c-0.8-1.5-1.4-3.2-1.9-5.1c-0.5-1.9-0.9-3.9-1.1-6c-0.3-2.1-0.4-4.2-0.6-6.3c-0.1-2.1-0.2-4-0.2-5.8c0-1.8,0-3.4,0-4.7
		c0-0.3,0-0.8,0-1.5s0-1.3,0-2.1c0-0.8,0-1.6,0-2.4c0-0.8,0.1-1.6,0.1-2.4c0-0.8,0.1-1.4,0.2-2c0.1-0.6,0.1-1,0.3-1.2
		c0.1-0.3,0.2-0.4,0.4-0.5c0.1-0.1,0.4-0.2,0.7-0.2c1,0,1.7,0.3,2.3,0.9s0.8,1.3,0.8,2.3c0,1.4,0,2.8-0.1,4.2s-0.1,2.8-0.1,4.2
		c0,0.6,0,1.5,0,2.7c0,1.2,0,2.5,0.1,4c0.1,1.5,0.2,3.1,0.3,4.9c0.1,1.7,0.3,3.5,0.5,5.2c0.2,1.7,0.5,3.3,0.8,4.9
		c0.3,1.6,0.7,3,1.2,4.2c0.5,1.2,1,2.2,1.7,2.9c0.6,0.7,1.4,1.1,2.2,1.1c0.8,0,1.5-0.3,2-0.9c0.6-0.6,1.1-1.4,1.5-2.4
		c0.4-1,0.7-2,1-3.2c0.2-1.2,0.4-2.4,0.6-3.5c0.1-1.2,0.2-2.2,0.3-3.2c0-1,0.1-1.8,0.1-2.3c0-1.2,0-2.5-0.1-3.9
		c-0.1-1.4-0.1-2.9-0.2-4.5c-0.1-1.5-0.2-3.1-0.4-4.7c-0.2-1.6-0.4-3.2-0.6-4.7c-0.2-1.5-0.5-3-0.8-4.3c-0.3-1.4-0.7-2.6-1.1-3.7
		c-0.1-0.2-0.2-0.4-0.3-0.7c-0.1-0.3-0.2-0.5-0.2-0.7c0-0.3,0.1-0.6,0.2-0.8c0.2-0.2,0.4-0.3,0.6-0.4c0.2-0.1,0.5-0.1,0.8-0.1
		c0.3,0,0.5,0,0.8,0c0.5,0,0.9,0,1.3,0.1c0.3,0,0.7,0.2,1.2,0.4c0.3,0.2,0.6,0.6,0.8,1.4c0.3,0.8,0.5,1.7,0.7,2.9
		c0.2,1.2,0.4,2.5,0.7,4c0.2,1.5,0.4,3,0.6,4.5c0.2,1.6,0.3,3.1,0.4,4.6c0.1,1.5,0.2,3,0.3,4.3c0.1,1.3,0.1,2.5,0.2,3.5
		C382.1,350.1,382.1,350.8,382.1,351.3z"/>
</g>
<g>
	<path d="M713.1,337.3c0,2.1-0.3,4.2-1,6.3c-0.7,2.1-1.6,4.1-2.8,5.9c-1.2,1.8-2.6,3.5-4.3,4.9c-1.7,1.4-3.5,2.5-5.5,3.3
		c0.1,1.8,0.3,3.5,0.4,5.2c0.2,1.7,0.4,3.5,0.7,5.2c0.1,0.3,0.1,0.6,0.2,1c0.1,0.3,0.1,0.7,0.1,1c0,0.6-0.1,0.9-0.4,1.1
		c-0.3,0.2-0.7,0.3-1.2,0.3c-0.4,0-0.8,0-1.3-0.1s-0.9-0.2-1.3-0.4c-0.4-0.2-0.7-0.5-0.8-0.7s-0.2-0.6-0.3-1
		c-0.4-1.8-0.6-3.6-0.7-5.4c-0.1-1.8-0.2-3.6-0.3-5.4c-0.4,0-0.8-0.2-1-0.3c-0.3-0.2-0.4-0.5-0.4-0.9c0-0.4,0.1-0.9,0.4-1.3
		c0.2-0.5,0.5-0.8,0.8-1.1c-0.2-3.9-0.3-7.8-0.2-11.7c0-3.9,0-7.8,0-11.7c-0.1,0-0.2,0.1-0.3,0.1c-0.1,0-0.2,0-0.3,0
		c-0.2,0-0.4-0.1-0.6-0.2c-0.1-0.1-0.3-0.3-0.4-0.4c-0.1-0.2-0.2-0.4-0.2-0.6c0-0.2-0.1-0.4-0.1-0.6c0-0.6,0.2-1.1,0.5-1.4
		c0.3-0.3,0.8-0.5,1.3-0.8c0-0.2,0-0.5,0-0.8c0-0.3,0.1-0.6,0.1-0.9c0.1-0.3,0.2-0.5,0.4-0.7c0.2-0.2,0.4-0.3,0.8-0.3
		c0.5,0,1.1,0.1,1.6,0.3c0.5,0.2,0.9,0.6,1.1,1.1c0.7-0.1,1.5-0.2,2.2-0.3c0.7-0.1,1.4-0.2,2.2-0.2c1.7,0,3.2,0.3,4.5,0.8
		c1.3,0.6,2.4,1.3,3.3,2.3c0.9,1,1.6,2.2,2.1,3.6C712.9,334.2,713.1,335.7,713.1,337.3z M708.4,336.7c0-1-0.1-1.9-0.4-2.7
		c-0.3-0.9-0.6-1.6-1.1-2.2s-1.2-1.1-1.9-1.5c-0.8-0.4-1.7-0.5-2.8-0.5c-0.6,0-1.1,0-1.7,0.1c-0.6,0.1-1.1,0.2-1.7,0.4
		c0,3.9,0,7.7,0.1,11.5c0.1,3.8,0.2,7.6,0.4,11.5c1.4-0.7,2.6-1.7,3.7-2.9c1.1-1.2,2.1-2.6,2.9-4.1c0.8-1.5,1.4-3.1,1.9-4.7
		C708.1,339.8,708.4,338.3,708.4,336.7z"/>
	<path d="M737.4,354c0,0.4-0.2,0.9-0.5,1.4c-0.3,0.5-0.7,0.8-1,1.1c-0.1,0.1-0.3,0.1-0.5,0.2s-0.5,0.1-0.8,0.2
		c-0.3,0.1-0.6,0.1-0.8,0.2c-0.3,0.1-0.5,0.1-0.6,0.1l0.8,4.7c0.2,1.5,0.4,2.9,0.5,4.4c0.1,1.5,0.4,2.9,0.8,4.4
		c0,0.1,0.1,0.2,0.1,0.3c0,0.1,0.1,0.2,0.1,0.4c0,0.3-0.1,0.5-0.2,0.6c-0.2,0.1-0.3,0.3-0.6,0.3c-0.2,0.1-0.5,0.1-0.7,0.1
		c-0.3,0-0.5,0-0.7,0h-0.4c-0.7,0-1.2-0.1-1.5-0.2c-0.3-0.1-0.6-0.3-0.8-0.5s-0.3-0.6-0.4-1s-0.1-0.9-0.2-1.4
		c-0.5-3.9-1.1-7.7-1.7-11.6c-1.3,0.2-2.6,0.3-4,0.5c-1.3,0.1-2.7,0.3-4,0.4l-1,6.2c0,0.4-0.1,0.9-0.2,1.6c-0.1,0.7-0.2,1.3-0.3,2
		c-0.1,0.7-0.2,1.3-0.3,1.9c-0.1,0.6-0.2,1-0.4,1.3c-0.1,0.3-0.2,0.4-0.3,0.5c-0.1,0.1-0.3,0.2-0.6,0.2c-0.4,0-0.8-0.1-1.1-0.2
		c-0.4-0.1-0.7-0.3-1-0.6c-0.3-0.2-0.5-0.5-0.7-0.9c-0.2-0.3-0.3-0.7-0.3-1.1c0-0.4,0-0.8,0.1-1.3c0.1-0.4,0.2-0.8,0.2-1.3
		c0.2-1.4,0.4-2.8,0.6-4.2c0.2-1.4,0.4-2.8,0.6-4.1c-0.1,0-0.3-0.1-0.5-0.1c-0.2-0.1-0.4-0.1-0.6-0.2c-0.2-0.1-0.3-0.2-0.5-0.3
		s-0.2-0.3-0.2-0.4c0-0.2,0.1-0.4,0.2-0.6c0.2-0.2,0.3-0.3,0.6-0.5c0.2-0.2,0.4-0.3,0.7-0.4c0.2-0.1,0.4-0.2,0.6-0.3
		c0.4-3,0.9-5.9,1.3-8.9c0.4-2.9,0.8-5.9,1.1-8.9c0.1-0.8,0.2-1.6,0.2-2.4c0.1-0.8,0.1-1.7,0.2-2.5c0.1-0.8,0.2-1.6,0.3-2.4
		c0.1-0.8,0.3-1.6,0.5-2.4c0.2-0.8,0.5-1.4,1-1.8c0.4-0.5,1.1-0.7,2-0.7c0.3,0,0.5,0,0.7,0.1c0.2,0,0.5,0.1,0.7,0.3
		c0.5,0.3,1.1,1,1.7,2.3c0.6,1.2,1.2,2.7,1.8,4.5c0.6,1.7,1.2,3.6,1.7,5.7c0.5,2,1,4,1.5,5.9s0.8,3.6,1.1,5.2
		c0.3,1.5,0.5,2.7,0.7,3.4c0.4-0.1,0.9-0.1,1.3-0.2c0.4-0.1,0.9-0.1,1.3-0.1c0.2,0,0.5,0,0.7,0c0.3,0,0.5,0.1,0.8,0.2
		c0.2,0.1,0.4,0.2,0.6,0.4C737.3,353.5,737.4,353.7,737.4,354z M727.4,353.8c-0.6-3-1.1-6-1.8-8.9c-0.6-3-1.4-5.9-2.3-8.8
		c-0.4,3.2-0.8,6.4-1.2,9.5c-0.4,3.2-0.9,6.3-1.4,9.5c1.1-0.2,2.3-0.4,3.4-0.6C725.2,354.2,726.3,354,727.4,353.8z"/>
	<path d="M756.9,366.9c0,0.6-0.2,1.2-0.5,1.7c-0.3,0.5-0.8,0.9-1.3,1.2c-0.2,0.1-0.6,0.2-1.2,0.2c-0.7,0.1-1.4,0.1-2.1,0.2
		s-1.5,0.1-2.2,0.2c-0.7,0.1-1.2,0.1-1.4,0.1c-0.1,0.4-0.2,0.6-0.5,0.7c-0.3,0.1-0.6,0.2-0.9,0.2c-0.4,0-0.8-0.1-1.2-0.2
		c-0.5-0.1-0.9-0.2-1.2-0.3c-1,0.1-1.9,0.3-2.9,0.4c-1,0.1-2,0.2-3,0.2c-0.8,0-1.1-0.4-1.1-1.1c0-0.7,0.2-1.3,0.6-1.7
		c0.4-0.4,0.9-0.7,1.5-0.9c0.6-0.2,1.2-0.3,1.8-0.4c0.7-0.1,1.2-0.1,1.7-0.2c-0.1-6-0.2-12-0.3-17.9c-0.1-5.9-0.2-11.9-0.2-17.9
		c-0.9,0.1-1.7,0.1-2.5,0.2s-1.7,0.1-2.5,0.1c-0.2,0-0.3,0-0.5,0s-0.4,0-0.5-0.1c-0.2-0.1-0.3-0.1-0.4-0.3c-0.1-0.1-0.2-0.3-0.2-0.5
		c0-0.4,0.1-0.8,0.3-1.1c0.2-0.3,0.4-0.6,0.7-0.8c0.3-0.2,0.6-0.4,0.9-0.5c0.3-0.1,0.7-0.2,1-0.3c0.9-0.2,1.8-0.3,2.8-0.4
		c0.9-0.1,1.9-0.2,2.8-0.3s1.9-0.2,2.8-0.4c0.9-0.1,1.9-0.3,2.8-0.5c0.9-0.2,1.8-0.4,2.7-0.7c0.9-0.3,1.8-0.5,2.7-0.5
		c0.5,0,0.8,0.2,1,0.6c0.2,0.4,0.3,0.8,0.3,1.2c0,0.4,0,0.7-0.1,1c-0.1,0.3-0.2,0.6-0.5,0.9c-0.1,0.2-0.4,0.3-0.8,0.5
		c-0.4,0.2-1,0.3-1.6,0.4c-0.6,0.1-1.2,0.2-1.9,0.4c-0.7,0.1-1.4,0.2-2,0.3c-0.6,0.1-1.2,0.2-1.8,0.2c-0.5,0.1-0.9,0.1-1.2,0.1
		c0.2,2.9,0.4,5.9,0.5,8.8c0.1,2.9,0.2,5.9,0.2,8.8c0.1,2.9,0.1,5.9,0.2,8.8c0.1,2.9,0.2,5.9,0.3,8.8c1.2-0.2,2.4-0.4,3.6-0.6
		c1.2-0.2,2.5-0.3,3.7-0.3c0.4,0,0.7,0.1,1,0.2C756.8,366.2,756.9,366.5,756.9,366.9z M743.4,324c0-0.2,0.1-0.4,0.3-0.7
		c0.2-0.3,0.4-0.5,0.6-0.7c0.2-0.2,0.5-0.5,0.7-0.7c0.3-0.2,0.5-0.4,0.6-0.5l3.1-2.9c0.3-0.2,0.5-0.4,0.8-0.7
		c0.3-0.2,0.6-0.4,0.9-0.4c0.2,0,0.4,0.1,0.7,0.2c0.3,0.2,0.5,0.3,0.7,0.6c0.2,0.2,0.4,0.5,0.6,0.7c0.1,0.3,0.2,0.5,0.2,0.7
		c0,0,0,0.1,0,0.1c0,0,0,0.1-0.1,0.1c-0.1,0.3-0.2,0.5-0.4,0.7c-0.2,0.2-0.4,0.4-0.6,0.5c-0.7,0.5-1.2,0.9-1.5,1.2
		c-0.3,0.3-0.7,0.5-1,0.7c-0.3,0.2-0.6,0.5-1,0.7c-0.4,0.3-0.9,0.6-1.5,1.1c-0.2,0.2-0.5,0.3-0.7,0.4c-0.2,0.1-0.5,0.2-0.7,0.2
		c-0.2,0-0.4,0-0.6-0.1c-0.2-0.1-0.4-0.2-0.6-0.3c-0.2-0.1-0.3-0.3-0.5-0.5C743.5,324.4,743.4,324.2,743.4,324z"/>
	<path d="M778.7,361.4c0,1.6-0.3,3-0.8,4.4s-1.2,2.6-2.2,3.7c-0.9,1-2.1,1.9-3.4,2.5s-2.8,0.9-4.4,0.9c-1.4,0-2.8-0.2-4-0.7
		c-1.2-0.5-2.3-1.1-3.2-1.9s-1.6-1.8-2.1-3c-0.5-1.2-0.7-2.5-0.7-4c0-0.3,0-0.7,0-1.1c0-0.4,0.1-0.9,0.2-1.3c0.1-0.4,0.3-0.8,0.5-1
		c0.2-0.3,0.5-0.4,1-0.4c0.3,0,0.7,0.1,1.1,0.2c0.4,0.1,0.8,0.3,1.2,0.6c0.4,0.2,0.7,0.5,0.9,0.8c0.2,0.3,0.4,0.7,0.4,1.1v1.8
		c0,1.5,0.4,2.7,1.2,3.6c0.8,0.9,1.9,1.4,3.4,1.4c1.1,0,2-0.2,2.7-0.7c0.8-0.5,1.4-1.1,1.9-1.9c0.5-0.8,0.8-1.6,1-2.6
		c0.2-0.9,0.3-1.9,0.3-2.8c0-1.8-0.4-3.5-1.1-5.2c-0.7-1.7-1.6-3.3-2.7-4.9c-1.1-1.6-2.3-3.2-3.6-4.7c-1.3-1.5-2.5-3.1-3.6-4.6
		c-1.1-1.5-2-3-2.7-4.6c-0.7-1.5-1.1-3.1-1.1-4.7c0-1.3,0.3-2.4,0.8-3.3c0.5-0.9,1.2-1.7,2.1-2.3c0.9-0.6,1.8-1,2.9-1.3
		c1.1-0.3,2.2-0.4,3.4-0.4c1.4,0,2.7,0.2,3.8,0.6c1.1,0.4,2.1,1,2.9,1.7c0.8,0.8,1.4,1.7,1.8,2.8c0.4,1.1,0.6,2.4,0.6,3.8
		c0,0.2,0,0.5,0,0.8c0,0.3-0.1,0.6-0.2,0.9c-0.1,0.3-0.2,0.6-0.4,0.8c-0.2,0.2-0.4,0.3-0.7,0.3c-0.4,0-0.8-0.1-1.3-0.3
		c-0.4-0.2-0.7-0.4-0.9-0.6c-0.2-0.2-0.4-0.4-0.5-0.6c-0.1-0.2-0.2-0.5-0.3-0.7c-0.1-0.3-0.1-0.6-0.2-1c-0.1-0.8-0.2-1.4-0.4-2.1
		c-0.2-0.6-0.4-1.1-0.8-1.6c-0.3-0.4-0.8-0.8-1.3-1c-0.6-0.2-1.3-0.3-2.1-0.3c-0.6,0-1.2,0.1-1.8,0.2c-0.6,0.1-1,0.3-1.5,0.6
		c-0.4,0.3-0.7,0.7-1,1.2c-0.2,0.5-0.4,1.1-0.4,1.8c0,1,0.2,2,0.7,3c0.4,1,1,2.1,1.7,3.1c0.7,1.1,1.5,2.1,2.4,3.3
		c0.9,1.1,1.8,2.3,2.8,3.4c1,1.2,1.9,2.4,2.8,3.7c0.9,1.3,1.7,2.6,2.4,3.9c0.7,1.4,1.3,2.8,1.7,4.2
		C778.5,358.4,778.7,359.9,778.7,361.4z"/>
	<path d="M804,364.6c0,0.4-0.1,0.7-0.4,1c-0.3,0.3-0.6,0.7-1,1c-0.4,0.3-0.8,0.6-1.2,0.9c-0.4,0.3-0.8,0.5-1,0.7
		c-0.7,0.5-1.4,0.9-2.1,1.3c-0.7,0.4-1.4,0.8-2.2,1c-0.8,0.3-1.5,0.5-2.3,0.7c-0.8,0.2-1.6,0.3-2.5,0.3l-0.5,0.1
		c-0.7,0-1.4-0.1-2.1-0.2c-0.7-0.2-1.3-0.4-1.9-0.7c-0.6-0.3-1.1-0.7-1.6-1.3c-0.5-0.5-0.8-1.1-1.1-1.8c-0.2-0.6-0.3-1.2-0.4-2
		c-0.1-0.8-0.2-1.6-0.2-2.4c-0.1-0.8-0.1-1.7-0.1-2.5c0-0.8-0.1-1.5-0.1-2.2c-0.3-6.5-0.6-12.9-0.8-19.4c0-0.7-0.1-1.5-0.1-2.2
		c0-0.7,0-1.5,0-2.2c0-1.3,0.1-2.3,0.2-3.2c0.1-0.9,0.4-1.6,0.9-2.2c0.4-0.6,1.1-1,1.9-1.2c0.8-0.3,1.9-0.4,3.3-0.4
		c1.4,0,2.8,0,4.1,0c1.4,0,2.8,0,4.2,0c0.4,0,0.8,0,1.3,0c0.4,0,0.8,0,1.3,0.1c0.3,0,0.5,0.1,0.7,0.2c0.2,0.1,0.3,0.3,0.3,0.6
		c0,0.8-0.3,1.3-0.8,1.7s-1.1,0.6-1.8,0.7s-1.4,0.2-2.2,0.2c-0.8,0-1.4,0-1.9,0h-4.1c-0.4,0-0.8,0-1.3,0c-0.4,0-0.8,0-1.3,0.1
		c-0.1,0.3-0.2,0.6-0.3,1c0,0.3-0.1,0.7-0.1,1c0,2.3,0.1,4.6,0.2,6.8c0.1,2.2,0.2,4.5,0.3,6.8c1.3-0.1,2.6-0.2,3.9-0.4
		c1.3-0.1,2.6-0.3,3.9-0.5c0.2,0,0.4,0,0.5,0c0.2,0,0.3,0,0.5,0c0.4,0,0.8,0.1,0.9,0.3c0.2,0.2,0.3,0.6,0.3,1c0,0.3,0,0.6,0,0.8
		c0,0.3-0.1,0.5-0.2,0.8c-0.1,0.4-0.4,0.7-0.7,0.9c-0.3,0.2-0.7,0.3-1.1,0.4c-0.4,0.1-0.9,0.1-1.3,0.1c-0.5,0-0.9,0-1.2,0
		c-0.9,0-1.8,0.1-2.6,0.1c-0.9,0-1.7,0.1-2.6,0.1c0,0.4,0.1,1.1,0.1,2c0,0.9,0.1,1.9,0.1,3c0.1,1.1,0.1,2.3,0.2,3.4
		c0.1,1.2,0.2,2.3,0.2,3.3c0.1,1,0.2,2,0.3,2.7c0.1,0.8,0.2,1.3,0.3,1.6c0.2,0.4,0.5,0.7,0.8,0.9c0.3,0.1,0.7,0.2,1.2,0.2
		c0.8,0,1.6-0.2,2.5-0.5c0.9-0.3,1.7-0.7,2.5-1.2c0.8-0.5,1.6-1,2.4-1.6c0.8-0.6,1.4-1.1,2-1.7c0.2-0.2,0.5-0.4,0.7-0.6
		c0.2-0.2,0.5-0.3,0.8-0.3s0.6,0.1,0.9,0.3c0.3,0.2,0.6,0.4,0.8,0.7c0.2,0.3,0.4,0.6,0.6,0.9C804,364,804,364.3,804,364.6z"/>
	<path d="M824.9,361.4c0,1.6-0.3,3-0.8,4.4s-1.2,2.6-2.2,3.7c-0.9,1-2.1,1.9-3.4,2.5s-2.8,0.9-4.4,0.9c-1.4,0-2.8-0.2-4-0.7
		c-1.2-0.5-2.3-1.1-3.2-1.9s-1.6-1.8-2.1-3c-0.5-1.2-0.7-2.5-0.7-4c0-0.3,0-0.7,0-1.1c0-0.4,0.1-0.9,0.2-1.3c0.1-0.4,0.3-0.8,0.5-1
		c0.2-0.3,0.5-0.4,1-0.4c0.3,0,0.7,0.1,1.1,0.2c0.4,0.1,0.8,0.3,1.2,0.6c0.4,0.2,0.7,0.5,0.9,0.8c0.2,0.3,0.4,0.7,0.4,1.1v1.8
		c0,1.5,0.4,2.7,1.2,3.6c0.8,0.9,1.9,1.4,3.4,1.4c1.1,0,2-0.2,2.7-0.7c0.8-0.5,1.4-1.1,1.9-1.9c0.5-0.8,0.8-1.6,1-2.6
		c0.2-0.9,0.3-1.9,0.3-2.8c0-1.8-0.4-3.5-1.1-5.2c-0.7-1.7-1.6-3.3-2.7-4.9c-1.1-1.6-2.3-3.2-3.6-4.7c-1.3-1.5-2.5-3.1-3.6-4.6
		c-1.1-1.5-2-3-2.7-4.6c-0.7-1.5-1.1-3.1-1.1-4.7c0-1.3,0.3-2.4,0.8-3.3c0.5-0.9,1.2-1.7,2.1-2.3c0.9-0.6,1.8-1,2.9-1.3
		c1.1-0.3,2.2-0.4,3.4-0.4c1.4,0,2.7,0.2,3.8,0.6c1.1,0.4,2.1,1,2.9,1.7c0.8,0.8,1.4,1.7,1.8,2.8c0.4,1.1,0.6,2.4,0.6,3.8
		c0,0.2,0,0.5,0,0.8c0,0.3-0.1,0.6-0.2,0.9c-0.1,0.3-0.2,0.6-0.4,0.8c-0.2,0.2-0.4,0.3-0.7,0.3c-0.4,0-0.8-0.1-1.3-0.3
		c-0.4-0.2-0.7-0.4-0.9-0.6c-0.2-0.2-0.4-0.4-0.5-0.6c-0.1-0.2-0.2-0.5-0.3-0.7c-0.1-0.3-0.1-0.6-0.2-1c-0.1-0.8-0.2-1.4-0.4-2.1
		c-0.2-0.6-0.4-1.1-0.8-1.6c-0.3-0.4-0.8-0.8-1.3-1c-0.6-0.2-1.3-0.3-2.1-0.3c-0.6,0-1.2,0.1-1.8,0.2c-0.6,0.1-1,0.3-1.5,0.6
		c-0.4,0.3-0.7,0.7-1,1.2c-0.2,0.5-0.4,1.1-0.4,1.8c0,1,0.2,2,0.7,3c0.4,1,1,2.1,1.7,3.1c0.7,1.1,1.5,2.1,2.4,3.3
		c0.9,1.1,1.8,2.3,2.8,3.4c1,1.2,1.9,2.4,2.8,3.7c0.9,1.3,1.7,2.6,2.4,3.9c0.7,1.4,1.3,2.8,1.7,4.2
		C824.7,358.4,824.9,359.9,824.9,361.4z"/>
	<path d="M859.3,359c0,2.5-0.4,4.6-1.2,6.5c-0.8,1.8-1.9,3.4-3.3,4.6c-1.4,1.2-3.1,2.1-5.1,2.7c-2,0.6-4.1,0.9-6.4,0.9h-1.1
		c-0.2,0-0.5,0-1,0c-0.4,0-0.9-0.1-1.3-0.1c-0.4-0.1-0.8-0.2-1.1-0.4c-0.3-0.2-0.5-0.4-0.5-0.7c0-0.3,0.1-0.7,0.2-1
		c0.2-0.3,0.4-0.6,0.6-0.9c0.3-0.3,0.5-0.5,0.9-0.7s0.6-0.3,1-0.4c-0.2-0.2-0.3-0.5-0.4-0.9c-0.1-0.4-0.2-0.7-0.2-1.1
		c-0.1-0.4-0.1-0.8-0.1-1.2c0-0.4-0.1-0.7-0.1-1c-0.4-3.3-0.7-6.5-1-9.8c-0.3-3.3-0.4-6.5-0.4-9.9c0-2.1,0-4.2,0.1-6.3
		c0.1-2.1,0.1-4.2,0.2-6.3c0-0.9,0.1-1.7,0-2.6c0-0.8,0-1.7,0.1-2.6c-0.1,0-0.3,0.1-0.4,0.1c-0.1,0-0.3,0-0.5,0
		c-0.3,0-0.6-0.1-0.9-0.2c-0.3-0.1-0.5-0.4-0.5-0.8c0-0.5,0.1-1,0.3-1.3c0.2-0.3,0.5-0.6,0.9-0.8c0.4-0.2,0.8-0.3,1.2-0.3
		c0.5-0.1,0.9-0.1,1.3-0.1c2,0,4,0.3,5.9,0.8s3.6,1.3,5,2.3c1.5,1.1,2.6,2.4,3.5,4s1.3,3.6,1.3,5.9c0,1.9-0.3,3.6-1,5.3
		c-0.7,1.7-1.7,3.2-3,4.5c1.2,0.5,2.2,1.2,3.1,2c0.9,0.8,1.6,1.7,2.1,2.7c0.5,1,1,2.1,1.2,3.3C859.2,356.6,859.3,357.8,859.3,359z
		 M851.7,337.1c0-1.3-0.2-2.4-0.6-3.4c-0.4-1-1-1.8-1.7-2.6c-0.7-0.7-1.6-1.3-2.6-1.8c-1-0.5-2.1-0.8-3.3-1c0,0.1,0.1,0.2,0.1,0.3
		c0,0.1,0,0.2,0,0.2c0,2,0,4-0.1,6c0,2-0.1,3.9-0.1,5.9v3.3c0,0.4,0,0.9,0,1.3c0,0.4,0,0.9,0,1.3c0.5-0.2,1.1-0.4,1.7-0.4
		c0.6,0,1.1,0,1.7,0c1.6-1,2.8-2.3,3.6-3.9C851.3,340.7,851.7,339,851.7,337.1z M854.5,359c0-1-0.1-2-0.3-3c-0.2-1-0.5-1.8-0.9-2.6
		c-0.4-0.8-1-1.5-1.7-2c-0.7-0.6-1.6-1-2.7-1.3c-1.6,0.9-3.3,1.5-5.1,1.8c0.2,2.4,0.4,4.8,0.6,7.2c0.2,2.4,0.6,4.8,1,7.1
		c0.1,0.6,0.2,1.1,0.4,1.6c0.1,0.5,0.2,1.1,0.3,1.7c1.4-0.2,2.7-0.6,3.7-1.2c1.1-0.6,2-1.4,2.7-2.3c0.7-0.9,1.2-2,1.6-3.2
		C854.4,361.6,854.5,360.3,854.5,359z"/>
	<path d="M884.8,354c0,0.4-0.2,0.9-0.5,1.4c-0.3,0.5-0.7,0.8-1,1.1c-0.1,0.1-0.3,0.1-0.5,0.2s-0.5,0.1-0.8,0.2
		c-0.3,0.1-0.6,0.1-0.8,0.2c-0.3,0.1-0.5,0.1-0.6,0.1l0.8,4.7c0.2,1.5,0.4,2.9,0.5,4.4c0.1,1.5,0.4,2.9,0.8,4.4
		c0,0.1,0.1,0.2,0.1,0.3c0,0.1,0.1,0.2,0.1,0.4c0,0.3-0.1,0.5-0.2,0.6c-0.2,0.1-0.3,0.3-0.6,0.3c-0.2,0.1-0.5,0.1-0.7,0.1
		c-0.3,0-0.5,0-0.7,0h-0.4c-0.7,0-1.2-0.1-1.5-0.2c-0.3-0.1-0.6-0.3-0.8-0.5s-0.3-0.6-0.4-1s-0.1-0.9-0.2-1.4
		c-0.5-3.9-1.1-7.7-1.7-11.6c-1.3,0.2-2.6,0.3-4,0.5c-1.3,0.1-2.7,0.3-4,0.4l-1,6.2c0,0.4-0.1,0.9-0.2,1.6c-0.1,0.7-0.2,1.3-0.3,2
		c-0.1,0.7-0.2,1.3-0.3,1.9c-0.1,0.6-0.2,1-0.4,1.3c-0.1,0.3-0.2,0.4-0.3,0.5c-0.1,0.1-0.3,0.2-0.6,0.2c-0.4,0-0.8-0.1-1.1-0.2
		c-0.4-0.1-0.7-0.3-1-0.6c-0.3-0.2-0.5-0.5-0.7-0.9c-0.2-0.3-0.3-0.7-0.3-1.1c0-0.4,0-0.8,0.1-1.3c0.1-0.4,0.2-0.8,0.2-1.3
		c0.2-1.4,0.4-2.8,0.6-4.2c0.2-1.4,0.4-2.8,0.6-4.1c-0.1,0-0.3-0.1-0.5-0.1c-0.2-0.1-0.4-0.1-0.6-0.2c-0.2-0.1-0.3-0.2-0.5-0.3
		s-0.2-0.3-0.2-0.4c0-0.2,0.1-0.4,0.2-0.6c0.2-0.2,0.3-0.3,0.6-0.5c0.2-0.2,0.4-0.3,0.7-0.4c0.2-0.1,0.4-0.2,0.6-0.3
		c0.4-3,0.9-5.9,1.3-8.9c0.4-2.9,0.8-5.9,1.1-8.9c0.1-0.8,0.2-1.6,0.2-2.4c0.1-0.8,0.1-1.7,0.2-2.5c0.1-0.8,0.2-1.6,0.3-2.4
		c0.1-0.8,0.3-1.6,0.5-2.4c0.2-0.8,0.5-1.4,1-1.8c0.4-0.5,1.1-0.7,2-0.7c0.3,0,0.5,0,0.7,0.1c0.2,0,0.5,0.1,0.7,0.3
		c0.5,0.3,1.1,1,1.7,2.3c0.6,1.2,1.2,2.7,1.8,4.5c0.6,1.7,1.2,3.6,1.7,5.7c0.5,2,1,4,1.5,5.9s0.8,3.6,1.1,5.2
		c0.3,1.5,0.5,2.7,0.7,3.4c0.4-0.1,0.9-0.1,1.3-0.2c0.4-0.1,0.9-0.1,1.3-0.1c0.2,0,0.5,0,0.7,0c0.3,0,0.5,0.1,0.8,0.2
		c0.2,0.1,0.4,0.2,0.6,0.4C884.7,353.5,884.8,353.7,884.8,354z M874.9,353.8c-0.6-3-1.1-6-1.8-8.9c-0.6-3-1.4-5.9-2.3-8.8
		c-0.4,3.2-0.8,6.4-1.2,9.5c-0.4,3.2-0.9,6.3-1.4,9.5c1.1-0.2,2.3-0.4,3.4-0.6C872.6,354.2,873.7,354,874.9,353.8z"/>
	<path d="M911.9,328.2c0,0.8-0.2,1.5-0.6,1.9c-0.4,0.4-0.8,0.7-1.4,0.9c-0.6,0.2-1.2,0.3-1.9,0.3c-0.7,0-1.3,0.1-1.9,0.2l-1.7,0.2
		c0.5,3.7,0.8,7.5,0.9,11.2c0.1,3.7,0.2,7.5,0.2,11.3c0,1.2,0,2.4-0.1,3.8c-0.1,1.3-0.2,2.6-0.4,3.9c-0.2,1.3-0.6,2.5-1,3.7
		c-0.4,1.2-1,2.2-1.8,3.1c-0.8,0.9-1.7,1.6-2.8,2.2c-1.1,0.5-2.5,0.8-4,0.8c-1.8,0-3.4-0.4-4.8-1.2c-1.4-0.8-2.6-1.8-3.6-3
		c-1-1.2-1.7-2.7-2.2-4.3s-0.8-3.2-0.8-4.9c0-0.3,0-0.9,0-1.7c0-0.8,0.1-1.5,0.3-2.3c0.1-0.8,0.3-1.5,0.6-2.1
		c0.3-0.6,0.7-0.9,1.2-0.9c0.3,0,0.6,0.1,1,0.2c0.4,0.1,0.8,0.3,1.2,0.6c0.4,0.2,0.7,0.5,1,0.8s0.4,0.6,0.4,1c0,0.8-0.1,1.6-0.3,2.3
		s-0.3,1.5-0.3,2.3c0,0.9,0.1,1.8,0.4,2.9c0.3,1.1,0.6,2.1,1.1,3s1.1,1.7,1.9,2.4c0.8,0.6,1.7,1,2.7,1c0.8,0,1.4-0.1,2-0.4
		c0.5-0.3,1-0.7,1.4-1.1c0.4-0.5,0.7-1,0.9-1.6c0.2-0.6,0.4-1.2,0.6-1.9c0.5-2.1,0.8-4.3,0.8-6.5c0.1-2.2,0.1-4.4,0.1-6.6
		c0-2.9-0.1-5.8-0.2-8.7c-0.1-2.9-0.4-5.8-0.7-8.7c-1.4,0.2-2.9,0.3-4.3,0.5c-1.4,0.2-2.8,0.3-4.3,0.3c-0.4,0-0.6-0.1-0.8-0.2
		c-0.2-0.1-0.3-0.4-0.3-0.8c0-0.7,0.2-1.3,0.7-1.7c0.4-0.4,1-0.7,1.7-0.8c1.1-0.3,2.3-0.5,3.4-0.7c1.2-0.1,2.3-0.3,3.5-0.5v-0.5
		c0-0.4,0.1-0.6,0.4-0.7c0.3-0.1,0.5-0.1,0.8-0.1c0.4,0,0.9,0.1,1.3,0.2c0.4,0.1,0.8,0.3,1.2,0.6c1.2-0.2,2.4-0.4,3.5-0.7
		c1.2-0.3,2.4-0.4,3.6-0.4c0.4,0,0.8,0.1,1.1,0.4C911.8,327.4,911.9,327.7,911.9,328.2z"/>
	<path d="M934,347.1c0,0.9,0,1.9,0,3.1c0,1.2-0.1,2.4-0.2,3.8s-0.3,2.7-0.5,4.1c-0.2,1.4-0.5,2.8-0.9,4.1c-0.4,1.3-0.8,2.6-1.3,3.8
		c-0.5,1.2-1.2,2.2-1.9,3.1c-0.7,0.9-1.6,1.6-2.6,2.1c-1,0.5-2.1,0.8-3.3,0.8c-1.2,0-2.4-0.3-3.4-0.9c-1-0.6-1.9-1.3-2.6-2.3
		c-0.6-0.8-1.1-1.7-1.5-2.8c-0.4-1.1-0.8-2.3-1.1-3.6c-0.3-1.3-0.6-2.7-0.8-4.1c-0.2-1.4-0.4-2.8-0.6-4.2c-0.1-1.4-0.2-2.7-0.3-3.9
		c-0.1-1.2-0.1-2.3-0.1-3.3c0-1.6,0.1-3.2,0.2-4.9c0.1-1.7,0.4-3.4,0.8-5.1c0.4-1.7,0.9-3.3,1.6-4.9c0.7-1.6,1.5-3,2.5-4.2
		c0.1-0.1,0.2-0.3,0.4-0.4c0.2-0.2,0.3-0.3,0.5-0.5c0.2-0.2,0.4-0.3,0.6-0.4s0.4-0.2,0.6-0.2s0.4,0.1,0.6,0.2
		c0.2,0.1,0.3,0.2,0.5,0.4c0.4-0.3,0.9-0.4,1.4-0.5c0.5-0.1,1-0.2,1.5-0.2c1.5,0,2.9,0.4,4,1.1c1.1,0.7,2,1.7,2.8,2.9
		c0.7,1.2,1.3,2.5,1.8,4c0.4,1.5,0.8,3,1,4.6c0.2,1.6,0.4,3.1,0.4,4.5S934,346,934,347.1z M929,348.5c0-0.5,0-1.4,0-2.5
		c0-1.1-0.1-2.4-0.2-3.7c-0.1-1.4-0.3-2.8-0.5-4.2c-0.2-1.4-0.5-2.7-0.9-3.9c-0.4-1.2-0.9-2.1-1.4-2.9s-1.2-1.1-2-1.1
		c-0.3,0-0.6,0.1-0.9,0.4c-0.3,0.3-0.5,0.7-0.7,1.1c-0.2,0.5-0.4,1-0.6,1.5c-0.2,0.6-0.4,1.1-0.6,1.6s-0.4,1-0.5,1.4
		c-0.2,0.4-0.3,0.7-0.5,0.9c-0.1,0.1-0.2,0.1-0.3,0.1c-0.1,0-0.3,0-0.4,0c-0.4,0-0.7-0.1-1-0.2c-0.4,1.4-0.6,2.9-0.7,4.3
		c-0.1,1.4-0.2,2.9-0.2,4.3c0,0.4,0,1.1,0.1,2c0,0.9,0.1,1.9,0.2,3c0.1,1.1,0.2,2.4,0.3,3.7c0.1,1.3,0.3,2.6,0.5,3.9
		c0.2,1.3,0.5,2.5,0.7,3.7c0.3,1.2,0.6,2.3,1,3.2c0.4,0.9,0.8,1.7,1.3,2.2c0.5,0.6,1,0.8,1.6,0.8c0.3,0,0.6-0.1,0.9-0.3
		s0.5-0.4,0.7-0.6c0.6-0.6,1.2-1.3,1.7-2.3c0.5-0.9,0.9-2,1.2-3.1c0.3-1.1,0.6-2.3,0.8-3.5c0.2-1.2,0.4-2.5,0.5-3.7
		c0.1-1.2,0.2-2.4,0.2-3.4C929,350.3,929,349.3,929,348.5z"/>
	<path d="M957.5,361.4c0,1.6-0.3,3-0.8,4.4s-1.2,2.6-2.2,3.7c-0.9,1-2.1,1.9-3.4,2.5s-2.8,0.9-4.4,0.9c-1.4,0-2.8-0.2-4-0.7
		c-1.2-0.5-2.3-1.1-3.2-1.9s-1.6-1.8-2.1-3c-0.5-1.2-0.7-2.5-0.7-4c0-0.3,0-0.7,0-1.1c0-0.4,0.1-0.9,0.2-1.3c0.1-0.4,0.3-0.8,0.5-1
		c0.2-0.3,0.5-0.4,1-0.4c0.3,0,0.7,0.1,1.1,0.2c0.4,0.1,0.8,0.3,1.2,0.6c0.4,0.2,0.7,0.5,0.9,0.8c0.2,0.3,0.4,0.7,0.4,1.1v1.8
		c0,1.5,0.4,2.7,1.2,3.6c0.8,0.9,1.9,1.4,3.4,1.4c1.1,0,2-0.2,2.7-0.7c0.8-0.5,1.4-1.1,1.9-1.9c0.5-0.8,0.8-1.6,1-2.6
		c0.2-0.9,0.3-1.9,0.3-2.8c0-1.8-0.4-3.5-1.1-5.2c-0.7-1.7-1.6-3.3-2.7-4.9c-1.1-1.6-2.3-3.2-3.6-4.7c-1.3-1.5-2.5-3.1-3.6-4.6
		c-1.1-1.5-2-3-2.7-4.6c-0.7-1.5-1.1-3.1-1.1-4.7c0-1.3,0.3-2.4,0.8-3.3c0.5-0.9,1.2-1.7,2.1-2.3c0.9-0.6,1.8-1,2.9-1.3
		c1.1-0.3,2.2-0.4,3.4-0.4c1.4,0,2.7,0.2,3.8,0.6c1.1,0.4,2.1,1,2.9,1.7c0.8,0.8,1.4,1.7,1.8,2.8c0.4,1.1,0.6,2.4,0.6,3.8
		c0,0.2,0,0.5,0,0.8c0,0.3-0.1,0.6-0.2,0.9c-0.1,0.3-0.2,0.6-0.4,0.8c-0.2,0.2-0.4,0.3-0.7,0.3c-0.4,0-0.8-0.1-1.3-0.3
		c-0.4-0.2-0.7-0.4-0.9-0.6c-0.2-0.2-0.4-0.4-0.5-0.6c-0.1-0.2-0.2-0.5-0.3-0.7c-0.1-0.3-0.1-0.6-0.2-1c-0.1-0.8-0.2-1.4-0.4-2.1
		c-0.2-0.6-0.4-1.1-0.8-1.6c-0.3-0.4-0.8-0.8-1.3-1c-0.6-0.2-1.3-0.3-2.1-0.3c-0.6,0-1.2,0.1-1.8,0.2c-0.6,0.1-1,0.3-1.5,0.6
		c-0.4,0.3-0.7,0.7-1,1.2c-0.2,0.5-0.4,1.1-0.4,1.8c0,1,0.2,2,0.7,3c0.4,1,1,2.1,1.7,3.1c0.7,1.1,1.5,2.1,2.4,3.3
		c0.9,1.1,1.8,2.3,2.8,3.4c1,1.2,1.9,2.4,2.8,3.7c0.9,1.3,1.7,2.6,2.4,3.9c0.7,1.4,1.3,2.8,1.7,4.2
		C957.3,358.4,957.5,359.9,957.5,361.4z"/>
</g>
<g>
	<path d="M1185.3,328.3c0,0.6-0.2,1.1-0.5,1.5c-0.3,0.4-0.8,0.6-1.3,0.8c-0.5,0.2-1,0.3-1.6,0.3c-0.6,0-1.1,0.1-1.6,0.1
		c-0.9,0-1.9,0-2.8,0c-0.9,0-1.9,0-2.8,0c-0.4,0-0.9,0-1.3,0c-0.4,0-0.9,0-1.3,0.1c-0.2,0.4-0.3,0.7-0.3,1.1c0,0.4-0.1,0.7-0.1,1.1
		c0,2,0.1,4,0.2,5.9c0.1,1.9,0.3,3.9,0.5,5.9c1.3-0.1,2.5-0.2,3.8-0.4c1.3-0.1,2.6-0.3,3.9-0.5c0.2,0,0.3,0,0.5,0c0.1,0,0.3,0,0.5,0
		c0.8,0,1.3,0.5,1.3,1.4c0,0.3,0,0.5-0.1,0.8s-0.1,0.5-0.2,0.8c-0.1,0.4-0.4,0.7-0.7,0.9s-0.7,0.3-1.1,0.4c-0.4,0.1-0.9,0.1-1.3,0.1
		s-0.9,0-1.2,0l-5,0.2c0.1,2,0.3,4,0.4,6s0.3,4,0.5,6c0.2,1.5,0.3,3.1,0.4,4.6c0.1,1.5,0.3,3.1,0.5,4.6v0.5c0,0.5-0.1,0.8-0.4,1
		c-0.3,0.2-0.6,0.2-1,0.2c-0.8,0-1.5-0.1-2.2-0.4c-0.5-0.2-0.8-0.4-1-0.6c-0.2-0.2-0.4-0.5-0.5-0.8c-0.1-0.3-0.2-0.6-0.2-1
		c0-0.4,0-0.8-0.1-1.2c-0.2-3.2-0.4-6.4-0.6-9.5s-0.4-6.4-0.6-9.6c-0.1-2.4-0.3-4.7-0.4-7c-0.1-2.3-0.2-4.7-0.2-7
		c0-1.2,0.1-2.3,0.2-3.2c0.2-0.9,0.5-1.6,0.9-2.1c0.4-0.5,1.1-1,1.9-1.2c0.8-0.3,1.9-0.4,3.2-0.4c1.4,0,2.7,0,4.1,0
		c1.4,0,2.7,0,4.1,0c0.5,0,1,0,1.4,0c0.4,0,0.9,0,1.3,0.1c0.3,0,0.5,0.1,0.7,0.2C1185.3,327.8,1185.3,328,1185.3,328.3z"/>
	<path d="M1212,371.3c0,0.3-0.1,0.5-0.4,0.6c-0.3,0.2-0.6,0.3-0.9,0.4c-0.3,0.1-0.7,0.2-1,0.2c-0.3,0-0.6,0.1-0.8,0.1
		c-0.4,0-0.8,0-1-0.1s-0.6-0.2-0.9-0.4c-0.1-0.1-0.4-0.3-0.7-0.8c-0.4-0.5-0.9-1.1-1.5-1.9s-1.2-1.6-2-2.6c-0.7-1-1.5-2-2.3-3
		s-1.5-2.1-2.3-3.1c-0.8-1-1.4-2-2.1-2.8c-0.6-0.9-1.2-1.6-1.6-2.3c-0.5-0.6-0.8-1.1-1-1.3l-0.2,0.1c0.1,2.5,0.3,5,0.5,7.5
		c0.2,2.5,0.5,5,1,7.4c0.1,0.3,0.1,0.5,0.2,0.8c0.1,0.3,0.1,0.6,0.1,0.9c0,0.5-0.2,0.8-0.5,0.9c-0.3,0.1-0.7,0.2-1,0.2
		c-0.2,0-0.5,0-0.8,0c-0.3,0-0.6-0.1-0.9-0.1c-0.3-0.1-0.6-0.1-0.9-0.2c-0.3-0.1-0.5-0.2-0.6-0.4c-0.3-0.3-0.5-0.5-0.6-0.8
		c-0.1-0.3-0.1-0.6-0.2-1c-0.6-4.3-1-8.5-1.2-12.8c-0.2-4.3-0.2-8.6-0.2-12.8c0-1.9,0-3.7,0-5.5c0-1.8,0.1-3.6,0.1-5.5
		c-0.3,0-0.5-0.1-0.7-0.3c-0.2-0.1-0.4-0.3-0.6-0.6c-0.2-0.2-0.3-0.5-0.4-0.7c-0.1-0.2-0.1-0.5-0.1-0.7c0-0.2,0.1-0.5,0.2-0.7
		c0.1-0.2,0.3-0.4,0.4-0.6s0.4-0.4,0.6-0.5c0.2-0.2,0.4-0.3,0.6-0.4V328c0-0.2,0-0.5,0-0.7c0-0.3,0.1-0.5,0.1-0.8
		c0.1-0.2,0.2-0.4,0.4-0.6c0.2-0.2,0.4-0.2,0.8-0.2c0.4,0,0.9,0.1,1.3,0.2c0.4,0.1,0.8,0.4,1.1,0.8c1.6-0.6,3.3-1,5-1
		c1.5,0,3,0.3,4.2,0.9c1.3,0.6,2.4,1.4,3.3,2.5c0.9,1,1.6,2.2,2.1,3.6c0.5,1.4,0.7,2.8,0.7,4.3c0,1.6-0.3,3.1-0.9,4.6
		c-0.6,1.5-1.4,2.9-2.3,4.2c-1,1.3-2,2.6-3.3,3.7c-1.2,1.1-2.4,2.1-3.7,2.9c2,2.6,4,5.3,6,7.9s4.1,5.2,6.3,7.8
		c0.1,0.1,0.3,0.4,0.6,0.7c0.3,0.3,0.5,0.6,0.8,1c0.3,0.3,0.5,0.7,0.7,1C1211.9,370.9,1212,371.2,1212,371.3z M1202.7,336.4
		c0-0.8-0.1-1.6-0.4-2.4c-0.3-0.8-0.7-1.6-1.2-2.3c-0.5-0.7-1.1-1.3-1.8-1.7c-0.7-0.4-1.5-0.7-2.4-0.7c-0.7,0-1.4,0.1-2.1,0.3
		s-1.3,0.5-2,0.8c0,3.2,0.1,6.3,0.1,9.5c0,3.2,0.1,6.3,0.1,9.5l0.6,0.1c1.1-0.6,2.2-1.4,3.3-2.3c1.1-0.9,2-2,2.9-3.1
		c0.9-1.1,1.5-2.4,2.1-3.6C1202.4,339,1202.7,337.7,1202.7,336.4z"/>
	<path d="M1234.4,354c0,0.4-0.2,0.9-0.5,1.4c-0.3,0.5-0.7,0.8-1,1.1c-0.1,0.1-0.3,0.1-0.5,0.2s-0.5,0.1-0.8,0.2s-0.6,0.1-0.8,0.2
		c-0.3,0.1-0.5,0.1-0.6,0.1l0.8,4.7c0.2,1.5,0.4,2.9,0.5,4.4c0.1,1.5,0.4,2.9,0.8,4.4c0,0.1,0.1,0.2,0.1,0.3c0,0.1,0.1,0.2,0.1,0.4
		c0,0.3-0.1,0.5-0.2,0.6c-0.2,0.1-0.3,0.3-0.6,0.3c-0.2,0.1-0.5,0.1-0.7,0.1c-0.3,0-0.5,0-0.7,0h-0.4c-0.7,0-1.2-0.1-1.5-0.2
		c-0.3-0.1-0.6-0.3-0.8-0.5s-0.3-0.6-0.4-1s-0.1-0.9-0.2-1.4c-0.5-3.9-1.1-7.7-1.7-11.6c-1.3,0.2-2.6,0.3-4,0.5
		c-1.3,0.1-2.7,0.3-4,0.4l-1,6.2c0,0.4-0.1,0.9-0.2,1.6c-0.1,0.7-0.2,1.3-0.3,2c-0.1,0.7-0.2,1.3-0.3,1.9c-0.1,0.6-0.2,1-0.4,1.3
		c-0.1,0.3-0.2,0.4-0.3,0.5c-0.1,0.1-0.3,0.2-0.6,0.2c-0.4,0-0.8-0.1-1.1-0.2c-0.4-0.1-0.7-0.3-1-0.6c-0.3-0.2-0.5-0.5-0.7-0.9
		c-0.2-0.3-0.3-0.7-0.3-1.1c0-0.4,0-0.8,0.1-1.3c0.1-0.4,0.2-0.8,0.2-1.3c0.2-1.4,0.4-2.8,0.6-4.2c0.2-1.4,0.4-2.8,0.6-4.1
		c-0.1,0-0.3-0.1-0.5-0.1c-0.2-0.1-0.4-0.1-0.6-0.2c-0.2-0.1-0.3-0.2-0.5-0.3s-0.2-0.3-0.2-0.4c0-0.2,0.1-0.4,0.2-0.6
		c0.2-0.2,0.3-0.3,0.6-0.5c0.2-0.2,0.4-0.3,0.7-0.4c0.2-0.1,0.4-0.2,0.6-0.3c0.4-3,0.9-5.9,1.3-8.9c0.4-2.9,0.8-5.9,1.1-8.9
		c0.1-0.8,0.2-1.6,0.2-2.4c0.1-0.8,0.1-1.7,0.2-2.5c0.1-0.8,0.2-1.6,0.3-2.4c0.1-0.8,0.3-1.6,0.5-2.4c0.2-0.8,0.5-1.4,1-1.8
		c0.4-0.5,1.1-0.7,2-0.7c0.3,0,0.5,0,0.7,0.1c0.2,0,0.5,0.1,0.7,0.3c0.6,0.3,1.1,1,1.7,2.3c0.6,1.2,1.2,2.7,1.8,4.5
		c0.6,1.7,1.2,3.6,1.7,5.7s1,4,1.5,5.9c0.4,1.9,0.8,3.6,1.1,5.2c0.3,1.5,0.5,2.7,0.7,3.4c0.4-0.1,0.9-0.1,1.3-0.2
		c0.4-0.1,0.9-0.1,1.3-0.1c0.2,0,0.5,0,0.7,0c0.3,0,0.5,0.1,0.8,0.2c0.2,0.1,0.4,0.2,0.6,0.4S1234.4,353.7,1234.4,354z
		 M1224.5,353.8c-0.5-3-1.1-6-1.8-8.9c-0.6-3-1.4-5.9-2.3-8.8c-0.4,3.2-0.8,6.4-1.2,9.5c-0.4,3.2-0.9,6.3-1.4,9.5
		c1.1-0.2,2.3-0.4,3.4-0.6C1222.2,354.2,1223.3,354,1224.5,353.8z"/>
	<path d="M1255.6,368.9c0,0.4,0,0.8-0.1,1.1s-0.2,0.7-0.4,1c-0.2,0.3-0.4,0.5-0.7,0.7c-0.3,0.2-0.7,0.3-1.1,0.3
		c-0.6,0-1-0.1-1.4-0.4c-0.3-0.2-0.7-0.6-1-1c-0.4-0.6-0.8-1.2-1.1-2c-0.3-0.8-0.6-1.5-0.9-2.3c-0.3-0.8-0.5-1.6-0.7-2.4
		c-0.2-0.8-0.4-1.5-0.7-2.2c-1.1-3.6-2.2-7.1-3.2-10.6c-1-3.5-2-7.1-3.2-10.6c-0.1,4.6-0.2,9.2-0.2,13.7c-0.1,4.5-0.1,9.1-0.1,13.7
		c0,0.2,0,0.5,0,0.8c0,0.3-0.1,0.6-0.2,0.8c-0.1,0.3-0.2,0.5-0.4,0.7c-0.2,0.2-0.4,0.3-0.7,0.3c-1.1,0-1.9-0.3-2.5-0.9
		c-0.6-0.6-0.8-1.4-0.8-2.5c0-5.9,0-11.8,0-17.7s0-11.7,0-17.6v-4.5c0-0.5,0.1-0.9,0.3-1.2s0.6-0.5,1.2-0.5c0.4,0,0.9,0.1,1.3,0.2
		s0.8,0.3,1.2,0.5c0.3,0.2,0.6,0.5,0.9,0.9c0.2,0.4,0.3,0.8,0.3,1.3c0.9,1.7,1.6,3.4,2.2,5.2c0.6,1.8,1.2,3.6,1.8,5.4
		c0.8,2.6,1.6,5.3,2.4,7.9c0.8,2.6,1.6,5.3,2.4,8c-0.1-4-0.3-8-0.4-12c-0.1-4-0.4-8-0.8-11.9c-0.1-0.9-0.2-1.7-0.4-2.5
		c-0.1-0.8-0.2-1.7-0.2-2.5c0-0.4,0.1-0.7,0.4-0.9c0.3-0.2,0.6-0.2,1-0.2c0.7,0,1.2,0.1,1.7,0.2c0.5,0.1,0.9,0.3,1.2,0.5
		c0.3,0.3,0.6,0.6,0.7,1c0.2,0.4,0.3,1,0.4,1.6c0.1,1.1,0.2,2.3,0.3,3.4c0.1,1.2,0.1,2.3,0.2,3.4c0.2,2.8,0.3,5.6,0.4,8.4
		c0.1,2.8,0.2,5.6,0.2,8.4c0.1,2.8,0.1,5.6,0.2,8.4C1255.6,363.2,1255.6,366,1255.6,368.9z"/>
	<path d="M1284.5,362.1c0,0.3,0,0.6-0.1,0.9c-0.1,0.3-0.2,0.6-0.3,0.9c-0.5,1.2-1,2.3-1.7,3.3c-0.7,1-1.5,1.9-2.3,2.7
		c-0.9,0.7-1.9,1.3-3,1.7s-2.4,0.6-3.7,0.6c-1.8,0-3.3-0.4-4.6-1.1s-2.4-1.8-3.3-3c-0.9-1.2-1.7-2.6-2.2-4.1c-0.6-1.5-1-3-1.4-4.5
		c-0.5-2.2-0.9-4.4-1.2-6.6c-0.3-2.2-0.4-4.4-0.4-6.6c0-1.3,0.1-2.6,0.2-4c0.1-1.4,0.3-2.7,0.6-4.1s0.7-2.6,1.2-3.9
		c0.5-1.3,1.1-2.4,1.9-3.5c0.8-1.1,1.7-2,2.7-2.8c1-0.8,2.3-1.5,3.7-1.9c0.5-0.2,1-0.3,1.6-0.4c0.5-0.1,1.1-0.1,1.7-0.1
		c1.1,0,2.1,0.2,3.1,0.5c1,0.4,1.9,0.9,2.6,1.5c0.8,0.7,1.3,1.4,1.8,2.4c0.4,0.9,0.7,2,0.7,3.1c0,0.4-0.1,0.7-0.3,0.9
		c-0.2,0.2-0.5,0.3-0.9,0.3c-0.8,0-1.4-0.1-1.8-0.4s-0.8-0.6-1.1-1c-0.3-0.4-0.5-0.8-0.7-1.2c-0.2-0.4-0.4-0.9-0.7-1.2s-0.6-0.7-1-1
		c-0.4-0.3-1-0.4-1.7-0.4s-1.4,0.1-2.1,0.4c-0.6,0.3-1.2,0.7-1.8,1.1c-0.5,0.5-1,1-1.5,1.6c-0.4,0.6-0.8,1.2-1.2,1.8
		c-0.9,1.7-1.5,3.4-1.9,5.3c-0.4,1.9-0.5,3.8-0.5,5.6c0,0.6,0,1.5,0.1,2.5s0.1,2.1,0.3,3.3c0.1,1.2,0.3,2.5,0.5,3.8
		c0.2,1.3,0.5,2.7,0.8,4c0.3,1.3,0.7,2.5,1.1,3.7c0.4,1.2,0.9,2.2,1.5,3.1c0.6,0.9,1.2,1.6,1.9,2.1c0.7,0.5,1.5,0.8,2.4,0.8
		c0.9,0,1.7-0.2,2.4-0.7c0.7-0.5,1.3-1.1,1.8-1.8c0.5-0.7,0.9-1.5,1.2-2.4c0.3-0.9,0.6-1.7,0.8-2.4c0.1-0.2,0.1-0.4,0.2-0.6
		c0.1-0.2,0.1-0.3,0.2-0.4c0.1-0.1,0.2-0.2,0.4-0.3c0.1-0.1,0.4-0.1,0.6-0.1c0.3,0,0.7,0.1,1.1,0.2c0.4,0.1,0.8,0.3,1.2,0.5
		c0.4,0.2,0.7,0.5,0.9,0.8C1284.4,361.4,1284.5,361.7,1284.5,362.1z"/>
	<path d="M1305.2,366.9c0,0.6-0.2,1.2-0.5,1.7c-0.3,0.5-0.8,0.9-1.3,1.2c-0.2,0.1-0.6,0.2-1.2,0.2s-1.4,0.1-2.1,0.2
		s-1.5,0.1-2.2,0.2s-1.2,0.1-1.4,0.1c-0.1,0.4-0.2,0.6-0.5,0.7s-0.6,0.2-0.9,0.2c-0.4,0-0.8-0.1-1.2-0.2c-0.5-0.1-0.9-0.2-1.2-0.3
		c-1,0.1-1.9,0.3-2.9,0.4c-1,0.1-2,0.2-3,0.2c-0.8,0-1.1-0.4-1.1-1.1c0-0.7,0.2-1.3,0.6-1.7s0.9-0.7,1.5-0.9
		c0.6-0.2,1.2-0.3,1.8-0.4c0.7-0.1,1.2-0.1,1.7-0.2c-0.1-6-0.2-12-0.3-17.9c-0.1-5.9-0.2-11.9-0.2-17.9c-0.9,0.1-1.7,0.1-2.5,0.2
		s-1.7,0.1-2.5,0.1c-0.2,0-0.3,0-0.5,0c-0.2,0-0.4,0-0.5-0.1c-0.2-0.1-0.3-0.1-0.4-0.3c-0.1-0.1-0.2-0.3-0.2-0.5
		c0-0.4,0.1-0.8,0.3-1.1c0.2-0.3,0.4-0.6,0.7-0.8c0.3-0.2,0.6-0.4,0.9-0.5c0.3-0.1,0.7-0.2,1-0.3c0.9-0.2,1.8-0.3,2.8-0.4
		c0.9-0.1,1.9-0.2,2.8-0.3c0.9-0.1,1.9-0.2,2.8-0.4s1.9-0.3,2.8-0.5c0.9-0.2,1.8-0.4,2.7-0.7c0.9-0.3,1.8-0.5,2.7-0.5
		c0.5,0,0.8,0.2,1,0.6s0.3,0.8,0.3,1.2c0,0.4,0,0.7-0.1,1c-0.1,0.3-0.2,0.6-0.5,0.9c-0.1,0.2-0.4,0.3-0.8,0.5
		c-0.4,0.2-1,0.3-1.6,0.4s-1.2,0.2-1.9,0.4c-0.7,0.1-1.4,0.2-2,0.3c-0.6,0.1-1.2,0.2-1.8,0.2s-0.9,0.1-1.2,0.1
		c0.2,2.9,0.4,5.9,0.5,8.8c0.1,2.9,0.2,5.9,0.2,8.8c0.1,2.9,0.1,5.9,0.2,8.8c0.1,2.9,0.2,5.9,0.3,8.8c1.2-0.2,2.4-0.4,3.7-0.6
		c1.2-0.2,2.5-0.3,3.7-0.3c0.4,0,0.7,0.1,1,0.2C1305,366.2,1305.2,366.5,1305.2,366.9z"/>
	<path d="M1330.1,354c0,0.4-0.2,0.9-0.5,1.4c-0.3,0.5-0.7,0.8-1,1.1c-0.1,0.1-0.3,0.1-0.5,0.2s-0.5,0.1-0.8,0.2s-0.6,0.1-0.8,0.2
		c-0.3,0.1-0.5,0.1-0.6,0.1l0.8,4.7c0.2,1.5,0.4,2.9,0.5,4.4c0.1,1.5,0.4,2.9,0.8,4.4c0,0.1,0.1,0.2,0.1,0.3c0,0.1,0.1,0.2,0.1,0.4
		c0,0.3-0.1,0.5-0.2,0.6c-0.2,0.1-0.3,0.3-0.6,0.3c-0.2,0.1-0.5,0.1-0.7,0.1c-0.3,0-0.5,0-0.7,0h-0.4c-0.7,0-1.2-0.1-1.5-0.2
		c-0.3-0.1-0.6-0.3-0.8-0.5s-0.3-0.6-0.4-1s-0.1-0.9-0.2-1.4c-0.5-3.9-1.1-7.7-1.7-11.6c-1.3,0.2-2.6,0.3-4,0.5
		c-1.3,0.1-2.7,0.3-4,0.4l-1,6.2c0,0.4-0.1,0.9-0.2,1.6c-0.1,0.7-0.2,1.3-0.3,2c-0.1,0.7-0.2,1.3-0.3,1.9c-0.1,0.6-0.2,1-0.4,1.3
		c-0.1,0.3-0.2,0.4-0.3,0.5c-0.1,0.1-0.3,0.2-0.6,0.2c-0.4,0-0.8-0.1-1.1-0.2c-0.4-0.1-0.7-0.3-1-0.6c-0.3-0.2-0.5-0.5-0.7-0.9
		c-0.2-0.3-0.3-0.7-0.3-1.1c0-0.4,0-0.8,0.1-1.3c0.1-0.4,0.2-0.8,0.2-1.3c0.2-1.4,0.4-2.8,0.6-4.2c0.2-1.4,0.4-2.8,0.6-4.1
		c-0.1,0-0.3-0.1-0.5-0.1c-0.2-0.1-0.4-0.1-0.6-0.2c-0.2-0.1-0.3-0.2-0.5-0.3s-0.2-0.3-0.2-0.4c0-0.2,0.1-0.4,0.2-0.6
		c0.2-0.2,0.3-0.3,0.6-0.5c0.2-0.2,0.4-0.3,0.7-0.4c0.2-0.1,0.4-0.2,0.6-0.3c0.4-3,0.9-5.9,1.3-8.9c0.4-2.9,0.8-5.9,1.1-8.9
		c0.1-0.8,0.2-1.6,0.2-2.4c0.1-0.8,0.1-1.7,0.2-2.5c0.1-0.8,0.2-1.6,0.3-2.4c0.1-0.8,0.3-1.6,0.5-2.4c0.2-0.8,0.5-1.4,1-1.8
		c0.4-0.5,1.1-0.7,2-0.7c0.3,0,0.5,0,0.7,0.1c0.2,0,0.5,0.1,0.7,0.3c0.6,0.3,1.1,1,1.7,2.3c0.6,1.2,1.2,2.7,1.8,4.5
		c0.6,1.7,1.2,3.6,1.7,5.7s1,4,1.5,5.9c0.4,1.9,0.8,3.6,1.1,5.2c0.3,1.5,0.5,2.7,0.7,3.4c0.4-0.1,0.9-0.1,1.3-0.2
		c0.4-0.1,0.9-0.1,1.3-0.1c0.2,0,0.5,0,0.7,0c0.3,0,0.5,0.1,0.8,0.2c0.2,0.1,0.4,0.2,0.6,0.4S1330.1,353.7,1330.1,354z
		 M1320.2,353.8c-0.5-3-1.1-6-1.8-8.9c-0.6-3-1.4-5.9-2.3-8.8c-0.4,3.2-0.8,6.4-1.2,9.5c-0.4,3.2-0.9,6.3-1.4,9.5
		c1.1-0.2,2.3-0.4,3.4-0.6C1317.9,354.2,1319.1,354,1320.2,353.8z"/>
</g>
<g>
	<path d="M1490.1,371.5c0,0.3-0.1,0.5-0.4,0.6c-0.3,0.2-0.6,0.3-0.9,0.4c-0.3,0.1-0.7,0.2-1,0.2c-0.3,0-0.6,0.1-0.8,0.1
		c-0.4,0-0.8,0-1-0.1c-0.3-0.1-0.6-0.2-0.9-0.4c-0.1-0.1-0.4-0.3-0.7-0.8c-0.4-0.5-0.9-1.1-1.5-1.9s-1.2-1.6-2-2.6
		c-0.7-1-1.5-2-2.3-3c-0.8-1-1.5-2.1-2.3-3.1c-0.8-1-1.4-2-2.1-2.8c-0.6-0.9-1.2-1.6-1.6-2.3c-0.5-0.6-0.8-1.1-1-1.3l-0.2,0.1
		c0.1,2.5,0.3,5,0.5,7.5c0.2,2.5,0.5,5,1,7.4c0.1,0.3,0.1,0.5,0.2,0.8c0.1,0.3,0.1,0.6,0.1,0.9c0,0.5-0.2,0.8-0.5,0.9
		c-0.3,0.1-0.7,0.2-1,0.2c-0.2,0-0.5,0-0.8,0c-0.3,0-0.6-0.1-0.9-0.1c-0.3-0.1-0.6-0.1-0.9-0.2c-0.3-0.1-0.5-0.2-0.6-0.4
		c-0.3-0.3-0.5-0.5-0.6-0.8c-0.1-0.3-0.1-0.6-0.2-1c-0.6-4.3-1-8.5-1.2-12.8c-0.2-4.3-0.2-8.6-0.2-12.8c0-1.9,0-3.7,0-5.5
		c0-1.8,0.1-3.6,0.1-5.5c-0.3,0-0.5-0.1-0.7-0.3c-0.2-0.1-0.4-0.3-0.6-0.6c-0.2-0.2-0.3-0.5-0.4-0.7c-0.1-0.2-0.1-0.5-0.1-0.7
		c0-0.2,0.1-0.5,0.2-0.7c0.1-0.2,0.3-0.4,0.4-0.6c0.2-0.2,0.4-0.4,0.6-0.5c0.2-0.2,0.4-0.3,0.6-0.4v-0.6c0-0.2,0-0.5,0-0.7
		c0-0.3,0.1-0.5,0.1-0.8c0.1-0.2,0.2-0.4,0.4-0.6c0.2-0.2,0.4-0.2,0.8-0.2c0.4,0,0.9,0.1,1.3,0.2c0.4,0.1,0.8,0.4,1.1,0.8
		c1.6-0.6,3.3-1,5-1c1.5,0,3,0.3,4.2,0.9c1.3,0.6,2.4,1.4,3.3,2.5c0.9,1,1.6,2.2,2.1,3.6c0.5,1.4,0.7,2.8,0.7,4.3
		c0,1.6-0.3,3.1-0.9,4.6c-0.6,1.5-1.4,2.9-2.3,4.2c-1,1.3-2,2.6-3.3,3.7c-1.2,1.1-2.4,2.1-3.7,2.9c2,2.6,4,5.3,6,7.9
		s4.1,5.2,6.3,7.8c0.1,0.1,0.3,0.4,0.6,0.7c0.3,0.3,0.5,0.6,0.8,1c0.3,0.3,0.5,0.7,0.7,1C1490,371.1,1490.1,371.3,1490.1,371.5z
		 M1480.9,336.6c0-0.8-0.1-1.6-0.4-2.4c-0.3-0.8-0.7-1.6-1.2-2.3c-0.5-0.7-1.1-1.3-1.8-1.7c-0.7-0.4-1.5-0.7-2.4-0.7
		c-0.7,0-1.4,0.1-2.1,0.3s-1.3,0.5-2,0.8c0,3.2,0.1,6.3,0.1,9.5c0,3.2,0.1,6.3,0.1,9.5l0.6,0.1c1.1-0.6,2.2-1.4,3.3-2.3
		c1.1-0.9,2-2,2.9-3.1c0.9-1.1,1.5-2.4,2.1-3.6C1480.6,339.2,1480.9,337.9,1480.9,336.6z"/>
	<path d="M1512.1,364.7c0,0.4-0.1,0.7-0.4,1c-0.3,0.3-0.6,0.7-1,1s-0.8,0.6-1.2,0.9s-0.8,0.5-1,0.7c-0.7,0.5-1.4,0.9-2.1,1.3
		c-0.7,0.4-1.4,0.8-2.2,1c-0.8,0.3-1.5,0.5-2.3,0.7c-0.8,0.2-1.6,0.3-2.5,0.3l-0.5,0.1c-0.7,0-1.4-0.1-2.1-0.2
		c-0.7-0.2-1.3-0.4-1.9-0.7c-0.6-0.3-1.1-0.7-1.6-1.3c-0.5-0.5-0.8-1.1-1.1-1.8c-0.2-0.6-0.3-1.2-0.4-2c-0.1-0.8-0.2-1.6-0.2-2.4
		c-0.1-0.8-0.1-1.7-0.1-2.5c0-0.8-0.1-1.5-0.1-2.2c-0.3-6.5-0.6-12.9-0.8-19.4c0-0.7-0.1-1.5-0.1-2.2c0-0.7,0-1.5,0-2.2
		c0-1.3,0.1-2.3,0.2-3.2c0.1-0.9,0.4-1.6,0.9-2.2c0.4-0.6,1.1-1,1.9-1.2c0.8-0.3,1.9-0.4,3.3-0.4c1.4,0,2.8,0,4.1,0
		c1.4,0,2.8,0,4.2,0c0.4,0,0.8,0,1.3,0c0.4,0,0.8,0,1.3,0.1c0.3,0,0.5,0.1,0.7,0.2c0.2,0.1,0.3,0.3,0.3,0.6c0,0.8-0.3,1.3-0.8,1.7
		s-1.1,0.6-1.8,0.7s-1.4,0.2-2.2,0.2c-0.8,0-1.4,0-1.9,0h-4.1c-0.4,0-0.8,0-1.3,0c-0.4,0-0.8,0-1.3,0.1c-0.1,0.3-0.2,0.6-0.3,1
		c0,0.3-0.1,0.7-0.1,1c0,2.3,0.1,4.6,0.2,6.8c0.1,2.2,0.2,4.5,0.3,6.8c1.3-0.1,2.6-0.2,3.9-0.4c1.3-0.1,2.6-0.3,3.9-0.5
		c0.2,0,0.4,0,0.5,0c0.2,0,0.3,0,0.5,0c0.4,0,0.8,0.1,0.9,0.3c0.2,0.2,0.3,0.6,0.3,1c0,0.3,0,0.6,0,0.8c0,0.3-0.1,0.5-0.2,0.8
		c-0.1,0.4-0.4,0.7-0.7,0.9c-0.3,0.2-0.7,0.3-1.1,0.4c-0.4,0.1-0.9,0.1-1.3,0.1c-0.5,0-0.9,0-1.2,0c-0.9,0-1.8,0.1-2.6,0.1
		c-0.9,0-1.7,0.1-2.6,0.1c0,0.4,0.1,1.1,0.1,2c0,0.9,0.1,1.9,0.1,3c0.1,1.1,0.1,2.3,0.2,3.4c0.1,1.2,0.2,2.3,0.2,3.3
		c0.1,1,0.2,2,0.3,2.7c0.1,0.8,0.2,1.3,0.3,1.6c0.2,0.4,0.5,0.7,0.8,0.9s0.7,0.2,1.2,0.2c0.8,0,1.6-0.2,2.5-0.5s1.7-0.7,2.5-1.2
		c0.8-0.5,1.6-1,2.4-1.6c0.8-0.6,1.4-1.1,2-1.7c0.2-0.2,0.5-0.4,0.7-0.6c0.2-0.2,0.5-0.3,0.8-0.3c0.3,0,0.6,0.1,0.9,0.3
		c0.3,0.2,0.6,0.4,0.8,0.7c0.2,0.3,0.4,0.6,0.6,0.9C1512.1,364.1,1512.1,364.4,1512.1,364.7z"/>
	<path d="M1531.9,367.1c0,0.6-0.2,1.2-0.5,1.7c-0.3,0.5-0.8,0.9-1.3,1.2c-0.2,0.1-0.6,0.2-1.2,0.2c-0.7,0.1-1.4,0.1-2.1,0.2
		s-1.5,0.1-2.2,0.2s-1.2,0.1-1.4,0.1c-0.1,0.4-0.2,0.6-0.5,0.7c-0.3,0.1-0.6,0.2-0.9,0.2c-0.4,0-0.8-0.1-1.2-0.2
		c-0.5-0.1-0.9-0.2-1.2-0.3c-1,0.1-1.9,0.3-2.9,0.4c-1,0.1-2,0.2-3,0.2c-0.8,0-1.1-0.4-1.1-1.1c0-0.7,0.2-1.3,0.6-1.7
		c0.4-0.4,0.9-0.7,1.5-0.9c0.6-0.2,1.2-0.3,1.8-0.4c0.7-0.1,1.2-0.1,1.7-0.2c-0.1-6-0.2-12-0.3-17.9c-0.1-5.9-0.2-11.9-0.2-17.9
		c-0.9,0.1-1.7,0.1-2.5,0.2s-1.7,0.1-2.5,0.1c-0.2,0-0.3,0-0.5,0c-0.2,0-0.4,0-0.5-0.1c-0.2-0.1-0.3-0.1-0.4-0.3
		c-0.1-0.1-0.2-0.3-0.2-0.5c0-0.4,0.1-0.8,0.3-1.1c0.2-0.3,0.4-0.6,0.7-0.8c0.3-0.2,0.6-0.4,0.9-0.5c0.3-0.1,0.7-0.2,1-0.3
		c0.9-0.2,1.8-0.3,2.8-0.4c0.9-0.1,1.9-0.2,2.8-0.3s1.9-0.2,2.8-0.4s1.9-0.3,2.8-0.5c0.9-0.2,1.8-0.4,2.7-0.7
		c0.9-0.3,1.8-0.5,2.7-0.5c0.5,0,0.8,0.2,1,0.6c0.2,0.4,0.3,0.8,0.3,1.2c0,0.4,0,0.7-0.1,1c-0.1,0.3-0.2,0.6-0.5,0.9
		c-0.1,0.2-0.4,0.3-0.8,0.5c-0.4,0.2-1,0.3-1.6,0.4c-0.6,0.1-1.3,0.2-1.9,0.4c-0.7,0.1-1.4,0.2-2,0.3c-0.6,0.1-1.2,0.2-1.8,0.2
		c-0.5,0.1-0.9,0.1-1.2,0.1c0.2,2.9,0.4,5.9,0.5,8.8c0.1,2.9,0.2,5.9,0.2,8.8c0.1,2.9,0.1,5.9,0.2,8.8c0.1,2.9,0.2,5.9,0.3,8.8
		c1.2-0.2,2.4-0.4,3.6-0.6c1.2-0.2,2.5-0.3,3.7-0.3c0.4,0,0.7,0.1,1,0.2C1531.7,366.3,1531.9,366.6,1531.9,367.1z"/>
	<path d="M1554.5,369c0,0.4,0,0.8-0.1,1.1s-0.2,0.7-0.4,1c-0.2,0.3-0.4,0.5-0.7,0.7c-0.3,0.2-0.7,0.3-1.1,0.3c-0.6,0-1-0.1-1.4-0.4
		c-0.3-0.2-0.7-0.6-1-1c-0.4-0.6-0.8-1.2-1.1-2c-0.3-0.8-0.6-1.5-0.9-2.3c-0.3-0.8-0.5-1.6-0.7-2.4c-0.2-0.8-0.4-1.5-0.7-2.2
		c-1.1-3.6-2.2-7.1-3.2-10.6c-1-3.5-2-7.1-3.2-10.6c-0.1,4.6-0.2,9.2-0.2,13.7c-0.1,4.5-0.1,9.1-0.1,13.7c0,0.2,0,0.5,0,0.8
		c0,0.3-0.1,0.6-0.2,0.8c-0.1,0.3-0.2,0.5-0.4,0.7c-0.2,0.2-0.4,0.3-0.7,0.3c-1.1,0-1.9-0.3-2.5-0.9c-0.6-0.6-0.8-1.4-0.8-2.5
		c0-5.9,0-11.8,0-17.7s0-11.7,0-17.6v-4.5c0-0.5,0.1-0.9,0.3-1.2s0.6-0.5,1.2-0.5c0.4,0,0.9,0.1,1.3,0.2s0.8,0.3,1.2,0.5
		c0.3,0.2,0.6,0.5,0.9,0.9c0.2,0.4,0.3,0.8,0.3,1.3c0.9,1.7,1.6,3.4,2.2,5.2c0.6,1.8,1.2,3.6,1.8,5.4c0.8,2.6,1.6,5.3,2.4,7.9
		c0.8,2.6,1.6,5.3,2.4,8c-0.1-4-0.3-8-0.4-12c-0.1-4-0.4-8-0.8-11.9c-0.1-0.9-0.2-1.7-0.4-2.5c-0.1-0.8-0.2-1.7-0.2-2.5
		c0-0.4,0.1-0.7,0.4-0.9c0.3-0.2,0.6-0.2,1-0.2c0.7,0,1.2,0.1,1.7,0.2c0.5,0.1,0.9,0.3,1.2,0.5c0.3,0.3,0.6,0.6,0.7,1
		c0.2,0.4,0.3,1,0.4,1.6c0.1,1.1,0.2,2.3,0.3,3.4c0.1,1.2,0.1,2.3,0.2,3.4c0.2,2.8,0.3,5.6,0.4,8.4c0.1,2.8,0.2,5.6,0.2,8.4
		c0.1,2.8,0.1,5.6,0.2,8.4C1554.5,363.4,1554.5,366.2,1554.5,369z"/>
	<path d="M1580.4,347.3c0,0.9,0,1.9,0,3.1c0,1.2-0.1,2.4-0.2,3.8s-0.3,2.7-0.5,4.1c-0.2,1.4-0.5,2.8-0.9,4.1
		c-0.4,1.3-0.8,2.6-1.3,3.8c-0.5,1.2-1.2,2.2-1.9,3.1s-1.6,1.6-2.6,2.1c-1,0.5-2.1,0.8-3.3,0.8c-1.2,0-2.4-0.3-3.4-0.9
		c-1-0.6-1.9-1.3-2.6-2.3c-0.6-0.8-1.1-1.7-1.5-2.8c-0.4-1.1-0.8-2.3-1.1-3.6c-0.3-1.3-0.6-2.7-0.8-4.1c-0.2-1.4-0.4-2.8-0.6-4.2
		c-0.1-1.4-0.2-2.7-0.3-3.9c-0.1-1.2-0.1-2.3-0.1-3.3c0-1.6,0.1-3.2,0.2-4.9c0.1-1.7,0.4-3.4,0.8-5.1c0.4-1.7,0.9-3.3,1.6-4.9
		c0.7-1.6,1.5-3,2.5-4.2c0.1-0.1,0.2-0.3,0.4-0.4c0.2-0.2,0.3-0.3,0.5-0.5c0.2-0.2,0.4-0.3,0.6-0.4s0.4-0.2,0.6-0.2
		c0.2,0,0.4,0.1,0.6,0.2c0.2,0.1,0.3,0.2,0.5,0.4c0.4-0.3,0.9-0.4,1.4-0.5c0.5-0.1,1-0.2,1.5-0.2c1.5,0,2.9,0.4,4,1.1
		c1.1,0.7,2,1.7,2.8,2.9c0.7,1.2,1.3,2.5,1.8,4c0.4,1.5,0.8,3,1,4.6c0.2,1.6,0.4,3.1,0.4,4.5S1580.4,346.1,1580.4,347.3z
		 M1575.5,348.7c0-0.5,0-1.4,0-2.5c0-1.1-0.1-2.4-0.2-3.7c-0.1-1.4-0.3-2.8-0.5-4.2c-0.2-1.4-0.5-2.7-0.9-3.9
		c-0.4-1.2-0.9-2.1-1.4-2.9s-1.2-1.1-2-1.1c-0.3,0-0.6,0.1-0.9,0.4c-0.3,0.3-0.5,0.7-0.7,1.1c-0.2,0.5-0.4,1-0.6,1.5
		c-0.2,0.6-0.4,1.1-0.6,1.6c-0.2,0.5-0.4,1-0.5,1.4c-0.2,0.4-0.3,0.7-0.5,0.9c-0.1,0.1-0.2,0.1-0.3,0.1s-0.3,0-0.4,0
		c-0.4,0-0.7-0.1-1-0.2c-0.4,1.4-0.6,2.9-0.7,4.3c-0.1,1.4-0.2,2.9-0.2,4.3c0,0.4,0,1.1,0.1,2c0,0.9,0.1,1.9,0.2,3
		c0.1,1.1,0.2,2.4,0.3,3.7c0.1,1.3,0.3,2.6,0.5,3.9c0.2,1.3,0.5,2.5,0.7,3.7c0.3,1.2,0.6,2.3,1,3.2c0.4,0.9,0.8,1.7,1.3,2.2
		c0.5,0.6,1,0.8,1.6,0.8c0.3,0,0.6-0.1,0.9-0.3s0.5-0.4,0.7-0.6c0.6-0.6,1.2-1.3,1.7-2.3c0.5-0.9,0.9-2,1.2-3.1
		c0.3-1.1,0.6-2.3,0.8-3.5c0.2-1.2,0.4-2.5,0.5-3.7c0.1-1.2,0.2-2.4,0.2-3.4C1575.5,350.4,1575.5,349.5,1575.5,348.7z"/>
	<path d="M1616.3,352.2c0,1.1,0,2.4-0.1,3.8c-0.1,1.4-0.2,2.9-0.5,4.3c-0.2,1.5-0.6,2.9-1,4.3c-0.4,1.4-1,2.7-1.8,3.8
		c-0.8,1.1-1.7,2-2.8,2.6c-1.1,0.7-2.5,1-4,1c-0.9,0-1.7-0.1-2.5-0.4c-0.8-0.3-1.6-0.6-2.3-1.1c-1.1-0.8-2-2-2.8-3.5
		c-0.8-1.5-1.4-3.2-1.9-5.1s-0.9-3.9-1.1-6c-0.3-2.1-0.4-4.2-0.6-6.3c-0.1-2.1-0.2-4-0.2-5.8c0-1.8,0-3.4,0-4.7c0-0.3,0-0.8,0-1.5
		s0-1.3,0-2.1s0-1.6,0-2.4c0-0.8,0.1-1.6,0.1-2.4s0.1-1.4,0.2-2c0.1-0.6,0.1-1,0.3-1.2c0.1-0.3,0.2-0.4,0.4-0.5
		c0.1-0.1,0.4-0.2,0.7-0.2c1,0,1.7,0.3,2.3,0.9s0.8,1.3,0.8,2.3c0,1.4,0,2.8-0.1,4.2s-0.1,2.8-0.1,4.2c0,0.6,0,1.5,0,2.7
		c0,1.2,0,2.5,0.1,4c0.1,1.5,0.2,3.1,0.3,4.9c0.1,1.7,0.3,3.5,0.5,5.2c0.2,1.7,0.5,3.3,0.8,4.9c0.3,1.6,0.7,3,1.2,4.2
		c0.5,1.2,1,2.2,1.7,2.9c0.6,0.7,1.4,1.1,2.2,1.1c0.8,0,1.5-0.3,2-0.9c0.6-0.6,1.1-1.4,1.5-2.4c0.4-1,0.7-2,1-3.2
		c0.2-1.2,0.4-2.4,0.6-3.5c0.1-1.2,0.2-2.2,0.3-3.2c0-1,0.1-1.8,0.1-2.3c0-1.2,0-2.5-0.1-3.9c-0.1-1.4-0.1-2.9-0.2-4.5
		c-0.1-1.5-0.2-3.1-0.4-4.7c-0.2-1.6-0.4-3.2-0.6-4.7c-0.2-1.5-0.5-3-0.8-4.3c-0.3-1.4-0.7-2.6-1.1-3.7c-0.1-0.2-0.2-0.4-0.3-0.7
		c-0.1-0.3-0.2-0.5-0.2-0.7c0-0.3,0.1-0.6,0.2-0.8c0.2-0.2,0.4-0.3,0.6-0.4c0.2-0.1,0.5-0.1,0.8-0.1c0.3,0,0.5,0,0.8,0
		c0.5,0,0.9,0,1.3,0.1c0.3,0,0.7,0.2,1.2,0.4c0.3,0.2,0.6,0.6,0.8,1.4c0.3,0.8,0.5,1.7,0.7,2.9c0.2,1.2,0.4,2.5,0.7,4s0.4,3,0.6,4.5
		c0.2,1.6,0.3,3.1,0.4,4.6c0.1,1.5,0.2,3,0.3,4.3c0.1,1.3,0.1,2.5,0.2,3.5C1616.3,351,1616.3,351.7,1616.3,352.2z"/>
	<path d="M1640.8,369c0,0.4,0,0.8-0.1,1.1s-0.2,0.7-0.4,1c-0.2,0.3-0.4,0.5-0.7,0.7c-0.3,0.2-0.7,0.3-1.1,0.3c-0.6,0-1-0.1-1.4-0.4
		s-0.7-0.6-1-1c-0.4-0.6-0.8-1.2-1.1-2c-0.3-0.8-0.6-1.5-0.9-2.3c-0.3-0.8-0.5-1.6-0.7-2.4c-0.2-0.8-0.4-1.5-0.7-2.2
		c-1.1-3.6-2.2-7.1-3.2-10.6c-1-3.5-2-7.1-3.2-10.6c-0.1,4.6-0.2,9.2-0.2,13.7c-0.1,4.5-0.1,9.1-0.1,13.7c0,0.2,0,0.5,0,0.8
		c0,0.3-0.1,0.6-0.2,0.8c-0.1,0.3-0.2,0.5-0.4,0.7c-0.2,0.2-0.4,0.3-0.7,0.3c-1.1,0-1.9-0.3-2.5-0.9c-0.6-0.6-0.8-1.4-0.8-2.5
		c0-5.9,0-11.8,0-17.7c0-5.8,0-11.7,0-17.6v-4.5c0-0.5,0.1-0.9,0.3-1.2s0.6-0.5,1.2-0.5c0.4,0,0.9,0.1,1.3,0.2s0.8,0.3,1.2,0.5
		c0.3,0.2,0.6,0.5,0.9,0.9c0.2,0.4,0.3,0.8,0.3,1.3c0.9,1.7,1.6,3.4,2.2,5.2c0.6,1.8,1.2,3.6,1.8,5.4c0.8,2.6,1.6,5.3,2.4,7.9
		c0.8,2.6,1.6,5.3,2.4,8c-0.1-4-0.3-8-0.4-12c-0.1-4-0.4-8-0.8-11.9c-0.1-0.9-0.2-1.7-0.4-2.5c-0.1-0.8-0.2-1.7-0.2-2.5
		c0-0.4,0.1-0.7,0.4-0.9c0.3-0.2,0.6-0.2,1-0.2c0.7,0,1.2,0.1,1.7,0.2c0.5,0.1,0.9,0.3,1.2,0.5c0.3,0.3,0.6,0.6,0.7,1
		c0.2,0.4,0.3,1,0.4,1.6c0.1,1.1,0.2,2.3,0.3,3.4c0.1,1.2,0.1,2.3,0.2,3.4c0.2,2.8,0.3,5.6,0.4,8.4s0.2,5.6,0.2,8.4
		c0.1,2.8,0.1,5.6,0.2,8.4S1640.8,366.2,1640.8,369z"/>
	<path d="M1664.5,367.1c0,0.6-0.2,1.2-0.5,1.7c-0.3,0.5-0.8,0.9-1.3,1.2c-0.2,0.1-0.6,0.2-1.2,0.2c-0.7,0.1-1.4,0.1-2.1,0.2
		s-1.5,0.1-2.2,0.2s-1.2,0.1-1.4,0.1c-0.1,0.4-0.2,0.6-0.5,0.7s-0.6,0.2-0.9,0.2c-0.4,0-0.8-0.1-1.2-0.2c-0.5-0.1-0.9-0.2-1.2-0.3
		c-1,0.1-1.9,0.3-2.9,0.4c-1,0.1-2,0.2-3,0.2c-0.8,0-1.1-0.4-1.1-1.1c0-0.7,0.2-1.3,0.6-1.7c0.4-0.4,0.9-0.7,1.5-0.9
		c0.6-0.2,1.2-0.3,1.8-0.4c0.7-0.1,1.2-0.1,1.7-0.2c-0.1-6-0.2-12-0.3-17.9c-0.1-5.9-0.2-11.9-0.2-17.9c-0.9,0.1-1.7,0.1-2.5,0.2
		c-0.8,0.1-1.7,0.1-2.5,0.1c-0.2,0-0.3,0-0.5,0s-0.4,0-0.5-0.1c-0.2-0.1-0.3-0.1-0.4-0.3c-0.1-0.1-0.2-0.3-0.2-0.5
		c0-0.4,0.1-0.8,0.3-1.1c0.2-0.3,0.4-0.6,0.7-0.8c0.3-0.2,0.6-0.4,0.9-0.5s0.7-0.2,1-0.3c0.9-0.2,1.8-0.3,2.8-0.4
		c0.9-0.1,1.9-0.2,2.8-0.3s1.9-0.2,2.8-0.4s1.9-0.3,2.8-0.5c0.9-0.2,1.8-0.4,2.7-0.7c0.9-0.3,1.8-0.5,2.7-0.5c0.5,0,0.8,0.2,1,0.6
		c0.2,0.4,0.3,0.8,0.3,1.2c0,0.4,0,0.7-0.1,1c-0.1,0.3-0.2,0.6-0.5,0.9c-0.1,0.2-0.4,0.3-0.8,0.5c-0.4,0.2-1,0.3-1.6,0.4
		c-0.6,0.1-1.2,0.2-1.9,0.4c-0.7,0.1-1.4,0.2-2,0.3c-0.6,0.1-1.2,0.2-1.8,0.2c-0.5,0.1-0.9,0.1-1.2,0.1c0.2,2.9,0.4,5.9,0.5,8.8
		c0.1,2.9,0.2,5.9,0.2,8.8c0.1,2.9,0.1,5.9,0.2,8.8c0.1,2.9,0.2,5.9,0.3,8.8c1.2-0.2,2.4-0.4,3.7-0.6c1.2-0.2,2.5-0.3,3.7-0.3
		c0.4,0,0.7,0.1,1,0.2C1664.4,366.3,1664.5,366.6,1664.5,367.1z"/>
	<path d="M1689.2,348.9c0,2.3-0.2,4.5-0.6,6.7c-0.4,2.2-1.1,4.2-2,6.1c-0.9,1.9-2.1,3.6-3.6,5.2c-1.5,1.6-3.3,2.8-5.5,3.8
		c-0.5,0.3-1.1,0.5-1.8,0.7s-1.3,0.4-2,0.5c-0.7,0.1-1.4,0.3-2,0.3c-0.7,0.1-1.3,0.1-1.9,0.1c-0.2,0-0.5,0-0.8,0
		c-0.3,0-0.6-0.1-0.8-0.1c-0.3-0.1-0.5-0.2-0.6-0.4c-0.2-0.2-0.3-0.4-0.3-0.7c0-0.3,0.1-0.5,0.2-0.8c0.1-0.3,0.2-0.5,0.4-0.8
		c0.2-0.3,0.4-0.5,0.6-0.7c0.2-0.2,0.4-0.4,0.7-0.5c-0.1-0.2-0.2-0.6-0.3-1.4c-0.1-0.8-0.2-1.8-0.3-3c-0.1-1.2-0.1-2.6-0.2-4
		c-0.1-1.5-0.1-3-0.2-4.6s-0.1-3.2-0.1-4.7c0-1.6-0.1-3-0.1-4.4c0-1.3,0-2.5,0-3.5c0-1,0-1.7,0-2.1c0-2,0-3.9,0.1-5.9
		c0.1-1.9,0.1-3.9,0.1-5.9c-0.2,0-0.4-0.1-0.7-0.2s-0.3-0.3-0.3-0.6c0-0.3,0.1-0.7,0.3-0.9c0.2-0.3,0.4-0.5,0.7-0.7
		c0.3-0.2,0.6-0.4,0.9-0.5s0.6-0.2,0.9-0.2c0.3,0,0.6,0,0.9,0.1c0.3,0.1,0.6,0.1,0.9,0.2c2.8,0.7,5.3,1.7,7.5,3.1c2.2,1.4,4,3,5.5,5
		c1.5,2,2.6,4.2,3.4,6.7C1688.8,343.4,1689.2,346,1689.2,348.9z M1684.5,348.3c0-2.1-0.3-4.1-0.8-6c-0.5-1.9-1.3-3.6-2.3-5.1
		c-1-1.6-2.3-2.9-3.8-4.1s-3.3-2.2-5.3-3v0.1c0,5.5,0.1,10.9,0.3,16.2c0.2,5.4,0.4,10.8,0.8,16.2c0.1,0.8,0.1,1.6,0.2,2.5
		s0.1,1.6,0.3,2.4c2-0.7,3.7-1.7,5-3c1.4-1.4,2.4-2.9,3.3-4.7s1.4-3.7,1.7-5.6C1684.4,352.2,1684.5,350.2,1684.5,348.3z"/>
	<path d="M1713.2,347.3c0,0.9,0,1.9,0,3.1c0,1.2-0.1,2.4-0.2,3.8s-0.3,2.7-0.5,4.1c-0.2,1.4-0.5,2.8-0.9,4.1s-0.8,2.6-1.3,3.8
		c-0.5,1.2-1.2,2.2-1.9,3.1c-0.7,0.9-1.6,1.6-2.6,2.1c-1,0.5-2.1,0.8-3.3,0.8s-2.4-0.3-3.4-0.9c-1-0.6-1.9-1.3-2.6-2.3
		c-0.6-0.8-1.1-1.7-1.5-2.8c-0.4-1.1-0.8-2.3-1.1-3.6c-0.3-1.3-0.6-2.7-0.8-4.1c-0.2-1.4-0.4-2.8-0.6-4.2c-0.1-1.4-0.2-2.7-0.3-3.9
		c-0.1-1.2-0.1-2.3-0.1-3.3c0-1.6,0.1-3.2,0.2-4.9c0.1-1.7,0.4-3.4,0.8-5.1c0.4-1.7,0.9-3.3,1.6-4.9c0.7-1.6,1.5-3,2.5-4.2
		c0.1-0.1,0.2-0.3,0.4-0.4c0.2-0.2,0.3-0.3,0.5-0.5c0.2-0.2,0.4-0.3,0.6-0.4s0.4-0.2,0.6-0.2c0.2,0,0.4,0.1,0.6,0.2
		c0.2,0.1,0.3,0.2,0.5,0.4c0.4-0.3,0.9-0.4,1.4-0.5c0.5-0.1,1-0.2,1.5-0.2c1.5,0,2.9,0.4,4,1.1c1.1,0.7,2,1.7,2.8,2.9
		c0.7,1.2,1.3,2.5,1.8,4c0.4,1.5,0.8,3,1,4.6c0.2,1.6,0.4,3.1,0.4,4.5S1713.2,346.1,1713.2,347.3z M1708.2,348.7c0-0.5,0-1.4,0-2.5
		c0-1.1-0.1-2.4-0.2-3.7c-0.1-1.4-0.3-2.8-0.5-4.2c-0.2-1.4-0.5-2.7-0.9-3.9c-0.4-1.2-0.9-2.1-1.4-2.9s-1.2-1.1-2-1.1
		c-0.3,0-0.6,0.1-0.9,0.4c-0.3,0.3-0.5,0.7-0.7,1.1c-0.2,0.5-0.4,1-0.6,1.5c-0.2,0.6-0.4,1.1-0.6,1.6c-0.2,0.5-0.4,1-0.5,1.4
		c-0.2,0.4-0.3,0.7-0.5,0.9c-0.1,0.1-0.2,0.1-0.3,0.1c-0.1,0-0.3,0-0.4,0c-0.4,0-0.7-0.1-1-0.2c-0.4,1.4-0.6,2.9-0.7,4.3
		c-0.1,1.4-0.2,2.9-0.2,4.3c0,0.4,0,1.1,0.1,2c0,0.9,0.1,1.9,0.2,3c0.1,1.1,0.2,2.4,0.3,3.7c0.1,1.3,0.3,2.6,0.5,3.9
		c0.2,1.3,0.5,2.5,0.7,3.7c0.3,1.2,0.6,2.3,1,3.2c0.4,0.9,0.8,1.7,1.3,2.2c0.5,0.6,1,0.8,1.6,0.8c0.3,0,0.6-0.1,0.9-0.3
		s0.5-0.4,0.7-0.6c0.6-0.6,1.2-1.3,1.7-2.3c0.5-0.9,0.9-2,1.2-3.1c0.3-1.1,0.6-2.3,0.8-3.5c0.2-1.2,0.4-2.5,0.5-3.7
		c0.1-1.2,0.2-2.4,0.2-3.4C1708.2,350.4,1708.2,349.5,1708.2,348.7z"/>
</g>
<g>
	<path d="M270.9,796.5c0,0.3,0,0.6-0.1,0.9c-0.1,0.3-0.2,0.6-0.3,0.9c-0.1,0.4-0.4,0.6-0.8,0.8c-0.4,0.2-0.8,0.3-1.3,0.3
		c-0.5,0.1-1,0.1-1.4,0.1c-0.5,0-0.9,0-1.2,0c-0.9,0.1-1.8,0.1-2.7,0.2c-0.9,0.1-1.8,0.2-2.7,0.2c-0.3,0.5-0.7,0.8-1.3,0.8
		c-0.2,0-0.4,0-0.6-0.1s-0.5-0.2-0.8-0.3c-0.3-0.1-0.5-0.2-0.7-0.4c-0.2-0.1-0.4-0.3-0.5-0.4c-0.2-0.2-0.4-0.4-0.6-0.6
		c-0.1-0.2-0.2-0.5-0.2-0.8c0-0.5,0.1-0.9,0.3-1.4c0.2-0.4,0.4-0.9,0.6-1.3c1.2-3,2.3-6,3.4-9c1.1-3,2.1-6,3.1-9.1c0.3-1,0.7-2,1-3
		c0.3-1,0.6-2.1,0.9-3.1c0.3-1,0.5-2.1,0.6-3.1c0.2-1.1,0.2-2.1,0.2-3.2c0-0.3,0-0.8-0.1-1.4c-0.1-0.6-0.2-1.2-0.3-1.8
		c-0.2-0.6-0.4-1.1-0.7-1.6c-0.3-0.4-0.7-0.7-1.2-0.7c-0.3,0-0.6,0.1-1,0.3c-0.3,0.2-0.7,0.4-1,0.7c-0.3,0.3-0.6,0.6-0.8,0.9
		c-0.2,0.3-0.4,0.6-0.6,0.9c-0.4,0.6-0.7,1.2-1,1.8c-0.3,0.6-0.5,1.3-0.7,1.9c-0.1,0.3-0.1,0.6-0.2,0.9c-0.1,0.3-0.1,0.6-0.3,0.9
		c-0.1,0.2-0.2,0.4-0.4,0.5c-0.1,0.1-0.3,0.1-0.6,0.1c-0.3,0-0.7-0.1-1-0.2c-0.3-0.1-0.7-0.3-1-0.5c-0.3-0.2-0.5-0.5-0.7-0.8
		c-0.2-0.3-0.3-0.7-0.3-1c0-0.5,0.1-1.1,0.3-1.7c0.2-0.5,0.4-1.1,0.6-1.6c0.4-0.9,0.9-1.8,1.4-2.6c0.5-0.8,1.1-1.6,1.8-2.2
		s1.5-1.1,2.3-1.5c0.9-0.4,1.8-0.6,2.9-0.6c1.4,0,2.5,0.3,3.4,0.8c0.9,0.6,1.6,1.3,2.1,2.2c0.5,0.9,0.9,1.9,1.1,3
		c0.2,1.1,0.3,2.2,0.3,3.4c0,1.9-0.2,4-0.7,6.2c-0.5,2.2-1,4.4-1.7,6.6c-0.7,2.2-1.4,4.4-2.2,6.6c-0.8,2.1-1.5,4.1-2.2,5.9l-1.9,5.5
		l7-1c0.1,0,0.2,0,0.3,0c0.1,0,0.2,0,0.3,0c0.5,0,0.8,0.1,1,0.4C270.8,795.7,270.9,796,270.9,796.5z"/>
	<path d="M273.6,796.3c0-0.2,0.1-0.4,0.2-0.5c0.1-0.1,0.3-0.2,0.6-0.3c0.2-0.1,0.4-0.1,0.7-0.1c0.2,0,0.4,0,0.6,0c0.2,0,0.5,0,0.7,0
		c0.3,0,0.6,0.1,0.8,0.1c0.3,0.1,0.5,0.2,0.7,0.3c0.2,0.2,0.3,0.4,0.3,0.7c0,0.1,0,0.3,0,0.7c0,0.3,0,0.7,0,1.1c0,0.4,0,0.8,0,1.1
		c0,0.3,0,0.5,0,0.5c-0.2,0.2-0.4,0.4-0.7,0.4c-0.3,0-0.5,0-0.7,0c-0.7,0-1.1,0-1.5-0.1c-0.3-0.1-0.6-0.2-0.7-0.4
		c-0.1-0.2-0.2-0.5-0.3-0.8c0-0.3-0.1-0.8-0.2-1.3c-0.1-0.3-0.1-0.5-0.2-0.8C273.7,796.9,273.6,796.6,273.6,796.3z"/>
	<path d="M289.1,798.6c0,0.5-0.2,0.8-0.5,1c-0.3,0.2-0.7,0.2-1.1,0.2c-0.3,0-0.7,0-1.1-0.1c-0.4-0.1-0.8-0.2-1.1-0.3
		c-0.4-0.2-0.7-0.4-0.9-0.7s-0.3-0.5-0.4-0.9s-0.1-0.7-0.1-1c0-0.3,0-0.7,0-1.1c-0.4-6.5-0.7-13-0.9-19.4
		c-0.2-6.4-0.3-12.9-0.3-19.4c0-0.4,0.1-0.8,0.2-1s0.4-0.4,1-0.4c0.6,0,1.2,0.1,1.8,0.4c0.6,0.3,1,0.7,1.3,1.2
		c0.1,0.2,0.1,0.5,0.2,0.9c0,0.4,0.1,0.8,0.1,1.3c0,0.4,0,0.9,0,1.3c0,0.4,0,0.8,0,1c0.2,5.5,0.4,10.9,0.6,16.3
		c0.2,5.4,0.6,10.9,1.1,16.3c0.1,0.7,0.2,1.5,0.3,2.2C289,797.1,289.1,797.8,289.1,798.6z"/>
	<path d="M311.4,784.8c0,1.1-0.1,2.3-0.2,3.5s-0.4,2.4-0.7,3.6s-0.7,2.3-1.2,3.4c-0.5,1.1-1.1,2.1-1.9,2.9c-0.8,0.8-1.7,1.5-2.7,2
		c-1,0.5-2.2,0.7-3.6,0.7c-0.9,0-1.8-0.1-2.6-0.3c-0.8-0.2-1.6-0.6-2.4-1.1c-0.5-0.4-1-0.8-1.5-1.3c-0.5-0.5-0.9-1.1-1.2-1.7
		c-0.3-0.6-0.6-1.3-0.8-1.9c-0.2-0.7-0.3-1.3-0.3-2c0-0.9,0.5-1.3,1.4-1.3c0.4,0,0.9,0,1.4,0.1c0.6,0.1,1,0.2,1.4,0.4
		c0.3,0.2,0.6,0.4,0.7,0.6c0.2,0.2,0.3,0.5,0.4,0.7c0.1,0.3,0.2,0.5,0.3,0.8c0.1,0.3,0.2,0.6,0.3,0.9c0.3,0.6,0.6,1.1,1.1,1.6
		c0.5,0.5,1.1,0.7,1.8,0.7c0.7,0,1.4-0.2,1.9-0.7c0.6-0.5,1.1-1.1,1.5-1.9c0.4-0.8,0.8-1.6,1-2.6c0.3-1,0.5-1.9,0.7-2.9
		c0.2-1,0.3-1.8,0.4-2.7c0.1-0.8,0.1-1.5,0.1-2c0-0.8-0.1-1.6-0.2-2.6c-0.1-0.9-0.3-1.8-0.7-2.6c-0.3-0.8-0.8-1.4-1.4-1.9
		c-0.6-0.5-1.4-0.7-2.4-0.7h-0.4c-0.1,0.2-0.3,0.4-0.5,0.6c-0.2,0.2-0.4,0.5-0.6,0.7c-0.2,0.2-0.4,0.4-0.7,0.6
		c-0.2,0.1-0.5,0.2-0.7,0.2c-0.3,0-0.6-0.1-1-0.3s-0.6-0.4-0.9-0.7c-0.3-0.3-0.5-0.6-0.6-0.9c-0.2-0.3-0.2-0.7-0.2-1
		c0-0.1,0-0.2,0-0.3c0-0.1,0-0.2,0.1-0.2c0.3-0.6,0.8-1.2,1.3-1.8c0.5-0.6,1-1.1,1.5-1.7c0.5-0.6,0.9-1.3,1.4-2.1s0.9-1.6,1.3-2.4
		s0.7-1.7,1-2.6c0.3-0.9,0.4-1.7,0.4-2.5c0-0.5-0.1-1-0.2-1.5c-0.1-0.5-0.3-0.9-0.6-1.2c-0.3-0.3-0.6-0.6-1-0.8
		c-0.4-0.2-0.9-0.3-1.5-0.3c-0.5,0-0.9,0.1-1.3,0.3s-0.7,0.5-1,0.8s-0.5,0.7-0.6,1.1c-0.2,0.4-0.3,0.8-0.4,1.3
		c-0.1,0.3-0.2,0.6-0.2,1c0,0.3-0.1,0.6-0.2,0.9c-0.1,0.3-0.2,0.5-0.4,0.6c-0.1,0.1-0.4,0.2-0.7,0.2c-0.4,0-0.7-0.1-1.1-0.2
		c-0.4-0.1-0.7-0.3-1-0.5c-0.3-0.2-0.5-0.5-0.7-0.8s-0.3-0.7-0.3-1.1c0-0.6,0.1-1.3,0.4-2c0.3-0.7,0.6-1.4,0.9-1.9
		c0.7-1.1,1.6-2,2.8-2.5c1.2-0.6,2.4-0.8,3.7-0.8c1.2,0,2.2,0.2,3.2,0.5c1,0.3,1.8,0.9,2.5,1.5c0.7,0.7,1.2,1.5,1.6,2.4
		s0.6,2,0.6,3.2c0,1-0.1,2-0.3,2.9c-0.2,1-0.5,1.9-0.9,2.8c-0.4,0.9-0.8,1.8-1.3,2.7c-0.5,0.9-1,1.7-1.6,2.5
		c1.4,0.3,2.6,0.8,3.5,1.6c0.9,0.8,1.7,1.7,2.2,2.8c0.5,1.1,0.9,2.3,1.2,3.5C311.2,782.3,311.4,783.5,311.4,784.8z"/>
	<path d="M332.5,786.1c0,1,0,2.1-0.1,3.3c-0.1,1.2-0.3,2.3-0.5,3.4s-0.6,2.2-1,3.3c-0.4,1-1,2-1.7,2.7c-0.7,0.8-1.5,1.4-2.5,1.9
		c-1,0.5-2.1,0.7-3.5,0.7c-1.2,0-2.2-0.2-3-0.6c-0.8-0.4-1.6-1-2.1-1.7c-0.6-0.7-1.1-1.5-1.4-2.4c-0.4-0.9-0.7-1.9-0.9-2.9
		c-0.2-1-0.4-2-0.4-3c-0.1-1-0.1-1.9-0.1-2.8c0-1.1,0-2.2,0.1-3.3c0.1-1.1,0.2-2.2,0.5-3.3c0.2-1.1,0.5-2.2,0.9-3.2
		c0.4-1,0.9-2,1.6-3c-0.6-0.5-1.1-1.1-1.5-1.7c-0.4-0.7-0.7-1.4-1-2.2c-0.2-0.8-0.4-1.5-0.5-2.3c-0.1-0.8-0.1-1.6-0.1-2.3
		c0-0.9,0.1-1.8,0.2-2.7c0.1-0.9,0.3-1.9,0.6-2.8c0.3-0.9,0.6-1.8,1-2.6c0.4-0.8,0.9-1.6,1.5-2.3c0.1-0.1,0.2-0.3,0.4-0.4
		c0.2-0.2,0.3-0.3,0.5-0.5c0.2-0.1,0.4-0.3,0.6-0.4c0.2-0.1,0.4-0.2,0.5-0.2c0.3,0,0.6,0.1,0.8,0.3c0.4-0.2,0.8-0.4,1.3-0.5
		c0.5-0.1,0.9-0.2,1.3-0.2c1.2,0,2.3,0.3,3.1,1c0.8,0.7,1.5,1.5,2,2.5c0.5,1,0.9,2.1,1.1,3.2c0.2,1.2,0.3,2.3,0.3,3.3
		c0,0.8-0.1,1.5-0.2,2.3c-0.1,0.8-0.3,1.6-0.5,2.4c-0.2,0.8-0.5,1.6-0.8,2.3c-0.3,0.7-0.7,1.4-1.1,2c1,0.7,1.9,1.5,2.5,2.5
		c0.6,1,1.1,2,1.5,3.2c0.3,1.1,0.6,2.3,0.7,3.5C332.4,783.8,332.5,785,332.5,786.1z M321.3,772.5c0.6-0.3,1.1-0.4,1.7-0.4
		c0.4-0.4,0.7-1,1-1.6c0.3-0.6,0.5-1.3,0.7-2s0.3-1.4,0.4-2.1c0.1-0.7,0.1-1.3,0.1-1.9c0-0.4,0-0.9-0.1-1.4
		c-0.1-0.6-0.2-1.1-0.3-1.7c-0.1-0.6-0.3-1.1-0.5-1.6c-0.2-0.5-0.5-0.9-0.8-1.2c-0.1,0.2-0.3,0.3-0.3,0.5c-0.1,0.2-0.2,0.3-0.3,0.5
		c-0.1,0.1-0.2,0.2-0.4,0.3c-0.2,0.1-0.4,0.1-0.7,0.1c-0.2,0-0.3,0-0.5-0.1c-0.2-0.1-0.3-0.1-0.5-0.2c-0.4,0.9-0.8,2-1,3.2
		c-0.2,1.2-0.3,2.3-0.3,3.3c0,0.4,0,0.9,0.1,1.5c0.1,0.6,0.2,1.2,0.3,1.8c0.1,0.6,0.3,1.2,0.5,1.7
		C320.7,771.8,321,772.2,321.3,772.5z M323.7,776.3c-0.2,0.2-0.3,0.3-0.5,0.5c-0.2,0.1-0.3,0.3-0.5,0.5c-0.5,0.6-1,1.3-1.3,2.2
		c-0.3,0.9-0.6,1.8-0.8,2.8c-0.2,1-0.3,2-0.4,3c-0.1,1-0.1,1.9-0.1,2.6c0,0.3,0,0.8,0,1.4c0,0.6,0.1,1.3,0.1,2
		c0.1,0.7,0.2,1.5,0.3,2.2c0.1,0.8,0.3,1.4,0.5,2c0.2,0.6,0.5,1.1,0.8,1.5s0.7,0.6,1.1,0.6c0.7,0,1.3-0.2,1.8-0.6
		c0.5-0.4,1-1,1.3-1.6c0.4-0.7,0.7-1.4,0.9-2.3c0.2-0.8,0.4-1.7,0.5-2.5s0.2-1.6,0.2-2.4c0-0.8,0.1-1.4,0.1-1.9c0-0.8,0-1.6,0-2.5
		c0-0.9-0.1-1.7-0.3-2.5c-0.2-0.8-0.4-1.6-0.7-2.4c-0.3-0.8-0.8-1.5-1.4-2.1c-0.3-0.3-0.6-0.6-0.9-0.7L323.7,776.3z"/>
	<path d="M335.2,796.3c0-0.2,0.1-0.4,0.2-0.5c0.1-0.1,0.3-0.2,0.6-0.3c0.2-0.1,0.4-0.1,0.7-0.1c0.2,0,0.4,0,0.6,0c0.2,0,0.5,0,0.7,0
		c0.3,0,0.6,0.1,0.8,0.1c0.3,0.1,0.5,0.2,0.7,0.3c0.2,0.2,0.3,0.4,0.3,0.7c0,0.1,0,0.3,0,0.7c0,0.3,0,0.7,0,1.1c0,0.4,0,0.8,0,1.1
		c0,0.3,0,0.5,0,0.5c-0.2,0.2-0.4,0.4-0.7,0.4c-0.3,0-0.5,0-0.7,0c-0.7,0-1.1,0-1.5-0.1c-0.3-0.1-0.6-0.2-0.7-0.4
		c-0.1-0.2-0.2-0.5-0.3-0.8c0-0.3-0.1-0.8-0.2-1.3c-0.1-0.3-0.1-0.5-0.2-0.8C335.2,796.9,335.2,796.6,335.2,796.3z"/>
	<path d="M354.8,757.6c0,0.5-0.1,1.1-0.2,1.7c-0.4,3.1-0.9,6.1-1.2,9.1c-0.4,3-0.7,6.1-1,9.1c-0.3,3.2-0.6,6.3-0.9,9.5
		c-0.3,3.2-0.6,6.3-0.9,9.5l-0.2,2.2c0,0.3-0.1,0.5-0.1,0.8c0,0.3-0.1,0.5-0.2,0.7c-0.1,0.2-0.2,0.4-0.4,0.5
		c-0.2,0.1-0.5,0.2-0.8,0.2c-0.2,0-0.5,0-0.9-0.1c-0.4-0.1-0.7-0.2-1.1-0.4c-0.4-0.2-0.7-0.4-1-0.6c-0.3-0.2-0.5-0.5-0.6-0.7
		c0-0.2-0.1-0.3-0.1-0.5c0-0.2,0-0.3,0-0.5c0-0.5,0.1-1,0.2-1.6c0.1-0.5,0.2-1,0.3-1.6c0.1-0.7,0.2-1.5,0.3-2.2
		c0.1-0.7,0.2-1.4,0.2-2.2c0.4-3.2,0.7-6.4,1-9.5c0.3-3.2,0.7-6.3,1.1-9.5c0.3-2.1,0.6-4.2,0.9-6.3c0.3-2.1,0.6-4.1,0.9-6.3
		c-1.4,0.1-2.8,0.2-4.1,0.3c-1.4,0.1-2.8,0.1-4.2,0.1c-0.2,0-0.4,0-0.6,0c-0.2,0-0.4,0-0.6-0.1c-0.2-0.1-0.3-0.2-0.4-0.3
		c-0.1-0.1-0.2-0.3-0.2-0.5c0-0.8,0.2-1.4,0.7-1.8c0.5-0.4,1.1-0.7,1.8-0.8c0.6-0.1,1.2-0.2,1.8-0.2c0.6,0,1.2-0.1,1.8-0.2
		c1.2-0.1,2.4-0.3,3.7-0.6c1.3-0.3,2.5-0.4,3.7-0.4c0.5,0,0.8,0.2,1,0.6s0.2,0.8,0.2,1.1c0,0.2,0,0.5-0.1,0.7
		C354.9,757.2,354.8,757.4,354.8,757.6z"/>
	<path d="M374,771.4c0,0.6,0,1.2,0,1.8c0,0.6,0,1.2,0,1.9c0,4.1-0.4,8.1-1.3,11.9s-2.2,7.6-3.9,11.4c-0.1,0.2-0.2,0.4-0.3,0.6
		c-0.1,0.3-0.2,0.5-0.4,0.7c-0.2,0.2-0.3,0.5-0.5,0.6c-0.2,0.2-0.4,0.3-0.6,0.3c-0.3,0-0.6-0.1-0.9-0.2c-0.3-0.1-0.5-0.3-0.8-0.6
		c-0.2-0.2-0.4-0.5-0.6-0.8c-0.1-0.3-0.2-0.6-0.2-0.9c0-0.2,0.1-0.5,0.2-1c0.1-0.5,0.3-0.9,0.5-1.4s0.4-1,0.6-1.5
		c0.2-0.5,0.4-0.8,0.5-1.1c0.5-1.5,1-2.9,1.3-4.4c0.4-1.5,0.7-3,1-4.5c-0.9,0.6-1.9,0.9-2.9,0.9c-1.3,0-2.5-0.3-3.4-0.9
		c-0.9-0.6-1.7-1.3-2.3-2.3c-0.6-1-1.1-2-1.4-3.3c-0.3-1.2-0.6-2.5-0.8-3.7c-0.2-1.3-0.3-2.5-0.3-3.7c0-1.2,0-2.3,0-3.2
		c0-0.8,0-1.7,0.1-2.7c0.1-1,0.2-2,0.4-3c0.2-1,0.5-2,0.9-2.9c0.4-0.9,0.8-1.8,1.4-2.5c0.6-0.7,1.3-1.3,2.1-1.7
		c0.8-0.4,1.8-0.7,2.9-0.7c1.1,0,2.1,0.3,3,0.9c0.9,0.6,1.6,1.4,2.3,2.4c0.6,1,1.2,2.1,1.6,3.3c0.4,1.2,0.8,2.5,1.1,3.7
		c0.3,1.2,0.5,2.4,0.6,3.6C373.9,769.6,374,770.6,374,771.4z M368.9,769.6c0-0.4-0.1-1-0.2-1.7c-0.1-0.7-0.2-1.4-0.3-2.1
		s-0.3-1.5-0.5-2.3c-0.2-0.8-0.4-1.5-0.6-2.2c-0.2-0.7-0.5-1.3-0.8-1.8c-0.3-0.5-0.7-0.9-1.1-1.2c-0.5,0.1-0.9,0.3-1.2,0.7
		c-0.3,0.4-0.6,0.9-0.8,1.6c-0.2,0.6-0.4,1.3-0.6,2.1s-0.2,1.5-0.3,2.2c-0.1,0.7-0.1,1.4-0.1,2c0,0.6,0,1.1,0,1.4c0,0.4,0,1,0,1.7
		c0,0.7,0.1,1.6,0.2,2.5c0.1,0.9,0.2,1.8,0.3,2.8c0.1,0.9,0.3,1.8,0.6,2.6c0.2,0.8,0.5,1.5,0.8,2.1c0.3,0.6,0.7,0.9,1.1,1
		c0.7-0.5,1.2-1.1,1.6-2c0.4-0.9,0.8-1.8,1-2.8c0.3-1,0.5-2,0.6-3.1c0.1-1,0.2-1.9,0.2-2.7c0-0.2,0-0.3,0-0.5
		C368.8,769.8,368.9,769.7,368.9,769.6z"/>
	<path d="M395.8,786.1c0,1,0,2.1-0.1,3.3c-0.1,1.2-0.3,2.3-0.5,3.4s-0.6,2.2-1,3.3c-0.4,1-1,2-1.7,2.7c-0.7,0.8-1.5,1.4-2.5,1.9
		c-1,0.5-2.1,0.7-3.5,0.7c-1.2,0-2.2-0.2-3-0.6c-0.8-0.4-1.6-1-2.1-1.7c-0.6-0.7-1.1-1.5-1.4-2.4c-0.4-0.9-0.7-1.9-0.9-2.9
		c-0.2-1-0.4-2-0.4-3c-0.1-1-0.1-1.9-0.1-2.8c0-1.1,0-2.2,0.1-3.3c0.1-1.1,0.2-2.2,0.5-3.3c0.2-1.1,0.5-2.2,0.9-3.2
		c0.4-1,0.9-2,1.6-3c-0.6-0.5-1.1-1.1-1.5-1.7c-0.4-0.7-0.7-1.4-1-2.2c-0.2-0.8-0.4-1.5-0.5-2.3c-0.1-0.8-0.1-1.6-0.1-2.3
		c0-0.9,0.1-1.8,0.2-2.7c0.1-0.9,0.3-1.9,0.6-2.8c0.3-0.9,0.6-1.8,1-2.6c0.4-0.8,0.9-1.6,1.5-2.3c0.1-0.1,0.2-0.3,0.4-0.4
		c0.2-0.2,0.3-0.3,0.5-0.5c0.2-0.1,0.4-0.3,0.6-0.4c0.2-0.1,0.4-0.2,0.5-0.2c0.3,0,0.6,0.1,0.8,0.3c0.4-0.2,0.8-0.4,1.3-0.5
		c0.5-0.1,0.9-0.2,1.3-0.2c1.2,0,2.3,0.3,3.1,1c0.8,0.7,1.5,1.5,2,2.5c0.5,1,0.9,2.1,1.1,3.2c0.2,1.2,0.3,2.3,0.3,3.3
		c0,0.8-0.1,1.5-0.2,2.3c-0.1,0.8-0.3,1.6-0.5,2.4c-0.2,0.8-0.5,1.6-0.8,2.3c-0.3,0.7-0.7,1.4-1.1,2c1,0.7,1.9,1.5,2.5,2.5
		c0.6,1,1.1,2,1.5,3.2c0.3,1.1,0.6,2.3,0.7,3.5C395.7,783.8,395.8,785,395.8,786.1z M384.6,772.5c0.6-0.3,1.1-0.4,1.7-0.4
		c0.4-0.4,0.7-1,1-1.6c0.3-0.6,0.5-1.3,0.7-2s0.3-1.4,0.4-2.1c0.1-0.7,0.1-1.3,0.1-1.9c0-0.4,0-0.9-0.1-1.4
		c-0.1-0.6-0.2-1.1-0.3-1.7c-0.1-0.6-0.3-1.1-0.5-1.6c-0.2-0.5-0.5-0.9-0.8-1.2c-0.1,0.2-0.3,0.3-0.3,0.5c-0.1,0.2-0.2,0.3-0.3,0.5
		c-0.1,0.1-0.2,0.2-0.4,0.3c-0.2,0.1-0.4,0.1-0.7,0.1c-0.2,0-0.3,0-0.5-0.1c-0.2-0.1-0.3-0.1-0.5-0.2c-0.4,0.9-0.8,2-1,3.2
		c-0.2,1.2-0.3,2.3-0.3,3.3c0,0.4,0,0.9,0.1,1.5c0.1,0.6,0.2,1.2,0.3,1.8c0.1,0.6,0.3,1.2,0.5,1.7
		C384.1,771.8,384.3,772.2,384.6,772.5z M387,776.3c-0.2,0.2-0.3,0.3-0.5,0.5c-0.2,0.1-0.3,0.3-0.5,0.5c-0.5,0.6-1,1.3-1.3,2.2
		c-0.3,0.9-0.6,1.8-0.8,2.8c-0.2,1-0.3,2-0.4,3c-0.1,1-0.1,1.9-0.1,2.6c0,0.3,0,0.8,0,1.4c0,0.6,0.1,1.3,0.1,2
		c0.1,0.7,0.2,1.5,0.3,2.2c0.1,0.8,0.3,1.4,0.5,2c0.2,0.6,0.5,1.1,0.8,1.5s0.7,0.6,1.1,0.6c0.7,0,1.3-0.2,1.8-0.6
		c0.5-0.4,1-1,1.3-1.6c0.4-0.7,0.7-1.4,0.9-2.3c0.2-0.8,0.4-1.7,0.5-2.5s0.2-1.6,0.2-2.4c0-0.8,0.1-1.4,0.1-1.9c0-0.8,0-1.6,0-2.5
		c0-0.9-0.1-1.7-0.3-2.5c-0.2-0.8-0.4-1.6-0.7-2.4c-0.3-0.8-0.8-1.5-1.4-2.1c-0.3-0.3-0.6-0.6-0.9-0.7L387,776.3z"/>
</g>
<g>
	<path d="M788.8,766.4c0,0.6,0,1.2,0,1.8c0,0.6,0,1.2,0,1.9c0,4.1-0.4,8.1-1.3,11.9s-2.2,7.6-3.9,11.4c-0.1,0.2-0.2,0.4-0.3,0.6
		c-0.1,0.3-0.2,0.5-0.4,0.7c-0.2,0.2-0.3,0.5-0.5,0.6c-0.2,0.2-0.4,0.3-0.6,0.3c-0.3,0-0.6-0.1-0.9-0.2c-0.3-0.1-0.5-0.3-0.8-0.6
		c-0.2-0.2-0.4-0.5-0.6-0.8c-0.1-0.3-0.2-0.6-0.2-0.9c0-0.2,0.1-0.5,0.2-1c0.1-0.5,0.3-0.9,0.5-1.4s0.4-1,0.6-1.5
		c0.2-0.5,0.4-0.8,0.5-1.1c0.5-1.5,1-2.9,1.3-4.4c0.4-1.5,0.7-3,1-4.5c-0.9,0.6-1.9,0.9-2.9,0.9c-1.3,0-2.5-0.3-3.4-0.9
		c-0.9-0.6-1.7-1.3-2.3-2.3c-0.6-1-1.1-2-1.4-3.3c-0.3-1.2-0.6-2.5-0.8-3.7c-0.2-1.3-0.3-2.5-0.3-3.7c0-1.2,0-2.3,0-3.2
		c0-0.8,0-1.7,0.1-2.7c0.1-1,0.2-2,0.4-3c0.2-1,0.5-2,0.9-2.9c0.4-0.9,0.8-1.8,1.4-2.5c0.6-0.7,1.3-1.3,2.1-1.7
		c0.8-0.4,1.8-0.7,2.9-0.7c1.1,0,2.1,0.3,3,0.9c0.9,0.6,1.6,1.4,2.3,2.4c0.6,1,1.2,2.1,1.6,3.3c0.4,1.2,0.8,2.5,1.1,3.7
		c0.3,1.2,0.5,2.4,0.6,3.6C788.7,764.6,788.8,765.6,788.8,766.4z M783.7,764.6c0-0.4-0.1-1-0.2-1.7c-0.1-0.7-0.2-1.4-0.3-2.1
		s-0.3-1.5-0.5-2.3c-0.2-0.8-0.4-1.5-0.6-2.2c-0.2-0.7-0.5-1.3-0.8-1.8c-0.3-0.5-0.7-0.9-1.1-1.2c-0.5,0.1-0.9,0.3-1.2,0.7
		c-0.3,0.4-0.6,0.9-0.8,1.6c-0.2,0.6-0.4,1.3-0.6,2.1s-0.2,1.5-0.3,2.2c-0.1,0.7-0.1,1.4-0.1,2c0,0.6,0,1.1,0,1.4c0,0.4,0,1,0,1.7
		c0,0.7,0.1,1.6,0.2,2.5c0.1,0.9,0.2,1.8,0.3,2.8c0.1,0.9,0.3,1.8,0.6,2.6c0.2,0.8,0.5,1.5,0.8,2.1c0.3,0.6,0.7,0.9,1.1,1
		c0.7-0.5,1.2-1.1,1.6-2c0.4-0.9,0.8-1.8,1-2.8c0.3-1,0.5-2,0.6-3.1c0.1-1,0.2-1.9,0.2-2.7c0-0.2,0-0.3,0-0.5
		C783.6,764.9,783.7,764.7,783.7,764.6z"/>
	<path d="M810.6,774.2c0,0.7,0,1.6,0,2.6c0,1-0.1,2.1-0.1,3.3c-0.1,1.2-0.2,2.4-0.3,3.6c-0.2,1.2-0.4,2.4-0.7,3.6
		c-0.3,1.2-0.6,2.3-1,3.4c-0.4,1.1-0.9,2-1.5,2.8c-0.6,0.8-1.3,1.4-2.1,1.9c-0.8,0.5-1.7,0.7-2.8,0.7c-1,0-1.9-0.2-2.6-0.6
		c-0.8-0.4-1.4-1-2-1.6c-0.6-0.7-1-1.4-1.4-2.3c-0.4-0.9-0.7-1.8-1-2.7c-0.3-0.9-0.5-1.9-0.7-2.8c-0.2-0.9-0.3-1.8-0.4-2.5
		c-0.3-2-0.5-4-0.7-6c-0.1-2-0.2-4-0.2-6.1c0-2.1,0.1-4.1,0.3-6.2c0.2-2.1,0.5-4.1,1.1-6c-0.1-0.2-0.2-0.4-0.3-0.6
		c-0.1-0.2-0.2-0.4-0.2-0.6c0-0.1,0-0.2,0-0.3c0-0.1,0.1-0.2,0.1-0.3c0.3-0.8,0.6-1.7,1.1-2.7c0.5-0.9,1-1.8,1.7-2.6
		c0.6-0.8,1.4-1.4,2.2-1.9s1.7-0.7,2.8-0.7c0.9,0,1.7,0.2,2.4,0.5c0.7,0.3,1.3,0.8,1.8,1.4c0.5,0.6,1,1.2,1.4,2
		c0.4,0.7,0.7,1.5,1,2.3c0.3,0.8,0.5,1.6,0.7,2.4c0.2,0.8,0.3,1.6,0.5,2.3c0.4,2.3,0.7,4.7,1,7C810.5,769.5,810.6,771.9,810.6,774.2
		z M799.2,758.1c-0.4,0.9-0.7,1.9-0.9,3c-0.2,1.1-0.4,2.1-0.5,3.2c-0.1,1.1-0.2,2.2-0.3,3.3c0,1.1-0.1,2.1-0.1,3.1
		c0,0.4,0,0.9,0,1.8c0,0.8,0.1,1.8,0.2,2.8c0.1,1.1,0.2,2.2,0.3,3.5c0.1,1.2,0.3,2.5,0.4,3.8c0.2,1.3,0.4,2.5,0.6,3.6
		c0.2,1.2,0.5,2.2,0.8,3.1c0.3,0.9,0.6,1.6,0.9,2.1c0.3,0.5,0.7,0.8,1.1,0.8c0.3,0,0.5-0.1,0.8-0.4c0.2-0.3,0.5-0.6,0.7-1
		s0.4-0.8,0.5-1.1s0.2-0.7,0.3-0.9c0.6-2,1.1-4,1.3-6.1c0.3-2,0.4-4.1,0.4-6.2c0-1.6,0-3.2-0.1-5c-0.1-1.7-0.2-3.5-0.4-5.2
		c-0.2-1.7-0.5-3.5-0.8-5.2c-0.3-1.7-0.8-3.3-1.3-4.8c-0.2-0.5-0.4-1-0.6-1.5c-0.2-0.5-0.5-0.9-0.9-1.3c0,0-0.2,0.3-0.4,0.7
		c-0.3,0.4-0.5,0.9-0.8,1.5c-0.3,0.5-0.6,1-0.8,1.5C799.4,757.7,799.3,758,799.2,758.1z"/>
	<path d="M832.3,774.2c0,0.7,0,1.6,0,2.6c0,1-0.1,2.1-0.1,3.3c-0.1,1.2-0.2,2.4-0.3,3.6c-0.2,1.2-0.4,2.4-0.7,3.6
		c-0.3,1.2-0.6,2.3-1,3.4c-0.4,1.1-0.9,2-1.5,2.8c-0.6,0.8-1.3,1.4-2.1,1.9c-0.8,0.5-1.7,0.7-2.8,0.7c-1,0-1.9-0.2-2.6-0.6
		c-0.8-0.4-1.4-1-2-1.6c-0.6-0.7-1-1.4-1.4-2.3c-0.4-0.9-0.7-1.8-1-2.7c-0.3-0.9-0.5-1.9-0.7-2.8c-0.2-0.9-0.3-1.8-0.4-2.5
		c-0.3-2-0.5-4-0.7-6c-0.1-2-0.2-4-0.2-6.1c0-2.1,0.1-4.1,0.3-6.2c0.2-2.1,0.5-4.1,1.1-6c-0.1-0.2-0.2-0.4-0.3-0.6
		c-0.1-0.2-0.2-0.4-0.2-0.6c0-0.1,0-0.2,0-0.3c0-0.1,0.1-0.2,0.1-0.3c0.3-0.8,0.6-1.7,1.1-2.7c0.5-0.9,1-1.8,1.7-2.6
		c0.6-0.8,1.4-1.4,2.2-1.9s1.7-0.7,2.8-0.7c0.9,0,1.7,0.2,2.4,0.5c0.7,0.3,1.3,0.8,1.8,1.4c0.5,0.6,1,1.2,1.4,2
		c0.4,0.7,0.7,1.5,1,2.3c0.3,0.8,0.5,1.6,0.7,2.4c0.2,0.8,0.3,1.6,0.5,2.3c0.4,2.3,0.7,4.7,1,7C832.2,769.5,832.3,771.9,832.3,774.2
		z M820.9,758.1c-0.4,0.9-0.7,1.9-0.9,3c-0.2,1.1-0.4,2.1-0.5,3.2c-0.1,1.1-0.2,2.2-0.3,3.3c0,1.1-0.1,2.1-0.1,3.1
		c0,0.4,0,0.9,0,1.8c0,0.8,0.1,1.8,0.2,2.8c0.1,1.1,0.2,2.2,0.3,3.5c0.1,1.2,0.3,2.5,0.4,3.8c0.2,1.3,0.4,2.5,0.6,3.6
		c0.2,1.2,0.5,2.2,0.8,3.1c0.3,0.9,0.6,1.6,0.9,2.1c0.3,0.5,0.7,0.8,1.1,0.8c0.3,0,0.5-0.1,0.8-0.4c0.2-0.3,0.5-0.6,0.7-1
		s0.4-0.8,0.5-1.1s0.2-0.7,0.3-0.9c0.6-2,1.1-4,1.3-6.1c0.3-2,0.4-4.1,0.4-6.2c0-1.6,0-3.2-0.1-5c-0.1-1.7-0.2-3.5-0.4-5.2
		c-0.2-1.7-0.5-3.5-0.8-5.2c-0.3-1.7-0.8-3.3-1.3-4.8c-0.2-0.5-0.4-1-0.6-1.5c-0.2-0.5-0.5-0.9-0.9-1.3c0,0-0.2,0.3-0.4,0.7
		c-0.3,0.4-0.5,0.9-0.8,1.5c-0.3,0.5-0.6,1-0.8,1.5C821.1,757.7,820.9,758,820.9,758.1z"/>
	<path d="M835.4,791.4c0-0.2,0.1-0.4,0.2-0.5c0.1-0.1,0.3-0.2,0.6-0.3c0.2-0.1,0.4-0.1,0.7-0.1c0.2,0,0.4,0,0.6,0c0.2,0,0.5,0,0.7,0
		c0.3,0,0.6,0.1,0.8,0.1c0.3,0.1,0.5,0.2,0.7,0.3c0.2,0.2,0.3,0.4,0.3,0.7c0,0.1,0,0.3,0,0.7c0,0.3,0,0.7,0,1.1c0,0.4,0,0.8,0,1.1
		c0,0.3,0,0.5,0,0.5c-0.2,0.2-0.4,0.4-0.7,0.4c-0.3,0-0.5,0-0.7,0c-0.7,0-1.1,0-1.5-0.1c-0.3-0.1-0.6-0.2-0.7-0.4
		c-0.1-0.2-0.2-0.5-0.3-0.8c0-0.3-0.1-0.8-0.2-1.3c-0.1-0.3-0.1-0.5-0.2-0.8C835.4,791.9,835.4,791.7,835.4,791.4z"/>
	<path d="M850.8,793.6c0,0.5-0.2,0.8-0.5,1c-0.3,0.2-0.7,0.2-1.1,0.2c-0.3,0-0.7,0-1.1-0.1c-0.4-0.1-0.8-0.2-1.1-0.3
		c-0.4-0.2-0.7-0.4-0.9-0.7s-0.3-0.5-0.4-0.9s-0.1-0.7-0.1-1c0-0.3,0-0.7,0-1.1c-0.4-6.5-0.7-13-0.9-19.4
		c-0.2-6.4-0.3-12.9-0.3-19.4c0-0.4,0.1-0.8,0.2-1s0.4-0.4,1-0.4c0.6,0,1.2,0.1,1.8,0.4c0.6,0.3,1,0.7,1.3,1.2
		c0.1,0.2,0.1,0.5,0.2,0.9c0,0.4,0.1,0.8,0.1,1.3c0,0.4,0,0.9,0,1.3c0,0.4,0,0.8,0,1c0.2,5.5,0.4,10.9,0.6,16.3
		c0.2,5.4,0.6,10.9,1.1,16.3c0.1,0.7,0.2,1.5,0.3,2.2C850.8,792.1,850.8,792.9,850.8,793.6z"/>
	<path d="M872.9,781.2c0,1,0,2.1-0.1,3.3c-0.1,1.2-0.3,2.3-0.5,3.4s-0.6,2.2-1,3.3c-0.4,1-1,2-1.7,2.7c-0.7,0.8-1.5,1.4-2.5,1.9
		c-1,0.5-2.1,0.7-3.5,0.7c-1.2,0-2.2-0.2-3-0.6c-0.8-0.4-1.6-1-2.1-1.7c-0.6-0.7-1.1-1.5-1.4-2.4c-0.4-0.9-0.7-1.9-0.9-2.9
		c-0.2-1-0.4-2-0.4-3c-0.1-1-0.1-1.9-0.1-2.8c0-1.1,0-2.2,0.1-3.3c0.1-1.1,0.2-2.2,0.5-3.3c0.2-1.1,0.5-2.2,0.9-3.2
		c0.4-1,0.9-2,1.6-3c-0.6-0.5-1.1-1.1-1.5-1.7c-0.4-0.7-0.7-1.4-1-2.2c-0.2-0.8-0.4-1.5-0.5-2.3c-0.1-0.8-0.1-1.6-0.1-2.3
		c0-0.9,0.1-1.8,0.2-2.7c0.1-0.9,0.3-1.9,0.6-2.8c0.3-0.9,0.6-1.8,1-2.6c0.4-0.8,0.9-1.6,1.5-2.3c0.1-0.1,0.2-0.3,0.4-0.4
		c0.2-0.2,0.3-0.3,0.5-0.5c0.2-0.1,0.4-0.3,0.6-0.4c0.2-0.1,0.4-0.2,0.5-0.2c0.3,0,0.6,0.1,0.8,0.3c0.4-0.2,0.8-0.4,1.3-0.5
		c0.5-0.1,0.9-0.2,1.3-0.2c1.2,0,2.3,0.3,3.1,1c0.8,0.7,1.5,1.5,2,2.5c0.5,1,0.9,2.1,1.1,3.2c0.2,1.2,0.3,2.3,0.3,3.3
		c0,0.8-0.1,1.5-0.2,2.3c-0.1,0.8-0.3,1.6-0.5,2.4c-0.2,0.8-0.5,1.6-0.8,2.3c-0.3,0.7-0.7,1.4-1.1,2c1,0.7,1.9,1.5,2.5,2.5
		c0.6,1,1.1,2,1.5,3.2c0.3,1.1,0.6,2.3,0.7,3.5C872.8,778.8,872.9,780,872.9,781.2z M861.7,767.5c0.6-0.3,1.1-0.4,1.7-0.4
		c0.4-0.4,0.7-1,1-1.6c0.3-0.6,0.5-1.3,0.7-2s0.3-1.4,0.4-2.1c0.1-0.7,0.1-1.3,0.1-1.9c0-0.4,0-0.9-0.1-1.4
		c-0.1-0.6-0.2-1.1-0.3-1.7c-0.1-0.6-0.3-1.1-0.5-1.6c-0.2-0.5-0.5-0.9-0.8-1.2c-0.1,0.2-0.3,0.3-0.3,0.5c-0.1,0.2-0.2,0.3-0.3,0.5
		c-0.1,0.1-0.2,0.2-0.4,0.3c-0.2,0.1-0.4,0.1-0.7,0.1c-0.2,0-0.3,0-0.5-0.1c-0.2-0.1-0.3-0.1-0.5-0.2c-0.4,0.9-0.8,2-1,3.2
		c-0.2,1.2-0.3,2.3-0.3,3.3c0,0.4,0,0.9,0.1,1.5c0.1,0.6,0.2,1.2,0.3,1.8c0.1,0.6,0.3,1.2,0.5,1.7
		C861.2,766.9,861.4,767.3,861.7,767.5z M864.1,771.3c-0.2,0.2-0.3,0.3-0.5,0.5c-0.2,0.1-0.3,0.3-0.5,0.5c-0.5,0.6-1,1.3-1.3,2.2
		c-0.3,0.9-0.6,1.8-0.8,2.8c-0.2,1-0.3,2-0.4,3c-0.1,1-0.1,1.9-0.1,2.6c0,0.3,0,0.8,0,1.4c0,0.6,0.1,1.3,0.1,2
		c0.1,0.7,0.2,1.5,0.3,2.2c0.1,0.8,0.3,1.4,0.5,2c0.2,0.6,0.5,1.1,0.8,1.5s0.7,0.6,1.1,0.6c0.7,0,1.3-0.2,1.8-0.6
		c0.5-0.4,1-1,1.3-1.6c0.4-0.7,0.7-1.4,0.9-2.3c0.2-0.8,0.4-1.7,0.5-2.5s0.2-1.6,0.2-2.4c0-0.8,0.1-1.4,0.1-1.9c0-0.8,0-1.6,0-2.5
		c0-0.9-0.1-1.7-0.3-2.5c-0.2-0.8-0.4-1.6-0.7-2.4c-0.3-0.8-0.8-1.5-1.4-2.1c-0.3-0.3-0.6-0.6-0.9-0.7L864.1,771.3z"/>
	<path d="M893.1,782.1c0,0.8,0,1.7-0.1,2.7c-0.1,1-0.2,2-0.4,3.1c-0.2,1-0.5,2-0.9,3s-0.8,1.8-1.4,2.6s-1.3,1.4-2.1,1.8
		s-1.8,0.7-2.9,0.7c-1.1,0-2.1-0.3-3-0.9c-0.9-0.6-1.6-1.4-2.3-2.5c-0.6-1-1.2-2.2-1.6-3.4s-0.8-2.5-1-3.8c-0.3-1.3-0.5-2.5-0.6-3.7
		c-0.1-1.2-0.2-2.2-0.2-3c0-0.6,0-1.1,0-1.7c0-0.6,0-1.2,0-1.8c0-4.2,0.4-8.2,1.3-12.1c0.9-3.9,2.2-7.7,3.9-11.5
		c0.1-0.2,0.1-0.4,0.3-0.7c0.1-0.3,0.2-0.5,0.4-0.8c0.2-0.3,0.3-0.5,0.5-0.7c0.2-0.2,0.4-0.3,0.6-0.3c0.3,0,0.6,0.1,0.9,0.2
		c0.3,0.1,0.6,0.3,0.8,0.6c0.2,0.2,0.4,0.5,0.6,0.8c0.1,0.3,0.2,0.6,0.2,0.9c0,0.3-0.1,0.6-0.3,1.2c-0.2,0.5-0.4,1.1-0.6,1.7
		c-0.2,0.6-0.5,1.2-0.7,1.7c-0.2,0.6-0.4,1-0.5,1.3c-0.4,1.4-0.9,2.8-1.2,4.2c-0.4,1.4-0.7,2.8-0.9,4.3c0.4-0.3,0.9-0.6,1.4-0.7
		c0.5-0.2,1.1-0.2,1.6-0.2c1.3,0,2.4,0.3,3.3,0.9c0.9,0.6,1.7,1.4,2.3,2.3c0.6,1,1.1,2.1,1.4,3.3c0.3,1.2,0.6,2.5,0.8,3.7
		c0.2,1.3,0.3,2.5,0.3,3.7C893.1,780.1,893.1,781.2,893.1,782.1z M881.7,780.7c0,0.4,0.1,1,0.2,1.6c0.1,0.7,0.2,1.4,0.3,2.2
		s0.3,1.6,0.5,2.4c0.2,0.8,0.4,1.6,0.6,2.3c0.2,0.7,0.5,1.3,0.8,1.9c0.3,0.5,0.7,0.9,1.1,1.1c0.4,0,0.8-0.3,1.2-0.7
		c0.3-0.4,0.6-0.9,0.8-1.6c0.2-0.6,0.4-1.3,0.6-2c0.1-0.7,0.2-1.5,0.3-2.2c0.1-0.7,0.1-1.4,0.1-2c0-0.6,0-1.1,0-1.4c0-0.4,0-1,0-1.8
		c0-0.8-0.1-1.6-0.2-2.6c-0.1-0.9-0.2-1.9-0.3-2.9c-0.1-1-0.3-1.9-0.5-2.7c-0.2-0.8-0.5-1.5-0.8-2.1c-0.3-0.6-0.7-1-1.1-1.1
		c-0.7,0.5-1.2,1.2-1.6,2.1c-0.4,0.9-0.8,1.9-1,2.9c-0.3,1-0.5,2.1-0.6,3.1c-0.1,1-0.2,1.9-0.2,2.7c0,0.2,0,0.3,0,0.4
		S881.7,780.6,881.7,780.7z"/>
</g>
<g>
	<path d="M1205.8,793.6c0,0.5-0.2,0.8-0.5,1c-0.3,0.2-0.7,0.2-1.1,0.2c-0.3,0-0.7,0-1.1-0.1c-0.4-0.1-0.8-0.2-1.1-0.3
		c-0.4-0.2-0.7-0.4-0.9-0.7c-0.2-0.3-0.3-0.5-0.4-0.9s-0.1-0.7-0.1-1c0-0.3,0-0.7,0-1.1c-0.4-6.5-0.7-13-0.9-19.4
		c-0.2-6.4-0.3-12.9-0.3-19.4c0-0.4,0.1-0.8,0.2-1s0.4-0.4,1-0.4c0.6,0,1.2,0.1,1.8,0.4c0.6,0.3,1,0.7,1.3,1.2
		c0.1,0.2,0.1,0.5,0.2,0.9c0,0.4,0.1,0.8,0.1,1.3c0,0.4,0,0.9,0,1.3c0,0.4,0,0.8,0,1c0.2,5.5,0.4,10.9,0.6,16.3
		c0.2,5.4,0.6,10.9,1.1,16.3c0.1,0.7,0.2,1.5,0.3,2.2C1205.8,792.1,1205.8,792.9,1205.8,793.6z"/>
	<path d="M1222.4,794c0,0.4-0.1,0.8-0.2,1s-0.4,0.3-1,0.3c-0.3,0-0.6,0-0.9-0.1c-0.3-0.1-0.6-0.2-0.9-0.3c-0.3-0.1-0.5-0.3-0.8-0.5
		c-0.2-0.2-0.4-0.4-0.5-0.7c-0.1-0.1-0.2-0.5-0.2-1.1c-0.1-0.6-0.1-1.3-0.2-2.2s-0.1-1.7-0.2-2.7c-0.1-1-0.1-1.9-0.2-2.8
		c-0.1-0.9-0.1-1.7-0.1-2.3c0-0.7-0.1-1.1-0.1-1.4c-0.4,0-0.9,0-1.3,0c-0.4,0-0.9,0-1.3,0c-0.5,0-1.1,0-1.8,0
		c-0.7,0-1.5-0.1-2.2-0.3c-0.7-0.2-1.3-0.4-1.8-0.8c-0.5-0.4-0.7-0.9-0.7-1.6c0-0.7,0.1-1.5,0.3-2.2c0.2-0.7,0.4-1.5,0.6-2.2
		c1-3.5,2.1-6.9,3.2-10.3c1.1-3.4,2.2-6.8,3.3-10.3c-0.1-0.6-0.1-1.2-0.2-1.8c-0.1-0.6-0.1-1.2-0.1-1.8c0-0.5,0.2-0.8,0.5-1
		c0.3-0.1,0.7-0.2,1.2-0.2c0.4,0,0.8,0.1,1.2,0.2c0.4,0.1,0.9,0.3,1.2,0.5c0.4,0.2,0.7,0.5,1,0.8c0.3,0.3,0.4,0.7,0.4,1.2
		c0,0.1,0,0.2-0.1,0.3c0,0.1-0.1,0.2-0.1,0.3c0,1.2,0,2.4,0.1,3.7c0.1,1.2,0.1,2.4,0.2,3.6l0.9,17.5c0.7-0.1,1.4-0.2,2-0.3
		c0.7-0.1,1.3-0.2,2-0.2c0.4,0,0.8,0.1,1,0.3c0.3,0.2,0.4,0.5,0.4,0.9c0,0.8-0.1,1.5-0.4,1.9c-0.3,0.4-0.7,0.8-1.2,1
		c-0.5,0.2-1,0.3-1.7,0.4c-0.6,0-1.3,0.1-1.9,0.1l0.4,7.2c0,1,0.1,2,0.2,3C1222.4,792,1222.4,793,1222.4,794z M1216.9,777.2
		c-0.1-1.9-0.2-3.8-0.3-5.7c-0.1-1.9-0.2-3.7-0.3-5.6c-0.5,1.8-1.1,3.7-1.7,5.6c-0.6,1.9-1.1,3.8-1.4,5.7h0.8c0.5,0,1,0,1.5,0
		S1216.4,777.2,1216.9,777.2z"/>
	<path d="M1245.6,775.6c0,1,0,2.2-0.1,3.7c-0.1,1.4-0.2,2.9-0.4,4.4c-0.2,1.5-0.5,3.1-0.9,4.6c-0.4,1.5-0.9,2.9-1.6,4.1
		c-0.7,1.2-1.5,2.2-2.5,2.9s-2.2,1.1-3.6,1.1c-1.2,0-2.2-0.2-3.1-0.6c-0.9-0.4-1.7-1-2.4-1.7c-0.7-0.7-1.2-1.5-1.7-2.4
		c-0.5-0.9-0.8-1.9-1-3c-0.1-0.4-0.1-0.8-0.2-1.1s-0.1-0.8-0.1-1.1c0-0.5,0.1-0.9,0.3-1.3c0.2-0.3,0.6-0.5,1.2-0.5
		c0.3,0,0.6,0,1,0.1c0.4,0.1,0.7,0.2,1.1,0.4c0.3,0.2,0.7,0.4,1,0.6c0.3,0.2,0.5,0.5,0.6,0.8c0.2,0.4,0.4,1,0.4,1.7
		c0.1,0.7,0.2,1.3,0.4,2c0.2,0.6,0.5,1.2,0.8,1.6c0.4,0.4,0.9,0.7,1.7,0.7c0.6,0,1.1-0.4,1.6-1.1s0.8-1.7,1.2-2.9
		c0.3-1.2,0.6-2.5,0.8-3.9c0.2-1.4,0.4-2.8,0.5-4.2c0.1-1.3,0.2-2.5,0.3-3.6c0.1-1.1,0.1-1.9,0.1-2.3c0-0.5,0-1.1,0-1.9
		s-0.1-1.6-0.2-2.5c-0.1-0.9-0.3-1.8-0.5-2.7c-0.2-0.9-0.5-1.7-0.8-2.4c-0.3-0.7-0.7-1.3-1.2-1.7c-0.5-0.5-1.1-0.7-1.7-0.7
		c-0.8,0-1.5,0.2-2.3,0.7c0,0.2,0.1,0.3,0.1,0.5c0,0.1,0,0.3,0,0.5c0,1-0.5,1.5-1.5,1.5c-0.1,0-0.3,0-0.4,0c-0.1,0-0.3,0-0.4,0
		c-0.2,0.1-0.5,0.1-0.8,0c-0.3-0.1-0.6-0.3-0.9-0.4c-0.3-0.2-0.6-0.4-0.8-0.7s-0.4-0.5-0.4-0.7c-0.2-0.6-0.2-1.3-0.2-2
		c0-0.7,0-1.3,0-2c0-0.9,0-1.7-0.1-2.6c0-0.8-0.1-1.7-0.1-2.6c-0.1-0.1-0.1-0.1-0.1-0.3c0-0.1,0-0.2,0-0.3c0-0.5,0-1,0.1-1.4
		c0.1-0.4,0.2-0.7,0.4-1s0.5-0.4,0.9-0.6c0.4-0.1,0.9-0.2,1.5-0.2c0.9,0,1.8-0.1,2.7-0.1s1.8-0.1,2.7-0.2c0.4-0.1,0.9-0.1,1.3-0.2
		c0.4-0.1,0.9-0.1,1.4-0.1c0.4,0,0.7,0.1,0.9,0.4s0.2,0.6,0.2,1c0,0.4,0,0.8-0.1,1.1c-0.1,0.3-0.3,0.6-0.7,0.9
		c-0.2,0.1-0.6,0.2-1.2,0.3c-0.6,0.1-1.3,0.2-2,0.4c-0.7,0.1-1.4,0.2-2,0.3c-0.7,0.1-1.1,0.1-1.4,0.1l0.5,4.6c0.5-0.2,1-0.3,1.5-0.3
		c0.5-0.1,1-0.1,1.5-0.1c1.3,0,2.5,0.3,3.5,0.8c1,0.6,1.8,1.3,2.5,2.2c0.7,0.9,1.2,1.9,1.6,3.1s0.7,2.3,0.9,3.6
		c0.2,1.2,0.4,2.5,0.4,3.7S1245.6,774.6,1245.6,775.6z"/>
	<path d="M1248.3,791.4c0-0.2,0.1-0.4,0.2-0.5c0.1-0.1,0.3-0.2,0.6-0.3c0.2-0.1,0.4-0.1,0.7-0.1c0.2,0,0.4,0,0.6,0
		c0.2,0,0.5,0,0.7,0c0.3,0,0.6,0.1,0.8,0.1c0.3,0.1,0.5,0.2,0.7,0.3c0.2,0.2,0.3,0.4,0.3,0.7c0,0.1,0,0.3,0,0.7c0,0.3,0,0.7,0,1.1
		c0,0.4,0,0.8,0,1.1c0,0.3,0,0.5,0,0.5c-0.2,0.2-0.4,0.4-0.7,0.4c-0.3,0-0.5,0-0.7,0c-0.7,0-1.1,0-1.5-0.1c-0.3-0.1-0.6-0.2-0.7-0.4
		c-0.1-0.2-0.2-0.5-0.3-0.8c0-0.3-0.1-0.8-0.2-1.3c-0.1-0.3-0.1-0.5-0.2-0.8C1248.3,791.9,1248.3,791.7,1248.3,791.4z"/>
	<path d="M1273.7,781.2c0,1,0,2.1-0.1,3.3c-0.1,1.2-0.3,2.3-0.5,3.4s-0.6,2.2-1,3.3c-0.4,1-1,2-1.7,2.7c-0.7,0.8-1.5,1.4-2.5,1.9
		c-1,0.5-2.1,0.7-3.5,0.7c-1.2,0-2.2-0.2-3-0.6c-0.8-0.4-1.6-1-2.1-1.7c-0.6-0.7-1.1-1.5-1.4-2.4c-0.4-0.9-0.7-1.9-0.9-2.9
		c-0.2-1-0.4-2-0.4-3c-0.1-1-0.1-1.9-0.1-2.8c0-1.1,0-2.2,0.1-3.3c0.1-1.1,0.2-2.2,0.5-3.3c0.2-1.1,0.5-2.2,0.9-3.2
		c0.4-1,0.9-2,1.6-3c-0.6-0.5-1.1-1.1-1.5-1.7c-0.4-0.7-0.7-1.4-1-2.2c-0.2-0.8-0.4-1.5-0.5-2.3c-0.1-0.8-0.1-1.6-0.1-2.3
		c0-0.9,0.1-1.8,0.2-2.7c0.1-0.9,0.3-1.9,0.6-2.8c0.3-0.9,0.6-1.8,1-2.6s0.9-1.6,1.5-2.3c0.1-0.1,0.2-0.3,0.4-0.4
		c0.2-0.2,0.3-0.3,0.5-0.5c0.2-0.1,0.4-0.3,0.6-0.4c0.2-0.1,0.4-0.2,0.5-0.2c0.3,0,0.6,0.1,0.8,0.3c0.4-0.2,0.8-0.4,1.3-0.5
		c0.5-0.1,0.9-0.2,1.3-0.2c1.2,0,2.3,0.3,3.1,1c0.8,0.7,1.5,1.5,2,2.5c0.5,1,0.9,2.1,1.1,3.2c0.2,1.2,0.3,2.3,0.3,3.3
		c0,0.8-0.1,1.5-0.2,2.3c-0.1,0.8-0.3,1.6-0.5,2.4c-0.2,0.8-0.5,1.6-0.8,2.3c-0.3,0.7-0.7,1.4-1.1,2c1,0.7,1.9,1.5,2.5,2.5
		c0.6,1,1.1,2,1.5,3.2c0.3,1.1,0.6,2.3,0.7,3.5C1273.7,778.8,1273.7,780,1273.7,781.2z M1262.6,767.5c0.6-0.3,1.1-0.4,1.7-0.4
		c0.4-0.4,0.7-1,1-1.6c0.3-0.6,0.5-1.3,0.7-2s0.3-1.4,0.4-2.1c0.1-0.7,0.1-1.3,0.1-1.9c0-0.4,0-0.9-0.1-1.4
		c-0.1-0.6-0.2-1.1-0.3-1.7c-0.1-0.6-0.3-1.1-0.5-1.6c-0.2-0.5-0.5-0.9-0.8-1.2c-0.1,0.2-0.3,0.3-0.3,0.5c-0.1,0.2-0.2,0.3-0.3,0.5
		c-0.1,0.1-0.2,0.2-0.4,0.3c-0.2,0.1-0.4,0.1-0.7,0.1c-0.2,0-0.3,0-0.5-0.1s-0.3-0.1-0.5-0.2c-0.4,0.9-0.8,2-1,3.2
		c-0.2,1.2-0.3,2.3-0.3,3.3c0,0.4,0,0.9,0.1,1.5c0.1,0.6,0.2,1.2,0.3,1.8c0.1,0.6,0.3,1.2,0.5,1.7
		C1262,766.9,1262.3,767.3,1262.6,767.5z M1265,771.3c-0.2,0.2-0.3,0.3-0.5,0.5c-0.2,0.1-0.3,0.3-0.5,0.5c-0.5,0.6-1,1.3-1.3,2.2
		c-0.3,0.9-0.6,1.8-0.8,2.8c-0.2,1-0.3,2-0.4,3c-0.1,1-0.1,1.9-0.1,2.6c0,0.3,0,0.8,0,1.4c0,0.6,0.1,1.3,0.1,2
		c0.1,0.7,0.2,1.5,0.3,2.2s0.3,1.4,0.5,2c0.2,0.6,0.5,1.1,0.8,1.5s0.7,0.6,1.1,0.6c0.7,0,1.3-0.2,1.8-0.6c0.5-0.4,1-1,1.3-1.6
		c0.4-0.7,0.7-1.4,0.9-2.3c0.2-0.8,0.4-1.7,0.5-2.5s0.2-1.6,0.2-2.4s0.1-1.4,0.1-1.9c0-0.8,0-1.6,0-2.5c0-0.9-0.1-1.7-0.3-2.5
		c-0.2-0.8-0.4-1.6-0.7-2.4s-0.8-1.5-1.4-2.1c-0.3-0.3-0.6-0.6-0.9-0.7L1265,771.3z"/>
	<path d="M1285,793.6c0,0.5-0.2,0.8-0.5,1c-0.3,0.2-0.7,0.2-1.1,0.2c-0.3,0-0.7,0-1.1-0.1c-0.4-0.1-0.8-0.2-1.1-0.3
		c-0.4-0.2-0.7-0.4-0.9-0.7c-0.2-0.3-0.3-0.5-0.4-0.9s-0.1-0.7-0.1-1c0-0.3,0-0.7,0-1.1c-0.4-6.5-0.7-13-0.9-19.4
		c-0.2-6.4-0.3-12.9-0.3-19.4c0-0.4,0.1-0.8,0.2-1s0.4-0.4,1-0.4c0.6,0,1.2,0.1,1.8,0.4c0.6,0.3,1,0.7,1.3,1.2
		c0.1,0.2,0.1,0.5,0.2,0.9c0,0.4,0.1,0.8,0.1,1.3c0,0.4,0,0.9,0,1.3c0,0.4,0,0.8,0,1c0.2,5.5,0.4,10.9,0.6,16.3
		c0.2,5.4,0.6,10.9,1.1,16.3c0.1,0.7,0.2,1.5,0.3,2.2C1284.9,792.1,1285,792.9,1285,793.6z"/>
	<path d="M1307.3,779.8c0,1.1-0.1,2.3-0.2,3.5c-0.1,1.2-0.4,2.4-0.7,3.6s-0.7,2.3-1.2,3.4c-0.5,1.1-1.1,2.1-1.9,2.9
		c-0.8,0.8-1.7,1.5-2.7,2s-2.2,0.7-3.6,0.7c-0.9,0-1.8-0.1-2.6-0.3c-0.8-0.2-1.6-0.6-2.4-1.1c-0.5-0.4-1-0.8-1.5-1.3
		c-0.5-0.5-0.9-1.1-1.2-1.7c-0.3-0.6-0.6-1.3-0.8-1.9c-0.2-0.7-0.3-1.3-0.3-2c0-0.9,0.5-1.3,1.4-1.3c0.4,0,0.9,0,1.4,0.1
		c0.6,0.1,1,0.2,1.4,0.4c0.3,0.2,0.6,0.4,0.7,0.6c0.2,0.2,0.3,0.5,0.4,0.7s0.2,0.5,0.3,0.8c0.1,0.3,0.2,0.6,0.3,0.9
		c0.3,0.6,0.6,1.1,1.1,1.6c0.5,0.5,1.1,0.7,1.8,0.7c0.7,0,1.4-0.2,1.9-0.7c0.6-0.5,1.1-1.1,1.5-1.9c0.4-0.8,0.8-1.6,1-2.6
		c0.3-1,0.5-1.9,0.7-2.9c0.2-1,0.3-1.8,0.4-2.7c0.1-0.8,0.1-1.5,0.1-2c0-0.8-0.1-1.6-0.2-2.6c-0.1-0.9-0.3-1.8-0.7-2.6
		c-0.3-0.8-0.8-1.4-1.4-1.9s-1.4-0.7-2.4-0.7h-0.4c-0.1,0.2-0.3,0.4-0.5,0.6s-0.4,0.5-0.6,0.7c-0.2,0.2-0.4,0.4-0.7,0.6
		c-0.2,0.1-0.5,0.2-0.7,0.2c-0.3,0-0.6-0.1-1-0.3s-0.6-0.4-0.9-0.7c-0.3-0.3-0.5-0.6-0.6-0.9c-0.2-0.3-0.2-0.7-0.2-1
		c0-0.1,0-0.2,0-0.3c0-0.1,0-0.2,0.1-0.2c0.3-0.6,0.8-1.2,1.3-1.8c0.5-0.6,1-1.1,1.5-1.7c0.5-0.6,0.9-1.3,1.4-2.1
		c0.5-0.8,0.9-1.6,1.3-2.4c0.4-0.8,0.7-1.7,1-2.6c0.3-0.9,0.4-1.7,0.4-2.5c0-0.5-0.1-1-0.2-1.5c-0.1-0.5-0.3-0.9-0.6-1.2
		c-0.3-0.3-0.6-0.6-1-0.8c-0.4-0.2-0.9-0.3-1.5-0.3c-0.5,0-0.9,0.1-1.3,0.3c-0.4,0.2-0.7,0.5-1,0.8c-0.3,0.3-0.5,0.7-0.6,1.1
		c-0.2,0.4-0.3,0.8-0.4,1.3c-0.1,0.3-0.2,0.6-0.2,1c0,0.3-0.1,0.6-0.2,0.9c-0.1,0.3-0.2,0.5-0.4,0.6c-0.1,0.1-0.4,0.2-0.7,0.2
		c-0.4,0-0.7-0.1-1.1-0.2c-0.4-0.1-0.7-0.3-1-0.5c-0.3-0.2-0.5-0.5-0.7-0.8c-0.2-0.3-0.3-0.7-0.3-1.1c0-0.6,0.1-1.3,0.4-2
		c0.3-0.7,0.6-1.4,0.9-1.9c0.7-1.1,1.6-2,2.8-2.5c1.2-0.6,2.4-0.8,3.7-0.8c1.2,0,2.2,0.2,3.2,0.5c1,0.3,1.8,0.9,2.5,1.5
		c0.7,0.7,1.2,1.5,1.6,2.4s0.6,2,0.6,3.2c0,1-0.1,2-0.3,2.9s-0.5,1.9-0.9,2.8c-0.4,0.9-0.8,1.8-1.3,2.7c-0.5,0.9-1,1.7-1.6,2.5
		c1.4,0.3,2.6,0.8,3.5,1.6c0.9,0.8,1.7,1.7,2.2,2.8c0.5,1.1,0.9,2.3,1.2,3.5S1307.3,778.6,1307.3,779.8z"/>
</g>
<g>
	<path d="M1558.2,793.8c0,0.5-0.2,0.8-0.5,1c-0.3,0.2-0.7,0.2-1.1,0.2c-0.3,0-0.7,0-1.1-0.1c-0.4-0.1-0.8-0.2-1.1-0.3
		c-0.4-0.2-0.7-0.4-0.9-0.7s-0.3-0.5-0.4-0.9s-0.1-0.7-0.1-1c0-0.3,0-0.7,0-1.1c-0.4-6.5-0.7-13-0.9-19.4
		c-0.2-6.4-0.3-12.9-0.3-19.4c0-0.4,0.1-0.8,0.2-1s0.4-0.4,1-0.4c0.6,0,1.2,0.1,1.8,0.4c0.6,0.3,1,0.7,1.3,1.2
		c0.1,0.2,0.1,0.5,0.2,0.9c0,0.4,0.1,0.8,0.1,1.3c0,0.4,0,0.9,0,1.3c0,0.4,0,0.8,0,1c0.2,5.5,0.4,10.9,0.6,16.3
		c0.2,5.4,0.6,10.9,1.1,16.3c0.1,0.7,0.2,1.5,0.3,2.2C1558.1,792.3,1558.2,793,1558.2,793.8z"/>
	<path d="M1580.2,774.4c0,0.7,0,1.6,0,2.6s-0.1,2.1-0.1,3.3c-0.1,1.2-0.2,2.4-0.3,3.6c-0.2,1.2-0.4,2.4-0.7,3.6
		c-0.3,1.2-0.6,2.3-1,3.4c-0.4,1.1-0.9,2-1.5,2.8c-0.6,0.8-1.3,1.4-2.1,1.9c-0.8,0.5-1.7,0.7-2.8,0.7c-1,0-1.9-0.2-2.6-0.6
		c-0.8-0.4-1.4-1-2-1.6c-0.6-0.7-1-1.4-1.4-2.3c-0.4-0.9-0.7-1.8-1-2.7c-0.3-0.9-0.5-1.9-0.7-2.8c-0.2-0.9-0.3-1.8-0.4-2.5
		c-0.3-2-0.5-4-0.7-6c-0.1-2-0.2-4-0.2-6.1c0-2.1,0.1-4.1,0.3-6.2c0.2-2.1,0.5-4.1,1.1-6c-0.1-0.2-0.2-0.4-0.3-0.6s-0.2-0.4-0.2-0.6
		c0-0.1,0-0.2,0-0.3c0-0.1,0.1-0.2,0.1-0.3c0.3-0.8,0.6-1.7,1.1-2.7c0.5-0.9,1-1.8,1.7-2.6c0.6-0.8,1.4-1.4,2.2-1.9
		c0.8-0.5,1.7-0.7,2.8-0.7c0.9,0,1.7,0.2,2.4,0.5c0.7,0.3,1.3,0.8,1.8,1.4c0.5,0.6,1,1.2,1.4,2c0.4,0.7,0.7,1.5,1,2.3
		c0.3,0.8,0.5,1.6,0.7,2.4c0.2,0.8,0.3,1.6,0.5,2.3c0.4,2.3,0.7,4.7,1,7C1580.1,769.7,1580.2,772,1580.2,774.4z M1568.9,758.3
		c-0.4,0.9-0.7,1.9-0.9,3c-0.2,1.1-0.4,2.1-0.5,3.2c-0.1,1.1-0.2,2.2-0.3,3.3c0,1.1-0.1,2.1-0.1,3.1c0,0.4,0,0.9,0,1.8
		c0,0.8,0.1,1.8,0.2,2.8c0.1,1.1,0.2,2.2,0.3,3.5c0.1,1.2,0.3,2.5,0.4,3.8c0.2,1.3,0.4,2.5,0.6,3.6c0.2,1.2,0.5,2.2,0.8,3.1
		c0.3,0.9,0.6,1.6,0.9,2.1c0.3,0.5,0.7,0.8,1.1,0.8c0.3,0,0.5-0.1,0.8-0.4c0.2-0.3,0.5-0.6,0.7-1c0.2-0.4,0.4-0.8,0.5-1.1
		s0.2-0.7,0.3-0.9c0.6-2,1.1-4,1.3-6.1c0.3-2,0.4-4.1,0.4-6.2c0-1.6,0-3.2-0.1-5c-0.1-1.7-0.2-3.5-0.4-5.2c-0.2-1.7-0.5-3.5-0.8-5.2
		c-0.3-1.7-0.8-3.3-1.3-4.8c-0.2-0.5-0.4-1-0.6-1.5c-0.2-0.5-0.5-0.9-0.9-1.3c0,0-0.2,0.3-0.4,0.7c-0.3,0.4-0.5,0.9-0.8,1.5
		c-0.3,0.5-0.5,1-0.8,1.5C1569,757.9,1568.9,758.2,1568.9,758.3z"/>
	<path d="M1601.3,775.8c0,1,0,2.2-0.1,3.7c-0.1,1.4-0.2,2.9-0.4,4.4s-0.5,3.1-0.9,4.6c-0.4,1.5-0.9,2.9-1.6,4.1
		c-0.7,1.2-1.5,2.2-2.5,2.9c-1,0.8-2.2,1.1-3.6,1.1c-1.2,0-2.2-0.2-3.1-0.6c-0.9-0.4-1.7-1-2.4-1.7c-0.7-0.7-1.2-1.5-1.7-2.4
		c-0.5-0.9-0.8-1.9-1-3c-0.1-0.4-0.1-0.8-0.2-1.1s-0.1-0.8-0.1-1.1c0-0.5,0.1-0.9,0.3-1.3c0.2-0.3,0.6-0.5,1.2-0.5
		c0.3,0,0.6,0,1,0.1c0.4,0.1,0.7,0.2,1.1,0.4c0.3,0.2,0.7,0.4,1,0.6c0.3,0.2,0.5,0.5,0.6,0.8c0.2,0.4,0.4,1,0.4,1.7
		c0.1,0.7,0.2,1.3,0.4,2s0.5,1.2,0.8,1.6c0.4,0.4,0.9,0.7,1.7,0.7c0.6,0,1.1-0.4,1.6-1.1c0.5-0.8,0.8-1.7,1.2-2.9
		c0.3-1.2,0.6-2.5,0.8-3.9c0.2-1.4,0.4-2.8,0.5-4.2c0.1-1.3,0.2-2.5,0.3-3.6c0.1-1.1,0.1-1.9,0.1-2.3c0-0.5,0-1.1,0-1.9
		c0-0.8-0.1-1.6-0.2-2.5s-0.3-1.8-0.5-2.7c-0.2-0.9-0.5-1.7-0.8-2.4c-0.3-0.7-0.7-1.3-1.2-1.7s-1.1-0.7-1.7-0.7
		c-0.8,0-1.5,0.2-2.3,0.7c0,0.2,0.1,0.3,0.1,0.5c0,0.1,0,0.3,0,0.5c0,1-0.5,1.5-1.5,1.5c-0.1,0-0.3,0-0.4,0c-0.1,0-0.3,0-0.4,0
		c-0.2,0.1-0.5,0.1-0.8,0c-0.3-0.1-0.6-0.3-0.9-0.4c-0.3-0.2-0.6-0.4-0.8-0.7c-0.2-0.2-0.4-0.5-0.4-0.7c-0.2-0.6-0.2-1.3-0.2-2
		c0-0.7,0-1.3,0-2c0-0.9,0-1.7-0.1-2.6c0-0.8-0.1-1.7-0.1-2.6c-0.1-0.1-0.1-0.1-0.1-0.3c0-0.1,0-0.2,0-0.3c0-0.5,0-1,0.1-1.4
		c0.1-0.4,0.2-0.7,0.4-1c0.2-0.3,0.5-0.4,0.9-0.6c0.4-0.1,0.9-0.2,1.5-0.2c0.9,0,1.8-0.1,2.7-0.1s1.8-0.1,2.7-0.2
		c0.4-0.1,0.9-0.1,1.3-0.2c0.4-0.1,0.9-0.1,1.4-0.1c0.4,0,0.7,0.1,0.9,0.4c0.1,0.3,0.2,0.6,0.2,1c0,0.4,0,0.8-0.1,1.1
		c-0.1,0.3-0.3,0.6-0.7,0.9c-0.2,0.1-0.6,0.2-1.2,0.3s-1.3,0.2-2,0.4c-0.7,0.1-1.4,0.2-2,0.3s-1.1,0.1-1.4,0.1l0.5,4.6
		c0.5-0.2,1-0.3,1.5-0.3c0.5-0.1,1-0.1,1.5-0.1c1.3,0,2.5,0.3,3.5,0.8c1,0.6,1.8,1.3,2.5,2.2c0.7,0.9,1.2,1.9,1.6,3.1
		c0.4,1.2,0.7,2.3,0.9,3.6c0.2,1.2,0.4,2.5,0.4,3.7C1601.3,773.7,1601.3,774.8,1601.3,775.8z"/>
	<path d="M1603.9,791.5c0-0.2,0.1-0.4,0.2-0.5c0.1-0.1,0.3-0.2,0.6-0.3c0.2-0.1,0.4-0.1,0.7-0.1c0.2,0,0.4,0,0.6,0
		c0.2,0,0.5,0,0.7,0c0.3,0,0.6,0.1,0.8,0.1c0.3,0.1,0.5,0.2,0.7,0.3c0.2,0.2,0.3,0.4,0.3,0.7c0,0.1,0,0.3,0,0.7c0,0.3,0,0.7,0,1.1
		c0,0.4,0,0.8,0,1.1c0,0.3,0,0.5,0,0.5c-0.2,0.2-0.4,0.4-0.7,0.4c-0.3,0-0.5,0-0.7,0c-0.7,0-1.1,0-1.5-0.1c-0.3-0.1-0.5-0.2-0.7-0.4
		c-0.1-0.2-0.2-0.5-0.3-0.8c0-0.3-0.1-0.8-0.2-1.3c-0.1-0.3-0.1-0.5-0.2-0.8C1604,792.1,1603.9,791.8,1603.9,791.5z"/>
	<path d="M1619.4,793.8c0,0.5-0.2,0.8-0.5,1c-0.3,0.2-0.7,0.2-1.1,0.2c-0.3,0-0.7,0-1.1-0.1c-0.4-0.1-0.8-0.2-1.1-0.3
		c-0.4-0.2-0.7-0.4-0.9-0.7c-0.2-0.3-0.3-0.5-0.4-0.9s-0.1-0.7-0.1-1c0-0.3,0-0.7,0-1.1c-0.4-6.5-0.7-13-0.9-19.4
		c-0.2-6.4-0.3-12.9-0.3-19.4c0-0.4,0.1-0.8,0.2-1s0.4-0.4,1-0.4c0.6,0,1.2,0.1,1.8,0.4c0.6,0.3,1,0.7,1.3,1.2
		c0.1,0.2,0.1,0.5,0.2,0.9c0,0.4,0.1,0.8,0.1,1.3c0,0.4,0,0.9,0,1.3c0,0.4,0,0.8,0,1c0.2,5.5,0.4,10.9,0.6,16.3
		c0.2,5.4,0.6,10.9,1.1,16.3c0.1,0.7,0.2,1.5,0.3,2.2C1619.3,792.3,1619.4,793,1619.4,793.8z"/>
	<path d="M1639.2,766.6c0,0.6,0,1.2,0,1.8c0,0.6,0,1.2,0,1.9c0,4.1-0.5,8.1-1.3,11.9c-0.9,3.8-2.2,7.6-3.9,11.4
		c-0.1,0.2-0.2,0.4-0.3,0.6s-0.2,0.5-0.4,0.7s-0.3,0.5-0.5,0.6c-0.2,0.2-0.4,0.3-0.6,0.3c-0.3,0-0.6-0.1-0.9-0.2
		c-0.3-0.1-0.5-0.3-0.8-0.6s-0.4-0.5-0.6-0.8c-0.1-0.3-0.2-0.6-0.2-0.9c0-0.2,0.1-0.5,0.2-1c0.1-0.5,0.3-0.9,0.5-1.4
		c0.2-0.5,0.4-1,0.6-1.5c0.2-0.5,0.4-0.8,0.5-1.1c0.5-1.5,1-2.9,1.3-4.4c0.4-1.5,0.7-3,1-4.5c-0.9,0.6-1.9,0.9-2.9,0.9
		c-1.3,0-2.5-0.3-3.4-0.9c-0.9-0.6-1.7-1.3-2.3-2.3s-1.1-2-1.4-3.3c-0.3-1.2-0.6-2.5-0.8-3.7c-0.2-1.3-0.3-2.5-0.3-3.7
		c0-1.2,0-2.3,0-3.2c0-0.8,0-1.7,0.1-2.7c0.1-1,0.2-2,0.4-3s0.5-2,0.9-2.9c0.4-0.9,0.8-1.8,1.4-2.5c0.6-0.7,1.3-1.3,2.1-1.7
		c0.8-0.4,1.8-0.7,2.9-0.7c1.1,0,2.1,0.3,3,0.9c0.9,0.6,1.6,1.4,2.3,2.4c0.6,1,1.2,2.1,1.6,3.3c0.4,1.2,0.8,2.5,1.1,3.7
		c0.3,1.2,0.5,2.4,0.6,3.6C1639.1,764.8,1639.2,765.8,1639.2,766.6z M1634.1,764.8c0-0.4-0.1-1-0.2-1.7c-0.1-0.7-0.2-1.4-0.3-2.1
		s-0.3-1.5-0.5-2.3c-0.2-0.8-0.4-1.5-0.6-2.2c-0.2-0.7-0.5-1.3-0.8-1.8c-0.3-0.5-0.7-0.9-1.1-1.2c-0.5,0.1-0.9,0.3-1.2,0.7
		c-0.3,0.4-0.6,0.9-0.8,1.6c-0.2,0.6-0.4,1.3-0.6,2.1c-0.1,0.8-0.2,1.5-0.3,2.2c-0.1,0.7-0.1,1.4-0.1,2c0,0.6,0,1.1,0,1.4
		c0,0.4,0,1,0,1.7c0,0.7,0.1,1.6,0.2,2.5c0.1,0.9,0.2,1.8,0.3,2.8c0.1,0.9,0.3,1.8,0.6,2.6c0.2,0.8,0.5,1.5,0.8,2.1
		c0.3,0.6,0.7,0.9,1.1,1c0.7-0.5,1.2-1.1,1.6-2c0.4-0.9,0.8-1.8,1-2.8c0.3-1,0.5-2,0.6-3.1c0.1-1,0.2-1.9,0.2-2.7c0-0.2,0-0.3,0-0.5
		C1634,765,1634.1,764.9,1634.1,764.8z"/>
	<path d="M1660.4,775.8c0,1,0,2.2-0.1,3.7c-0.1,1.4-0.2,2.9-0.4,4.4c-0.2,1.5-0.5,3.1-0.9,4.6c-0.4,1.5-0.9,2.9-1.6,4.1
		c-0.7,1.2-1.5,2.2-2.5,2.9s-2.2,1.1-3.6,1.1c-1.2,0-2.2-0.2-3.1-0.6c-0.9-0.4-1.7-1-2.4-1.7c-0.7-0.7-1.2-1.5-1.7-2.4
		c-0.5-0.9-0.8-1.9-1-3c-0.1-0.4-0.1-0.8-0.2-1.1s-0.1-0.8-0.1-1.1c0-0.5,0.1-0.9,0.3-1.3c0.2-0.3,0.6-0.5,1.2-0.5
		c0.3,0,0.6,0,1,0.1c0.4,0.1,0.7,0.2,1.1,0.4c0.3,0.2,0.7,0.4,1,0.6c0.3,0.2,0.5,0.5,0.6,0.8c0.2,0.4,0.4,1,0.4,1.7
		c0.1,0.7,0.2,1.3,0.4,2c0.2,0.6,0.5,1.2,0.8,1.6c0.4,0.4,0.9,0.7,1.7,0.7c0.6,0,1.1-0.4,1.6-1.1s0.8-1.7,1.2-2.9
		c0.3-1.2,0.6-2.5,0.8-3.9c0.2-1.4,0.4-2.8,0.5-4.2c0.1-1.3,0.2-2.5,0.3-3.6c0.1-1.1,0.1-1.9,0.1-2.3c0-0.5,0-1.1,0-1.9
		s-0.1-1.6-0.2-2.5c-0.1-0.9-0.3-1.8-0.5-2.7c-0.2-0.9-0.5-1.7-0.8-2.4c-0.3-0.7-0.7-1.3-1.2-1.7c-0.5-0.5-1.1-0.7-1.7-0.7
		c-0.8,0-1.5,0.2-2.3,0.7c0,0.2,0.1,0.3,0.1,0.5c0,0.1,0,0.3,0,0.5c0,1-0.5,1.5-1.5,1.5c-0.1,0-0.3,0-0.4,0c-0.1,0-0.3,0-0.4,0
		c-0.2,0.1-0.5,0.1-0.8,0c-0.3-0.1-0.6-0.3-0.9-0.4c-0.3-0.2-0.6-0.4-0.8-0.7s-0.4-0.5-0.4-0.7c-0.2-0.6-0.2-1.3-0.2-2
		c0-0.7,0-1.3,0-2c0-0.9,0-1.7-0.1-2.6c0-0.8-0.1-1.7-0.1-2.6c-0.1-0.1-0.1-0.1-0.1-0.3c0-0.1,0-0.2,0-0.3c0-0.5,0-1,0.1-1.4
		c0.1-0.4,0.2-0.7,0.4-1s0.5-0.4,0.9-0.6c0.4-0.1,0.9-0.2,1.5-0.2c0.9,0,1.8-0.1,2.7-0.1s1.8-0.1,2.7-0.2c0.4-0.1,0.9-0.1,1.3-0.2
		c0.4-0.1,0.9-0.1,1.4-0.1c0.4,0,0.7,0.1,0.9,0.4s0.2,0.6,0.2,1c0,0.4,0,0.8-0.1,1.1c-0.1,0.3-0.3,0.6-0.7,0.9
		c-0.2,0.1-0.6,0.2-1.2,0.3c-0.6,0.1-1.3,0.2-2,0.4c-0.7,0.1-1.4,0.2-2,0.3c-0.7,0.1-1.1,0.1-1.4,0.1l0.5,4.6c0.5-0.2,1-0.3,1.5-0.3
		c0.5-0.1,1-0.1,1.5-0.1c1.3,0,2.5,0.3,3.5,0.8c1,0.6,1.8,1.3,2.5,2.2c0.7,0.9,1.2,1.9,1.6,3.1s0.7,2.3,0.9,3.6
		c0.2,1.2,0.4,2.5,0.4,3.7S1660.4,774.8,1660.4,775.8z"/>
</g>
</svg>
