<?xml version="1.0" encoding="utf-8"?>
<!-- Generator: Adobe Illustrator 24.1.2, SVG Export Plug-In . SVG Version: 6.00 Build 0)  -->
<svg version="1.1" id="Layer_1" xmlns="http://www.w3.org/2000/svg" xmlns:xlink="http://www.w3.org/1999/xlink" x="0px" y="0px"
	 viewBox="0 0 976 742" style="enable-background:new 0 0 976 742;" xml:space="preserve">
<style type="text/css">
	.st0{fill:none;stroke:#7E7E7E;stroke-width:2;stroke-miterlimit:10;}
	.st1{opacity:0.28;fill:#4D9BDB;stroke:#7E7E7E;stroke-width:2;stroke-miterlimit:10;}
	.st2{fill:#A06B32;stroke:#000000;stroke-width:2;stroke-miterlimit:10;}
	.st3{fill:#A2D36E;stroke:#000000;stroke-width:2;stroke-miterlimit:10;}
	.st4{fill:#FFFFFF;stroke:#000000;stroke-width:3;stroke-miterlimit:10;}
	.st5{fill:none;stroke:#000000;stroke-width:3;stroke-miterlimit:10;}
	.st6{fill:none;stroke:#000000;stroke-width:6;stroke-miterlimit:10;}
	.st7{fill:#3D2C18;}
	.st8{fill:#73D66E;}
	.st9{fill:#A2D36E;}
	.st10{fill:#8E5D2D;stroke:#000000;stroke-width:3;stroke-miterlimit:10;}
	.st11{fill:#A06B32;}
	.st12{fill:#B28252;}
	.st13{fill:#4F9B49;}
</style>
<g>
	<path class="st0" d="M165.8,102.8c0,3-16.5,5.4-36.8,5.4s-36.8-2.4-36.8-5.4c0-3,16.5-5.4,36.8-5.4S165.8,99.8,165.8,102.8z"/>
	<ellipse class="st0" cx="129" cy="168.2" rx="28.1" ry="4.1"/>
	<line class="st0" x1="165.8" y1="102.8" x2="157.1" y2="168.2"/>
	<line class="st0" x1="92.2" y1="102.8" x2="100.9" y2="168.2"/>
	<path class="st1" d="M97.2,110.2c0,0,35.7-11.2,61.7,0.6l-9.1,56.8c0,0-13.8,5.6-42.8,0L97.2,110.2z"/>
</g>
<g>
	<ellipse class="st0" cx="315.9" cy="570.6" rx="36.8" ry="5.4"/>
	<ellipse class="st0" cx="315.9" cy="635.9" rx="28.1" ry="4.1"/>
	<line class="st0" x1="352.7" y1="570.6" x2="344" y2="635.9"/>
	<line class="st0" x1="279.1" y1="570.6" x2="287.8" y2="635.9"/>
	<path class="st1" d="M284,577.9c0,0,35.7-11.2,61.7,0.6l-9.1,56.8c0,0-13.8,5.6-42.8,0L284,577.9z"/>
</g>
<g>
	<path class="st0" d="M257,103.1c0,3-16.5,5.4-36.8,5.4c-20.3,0-36.8-2.4-36.8-5.4c0-3,16.5-5.4,36.8-5.4
		C240.5,97.7,257,100.1,257,103.1z"/>
	<ellipse class="st0" cx="220.2" cy="168.5" rx="28.1" ry="4.1"/>
	<line class="st0" x1="257" y1="103.1" x2="248.3" y2="168.5"/>
	<line class="st0" x1="183.4" y1="103.1" x2="192.1" y2="168.5"/>
	<path class="st1" d="M188.4,110.4c0,0,35.7-11.2,61.7,0.6l-9.1,56.8c0,0-13.8,5.6-42.8,0L188.4,110.4z"/>
</g>
<g>
	<path class="st0" d="M167.3,196.3c0,3-16.5,5.4-36.8,5.4c-20.3,0-36.8-2.4-36.8-5.4c0-3,16.5-5.4,36.8-5.4
		C150.8,190.9,167.3,193.3,167.3,196.3z"/>
	<ellipse class="st0" cx="130.5" cy="261.7" rx="28.1" ry="4.1"/>
	<line class="st0" x1="167.3" y1="196.3" x2="158.6" y2="261.7"/>
	<line class="st0" x1="93.7" y1="196.3" x2="102.4" y2="261.7"/>
	<path class="st1" d="M98.7,203.7c0,0,35.7-11.2,61.7,0.6l-9.1,56.8c0,0-13.8,5.6-42.8,0L98.7,203.7z"/>
</g>
<g>
	<path class="st0" d="M258.5,196.6c0,3-16.5,5.4-36.8,5.4s-36.8-2.4-36.8-5.4c0-3,16.5-5.4,36.8-5.4S258.5,193.6,258.5,196.6z"/>
	<ellipse class="st0" cx="221.7" cy="262" rx="28.1" ry="4.1"/>
	<line class="st0" x1="258.5" y1="196.6" x2="249.8" y2="262"/>
	<line class="st0" x1="184.9" y1="196.6" x2="193.6" y2="262"/>
	<path class="st1" d="M189.9,203.9c0,0,35.7-11.2,61.7,0.6l-9.1,56.8c0,0-13.8,5.6-42.8,0L189.9,203.9z"/>
</g>
<g>
	<ellipse class="st0" cx="130.5" cy="288.7" rx="36.8" ry="5.4"/>
	<ellipse class="st0" cx="130.5" cy="354.1" rx="28.1" ry="4.1"/>
	<line class="st0" x1="167.3" y1="288.7" x2="158.6" y2="354.1"/>
	<line class="st0" x1="93.7" y1="288.7" x2="102.4" y2="354.1"/>
	<path class="st1" d="M98.7,296c0,0,35.7-11.2,61.7,0.6l-9.1,56.8c0,0-13.8,5.6-42.8,0L98.7,296z"/>
</g>
<g>
	<ellipse class="st0" cx="221.7" cy="288.9" rx="36.8" ry="5.4"/>
	<path class="st0" d="M249.8,354.3c0,2.3-12.6,4.1-28.1,4.1s-28.1-1.9-28.1-4.1c0-2.3,12.6-4.1,28.1-4.1S249.8,352,249.8,354.3z"/>
	<line class="st0" x1="258.5" y1="288.9" x2="249.8" y2="354.3"/>
	<line class="st0" x1="184.9" y1="288.9" x2="193.6" y2="354.3"/>
	<path class="st1" d="M189.9,296.3c0,0,35.7-11.2,61.7,0.6l-9.1,56.8c0,0-13.8,5.6-42.8,0L189.9,296.3z"/>
</g>
<g>
	<path class="st0" d="M167.3,380c0,3-16.5,5.4-36.8,5.4c-20.3,0-36.8-2.4-36.8-5.4c0-3,16.5-5.4,36.8-5.4
		C150.8,374.6,167.3,377,167.3,380z"/>
	<ellipse class="st0" cx="130.5" cy="445.4" rx="28.1" ry="4.1"/>
	<line class="st0" x1="167.3" y1="380" x2="158.6" y2="445.4"/>
	<line class="st0" x1="93.7" y1="380" x2="102.4" y2="445.4"/>
	<path class="st1" d="M98.7,387.3c0,0,35.7-11.2,61.7,0.6l-9.1,56.8c0,0-13.8,5.6-42.8,0L98.7,387.3z"/>
</g>
<g>
	<path class="st0" d="M258.5,380.2c0,3-16.5,5.4-36.8,5.4s-36.8-2.4-36.8-5.4c0-3,16.5-5.4,36.8-5.4S258.5,377.3,258.5,380.2z"/>
	<ellipse class="st0" cx="221.7" cy="445.6" rx="28.1" ry="4.1"/>
	<line class="st0" x1="258.5" y1="380.2" x2="249.8" y2="445.6"/>
	<line class="st0" x1="184.9" y1="380.2" x2="193.6" y2="445.6"/>
	<path class="st1" d="M189.9,387.6c0,0,35.7-11.2,61.7,0.6l-9.1,56.8c0,0-13.8,5.6-42.8,0L189.9,387.6z"/>
</g>
<g>
	<path class="st0" d="M168.9,473.9c0,3-16.5,5.4-36.8,5.4c-20.3,0-36.8-2.4-36.8-5.4c0-3,16.5-5.4,36.8-5.4
		C152.4,468.5,168.9,470.9,168.9,473.9z"/>
	<ellipse class="st0" cx="132.1" cy="539.3" rx="28.1" ry="4.1"/>
	<line class="st0" x1="168.9" y1="473.9" x2="160.2" y2="539.3"/>
	<line class="st0" x1="95.2" y1="473.9" x2="104" y2="539.3"/>
	<path class="st1" d="M100.2,481.2c0,0,35.7-11.2,61.7,0.6l-9.1,56.8c0,0-13.8,5.6-42.8,0L100.2,481.2z"/>
</g>
<g>
	<path class="st0" d="M260.1,474.2c0,3-16.5,5.4-36.8,5.4c-20.3,0-36.8-2.4-36.8-5.4c0-3,16.5-5.4,36.8-5.4
		C243.6,468.7,260.1,471.2,260.1,474.2z"/>
	<ellipse class="st0" cx="223.3" cy="539.5" rx="28.1" ry="4.1"/>
	<line class="st0" x1="260.1" y1="474.2" x2="251.4" y2="539.5"/>
	<line class="st0" x1="186.4" y1="474.2" x2="195.2" y2="539.5"/>
	<path class="st1" d="M191.4,481.5c0,0,35.7-11.2,61.7,0.6l-9.1,56.8c0,0-13.8,5.6-42.8,0L191.4,481.5z"/>
</g>
<g>
	<path class="st0" d="M349.4,105.7c0,3-16.5,5.4-36.8,5.4s-36.8-2.4-36.8-5.4s16.5-5.4,36.8-5.4S349.4,102.7,349.4,105.7z"/>
	<path class="st0" d="M340.7,171.1c0,2.3-12.6,4.1-28.1,4.1s-28.1-1.9-28.1-4.1c0-2.3,12.6-4.1,28.1-4.1S340.7,168.8,340.7,171.1z"
		/>
	<line class="st0" x1="349.4" y1="105.7" x2="340.7" y2="171.1"/>
	<line class="st0" x1="275.8" y1="105.7" x2="284.5" y2="171.1"/>
	<path class="st1" d="M280.8,113.1c0,0,35.7-11.2,61.7,0.6l-9.1,56.8c0,0-13.8,5.6-42.8,0L280.8,113.1z"/>
</g>
<g>
	<path class="st0" d="M440.7,106c0,3-16.5,5.4-36.8,5.4c-20.3,0-36.8-2.4-36.8-5.4s16.5-5.4,36.8-5.4
		C424.2,100.6,440.7,103,440.7,106z"/>
	<path class="st0" d="M431.9,171.4c0,2.3-12.6,4.1-28.1,4.1c-15.5,0-28.1-1.9-28.1-4.1c0-2.3,12.6-4.1,28.1-4.1
		C419.4,167.2,431.9,169.1,431.9,171.4z"/>
	<line class="st0" x1="440.7" y1="106" x2="431.9" y2="171.4"/>
	<line class="st0" x1="367" y1="106" x2="375.7" y2="171.4"/>
	<path class="st1" d="M372,113.4c0,0,35.7-11.2,61.7,0.6l-9.1,56.8c0,0-13.8,5.6-42.8,0L372,113.4z"/>
</g>
<g>
	<ellipse class="st0" cx="314.1" cy="199.3" rx="36.8" ry="5.4"/>
	<path class="st0" d="M342.2,264.6c0,2.3-12.6,4.1-28.1,4.1s-28.1-1.9-28.1-4.1c0-2.3,12.6-4.1,28.1-4.1S342.2,262.4,342.2,264.6z"
		/>
	<line class="st0" x1="351" y1="199.3" x2="342.2" y2="264.6"/>
	<line class="st0" x1="277.3" y1="199.3" x2="286" y2="264.6"/>
	<path class="st1" d="M282.3,206.6c0,0,35.7-11.2,61.7,0.6l-9.1,56.8c0,0-13.8,5.6-42.8,0L282.3,206.6z"/>
</g>
<g>
	<ellipse class="st0" cx="405.3" cy="199.5" rx="36.8" ry="5.4"/>
	<path class="st0" d="M433.4,264.9c0,2.3-12.6,4.1-28.1,4.1c-15.5,0-28.1-1.9-28.1-4.1c0-2.3,12.6-4.1,28.1-4.1
		C420.9,260.8,433.4,262.6,433.4,264.9z"/>
	<line class="st0" x1="442.2" y1="199.5" x2="433.4" y2="264.9"/>
	<line class="st0" x1="368.5" y1="199.5" x2="377.2" y2="264.9"/>
	<path class="st1" d="M373.5,206.9c0,0,35.7-11.2,61.7,0.6l-9.1,56.8c0,0-13.8,5.6-42.8,0L373.5,206.9z"/>
</g>
<g>
	<ellipse class="st0" cx="314.1" cy="291.6" rx="36.8" ry="5.4"/>
	<ellipse class="st0" cx="314.1" cy="357" rx="28.1" ry="4.1"/>
	<line class="st0" x1="351" y1="291.6" x2="342.2" y2="357"/>
	<line class="st0" x1="277.3" y1="291.6" x2="286" y2="357"/>
	<path class="st1" d="M282.3,299c0,0,35.7-11.2,61.7,0.6l-9.1,56.8c0,0-13.8,5.6-42.8,0L282.3,299z"/>
</g>
<g>
	<ellipse class="st0" cx="405.3" cy="291.9" rx="36.8" ry="5.4"/>
	<ellipse class="st0" cx="405.3" cy="357.2" rx="28.1" ry="4.1"/>
	<line class="st0" x1="442.2" y1="291.9" x2="433.4" y2="357.2"/>
	<line class="st0" x1="368.5" y1="291.9" x2="377.2" y2="357.2"/>
	<path class="st1" d="M373.5,299.2c0,0,35.7-11.2,61.7,0.6l-9.1,56.8c0,0-13.8,5.6-42.8,0L373.5,299.2z"/>
</g>
<g>
	<path class="st0" d="M351,382.9c0,3-16.5,5.4-36.8,5.4c-20.3,0-36.8-2.4-36.8-5.4c0-3,16.5-5.4,36.8-5.4
		C334.5,377.5,351,379.9,351,382.9z"/>
	<ellipse class="st0" cx="314.1" cy="448.3" rx="28.1" ry="4.1"/>
	<line class="st0" x1="351" y1="382.9" x2="342.2" y2="448.3"/>
	<line class="st0" x1="277.3" y1="382.9" x2="286" y2="448.3"/>
	<path class="st1" d="M282.3,390.3c0,0,35.7-11.2,61.7,0.6l-9.1,56.8c0,0-13.8,5.6-42.8,0L282.3,390.3z"/>
</g>
<g>
	<path class="st0" d="M442.2,383.2c0,3-16.5,5.4-36.8,5.4c-20.3,0-36.8-2.4-36.8-5.4c0-3,16.5-5.4,36.8-5.4
		C425.7,377.7,442.2,380.2,442.2,383.2z"/>
	<ellipse class="st0" cx="405.3" cy="448.6" rx="28.1" ry="4.1"/>
	<line class="st0" x1="442.2" y1="383.2" x2="433.4" y2="448.6"/>
	<line class="st0" x1="368.5" y1="383.2" x2="377.2" y2="448.6"/>
	<path class="st1" d="M373.5,390.5c0,0,35.7-11.2,61.7,0.6l-9.1,56.8c0,0-13.8,5.6-42.8,0L373.5,390.5z"/>
</g>
<g>
	<path class="st0" d="M352.5,476.8c0,3-16.5,5.4-36.8,5.4s-36.8-2.4-36.8-5.4c0-3,16.5-5.4,36.8-5.4S352.5,473.8,352.5,476.8z"/>
	<ellipse class="st0" cx="315.7" cy="542.2" rx="28.1" ry="4.1"/>
	<line class="st0" x1="352.5" y1="476.8" x2="343.8" y2="542.2"/>
	<line class="st0" x1="278.9" y1="476.8" x2="287.6" y2="542.2"/>
	<path class="st1" d="M283.9,484.2c0,0,35.7-11.2,61.7,0.6l-9.1,56.8c0,0-13.8,5.6-42.8,0L283.9,484.2z"/>
</g>
<g>
	<path class="st0" d="M443.7,477.1c0,3-16.5,5.4-36.8,5.4c-20.3,0-36.8-2.4-36.8-5.4c0-3,16.5-5.4,36.8-5.4
		C427.2,471.6,443.7,474.1,443.7,477.1z"/>
	<ellipse class="st0" cx="406.9" cy="542.5" rx="28.1" ry="4.1"/>
	<line class="st0" x1="443.7" y1="477.1" x2="435" y2="542.5"/>
	<line class="st0" x1="370.1" y1="477.1" x2="378.8" y2="542.5"/>
	<path class="st1" d="M375.1,484.4c0,0,35.7-11.2,61.7,0.6l-9.1,56.8c0,0-13.8,5.6-42.8,0L375.1,484.4z"/>
</g>
<g>
	<path class="st0" d="M167.5,569.8c0,3-16.5,5.4-36.8,5.4c-20.3,0-36.8-2.4-36.8-5.4s16.5-5.4,36.8-5.4
		C151,564.4,167.5,566.8,167.5,569.8z"/>
	<ellipse class="st0" cx="130.7" cy="635.2" rx="28.1" ry="4.1"/>
	<line class="st0" x1="167.5" y1="569.8" x2="158.8" y2="635.2"/>
	<line class="st0" x1="93.8" y1="569.8" x2="102.6" y2="635.2"/>
	<path class="st1" d="M98.8,577.1c0,0,35.7-11.2,61.7,0.6l-9.1,56.8c0,0-13.8,5.6-42.8,0L98.8,577.1z"/>
</g>
<g>
	<path class="st0" d="M258.7,570c0,3-16.5,5.4-36.8,5.4c-20.3,0-36.8-2.4-36.8-5.4s16.5-5.4,36.8-5.4
		C242.2,564.6,258.7,567.1,258.7,570z"/>
	<ellipse class="st0" cx="221.9" cy="635.4" rx="28.1" ry="4.1"/>
	<line class="st0" x1="258.7" y1="570" x2="250" y2="635.4"/>
	<line class="st0" x1="185" y1="570" x2="193.8" y2="635.4"/>
	<path class="st1" d="M190,577.4c0,0,35.7-11.2,61.7,0.6l-9.1,56.8c0,0-13.8,5.6-42.8,0L190,577.4z"/>
</g>
<g>
	<line class="st6" x1="807.2" y1="414.8" x2="860.8" y2="433.2"/>
	<g>
		<g>
			<ellipse transform="matrix(0.7071 -0.7071 0.7071 0.7071 -104.1314 613.4083)" cx="688.4" cy="432.4" rx="120.1" ry="120.1"/>
			<circle cx="688.1" cy="323.6" r="74"/>
			<polygon points="623.9,286.2 753.4,290.8 798.6,384.8 579.9,381.3 			"/>
		</g>
		<g>
			
				<ellipse transform="matrix(0.7071 -0.7071 0.7071 0.7071 -104.3094 613.2828)" class="st7" cx="688.1" cy="432.6" rx="116" ry="116"/>
			
				<ellipse transform="matrix(0.7071 -0.7071 0.7071 0.7071 -30.0622 582.2963)" class="st7" cx="687.9" cy="327.4" rx="71.5" ry="71.5"/>
			<polygon class="st7" points="625.8,291.3 750.9,295.8 794.7,386.6 583.3,383.2 			"/>
		</g>
		<g>
			
				<ellipse transform="matrix(0.7071 -0.7071 0.7071 0.7071 -102.7265 612.5572)" class="st8" cx="688.1" cy="430.3" rx="110.8" ry="110.8"/>
			<circle class="st8" cx="687.8" cy="329.9" r="68.3"/>
			<polygon class="st8" points="628.5,295.4 748,299.6 789.8,386.4 587.9,383.2 			"/>
		</g>
		<g>
			
				<ellipse transform="matrix(0.7071 -0.7071 0.7071 0.7071 -104.4929 613.834)" class="st9" cx="688.7" cy="433.1" rx="90.6" ry="90.6"/>
			
				<ellipse transform="matrix(0.2043 -0.9789 0.9789 0.2043 204.262 953.254)" class="st9" cx="688.5" cy="351" rx="55.8" ry="55.8"/>
			<polygon class="st9" points="640.1,322.7 737.7,326.3 771.9,397.2 606.9,394.5 			"/>
		</g>
		
			<ellipse transform="matrix(0.2233 -0.9747 0.9747 0.2233 110.6139 1004.9356)" class="st10" cx="685.9" cy="433.1" rx="67.1" ry="67.1"/>
		
			<ellipse transform="matrix(0.1571 -0.9876 0.9876 0.1571 151.4563 1043.8997)" class="st11" cx="687.3" cy="433.2" rx="63.4" ry="63.4"/>
		<circle class="st12" cx="711.3" cy="412.3" r="20.1"/>
		
			<ellipse transform="matrix(0.2327 -0.9725 0.9725 0.2327 145.5218 854.6922)" class="st4" cx="614.4" cy="335.1" rx="29.7" ry="29.7"/>
		
			<ellipse transform="matrix(0.2269 -0.9739 0.9739 0.2269 253.1165 995.3467)" class="st4" cx="753.5" cy="338.2" rx="29.7" ry="29.7"/>
		<ellipse transform="matrix(0.7071 -0.7071 0.7071 0.7071 -56.8442 532.2274)" cx="614" cy="334.7" rx="14.8" ry="14.8"/>
		<circle cx="753.1" cy="335.5" r="14.8"/>
		<path class="st5" d="M655.2,337.9c0,0,33.1,21.9,58,0"/>
		<line class="st6" x1="740.8" y1="536.8" x2="740.8" y2="584"/>
		<ellipse cx="755.8" cy="584.3" rx="18.4" ry="8.2"/>
		<line class="st6" x1="640.3" y1="540.7" x2="640.3" y2="587.9"/>
		<ellipse cx="655.3" cy="588.2" rx="18.4" ry="8.2"/>
	</g>
	<g>
		<ellipse class="st0" cx="861.8" cy="408.5" rx="36.8" ry="5.4"/>
		<ellipse class="st0" cx="861.8" cy="473.9" rx="28.1" ry="4.1"/>
		<line class="st0" x1="898.7" y1="408.5" x2="889.9" y2="473.9"/>
		<line class="st0" x1="825" y1="408.5" x2="833.7" y2="473.9"/>
		<path class="st1" d="M830,415.8c0,0,35.7-11.2,61.7,0.6l-9.1,56.8c0,0-13.8,5.6-42.8,0L830,415.8z"/>
	</g>
</g>
<g>
	<path class="st0" d="M446.9,569.8c0,3-16.5,5.4-36.8,5.4s-36.8-2.4-36.8-5.4c0-3,16.5-5.4,36.8-5.4S446.9,566.8,446.9,569.8z"/>
	<ellipse class="st0" cx="410.1" cy="635.2" rx="28.1" ry="4.1"/>
	<line class="st0" x1="446.9" y1="569.8" x2="438.2" y2="635.2"/>
	<line class="st0" x1="373.3" y1="569.8" x2="382" y2="635.2"/>
	<path class="st1" d="M378.3,577.2c0,0,35.7-11.2,61.7,0.6l-9.1,56.8c0,0-13.8,5.6-42.8,0L378.3,577.2z"/>
</g>
<g>
	<g>
		<path class="st13" d="M139.3,693.7c0,0.8,0,1.7-0.1,2.7c0,1.1-0.2,2.2-0.3,3.3c-0.2,1.2-0.4,2.3-0.7,3.4c-0.3,1.1-0.7,2.2-1.2,3.1
			c-0.5,0.9-1.2,1.6-1.9,2.2c-0.8,0.6-1.7,0.8-2.7,0.8c-0.9,0-1.6-0.2-2.3-0.5c-0.7-0.3-1.3-0.7-1.8-1.2c-0.5-0.5-0.9-1.1-1.3-1.8
			c-0.3-0.7-0.6-1.4-0.7-2.2c0-0.3-0.1-0.6-0.2-0.9c-0.1-0.3-0.1-0.6-0.1-0.9c0-0.4,0.1-0.7,0.2-1c0.2-0.3,0.4-0.4,0.9-0.4
			c0.2,0,0.5,0,0.7,0.1s0.6,0.2,0.8,0.3s0.5,0.3,0.7,0.4c0.2,0.2,0.4,0.4,0.5,0.6c0.2,0.3,0.3,0.7,0.3,1.2c0.1,0.5,0.2,1,0.3,1.5
			c0.1,0.5,0.3,0.9,0.6,1.2c0.3,0.3,0.7,0.5,1.3,0.5c0.5,0,0.9-0.3,1.2-0.9c0.3-0.6,0.6-1.3,0.9-2.2c0.2-0.9,0.5-1.9,0.6-2.9
			c0.2-1.1,0.3-2.1,0.4-3.1c0.1-1,0.2-1.9,0.2-2.7c0-0.8,0.1-1.4,0.1-1.7c0-0.3,0-0.8,0-1.4c0-0.6-0.1-1.2-0.2-1.9
			c-0.1-0.7-0.2-1.3-0.4-2c-0.2-0.7-0.4-1.3-0.6-1.8c-0.2-0.5-0.6-1-0.9-1.3c-0.4-0.3-0.8-0.5-1.3-0.5c-0.6,0-1.2,0.2-1.7,0.5
			c0,0.1,0.1,0.2,0.1,0.4c0,0.1,0,0.2,0,0.4c0,0.7-0.4,1.1-1.1,1.1c-0.1,0-0.2,0-0.3,0c-0.1,0-0.2,0-0.3,0c-0.2,0.1-0.4,0.1-0.6,0
			c-0.2-0.1-0.5-0.2-0.7-0.3c-0.2-0.1-0.4-0.3-0.6-0.5c-0.2-0.2-0.3-0.4-0.3-0.5c-0.1-0.5-0.2-1-0.2-1.5c0-0.5,0-1,0-1.5
			c0-0.7,0-1.3,0-1.9c0-0.6-0.1-1.3-0.1-1.9c0,0-0.1-0.1-0.1-0.2c0-0.1,0-0.2,0-0.2c0-0.4,0-0.7,0.1-1c0.1-0.3,0.2-0.5,0.3-0.7
			c0.2-0.2,0.4-0.3,0.6-0.4c0.3-0.1,0.6-0.2,1.1-0.2c0.7,0,1.4-0.1,2-0.1s1.3-0.1,2-0.2c0.3,0,0.7-0.1,1-0.2c0.3-0.1,0.7-0.1,1-0.1
			c0.3,0,0.5,0.1,0.6,0.3c0.1,0.2,0.2,0.4,0.2,0.7c0,0.3,0,0.6-0.1,0.9c-0.1,0.3-0.2,0.5-0.5,0.7c-0.1,0.1-0.4,0.2-0.9,0.3
			s-0.9,0.2-1.5,0.3c-0.5,0.1-1,0.2-1.5,0.2c-0.5,0.1-0.8,0.1-1,0.1l0.4,3.5c0.4-0.1,0.8-0.2,1.1-0.3c0.4,0,0.8-0.1,1.1-0.1
			c1,0,1.9,0.2,2.6,0.6c0.7,0.4,1.3,1,1.8,1.6c0.5,0.7,0.9,1.4,1.2,2.3c0.3,0.9,0.5,1.8,0.7,2.7s0.3,1.8,0.3,2.7
			C139.3,692.1,139.3,692.9,139.3,693.7z"/>
		<path class="st13" d="M147.7,707.1c0,0.4-0.1,0.6-0.4,0.7c-0.3,0.1-0.5,0.2-0.9,0.2c-0.2,0-0.5,0-0.9-0.1
			c-0.3-0.1-0.6-0.1-0.9-0.2c-0.3-0.1-0.5-0.3-0.7-0.5c-0.1-0.2-0.2-0.4-0.3-0.6c-0.1-0.2-0.1-0.5-0.1-0.7s0-0.5,0-0.8
			c-0.3-4.9-0.5-9.7-0.7-14.6c-0.2-4.8-0.3-9.7-0.3-14.6c0-0.3,0-0.6,0.1-0.8c0.1-0.2,0.3-0.3,0.7-0.3c0.4,0,0.9,0.1,1.3,0.3
			s0.8,0.5,1,0.9c0.1,0.1,0.1,0.3,0.1,0.6s0,0.6,0.1,1c0,0.3,0,0.7,0,1c0,0.3,0,0.6,0,0.7c0.1,4.1,0.3,8.2,0.4,12.2
			c0.2,4.1,0.4,8.1,0.9,12.2c0,0.6,0.1,1.1,0.2,1.6C147.7,706,147.7,706.6,147.7,707.1z"/>
		<path class="st13" d="M162.2,705.6c0,0.2,0,0.5-0.1,0.7c0,0.2-0.1,0.5-0.2,0.6c-0.1,0.3-0.3,0.5-0.6,0.6c-0.3,0.1-0.6,0.2-1,0.2
			c-0.4,0-0.7,0.1-1.1,0c-0.4,0-0.7,0-0.9,0c-0.7,0-1.3,0.1-2,0.2s-1.3,0.1-2,0.2c-0.2,0.4-0.5,0.6-1,0.6c-0.1,0-0.3,0-0.5-0.1
			s-0.4-0.1-0.6-0.2c-0.2-0.1-0.4-0.2-0.5-0.3c-0.2-0.1-0.3-0.2-0.3-0.3c-0.2-0.1-0.3-0.3-0.4-0.5c-0.1-0.2-0.2-0.4-0.2-0.6
			c0-0.4,0.1-0.7,0.2-1c0.2-0.3,0.3-0.6,0.4-1c0.9-2.3,1.7-4.5,2.5-6.7c0.8-2.2,1.6-4.5,2.4-6.8c0.3-0.7,0.5-1.5,0.7-2.3
			c0.2-0.8,0.5-1.5,0.7-2.3c0.2-0.8,0.3-1.6,0.5-2.4c0.1-0.8,0.2-1.6,0.2-2.4c0-0.3,0-0.6-0.1-1.1c0-0.5-0.1-0.9-0.2-1.4
			c-0.1-0.5-0.3-0.8-0.5-1.2c-0.2-0.3-0.5-0.5-0.9-0.5c-0.2,0-0.5,0.1-0.7,0.2c-0.3,0.1-0.5,0.3-0.7,0.5c-0.2,0.2-0.4,0.4-0.6,0.7
			c-0.2,0.2-0.3,0.5-0.4,0.6c-0.3,0.4-0.5,0.9-0.7,1.4c-0.2,0.5-0.4,1-0.5,1.4c0,0.2-0.1,0.5-0.1,0.7c0,0.2-0.1,0.5-0.2,0.7
			c-0.1,0.2-0.2,0.3-0.3,0.4c-0.1,0.1-0.2,0.1-0.4,0.1c-0.3,0-0.5,0-0.8-0.1c-0.3-0.1-0.5-0.2-0.7-0.4s-0.4-0.4-0.5-0.6
			s-0.2-0.5-0.2-0.8c0-0.4,0.1-0.8,0.2-1.2c0.2-0.4,0.3-0.8,0.5-1.2c0.3-0.7,0.6-1.3,1-2c0.4-0.6,0.9-1.2,1.4-1.6
			c0.5-0.5,1.1-0.9,1.8-1.1c0.6-0.3,1.4-0.4,2.2-0.4c1,0,1.9,0.2,2.5,0.6c0.7,0.4,1.2,1,1.6,1.6c0.4,0.7,0.7,1.4,0.8,2.3
			c0.2,0.8,0.2,1.7,0.2,2.5c0,1.4-0.2,3-0.5,4.6c-0.3,1.6-0.8,3.3-1.3,5c-0.5,1.7-1.1,3.3-1.7,4.9c-0.6,1.6-1.1,3.1-1.6,4.4
			l-1.4,4.1l5.3-0.7c0.1,0,0.2,0,0.3,0c0.1,0,0.2,0,0.3,0c0.4,0,0.6,0.1,0.8,0.3C162.1,705,162.2,705.2,162.2,705.6z"/>
		<path class="st13" d="M178.1,692.6c0,0.5,0,1.2,0,1.9c0,0.8-0.1,1.6-0.1,2.4c-0.1,0.9-0.1,1.8-0.3,2.7c-0.1,0.9-0.3,1.8-0.5,2.7
			c-0.2,0.9-0.5,1.7-0.8,2.5c-0.3,0.8-0.7,1.5-1.2,2.1c-0.5,0.6-1,1.1-1.6,1.4c-0.6,0.3-1.3,0.5-2.1,0.5c-0.7,0-1.4-0.2-2-0.5
			c-0.6-0.3-1.1-0.7-1.5-1.2c-0.4-0.5-0.8-1.1-1.1-1.7c-0.3-0.7-0.6-1.3-0.7-2c-0.2-0.7-0.4-1.4-0.5-2.1c-0.1-0.7-0.2-1.3-0.3-1.9
			c-0.2-1.5-0.4-3-0.5-4.5c-0.1-1.5-0.2-3-0.2-4.6c0-1.5,0.1-3.1,0.2-4.6c0.1-1.5,0.4-3,0.8-4.5c-0.1-0.1-0.2-0.3-0.3-0.4
			c-0.1-0.1-0.1-0.3-0.1-0.5c0-0.1,0-0.2,0-0.2c0-0.1,0-0.1,0.1-0.2c0.2-0.6,0.5-1.3,0.8-2c0.3-0.7,0.8-1.3,1.2-1.9
			c0.5-0.6,1-1.1,1.7-1.4c0.6-0.4,1.3-0.6,2.1-0.6c0.7,0,1.3,0.1,1.8,0.4c0.5,0.3,1,0.6,1.4,1c0.4,0.4,0.7,0.9,1,1.5
			s0.5,1.1,0.7,1.7c0.2,0.6,0.4,1.2,0.5,1.8c0.1,0.6,0.2,1.2,0.3,1.7c0.3,1.7,0.6,3.5,0.7,5.2C178,689.1,178.1,690.8,178.1,692.6z
			 M169.6,680.5c-0.3,0.7-0.5,1.4-0.7,2.2c-0.2,0.8-0.3,1.6-0.4,2.4c-0.1,0.8-0.2,1.6-0.2,2.5c0,0.8,0,1.6,0,2.3c0,0.3,0,0.7,0,1.3
			s0.1,1.3,0.1,2.1c0.1,0.8,0.1,1.7,0.2,2.6c0.1,0.9,0.2,1.9,0.3,2.8c0.1,0.9,0.3,1.8,0.4,2.7c0.2,0.9,0.4,1.6,0.6,2.3
			c0.2,0.7,0.4,1.2,0.7,1.6c0.3,0.4,0.5,0.6,0.8,0.6c0.2,0,0.4-0.1,0.6-0.3c0.2-0.2,0.3-0.5,0.5-0.7c0.1-0.3,0.3-0.6,0.4-0.9
			c0.1-0.3,0.2-0.5,0.2-0.7c0.5-1.5,0.8-3,1-4.6c0.2-1.5,0.3-3.1,0.3-4.7c0-1.2,0-2.4-0.1-3.7c-0.1-1.3-0.2-2.6-0.3-3.9
			c-0.1-1.3-0.3-2.6-0.6-3.9c-0.3-1.3-0.6-2.5-1-3.6c-0.1-0.4-0.3-0.7-0.4-1.1c-0.2-0.4-0.4-0.7-0.7-1c0,0-0.1,0.2-0.3,0.5
			s-0.4,0.7-0.6,1.1s-0.4,0.8-0.6,1.1C169.7,680.2,169.6,680.4,169.6,680.5z"/>
		<path class="st13" d="M202.1,684.3c0,3.8-0.3,7.5-0.9,11.1c-0.6,3.7-1.7,7.2-3.2,10.7c0,0.1,0.1,0.3,0.2,0.5
			c0.1,0.2,0.2,0.4,0.3,0.7c0.1,0.2,0.2,0.4,0.2,0.7c0.1,0.2,0.1,0.4,0.1,0.5c0,0.2-0.1,0.4-0.2,0.5c-0.1,0.1-0.3,0.2-0.5,0.2
			s-0.4,0.1-0.6,0.1c-0.2,0-0.4,0-0.5,0c-0.4,0-0.8,0-1.1-0.1c-0.3,0-0.6-0.2-1-0.5c-0.2-0.2-0.5-0.7-0.8-1.4
			c-0.3-0.8-0.6-1.7-1-2.9c-0.3-1.2-0.7-2.4-1.1-3.9c-0.4-1.4-0.7-2.9-1.1-4.5c-0.4-1.5-0.7-3.1-1.1-4.6c-0.3-1.5-0.7-2.9-1-4.2
			c-0.3-1.3-0.5-2.5-0.8-3.4s-0.4-1.7-0.5-2.2c-0.2-0.8-0.4-1.6-0.6-2.4c-0.2-0.8-0.3-1.6-0.3-2.5c0-0.3,0.1-0.5,0.3-0.5
			c0.2-0.1,0.4-0.1,0.6-0.1c0.5,0,0.9,0.1,1.3,0.2c0.4,0.2,0.7,0.4,1,0.8c0.1,0.2,0.2,0.5,0.3,0.9c0.1,0.4,0.1,0.7,0.2,0.9
			c0.5,2.3,1,4.6,1.6,6.9c0.5,2.3,1.1,4.6,1.7,6.9c0.4,1.4,0.8,2.9,1.1,4.3c0.4,1.4,0.8,2.8,1.2,4.2c0.8-2.5,1.4-5.1,1.7-7.7
			c0.3-2.6,0.5-5.2,0.5-7.9c0-0.4,0-0.9,0-1.5c0-0.6,0-1.3,0-2c0-0.7,0-1.4-0.1-2.2c0-0.7-0.1-1.5-0.2-2.1c-0.1-0.7-0.1-1.3-0.2-1.9
			c-0.1-0.6-0.2-1-0.4-1.4c0-0.1-0.1-0.2-0.2-0.3c-0.1-0.1-0.1-0.2-0.1-0.4c0-0.2,0.1-0.3,0.2-0.5c0.1-0.1,0.3-0.2,0.5-0.3
			c0.2-0.1,0.4-0.1,0.6-0.1c0.2,0,0.4,0,0.5,0c0.4,0,0.8,0,1.1,0.1c0.3,0.1,0.6,0.3,1,0.6c0.1,0.1,0.3,0.5,0.4,1
			c0.1,0.5,0.2,1.1,0.2,1.8c0.1,0.7,0.1,1.4,0.2,2.2c0,0.8,0.1,1.6,0.1,2.3c0,0.7,0,1.4,0,2S202.1,684,202.1,684.3z"/>
		<path class="st13" d="M222.2,694.9c0,0.3-0.1,0.7-0.4,1s-0.5,0.6-0.8,0.8c-0.1,0-0.2,0.1-0.4,0.1c-0.2,0-0.4,0.1-0.6,0.1
			s-0.4,0.1-0.6,0.1c-0.2,0-0.4,0.1-0.5,0.1l0.6,3.5c0.2,1.1,0.3,2.2,0.4,3.3c0.1,1.1,0.3,2.2,0.6,3.3c0,0.1,0.1,0.2,0.1,0.3
			c0,0.1,0,0.2,0,0.3c0,0.2-0.1,0.4-0.2,0.5c-0.1,0.1-0.3,0.2-0.4,0.2s-0.3,0.1-0.5,0.1s-0.4,0-0.5,0h-0.3c-0.5,0-0.9,0-1.1-0.1
			s-0.5-0.2-0.6-0.4c-0.1-0.2-0.2-0.4-0.3-0.7c0-0.3-0.1-0.7-0.2-1.1c-0.4-2.9-0.8-5.8-1.3-8.7c-1,0.1-2,0.2-3,0.4
			c-1,0.1-2,0.2-3,0.3l-0.8,4.7c0,0.3-0.1,0.7-0.1,1.2c-0.1,0.5-0.1,1-0.2,1.5c-0.1,0.5-0.2,1-0.2,1.4c-0.1,0.4-0.2,0.8-0.3,1
			c-0.1,0.2-0.2,0.3-0.3,0.4c-0.1,0.1-0.2,0.1-0.5,0.1c-0.3,0-0.6-0.1-0.8-0.2c-0.3-0.1-0.5-0.2-0.7-0.4c-0.2-0.2-0.4-0.4-0.5-0.7
			c-0.1-0.3-0.2-0.5-0.2-0.9s0-0.6,0.1-1c0.1-0.3,0.1-0.6,0.2-1c0.2-1,0.3-2.1,0.5-3.1c0.1-1,0.3-2.1,0.5-3.1c-0.1,0-0.2,0-0.4-0.1
			c-0.1,0-0.3-0.1-0.4-0.2c-0.1-0.1-0.2-0.1-0.3-0.2s-0.1-0.2-0.1-0.3c0-0.2,0.1-0.3,0.2-0.4c0.1-0.1,0.3-0.3,0.4-0.4
			c0.2-0.1,0.3-0.2,0.5-0.3c0.2-0.1,0.3-0.2,0.5-0.2c0.3-2.2,0.6-4.4,1-6.6c0.3-2.2,0.6-4.4,0.8-6.7c0.1-0.6,0.1-1.2,0.2-1.8
			c0-0.6,0.1-1.2,0.2-1.9c0.1-0.6,0.1-1.2,0.2-1.8c0.1-0.6,0.2-1.2,0.4-1.8c0.1-0.6,0.4-1,0.7-1.4c0.3-0.3,0.8-0.5,1.5-0.5
			c0.2,0,0.4,0,0.6,0c0.2,0,0.3,0.1,0.5,0.2c0.4,0.2,0.8,0.8,1.3,1.7c0.4,0.9,0.9,2,1.3,3.3c0.4,1.3,0.9,2.7,1.3,4.2
			c0.4,1.5,0.8,3,1.1,4.4c0.3,1.4,0.6,2.7,0.9,3.9c0.2,1.2,0.4,2,0.5,2.6c0.3,0,0.7-0.1,1-0.1c0.3,0,0.7-0.1,1-0.1
			c0.2,0,0.3,0,0.5,0c0.2,0,0.4,0.1,0.6,0.1c0.2,0.1,0.3,0.2,0.5,0.3C222.1,694.5,222.2,694.7,222.2,694.9z M214.7,694.8
			c-0.4-2.3-0.9-4.5-1.3-6.7c-0.5-2.2-1.1-4.4-1.7-6.6c-0.3,2.4-0.6,4.8-0.9,7.1c-0.3,2.4-0.7,4.7-1.1,7.1c0.9-0.1,1.7-0.3,2.5-0.4
			C213,695.1,213.9,694.9,214.7,694.8z"/>
		<path class="st13" d="M237.4,700.5c0,1.2-0.2,2.3-0.6,3.3c-0.4,1-0.9,2-1.6,2.7c-0.7,0.8-1.6,1.4-2.6,1.9c-1,0.5-2.1,0.7-3.3,0.7
			c-1.1,0-2.1-0.2-3-0.5c-0.9-0.3-1.7-0.8-2.4-1.4s-1.2-1.4-1.6-2.3c-0.4-0.9-0.6-1.9-0.6-3c0-0.2,0-0.5,0-0.8c0-0.3,0.1-0.7,0.2-1
			c0.1-0.3,0.2-0.6,0.4-0.8c0.2-0.2,0.4-0.3,0.7-0.3c0.3,0,0.5,0.1,0.8,0.2c0.3,0.1,0.6,0.2,0.9,0.4c0.3,0.2,0.5,0.4,0.7,0.6
			c0.2,0.2,0.3,0.5,0.3,0.8v1.4c0,1.1,0.3,2,0.9,2.7c0.6,0.7,1.5,1,2.6,1c0.8,0,1.5-0.2,2-0.5c0.6-0.4,1-0.8,1.4-1.4
			c0.4-0.6,0.6-1.2,0.8-1.9c0.2-0.7,0.2-1.4,0.2-2.1c0-1.3-0.3-2.6-0.8-3.9c-0.5-1.3-1.2-2.5-2.1-3.7c-0.8-1.2-1.7-2.4-2.7-3.5
			c-1-1.2-1.9-2.3-2.7-3.4c-0.8-1.1-1.5-2.3-2.1-3.4c-0.5-1.1-0.8-2.3-0.8-3.5c0-1,0.2-1.8,0.6-2.5c0.4-0.7,0.9-1.3,1.5-1.7
			c0.6-0.5,1.4-0.8,2.2-1c0.8-0.2,1.7-0.3,2.5-0.3c1.1,0,2,0.2,2.9,0.5c0.8,0.3,1.6,0.7,2.1,1.3c0.6,0.6,1,1.3,1.3,2.1
			c0.3,0.8,0.5,1.8,0.5,2.8c0,0.2,0,0.4,0,0.6c0,0.2-0.1,0.5-0.1,0.7c-0.1,0.2-0.2,0.4-0.3,0.6c-0.1,0.2-0.3,0.2-0.5,0.2
			c-0.3,0-0.6-0.1-1-0.2c-0.3-0.1-0.5-0.3-0.7-0.4c-0.2-0.1-0.3-0.3-0.4-0.5c-0.1-0.2-0.2-0.4-0.2-0.6s-0.1-0.5-0.1-0.8
			c-0.1-0.6-0.2-1.1-0.3-1.5c-0.1-0.5-0.3-0.8-0.6-1.2c-0.3-0.3-0.6-0.6-1-0.7c-0.4-0.2-0.9-0.3-1.6-0.3c-0.5,0-0.9,0-1.3,0.1
			c-0.4,0.1-0.8,0.3-1.1,0.5s-0.6,0.5-0.7,0.9c-0.2,0.4-0.3,0.8-0.3,1.3c0,0.7,0.2,1.5,0.5,2.2c0.3,0.8,0.8,1.5,1.3,2.3
			c0.5,0.8,1.1,1.6,1.8,2.4c0.7,0.8,1.4,1.7,2.1,2.6c0.7,0.9,1.4,1.8,2.1,2.7c0.7,0.9,1.3,1.9,1.8,2.9c0.5,1,1,2.1,1.3,3.2
			C237.3,698.2,237.4,699.4,237.4,700.5z"/>
		<path class="st13" d="M255.4,689.8c0,0.7,0,1.4,0,2.3c0,0.9-0.1,1.8-0.2,2.8c-0.1,1-0.2,2-0.4,3.1s-0.4,2.1-0.7,3.1
			c-0.3,1-0.6,1.9-1,2.8c-0.4,0.9-0.9,1.7-1.4,2.3c-0.6,0.7-1.2,1.2-1.9,1.6c-0.7,0.4-1.6,0.6-2.5,0.6c-0.9,0-1.8-0.2-2.5-0.7
			c-0.8-0.4-1.4-1-1.9-1.7c-0.4-0.6-0.8-1.3-1.1-2.1c-0.3-0.8-0.6-1.7-0.9-2.7c-0.2-1-0.5-2-0.6-3.1c-0.2-1.1-0.3-2.1-0.4-3.1
			c-0.1-1-0.2-2-0.2-2.9c0-0.9-0.1-1.7-0.1-2.4c0-1.2,0.1-2.4,0.2-3.7c0.1-1.3,0.3-2.6,0.6-3.8c0.3-1.3,0.7-2.5,1.2-3.7
			c0.5-1.2,1.1-2.2,1.9-3.2c0.1-0.1,0.2-0.2,0.3-0.3c0.1-0.1,0.2-0.2,0.4-0.4s0.3-0.2,0.4-0.3c0.2-0.1,0.3-0.1,0.4-0.1
			s0.3,0,0.4,0.1c0.1,0.1,0.2,0.2,0.3,0.3c0.3-0.2,0.7-0.3,1.1-0.4c0.4-0.1,0.7-0.1,1.1-0.1c1.2,0,2.2,0.3,3,0.8
			c0.8,0.5,1.5,1.3,2.1,2.2c0.6,0.9,1,1.9,1.3,3c0.3,1.1,0.6,2.3,0.8,3.4c0.2,1.2,0.3,2.3,0.3,3.4S255.4,688.9,255.4,689.8z
			 M251.7,690.8c0-0.4,0-1,0-1.9c0-0.8-0.1-1.8-0.2-2.8c-0.1-1-0.2-2.1-0.4-3.2c-0.2-1.1-0.4-2.1-0.7-2.9c-0.3-0.9-0.6-1.6-1.1-2.2
			c-0.4-0.6-0.9-0.8-1.5-0.8c-0.2,0-0.5,0.1-0.6,0.3s-0.4,0.5-0.5,0.9c-0.2,0.3-0.3,0.7-0.5,1.1c-0.1,0.4-0.3,0.8-0.4,1.2
			c-0.1,0.4-0.3,0.7-0.4,1c-0.1,0.3-0.3,0.5-0.4,0.6c0,0-0.1,0.1-0.2,0.1c-0.1,0-0.2,0-0.3,0c-0.3,0-0.5,0-0.8-0.1
			c-0.3,1.1-0.5,2.2-0.6,3.2c-0.1,1.1-0.2,2.2-0.2,3.2c0,0.3,0,0.8,0,1.5c0,0.7,0.1,1.4,0.1,2.3c0.1,0.9,0.2,1.8,0.3,2.8
			c0.1,1,0.2,2,0.4,2.9c0.2,1,0.3,1.9,0.6,2.8s0.5,1.7,0.7,2.4s0.6,1.2,1,1.7c0.3,0.4,0.7,0.6,1.2,0.6c0.2,0,0.5-0.1,0.6-0.2
			c0.2-0.1,0.4-0.3,0.5-0.4c0.5-0.4,0.9-1,1.2-1.7c0.3-0.7,0.6-1.5,0.9-2.3c0.2-0.8,0.4-1.7,0.6-2.7c0.2-0.9,0.3-1.8,0.4-2.7
			c0.1-0.9,0.1-1.8,0.2-2.6C251.7,692.1,251.7,691.4,251.7,690.8z"/>
		<path class="st13" d="M273.1,700.5c0,1.2-0.2,2.3-0.6,3.3c-0.4,1-0.9,2-1.6,2.7c-0.7,0.8-1.6,1.4-2.6,1.9c-1,0.5-2.1,0.7-3.3,0.7
			c-1.1,0-2.1-0.2-3-0.5c-0.9-0.3-1.7-0.8-2.4-1.4c-0.7-0.6-1.2-1.4-1.6-2.3c-0.4-0.9-0.6-1.9-0.6-3c0-0.2,0-0.5,0-0.8
			c0-0.3,0.1-0.7,0.2-1c0.1-0.3,0.2-0.6,0.4-0.8c0.2-0.2,0.4-0.3,0.7-0.3c0.3,0,0.5,0.1,0.8,0.2c0.3,0.1,0.6,0.2,0.9,0.4
			c0.3,0.2,0.5,0.4,0.7,0.6c0.2,0.2,0.3,0.5,0.3,0.8v1.4c0,1.1,0.3,2,0.9,2.7s1.5,1,2.6,1c0.8,0,1.5-0.2,2-0.5
			c0.6-0.4,1-0.8,1.4-1.4c0.4-0.6,0.6-1.2,0.8-1.9c0.2-0.7,0.2-1.4,0.2-2.1c0-1.3-0.3-2.6-0.8-3.9c-0.5-1.3-1.2-2.5-2.1-3.7
			c-0.8-1.2-1.7-2.4-2.7-3.5c-1-1.2-1.9-2.3-2.7-3.4c-0.8-1.1-1.5-2.3-2.1-3.4c-0.5-1.1-0.8-2.3-0.8-3.5c0-1,0.2-1.8,0.6-2.5
			c0.4-0.7,0.9-1.3,1.5-1.7c0.6-0.5,1.4-0.8,2.2-1c0.8-0.2,1.7-0.3,2.5-0.3c1.1,0,2,0.2,2.9,0.5c0.8,0.3,1.6,0.7,2.1,1.3
			c0.6,0.6,1,1.3,1.3,2.1c0.3,0.8,0.5,1.8,0.5,2.8c0,0.2,0,0.4,0,0.6c0,0.2-0.1,0.5-0.1,0.7c-0.1,0.2-0.2,0.4-0.3,0.6
			c-0.1,0.2-0.3,0.2-0.5,0.2c-0.3,0-0.6-0.1-1-0.2c-0.3-0.1-0.5-0.3-0.7-0.4c-0.2-0.1-0.3-0.3-0.4-0.5s-0.2-0.4-0.2-0.6
			s-0.1-0.5-0.1-0.8c-0.1-0.6-0.2-1.1-0.3-1.5c-0.1-0.5-0.3-0.8-0.6-1.2c-0.3-0.3-0.6-0.6-1-0.7c-0.4-0.2-0.9-0.3-1.6-0.3
			c-0.5,0-0.9,0-1.3,0.1c-0.4,0.1-0.8,0.3-1.1,0.5c-0.3,0.2-0.6,0.5-0.7,0.9c-0.2,0.4-0.3,0.8-0.3,1.3c0,0.7,0.2,1.5,0.5,2.2
			c0.3,0.8,0.8,1.5,1.3,2.3c0.5,0.8,1.1,1.6,1.8,2.4c0.7,0.8,1.4,1.7,2.1,2.6c0.7,0.9,1.4,1.8,2.1,2.7c0.7,0.9,1.3,1.9,1.8,2.9
			c0.5,1,1,2.1,1.3,3.2C272.9,698.2,273.1,699.4,273.1,700.5z"/>
		<path class="st13" d="M299.4,691c0,1.7-0.2,3.4-0.5,5c-0.3,1.6-0.8,3.2-1.5,4.6c-0.7,1.4-1.6,2.7-2.7,3.9
			c-1.1,1.2-2.5,2.1-4.1,2.9c-0.4,0.2-0.9,0.4-1.3,0.5c-0.5,0.2-1,0.3-1.5,0.4c-0.5,0.1-1,0.2-1.5,0.3c-0.5,0.1-1,0.1-1.4,0.1
			c-0.2,0-0.4,0-0.6,0c-0.2,0-0.4,0-0.6-0.1c-0.2-0.1-0.3-0.1-0.5-0.3c-0.1-0.1-0.2-0.3-0.2-0.5c0-0.2,0-0.4,0.1-0.6
			c0.1-0.2,0.2-0.4,0.3-0.6c0.1-0.2,0.3-0.4,0.4-0.5c0.2-0.2,0.3-0.3,0.5-0.3c-0.1-0.1-0.2-0.5-0.2-1.1c-0.1-0.6-0.1-1.3-0.2-2.2
			c-0.1-0.9-0.1-1.9-0.2-3s-0.1-2.3-0.1-3.5c0-1.2-0.1-2.4-0.1-3.6c0-1.2,0-2.3-0.1-3.3c0-1,0-1.9,0-2.6c0-0.7,0-1.3,0-1.6
			c0-1.5,0-3,0.1-4.4c0-1.4,0.1-2.9,0.1-4.4c-0.2,0-0.3,0-0.5-0.1c-0.2-0.1-0.2-0.2-0.2-0.4c0-0.3,0.1-0.5,0.2-0.7
			c0.1-0.2,0.3-0.4,0.5-0.6c0.2-0.2,0.4-0.3,0.7-0.4c0.2-0.1,0.5-0.1,0.7-0.1c0.2,0,0.4,0,0.6,0.1c0.2,0,0.4,0.1,0.6,0.1
			c2.1,0.5,4,1.3,5.6,2.3c1.6,1,3,2.3,4.2,3.8s2,3.1,2.6,5C299.1,686.8,299.4,688.8,299.4,691z M295.8,690.6c0-1.6-0.2-3.1-0.6-4.5
			c-0.4-1.4-0.9-2.7-1.7-3.9c-0.8-1.2-1.7-2.2-2.8-3.1c-1.1-0.9-2.4-1.6-3.9-2.2v0.1c0,4.1,0.1,8.1,0.2,12.2c0.1,4,0.3,8.1,0.6,12.1
			c0,0.6,0.1,1.2,0.1,1.8c0,0.6,0.1,1.2,0.2,1.8c1.5-0.5,2.7-1.3,3.8-2.3c1-1,1.8-2.2,2.4-3.5c0.6-1.3,1-2.7,1.3-4.2
			C295.7,693.4,295.8,692,295.8,690.6z"/>
		<path class="st13" d="M318.3,702.8c0,0.3-0.1,0.5-0.3,0.8c-0.2,0.3-0.5,0.5-0.8,0.7c-0.3,0.2-0.6,0.5-0.9,0.7
			c-0.3,0.2-0.6,0.4-0.8,0.5c-0.5,0.3-1.1,0.7-1.6,1c-0.5,0.3-1.1,0.6-1.6,0.8c-0.6,0.2-1.1,0.4-1.7,0.5s-1.2,0.2-1.9,0.2l-0.4,0
			c-0.5,0-1-0.1-1.6-0.2c-0.5-0.1-1-0.3-1.4-0.5c-0.4-0.2-0.8-0.6-1.2-0.9c-0.3-0.4-0.6-0.8-0.8-1.4c-0.1-0.4-0.3-0.9-0.3-1.5
			c-0.1-0.6-0.1-1.2-0.2-1.8c0-0.6-0.1-1.3-0.1-1.9c0-0.6,0-1.2-0.1-1.6c-0.2-4.9-0.4-9.7-0.6-14.6c0-0.6-0.1-1.1-0.1-1.7
			c0-0.6,0-1.1,0-1.7c0-1,0.1-1.8,0.2-2.4c0.1-0.7,0.3-1.2,0.7-1.6s0.8-0.7,1.4-0.9c0.6-0.2,1.5-0.3,2.5-0.3c1,0,2.1,0,3.1,0
			c1,0,2.1,0,3.1,0c0.3,0,0.6,0,1,0c0.3,0,0.6,0,1,0.1c0.2,0,0.4,0.1,0.5,0.2c0.1,0.1,0.2,0.2,0.2,0.5c0,0.6-0.2,1-0.6,1.3
			c-0.4,0.3-0.8,0.5-1.4,0.6s-1.1,0.1-1.6,0.1c-0.6,0-1,0-1.4,0h-3.1c-0.3,0-0.6,0-1,0c-0.3,0-0.6,0-1,0c-0.1,0.2-0.2,0.5-0.2,0.7
			c0,0.3,0,0.5,0,0.8c0,1.7,0,3.4,0.1,5.1c0.1,1.7,0.2,3.4,0.2,5.1c1-0.1,2-0.2,2.9-0.3c1-0.1,1.9-0.2,2.9-0.4c0.1,0,0.3,0,0.4,0
			c0.1,0,0.2,0,0.4,0c0.3,0,0.6,0.1,0.7,0.3c0.1,0.2,0.2,0.4,0.2,0.7c0,0.2,0,0.4,0,0.6c0,0.2-0.1,0.4-0.2,0.6
			c-0.1,0.3-0.3,0.5-0.5,0.7c-0.3,0.1-0.5,0.2-0.9,0.3c-0.3,0.1-0.6,0.1-1,0.1c-0.3,0-0.6,0-0.9,0c-0.7,0-1.3,0.1-2,0.1
			c-0.6,0-1.3,0-1.9,0.1c0,0.3,0,0.8,0.1,1.5c0,0.7,0.1,1.4,0.1,2.2c0,0.8,0.1,1.7,0.1,2.6c0.1,0.9,0.1,1.7,0.2,2.5
			c0.1,0.8,0.1,1.5,0.2,2.1c0.1,0.6,0.2,1,0.2,1.2c0.2,0.3,0.4,0.6,0.6,0.7c0.2,0.1,0.5,0.2,0.9,0.2c0.6,0,1.2-0.1,1.9-0.3
			c0.6-0.2,1.3-0.5,1.9-0.9c0.6-0.4,1.2-0.7,1.8-1.2c0.6-0.4,1.1-0.8,1.5-1.3c0.2-0.1,0.3-0.3,0.5-0.4c0.2-0.2,0.4-0.2,0.6-0.2
			c0.2,0,0.5,0.1,0.7,0.2c0.2,0.1,0.4,0.3,0.6,0.5c0.2,0.2,0.3,0.4,0.4,0.7C318.2,702.4,318.3,702.6,318.3,702.8z"/>
		<path class="st13" d="M343.5,694.9c0,0.3-0.1,0.7-0.4,1c-0.2,0.4-0.5,0.6-0.8,0.8c-0.1,0-0.2,0.1-0.4,0.1c-0.2,0-0.4,0.1-0.6,0.1
			s-0.4,0.1-0.6,0.1c-0.2,0-0.4,0.1-0.5,0.1l0.6,3.5c0.2,1.1,0.3,2.2,0.4,3.3c0.1,1.1,0.3,2.2,0.6,3.3c0,0.1,0.1,0.2,0.1,0.3
			c0,0.1,0,0.2,0,0.3c0,0.2-0.1,0.4-0.2,0.5s-0.3,0.2-0.4,0.2s-0.3,0.1-0.5,0.1c-0.2,0-0.4,0-0.5,0h-0.3c-0.5,0-0.9,0-1.1-0.1
			s-0.5-0.2-0.6-0.4c-0.1-0.2-0.2-0.4-0.3-0.7s-0.1-0.7-0.2-1.1c-0.4-2.9-0.8-5.8-1.3-8.7c-1,0.1-2,0.2-3,0.4c-1,0.1-2,0.2-3,0.3
			l-0.8,4.7c0,0.3-0.1,0.7-0.1,1.2c-0.1,0.5-0.1,1-0.2,1.5c-0.1,0.5-0.2,1-0.2,1.4c-0.1,0.4-0.2,0.8-0.3,1c-0.1,0.2-0.2,0.3-0.3,0.4
			c-0.1,0.1-0.2,0.1-0.5,0.1c-0.3,0-0.6-0.1-0.8-0.2c-0.3-0.1-0.5-0.2-0.7-0.4c-0.2-0.2-0.4-0.4-0.5-0.7c-0.1-0.3-0.2-0.5-0.2-0.9
			s0-0.6,0.1-1c0.1-0.3,0.1-0.6,0.2-1c0.2-1,0.3-2.1,0.5-3.1c0.1-1,0.3-2.1,0.5-3.1c-0.1,0-0.2,0-0.4-0.1s-0.3-0.1-0.4-0.2
			c-0.1-0.1-0.2-0.1-0.3-0.2s-0.1-0.2-0.1-0.3c0-0.2,0.1-0.3,0.2-0.4s0.3-0.3,0.4-0.4c0.2-0.1,0.3-0.2,0.5-0.3
			c0.2-0.1,0.3-0.2,0.5-0.2c0.3-2.2,0.6-4.4,1-6.6c0.3-2.2,0.6-4.4,0.8-6.7c0.1-0.6,0.1-1.2,0.2-1.8s0.1-1.2,0.2-1.9
			c0.1-0.6,0.1-1.2,0.2-1.8c0.1-0.6,0.2-1.2,0.4-1.8c0.1-0.6,0.4-1,0.7-1.4s0.8-0.5,1.5-0.5c0.2,0,0.4,0,0.6,0
			c0.2,0,0.3,0.1,0.5,0.2c0.4,0.2,0.8,0.8,1.3,1.7c0.4,0.9,0.9,2,1.3,3.3c0.4,1.3,0.9,2.7,1.3,4.2c0.4,1.5,0.8,3,1.1,4.4
			c0.3,1.4,0.6,2.7,0.9,3.9c0.2,1.2,0.4,2,0.5,2.6c0.3,0,0.7-0.1,1-0.1c0.3,0,0.7-0.1,1-0.1c0.2,0,0.3,0,0.5,0
			c0.2,0,0.4,0.1,0.6,0.1c0.2,0.1,0.3,0.2,0.5,0.3C343.4,694.5,343.5,694.7,343.5,694.9z M336,694.8c-0.4-2.3-0.9-4.5-1.3-6.7
			c-0.5-2.2-1.1-4.4-1.7-6.6c-0.3,2.4-0.6,4.8-0.9,7.1s-0.7,4.7-1.1,7.1c0.9-0.1,1.7-0.3,2.5-0.4S335.1,694.9,336,694.8z"/>
		<path class="st13" d="M362.5,690.9c0,0.5-0.1,0.9-0.3,1.2c-0.2,0.3-0.4,0.5-0.7,0.6c-0.3,0.1-0.6,0.2-1,0.3
			c-0.4,0-0.7,0.1-1.1,0.1c0.9,0.9,1.5,1.9,2,3.1c0.5,1.2,0.8,2.4,0.8,3.6c0,1.2-0.2,2.4-0.6,3.6c-0.4,1.2-1,2.2-1.8,3.1
			c-0.8,0.9-1.7,1.6-2.7,2.2c-1.1,0.6-2.2,0.8-3.5,0.8c-1,0-2-0.2-2.8-0.6c-0.8-0.4-1.6-0.9-2.2-1.6c-0.7-0.7-1.2-1.5-1.7-2.4
			c-0.5-0.9-0.9-1.9-1.3-2.9c-0.3-1-0.6-2.1-0.9-3.2c-0.2-1.1-0.4-2.2-0.5-3.3c-0.1-1.1-0.2-2.1-0.3-3c-0.1-1-0.1-1.8-0.1-2.6
			c0-0.9,0-1.8,0.1-2.9c0.1-1,0.2-2,0.4-3.1c0.2-1,0.5-2,0.8-3c0.3-1,0.8-1.9,1.3-2.7c0.5-0.8,1.2-1.6,1.9-2.2s1.6-1.1,2.6-1.4
			c0.4-0.1,0.7-0.2,1.1-0.3c0.4-0.1,0.7-0.1,1.1-0.1c1.6,0,2.9,0.4,4,1.3c1.1,0.9,1.8,2,2.4,3.5c0.1,0.2,0.2,0.4,0.2,0.7
			c0.1,0.2,0.1,0.5,0.1,0.7c0,0.3-0.1,0.5-0.3,0.5c-0.2,0.1-0.4,0.1-0.6,0.1c-0.6,0-1-0.1-1.4-0.3c-0.3-0.2-0.6-0.5-0.9-0.8
			c-0.2-0.3-0.4-0.6-0.6-1c-0.2-0.4-0.4-0.7-0.6-1c-0.2-0.3-0.5-0.6-0.8-0.8c-0.3-0.2-0.8-0.3-1.3-0.3c-0.8,0-1.5,0.2-2.1,0.7
			c-0.6,0.4-1.1,1-1.6,1.7c-0.4,0.7-0.8,1.5-1.1,2.5c-0.3,0.9-0.5,1.8-0.7,2.7c-0.2,0.9-0.3,1.8-0.4,2.6c-0.1,0.8-0.1,1.6-0.1,2.1
			c0,0.6,0,1.5,0.1,2.6c0.1,1.1,0.2,2.3,0.4,3.6c0.2,1.3,0.4,2.6,0.7,3.9c0.3,1.3,0.7,2.5,1.2,3.6c0.5,1.1,1,2,1.7,2.6s1.4,1,2.2,1
			c0.7,0,1.4-0.2,2-0.7c0.6-0.4,1.1-1,1.5-1.6c0.4-0.7,0.7-1.4,1-2.1c0.2-0.8,0.3-1.5,0.3-2.1c0-0.6-0.1-1.2-0.3-1.8
			c-0.2-0.6-0.4-1.2-0.7-1.7c-0.3-0.5-0.7-1.1-1.1-1.5c-0.4-0.5-0.9-0.9-1.5-1.2c-0.2-0.1-0.4-0.2-0.6-0.3c-0.2-0.1-0.5-0.2-0.7-0.3
			c-0.1,0-0.4,0-0.7-0.1c-0.4,0-0.7-0.1-1.1-0.1c-0.4,0-0.7-0.1-1-0.2c-0.3-0.1-0.5-0.3-0.5-0.5c0-0.3,0-0.6,0.1-0.9
			s0.2-0.6,0.4-0.8c0.2-0.2,0.4-0.4,0.6-0.6c0.2-0.2,0.5-0.2,0.8-0.2c0.5,0,1,0.1,1.5,0.2c0.5,0.1,1,0.3,1.4,0.5
			c0.8,0,1.6-0.1,2.4-0.2c0.8-0.1,1.5-0.1,2.3-0.2c0.3,0,0.5-0.1,0.8-0.1c0.3,0,0.5-0.1,0.8-0.1c0.4,0,0.7,0.1,0.9,0.3
			C362.4,690.2,362.5,690.5,362.5,690.9z"/>
		<path class="st13" d="M381.4,693.4c0,0.9,0,1.8-0.1,2.9c-0.1,1.1-0.2,2.1-0.3,3.3c-0.2,1.1-0.4,2.2-0.8,3.2s-0.8,2-1.4,2.8
			c-0.6,0.8-1.3,1.5-2.1,2c-0.8,0.5-1.8,0.7-3,0.7c-0.7,0-1.3-0.1-1.9-0.3c-0.6-0.2-1.2-0.5-1.7-0.9c-0.8-0.6-1.5-1.5-2.1-2.6
			c-0.6-1.1-1-2.4-1.4-3.8c-0.4-1.4-0.6-2.9-0.8-4.5c-0.2-1.6-0.3-3.2-0.4-4.7c-0.1-1.5-0.1-3-0.2-4.4c0-1.4,0-2.5,0-3.5
			c0-0.3,0-0.6,0-1.1c0-0.5,0-1,0-1.6c0-0.6,0-1.2,0-1.8c0-0.6,0-1.2,0.1-1.8c0-0.6,0.1-1.1,0.1-1.5s0.1-0.7,0.2-0.9
			c0.1-0.2,0.2-0.3,0.3-0.4c0.1-0.1,0.3-0.1,0.5-0.1c0.7,0,1.3,0.2,1.7,0.7c0.4,0.4,0.6,1,0.6,1.7c0,1,0,2.1-0.1,3.1
			s-0.1,2.1-0.1,3.1c0,0.5,0,1.1,0,2c0,0.9,0,1.9,0.1,3s0.1,2.4,0.2,3.7c0.1,1.3,0.2,2.6,0.4,3.9c0.2,1.3,0.4,2.5,0.6,3.7
			c0.3,1.2,0.6,2.2,0.9,3.1c0.4,0.9,0.8,1.6,1.2,2.2c0.5,0.5,1,0.8,1.6,0.8c0.6,0,1.1-0.2,1.5-0.7c0.4-0.5,0.8-1.1,1.1-1.8
			c0.3-0.7,0.5-1.5,0.7-2.4c0.2-0.9,0.3-1.8,0.4-2.6c0.1-0.9,0.2-1.7,0.2-2.4c0-0.7,0-1.3,0-1.7c0-0.9,0-1.8-0.1-2.9
			c0-1.1-0.1-2.2-0.2-3.3c-0.1-1.2-0.2-2.3-0.3-3.5c-0.1-1.2-0.3-2.4-0.5-3.5c-0.2-1.1-0.4-2.2-0.6-3.2c-0.2-1-0.5-2-0.8-2.8
			c0-0.1-0.1-0.3-0.2-0.5c-0.1-0.2-0.2-0.4-0.2-0.5c0-0.3,0.1-0.4,0.2-0.6c0.1-0.1,0.3-0.2,0.4-0.3c0.2-0.1,0.4-0.1,0.6-0.1
			c0.2,0,0.4,0,0.6,0c0.4,0,0.7,0,0.9,0c0.2,0,0.5,0.1,0.9,0.3c0.2,0.1,0.4,0.5,0.6,1c0.2,0.6,0.4,1.3,0.6,2.2
			c0.2,0.9,0.3,1.9,0.5,3c0.2,1.1,0.3,2.2,0.4,3.4c0.1,1.2,0.2,2.3,0.3,3.5s0.2,2.2,0.2,3.2c0.1,1,0.1,1.8,0.1,2.6
			C381.4,692.5,381.4,693.1,381.4,693.4z"/>
		<path class="st13" d="M401.6,694.9c0,0.3-0.1,0.7-0.4,1c-0.2,0.4-0.5,0.6-0.8,0.8c-0.1,0-0.2,0.1-0.4,0.1c-0.2,0-0.4,0.1-0.6,0.1
			s-0.4,0.1-0.6,0.1c-0.2,0-0.4,0.1-0.5,0.1l0.6,3.5c0.2,1.1,0.3,2.2,0.4,3.3c0.1,1.1,0.3,2.2,0.6,3.3c0,0.1,0.1,0.2,0.1,0.3
			c0,0.1,0,0.2,0,0.3c0,0.2-0.1,0.4-0.2,0.5c-0.1,0.1-0.3,0.2-0.4,0.2c-0.2,0.1-0.3,0.1-0.5,0.1c-0.2,0-0.4,0-0.5,0H398
			c-0.5,0-0.9,0-1.1-0.1s-0.5-0.2-0.6-0.4c-0.1-0.2-0.2-0.4-0.3-0.7s-0.1-0.7-0.2-1.1c-0.4-2.9-0.8-5.8-1.3-8.7c-1,0.1-2,0.2-3,0.4
			c-1,0.1-2,0.2-3,0.3l-0.8,4.7c0,0.3-0.1,0.7-0.1,1.2c-0.1,0.5-0.1,1-0.2,1.5c-0.1,0.5-0.2,1-0.2,1.4c-0.1,0.4-0.2,0.8-0.3,1
			c-0.1,0.2-0.2,0.3-0.3,0.4c-0.1,0.1-0.2,0.1-0.5,0.1c-0.3,0-0.6-0.1-0.8-0.2c-0.3-0.1-0.5-0.2-0.7-0.4c-0.2-0.2-0.4-0.4-0.5-0.7
			c-0.1-0.3-0.2-0.5-0.2-0.9s0-0.6,0.1-1c0.1-0.3,0.1-0.6,0.2-1c0.2-1,0.3-2.1,0.5-3.1c0.1-1,0.3-2.1,0.5-3.1c-0.1,0-0.2,0-0.4-0.1
			c-0.1,0-0.3-0.1-0.4-0.2c-0.1-0.1-0.2-0.1-0.3-0.2c-0.1-0.1-0.1-0.2-0.1-0.3c0-0.2,0.1-0.3,0.2-0.4c0.1-0.1,0.3-0.3,0.4-0.4
			c0.2-0.1,0.3-0.2,0.5-0.3c0.2-0.1,0.3-0.2,0.5-0.2c0.3-2.2,0.6-4.4,1-6.6c0.3-2.2,0.6-4.4,0.8-6.7c0.1-0.6,0.1-1.2,0.2-1.8
			c0-0.6,0.1-1.2,0.2-1.9c0.1-0.6,0.1-1.2,0.2-1.8c0.1-0.6,0.2-1.2,0.4-1.8c0.1-0.6,0.4-1,0.7-1.4s0.8-0.5,1.5-0.5
			c0.2,0,0.4,0,0.6,0c0.2,0,0.3,0.1,0.5,0.2c0.4,0.2,0.8,0.8,1.3,1.7c0.4,0.9,0.9,2,1.3,3.3c0.4,1.3,0.9,2.7,1.3,4.2
			c0.4,1.5,0.8,3,1.1,4.4c0.3,1.4,0.6,2.7,0.9,3.9c0.2,1.2,0.4,2,0.5,2.6c0.3,0,0.7-0.1,1-0.1s0.7-0.1,1-0.1c0.2,0,0.3,0,0.5,0
			c0.2,0,0.4,0.1,0.6,0.1c0.2,0.1,0.3,0.2,0.5,0.3C401.5,694.5,401.6,694.7,401.6,694.9z M394.1,694.8c-0.4-2.3-0.9-4.5-1.3-6.7
			c-0.5-2.2-1.1-4.4-1.7-6.6c-0.3,2.4-0.6,4.8-0.9,7.1c-0.3,2.4-0.7,4.7-1.1,7.1c0.9-0.1,1.7-0.3,2.5-0.4
			C392.4,695.1,393.3,694.9,394.1,694.8z"/>
	</g>
</g>
</svg>
