<?xml version="1.0" encoding="utf-8"?>
<!-- Generator: Adobe Illustrator 24.1.2, SVG Export Plug-In . SVG Version: 6.00 Build 0)  -->
<svg version="1.1" id="Layer_1" xmlns="http://www.w3.org/2000/svg" xmlns:xlink="http://www.w3.org/1999/xlink" x="0px" y="0px"
	 viewBox="0 0 976 742" style="enable-background:new 0 0 976 742;" xml:space="preserve">
<style type="text/css">
	.st0{fill:none;stroke:#7E7E7E;stroke-width:2;stroke-miterlimit:10;}
	.st1{opacity:0.28;fill:#4D9BDB;stroke:#7E7E7E;stroke-width:2;stroke-miterlimit:10;}
	.st2{fill:#A06B32;stroke:#000000;stroke-width:2;stroke-miterlimit:10;}
	.st3{fill:#A2D36E;stroke:#000000;stroke-width:2;stroke-miterlimit:10;}
	.st4{fill:#FFFFFF;stroke:#000000;stroke-width:3;stroke-miterlimit:10;}
	.st5{fill:none;stroke:#000000;stroke-width:3;stroke-miterlimit:10;}
	.st6{fill:none;stroke:#000000;stroke-width:6;stroke-miterlimit:10;}
	.st7{fill:#3D2C18;}
	.st8{fill:#73D66E;}
	.st9{fill:#A2D36E;}
	.st10{fill:#8E5D2D;stroke:#000000;stroke-width:3;stroke-miterlimit:10;}
	.st11{fill:#A06B32;}
	.st12{fill:#B28252;}
	.st13{fill:#4F9B49;}
</style>
<g>
	<path class="st0" d="M189,397.8c0,3-16.5,5.4-36.8,5.4s-36.8-2.4-36.8-5.4s16.5-5.4,36.8-5.4S189,394.8,189,397.8z"/>
	<ellipse class="st0" cx="152.2" cy="463.2" rx="28.1" ry="4.1"/>
	<line class="st0" x1="189" y1="397.8" x2="180.3" y2="463.2"/>
	<line class="st0" x1="115.4" y1="397.8" x2="124.1" y2="463.2"/>
	<path class="st1" d="M120.4,405.2c0,0,35.7-11.2,61.7,0.6l-9.1,56.8c0,0-13.8,5.6-42.8,0L120.4,405.2z"/>
</g>
<g>
	<path class="st0" d="M706.4,582.7c0,3-16.5,5.4-36.8,5.4c-20.3,0-36.8-2.4-36.8-5.4c0-3,16.5-5.4,36.8-5.4
		C689.9,577.3,706.4,579.7,706.4,582.7z"/>
	<ellipse class="st0" cx="669.5" cy="648.1" rx="28.1" ry="4.1"/>
	<line class="st0" x1="706.4" y1="582.7" x2="697.6" y2="648.1"/>
	<line class="st0" x1="632.7" y1="582.7" x2="641.4" y2="648.1"/>
	<path class="st1" d="M637.7,590.1c0,0,35.7-11.2,61.7,0.6l-9.1,56.8c0,0-13.8,5.6-42.8,0L637.7,590.1z"/>
</g>
<g>
	<path class="st2" d="M285,493.1c0,0-14.4,21.6-10.7,49.1c0,0,31.5,3.8,55.6,0c0,0,18.4-17.1,37.4-2.8l6.9,4.5h46.5
		c0,0,7.3-27-9.8-49.9C393.8,471.1,285,493.1,285,493.1z"/>
	<g>
		<path class="st3" d="M420.3,492.9c0-40.8-10.1-66.5-10.1-66.5l12.2,13.2c12.6-5,36.7-33,36.7-33c-4.7-24.7-36.7-40.6-36.7-40.6
			l-145.5-0.2c0,0-32,15.9-36.7,40.6c0,0,24.2,28,36.7,33l12.2-13.2c0,0-10.1,25.7-10.1,66.5c0,0,100.8,12.3,140.5,0"/>
	</g>
	<g>
		<circle class="st4" cx="348.3" cy="319.2" r="99.6"/>
		<g>
			
				<ellipse transform="matrix(0.7071 -0.7071 0.7071 0.7071 -146.8423 287.7699)" class="st4" cx="273.9" cy="321.1" rx="32.4" ry="32.4"/>
			<circle cx="273.5" cy="318.2" r="16.2"/>
			
				<ellipse transform="matrix(0.2298 -0.9732 0.9732 0.2298 10.9358 659.5027)" class="st4" cx="422.1" cy="322.8" rx="32.4" ry="32.4"/>
			<circle cx="421.7" cy="319.9" r="16.2"/>
		</g>
		<path class="st4" d="M294.6,370.2c0,0,55.7-31.9,101.4,0"/>
	</g>
	<path class="st5" d="M297.5,543.9v56c0,0-25.4-11.3-31.9,0c-6.5,11.3,6.8,15.1,19.1,12.3c12.3-2.8,12.7-4.3,12.7-4.3"/>
	<path class="st5" d="M404.1,543.9l1.5,61.8c0,0,27.4-16,29.2,0c1.8,16-29.2,7.4-29.2,7.4"/>
	<path class="st5" d="M445,421.5c0,0,55,5.4,69.7-7.5c14.7-12.9,4.4-22.3,4.4-22.3"/>
	<path class="st5" d="M257.3,424.5c0,0-10.5,15.1-34.2,16.1c-23.7,0.9-49-1.5-67.2-12.1"/>
</g>
<g>
	<path class="st13" d="M550.4,705.2c0,0.2,0,0.5-0.1,0.7c0,0.2-0.1,0.5-0.2,0.6c-0.1,0.3-0.3,0.5-0.6,0.6c-0.3,0.1-0.6,0.2-1,0.2
		c-0.4,0-0.7,0.1-1.1,0s-0.7,0-0.9,0c-0.7,0-1.3,0.1-2,0.2s-1.3,0.1-2,0.2c-0.2,0.4-0.5,0.6-1,0.6c-0.1,0-0.3,0-0.5-0.1
		c-0.2-0.1-0.4-0.1-0.6-0.2c-0.2-0.1-0.4-0.2-0.5-0.3c-0.2-0.1-0.3-0.2-0.3-0.3c-0.2-0.1-0.3-0.3-0.4-0.5c-0.1-0.2-0.2-0.4-0.2-0.6
		c0-0.4,0.1-0.7,0.2-1c0.2-0.3,0.3-0.6,0.4-1c0.9-2.3,1.7-4.5,2.5-6.7s1.6-4.5,2.4-6.8c0.3-0.7,0.5-1.5,0.7-2.3
		c0.2-0.8,0.5-1.5,0.7-2.3c0.2-0.8,0.3-1.6,0.5-2.4c0.1-0.8,0.2-1.6,0.2-2.4c0-0.3,0-0.6-0.1-1.1s-0.1-0.9-0.2-1.4
		c-0.1-0.5-0.3-0.8-0.5-1.2s-0.5-0.5-0.9-0.5c-0.2,0-0.5,0.1-0.7,0.2c-0.3,0.1-0.5,0.3-0.7,0.5s-0.4,0.4-0.6,0.7
		c-0.2,0.2-0.3,0.5-0.4,0.6c-0.3,0.4-0.5,0.9-0.7,1.4c-0.2,0.5-0.4,1-0.5,1.4c0,0.2-0.1,0.5-0.1,0.7c0,0.2-0.1,0.5-0.2,0.7
		c-0.1,0.2-0.2,0.3-0.3,0.4c-0.1,0.1-0.2,0.1-0.4,0.1c-0.3,0-0.5,0-0.8-0.1c-0.3-0.1-0.5-0.2-0.7-0.4c-0.2-0.2-0.4-0.4-0.5-0.6
		c-0.1-0.2-0.2-0.5-0.2-0.8c0-0.4,0.1-0.8,0.2-1.2s0.3-0.8,0.5-1.2c0.3-0.7,0.7-1.3,1-2c0.4-0.6,0.9-1.2,1.4-1.6
		c0.5-0.5,1.1-0.9,1.8-1.1c0.7-0.3,1.4-0.4,2.2-0.4c1,0,1.9,0.2,2.5,0.6s1.2,1,1.6,1.6s0.7,1.4,0.8,2.3c0.2,0.8,0.2,1.7,0.2,2.5
		c0,1.4-0.2,3-0.5,4.6c-0.3,1.6-0.8,3.3-1.3,5c-0.5,1.7-1.1,3.3-1.7,4.9s-1.1,3.1-1.6,4.4l-1.4,4.1l5.3-0.7c0.1,0,0.2,0,0.3,0
		c0.1,0,0.2,0,0.3,0c0.4,0,0.6,0.1,0.8,0.3C550.4,704.6,550.4,704.9,550.4,705.2z"/>
	<path class="st13" d="M566.4,692.3c0,0.5,0,1.2,0,1.9c0,0.8-0.1,1.6-0.1,2.4c-0.1,0.9-0.1,1.8-0.3,2.7c-0.1,0.9-0.3,1.8-0.5,2.7
		c-0.2,0.9-0.5,1.7-0.8,2.5c-0.3,0.8-0.7,1.5-1.2,2.1c-0.5,0.6-1,1.1-1.6,1.4c-0.6,0.3-1.3,0.5-2.1,0.5c-0.7,0-1.4-0.2-2-0.5
		s-1.1-0.7-1.5-1.2c-0.4-0.5-0.8-1.1-1.1-1.7s-0.6-1.3-0.7-2c-0.2-0.7-0.4-1.4-0.5-2.1s-0.2-1.3-0.3-1.9c-0.2-1.5-0.4-3-0.5-4.5
		c-0.1-1.5-0.2-3-0.2-4.6c0-1.5,0.1-3.1,0.2-4.6s0.4-3,0.8-4.5c-0.1-0.1-0.2-0.3-0.3-0.4c-0.1-0.1-0.1-0.3-0.1-0.5
		c0-0.1,0-0.2,0-0.2s0-0.1,0.1-0.2c0.2-0.6,0.5-1.3,0.8-2c0.3-0.7,0.8-1.3,1.2-1.9s1-1.1,1.7-1.4c0.6-0.4,1.3-0.6,2.1-0.6
		c0.7,0,1.3,0.1,1.8,0.4c0.5,0.3,1,0.6,1.4,1s0.7,0.9,1,1.5c0.3,0.5,0.5,1.1,0.7,1.7c0.2,0.6,0.4,1.2,0.5,1.8
		c0.1,0.6,0.2,1.2,0.3,1.7c0.3,1.7,0.6,3.5,0.7,5.2C566.3,688.8,566.4,690.5,566.4,692.3z M557.9,680.2c-0.3,0.7-0.5,1.4-0.7,2.2
		c-0.2,0.8-0.3,1.6-0.4,2.4c-0.1,0.8-0.2,1.6-0.2,2.5s0,1.6,0,2.3c0,0.3,0,0.7,0,1.3c0,0.6,0.1,1.3,0.1,2.1s0.1,1.7,0.2,2.6
		c0.1,0.9,0.2,1.9,0.3,2.8c0.1,0.9,0.3,1.8,0.4,2.7c0.2,0.9,0.4,1.6,0.6,2.3c0.2,0.7,0.4,1.2,0.7,1.6c0.3,0.4,0.5,0.6,0.8,0.6
		c0.2,0,0.4-0.1,0.6-0.3c0.2-0.2,0.3-0.5,0.5-0.7c0.1-0.3,0.3-0.6,0.4-0.9c0.1-0.3,0.2-0.5,0.2-0.7c0.5-1.5,0.8-3,1-4.6
		s0.3-3.1,0.3-4.7c0-1.2,0-2.4-0.1-3.7c-0.1-1.3-0.2-2.6-0.3-3.9c-0.1-1.3-0.3-2.6-0.6-3.9c-0.3-1.3-0.6-2.5-1-3.6
		c-0.1-0.4-0.3-0.7-0.4-1.1c-0.2-0.4-0.4-0.7-0.7-1c0,0-0.1,0.2-0.3,0.5s-0.4,0.7-0.6,1.1c-0.2,0.4-0.4,0.8-0.6,1.1
		S557.9,680.1,557.9,680.2z"/>
	<path class="st13" d="M582.6,692.3c0,0.5,0,1.2,0,1.9c0,0.8-0.1,1.6-0.1,2.4c-0.1,0.9-0.1,1.8-0.3,2.7c-0.1,0.9-0.3,1.8-0.5,2.7
		c-0.2,0.9-0.5,1.7-0.8,2.5c-0.3,0.8-0.7,1.5-1.2,2.1s-1,1.1-1.6,1.4c-0.6,0.3-1.3,0.5-2.1,0.5c-0.7,0-1.4-0.2-2-0.5
		c-0.6-0.3-1.1-0.7-1.5-1.2c-0.4-0.5-0.8-1.1-1.1-1.7s-0.6-1.3-0.7-2c-0.2-0.7-0.4-1.4-0.5-2.1s-0.2-1.3-0.3-1.9
		c-0.2-1.5-0.4-3-0.5-4.5s-0.2-3-0.2-4.6c0-1.5,0.1-3.1,0.2-4.6s0.4-3,0.8-4.5c-0.1-0.1-0.2-0.3-0.3-0.4c-0.1-0.1-0.1-0.3-0.1-0.5
		c0-0.1,0-0.2,0-0.2c0-0.1,0-0.1,0.1-0.2c0.2-0.6,0.5-1.3,0.8-2c0.3-0.7,0.8-1.3,1.2-1.9s1-1.1,1.7-1.4c0.6-0.4,1.3-0.6,2.1-0.6
		c0.7,0,1.3,0.1,1.8,0.4c0.5,0.3,1,0.6,1.4,1s0.7,0.9,1,1.5c0.3,0.5,0.5,1.1,0.7,1.7c0.2,0.6,0.4,1.2,0.5,1.8
		c0.1,0.6,0.2,1.2,0.3,1.7c0.3,1.7,0.6,3.5,0.7,5.2C582.5,688.8,582.6,690.5,582.6,692.3z M574.1,680.2c-0.3,0.7-0.5,1.4-0.7,2.2
		c-0.2,0.8-0.3,1.6-0.4,2.4c-0.1,0.8-0.2,1.6-0.2,2.5s0,1.6,0,2.3c0,0.3,0,0.7,0,1.3c0,0.6,0.1,1.3,0.1,2.1c0.1,0.8,0.1,1.7,0.2,2.6
		s0.2,1.9,0.3,2.8c0.1,0.9,0.3,1.8,0.4,2.7c0.2,0.9,0.4,1.6,0.6,2.3c0.2,0.7,0.4,1.2,0.7,1.6c0.3,0.4,0.5,0.6,0.8,0.6
		c0.2,0,0.4-0.1,0.6-0.3c0.2-0.2,0.3-0.5,0.5-0.7c0.1-0.3,0.3-0.6,0.4-0.9c0.1-0.3,0.2-0.5,0.2-0.7c0.5-1.5,0.8-3,1-4.6
		c0.2-1.5,0.3-3.1,0.3-4.7c0-1.2,0-2.4-0.1-3.7c-0.1-1.3-0.2-2.6-0.3-3.9c-0.1-1.3-0.3-2.6-0.6-3.9c-0.3-1.3-0.6-2.5-1-3.6
		c-0.1-0.4-0.3-0.7-0.4-1.1c-0.2-0.4-0.4-0.7-0.7-1c0,0-0.1,0.2-0.3,0.5c-0.2,0.3-0.4,0.7-0.6,1.1c-0.2,0.4-0.4,0.8-0.6,1.1
		C574.2,679.9,574.1,680.1,574.1,680.2z"/>
	<path class="st13" d="M606.6,684c0,3.8-0.3,7.5-0.9,11.1s-1.7,7.2-3.2,10.7c0,0.1,0.1,0.3,0.2,0.5s0.2,0.4,0.3,0.7
		c0.1,0.2,0.2,0.4,0.2,0.7c0.1,0.2,0.1,0.4,0.1,0.5c0,0.2-0.1,0.4-0.2,0.5c-0.1,0.1-0.3,0.2-0.5,0.2c-0.2,0-0.4,0.1-0.6,0.1
		s-0.4,0-0.5,0c-0.4,0-0.8,0-1.1-0.1c-0.3,0-0.6-0.2-1-0.5c-0.2-0.2-0.5-0.7-0.8-1.4c-0.3-0.8-0.6-1.7-1-2.9
		c-0.3-1.2-0.7-2.4-1.1-3.9c-0.4-1.4-0.7-2.9-1.1-4.5c-0.4-1.5-0.7-3.1-1.1-4.6c-0.3-1.5-0.7-2.9-1-4.2c-0.3-1.3-0.5-2.5-0.8-3.4
		c-0.2-1-0.4-1.7-0.5-2.2c-0.2-0.8-0.4-1.6-0.6-2.4c-0.2-0.8-0.3-1.6-0.3-2.5c0-0.3,0.1-0.5,0.3-0.5c0.2-0.1,0.4-0.1,0.6-0.1
		c0.5,0,0.9,0.1,1.3,0.2c0.4,0.2,0.7,0.4,1,0.8c0.1,0.2,0.2,0.5,0.3,0.9s0.1,0.7,0.2,0.9c0.5,2.3,1,4.6,1.6,6.9s1.1,4.6,1.7,6.9
		c0.4,1.4,0.8,2.9,1.1,4.3c0.4,1.4,0.8,2.8,1.2,4.2c0.8-2.5,1.4-5.1,1.7-7.7c0.3-2.6,0.5-5.2,0.5-7.9c0-0.4,0-0.9,0-1.5s0-1.3,0-2
		c0-0.7,0-1.4-0.1-2.2s-0.1-1.5-0.2-2.1s-0.1-1.3-0.2-1.9s-0.2-1-0.4-1.4c0-0.1-0.1-0.2-0.2-0.3s-0.1-0.2-0.1-0.4
		c0-0.2,0.1-0.3,0.2-0.5c0.1-0.1,0.3-0.2,0.5-0.3c0.2-0.1,0.4-0.1,0.6-0.1s0.4,0,0.5,0c0.4,0,0.8,0,1.1,0.1c0.3,0.1,0.6,0.3,1,0.6
		c0.1,0.1,0.3,0.5,0.4,1c0.1,0.5,0.2,1.1,0.2,1.8c0.1,0.7,0.1,1.4,0.2,2.2s0.1,1.6,0.1,2.3s0,1.4,0,2S606.6,683.7,606.6,684z"/>
	<path class="st13" d="M626.7,694.6c0,0.3-0.1,0.7-0.4,1s-0.5,0.6-0.8,0.8c-0.1,0-0.2,0.1-0.4,0.1c-0.2,0-0.4,0.1-0.6,0.1
		c-0.2,0-0.4,0.1-0.6,0.1s-0.4,0.1-0.5,0.1l0.6,3.5c0.2,1.1,0.3,2.2,0.4,3.3c0.1,1.1,0.3,2.2,0.6,3.3c0,0.1,0.1,0.2,0.1,0.3
		c0,0.1,0,0.2,0,0.3c0,0.2-0.1,0.4-0.2,0.5c-0.1,0.1-0.3,0.2-0.4,0.2c-0.2,0.1-0.3,0.1-0.5,0.1c-0.2,0-0.4,0-0.5,0h-0.3
		c-0.5,0-0.9,0-1.1-0.1c-0.3-0.1-0.5-0.2-0.6-0.4c-0.1-0.2-0.2-0.4-0.3-0.7c0-0.3-0.1-0.7-0.2-1.1c-0.4-2.9-0.8-5.8-1.3-8.7
		c-1,0.1-2,0.2-3,0.4c-1,0.1-2,0.2-3,0.3l-0.8,4.7c0,0.3-0.1,0.7-0.1,1.2c-0.1,0.5-0.1,1-0.2,1.5c-0.1,0.5-0.2,1-0.2,1.4
		c-0.1,0.4-0.2,0.8-0.3,1c-0.1,0.2-0.2,0.3-0.3,0.4c-0.1,0.1-0.2,0.1-0.5,0.1c-0.3,0-0.6-0.1-0.8-0.2c-0.3-0.1-0.5-0.2-0.7-0.4
		c-0.2-0.2-0.4-0.4-0.5-0.7c-0.1-0.3-0.2-0.5-0.2-0.9s0-0.6,0.1-1c0.1-0.3,0.1-0.6,0.2-1c0.2-1,0.3-2.1,0.5-3.1
		c0.1-1,0.3-2.1,0.5-3.1c-0.1,0-0.2,0-0.4-0.1c-0.1,0-0.3-0.1-0.4-0.2c-0.1-0.1-0.2-0.1-0.3-0.2c-0.1-0.1-0.1-0.2-0.1-0.3
		c0-0.2,0.1-0.3,0.2-0.4s0.3-0.3,0.4-0.4s0.3-0.2,0.5-0.3c0.2-0.1,0.3-0.2,0.5-0.2c0.3-2.2,0.7-4.4,1-6.6s0.6-4.4,0.8-6.7
		c0.1-0.6,0.1-1.2,0.2-1.8c0-0.6,0.1-1.2,0.2-1.9c0.1-0.6,0.1-1.2,0.2-1.8c0.1-0.6,0.2-1.2,0.4-1.8c0.1-0.6,0.4-1,0.7-1.4
		c0.3-0.3,0.8-0.5,1.5-0.5c0.2,0,0.4,0,0.6,0s0.3,0.1,0.5,0.2c0.4,0.2,0.8,0.8,1.3,1.7c0.4,0.9,0.9,2,1.3,3.3
		c0.4,1.3,0.9,2.7,1.3,4.2c0.4,1.5,0.8,3,1.1,4.4c0.3,1.4,0.6,2.7,0.9,3.9c0.2,1.2,0.4,2,0.5,2.6c0.3,0,0.7-0.1,1-0.1s0.7-0.1,1-0.1
		c0.2,0,0.3,0,0.5,0c0.2,0,0.4,0.1,0.6,0.1c0.2,0.1,0.3,0.2,0.5,0.3C626.6,694.2,626.7,694.4,626.7,694.6z M619.2,694.4
		c-0.4-2.3-0.9-4.5-1.3-6.7s-1.1-4.4-1.7-6.6c-0.3,2.4-0.6,4.8-0.9,7.1c-0.3,2.4-0.7,4.7-1.1,7.1c0.9-0.1,1.7-0.3,2.5-0.4
		C617.5,694.8,618.4,694.6,619.2,694.4z"/>
	<path class="st13" d="M641.9,700.2c0,1.2-0.2,2.3-0.6,3.3c-0.4,1-0.9,2-1.6,2.7c-0.7,0.8-1.6,1.4-2.6,1.9s-2.1,0.7-3.3,0.7
		c-1.1,0-2.1-0.2-3-0.5c-0.9-0.3-1.7-0.8-2.4-1.4c-0.7-0.6-1.2-1.4-1.6-2.3s-0.6-1.9-0.6-3c0-0.2,0-0.5,0-0.8s0.1-0.7,0.2-1
		c0.1-0.3,0.2-0.6,0.4-0.8c0.2-0.2,0.4-0.3,0.7-0.3c0.3,0,0.5,0.1,0.8,0.2c0.3,0.1,0.6,0.2,0.9,0.4c0.3,0.2,0.5,0.4,0.7,0.6
		c0.2,0.2,0.3,0.5,0.3,0.8v1.4c0,1.1,0.3,2,0.9,2.7s1.5,1,2.6,1c0.8,0,1.5-0.2,2-0.5c0.6-0.4,1-0.8,1.4-1.4c0.4-0.6,0.6-1.2,0.8-1.9
		c0.2-0.7,0.2-1.4,0.2-2.1c0-1.3-0.3-2.6-0.8-3.9c-0.5-1.3-1.2-2.5-2.1-3.7c-0.8-1.2-1.7-2.4-2.7-3.5s-1.9-2.3-2.7-3.4
		c-0.8-1.1-1.5-2.3-2.1-3.4s-0.8-2.3-0.8-3.5c0-1,0.2-1.8,0.6-2.5s0.9-1.3,1.5-1.7c0.6-0.5,1.4-0.8,2.2-1c0.8-0.2,1.7-0.3,2.5-0.3
		c1.1,0,2,0.2,2.9,0.5s1.6,0.7,2.1,1.3s1,1.3,1.3,2.1c0.3,0.8,0.5,1.8,0.5,2.8c0,0.2,0,0.4,0,0.6c0,0.2-0.1,0.5-0.1,0.7
		c-0.1,0.2-0.2,0.4-0.3,0.6s-0.3,0.2-0.5,0.2c-0.3,0-0.6-0.1-1-0.2c-0.3-0.1-0.5-0.3-0.7-0.4s-0.3-0.3-0.4-0.5
		c-0.1-0.2-0.2-0.4-0.2-0.6c0-0.2-0.1-0.5-0.1-0.8c-0.1-0.6-0.2-1.1-0.3-1.5s-0.3-0.8-0.6-1.2c-0.3-0.3-0.6-0.6-1-0.7
		c-0.4-0.2-0.9-0.3-1.6-0.3c-0.5,0-0.9,0-1.3,0.1c-0.4,0.1-0.8,0.3-1.1,0.5c-0.3,0.2-0.6,0.5-0.7,0.9s-0.3,0.8-0.3,1.3
		c0,0.7,0.2,1.5,0.5,2.2c0.3,0.8,0.8,1.5,1.3,2.3c0.5,0.8,1.1,1.6,1.8,2.4c0.7,0.8,1.4,1.7,2.1,2.6c0.7,0.9,1.4,1.8,2.1,2.7
		c0.7,0.9,1.3,1.9,1.8,2.9c0.5,1,1,2.1,1.3,3.2C641.8,697.9,641.9,699,641.9,700.2z"/>
	<path class="st13" d="M659.9,689.4c0,0.7,0,1.4,0,2.3c0,0.9-0.1,1.8-0.2,2.8c-0.1,1-0.2,2-0.4,3.1s-0.4,2.1-0.7,3.1
		c-0.3,1-0.6,1.9-1,2.8c-0.4,0.9-0.9,1.7-1.4,2.3c-0.6,0.7-1.2,1.2-1.9,1.6s-1.6,0.6-2.5,0.6c-0.9,0-1.8-0.2-2.5-0.7
		c-0.8-0.4-1.4-1-1.9-1.7c-0.4-0.6-0.8-1.3-1.1-2.1c-0.3-0.8-0.6-1.7-0.9-2.7c-0.2-1-0.5-2-0.6-3.1c-0.2-1.1-0.3-2.1-0.4-3.1
		c-0.1-1-0.2-2-0.2-2.9c0-0.9-0.1-1.7-0.1-2.4c0-1.2,0.1-2.4,0.2-3.7s0.3-2.6,0.6-3.8c0.3-1.3,0.7-2.5,1.2-3.7s1.1-2.2,1.9-3.2
		c0.1-0.1,0.2-0.2,0.3-0.3c0.1-0.1,0.2-0.2,0.4-0.4c0.1-0.1,0.3-0.2,0.4-0.3c0.2-0.1,0.3-0.1,0.4-0.1c0.1,0,0.3,0,0.4,0.1
		c0.1,0.1,0.2,0.2,0.3,0.3c0.3-0.2,0.7-0.3,1.1-0.4c0.4-0.1,0.7-0.1,1.1-0.1c1.2,0,2.2,0.3,3,0.8c0.8,0.5,1.5,1.3,2.1,2.2
		c0.6,0.9,1,1.9,1.3,3c0.3,1.1,0.6,2.3,0.8,3.4c0.2,1.2,0.3,2.3,0.3,3.4C659.9,687.6,659.9,688.6,659.9,689.4z M656.2,690.5
		c0-0.4,0-1,0-1.9s-0.1-1.8-0.2-2.8s-0.2-2.1-0.4-3.2s-0.4-2.1-0.7-2.9c-0.3-0.9-0.6-1.6-1.1-2.2c-0.4-0.6-0.9-0.8-1.5-0.8
		c-0.2,0-0.5,0.1-0.6,0.3s-0.4,0.5-0.5,0.9c-0.2,0.3-0.3,0.7-0.5,1.1c-0.1,0.4-0.3,0.8-0.4,1.2c-0.1,0.4-0.3,0.7-0.4,1
		s-0.3,0.5-0.4,0.6c0,0-0.1,0.1-0.2,0.1c-0.1,0-0.2,0-0.3,0c-0.3,0-0.5,0-0.8-0.1c-0.3,1.1-0.5,2.2-0.6,3.2
		c-0.1,1.1-0.2,2.2-0.2,3.2c0,0.3,0,0.8,0,1.5c0,0.7,0.1,1.4,0.1,2.3s0.2,1.8,0.3,2.8c0.1,1,0.2,2,0.4,2.9c0.2,1,0.3,1.9,0.6,2.8
		c0.2,0.9,0.5,1.7,0.7,2.4s0.6,1.2,1,1.7s0.7,0.6,1.2,0.6c0.2,0,0.5-0.1,0.6-0.2s0.4-0.3,0.5-0.4c0.5-0.4,0.9-1,1.2-1.7
		c0.3-0.7,0.6-1.5,0.9-2.3c0.2-0.8,0.4-1.7,0.6-2.7s0.3-1.8,0.4-2.7c0.1-0.9,0.1-1.8,0.2-2.6S656.2,691.1,656.2,690.5z"/>
	<path class="st13" d="M677.6,700.2c0,1.2-0.2,2.3-0.6,3.3c-0.4,1-0.9,2-1.6,2.7s-1.6,1.4-2.6,1.9c-1,0.5-2.1,0.7-3.3,0.7
		c-1.1,0-2.1-0.2-3-0.5c-0.9-0.3-1.7-0.8-2.4-1.4c-0.7-0.6-1.2-1.4-1.6-2.3c-0.4-0.9-0.6-1.9-0.6-3c0-0.2,0-0.5,0-0.8s0.1-0.7,0.2-1
		c0.1-0.3,0.2-0.6,0.4-0.8c0.2-0.2,0.4-0.3,0.7-0.3c0.3,0,0.5,0.1,0.8,0.2c0.3,0.1,0.6,0.2,0.9,0.4c0.3,0.2,0.5,0.4,0.7,0.6
		c0.2,0.2,0.3,0.5,0.3,0.8v1.4c0,1.1,0.3,2,0.9,2.7s1.5,1,2.6,1c0.8,0,1.5-0.2,2-0.5c0.6-0.4,1-0.8,1.4-1.4c0.4-0.6,0.6-1.2,0.8-1.9
		c0.2-0.7,0.2-1.4,0.2-2.1c0-1.3-0.3-2.6-0.8-3.9c-0.5-1.3-1.2-2.5-2.1-3.7c-0.8-1.2-1.7-2.4-2.7-3.5c-1-1.2-1.9-2.3-2.7-3.4
		c-0.8-1.1-1.5-2.3-2.1-3.4c-0.5-1.1-0.8-2.3-0.8-3.5c0-1,0.2-1.8,0.6-2.5s0.9-1.3,1.5-1.7c0.6-0.5,1.4-0.8,2.2-1
		c0.8-0.2,1.7-0.3,2.5-0.3c1.1,0,2,0.2,2.9,0.5c0.8,0.3,1.6,0.7,2.1,1.3c0.6,0.6,1,1.3,1.3,2.1c0.3,0.8,0.5,1.8,0.5,2.8
		c0,0.2,0,0.4,0,0.6c0,0.2-0.1,0.5-0.1,0.7c-0.1,0.2-0.2,0.4-0.3,0.6s-0.3,0.2-0.5,0.2c-0.3,0-0.6-0.1-1-0.2
		c-0.3-0.1-0.5-0.3-0.7-0.4c-0.2-0.1-0.3-0.3-0.4-0.5c-0.1-0.2-0.2-0.4-0.2-0.6c0-0.2-0.1-0.5-0.1-0.8c-0.1-0.6-0.2-1.1-0.3-1.5
		c-0.1-0.5-0.3-0.8-0.6-1.2c-0.3-0.3-0.6-0.6-1-0.7c-0.4-0.2-0.9-0.3-1.6-0.3c-0.5,0-0.9,0-1.3,0.1c-0.4,0.1-0.8,0.3-1.1,0.5
		c-0.3,0.2-0.6,0.5-0.7,0.9c-0.2,0.4-0.3,0.8-0.3,1.3c0,0.7,0.2,1.5,0.5,2.2c0.3,0.8,0.8,1.5,1.3,2.3c0.5,0.8,1.1,1.6,1.8,2.4
		c0.7,0.8,1.4,1.7,2.1,2.6c0.7,0.9,1.4,1.8,2.1,2.7c0.7,0.9,1.3,1.9,1.8,2.9s1,2.1,1.3,3.2C677.4,697.9,677.6,699,677.6,700.2z"/>
	<path class="st13" d="M703.9,690.7c0,1.7-0.2,3.4-0.5,5s-0.8,3.2-1.5,4.6c-0.7,1.4-1.6,2.7-2.7,3.9c-1.1,1.2-2.5,2.1-4.1,2.9
		c-0.4,0.2-0.9,0.4-1.3,0.5c-0.5,0.2-1,0.3-1.5,0.4c-0.5,0.1-1,0.2-1.5,0.3c-0.5,0.1-1,0.1-1.4,0.1c-0.2,0-0.4,0-0.6,0
		c-0.2,0-0.4,0-0.6-0.1s-0.3-0.1-0.5-0.3s-0.2-0.3-0.2-0.5c0-0.2,0-0.4,0.1-0.6c0.1-0.2,0.2-0.4,0.3-0.6s0.3-0.4,0.4-0.5
		c0.2-0.2,0.3-0.3,0.5-0.3c-0.1-0.1-0.2-0.5-0.2-1.1c-0.1-0.6-0.1-1.3-0.2-2.2c-0.1-0.9-0.1-1.9-0.2-3c0-1.1-0.1-2.3-0.1-3.5
		s-0.1-2.4-0.1-3.6s0-2.3-0.1-3.3c0-1,0-1.9,0-2.6c0-0.7,0-1.3,0-1.6c0-1.5,0-3,0.1-4.4c0-1.4,0.1-2.9,0.1-4.4c-0.2,0-0.3,0-0.5-0.1
		s-0.2-0.2-0.2-0.4c0-0.3,0.1-0.5,0.2-0.7c0.1-0.2,0.3-0.4,0.5-0.6c0.2-0.2,0.4-0.3,0.7-0.4c0.2-0.1,0.5-0.1,0.7-0.1s0.4,0,0.6,0.1
		s0.4,0.1,0.6,0.1c2.1,0.5,4,1.3,5.6,2.3c1.6,1,3,2.3,4.2,3.8s2,3.1,2.6,5C703.6,686.5,703.9,688.5,703.9,690.7z M700.3,690.2
		c0-1.6-0.2-3.1-0.6-4.5c-0.4-1.4-0.9-2.7-1.7-3.9c-0.8-1.2-1.7-2.2-2.8-3.1c-1.1-0.9-2.4-1.6-3.9-2.2v0.1c0,4.1,0.1,8.1,0.2,12.2
		s0.3,8.1,0.6,12.1c0,0.6,0.1,1.2,0.1,1.8c0,0.6,0.1,1.2,0.2,1.8c1.5-0.5,2.7-1.3,3.8-2.3c1-1,1.8-2.2,2.4-3.5
		c0.6-1.3,1-2.7,1.3-4.2C700.2,693.1,700.3,691.7,700.3,690.2z"/>
	<path class="st13" d="M722.8,702.5c0,0.3-0.1,0.5-0.3,0.8c-0.2,0.3-0.5,0.5-0.8,0.7c-0.3,0.2-0.6,0.5-0.9,0.7
		c-0.3,0.2-0.6,0.4-0.8,0.5c-0.5,0.3-1.1,0.7-1.6,1c-0.5,0.3-1.1,0.6-1.6,0.8s-1.1,0.4-1.7,0.5c-0.6,0.1-1.2,0.2-1.9,0.2l-0.4,0
		c-0.5,0-1-0.1-1.6-0.2c-0.5-0.1-1-0.3-1.4-0.5c-0.4-0.2-0.8-0.6-1.2-0.9c-0.3-0.4-0.6-0.8-0.8-1.4c-0.1-0.4-0.3-0.9-0.3-1.5
		c-0.1-0.6-0.1-1.2-0.2-1.8c0-0.6-0.1-1.3-0.1-1.9c0-0.6,0-1.2-0.1-1.6c-0.2-4.9-0.4-9.7-0.6-14.6c0-0.6-0.1-1.1-0.1-1.7
		s0-1.1,0-1.7c0-1,0.1-1.8,0.2-2.4s0.3-1.2,0.7-1.6c0.3-0.4,0.8-0.7,1.4-0.9c0.6-0.2,1.5-0.3,2.5-0.3c1,0,2.1,0,3.1,0
		c1,0,2.1,0,3.1,0c0.3,0,0.6,0,1,0c0.3,0,0.6,0,1,0.1c0.2,0,0.4,0.1,0.5,0.2c0.1,0.1,0.2,0.2,0.2,0.5c0,0.6-0.2,1-0.6,1.3
		c-0.4,0.3-0.8,0.5-1.4,0.6c-0.5,0.1-1.1,0.1-1.6,0.1s-1,0-1.4,0H712c-0.3,0-0.6,0-1,0c-0.3,0-0.6,0-1,0c-0.1,0.2-0.2,0.5-0.2,0.7
		s0,0.5,0,0.8c0,1.7,0,3.4,0.1,5.1c0.1,1.7,0.2,3.4,0.2,5.1c1-0.1,2-0.2,2.9-0.3c1-0.1,1.9-0.2,2.9-0.4c0.1,0,0.3,0,0.4,0
		c0.1,0,0.2,0,0.4,0c0.3,0,0.6,0.1,0.7,0.3c0.1,0.2,0.2,0.4,0.2,0.7c0,0.2,0,0.4,0,0.6c0,0.2-0.1,0.4-0.2,0.6
		c-0.1,0.3-0.3,0.5-0.5,0.7c-0.3,0.1-0.5,0.2-0.9,0.3c-0.3,0.1-0.6,0.1-1,0.1c-0.3,0-0.6,0-0.9,0c-0.7,0-1.3,0.1-2,0.1
		c-0.6,0-1.3,0-1.9,0.1c0,0.3,0,0.8,0.1,1.5c0,0.7,0.1,1.4,0.1,2.2s0.1,1.7,0.1,2.6c0.1,0.9,0.1,1.7,0.2,2.5
		c0.1,0.8,0.1,1.5,0.2,2.1s0.2,1,0.2,1.2c0.2,0.3,0.4,0.6,0.6,0.7c0.2,0.1,0.5,0.2,0.9,0.2c0.6,0,1.2-0.1,1.9-0.3s1.3-0.5,1.9-0.9
		c0.6-0.4,1.2-0.7,1.8-1.2s1.1-0.8,1.5-1.3c0.2-0.1,0.3-0.3,0.5-0.4c0.2-0.2,0.4-0.2,0.6-0.2c0.2,0,0.5,0.1,0.7,0.2
		c0.2,0.1,0.4,0.3,0.6,0.5c0.2,0.2,0.3,0.4,0.4,0.7C722.7,702.1,722.8,702.3,722.8,702.5z"/>
	<path class="st13" d="M748,694.6c0,0.3-0.1,0.7-0.4,1s-0.5,0.6-0.8,0.8c-0.1,0-0.2,0.1-0.4,0.1c-0.2,0-0.4,0.1-0.6,0.1
		c-0.2,0-0.4,0.1-0.6,0.1s-0.4,0.1-0.5,0.1l0.6,3.5c0.2,1.1,0.3,2.2,0.4,3.3c0.1,1.1,0.3,2.2,0.6,3.3c0,0.1,0.1,0.2,0.1,0.3
		c0,0.1,0,0.2,0,0.3c0,0.2-0.1,0.4-0.2,0.5c-0.1,0.1-0.3,0.2-0.4,0.2s-0.3,0.1-0.5,0.1c-0.2,0-0.4,0-0.5,0h-0.3
		c-0.5,0-0.9,0-1.1-0.1c-0.3-0.1-0.5-0.2-0.6-0.4c-0.1-0.2-0.2-0.4-0.3-0.7s-0.1-0.7-0.2-1.1c-0.4-2.9-0.8-5.8-1.3-8.7
		c-1,0.1-2,0.2-3,0.4c-1,0.1-2,0.2-3,0.3l-0.8,4.7c0,0.3-0.1,0.7-0.1,1.2s-0.1,1-0.2,1.5c-0.1,0.5-0.2,1-0.2,1.4
		c-0.1,0.4-0.2,0.8-0.3,1c-0.1,0.2-0.2,0.3-0.3,0.4c-0.1,0.1-0.2,0.1-0.5,0.1c-0.3,0-0.6-0.1-0.8-0.2c-0.3-0.1-0.5-0.2-0.7-0.4
		c-0.2-0.2-0.4-0.4-0.5-0.7c-0.1-0.3-0.2-0.5-0.2-0.9s0-0.6,0.1-1s0.1-0.6,0.2-1c0.2-1,0.3-2.1,0.5-3.1c0.1-1,0.3-2.1,0.5-3.1
		c-0.1,0-0.2,0-0.4-0.1c-0.1,0-0.3-0.1-0.4-0.2s-0.2-0.1-0.3-0.2s-0.1-0.2-0.1-0.3c0-0.2,0.1-0.3,0.2-0.4s0.3-0.3,0.4-0.4
		s0.3-0.2,0.5-0.3c0.2-0.1,0.3-0.2,0.5-0.2c0.3-2.2,0.7-4.4,1-6.6s0.6-4.4,0.8-6.7c0.1-0.6,0.1-1.2,0.2-1.8c0-0.6,0.1-1.2,0.2-1.9
		c0.1-0.6,0.1-1.2,0.2-1.8c0.1-0.6,0.2-1.2,0.4-1.8c0.1-0.6,0.4-1,0.7-1.4c0.3-0.3,0.8-0.5,1.5-0.5c0.2,0,0.4,0,0.6,0
		s0.3,0.1,0.5,0.2c0.4,0.2,0.8,0.8,1.3,1.7c0.4,0.9,0.9,2,1.3,3.3c0.4,1.3,0.9,2.7,1.3,4.2c0.4,1.5,0.8,3,1.1,4.4s0.6,2.7,0.9,3.9
		c0.2,1.2,0.4,2,0.5,2.6c0.3,0,0.7-0.1,1-0.1s0.7-0.1,1-0.1c0.2,0,0.3,0,0.5,0c0.2,0,0.4,0.1,0.6,0.1s0.3,0.2,0.5,0.3
		C747.9,694.2,748,694.4,748,694.6z M740.5,694.4c-0.4-2.3-0.9-4.5-1.3-6.7s-1.1-4.4-1.7-6.6c-0.3,2.4-0.6,4.8-0.9,7.1
		c-0.3,2.4-0.7,4.7-1.1,7.1c0.9-0.1,1.7-0.3,2.5-0.4C738.8,694.8,739.6,694.6,740.5,694.4z"/>
	<path class="st13" d="M767,690.6c0,0.5-0.1,0.9-0.3,1.2c-0.2,0.3-0.4,0.5-0.7,0.6c-0.3,0.1-0.6,0.2-1,0.3c-0.4,0-0.7,0.1-1.1,0.1
		c0.9,0.9,1.5,1.9,2,3.1c0.5,1.2,0.8,2.4,0.8,3.6c0,1.2-0.2,2.4-0.6,3.6c-0.4,1.2-1,2.2-1.8,3.1c-0.8,0.9-1.7,1.6-2.7,2.2
		s-2.2,0.8-3.5,0.8c-1,0-2-0.2-2.8-0.6c-0.8-0.4-1.6-0.9-2.2-1.6s-1.2-1.5-1.7-2.4s-0.9-1.9-1.3-2.9c-0.3-1-0.6-2.1-0.9-3.2
		c-0.2-1.1-0.4-2.2-0.5-3.3c-0.1-1.1-0.2-2.1-0.3-3c-0.1-1-0.1-1.8-0.1-2.6c0-0.9,0-1.8,0.1-2.9c0.1-1,0.2-2,0.4-3.1
		c0.2-1,0.5-2,0.8-3c0.3-1,0.8-1.9,1.3-2.7c0.5-0.8,1.2-1.6,1.9-2.2c0.7-0.6,1.6-1.1,2.6-1.4c0.4-0.1,0.7-0.2,1.1-0.3
		c0.4-0.1,0.7-0.1,1.1-0.1c1.6,0,2.9,0.4,4,1.3c1.1,0.9,1.8,2,2.4,3.5c0.1,0.2,0.2,0.4,0.2,0.7c0.1,0.2,0.1,0.5,0.1,0.7
		c0,0.3-0.1,0.5-0.3,0.5c-0.2,0.1-0.4,0.1-0.6,0.1c-0.6,0-1-0.1-1.4-0.3c-0.3-0.2-0.6-0.5-0.9-0.8c-0.2-0.3-0.4-0.6-0.6-1
		c-0.2-0.4-0.4-0.7-0.6-1s-0.5-0.6-0.8-0.8s-0.8-0.3-1.3-0.3c-0.8,0-1.5,0.2-2.1,0.7c-0.6,0.4-1.1,1-1.6,1.7
		c-0.4,0.7-0.8,1.5-1.1,2.5s-0.5,1.8-0.7,2.7c-0.2,0.9-0.3,1.8-0.4,2.6c-0.1,0.8-0.1,1.6-0.1,2.1c0,0.6,0,1.5,0.1,2.6
		c0.1,1.1,0.2,2.3,0.4,3.6c0.2,1.3,0.4,2.6,0.7,3.9c0.3,1.3,0.7,2.5,1.2,3.6s1,2,1.7,2.6c0.6,0.7,1.4,1,2.2,1c0.7,0,1.4-0.2,2-0.7
		c0.6-0.4,1.1-1,1.5-1.6c0.4-0.7,0.7-1.4,1-2.1s0.3-1.5,0.3-2.1c0-0.6-0.1-1.2-0.3-1.8c-0.2-0.6-0.4-1.2-0.7-1.7
		c-0.3-0.5-0.7-1.1-1.1-1.5c-0.4-0.5-0.9-0.9-1.5-1.2c-0.2-0.1-0.4-0.2-0.6-0.3c-0.2-0.1-0.5-0.2-0.7-0.3c-0.1,0-0.4,0-0.7-0.1
		c-0.4,0-0.7-0.1-1.1-0.1c-0.4,0-0.7-0.1-1-0.2s-0.5-0.3-0.5-0.5c0-0.3,0-0.6,0.1-0.9c0.1-0.3,0.2-0.6,0.4-0.8
		c0.2-0.2,0.4-0.4,0.6-0.6s0.5-0.2,0.8-0.2c0.5,0,1,0.1,1.5,0.2c0.5,0.1,1,0.3,1.4,0.5c0.8,0,1.6-0.1,2.4-0.2
		c0.8-0.1,1.5-0.1,2.3-0.2c0.3,0,0.5-0.1,0.8-0.1c0.3,0,0.5-0.1,0.8-0.1c0.4,0,0.7,0.1,0.9,0.3C766.9,689.9,767,690.2,767,690.6z"/>
	<path class="st13" d="M785.9,693.1c0,0.9,0,1.8-0.1,2.9c-0.1,1.1-0.2,2.1-0.3,3.3c-0.2,1.1-0.4,2.2-0.8,3.2c-0.3,1.1-0.8,2-1.4,2.8
		c-0.6,0.8-1.3,1.5-2.1,2c-0.8,0.5-1.8,0.7-3,0.7c-0.7,0-1.3-0.1-1.9-0.3c-0.6-0.2-1.2-0.5-1.7-0.9c-0.8-0.6-1.5-1.5-2.1-2.6
		c-0.6-1.1-1-2.4-1.4-3.8s-0.6-2.9-0.8-4.5c-0.2-1.6-0.3-3.2-0.4-4.7c-0.1-1.5-0.1-3-0.2-4.4c0-1.4,0-2.5,0-3.5c0-0.3,0-0.6,0-1.1
		c0-0.5,0-1,0-1.6c0-0.6,0-1.2,0-1.8s0-1.2,0.1-1.8s0.1-1.1,0.1-1.5c0-0.4,0.1-0.7,0.2-0.9c0.1-0.2,0.2-0.3,0.3-0.4
		c0.1-0.1,0.3-0.1,0.5-0.1c0.7,0,1.3,0.2,1.7,0.7c0.4,0.4,0.6,1,0.6,1.7c0,1,0,2.1-0.1,3.1c0,1-0.1,2.1-0.1,3.1c0,0.5,0,1.1,0,2
		s0,1.9,0.1,3c0,1.1,0.1,2.4,0.2,3.7c0.1,1.3,0.2,2.6,0.4,3.9c0.2,1.3,0.4,2.5,0.6,3.7c0.3,1.2,0.6,2.2,0.9,3.1
		c0.4,0.9,0.8,1.6,1.2,2.2c0.5,0.5,1,0.8,1.6,0.8c0.6,0,1.1-0.2,1.5-0.7c0.4-0.5,0.8-1.1,1.1-1.8c0.3-0.7,0.5-1.5,0.7-2.4
		c0.2-0.9,0.3-1.8,0.4-2.6s0.2-1.7,0.2-2.4c0-0.7,0-1.3,0-1.7c0-0.9,0-1.8-0.1-2.9s-0.1-2.2-0.2-3.3s-0.2-2.3-0.3-3.5
		c-0.1-1.2-0.3-2.4-0.5-3.5c-0.2-1.1-0.4-2.2-0.6-3.2c-0.2-1-0.5-2-0.8-2.8c0-0.1-0.1-0.3-0.2-0.5c-0.1-0.2-0.2-0.4-0.2-0.5
		c0-0.3,0.1-0.4,0.2-0.6c0.1-0.1,0.3-0.2,0.4-0.3s0.4-0.1,0.6-0.1s0.4,0,0.6,0c0.4,0,0.7,0,0.9,0c0.2,0,0.5,0.1,0.9,0.3
		c0.2,0.1,0.4,0.5,0.6,1c0.2,0.6,0.4,1.3,0.6,2.2c0.2,0.9,0.3,1.9,0.5,3c0.2,1.1,0.3,2.2,0.4,3.4c0.1,1.2,0.2,2.3,0.3,3.5
		c0.1,1.2,0.2,2.2,0.2,3.2s0.1,1.8,0.1,2.6S785.9,692.7,785.9,693.1z"/>
	<path class="st13" d="M806.1,694.6c0,0.3-0.1,0.7-0.4,1s-0.5,0.6-0.8,0.8c-0.1,0-0.2,0.1-0.4,0.1c-0.2,0-0.4,0.1-0.6,0.1
		s-0.4,0.1-0.6,0.1s-0.4,0.1-0.5,0.1l0.6,3.5c0.2,1.1,0.3,2.2,0.4,3.3c0.1,1.1,0.3,2.2,0.6,3.3c0,0.1,0.1,0.2,0.1,0.3
		c0,0.1,0,0.2,0,0.3c0,0.2-0.1,0.4-0.2,0.5c-0.1,0.1-0.3,0.2-0.4,0.2s-0.3,0.1-0.5,0.1c-0.2,0-0.4,0-0.5,0h-0.3
		c-0.5,0-0.9,0-1.1-0.1c-0.3-0.1-0.5-0.2-0.6-0.4c-0.1-0.2-0.2-0.4-0.3-0.7c0-0.3-0.1-0.7-0.2-1.1c-0.4-2.9-0.8-5.8-1.3-8.7
		c-1,0.1-2,0.2-3,0.4c-1,0.1-2,0.2-3,0.3l-0.8,4.7c0,0.3-0.1,0.7-0.1,1.2c-0.1,0.5-0.1,1-0.2,1.5c-0.1,0.5-0.2,1-0.2,1.4
		c-0.1,0.4-0.2,0.8-0.3,1c-0.1,0.2-0.2,0.3-0.3,0.4c-0.1,0.1-0.2,0.1-0.5,0.1c-0.3,0-0.6-0.1-0.8-0.2c-0.3-0.1-0.5-0.2-0.7-0.4
		c-0.2-0.2-0.4-0.4-0.5-0.7c-0.1-0.3-0.2-0.5-0.2-0.9s0-0.6,0.1-1c0.1-0.3,0.1-0.6,0.2-1c0.2-1,0.3-2.1,0.5-3.1
		c0.1-1,0.3-2.1,0.5-3.1c-0.1,0-0.2,0-0.4-0.1s-0.3-0.1-0.4-0.2s-0.2-0.1-0.3-0.2s-0.1-0.2-0.1-0.3c0-0.2,0.1-0.3,0.2-0.4
		c0.1-0.1,0.3-0.3,0.4-0.4s0.3-0.2,0.5-0.3c0.2-0.1,0.3-0.2,0.5-0.2c0.3-2.2,0.7-4.4,1-6.6s0.6-4.4,0.8-6.7c0.1-0.6,0.1-1.2,0.2-1.8
		c0-0.6,0.1-1.2,0.2-1.9c0.1-0.6,0.1-1.2,0.2-1.8c0.1-0.6,0.2-1.2,0.4-1.8c0.1-0.6,0.4-1,0.7-1.4c0.3-0.3,0.8-0.5,1.5-0.5
		c0.2,0,0.4,0,0.6,0c0.2,0,0.3,0.1,0.5,0.2c0.4,0.2,0.8,0.8,1.3,1.7c0.4,0.9,0.9,2,1.3,3.3c0.4,1.3,0.9,2.7,1.3,4.2
		c0.4,1.5,0.8,3,1.1,4.4s0.6,2.7,0.9,3.9c0.2,1.2,0.4,2,0.5,2.6c0.3,0,0.7-0.1,1-0.1s0.7-0.1,1-0.1c0.2,0,0.3,0,0.5,0
		c0.2,0,0.4,0.1,0.6,0.1c0.2,0.1,0.3,0.2,0.5,0.3S806.1,694.4,806.1,694.6z M798.6,694.4c-0.4-2.3-0.9-4.5-1.3-6.7s-1.1-4.4-1.7-6.6
		c-0.3,2.4-0.6,4.8-0.9,7.1s-0.7,4.7-1.1,7.1c0.9-0.1,1.7-0.3,2.5-0.4C796.9,694.8,797.8,694.6,798.6,694.4z"/>
</g>
</svg>
