<?xml version="1.0" encoding="utf-8"?>
<!-- Generator: Adobe Illustrator 24.1.2, SVG Export Plug-In . SVG Version: 6.00 Build 0)  -->
<svg version="1.1" id="Layer_1" xmlns="http://www.w3.org/2000/svg" xmlns:xlink="http://www.w3.org/1999/xlink" x="0px" y="0px"
	 viewBox="0 0 868 1183" style="enable-background:new 0 0 868 1183;" xml:space="preserve">
<style type="text/css">
	.st0{fill:#F9BD6A;}
	.st1{fill:#9DD1BC;}
	.st2{fill:none;}
	.st3{fill:none;stroke:#000000;stroke-miterlimit:10;}
	.st4{clip-path:url(#SVGID_2_);}
	.st5{clip-path:url(#SVGID_4_);}
	.st6{fill:#444518;}
	.st7{fill:#5F862E;}
	.st8{fill:none;stroke:#1D1D1B;stroke-width:2;stroke-miterlimit:10;}
	.st9{fill:#444518;stroke:#000000;stroke-width:0.75;stroke-miterlimit:10;}
</style>
<g>
	<g id="XMLID_1_">
		<path class="st6" d="M717.5,580.3c3.9,0.1,7.7,0,10.8-2.6c3.1-2.5,3.3-6.5,2.8-10.2c-0.5-4.2-1.9-8.6-0.2-12.8
			c0.6-1.5,1.6-2.7,3-3.6c1.6-1,3.8-1.1,4.4-3.5c0.4-1.6-1.5-3.7-1.3-5.5c0.2-1.4,1-2.7,1.9-3.8c2.2-2.9,6.5-6,5.1-10.2
			c-1.2-3.7-5-4.6-8.7-5.3l0.2-1.1c3.1,0.5,6.3,0.9,8.8,3.2c3,2.8,2.3,6.2,0,9.2c-1.2,1.5-2.7,2.9-3.8,4.5c-1.8,2.5-1.5,4.3-0.6,7.1
			c1.8,5.5-5.2,4.6-6.9,8.8c-2.3,5.4,0.8,11,0.4,16.5c-0.3,4.5-3.1,7.5-7.2,9.2c-1.7,0.7-3.6,1.1-5.5,1.3c-1.4,0.1-3.6-0.2-5.4-0.1
			l-0.1-0.9C716.1,580.3,716.8,580.3,717.5,580.3z"/>
		<path class="st6" d="M715.4,581.3c-1.3,0.1-2.5,0.5-3.1,1.4c-0.2,2.3-0.3,4.6-0.2,7c0,0.5-1.4,0.7-1.8,0.7c-0.3,0-0.6,0.1-0.9,0.2
			l-0.2-0.5c0.2-0.1,0.5-0.2,0.7-0.2c0-2.2,0-4.3,0.2-6.4c-0.1,0-0.2-0.1-0.1-0.2c0-0.1,0.1-0.2,0.1-0.2c0-0.1,0-0.2,0-0.3
			c0-0.2,0.3-0.4,0.6-0.5c1.2-1.2,2.8-1.7,4.6-1.8L715.4,581.3z"/>
		<path class="st6" d="M693.3,610.7c-1.4,0.3-1-1-1.5,1.4c-0.2,0.8-0.1,1.6-0.3,2.4c-0.5,2.4-2.2,3.8-4.4,4.6
			c-0.5,0.2-1.1,0.4-1.7,0.5l-0.2-0.7c1.7-0.4,3.2-1.3,3.9-3.2c0.5-1.3,0.2-2.8,0.6-4.1c0.6-1.7,1.6-2,3.2-2.3
			c0.4-0.1,0.9,0.3,1.2,0.2c2-0.4,1.5-0.8,2.3-1.8c1.6-1.9,2.7-4.8,3.9-6.9c2.3-4.1,4.3-9.4,8.8-11l0.2,0.5
			c-2.1,0.8-3.4,3.9-4.4,5.6c-1.4,2.5-2.8,5-4.2,7.6c-1.3,2.4-2.5,5.8-5.3,6.7C694.7,610.7,694,610.6,693.3,610.7z"/>
		<path class="st6" d="M688.5,370.8c-0.9-2-1.7-3.9-2-6.1c-0.5-2.6-1-5.1-4.1-5.6c-1.4-0.2-3,0-4.5,0.4l-0.1-0.6
			c1.2-0.2,2.3-0.5,3.4-0.6c3-0.2,6.1,0.5,7.1,3.7c0.7,2.4,0.8,4.7,1.8,7.1c1.1,2.6,2.4,5.1,3.3,7.8c1.8,5.2,2.9,10.6,3.2,16.1
			c0.2,3.4,1.1,9.9-1.7,12.4c-1.3,1.2-3.1,1.8-4.4,2.9l-1.2-0.3c0.8-0.5,1.6-1,2.4-1.6c2.5-1.8,2.6-3.9,2.8-6.8
			c0.3-4.8-0.1-9.7-1.1-14.5C692.3,380.1,690.5,375.5,688.5,370.8z"/>
		<path class="st6" d="M671.8,490.7c-1.9,1.2-4.1,1.2-6.3,1.4l-0.1-0.8c2-0.2,3.9-0.3,5.5-1.5c2.6-2,3.7-5.4,6.8-6.9
			c1.1-0.5,1.9-0.4,3.1-0.7c2.3-0.6,2.6-2.5,3.4-4.5c1.8-4.4,3.5-8.8,5.3-13.3c0-0.1,0-0.3,0-0.5c0-4.8,0.5-9.5,0.4-14.3
			c-0.1-4.4-0.1-9.2-1.9-13.4c-1.3-3.2-4.9-5-5.9-8.2c0,0-0.1,0-0.1-0.1c0-0.2-0.1-0.4-0.1-0.5c0,0,0-0.1,0-0.1c0,0,0,0,0-0.1
			c-1.2-6.6,1-13.5,6-18.2c0.4-0.4,0.9-0.8,1.4-1.1l1.2,0.3c-0.1,0.1-0.2,0.2-0.3,0.2c-1.7,1.5-3.1,3.3-4.2,5.4
			c-2.1,4-2.8,8.5-1.9,13c0.8,3.4,4.7,5.5,6,8.7c1.5,3.7,1.6,7.8,1.8,11.7c0.2,4.8,0.2,9.5-0.1,14.3c-0.1,1.6-0.1,3.5,1.2,4.7
			c0.4,0.3,1.3,0.3,1.8,0.6c0.7,0.5,1.2,1,1.5,1.8c1.4,3.3-1.2,6.9,2.7,9c2.7,1.5,4.3,2,5.1,5.4c1.1,4.8-1.8,11.5,5.5,11.7
			c2,0.1,3.7-0.3,4.7,1.7c0.5-0.1,1.1,0,1,0.3c-0.4,4.6,3.3,8.8,8,8.6c0.1,0,0.6,0,0.6,0.2c0.2,5,1,11.1,5.6,14c1.8,1.2,4,1.6,6.1,2
			l-0.2,1.1c-1.5-0.3-2.9-0.5-4.1-0.8c-3.9-1-6.7-3.5-8.1-7.4c-0.8-2.3-0.6-4.7-1.3-6.9c-0.5-1.8-2.2-1.2-3.8-2
			c-3.2-1.5-5-4.6-4.9-8c-0.4,0-0.8-0.1-0.9-0.4c-0.9-1.8-4.7-0.2-6.3-0.5c-1.2-0.3-2-1-2.6-2.1c-2-3.4-0.4-7.8-1.4-11.5
			c-0.4-1.3-0.9-2.3-2-3.1c-1-0.8-2.1-0.8-3.2-1.4c-0.7-0.4-1.2-0.9-1.6-1.6c-1.2-2.4,0.5-6-1.1-8.2c-0.9-1.2-2.5-1-3.6-1.9
			c-1.6,4.1-3.2,8.1-4.8,12.2c-1,2.5-1.6,3.5-4.2,4.1c-3.5,0.7-4.7,2-6.6,4.4C673.9,488.9,673,489.9,671.8,490.7z"/>
		<path class="st6" d="M671.3,358c1.9,1.7,4.1,1.4,6.4,1l0.1,0.6c-2.3,0.5-4.7,1.1-6.9,0.1c-2.6-1.1-5.2-8.2-8.3-7.9l-0.1-0.6
			c1.9-0.4,3.6,0.1,5.2,1.8C669.1,354.6,669.8,356.6,671.3,358z"/>
		<path class="st6" d="M653.1,636.4c0.3,1.8,1.3,4.2,3.2,4.9c2.9,1.1,4.8-2.3,6.1-4.3c2.8-4.1,3.5-8.1,4.8-12.8
			c0.6-2.1,1.5-3.4,3.6-4.2c2.6-1.1,5.5-1,8.3-0.8c1.9,0.1,4.1,0.3,6.1-0.2l0.2,0.7c-1.8,0.5-3.6,0.6-5.4,0.5
			c-2.5-0.1-4.6-0.4-7.1,0.3c-3.5,0.9-3.2,2.5-4,5.7c-0.9,4.1-2.6,8-5.1,11.5c-1.3,1.7-2.8,3.9-4.8,4.7c-1.9,0.7-4,0.4-5.6-0.8
			c-2.8-2.1-2.8-5.8-2.5-9c0.1-1.8,1.2-6.1,0.1-7.6c-0.7-0.9-1.5-0.9-2.4-0.7l-0.2-0.8c0.1,0,0.2,0,0.3-0.1c1.2-0.3,2.8-1.1,4-0.2
			c1.4,1.1,0.7,5.6,0.5,7.1C653.1,632.3,652.8,634.4,653.1,636.4z"/>
		<path class="st6" d="M631.2,610.8c-1.7-0.7-4.4,1.1-5.9,1.9c-0.3,0.1-0.7,0.4-1,0.5c-0.8,0.4-1.6,0.6-2.5,0.8
			c-0.2,0-0.3,0.1-0.5,0.1l-0.1-0.7c3-0.5,5-2.8,8.1-3.6c2.4-0.6,3.7,0.1,5.2,2c1.6,2,2.4,2.8,4.9,3.6c1.1,0.4,2.4,0.6,3.4,1.3
			c1.3,0.9,1.7,2.1,2,3.6c0.6,2.5,0.7,3.8,3.7,3.2l0.2,0.8c-0.4,0.1-0.9,0.2-1.3,0.3c-1.3,0.3-2.7,0.4-3.7-0.8
			c-1-1.3-0.8-3.2-1.5-4.6c-1-2-2.6-2.4-4.6-3c-1.2-0.4-2.4-0.6-3.4-1.4C633.1,613.8,632.5,611.3,631.2,610.8z"/>
		<path class="st6" d="M609.9,606.8c1.5,3.5,5,5.9,8.6,6.5c1,0.2,1.8,0.1,2.6,0l0.1,0.7c-2.1,0.4-4.2,0.3-6.2-0.4
			c-6.5-2.1-8.8-7.9-7.7-14.3c0.7-4.1,2.3-8.2,1.4-12.4c-0.4-2-3-5.5-5.4-6l0.1-0.6c1.9-0.1,3.9,0.5,5.2,1.7
			C615.5,588.4,606.8,599.4,609.9,606.8z"/>
		<path class="st6" d="M602,580.6c-0.1-0.1-0.2-0.1-0.2-0.3c0.8-4.5,1.6-10.3-1.4-14.2c-1.2-1.6-3-2.6-4.9-3.5l0.6-1.1
			c3.1,1.6,6.2,2.7,7.7,6.5c1.4,3.8,0.8,8.2,0.1,12.1c0,0.2-0.2,0.3-0.4,0.4l-0.1,0.6c-0.4-0.1-0.8-0.1-1.2,0L602,580.6z"/>
		<path class="st6" d="M583.7,548.4c-0.6-2.6-1-5.2-2.5-7.4c-1.5-2.2-3.3-2.5-5.6-2.7l0.1-1.2c1.5,0.1,3.2-0.1,4.5,0.5
			c4,1.7,4.8,6.5,5.6,10.3c1.2,5.1,3.8,9.5,8.2,12.4c0.7,0.4,1.4,0.8,2.1,1.2l-0.6,1.1c-2.1-1.1-4.3-2-6-3.6
			C586.4,556.1,584.7,552.5,583.7,548.4z"/>
		<path class="st6" d="M546.3,410c0.4-0.2,0.8-0.4,1.3-0.6c2.8-1.3,3.4-3.4,6.9-2.9c4.1,0.7,8.5,2.9,12.3,4.5c2.5,1,5,2.2,5.8,4.8
			c4.1-0.1,8.2-0.2,12.3-0.3c3.7-0.1,7.7,0,11-1.7c1.9-1,3.6-3.6,6.1-3c0.7,0.2,1.1,0.6,1.7,1c1.8,1.4,3,2.6,5.5,2.7
			c9,0.3,11.5-11.6,14.2-17.9c2.8-6.5,6.6-12.5,11.2-18c0.1-0.1,0.2-0.1,0.2-0.2c-0.5,0.1-1-0.1-1-0.5c0-2.1,0-4.3,0-6.4
			c0-1.1-0.3-2.9,0.4-3.8c0.9-1.3,3.3-1.2,4.7-1.1c2,0.2,3.8,1.1,5.8,1.2c3.9,0.3,6.9-2,8.8-5.2c2.4-4,4-8.7,5.8-13
			c0.1-0.1,0.2-0.3,0.4-0.4c-1-4-1.7-8.2-0.8-12.3c0.4-2.1,1.3-3.8,2.4-5.7c1.6-2.6,1.9-4.9,1.9-7.9c0.1-4.7-0.2-10.1-3.9-13.6
			c-2.7-2.5-8.1-4.4-6.4-9c-0.2,0-0.3,0-0.4-0.1c-1.3-0.9-2.9-0.6-4.5-0.1l-0.3-0.9c2.2-0.7,4.4-1.6,6.5-0.1
			c0.2,0.1,0.2,0.3,0.2,0.4c0.4,0,0.7,0,0.7,0.1c-2.2,5.4,5.9,7.6,8.2,11.3c2.2,3.6,2.2,8.3,2,12.4c-0.1,2.2-0.2,4.1-1.3,6.1
			c-1.3,2.4-2.6,4.2-3.1,7c-0.8,4.8,0.4,9.8,1.6,14.4c0,0,0.1,0,0.1,0l0.1,0.6c-0.2,0-0.4,0.1-0.6,0.1c-0.2,0.1-1.6,0.6-1.7,0.2
			c0-0.1,0-0.1,0-0.2c-2.3,5.9-4.7,13.2-10.3,16.1c-2.7,1.4-5.4,1.2-8.3,0.5c-0.9-0.2-1.9-0.7-2.9-0.7c-3.6-0.1-2.9,1-2.9,3.3
			c0,2.1,0,4.3,0,6.4c0,0.2-0.2,0.4-0.5,0.6c0.7-0.1,1.5,0.2,0.9,0.9c-6.1,7.2-10,15-13.3,23.7c-2.3,5.8-5.5,11.6-12.1,12.9
			c-2.5,0.5-5.2,0.3-7.3-1.2c-1.3-0.9-1.8-2.3-3.8-1.5c-1.3,0.5-2.5,1.8-3.9,2.4c-3.1,1.3-6.6,1.4-9.9,1.5
			c-4.6,0.1-9.2,0.2-13.8,0.3c-0.4,0.1-0.8,0.2-1.1,0.1c-3.5,6.5-8.3,12.2-14.3,16.5c-1.6,1.2-4.2,2.3-5,4.3c-0.7,2,0.4,4.7,0.7,6.7
			c0.5,3.4,0.4,7.1-1.2,10.3c-1.2,2.2-3,3.7-5,5.1l-0.6-0.9c0.9-0.7,1.7-1.4,2.4-2.3c3-3.7,2.9-8.9,2-13.3c-0.6-3.2-1.2-5.4,1.5-7.6
			c3.4-2.8,7.1-5,10.2-8.4c3.1-3.4,5.7-7.1,7.8-11.2c0.1-0.2,0.4-0.4,0.8-0.4c-1.4-3.1-5.8-4.1-8.7-5.2c-1.9-0.7-3.7-1.4-5.6-2.1
			c-1.4-0.5-1.7-0.6-3.3-0.3c-2.4,0.5-1.1,0.4-2.4,1.1c-0.8,0.5-1.5,0.8-2.4,1.1c-0.4,0.1-0.8,0.3-1.2,0.4L546.3,410z"/>
		<path class="st6" d="M480.2,296.1c0.2-0.1,0.4-0.1,0.5-0.1c0.1,0,0.2,0,0.4,0c0.1,0,0.2,0,0.2,0c0.2,0,0.3,0,0.3,0.1
			c0.1,0,0.2,0.1,0.2,0.1c0.1,0.1,0.3,0.1,0.3,0.2c4.5-2.3,9.2-4.3,14.3-4.2c3.4,0.1,6.5,1.5,9.9,1.2c3-0.3,5.6-1.5,7.9-3.4
			c1-0.8,1.8-1.7,2.9-2.4c1.6-1,3.5-1.2,5.3-1.2c1.2,0,2.4,0.2,3.6,0.4c3.2,0.4,6.5-0.4,9.2-2.1c3.5-2.1,7.1-4.5,11.2-2.6
			c0.1,0,0.1,0.1,0.2,0.2c7.6,3.7,16.6,4.4,22.9-1.9c1.8-1.8,3.1-4,4.8-5.8c1.4-1.5,5.2-2.6,6.3-4.4c-0.6-1.5,0.1-3.5,1-5.5
			c1.3-2.9,2.5-6.1,1.9-9.3c-0.7-4.1-3.7-5.2-7.5-5.7c-5-0.7-9.8-1.7-14.5-3.5c-0.1,3.3,0.1,6.3-3.9,6.7c-5.1,0.5-10.8,0.3-15.7-1.3
			c-5.1-1.6-8.7-5.9-13.7-7.4c-3.5-1-9.3-0.8-10.4-5c-0.1,0-0.1-0.1-0.1-0.2c-3-7.4-2.5-14.2-0.2-21.7c0.6-1.9,1-5.3-1.6-6
			c-1.6-0.4-2.8,1-4.2,1.4c-2.1,0.7-4.2,0.1-6.1-0.8c-0.4-0.2-0.1-0.5,0.3-0.7c-0.6,0.1-1.1,0.1-1.1-0.1c0.6-2.6,0.3-5.2-1-7.5
			c-1.7-3.1-4-3.7-6.9-5.1c-0.8-0.4-1.3-0.6-2-1.2c-0.7-0.7-1.3-2.5-2.1-2.9c-2.1-1-7,4.5-8.6,5.8c-2,1.7-4.7,3.7-7.5,4.8l-0.2-0.6
			c1-0.3,2.1-0.9,3.1-1.6c2.4-1.8,4.6-3.9,6.9-5.9c1.8-1.6,4.6-4.5,7.4-3.7c1.5,0.4,1.8,1.7,2.7,2.8c1.8,2.1,4.8,2.2,6.9,3.9
			c3.2,2.6,4.4,6.8,3.5,10.8c0,0.1-0.1,0.2-0.2,0.3c0.2,0,0.5,0,0.6,0c4.1,2.1,5.5-1.3,9.1-0.9c2.2,0.3,3.6,1.9,3.7,4.1
			c0.1,3.5-2,7.1-2.4,10.6c-0.4,4.1,0.2,8.2,1.5,12.1c0.3,0,0.5,0.1,0.5,0.4c0.1,5.5,7.1,4.7,10.8,6.1c3,1.1,5.5,3.3,8.2,4.9
			c3.8,2.3,8.1,3.2,12.5,3.4c1.7,0.1,4.4,0.5,6.1,0c2.6-0.8,2.1-4.3,2.3-6.6c0.1-0.7,1.4-0.9,1.9-0.7c3.6,1.6,7.4,2.8,11.3,3.5
			c2.9,0.5,6.5,0.2,9.2,1.6c4.4,2.2,4.5,7.8,3.2,11.9c-0.4,1.2-0.9,2.3-1.4,3.5c-0.3,0.8-1.3,2.3-1.3,3.2c0,0.4,0,0.7,0.1,1
			c0.3,0,0.6,0.1,0.5,0.4c0,0.2-0.1,0.3-0.1,0.5c0.8,1,2.4,1.2,3.8,1.1c1.9-0.1,3.7-0.5,5.4,0.5c4.3,2.5,2.7,8.1,1.5,11.9
			c-1.2,3.7-1.6,7.2,2.1,9.4c1.5,0.9,2.9,1.4,4.3,1.5c0.5-0.2,1.1-0.2,1.4-0.1c1-0.2,2.1-0.6,3.2-1.4c4.5-3.2,9.1-7.2,14.3-9.2
			c0.9-0.3,2.3-0.8,3.2-0.3c1.8,1,0.4,3.4,1.7,4.9c2,2.4,6.6,0.3,9.2,0.8c1.4,0.2,2.6,0.9,3.6,2c2.3,2.5,2.7,7.4,5.8,9.1
			c1.7,1,3.4,0.5,5.2-0.1l0.3,0.9c-1.4,0.5-2.9,1.1-4.1,1.1c-1.4,0-2.7-0.4-3.8-1.4c-3.3-3-3.2-9.5-8.2-10.2
			c-3.2-0.5-8.5,1.8-10.4-2.3c-0.2-0.4-0.2-1.6-0.4-1.8c0-0.1-2.3-1.1-2.5-1c-1.3,0.1-3.6,2.1-4.6,2.7c-3,1.9-5.7,4-8.6,6.1
			c-1.3,0.9-2.4,1.4-3.6,1.6c0.3,4.8-1.5,9.3-4.3,13.3c-1.9,2.7-4.5,6.6-8.2,6.8c-2.8,0.2-4.9-1.3-6.7,1.9c-0.7,1.3-1.3,2.6-2.4,3.7
			c-2.3,2.2-5.6,3-8.7,3.2c-2.9,0.2-6-0.4-8.9,0.2l-0.2-0.8c1.5-0.3,3-0.5,4.7-0.5c3.6,0,8,0.5,11-2c1.9-1.6,2.2-4.2,3.9-5.8
			c0.9-0.9,2.1-1.3,3.4-1.4c0.5,0,1,0,1.6,0.1c2.3,0.3,3.5,0.3,5.4-1.5c4.5-4.2,7.6-10.9,7.1-17c-0.8-0.1-1.7-0.3-2.7-0.7
			c-3.8-1.3-6.8-3.9-6.1-8.3c0.6-3.4,2.9-6.7,2.2-10.3c-0.5-2.6-1.5-3.4-4.1-3.8c-1.7-0.3-3.1-0.1-4.8-0.3c-1-0.1-1.7-0.3-2.3-0.7
			c-0.2,0.2-0.4,0.3-0.7,0.5c-2.1,1.4-4.4,2.1-6,4.2c-2.3,3-4.8,5.9-8.1,7.8c-6.7,3.9-15.5,2.5-22.1-0.8c-0.1-0.1-0.2-0.1-0.2-0.2
			c-4.6-2-10.3,4.7-15.2,5.1c-2.4,0.2-4.7-0.6-7-0.6c-4.6,0-5.8,2.6-9,4.5c-3.1,1.9-6.8,2.8-10.4,2.6c-3-0.2-5.9-1.4-9-1.2
			c-4.4,0.2-8.4,2.4-12.2,4.4c-0.4,0.2-1.7,0.2-1.7-0.1c-0.2,0-0.4-0.1-0.6-0.2c-0.1-0.1-0.2-0.2-0.2-0.3l0-0.8
			C479.8,296.2,480,296.2,480.2,296.1z"/>
		<path class="st6" d="M471.3,293c-1.3-2-1.4-2.7-4.5-2.1c-0.5,0.1-0.9,0.2-1.4,0.4l-0.2-0.6c0.4-0.2,0.9-0.3,1.3-0.4
			c1.4-0.4,3.1-1,4.6-0.5c1.5,0.6,1.8,1.8,2.6,3.1c1.4,2,3.4,3.3,5.9,3.3l0,0.8c-2,0.3-3.9,0-5.7-1.1
			C472.7,295.1,472.1,294.1,471.3,293z"/>
		<path class="st6" d="M454.7,303.1c-1,0.5-1.2,2.2-2,3c-0.6,0.6-1.4,1-2.2,1.3c-1.3,0.6-2.8,0.7-4.3,0.8l-0.1-0.5
			c0.4-0.1,0.8-0.1,1.2-0.2c4.2-1,3.1-1.6,5-4c0.9-1.1,1.8-1,3-1.4c4.2-1.2,2.7-5,4.7-8.1c1.2-1.7,3.2-2.7,5.2-3.5l0.2,0.6
			c-1.3,0.5-2.6,1.5-3.3,2.7c-1.6,2.5-1,6-3.4,8C457.5,303,455.9,302.5,454.7,303.1z"/>
		<path class="st6" d="M432.6,215.7c-1.4,1.8-2.9,4.2-5.4,4.5c-0.9,0.1-1.7,0-2.3-0.7c-0.2-0.2-0.9-4.9-1.1-4.8l0.3-0.8
			c0.7-0.1,1.3,0.1,1.9,0.7c1.2,1.3,0,5.7,3.2,3.2c1-0.8,1.6-2.3,2.5-3.2c1.3-1.5,2.9-2.5,4.9-2.8c0.6-0.1,1-0.1,1.8,0
			c2.3,0.3,1,0.4,4.4-0.1c2.7-0.4,3.7-0.7,5.7-2.4c0.9-0.8,1.7-1.6,2.6-2.5c0.3-0.3,1.5-0.8,2-0.4c3.5,2.6,5.9-0.5,8.8-2.2
			c1.5-0.9,4.8-0.8,4.7-3.3c0-0.5,1.9-1,2.1-0.6c1.6,3.7,4.9,4.7,8.1,3.6l0.2,0.6c-3.5,1.4-7.1,1.5-9.4-1.9
			c-0.4,0.3-0.8,0.5-1.3,0.7c-1.4,0.6-2.1,0.5-3.3,1.6c-0.8,0.7-1.6,1.5-2.5,2.1c-2.5,1.7-5.8,1.9-8.4,0.5c-2.4,2.3-5,4.4-8.2,5.2
			c-1.2,0.3-2.4,0.5-3.7,0.4c-1.4-0.1-2.3-0.3-3.8-0.1C434.1,213.6,434,214,432.6,215.7z"/>
		<path class="st7" d="M423.9,214.7c0.2-0.1,0.9,4.6,1.1,4.8c0.6,0.7,1.4,0.8,2.3,0.7c2.6-0.3,4-2.6,5.4-4.5
			c1.4-1.8,1.4-2.2,3.7-2.5c1.5-0.2,2.4,0,3.8,0.1c1.2,0.1,2.5,0,3.7-0.4c3.2-0.9,5.8-2.9,8.2-5.2c2.6,1.4,5.9,1.2,8.4-0.5
			c0.9-0.6,1.7-1.4,2.5-2.1c1.2-1.1,2-1,3.3-1.6c0.5-0.2,1-0.4,1.3-0.7c2.4,3.4,6,3.3,9.4,1.9c2.8-1.1,5.5-3.1,7.5-4.8
			c1.5-1.3,6.5-6.8,8.6-5.8c0.8,0.4,1.4,2.2,2.1,2.9c0.7,0.6,1.2,0.8,2,1.2c2.9,1.4,5.2,2,6.9,5.1c1.3,2.3,1.6,4.9,1,7.5
			c-0.1,0.2,0.5,0.2,1.1,0.1c-0.4,0.2-0.7,0.5-0.3,0.7c1.9,1,4,1.6,6.1,0.8c1.4-0.5,2.5-1.9,4.2-1.4c2.6,0.7,2.2,4.1,1.6,6
			c-2.2,7.5-2.7,14.3,0.2,21.7c0,0.1,0.1,0.1,0.1,0.2c1.1,4.2,6.9,4,10.4,5c5.1,1.5,8.7,5.8,13.7,7.4c4.9,1.6,10.6,1.8,15.7,1.3
			c4-0.4,3.8-3.4,3.9-6.7c4.7,1.8,9.5,2.8,14.5,3.5c3.8,0.5,6.7,1.7,7.5,5.7c0.6,3.3-0.6,6.4-1.9,9.3c-0.9,2-1.6,4.1-1,5.5
			c-1,1.9-4.9,2.9-6.3,4.4c-1.7,1.8-3,4-4.8,5.8c-6.4,6.4-15.3,5.7-22.9,1.9c0-0.1-0.1-0.1-0.2-0.2c-4.1-1.9-7.7,0.5-11.2,2.6
			c-2.8,1.7-6,2.5-9.2,2.1c-1.2-0.2-2.4-0.4-3.6-0.4c-1.9,0-3.7,0.3-5.3,1.2c-1.1,0.6-1.9,1.6-2.9,2.4c-2.3,1.9-4.9,3.2-7.9,3.4
			c-3.4,0.3-6.5-1.1-9.9-1.2c-5.1-0.1-9.8,1.9-14.3,4.2c-0.1-0.1-0.2-0.2-0.3-0.2c-0.1,0-0.1-0.1-0.2-0.1c0-0.1-0.1-0.1-0.3-0.1
			c-0.1,0-0.2,0-0.2,0c-0.1,0-0.2,0-0.4,0c-0.2,0-0.4,0.1-0.5,0.1c-0.2,0-0.4,0-0.7,0c-2.4,0-4.5-1.3-5.9-3.3
			c-0.8-1.3-1.1-2.5-2.6-3.1c-1.4-0.5-3.2,0-4.6,0.5c-0.4,0.1-0.9,0.3-1.3,0.4c-2,0.7-4,1.7-5.2,3.5c-2.1,3.1-0.6,6.9-4.7,8.1
			c-1.2,0.4-2.1,0.3-3,1.4c-1.9,2.4-0.8,3-5,4c-0.4,0.1-0.8,0.2-1.2,0.2c-0.7,0.1-1.4,0.2-2,0.3c-2,0.5-3.9,1.1-5.3,2.7
			c-2,2.2-2.5,8.7-6.1,9c-0.1,0-0.1,0-0.2,0c0.5-0.2,0.8-0.5,0.2-0.5c-6.1-0.2-10.3-5.2-16.1-6.3c-4.4-0.8-9.1,0.8-12.6,3.4
			c-4.8,3.6-7.3,9.3-8.9,14.9c-0.3,0.9-0.4,3.4-1.2,4c-1.6,1.4-5.4,0.2-7.3-0.2c-4.2-0.8-8.3-1.8-12.4-2.8c0,0,0,0,0,0
			c0-1.7-0.1-3.3-0.5-5c-1.1-4.3-4.7-7-7.6-10.1c-3.7-3.8-6.4-8.4-8.6-13.3c-2.1-4.4-4.8-9.6-5.5-14.5c-0.4-2.9,0.4-5.8,0.2-8.7
			c-0.2-2.8-0.9-5.4-1.6-8.1c-1.6-5.6-3.6-11.3-2.2-17.1c0.9,0.2,1.7,0.4,2.7,0.4c6-0.1,6.9-8.3,12.1-8.9c0.8-0.1,1.8,0,2.9,0.4
			c0.3,0.1,2.3-0.1,2.1-0.6c-1.5-3.7,2.4-5.6,4.5-7.9c2.3-2.8,2.6-6.5,5.4-9c1.1-1,2.4-1.6,3.7-2.2c1.7-0.7,3.4-1.4,5-2.4
			c3.3-2.3,6-5.5,8.9-8.3c0.1-0.1,0.2-0.2,0.2-0.3c-0.9-4.1-2.9-9.1-2.7-13.3c0.2-2.9,1.6-2.4,3.5-1.1c1.6,1.1,3.2,1.8,5,2.3
			c3.3,1,10.7,2.9,13.1-0.9c3.3,3.1,5.8,6.7,7.8,10.9C422.4,215.3,423.6,214.8,423.9,214.7z"/>
		<path class="st6" d="M395.4,217.2c-2.9,2.8-5.6,6-8.9,8.3c-1.5,1.1-3.3,1.7-5,2.4l-0.3-0.7c5-2.2,8.4-6,12.2-9.7
			c-0.9-4.1-2.9-9-2.7-13.3c0.1-1.7,0.7-3,2.3-3.7c1.9-0.8,3.3-0.1,4.9,1c2.1,1.5,4.3,2.4,6.9,3c0.8,0.2,1.6,0.4,2.4,0.5
			c1.7,0.2,5.5-0.5,5.8-2.4c0.1-0.4,1.7-0.8,2-0.5c3.9,3.4,6.9,7.3,9.1,11.9l-0.3,0.8c-0.3,0.1-1.5,0.6-1.7,0.2
			c-1.9-4.1-4.5-7.8-7.8-10.9c-2.4,3.8-9.8,1.9-13.1,0.9c-1.8-0.5-3.4-1.3-5-2.3c-1.9-1.3-3.3-1.8-3.5,1.1
			c-0.3,4.3,1.7,9.2,2.7,13.3C395.6,217,395.5,217.1,395.4,217.2z"/>
		<path class="st6" d="M362.3,367c0.2-4.5,1.7-8.2,5.1-11.1c0.8-0.7,1.7-1.4,2.6-2.2l0.7,0.8c-1.9,1.6-3.8,3.1-4.9,5.4
			c-1.2,2.4-1.4,5.1-1.4,7.7c0,5.7,0.9,11.5,2.3,17c1.5,5.6,5,7.6,10.1,8.6l0.6,0.8c-0.4,0.1-0.7,0.2-0.9,0.2
			c-5.2-0.8-9.6-2.1-11.4-7.5C363.1,380.6,362.1,373.5,362.3,367z"/>
		<path class="st6" d="M362.9,246.5c0.9-0.1,1.8-0.1,2.6,0c-0.3-2.5,1.9-4.2,3.7-5.9c2.8-2.7,3.3-6.5,5.8-9.4c1.7-1.9,3.8-3,6.1-4
			c0,0,0,0,0,0l0.3,0.7c-1.3,0.6-2.6,1.2-3.7,2.2c-2.8,2.5-3.1,6.2-5.4,9c-2,2.4-5.9,4.2-4.5,7.9c0.2,0.5-1.8,0.7-2.1,0.6
			c-1.1-0.4-2.1-0.5-2.9-0.4L362.9,246.5z"/>
		<path class="st6" d="M304.9,351.2c-1.6-1-3.8-1.7-6.1-2l0.2-1.1c0.1,0,0.2,0,0.3,0c3.5,0.6,7.3,0.7,9.4,3.9
			c2.2,3.2,3.7,7.1,5.5,10.5c0.2,0.4-0.7,0.8-0.9,0.9c-3.3,1.1-7.3,2.8-6.7,7.1c0.3,2.1,1.7,4,2.7,5.8c0.8,1.4,2.1,3.6,2.1,5.5
			c1.4,1.7,2.7,3.5,3.7,5.5c0.8,1.6,1.2,3.8,2.6,4.9c1.1,0.8,2.6,0.9,3.8,1.3c5.4,1.4,9.2,5.4,12.9,9.4c3.5,3.8,7,8.1,7.4,13.4
			c0.1,1.1-0.2,2.6,0.4,3.6c0.9,1.5,3.2,1.5,5.3,1.1l0.1,0.7c-0.9,0.1-1.7,0.3-2.6,0.3c-0.9,0.1-2.1,0.2-3.1-0.1
			c-1.8,3.4-6,3.4-8.5,6.2c-2.1,2.4-2.1,6.5-5.5,7.8c-1.6,0.6-3,0-4.5,0.2c-4.8,0.5-6.1,4.4-7.5,8.1c-1.3,3.6-2.6,7-6.2,8.8
			c-1.1,0.6-2.2,1-3.4,1.3c-3.1,0.8-6.5,0.9-9.5,1.2c0,0-0.1,0-0.1,0l-0.2-1.4c0.8-0.1,1.6-0.2,2.4-0.3c2.5-0.3,5.3-0.4,7.7-1.1
			c8.8-2.7,5.9-16,15-17.9c2.8-0.6,5.6,0.8,7.5-2.4c0.9-1.4,1.2-3.1,2.3-4.5c2.3-2.9,7.1-3,8.6-6.5c0.1-0.1,0.2-0.3,0.3-0.4
			c-1.2-1.5-0.7-4.1-1-5.9c-1.1-5.5-5.3-9.8-9-13.7c-1.9-1.9-3.8-3.9-6.2-5.3c-2.5-1.5-5.2-1.5-7.7-2.7c-2-1-2.3-2.6-3.2-4.5
			c-0.8-1.8-1.8-3.4-2.9-4.9c-0.9,0.9-2.3,1.1-3.5,1.4c-0.7,0.2-1.3,0.4-1.9,0.5l-0.3-0.9c0.8-0.3,1.6-0.6,2.4-1
			c1-0.5,1.5-1.2,1.7-2c-0.3-0.3-0.5-0.6-0.8-0.9c-0.2-0.2,0.2-0.5,0.7-0.7c-0.5-2.4-2.8-5.3-3.5-6.9c-2.8-5.9,1.5-9.1,6.5-10.9
			C310,359,308.1,353.3,304.9,351.2z"/>
		<path class="st6" d="M336.6,497.5c2.3,0.5,4.7,1.1,7.1,1.8c2.9-2.3,6.1-4.5,9.9-5.3c4-0.8,6.5,0.9,10,2.5c7,3.1,14.7-3,19.2-8
			c2.2-2.5,2.6-4.3,2.5-7.5c0-1.3,0-2.3,0.6-3.3c-0.5-0.8-1.1-1.7-1.7-2.5c-3.8,3.5-8.2,6.5-13.7,5.6c-2.7-0.4-5.1-1.5-7.9-1.1
			c-2.2,0.3-4.3,1-6.5,1.6c-2.5,0.7-5.4,1.2-7.7,2.3c-2.5,1.2-4.2,3.2-5.9,5.4C340.7,491.8,338.7,494.7,336.6,497.5z M308.7,501.3
			c-1.3,1.9-4.1,7-2.8,9.5c1.1,2.1,8.5,0.8,10.7,1c2.6,0.2,5.1,0.9,7.4,2.2c5.9,3.1,11.3,6.2,17.8,7.7c6,1.4,12.1,1.7,18.2,1.1
			c-0.1-0.2-0.3-0.3-0.4-0.5c-1.5-1.8-2.3-3-2.7-5.3c-0.9-5-1.9-8.9-6.1-12.3c-4.3-3.5-9.8-4.8-15.2-5.9c-0.1,0.1-0.1,0.1-0.2,0.2
			c-1.1,1.3-2.2,2.5-4.1,2.4c-2.5-0.2-3.1-2.9-4.2-4.7c-2.4-3.8-7.9-5.4-11.7-2.6c-0.1,0.1-0.4,0.2-0.6,0.2
			C312.7,496.4,310.5,498.7,308.7,501.3z M304,512c-2,6.1-5.4,14.1-12.7,14.8l-0.1-1c0.7-0.1,1.6-0.3,2.7-0.9c1-0.5,1.9-1.3,2.6-2.1
			c2.9-3.1,4.3-7.2,5.6-11.1c0.1-0.4,1.1-0.7,1.7-0.7c-0.2-1-0.1-2.1,0.1-3c0.9-5.9,5.3-10.6,9.4-14.7c-0.1-0.1-0.2-0.2-0.2-0.3
			c0.3-4.4-2.5-7.8-3-12c-0.4-2.9,0.6-5.6,2.1-8.1c1.8-3.1,6.4-7.5,5.6-11.4c-1-4.8-8.2-5.6-12.1-6.1c-1-0.1,0.1-0.8,0.9-1.1
			c0.2,0,0.3-0.1,0.4,0c3.7,0.5,8.7,1.2,11.4,4c2.7,2.7,1.1,6.1-0.6,8.9c-2.5,4.1-6.3,8.1-5.6,13.3c0.5,4.2,3.2,7.7,3,12
			c0.1,0,0.2,0.1,0.3,0.2c3.4-1.8,7.6-1.8,11,0.3c1,0.6,1.9,1.4,2.6,2.4c0.3,0.4,0.5,0.8,0.7,1.2c0.9,1.6,0.6,2.4,2.5,2.3
			c2.1-0.1,3.5-3.2,4.7-4.9c1.3-1.7,2.5-3.5,3.8-5.2c1.9-2.6,4-4.9,7-6.2c3.8-1.6,8.1-2.6,12.2-3.7c3.2-0.8,5.9-0.9,9.1-0.1
			c3.6,0.8,6.5,1.2,9.8-0.9c1.9-1.2,3.5-2.8,5.1-4.3c0.3-0.3,1.5-0.7,1.8-0.2c0.6,0.9,1.1,1.8,1.7,2.6c0.9-1,2.2-1.6,3.5-2.3
			l0.4,0.9c-1.3,0.7-2.5,1.6-2.9,3c0,0.1,0,0.3-0.1,0.4c0,0.1,0,0.2-0.1,0.4c0,0.3-0.4,0.5-0.8,0.6c-0.3,1.6,0.3,3.3,0,4.9
			c-0.4,1.8-1.5,3.3-2.7,4.7c-2.9,3.2-6.8,6.3-10.8,8.2c-3.4,1.6-7.3,2.3-10.9,1.1c-1.7-0.6-3.2-1.7-4.9-2.4
			c-4.9-1.8-9.3,1.3-13,4.2c5.8,2,11.1,5.3,13,11.5c0.7,2.2,0.5,4.6,1.2,6.7c0.8,2.4,2.8,3.5,3.9,5.6c2.2,4.2-0.1,9.9,0.7,14.5
			c1.7,10.1,9.5,18.9,17.5,24.9c5,3.8,9.8,4.9,15.9,5.3l-0.1,1.2c-2.1-0.2-4.3-0.2-6.3-0.5c-4.1-0.6-7.7-2.4-11-4.9
			c-2.4-1.7-4.7-3.7-6.9-5.9c-2.3,3.3-5.5,5.9-9.4,7.3c-5.1,1.9-9.5,0.6-14.7,0.8c-0.2,0-0.5,0-0.7,0l-0.1-0.9
			c2.2-0.2,4.4,0,6.9,0.2c7.1,0.5,13.1-2.6,16.8-8.7c-3.8-4.1-7.1-8.8-8.9-14c-1.5-4.3-1.5-8.3-1.2-12.7c0.2-2.6,0.2-4.3-0.8-6.1
			c-7.4,0.9-14.8,0.5-22-1.5c-3.8-1-7.6-2.5-11.1-4.3c-3.6-1.9-6.7-4.3-10.8-4.9c-2.5-0.4-5.1-0.2-7.6-0.1c-1.2,0-3.1,0.4-4.2-0.1
			C304.7,513,304.3,512.6,304,512z"/>
		<path class="st6" d="M294.9,546.9c-4-1.9-8.6-0.8-13.2,0.4l-0.2-0.7c4.6-1.2,9.2-2.5,13.3-1.3c8.3,2.5,11.5,12.2,19.8,15
			c4.7,1.6,9.7,1.5,14.5,2.4c2.2,0.4,4.3,1,6.3,2c0.7,0.4,1.3,0.9,2,1.2c1.3,0.7,2.8,0.9,4.3,0.9c0.4-0.2,1-0.4,1.3-0.2
			c0,0,0,0,0.1,0c0.3-0.1,0.7-0.2,1-0.3c1.5-0.5,2.9-0.8,4.3-0.9l0.1,0.9c-1.5,0.1-2.8,0.6-4,1c4.3,3.3,1.9,10.8,5.1,14.9
			c1.3,1.6,3.4,1.8,5,3.2c1.2,1,1.8,2.3,2.1,3.9c0.9,4-0.1,8.1,1.1,12c1.4,4.9,4.4,9.1,8.2,12.4c2.3,2,5.5,3.9,5.8,7.2
			c2.1-0.1,4.3-0.2,6.4-0.3c2.6-0.1,3.2-1.4,4.8-3.1c1.4-1.5,3.4-2.3,5.4-2.8c3.9-0.8,8.2,1.2,11.8,0c1.8-0.6,2.9-1.9,4.5-2.7
			l0.3,0.7c-1.7,0.9-3,3.1-5.2,3.4c-1.3,0.2-2.5,0-3.8-0.2c-1.3-0.2-2.6-0.4-3.9-0.5c-2.2-0.2-5.5,0.4-7.2,1.9
			c-1.7,1.6-1.8,3.3-4.3,3.9c-2.8,0.7-5.9,0.5-8.9,0.6c-0.6,8.5-13.1,8.8-16,15.8c-0.2,0.5-2,1-2.1,0.2c-0.8-6.1-9.5-2.7-13.4-4.6
			c-0.8-0.4-1.4-1-2.1-1.6c-1.6-1.4-3.2-1.6-5.3-2c-1.2-0.2-2.1-0.3-3-1.2c-3.8-3.6-0.5-9.1-1.3-13.4c-0.5-3-2.9-3.8-5-5.6
			c-1.6-1.4-2.5-3.3-3.3-5.3c-2.1-5.6-3.5-11.5-5.5-17.2c-0.9-2.6-2.2-5.9-4.8-7.3c-3-1.6-5.6,0.5-7.6,2.5c-2.2,2.2-4.2,5-7.1,6.3
			c-1.1,0.5-2.3,0.7-3.4,0.7c-2.2-0.1-4.6-2.3-6.7-2.3l0-1.2c3.8,0,7.2,3.5,10.8,0.9c2.8-2.1,4.7-5.2,7.6-7.2
			c5.3-3.6,10.2-0.6,12.6,4.8c2.2,4.9,3.5,10.4,5.1,15.5c0.8,2.5,1.4,5.3,3,7.4c1.3,1.7,3.1,2.4,4.6,3.8c3.2,3,1.6,7.1,1.3,10.8
			c-0.2,2.9,0.6,6.4,4,6.6c1.3,0.1,2.3-0.3,3.5,0.3c2.3,1.1,3.2,3.4,6,3.9c2.1,0.4,4.4-0.1,6.5,0.2c1.9,0.3,3.8,1.1,4.9,2.6
			c1.3-1.7,3.2-3,5.2-4.1c3.8-2.1,10.6-5,9.3-10.5c-0.8-3.7-5.9-6.1-8.3-8.8c-2.5-2.9-4.5-6.2-5.6-9.9c-1.1-3.9-0.3-7.7-1-11.6
			c-0.4-2.2-1.3-3.7-3.3-4.8c-1.5-0.8-2.9-1.3-3.9-2.7c-2.9-4-0.8-11.8-5.1-14.7c-1.8,0.6-3.6,0.7-6-0.8c-5.5-3.5-10.9-3.9-17.2-4.8
			c-4.8-0.7-9.1-2-12.8-5.3C302.5,553.9,299.7,549.1,294.9,546.9z"/>
		<path class="st6" d="M278.6,842.6c0.1-3.3,1-7.7,3.5-10.1c0.9-0.9,2-1.4,3.3-1.7c0.9-0.2,2.3-0.2,3.6-0.4l0.2,1
			c-2,0.4-4.2,0.4-5.7,1.8c-3,2.8-3.9,11.4-1.1,14.4c1.2,1.3,3.2,1.6,4.2,3.2c0.6,1,0.5,2.1,0.8,3.1c0.5,1.5,1.4,2.4,2.6,3.2
			c3.9,2.8,7.8,5.2,11.2,8.7c3.9,4,12.5,13.4,3.5,16.5c-0.5,0.2-1.1,0.4-1.7,0.5l-0.3-0.9c1.7-0.5,3.3-1.3,4-2.7
			c1.1-2.4-2.5-6.6-3.7-8.1c-3-3.9-6.5-7.3-10.5-10.1c-1.9-1.4-4.5-2.4-6.1-4.2c-1.3-1.5-1-3.2-1.8-4.8c-1-1.9-3.7-2.4-4.8-4.2
			C278.8,846.2,278.5,844.4,278.6,842.6z"/>
		<path class="st6" d="M262,463.2c-1.4,2-3.4,3.6-5.7,4.3l-0.3-1.1c1.2-0.2,2.4-0.9,3.5-2.2c1.7-2.1,2.4-5,3-7.5
			c1.2-4.9,2.2-9.8,3.2-14.8c1.1-5.2,2.6-10.3,1.3-15.7c-1.1-4.6-3.4-9-5.7-13.1c-1.9-3.4-5.5-6.1-6.3-10c-0.7-3.2-0.3-8.1,1-11.1
			c0.7-1.8,2.6-3.3,4.6-3.9l0.2,0.7c-1.7,0.4-3,3.6-3.3,5.2c-0.4,2.2-0.7,4.6-0.5,6.9c0.3,4.2,3.1,6.3,5.3,9.6
			c5.1,7.7,8.6,16.6,6.8,25.7c-0.3,1.5-0.6,2.9-0.9,4.4c0.7-0.9,1.5-3.1,2.1-3.7c0.8-0.8,2-1.2,3.1-1.4c3-0.5,5.6,1.3,7.6,3.3
			c3.4,3.4,6.2,7.5,8.5,11.7c1.3,2.4,2.5,3.7,5.9,3.7c0.5,0,0.9,0,1.4-0.1l0.2,1.4c-2,0.2-4.6,0.9-6.4-0.1c-1.5-0.8-2.2-2.5-3-3.9
			c-2.6-4.6-5.9-10.2-10.3-13.2c-2.3-1.6-4.8-1.3-6.5,1.4c-0.3,0.5-0.4,1.1-0.8,1.6c-0.6,0.8-1.3,1.2-2.2,1.3
			c-0.6,2.9-1.3,5.8-1.9,8.7C264.8,455,264.3,459.7,262,463.2z"/>
		<path class="st6" d="M258.6,623c0.1-0.1,0.2-0.1,0.3-0.2l0.7-0.2c0.6-0.1,1.1-0.1,0.9,0.1c-3.5,3.5-3.2,9.8,0.6,13
			c1.3,1.1,2.8,1.5,4.4,1.8l-0.1,0.9c-3.7-0.6-7-1.2-8.7-5.3C255.2,629.6,255.9,625.7,258.6,623z"/>
		<path class="st6" d="M262.9,546.5c-2.8,0.2-9.1-0.7-13.2,0.6l-0.2-0.8c0.3-0.1,0.7-0.2,1-0.3c2.2-0.6,4.5-0.9,6.8-1
			c3.4-0.1,6.4,1.2,8.6-2.4c2.1-3.4,3.9-6.3,6.9-9c3.2-2.8,10.2-6.3,11-10.8c0.1-0.3,0.5-0.6,1-0.7c-2.3-2.3-6.5-0.6-6.4-5.3
			c0.1-2.9,1.8-5.1,1.2-8.1c-0.5-2.5-2.2-4.6-3.9-6.4c-1.9-2-4.9-4.9-7.5-5.8c-2.1-0.7-3.4-0.8-4.1-0.5l-0.3-0.9
			c5.4-2,11.4,3.5,14.7,7.2c2.2,2.6,3.9,5.6,3.3,9.1c-0.3,2.2-2.3,5.4-0.5,7.4c1.1,1.3,3.2,1,4.5,1.8c1.1,0.6,1.3,1.2,1.9,2.2
			c1,1.8,1.8,3,3.6,2.8l0.1,1c-0.1,0-0.3,0-0.4,0c-1.1,0.1-2.3,0-3.2-0.5c-1.5-0.7-1.6-1.8-2.1-2.9c-1.1,3.3-4.8,5.4-7.3,7.4
			c-3.6,2.8-7.3,5.7-9.5,9.7c-0.9,1.7-1.4,3.1-2.3,4.2c2.9,3,6.4,3.4,10.1,2.8l0.1,0.8c-4.3,0.8-8.4,0.8-11.8-2.4
			C264.4,546.3,263.7,546.4,262.9,546.5z"/>
		<path class="st6" d="M245,497.7c-1.3-1.5-3.1-2-4.7-1.7l-0.2-1.4c2-0.4,4.1,0,5.8,1.3c0.8-1.3,1.7-2.6,2.5-3.9
			c0.1-0.2,0.4-0.3,0.7-0.4c1.1-4.9,1.2-8.7-1.3-13.2c-2.3-4.1-2-8.2-1.5-12.7c0.1-0.6,1.5-0.7,1.9-0.6c2.6,0.6,5.3,1.9,7.8,1.3
			l0.3,1.1c-0.1,0-0.2,0.1-0.3,0.1c-2.8,0.7-5.2-0.4-7.7-1.2c-0.3,2.5-0.5,5.1,0,7.6c0.5,2.2,1.8,3.9,2.7,5.9
			c0.8,1.6,1.1,3.4,1.1,5.1c0.2,0,0.3,0,0.4,0.1c2.9,2,3.3,5.3,4.1,8.4c0.3,1.2,0.9,4,2.2,4.7c1.5,0.8,2.2-1.3,3.3-2.1
			c0.5-0.4,1.1-0.6,1.6-0.8l0.3,0.9c-1.5,0.6-1.5,2.5-3.5,3.4c-2.3,1.1-4-0.5-5-2.5c-1.6-3.1-1.4-7.1-3.6-9.8c-0.2,1.7-0.6,3.3-1,5
			c-0.1,0.2-0.5,0.4-0.9,0.5c-1,1.6-2.1,3.1-3.1,4.7C246.6,497.8,245.5,498.2,245,497.7z"/>
		<path class="st6" d="M251.2,568.1c-2.9-1.8-8.9-6.7-13.3-6.5l-0.1-1.4c2.7-0.2,5.6,0.9,8,2.4c3.1,1.8,15.5,11.2,22.4,12.1
			c0.5-0.2,1.2-0.3,1.4,0c1.5-0.1,2.5-0.8,3.1-2.3c0.6-1.9-0.2-3.5,2.6-3.7c2.1-0.1,4.2,1,6.4-0.1c3.4-1.8,2.8-5.4-0.1-6.8
			c-3-1.5-2.7-2.3-2.5-5.5c0.1-3-2.7-5.1-2.3-7.8l-0.1-0.8c0.1,0,0.2,0,0.4-0.1c0-0.1,0.1-0.2,0.1-0.4c0.4-0.8,2.1-0.8,2.1-0.1
			c0.8-0.2,1.5-0.4,2.3-0.5l0.2,0.7c-0.9,0.2-1.8,0.5-2.7,0.7c-0.8,2.4,1.9,4.1,2.3,6.4c0.4,2.4-0.8,4,1.6,6
			c1.1,0.9,2.1,0.6,2.9,2.1c0.4,0.8,0.6,1.8,0.5,2.7c-0.2,2.5-2.1,4.3-4.4,5c-1.1,0.4-2.3,0.5-3.6,0.5c-0.6,0-1.8-0.4-2.3-0.3
			c-1.3,0.4-0.7,0.8-1,1.8c-0.5,1.7-1.4,2.8-2.5,3.4c0,0.1,0.1,0.1,0.1,0.2c-0.3,2.3,0.4,4.6,2.1,6.2c1.1,1,2.2,1.4,3.4,1.7
			l-0.3,1.4c-0.2,0-0.3-0.1-0.5-0.1c-4.3-0.9-7.3-4.1-6.8-8.7c-0.1,0-0.2,0-0.3,0.1c0.4,4.2-2,7.5-5.7,9.8c-2.3,1.4-5.4,2.6-6.9,5
			c-1.1,1.7-1.9,8.3-0.1,9.3c0.7,0.4,1.5-0.1,2.2,0.4c0.8,0.5,1.3,1.3,1.6,2.1c0.8,2.3,0.6,6.3-0.2,8.5c-0.9,2.6-3.2,4.5-4.8,6.7
			c-0.8,1.1-1.6,1.9-2.7,2.5l-1.2-0.6c1.5-0.8,2.4-2.7,3.4-3.9c1-1.2,2.1-2.1,2.8-3.5c1.2-2.4,1.8-7.1,0.4-9.4
			c-1.4-2.3-3-0.5-4.5-1.6c-1.2-0.9-0.1-3.8,0-4.9c0.3-4.5,1.3-6.7,5.2-9.1c4.6-2.8,9.2-5.3,8.3-11.3c-1.7-0.2-3.5-0.8-5.1-1.5
			C258.7,573.1,255,570.5,251.2,568.1z"/>
		<path class="st6" d="M240.9,552.5c-2.4-0.8-4.7-1.4-7.2-0.6l-0.3-1.2c0.7-0.2,1.5-0.4,2.3-0.5c1.5-0.2,3.1-0.1,4.6,0.3
			c0.5,0.1,3.1,1.1,3.1,1.1c0.1,0,0.3-0.1,0.4-0.1c0.1-1.6,1-2.8,2.2-3.6c0.2-5.6-0.5-11.5-0.8-17.1c-0.1-3.1,0.4-6.1-2.9-7.5
			c-1.4-0.6-2.5-0.5-3.6-1.7c-2.9-3.1-1.4-8.2-2.9-11.9c-1.5-3.7-3.4-6.6-1.6-10.6c1.1-2.5,3.5-4.1,6-4.6l0.2,1.4
			c-2,0.3-3.8,1.8-4.5,4c-0.5,1.7-0.5,3.7,0.1,5.4c0.6,1.8,1.8,3.3,2.3,5c0.5,1.6,0.5,3.4,0.6,5.1c0.1,1.7,0.3,3.6,1.4,5
			c1.5,1.8,3.1,1.2,4.9,2.1c2.6,1.3,1.9,4.5,2,7c0.2,3.8,0.4,7.6,0.5,11.4c0.1,1.9,0.4,3.9,0.4,5.8c0.4-0.2,0.9-0.3,1.3-0.5l0.2,0.8
			c-0.6,0.2-1.1,0.4-1.6,0.7c0,0.5-0.1,0.9-0.1,1.4C247.3,553,244.2,553.6,240.9,552.5z"/>
		<path class="st6" d="M229.7,266.2c0.2-1.9,1.9-2.5,3.6-2.3c3.2,0.3,5.8,1.3,8.4-1.2c1.1-1.1,1.9-2.5,2.5-3.9
			c0.6-1.3,0.9-3.9,2.1-5c1.8-1.5,3.5,0.3,4.8,1.6c0.2,0,0.3,0.1,0.4,0.2c4.8,4.5,11,5.8,17.3,6.6c3,0.4,5.9,0.6,8.9,1.1
			c1.7,0.3,3.4,0.4,4.3,2.1c0.5,0.9,0.3,1.9,0.7,2.9c1.1,2.9,4.3,3.4,6.9,2.6c3.2-0.9,5.9-3,9.1-4c2.6-0.8,5.4-1.2,8.2-1.1
			c2.7,0.1,5.9,0.1,6.5-3.2c0.2-1.2,0.2-2.4,0.2-3.5c0-0.6,1-1,1.4-0.9c5.5,1.1,10.4-3.3,10.3-8.9c-0.1-2.9-0.3-5.4,2.4-7.1
			c3.9-2.5,14.1-4.3,13.3,3.3c0,0.1,0,0.2-0.1,0.2c0,0,0,0,0,0c1.3,3.4,3.7,6.4,7,8.1c3,1.5,6.1,0.4,7.7-2.4c0.5-0.9,1-1.8,1.8-2.6
			c1.5-1.5,3.4-2.3,5.5-2.6l0.1,0.8c-5.2,0.5-6.1,8.8-12.1,8.9c-0.9,0-1.8-0.1-2.7-0.4c-1.4,5.8,0.6,11.5,2.2,17.1
			c0.7,2.6,1.4,5.3,1.6,8.1c0.2,2.9-0.6,5.8-0.2,8.7c0.7,4.9,3.4,10,5.5,14.5c2.2,4.8,4.9,9.4,8.6,13.3c2.9,3,6.5,5.8,7.6,10.1
			c0.4,1.6,0.5,3.3,0.5,5c0,0,0,0,0,0c4.1,1.1,8.2,2.1,12.4,2.8c1.9,0.4,5.6,1.5,7.3,0.2c0.7-0.6,0.9-3.2,1.2-4
			c1.6-5.6,4.1-11.3,8.9-14.9c3.5-2.7,8.2-4.3,12.6-3.4c5.8,1.1,10.1,6.1,16.1,6.3c0.6,0,0.3,0.3-0.2,0.5c0.1,0,0.2,0,0.2,0
			c3.6-0.2,4.1-6.8,6.1-9c1.4-1.5,3.3-2.2,5.3-2.7c0.7-0.2,1.3-0.2,2-0.3l0.1,0.5c-1,0.1-1.9,0.3-2.7,0.7
			c-5.7,2.6-4.5,11.2-11.7,11.6c-0.8,0.1-0.5-0.3-0.1-0.5c-0.2,0-0.3,0.1-0.4,0.1c-5.7-0.2-9.7-4.4-14.9-6c-9.9-3-16.2,7.1-18.8,15
			c-1.2,3.7-1.3,7.9-6,7.9c-2.7,0-5.6-0.8-8.2-1.3c-3.1-0.6-6.2-1.3-9.3-2.1c-0.1,2.9-0.3,5.9,0.8,8.8c1.9,5,0.7,8-3.3,11.4
			c-0.3,0.2-0.5,0.5-0.8,0.7l-0.7-0.8c1.5-1.2,2.8-2.6,3.5-4.4c1.1-3.3-0.9-5.6-1.5-8.6c-1.1-5.3,1.1-10.7-1.8-15.6
			c-2.4-4.1-6.6-6.9-9.4-10.6c-3.2-4.3-5.5-9.2-7.6-14.2c-1.1-2.6-2.2-5.1-3-7.8c-0.8-2.7-0.5-5.2-0.4-8c0.7-10-6.6-19.2-3.5-29.2
			c0-0.1,0.1-0.1,0.1-0.2c-3.5-1.7-6.3-5.2-7.7-8.7c0-0.1,0-0.2,0.1-0.2c-0.1-0.1-0.1-0.3-0.1-0.5c0.5-5.1-6.2-4.3-9-2.7
			c-2.3,1.3-2.6,2.6-2.5,5.2c0.1,2.4-0.1,4.4-1.4,6.5c-2.2,3.6-6.2,5.6-10.3,5.4c0,2.1-0.3,4.4-1.7,6c-1.8,1.9-4.2,1.7-6.5,1.5
			c-5.7-0.3-9.8,1.7-14.8,3.9c-2.3,1.1-4.9,1.8-7.4,1.2c-1.3-0.3-2.6-0.9-3.5-1.9c-1-1.1-0.8-2.1-1.4-3.3c-1.8-3.7-8-3.1-11.6-3.6
			c-6.8-0.8-13.6-2.2-18.7-7c-0.1,0-0.2-0.1-0.3-0.2c-1.1-1-1.4-1.8-2.5-0.4c-0.3,0.4-0.5,1.4-0.7,2c-0.6,1.6-1.5,3.1-2.6,4.4
			c-1.6,1.7-3.7,3-6.1,3.3c-1.4,0.1-2.9-0.7-4.2-0.6c-2.8,0.4-0.6,3.3-0.2,4.8c0.9,3.8,0.2,7.8-0.5,11.6c0.1,0,0.2,0.1,0.3,0.2
			c2.7,2.9,7.3,1.7,10.7,3.2c2.9,1.3,4.4,4.2,5.8,7c1.7,3.4,3.3,6.9,4,10.6c0.7,4-0.3,7.7-0.9,11.7c-0.7,4.8,0.3,9.5,5.7,10.5
			c3,0.6,4.3,1.4,6.4,3.6c4.8,5.1,10.9,10.7,10.3,18.3c0,0.1,0,0.1,0,0.1c4.3,1.8,8.9,0.9,13.5,0.5c3.6-0.3,7.1-0.2,10.6,0.4
			l-0.2,1.1c-2.7-0.4-5.6-0.5-7.8-0.4c-5.8,0.1-11.8,1.9-17.3-0.3c-0.4,0.1-1,0.1-1.2-0.2c0.1,1.8,0,8.4,0,9.5
			c-0.1,2.9-0.7,5.4-2.1,7.9c-3.4,6-2.6,13.8-2.9,20.5c0,0.3-0.4,0.6-0.8,0.7c-0.5,1-0.9,2-1.4,2.9c-0.2,0.4-1.3,0.8-1.8,0.6
			c-1.6,9.5,9.3,16.9,18.4,13.9c5.1-1.7,5.3-6.9,8.2-10.6c2-2.5,4.6-4.5,7.4-6c2.3-1.3,4.9-1.8,7.4-2.6l0.3,0.9
			c-1.6,0.5-3.2,1-4.8,1.8c-4.9,2.3-8.8,5.6-10.9,10.6c-1.4,3.2-2.8,5.5-6.2,6.8c-3.4,1.3-7.3,1.4-10.7,0.6
			c-7.6-1.8-13.3-9-10.8-16.8c-0.3-0.1-0.6-0.2-1-0.1l-0.2-0.7c0.6-0.2,1.2-0.2,1.8-0.2c0.7-0.3,1.8-0.3,1.6,0.2
			c0,0.1-0.1,0.2-0.1,0.2c0,0,0,0,0,0c0.3-0.7,0.7-1.3,1-2c0.1-0.1,0.2-0.2,0.4-0.3c0.3-5,0.3-10.1,0.8-15.1c0.5-4.1,3.7-7,4.1-11.3
			c0.2-2.2-1.7-12.9,2.2-13.4v-1.1c0-0.2,0.1-0.3,0.3-0.5c-0.5-3.7-2.6-6.8-5-9.6c-2.6-3-5.8-7.7-9.8-8.4c-2.4-0.5-4.4-0.7-6-2.9
			c-1.4-1.9-1.9-4.3-1.9-6.6c0.1-4.5,1.8-8.6,1.2-13.2c-0.6-4.3-2.6-8.7-4.7-12.5c-2.3-4.3-5.2-5.3-9.7-5.9
			c-2.3-0.3-4.3-0.8-5.9-2.6c-0.1-0.1-0.2-0.2-0.2-0.4c-0.2-0.1-0.4-0.2-0.3-0.5c0.6-3.3,1.2-6.7,0.8-10.1
			C231,270.2,229.5,268.2,229.7,266.2z"/>
		<path class="st6" d="M229.5,735c-0.4-0.2-0.8-0.3-1.2-0.4l0.3-1.4c1.4,0.3,2.3,1,3.6,1.6c1.7,0.8,2.9,0.7,4.2-0.6
			c1-1,1.8-2.7,2.5-3.9c2.5-4.3,4.2-9.1,5-14.1c0.9-4.9,1.4-11.5-0.6-16.3c-1.6-3.7-5.9-5.8-4.3-10.3c0.8-2,2.4-3.7,2.6-5.9
			c0.3-3.6-3.3-4.9-6.4-4.7c-1.9,0.1-3.6,0.5-5.3,0.9l-0.2-0.7c0.5-0.1,1.1-0.2,1.6-0.4c2.1-0.6,4.3-1.2,6.5-1
			c4.5,0.5,7.1,3.8,5,8.1c-1.4,3-3.3,5.3-1,8.5c1.6,2.3,3.3,3.7,4,6.5c1.5,5.9,0.8,12.7-0.7,18.5c-1.4,5.4-4.1,12.5-8.3,16.4
			C234.3,738.4,232.2,736.3,229.5,735z"/>
		<path class="st6" d="M209.5,593.8c-0.2-0.2-2.3-3-3.2-2.4l-0.2-0.5c0.2-0.1,0.5-0.1,0.7-0.2c2-0.4,3.4,0.7,4.6,2.3
			c0.4,0.6,0.8,1.4,1.3,1.9c1,0.9,2.5,2,4.1,1.2c0.7-0.4,1.1-1.9,2-2.4c2.2-1.3,4.4,0.5,6.6-0.4c2.3-0.9,2.2-3.9,4.7-5
			c2-0.9,4.3-0.8,5.1-3.4c0.6-1.8,0.3-3.6-0.2-5.4c-1.3-4.1-3.4-7.3-3.6-11.7c-0.2-4.5,0.5-9.8-3.8-12.8c-0.3-0.2-0.3-0.5,0-0.8
			c1.7-1.7,3.7-2.9,5.9-3.6l0.3,1.2c-1.1,0.3-3.9,1.3-3.6,2.7c0.1,0.5,1.6,1.8,1.9,2.4c0.5,1,0.9,2,1.1,3.1c0.1,0.7,0.2,1.4,0.3,2
			c1.3-1.2,2.8-1.8,4.4-1.9l0.1,1.4c-1.4,0.1-2.7,0.7-3.6,2.2c-0.2,0.2-0.5,0.4-0.8,0.5c0,1.9-0.1,3.8,0.2,5.7
			c0.5,3.3,2.4,5.9,3.4,9c1.1,3.3,0.7,7.7-2.7,9.5c-0.8,0.4-1.6,0.4-2.4,0.7c-2,0.8-2.3,2.2-3.3,3.8c-0.5,0.9-1.1,1.5-2,1.9
			c0,0.1,0,0.1,0,0.2c-0.2,2.4,0.3,3.3,2.8,4c0.6,0.2,1.1,0.1,1.7,0.3c1.2,0.5,2.1,1.6,2.6,2.7c0.9,1.8,0.8,3.7,1.1,5.7
			c0.4,2.4,1.9,4.2,2.5,6.5c0.2,0.5,0.1,1.9,0.3,2.4c-0.4,1.2,0.1,2,1.5,2.4c0.8,1.4,1.8,1.6,3,0.7c1.7-0.8,3.2-2.1,5.1-2.3
			c2.3-0.3,4.1,0.8,4.8,2.8c0,0,0,0,0,0l1.2,0.6c2.4,1.1,5.3,1.7,7.5-0.1c1-0.8,1.7-2.1,2.4-3.1c1.1-1.4,2.2-2.8,3.9-3.6
			c2.5-1.1,5-0.9,7.3-2.7c2.6-2,5.9-4,7.7-6.8c2.1-3.2,0.2-7.1,0.3-10.6c0-1.7,0.3-3.5-0.2-5.2c-0.8-2.7-2.2-3.1-4.7-3.7l0.3-1.4
			c0.8,0.2,1.6,0.3,2.5,0.5c1.3,0.3,2.3,1,3,1.8c0.5-0.2,1.1-0.2,1.6-0.2l0,1.2c-0.3,0-0.6,0.1-1,0.2c0,0,0,0,0,0
			c0.4,0.9,0.7,2,0.7,3.2c0.1,2-0.2,4,0.1,6.1c0.2,1.6,0.8,3.3,0.6,5c-0.4,2.9-2.6,4.9-4.8,6.6c-2.4,2-5.1,4.8-8.1,5.9
			c-2.1,0.8-3.8,0.1-5.9,1.9c-1.1,1-1.8,2.4-2.7,3.5c-1.4,1.7-2.9,2.8-4.5,3.3l-0.7,0.2c-2.1,0.4-4.3,0-6.6-0.9
			c-0.5,0.5-1.8,0.7-1.9-0.1c-0.8-5.4-5.9-1.3-8.1-0.4c-1.2,0.5-2.6,0.8-3.9,0.5c-3.9-0.9-2.3-5.2-3.4-7.9c-1-2.4-1.9-4.1-2.2-6.8
			c-0.1-1.1-0.2-2.3-0.5-3.4c-0.7-2.1-1.7-2.6-3.9-3.1c-2.9-0.7-3.9-2.1-3.7-5.4c-1.5-0.1-3-0.8-4.3-0.3c-1.6,0.7-2,2.6-3.9,3.2
			c-1.3,0.4-2.7,0.1-3.8-0.7c-0.9-0.6-1.4-1.4-2-2.2C210.3,595,209.9,594.2,209.5,593.8z"/>
		<path class="st6" d="M207.6,750.9c-3.9-2.3-6.6,1.1-8.9,3.9c-0.4,0.5-1.4,0.5-1.8,0.2c-0.2-0.2-0.3-0.5,0-0.9
			c1.9-2.4,4.7-5.9,7.9-6.1c2.7-0.2,4.4,1.9,6.4,3.3c3.7,2.7,7.4-1.7,10.5-3.6c3.2-2,3.9-3.2,4.1-6.5c0.1-2.3,0.2-4.6,0.3-6.9
			c-1.9,0.1-3.7,1-5.4,2l-0.4-0.8c1.9-1.1,3.8-2.1,6-2.4c0.4-0.7,1.9-0.9,2.1,0c0.1,0,0.2,0,0.3,0l-0.3,1.4c0,3.8,0.5,8.8-1.3,11.9
			c-0.7,1.2-1.6,1.7-2.8,2.2c-2.4,1-3.9,2-5.9,3.6c-0.3,0.2-0.5,0.4-0.8,0.6c2.1,6,9.7,4.9,14.8,4c3.5-0.6,7-1,10.6-1.1l0,1.3
			c-3.3,0.1-6.8,0.7-9.6,1.2c-5.9,1-14.9,2.5-17.6-4.3c-1.4,0.5-2.8,0.5-4.3-0.3C209.9,752.9,208.9,751.7,207.6,750.9z"/>
		<path class="st6" d="M198.7,616.9c-0.8,1.9-2.6,2.7-4.5,3l-0.1-0.8c1.1-0.2,2.1-0.8,2.6-2.1c0.1-0.1,0.2-0.2,0.4-0.3
			c-0.2-7.8,0.7-15.5,3-23c0.2-0.6,0.9-0.8,1.5-0.8c0.8,0,1.6,0.1,2.4,0.1c0.3-1,1.1-1.8,2.2-2.1l0.2,0.5c-0.3,0.2-0.5,0.8-0.3,2
			c0.1,0.7-0.9,1-1.5,0.9c-0.8,0-1.7-0.1-2.5-0.1c-2,7.1-3,14.4-2.7,21.9C199.3,616.4,199.1,616.7,198.7,616.9z"/>
		<path class="st6" d="M457,476.6c0.4,2,0.3,4-0.1,6c0,0,0.1,0,0.1,0c-0.2,1.1-0.5,2.2-1,3.1c1.6,1.2,2.9,1.2,4,0l0.7-0.7
			c0.6-0.5,1.2-1,1.8-1.5c1.3-1.1,2.8-2.1,4.3-3c2.6-1.6,5.4-3,8.4-4c5.4-1.9,12.6-3.5,18.3-2c4,1,5,3.9,2.5,7.1
			c-2.4,3-4.4,6-5.8,9.6c-1,2.7-2,4.3,1.5,4.8c2.6,0.4,5-0.2,7.4-1.2c1.5-0.6,3-1.3,4.5-0.2c0.6,0.4,0.8,1.2,1.2,1.8
			c1.1,2.2,2.1,2.9,4.5,3.8c4,1.5,8,2.9,12.1,4.2c0.7-0.2,1.9-0.1,1.5,0.5c2.7,0.9,5.4,1.8,8,2.7c2.8,1,8.1,2.2,8.6-2.3
			c0.2-1.6-0.5-3.4-1.4-4.7c-2-2.9-5.8-4.1-8.9-5.6c-4.8-2.3-9.6-6.4-12.4-11c-1.3-2.1-2.4-4.6-1.9-7.2c0.5-2.5,2.6-3.9,3.4-6.2
			c1-2.8-2.2-6.7-2.8-9.7c-0.4-1.9-0.4-3.8-0.1-5.7c-3-0.1-5.8,1.1-8.8,1.3c-2.5,0.2-4.6-0.2-6.9-1.3c-1.3-0.6-2.4-1.4-3.8-2
			c-1.9-0.8-3.7-0.6-5.7-0.8c-1.4-0.1-2.6-0.6-3.7-1.5c-1.3-1.2-2.1-2.9-3-4.5c-0.5-1-1.1-2.1-2-2.8c-1.5-1.2-3.2-0.5-4.9-0.7
			c-1.9-0.2-3.2-0.5-4.2-2.2c-1.2-1.9-0.6-5.2-2-7c-1.8,3.8-3,7.8-3.9,11.9c-0.9,4.2-1.9,8.3-4.3,11.9c-1.4,2.1-3.1,4-4.3,6.2
			c-1.1,1.9-3.2,5.5-2.9,7.6C455.1,473.1,456.6,474.7,457,476.6z M414.4,499.4c6.2,2.8,12.5,5.1,19,7c7.2,2.1,15.2,4.4,22.7,3.9
			c6.2-0.4,11.9-3.7,18.2-3.5c3.9,0.1,7.6,2,11-0.7c0.5-0.4,0.9-0.8,1.3-1.2c0.5-2.7,1.8-5.3,2-8c-0.6-0.2-1.1-0.3-1.7-0.6
			c-0.2-0.1-0.5-0.4-0.5-0.7c0.6-2.9,1.5-5.6,2.9-8.3c1.3-2.5,3.6-4.5,4.9-7c4.1-7.9-15.2-3.9-18.4-2.8c-3.3,1.1-6.5,2.7-9.4,4.7
			c-2.4,1.6-4.3,4-6.8,5.5c-1.7,1-4,1.2-5.4,0.2c-1,1.2-2.3,2.2-3.8,2.9c-3.4,1.7-6.2,1.1-9.8,0.7c-5-0.5-8.8,2.4-13.2,4.2
			c-2.1,0.8-4.3,1.5-6.6,2.1C419,498.4,416.5,498.5,414.4,499.4z M402.2,540.4c0.9,3.6,3.3,5,6.6,6.3c1.4,0.5,3.8,0.9,4.6,2.4
			c1,1.8,0.2,5.4,0.2,7.4c-0.1,3.7-0.1,7.5-0.2,11.2c0,0,0,0.1,0,0.1c1.1-0.2,2.2-0.3,3.2-0.4c1.3-0.1,2.6,0.1,3.9,0.1
			c3.4,0.1,5.1-0.3,7.2-3.4c1.7-2.4,5-3.8,6.7-1.1c3.9-2.9,4.1-8.8,8.2-11.7c2.3-1.6,5.2-2,7.5-0.4c6.5-4,14-6,21.7-5.5
			c5,0.3,10.4,3.1,15.3,2.2c3.2-0.6,5.8-2.4,9-2.3c1.4-9.2,0-18.7-4.3-27.1c-1.7-3.4-5-6.7-5.2-10.6c0,0,0-0.1,0-0.1
			c-0.8,0.5-1.6,1-2.5,1.3c-2.7,1-5.2,0.3-7.9-0.1c-5.1-0.7-9.6,1.2-14.5,2.4c-8.4,2-16.9,0.1-25.1-2c-8.2-2.1-16.1-5-23.8-8.4
			c-0.2,0.2-0.4,0.4-0.6,0.7c-1.3,1.9-1.7,4.3-2,6.6c0.4,0.4,0.8,0.8,1.3,1.1c0.7,0.4-0.7,1.1-1.4,1.1c-0.9,1.5-2,2.7-3.5,3.6
			c-2.5,1.5-4.3,1.1-5,4.8c-0.7,3.5,0,7.7,0.1,11.2C401.6,533.2,401.3,537.1,402.2,540.4z M393.5,433.6c0.8,2.3,1.7,4.7,2.5,7
			c2.8,8,3.1,15.1,2.2,23.4c-0.5,4.7-1.1,9.5-0.1,14.1c0.9,4.3,3.5,7.8,5.7,11.5c1.8,3,2.9,6,3.4,9.5c0.3,2.1,0.5,4.4,1.3,6.4
			c0.5-2,1.4-4,3-5.4c-0.6-0.6,0.7-1.6,1.5-1.3c0.1,0.1,0.2,0.1,0.3,0.1c0.9-0.4,1.9-0.6,2.9-0.8c3.5-0.6,6.9-1.3,10.3-2.6
			c4-1.6,7.8-4.4,12.2-4.9c2.1-0.2,3.9,0.5,6.1,0.6c3.9,0.3,7-1.6,8.7-4.5c-0.1-0.4-0.2-0.9-0.2-1.4c0-0.5,0.6-0.8,1.2-0.9
			c0.1-0.5,0.3-0.9,0.3-1.4c-0.1-0.1-0.1-0.1-0.1-0.2c0.6-2.8,0.5-5.5-0.6-8.1c-0.8-1.9-1.6-3-1.1-5.1c1.1-3.8,3.4-7.1,5.7-10.3
			c5.8-7.9,5.5-18.3,10.1-26.9c0,0-0.1,0-0.1,0c-0.6-0.2-0.6-0.7-0.2-1c-0.1-0.1-0.1-0.2-0.2-0.4c-2.9,0.3-5.5-0.6-8.1-2.2
			c-4.6-2.9-9.8-9-15.8-4.9c-2.2,1.5-3.1,2.9-6.1,2.7c-3-0.2-5.2-0.6-8,0.9c-1.6,0.8-3.1,1.9-4.6,2.9c-5.9,3.6-10.4,3.2-16.1-0.7
			c-1.8-1.3-3.5-2.5-5.6-3.1c-2.3-0.6-4.4,0.8-5.7,2.5c-0.5,0.6-0.7,1.5-1.2,2.1C396.2,432.6,394.9,433.4,393.5,433.6z M190.8,642.3
			c2.6-1.3,5.7-2.2,8.4-1.3c1.7,0.6,2.1,2.3,3.4,3.1c1.4,0.8,4.1-1.4,5.6-1.7c4.3-0.9,8.5,1.2,12,3.5c1.2,0.8,2.5,1.7,3.6,2.7
			c0.8,0.7,1.5,1.9,2.3,2.5c1.7,1.3,4.3,0.9,6.4,1.5c4.9,1.3,6,4.6,8.1,8.6c0.6,1.2,1.4,2.7,2.8,3.2c2,0.7,3.5-0.9,4.9-2
			c1.6-1.2,3-2.4,5-3c4.3-1.3,8.3,0.9,12.2,2.5c4.9,1.9,9.1,1.5,14-0.7c3.6-1.7,9.5-4.3,7.2-9.2c-0.1-0.3,0.5-0.6,0.7-0.7
			c1.1-0.5,2.2-1.1,3.3-1.6c0.1-0.1,0.3-0.1,0.4-0.1c-0.1-0.1-0.2-0.3-0.2-0.5c0-0.1,0.1-0.2,0.1-0.3c-2.9-1.2-6-1.2-9-2
			c-5.5-1.6-8.6-6.8-14.4-7.9c-0.7-0.1-1.4-0.2-2.2-0.4l0.1-0.9c1.2,0.2,2.5,0.3,3.8,0.5c2.4,0.4,4.3,1.2,6.2,2.7
			c2,1.5,3.8,3.3,6.1,4.4c2.8,1.4,6,1.4,9,2.1c0.8,0.2,1.6,0.5,2.4,0.8c0.3,0,0.7,0.1,0.8,0.4c1,0.6,2,1.3,2.9,2.1
			c1.2,1,2.2,2.3,3.4,3.2c2,1.6,2.7,2,5.4,1.7c2.6-0.3,2.6-0.6,4.4-2.1c0.6-0.4,1.1-0.9,1.7-1.2c1-0.6,2.2-1,3.4-1
			c3.4,0,4.8,3.2,6.4,5.6c3.2,4.7,8,5.5,13.1,7.2c4.1,1.4,8.3,3.8,9.1,8.2c1.8-3.9,5.4-6.8,10.3-7.3c2.2-0.2,4,0.5,6.1,0.7
			c1.5,0.1,2.7-0.8,4.2-0.7c3.8,0.3,5.1,6.6,9.2,2.6c2.3-2.3,3-5.1,6.9-4.8c2.6,0.2,5,1.6,7.6,1.9c3.6,0.4,10.4-0.7,9.5-5.8
			c-0.1-0.5,0.4-0.9,0.9-1c1.3-0.4,2.1-0.2,3.2,0.3c1.9,0.9,1.8,1.9,4.9,0.6c1.2-0.5,2.3-1.8,3.4-2.6c2.2-1.7,6.2-3.8,7.8-6
			c2.3-3.2,1.2-6.1-0.2-9.3c-1.1-2.6-2.6-5.1-4.4-7.3c-1.3-1.6-3.1-3.1-4-5.1c-0.8-1.9-0.6-3.7-0.1-5.7c0.4-1.9,2.4-8.4-2-8.2
			c-0.4,0-1.1-0.2-1-0.7c0.1-0.5,0.1-1.1,0.2-1.6c-0.2,0.1-0.3,0.1-0.5,0.1c-0.4,0.1-0.7,0.2-1,0.3l-0.3-0.7
			c0.5-0.3,1.1-0.5,1.7-0.6c0.1,0,0.2,0,0.3,0c0.4-1.9,1.2-3.7,2.2-5.5c-0.3-0.2-0.3-0.4,0-0.8c7-6.8,1.9-16.1-1.5-23.2
			c-1.5-3.1-2.4-6.6-1.1-9.4c-0.3,0-0.6,0-0.8-0.1c-2.3-2.2-5.1-2.7-8.1-3l0.1-1.2c3.5,0.2,6.8,0.7,9.5,3c0.6-0.7,1.4-1.4,2.4-2
			c0.6-0.4,1.3-0.6,2-0.9c-0.1-0.1-0.2-0.3-0.2-0.4c0.1-3.7,0.1-7.5,0.2-11.2c0-1.6,0.6-4.1,0.1-5.6c-0.6-2.1-2.2-2.2-3.9-2.8
			c-4.8-1.9-7.3-4.2-7.7-9.6c-0.5-6.5-0.9-13.3-0.5-19.9c0.1-1.7,0.3-3.2,1.7-4.4c0.8-0.6,1.8-0.7,2.8-1.1c2.2-0.9,3.6-2.2,4.6-4.1
			c-0.3,0-0.5,0-0.5-0.1c0-0.2,0-0.3,0.1-0.5c-1.5-1.7-2.1-4-2.5-6.5c-0.6-3.9-1.1-7.3-3.1-10.8c-2-3.6-4.7-6.8-5.9-10.8
			c-0.8-2.6-1-5.4-1-8.1c-0.7,0.6-1.4,1-2.3,1.4c-0.6,0.3-1.2,0.6-1.8,0.9l-0.4-0.9c1.6-0.8,3.2-1.7,4.1-3.3
			c0.1-0.2,0.3-0.3,0.5-0.4c0-0.7,0.1-1.4,0.2-2.1c0.5-5,1.4-10,1-15c-0.3-4.5-1.7-8.8-3.2-13c-2.6-7.2-5.6-14.3-5.5-21.9
			c-0.5,0.3-1,0.5-1.5,0.9c-3.1,2.1-1.2,4.1-2.7,6.6c-1.3,2.2-4.3,2.6-6.6,2.3c-2.9-0.3-5.5-0.9-8.4-0.5c-0.9,0.1-1.8,0.3-2.8,0.3
			c-1.7-0.1-3-0.6-4.3-1.7c-2.2-1.7-3.7-4-6.5-4.7c-2.5-0.6-5.1-0.1-7.7,0.3l-0.1-0.7c1.2-0.2,2.3-0.4,3-0.5c2-0.3,4-0.5,6-0.1
			c2.5,0.5,4.1,1.9,5.9,3.6c2.2,2.1,3,2.8,6.9,2.6c1.4-0.1,2.7-0.5,4.1-0.5c3.3,0,8.6,2.5,9.1-2.8c0.2-2,0.3-3.1,2.1-4.2
			c1.4-0.9,2.6-1.5,3.7-2.3c0-0.3,0-0.5,0.1-0.8c0-0.5,1-0.8,1.6-0.7c0.5-0.5,0.9-1.1,1.3-1.8c1.3-2.2,3.2-6,2.8-8.6
			c-0.4-2.8-5.3-4.4-7.4-5.6c-3-1.7-6.1-3.3-9.1-5l-0.6-0.8c0.5-0.3,1.3-0.6,1.7-0.4l10.6,5.8c2,1.1,5.8,2.3,6.8,4.6
			c0.8,2-0.6,5-1.3,6.8c-0.9,2.3-2.2,4.6-4,6.3c-0.1,0.1-0.3,0.2-0.4,0.3c-0.3,5.4,1.1,10.4,2.8,15.4c2.4,0.7,3.4-3.8,4.7-5.1
			c0.7-0.7,1.6-1.2,2.6-1.6c2.3-0.8,4.9-0.3,7.1,0.7c4,1.8,7.2,6.3,12.1,5.7c3.7-0.5,6.8-3.5,9.9-5.2c2.7-1.4,4.9-1.7,7.8-1.6
			c2,0.1,1.9,1.1,4.8-0.7c0.6-0.4,1.1-1.2,1.7-1.6c1-0.8,2.1-1.3,3.4-1.5c8.3-1.6,13.4,9.2,21.1,8.6c0.2-1.6,2.2-2.7,3.6-3.7
			c2.6-1.9,6.2-8.9,1.1-10.4c-0.1,0-0.2-0.1-0.2-0.1c-0.1-2.6,0.4-4.4,3-5.2c2.1-0.6,2-0.2,2.6-2.8c0.7-3.2,0.8-6.3,0.4-9.5
			c0,0,0,0,0-0.1c-0.2,0-0.3-0.1-0.4-0.2c-2.9-4.1-9-0.8-12.7-3.8c-2.3-1.9-2.9-5-3-7.8c-0.2-4.7,1-9.6,2-14.2
			c0.9-4.1,1.8-8.4,5.2-11.1c3.4-2.8,8-5.3,12-7.2c2.8-1.3,5.4-1.3,8.2,0c1.9,0.9,3.5,2.3,5.4,3.3c4.1,2.1,7.6,1.4,11.9,0.1
			c2.2-0.7,4.6-1,5.9,1.1c0.4-0.1,0.7-0.2,0.9-0.1c2.3,0.9,8.6,4.6,10.8,2.9c0.7-0.6,1.1-2.8,1.4-3.7c0.6-1.7,1.3-3.3,1.8-5
			c2.1-5.8,3.2-11.6,4.5-17.6c0.7-3.3,2.1-6.5,5.5-7.4c1.3-0.4,2.7-0.2,4,0.1c1.4,0.3,2.7,1.1,4.1,1.4c3.5,0.8,5.3-0.2,7.9-1.8
			c2.9-1.7,5.4-2.9,8.2-3.4l0.2,0.8c-3.5,0.7-5.9,2.7-9,4.3c-2.5,1.3-5.2,2.1-8,1.4c-1.3-0.3-2.7-1.3-4.1-1.4
			c-1.4-0.2-4.6,0.8-5.4,1.8c-0.3,0.5-0.5,1.1-0.7,1.6c-0.7,1.9-0.9,4-1.3,6c-1,5.6-2.8,11.1-4.8,16.5c-1,2.5-1.7,8-5,8.6
			c-1.5,0.3-3.2-0.7-4.5-1.2c-2.2-0.8-4.4-1.7-6.6-2.5c-0.5,0.4-1.6,0.6-1.9,0c-0.9-2.2-9.4,0.6-11.6,0.4c-2.9-0.2-5.4-1.2-7.8-2.7
			c-1.5-0.9-3.4-2.6-5.2-2.8c-3.2-0.4-6,1.7-8.5,3.2c-3.8,2.2-8,4-9.7,8.4c-1.5,3.9-2.3,8.3-3,12.5c-0.6,3.5-1.3,7.3-0.3,10.8
			c1.4,5.1,5.2,4.9,9.7,5.2c2.2,0.2,4.1,0.8,5.4,2.6c0.1,0.2,0.1,0.3,0.1,0.5c0.3,0,0.5,0,0.5,0.2c0.3,2.9,1,10.4-1.6,12.7
			c-1.4,1.3-5.4,0.7-4.5,3.8c0.3,1.3,1.8,1.7,2.3,2.9c0.6,1.3,0.4,2.8,0.1,4.2c-0.5,1.6-1.4,3.1-2.6,4.2c-1.4,1.3-4.2,2.3-4.2,4.2
			c0.5,0.1,0.6,0.6,0.2,0.9c0.1,0.1,0.1,0.3,0.2,0.4c0,0.1,0,0.2-0.2,0.3c0,0,0,0,0.1,0c0.5,0,0.9,0,0.8,0.2c0,0.1-0.1,0.1-0.1,0.2
			c0.9,0.7,1.4,1.6,1.8,2.8c0.4,1.2,0.3,2.5,0.7,3.7c1,2.7,3.6,2.4,5.9,2.9c4.1,0.8,5,3.3,7.1,6.7c1.8,2.9,4,2.7,7.1,3
			c2.6,0.3,4.7,1.7,7,2.9c4.9,2.4,9.8-0.1,14.8-0.1c0.1-0.3,0.1-0.5,0.2-0.8c0.1-0.5,0.9-0.9,1.5-0.8c0.9-3.4,1.9-7.2,3.8-9.7
			c0.5-0.7,1.2-1.2,2-1.5c2.9-1,5.4-1.3,6.4-4.8c1-3.8,1.3-7.6,2.9-11.3c1.5-3.5,3.7-6.7,6.3-9.5c2.5-2.5,4.8-3.8,7.7-5.2l0.4,1
			c-2,0.8-3.6,1.9-5.2,3.4c-2.6,2.4-4.7,5.2-6.3,8.3c-1.8,3.4-2.6,6.9-3.2,10.7c-0.4,2.5-0.9,5.1-2.9,6.8c-1.5,1.4-3.5,1.4-5.2,2.3
			c-3,1.6-4.2,8.2-5.2,11.5c0.8,0.4-0.5,1.5-1.4,1.4c-0.3,2.3-0.1,4.7,0.7,7c0.8,2.2,3,4.4,2.7,6.9c-0.2,1.7-1.6,3.1-2.5,4.4
			c-2.8,3.9-1,7.7,1.7,11.1c4.1,5.1,9,7.7,14.7,10.6c1.6,0.8,3.1,1.8,4.3,3.1c-0.8-8.6-1.7-17.3-2.1-25.9c-0.2-3.6,0.3-6.7,3-9.2
			c1.7-1.7,4-2.8,5.9-4.3l0.6,0.9c-0.5,0.4-1.1,0.8-1.7,1.2c-4.4,3-6,6.1-5.7,11.5c0.7,9.7,1.6,19.3,2.4,29c0,0,0,0,0,0
			c5.3,5.7,11.7,6.1,19,5.4c5.6-0.5,11,0.1,16.2,2.4c2.5,1.1,4.6,2.7,7,4c2.6,1.4,5.3,1.7,8.2,2.1c5,0.7,9.8,2.1,14.3,4.5
			c4.2,2.2,7.6,5.3,11.1,8.4c0.9,0.8,1.9,1.7,2.9,2.3c2,1.3,2.7,1.7,5.1,1c2.2-0.7,2.1-0.7,2.8-2.5c0.4-0.9,0.6-1.9,1-2.9
			c1.9-4.1,6.9-5.4,8.8-9.5c1.9-4.1,1.9-7.9,5.4-11.2c2.2-2.1,5.1-3.5,8.1-4.2c1.8-0.4,4,0,5.5-0.8c2.3-1.2,2.7-4.8,3-7.3
			c0-0.1,0.1-0.2,0.2-0.3c-0.3-0.1-0.4-0.3,0.2-0.7c1.6-1,3.4-1.2,5.2-1.3l0.1,0.8c-1.3,0.1-2.5,0.3-3.7,0.9
			c0.1,0.1,0.2,0.1,0.1,0.2c-0.4,3.8-1.4,8.9-5.9,9.2c-4.3,0.3-7.6,0.2-11,3.4c-2.5,2.3-3.5,5-4.4,8.2c-0.7,2.5-1.5,4.3-3.4,6
			c-1.7,1.6-4,2.7-5.4,4.6c-2,2.8-1.7,7.2-5.3,8.6c-3.3,1.3-6.7-0.4-9.3-2.4c-4.7-3.6-8.5-7.8-14-10.5c-5.5-2.7-11-3.3-16.9-4.4
			c-5.5-1.1-9.7-5.4-15.1-6.9c-6.5-1.9-12.5-0.2-19.1-0.5c-4.1-0.2-7.8-1.7-10.8-4.2c0,0.4,0,0.7-0.1,1.1c-0.2,1.3-0.8,2.3-1.5,3
			c3.3,3.5,6.8,7,10.9,9.5c4.3,2.6,9,2.9,13.7,4.4c4.1,1.3,6.2,3.6,7,7.9c0.4,2.1,0.5,5,2.5,6.3c0.5,0.3,1.1,0.5,1.8,0.6l-0.1,1.2
			c-0.4,0-0.9-0.1-1.3-0.1c-3.9-0.4-4.5-4.2-5.1-7.4c-1.1-5.8-4.8-7.3-10.2-8.4c-8.9-1.8-14.8-6.6-20.9-12.9
			c-1.3,0.6-2.9,0.8-4.5,0.5c-2.6-0.3-5.1-1.5-7.6-2.3c-1.5-0.5-3-1-4.6-1.6c-0.9,2.2,1.1,4.8,1.6,6.9c0.5,1.9,0.2,3.6-0.5,5.4
			c-1.6,4.4-6.2,9.9-2.6,14.6c1.3,1.7,3.5,1.8,4.9,3.4c0.9,1,1.3,2.4,1.5,3.7c0.4,5-3.3,9.2-1.8,14.2c0.2,0.5-0.5,0.9-1.1,1
			c-0.5,0.1-0.9,0-1-0.4c-1.7-5.4,3-10.1,1.6-15.3c-0.8-2.9-3.4-3-5.3-4.8c-1.3-1.2-2-3-2.1-4.8c-0.4-5.1,3.9-8.8,4.5-13.6
			c0.5-3.6-3.2-7.6-1.4-10.9c-1.4-0.5-2.8-0.9-4.1-1.4c-4.2-1.5-10.6-2.2-12.8-6.5c-1.2-2.2-2.2-1.9-4.3-1.1
			c-1.2,0.5-2.5,0.8-3.8,0.9c-1.2,0.1-2.4,0.1-3.5,0c0.3,2.8-0.5,5.6-2.2,7.7c-0.3,1.6-0.2,3.2,0.5,4.8c1.6,3.7,4.3,6.9,5.9,10.7
			c3.3,7.9,4.2,16.5,2.8,24.9c2.1,0.7,3.4,2.1,3.7,4.5c0.2,1.5-0.2,3,0.7,4.4c0.8,1.1,2.3,1.7,3.6,2c2.2,0.5,4.5,0.3,6.7,0.2
			c3.5-0.2,7.1-0.4,10.6-0.8c6.6-0.8,13-2.4,18.8-5.9c0.9-0.6,1.9,0.3,1.3,1c0.4,0,0.6,0.2,0.6,0.5c-1.9,9.2,4.1,14.2,10.5,19.3
			c4.5,3.6,8.9,9,6.9,15c11.4,0.8,4.4,20.6,15.3,21.3c7.7,0.4,10-10.1,12.7-15.3c1.9-3.7,4.5-6.6,8.5-8.1c0.8-1.7,2.4-2.8,4.2-3.2
			l0.1,0.4c-0.9,0.2-1.7,0.9-2.3,2.4c-0.1,0.2-0.4,0.3-0.8,0.4c0.2,0.3,0,0.8-0.7,1c-10.9,3.7-7.9,21.6-20.7,23.4
			c-14.1,2-6.1-21.6-17.6-21.2c-0.2,0-1.1-0.1-0.9-0.5c3.2-7.9-5-13.5-10.2-17.8c-5.3-4.4-8.4-9.9-7.1-16.8
			c-7.4,4.1-15.8,5.5-24.2,6.1c-4.6,0.3-14.9,2.3-17.5-3.3c-0.8-1.7,0-3.6-0.7-5.3c-0.5-1.3-1.3-1.9-2.3-2.3
			c-0.5,0.2-1.2,0.1-1.3-0.2c-2-0.1-4.3,0.7-5.8,1.3c-3.3,1.2-6.1,1.6-9.5,0.7c-10.5-2.9-20.7-2.4-30,3.6c-0.4,0.2-1.1,0.5-1.5,0.1
			c-1.2-1.1-5.3-0.1-6.4,1c-0.7,0.7-1.2,1.7-1.6,2.6c-0.7,1.3-1.2,2.7-2,4c-1.2,2.1-2.6,3.6-4.7,4.8c-0.5,0.3-1.3,0.2-1.5-0.4
			c-1.4-3.5-4,1.6-4.5,2.2c-0.5,0.6-1.2,1-1.9,1.4c-1.6,0.8-3.5,1-5.3,1c-5.4,0.1-15.2-0.7-13.4,7.9c1.2,5.9,5.7,10.5,6.6,16.7
			c0.6,4.1-0.3,8.3-3.1,11.4c0.1,0.1,0.1,0.3-0.1,0.5c-1.4,2.3-2.3,4.7-2.7,7.3c4.4,0.6,3.7,6.3,2.9,9.7c-1.2,5.1,1.9,7.1,4.6,10.7
			c1.9,2.6,3.5,5.4,4.6,8.4c0.8,2.2,2,5.1,0.7,7.4c-1.6,2.9-6,5-8.6,7c-2.1,1.6-4.6,4.5-7.4,4.9c-1.8,0.2-3.6-1.6-5.2-1.9
			c0,3.4-3.1,5.8-6.3,6.6c-2.6,0.7-5.5,0.6-8.1,0c-1.2-0.3-2.5-1-3.6-1.1c-2.5-0.3-4.4,0.6-5.7,2.5c-1.5,2.1-3.2,4.4-6.2,3.6
			c-1.6-0.4-2.6-1.7-3.8-2.7c-0.9-0.8-1.7-1.4-3-1.2c-0.4,0.1-0.8,0.6-1.3,0.6c-2.5,0.3-4.7-1.1-7.3-1c-3.9,0.2-7.4,2.8-9,6.3
			c-2.8,6.1,0.8,11.9,2.6,17.7c2.7,9,1.4,19.1-3.2,27.3c-2,3.4-4.7,7.3-8.2,9.4c-2.1,1.2-4.7,0.8-5.9,3.2c-0.9,1.8-1,3.8-2,5.6
			c-0.2,0.4-0.8,0.6-1.3,0.6c-2.5,2.1-5.3,3.6-8.8,2.9c-2.5-0.5-5.6-1.8-8.1-1.4l-0.3-1.1c1.6-0.4,3.4-0.4,5-0.1
			c1.4,0.3,2.7,1,4.1,1.2c3.6,0.6,5.5-1.1,7.7-3.2c1.4-2.9,1.3-6.5,4.8-7.9c1.7-0.6,3.2-0.8,4.8-2c1.2-0.9,2.2-2.1,3.2-3.3
			c2-2.5,3.7-5.2,4.9-8.2c2-4.9,2.9-10.4,2.5-15.7c-0.4-5.6-3-10.3-4.3-15.6c-0.8-3-0.6-6.1,0.4-8.8c-0.6,0.2-1.5,0.3-1.5,0.1
			c-0.6-6.2-7-8.2-12.1-9.7c-4.6-1.4-8.1-3.1-10.7-7.2c-1.9-2.9-3.3-5.5-7.1-3.5c-1.7,0.9-2.7,2.6-4.6,3.3c-3.5,1.3-6.8,0-9.5-2.4
			c-1.7-1.5-3.1-3.2-4.9-4.4c0,0,0,0,0,0h-0.8c0.1,0.2-0.1,0.4-0.6,0.6c-0.9,0.4-1.7,0.8-2.6,1.2c2.7,6.4-7.8,10.3-12.2,11.8
			c-2.9,1-5.9,1.4-8.9,0.7c-3.5-0.8-6.6-2.8-10-3.6c-6-1.4-7.4,3.5-12.1,4.9c-1.5,0.5-3.2,0.4-4.6-0.5c-2.2-1.5-2.8-4.5-4-6.7
			c-2.4-4.5-7.1-5.1-11.8-5.3c-0.2,0-0.5,0-0.6-0.3c-1.6-3.4-5.8-5.9-9-7.5c-2.7-1.4-5-2-7.9-0.9c-1.2,0.4-2.3,1.1-3.5,1.5
			c-1.6,0.5-2.5,0.1-3.6-1.1c-1.5-1.6-2.3-2.7-4.8-2.5c-1.5,0.1-2.9,0.6-4.2,1.3L190.8,642.3z"/>
		<path class="st6" d="M191.2,736.9c-0.1,3.1-0.2,6.3,0.5,9.4c0.8,3.5,2.8,6.3,5.1,8.7c4.3,4.6,9.9,8.3,12.3,14.3
			c0.6,1.5,0.6,3.3,1.5,4.6c0.8,1.2,1.8,1.5,2.9,1.6l0,1c-0.7,0-1.4-0.1-2.1-0.2c-2.5-0.4-3-1.5-3.6-3.8c-0.6-2.2-1.4-4.2-2.7-6
			c-3-4.2-7.2-7.2-10.6-11c-3.7-4.1-5.3-8.6-5.4-14.2c-0.1-5.6-0.1-10.9,4.6-14.5c2.6-2,6-3.8,5.9-7.6c-0.1-2.2-0.8-3.3,1.2-5
			c2.2-1.9,4.8-2.5,5.6-5.6c0.8-2.9-0.1-5.9-1.5-8.5c-1.9-3.5-4.4-6.8-6.9-10.1c-0.1,0-0.2-0.1-0.2-0.2c-1.7-2.2-3.4-4.3-5-6.5
			l0.9-0.7c0.5-0.2,1-0.2,1.2,0c1.3,1.7,2.5,3.4,3.7,5.1c0.6-1.3,1.5-2.4,2.7-3.1c0.7-0.4,1.5-0.6,2.3-0.6c1.9-0.1,2.9-0.3,4.4-1.6
			c3.5-3.1,6.8-3.7,11.5-3.2c3.7,0.3,6.9,0.6,10.4-0.1l0.2,0.7c-2.5,0.5-4.9,1-7.6,0.8c-3.2-0.3-6-0.9-9.2,0
			c-2.7,0.8-3.2,2.4-5.3,3.8c-0.8,0.6-1.7,0.8-2.7,0.9c-1.2,0.2-2.7-0.2-3.8,0.8c-0.8,0.7-1.3,2.3-1.6,3.3c0,0,0,0,0,0
			c0.8,1.1,1.6,2.2,2.4,3.3c2.1,2.9,4.7,5.9,5.9,9.4c0.8,2.5,0.9,5.4-0.4,7.7c-1.3,2.3-3.6,2.7-5.3,4.4c-2,2-0.1,5.4-2,8
			c-1.1,1.5-2.7,2.5-4.2,3.6c-0.9,0.6-1.6,1.3-2.2,2c3,1.9,6,3.7,9.1,5.6c3.5,2.1,7,4.8,11.2,4.2c2.2-0.3,4.1-1.3,6-2.4l0.4,0.8
			c-1.7,1-3.4,2-5.1,2.5c-1.9,0.5-3.8,0.6-5.8,0.1c-3-0.7-5.6-2.5-8.2-4.1c-2.9-1.8-5.8-3.6-8.7-5.4
			C191.7,731.5,191.4,733.8,191.2,736.9z"/>
		<path class="st6" d="M186.4,656.2c-0.6,0.7-1,1.5-0.8,2.4c0.4,2,3.6,3.6,5,4.9c1.8,1.8,5.9,5.9,4.7,8.7c-0.8,2-2.9,2-2.1,4.6
			c0.7,2.2,1.2,3.6,0.5,5.8l-0.9,0.7c0,0,0,0,0,0c-0.6,0.1-1.3,0.1-1.2-0.1c0.6-1.9,0.6-3.1-0.1-4.9c-0.4-1-1.1-1.6-0.8-2.8
			c0.3-1.3,2-1.7,2.5-2.9c0.8-2.2-1.9-5.2-3.1-6.7c-1.4-1.7-3.1-2.9-4.8-4.3c-2.5-2.2-1.9-3.9-0.2-5.6L186.4,656.2z"/>
		<path class="st6" d="M223.3,795.2c0.2-0.1,0.3-0.1,0.4-0.1c7.2-0.1,14.4,0.7,21.4,2.5c6.8,1.8,12.8,4.9,19.2,7.7
			c4.3,1.9,8.1,2.2,12.7,1.8c2.1-0.1,4.2-0.2,6.1,0.7c0.9,0.5,1.5,1.3,2.3,1.9c1.1,0.8,0.5,1,2.2,1c1.5,0,1.7-0.5,2.7-1.4
			c2.8-2.6,5.6-5.2,8.4-7.8c0.4-0.4,1.2-0.6,1.7-0.3c3.2,1.3,6.7,0,8.5-2.9c0.2-0.3,0.9-0.5,1.5-0.5c0.1-0.4,0.1-0.9,0.2-1.3
			c0.4-2.7,1.8-7,1-9.6c-0.9-2.8-4.5-3.4-6.6-5c-1.9-1.4-3.3-3.4-4-5.7c-1.9-5.5,0.9-9.8,3.9-14.3c1.7-2.6,3.6-5.5,3.3-8.8
			c-0.1-0.6-0.2-1.2-0.5-1.7c-0.2,0.2-0.5,0.4-0.8,0.4c-6.1,0.2-11.4,2.9-16.5,6.2c-1.7,1.1-3.5,2.2-5.1,3.4c-2,1.6-3.1,3.7-4.9,5.4
			c-2.1,1.9-4.6,1.3-7.2,0.7c-3.4-0.7-6.7-1.4-10.1-2.1c-3.1,4.1-6.1,8.1-9.1,12.2c-1.7,2.2-2.6,4.2-5.6,3.9c-2.3-0.2-3.4-1-5.9-0.5
			c-1.5,0.3-2.8,1-4,1.9c-1.3,1-2.4,2.2-4,2.7c-1,0.3-2,0.4-3,0.2c-1.4-0.3-6.5-3.9-7.4-1.2c-0.1,0.4-0.5,0.6-0.9,0.6
			c0.1,0.2,0.1,0.5,0.2,0.7c0.5,2.4,1.3,5.4,0.8,7.9C223.8,794.2,223.6,794.7,223.3,795.2z M186.9,875.4c-3.4,1.9-7.1,3.4-10.9,4.4
			l-0.2-0.9c2.1-0.6,4.1-1.3,6-2.1c22.4-9.7,33.1-33.6,36.2-56.5c0,0,0,0,0-0.1c-0.2,0-0.4-0.1-0.4-0.2c-0.5-3.6,1.3-6.3,2.2-9.7
			c0.4-1.5,0.6-3.1,0.2-4.6c-0.2-0.8-0.6-1.8-1.2-2.4c-0.4-0.4-1.7-0.8-1.9-1c-1.1-1.2-0.2-2.9,0.8-4c1.1-1.1,2.9-1.8,3.7-3.2
			c1-1.7,0.5-4,0.2-5.8c-0.5-3.4-1.2-7.1-2.8-10.2c-1.4-2.7-3.1-2.8-5.3-2.9l0-1c0.5,0,1.1,0,1.7,0.1c1.9,0.1,3.6,0.2,4.9,1.7
			c1.2,1.5,1.9,3.6,2.4,5.7c1.1-1.3,3-1.7,4.8-1.3c3,0.7,4.5,3.5,8,1.3c1.7-1,2.8-2.3,4.7-3.1c1.5-0.6,3.1-0.9,4.7-0.9
			c0.8,0,1.7,0.2,2.5,0.2c1.9,0.1,2.5,0,4-1.3c1.9-1.8,3.5-4.6,5.1-6.8c1.6-2.1,3.2-4.2,4.7-6.3c-1.1-0.3-2.2-0.5-3.3-0.8
			c-1.1-0.3-2.2-0.5-3.2-1.3c-1.8-1.5-2.3-3.6-4.7-4.6c-2.1-0.9-4.5-1.1-7-1l0-1.3c0.7,0,1.5,0,2.2,0c2.6,0,5.3,0.3,7.6,1.7
			c1.3,0.8,1.9,1.9,2.9,3.1c1.9,2.2,5.1,2.4,7.8,3c2.6,0.6,5.1,1.1,7.7,1.7c2.4,0.5,5.9,2.1,8,0.1c1.1-1,1.7-2.5,2.8-3.5
			c1.5-1.4,3.2-2.4,4.8-3.5c6.2-4.1,12.6-7.9,20.2-8.2c-1-1.5-2.5-2.7-3-4.5c-1.1-3.8,1.9-7.2,5.3-8.4c0.3-0.1,0.7-0.2,1-0.3
			l0.3,1.1c-1.5,0.2-2.8,1-3.9,2.8c-2.1,3.7,0.9,5.6,2.6,8.5c2.6,4.4-0.2,9.3-2.7,12.9c-3.6,5.3-6.1,11.3-1.4,16.8
			c3,3.6,8.9,3.7,8.7,9.3c-0.2,6.4-1.8,13.2-2.9,19.5c-0.7,4-1.3,9.9-5.4,12c-1.4,0.7-2.7,0.3-4.1,0.6c-4.9,0.8-6.3,4.8-7.5,8.9
			c-0.1,0.4-0.9,0.7-1.4,0.7c-0.9,0.8-2,1.1-3.2,1.3l-0.2-1c1-0.2,1.8-0.5,2.2-1.2c0.1-0.2,0.5-0.4,0.8-0.5c1.1-3.5,2.9-7.5,6.5-9
			c2.7-1.1,6.2,0.2,7.9-2.8c1.7-2.9,2.1-6.8,2.6-10.1c0.4-2.5,0.8-5,1.1-7.6c-2.5,3.1-6.6,4.3-10.4,3.2c-2.9,2.7-5.8,5.4-8.7,8
			c-1.3,1.2-2.7,2.4-4.6,2c-2.5-0.5-3.5-3.5-6.1-4.2c-3.3-0.9-7.2,0.5-10.6,0c-7.4-1-13.9-5.8-20.8-8.2c-8.4-2.9-17.1-4.2-26-4
			c-0.3,0-0.5-0.1-0.6-0.2c-1.2,1-2.7,1.6-3.5,3.2c-1.1,2.3,1.4,2.5,2.5,4c3.5,5-2.4,10.9-1.6,16.1c0,0,0,0.1,0,0.1
			c0.3,0,0.4,0.2,0.4,0.4c0,0.1,0,0.3-0.1,0.4c0.3-0.1,0.6,0,0.7,0.1c5.1,3.9,11.7,7.6,15,13.3c3.5,6,5,13.5,7,20.1
			c0.8,2.6,1.3,4.1-0.3,6.4c-1.2,1.7-2.5,2.6-0.4,4c1.1,0.8,2.3,0.7,3.5,1.2c5.4,1.9,5.1,8.4,4.4,13.1c0.6,0.1,1.3,0.2,1.8,0.5
			c0.9,0.4,1.6,1.4,2.5,1.7c1.8,0.7,3.8,0.3,5.6,0.2c2-0.2,3.7,0.5,5.5,1.1c3.7,1.2,7.2,1.5,11,1.6c6.1,0.2,12.2,0.3,18.2-0.3
			c1.7-0.2,3.5-0.4,5.2-0.7c0.8-0.2,1.8-0.3,2.8-0.6l0.3,0.9c-9.4,2.7-20,2.1-29.6,1.7c-2.4-0.1-4.8-0.3-7.1-0.9
			c-1.3-0.3-2.5-0.9-3.8-1.2c-2.2-0.4-4.4,0-6.5,0c-1.4,0-2.4-0.2-3.6-1c-0.4-0.2-0.7-0.7-1.1-0.9c-0.5-0.2-5.5,0.5-6,1.1
			c-0.7,1-0.3,2.8,0,3.8c0.1,0.2-0.2,0.5-0.6,0.6c0.2,6.4,0.4,12.8,0.6,19.2c0.1,3.8,1.8,11.6-1.4,14.8c-2.2,2.2-5,1.3-7.4,0.1
			c-4.1-2.2-6.8,0.8-9.8,3.2c-2.8,2.2-5.6,4.5-8.4,6.7l-16.2,13c-2.9,2.3-5.7,4.9-8.7,6.9c-1,0.7-2.1,1.2-3.3,1.3
			c-1.5,0.1-2.5-0.4-3.5-1.4c-0.7-0.7-1.2-1.8-2.1-2.4c-0.4-0.3-0.8-0.4-1.2-0.5l0.2-1.1c0,0,0,0,0,0c0.8,0.1,1.2,0,1.9,0.2
			c1.6,0.6,2.1,2.4,3.4,3.2c2.9,1.8,7.8-3.6,9.9-5.3c5.2-4.2,10.4-8.3,15.7-12.5c5.1-4.1,10.2-9.1,15.8-12.5
			c2.9-1.8,5.2-1.5,8.1,0.1c4,2.2,5.1-1.3,5.1-4.7c0-3.4-0.2-6.8-0.3-10.2c-0.2-6.8-0.4-13.6-0.6-20.3c0-0.2,0.2-0.4,0.4-0.5
			c0.2-2.6,2.2-4.6,5.1-5.2c0,0,0,0,0.1,0c0.5-3.5,0.9-7.5-1.5-10.4c-1.8-2.2-4.5-1.5-6.5-2.8c-1.3-0.9-1.4-2-0.7-3.3
			c0.4-0.8,1.2-1.3,1.6-2c1.2-2,0.5-3.6-0.1-5.6c-2-6.3-3.5-13.2-6.5-19c-3-5.8-9.2-9.6-14.4-13.4c-1.8,11.9-5.4,23.5-12,33.6
			C202.5,863.8,195.4,870.7,186.9,875.4z"/>
		<path class="st6" d="M184.2,642.3c-3.5-3.1-6.4-6.5-9-10.3c-1.4-2.1-6.5-7.8-4.7-10.5c1.2-1.7,4.7-2.1,6.5-2
			c1.9,0,3.6,0.6,5.2,1.5c1,0.6,2.8,2.1,4,2.1c2,0,3.7-1.4,2.8-3.3c-0.2-0.5,1.7-0.7,1.9-0.7c1.1,0.2,2.3,0.3,3.3,0.1l0.1,0.8
			c-1,0.2-2,0.2-3,0.2c0.3,2.1-2.1,3.6-4.1,3.9c-2.9,0.6-5.1-1.4-7.5-2.6c-2.6-1.3-8.7-0.8-6.9,2.9c0.5,1.1,1.2,2,1.8,3
			c1.4,2.2,2.8,4.5,4.4,6.6c2.7,3.7,6.4,6.3,9.4,9.7c0.8-0.5,1.6-0.9,2.4-1.3l0.5,1c-0.7,0.4-1.5,0.8-2.2,1.2c0,0,0,0,0.1,0.1
			c2.2,2.9,2.7,6.4,0.2,9.1c-0.8,0.8-2,1.6-2.9,2.5l-1.3-0.2c0.4-0.4,0.9-0.8,1.4-1.3C191.3,650.5,188,645.7,184.2,642.3z"/>
		<path class="st6" d="M151.1,939.7c3.4-2.1,5.5-6.3,10.1-5.6c5.2,0.8,8.4,6.7,9.3,11.6c1.7-1.3,3.4-2.7,5.2-3.7
			c0.9-0.4,1.9-0.9,2.9-0.7c1.2,0.3,1.4,1,1.9,2c1,1.9,0.4,2.3,3,2.7l-0.2,1.1c-0.7-0.1-1.3,0.1-2.2-0.1c-2-0.4-1.8-1.4-2.6-2.9
			c-1.3-2.3-2.4-1.2-4.1,0c-1.4,1-2.7,2-4.1,2.9c-0.2,0.2-1.8,0.8-1.9,0.2c-0.5-4.6-3.8-12.6-9.4-11.7c-2.9,0.5-4.7,3.2-7.2,4.8
			L151.1,939.7z"/>
		<path class="st6" d="M156.3,909.5c0.9-2.8,0.5-5.3,0.6-8.1c0-1.8,0.7-2.8,1.9-4.1c2.3-2.4,4.2-4.6,5.1-7.9
			c0.9-3.5-0.5-7.3,3.5-8.8c2-0.8,4.2-0.8,6.3-1.3c0.7-0.2,1.4-0.3,2.1-0.5l0.2,0.9c-0.7,0.2-1.5,0.4-2.2,0.5
			c-3.1,0.7-7.1,0.7-7.3,4.7c-0.1,2.2-0.4,4.3-1.3,6.4c-0.9,2.1-2.2,3.8-3.9,5.4c-1.6,1.6-2.4,2.7-2.3,5.1c0.1,1.1,0.2,2.2,0.1,3.3
			c-0.1,2.3-0.8,4.6-1.9,6.7c-1,1.8-2.9,3.2-3.7,5.1c-1.1,2.5,1.6,4.8,1.5,7.6c-0.1,1.6-0.7,3.1-1.3,4.5c-1.4,3.4-3.9,6.9-2.7,10.7
			l0.7,0.8c-0.4,0.2-0.7,0.4-1.1,0.6c-0.3,0.1-1.3,0.4-1.5-0.1c-1.9-4.2,1-8.2,2.6-12c0.9-2.1,1.5-4.4,0.7-6.6
			c-0.8-2.1-2.1-3.2-1-5.3C152.9,914.3,155.3,912.7,156.3,909.5z"/>
	</g>
	<g>
		<path class="st6" d="M380.7,106.4c0,2.4-0.4,4.7-1.1,7.1c-0.8,2.4-1.8,4.6-3.1,6.7c-1.3,2.1-3,3.9-4.8,5.5
			c-1.9,1.6-3.9,2.8-6.2,3.7c0.1,2,0.3,3.9,0.5,5.9c0.2,2,0.5,3.9,0.8,5.9c0.1,0.4,0.1,0.7,0.2,1.1c0.1,0.4,0.1,0.8,0.1,1.2
			c0,0.6-0.2,1-0.5,1.3c-0.3,0.2-0.8,0.3-1.3,0.3c-0.4,0-0.9,0-1.5-0.1c-0.6-0.1-1.1-0.2-1.5-0.4c-0.5-0.3-0.8-0.5-0.9-0.8
			c-0.2-0.3-0.3-0.6-0.3-1.1c-0.4-2-0.6-4-0.7-6.1c-0.1-2-0.2-4-0.3-6.1c-0.5,0-0.9-0.2-1.2-0.4c-0.3-0.2-0.5-0.6-0.5-1.1
			c0-0.5,0.1-1,0.4-1.5c0.3-0.5,0.6-0.9,0.9-1.2c-0.2-4.4-0.3-8.8-0.3-13.2c0-4.4,0-8.8,0-13.2c-0.1,0-0.2,0.1-0.3,0.1
			c-0.1,0-0.2,0-0.3,0c-0.3,0-0.5-0.1-0.6-0.2c-0.2-0.1-0.3-0.3-0.4-0.5c-0.1-0.2-0.2-0.4-0.2-0.6c0-0.2-0.1-0.4-0.1-0.6
			c0-0.7,0.2-1.2,0.5-1.6c0.4-0.3,0.8-0.6,1.5-0.9c0-0.3,0-0.6,0-0.9c0-0.3,0.1-0.7,0.1-1c0.1-0.3,0.2-0.5,0.4-0.8
			c0.2-0.2,0.5-0.3,0.9-0.3c0.6,0,1.2,0.1,1.8,0.4s1,0.6,1.3,1.2c0.8-0.1,1.6-0.3,2.4-0.4c0.8-0.1,1.6-0.2,2.4-0.2
			c1.9,0,3.6,0.3,5,0.9c1.5,0.6,2.7,1.5,3.8,2.6c1,1.1,1.8,2.5,2.3,4C380.5,102.9,380.7,104.6,380.7,106.4z M375.4,105.8
			c0-1.1-0.1-2.1-0.4-3.1c-0.3-1-0.7-1.8-1.3-2.5c-0.6-0.7-1.3-1.3-2.2-1.7c-0.9-0.4-1.9-0.6-3.1-0.6c-0.6,0-1.3,0-1.9,0.1
			c-0.7,0.1-1.3,0.2-1.9,0.4c0,4.4,0,8.7,0.1,13s0.2,8.6,0.5,12.9c1.5-0.8,2.9-1.9,4.2-3.3c1.3-1.4,2.3-3,3.3-4.7
			c0.9-1.7,1.6-3.5,2.1-5.3C375.1,109.2,375.4,107.5,375.4,105.8z"/>
		<path class="st6" d="M408.6,137.1c0,0.4-0.2,0.8-0.5,1.2c-0.3,0.4-0.7,0.8-1.2,1.1c-0.5,0.4-0.9,0.7-1.4,1
			c-0.5,0.3-0.9,0.5-1.2,0.7c-0.8,0.5-1.6,1-2.4,1.5c-0.8,0.5-1.6,0.8-2.5,1.2c-0.8,0.3-1.7,0.6-2.6,0.8c-0.9,0.2-1.8,0.3-2.8,0.3
			l-0.6,0.1c-0.8,0-1.6-0.1-2.3-0.3s-1.5-0.5-2.2-0.8c-0.7-0.4-1.3-0.8-1.8-1.4c-0.5-0.6-0.9-1.3-1.2-2.1c-0.2-0.6-0.4-1.4-0.5-2.3
			c-0.1-0.9-0.2-1.8-0.3-2.8c-0.1-1-0.1-1.9-0.1-2.8s-0.1-1.7-0.1-2.4c-0.4-7.3-0.6-14.6-0.9-21.9c0-0.8-0.1-1.7-0.1-2.5
			c0-0.8,0-1.7,0-2.5c0-1.4,0.1-2.6,0.3-3.6c0.2-1,0.5-1.8,1-2.5c0.5-0.6,1.2-1.1,2.2-1.4c0.9-0.3,2.2-0.4,3.7-0.4
			c1.5,0,3.1,0,4.7,0c1.6,0,3.1,0,4.7,0c0.5,0,1,0,1.4-0.1c0.5,0,1,0,1.4,0.1c0.3,0,0.5,0.1,0.8,0.2c0.2,0.1,0.3,0.3,0.3,0.7
			c0,0.9-0.3,1.5-0.9,1.9c-0.6,0.4-1.3,0.7-2,0.8c-0.8,0.1-1.6,0.2-2.4,0.2c-0.8,0-1.5,0-2.1,0h-4.6c-0.5,0-1,0-1.4,0
			c-0.5,0-1,0-1.4,0.1c-0.1,0.4-0.2,0.7-0.3,1.1c0,0.4-0.1,0.8-0.1,1.2c0,2.6,0.1,5.2,0.2,7.7c0.1,2.5,0.3,5.1,0.4,7.7
			c1.5-0.1,2.9-0.3,4.4-0.4c1.5-0.2,2.9-0.4,4.4-0.6c0.2,0,0.4,0,0.6,0c0.2,0,0.4,0,0.6,0c0.5,0,0.9,0.1,1.1,0.4
			c0.2,0.3,0.3,0.6,0.3,1.1c0,0.3,0,0.6-0.1,0.9s-0.1,0.6-0.2,0.9c-0.2,0.5-0.4,0.8-0.8,1c-0.4,0.2-0.8,0.4-1.3,0.4
			c-0.5,0.1-1,0.1-1.5,0.1c-0.5,0-1,0-1.3,0c-1,0-2,0.1-2.9,0.1c-1,0-1.9,0.1-2.9,0.1c0,0.5,0.1,1.3,0.1,2.3c0,1,0.1,2.1,0.2,3.4
			c0.1,1.3,0.1,2.5,0.2,3.9c0.1,1.3,0.2,2.6,0.3,3.8c0.1,1.2,0.2,2.2,0.3,3.1c0.1,0.9,0.2,1.5,0.4,1.8c0.3,0.5,0.6,0.8,0.9,1
			c0.3,0.2,0.8,0.2,1.3,0.2c0.9,0,1.8-0.2,2.8-0.5c1-0.3,1.9-0.8,2.9-1.3c0.9-0.5,1.8-1.1,2.7-1.8c0.8-0.6,1.6-1.3,2.2-1.9
			c0.3-0.2,0.5-0.4,0.8-0.7c0.3-0.2,0.6-0.3,0.9-0.3c0.4,0,0.7,0.1,1,0.3s0.6,0.5,0.9,0.8c0.3,0.3,0.5,0.7,0.6,1.1
			C408.5,136.4,408.6,136.8,408.6,137.1z"/>
		<path class="st6" d="M432.6,95.7c0,0.9-0.2,1.6-0.7,2.1c-0.5,0.5-1.1,0.9-2,1.1c-1.3,0.3-2.7,0.4-4.1,0.4c-1.4,0-2.8,0.1-4.1,0.1
			v7.1c0,6,0.2,12,0.6,18c0.4,6,1,11.9,1.8,17.9c0.1,0.4,0.1,0.7,0.2,1.1c0.1,0.4,0.1,0.7,0.1,1.1c0,0.6-0.1,1-0.4,1.3
			c-0.3,0.3-0.7,0.4-1.3,0.4c-0.4,0-1-0.1-1.6-0.2c-0.6-0.1-1.1-0.3-1.5-0.5c-0.5-0.3-0.8-0.6-0.9-0.9c-0.1-0.3-0.2-0.7-0.3-1.2
			c-0.3-1.7-0.4-3.4-0.5-5.1c-0.1-1.7-0.2-3.4-0.3-5.1c-0.3-3.6-0.5-7.2-0.7-10.8c-0.2-3.6-0.3-7.2-0.3-10.8c0-2,0-3.9,0-5.9
			c0-2,0-3.9,0-6c-1.5,0.1-3,0.3-4.4,0.4s-3,0.2-4.5,0.2c-0.4,0-0.6-0.1-0.9-0.3c-0.2-0.2-0.3-0.4-0.3-0.8c0-0.8,0.3-1.5,0.8-1.9
			c0.5-0.5,1.2-0.8,2-1c1.2-0.3,2.5-0.4,3.7-0.5c1.3-0.1,2.5-0.2,3.8-0.3c0-0.2,0-0.5,0-0.7c0-0.2,0.1-0.4,0.2-0.6
			c0.1-0.2,0.2-0.3,0.4-0.4c0.2-0.1,0.4-0.2,0.7-0.2c0.6,0,1.2,0.1,1.8,0.4c0.6,0.3,1.1,0.6,1.4,1.1l5.9-0.6
			c0.6-0.1,1.1-0.1,1.7-0.2c0.6-0.1,1.1-0.1,1.7-0.1c0.3,0,0.5,0,0.8,0c0.3,0,0.5,0.1,0.7,0.2c0.2,0.1,0.3,0.3,0.5,0.5
			C432.6,95.1,432.6,95.4,432.6,95.7z"/>
		<path class="st6" d="M456.7,117.4c0,1,0,2.2-0.1,3.5c0,1.3-0.1,2.7-0.3,4.2s-0.3,3-0.6,4.6c-0.3,1.6-0.6,3.1-1,4.6
			c-0.4,1.5-0.9,2.9-1.5,4.3c-0.6,1.3-1.3,2.5-2.1,3.5c-0.8,1-1.8,1.8-2.9,2.4c-1.1,0.6-2.3,0.9-3.8,0.9c-1.4,0-2.7-0.3-3.8-1
			s-2.1-1.5-2.9-2.6c-0.6-0.9-1.2-1.9-1.7-3.2c-0.5-1.3-0.9-2.6-1.3-4.1c-0.4-1.5-0.7-3-0.9-4.6c-0.3-1.6-0.5-3.2-0.6-4.7
			c-0.2-1.5-0.3-3-0.3-4.4c-0.1-1.4-0.1-2.6-0.1-3.7c0-1.8,0.1-3.6,0.2-5.5c0.2-1.9,0.4-3.8,0.9-5.7c0.4-1.9,1-3.7,1.8-5.5
			c0.7-1.8,1.7-3.3,2.9-4.8c0.1-0.1,0.3-0.3,0.4-0.5c0.2-0.2,0.4-0.4,0.6-0.6s0.4-0.3,0.7-0.5c0.2-0.1,0.4-0.2,0.7-0.2
			s0.4,0.1,0.6,0.2c0.2,0.1,0.4,0.3,0.5,0.5c0.5-0.3,1-0.5,1.6-0.6c0.6-0.1,1.1-0.2,1.7-0.2c1.7,0,3.2,0.4,4.5,1.2
			c1.3,0.8,2.3,1.9,3.1,3.2c0.8,1.3,1.5,2.8,2,4.5c0.5,1.7,0.9,3.4,1.1,5.2c0.3,1.8,0.4,3.5,0.5,5.1
			C456.7,114.7,456.7,116.2,456.7,117.4z M451.1,119c0-0.6,0-1.6-0.1-2.8c0-1.3-0.1-2.7-0.3-4.2c-0.1-1.5-0.3-3.1-0.6-4.7
			c-0.3-1.6-0.6-3.1-1-4.4s-1-2.4-1.6-3.3c-0.6-0.8-1.4-1.3-2.3-1.3c-0.4,0-0.7,0.2-1,0.5c-0.3,0.3-0.6,0.8-0.8,1.3
			c-0.3,0.5-0.5,1.1-0.7,1.7c-0.2,0.6-0.4,1.2-0.6,1.8c-0.2,0.6-0.4,1.1-0.6,1.5c-0.2,0.5-0.4,0.8-0.6,1c-0.1,0.1-0.2,0.1-0.3,0.1
			c-0.2,0-0.3,0-0.4,0c-0.4,0-0.8-0.1-1.1-0.2c-0.4,1.6-0.7,3.2-0.8,4.8c-0.2,1.6-0.2,3.2-0.2,4.9c0,0.5,0,1.3,0.1,2.3
			c0,1,0.1,2.1,0.2,3.4c0.1,1.3,0.2,2.7,0.4,4.1c0.2,1.5,0.4,2.9,0.6,4.4c0.2,1.5,0.5,2.9,0.8,4.2c0.3,1.3,0.7,2.5,1.1,3.6
			s0.9,1.9,1.4,2.5c0.5,0.6,1.1,0.9,1.8,0.9c0.4,0,0.7-0.1,1-0.3c0.3-0.2,0.6-0.4,0.8-0.6c0.7-0.6,1.3-1.5,1.9-2.5
			c0.5-1,1-2.2,1.3-3.5c0.4-1.3,0.7-2.6,0.9-4c0.2-1.4,0.4-2.8,0.5-4.1c0.1-1.4,0.2-2.6,0.3-3.9C451.1,121,451.1,119.9,451.1,119z"
			/>
		<path class="st6" d="M489.5,144.7c0,0.3-0.1,0.5-0.4,0.7c-0.3,0.2-0.6,0.3-1,0.5c-0.4,0.1-0.8,0.2-1.2,0.3c-0.4,0-0.7,0.1-0.9,0.1
			c-0.5,0-0.9,0-1.2-0.1c-0.3-0.1-0.6-0.2-1.1-0.4c-0.1-0.1-0.4-0.4-0.8-0.9c-0.4-0.5-1-1.2-1.6-2.1c-0.7-0.9-1.4-1.8-2.2-2.9
			c-0.8-1.1-1.7-2.2-2.5-3.4c-0.9-1.2-1.7-2.3-2.6-3.5c-0.8-1.2-1.6-2.2-2.3-3.2c-0.7-1-1.3-1.8-1.8-2.5c-0.5-0.7-0.9-1.2-1.1-1.5
			l-0.2,0.1c0.1,2.8,0.3,5.7,0.6,8.5s0.6,5.6,1.2,8.4c0.1,0.3,0.1,0.6,0.2,0.9c0.1,0.3,0.1,0.6,0.1,1c0,0.5-0.2,0.9-0.5,1.1
			c-0.4,0.2-0.8,0.2-1.2,0.2c-0.2,0-0.5,0-0.9,0c-0.3,0-0.7-0.1-1-0.1c-0.4-0.1-0.7-0.2-1-0.3c-0.3-0.1-0.5-0.2-0.7-0.4
			c-0.3-0.3-0.5-0.6-0.6-0.9c-0.1-0.3-0.2-0.7-0.2-1.1c-0.7-4.8-1.1-9.6-1.3-14.4c-0.2-4.8-0.3-9.6-0.3-14.5c0-2.1,0-4.2,0-6.2
			c0-2,0.1-4.1,0.1-6.2c-0.3,0-0.6-0.1-0.8-0.3c-0.3-0.2-0.5-0.4-0.7-0.6c-0.2-0.3-0.3-0.5-0.4-0.8c-0.1-0.3-0.2-0.5-0.2-0.8
			s0.1-0.5,0.2-0.8c0.1-0.3,0.3-0.5,0.5-0.7s0.4-0.4,0.7-0.6c0.2-0.2,0.5-0.3,0.6-0.5v-0.6c0-0.2,0-0.5,0-0.8s0.1-0.6,0.1-0.9
			c0.1-0.3,0.2-0.5,0.4-0.7c0.2-0.2,0.5-0.3,0.9-0.3c0.5,0,1,0.1,1.5,0.3c0.5,0.2,0.9,0.5,1.3,0.9c1.8-0.7,3.7-1.1,5.6-1.1
			c1.7,0,3.3,0.3,4.8,1c1.4,0.7,2.6,1.6,3.7,2.8c1,1.2,1.8,2.5,2.3,4c0.5,1.5,0.8,3.1,0.8,4.8c0,1.8-0.3,3.5-1,5.2
			c-0.7,1.7-1.5,3.3-2.6,4.8s-2.3,2.9-3.7,4.1s-2.8,2.3-4.2,3.3c2.2,3,4.5,5.9,6.8,8.8c2.3,2.9,4.6,5.8,7.1,8.7
			c0.1,0.2,0.4,0.4,0.7,0.8c0.3,0.3,0.6,0.7,0.9,1.1c0.3,0.4,0.6,0.8,0.8,1.1C489.4,144.2,489.5,144.5,489.5,144.7z M479,105.4
			c0-0.9-0.2-1.8-0.5-2.8c-0.3-1-0.8-1.8-1.3-2.6c-0.6-0.8-1.3-1.4-2.1-1.9c-0.8-0.5-1.7-0.8-2.7-0.8c-0.8,0-1.6,0.1-2.3,0.3
			c-0.8,0.2-1.5,0.5-2.2,0.9c0,3.5,0.1,7.1,0.1,10.6c0,3.5,0.1,7.1,0.2,10.6l0.6,0.1c1.2-0.7,2.5-1.6,3.7-2.6c1.2-1,2.3-2.2,3.3-3.5
			s1.7-2.6,2.3-4.1C478.7,108.3,479,106.9,479,105.4z"/>
		<path class="st6" d="M515.8,134.3c0,0.4-0.1,0.7-0.2,1.1c-0.1,0.3-0.2,0.7-0.3,1c-0.5,1.4-1.2,2.6-1.9,3.8c-0.8,1.2-1.6,2.1-2.6,3
			c-1,0.8-2.1,1.5-3.4,2s-2.7,0.7-4.2,0.7c-2,0-3.8-0.4-5.2-1.3s-2.7-2-3.7-3.3c-1-1.4-1.9-2.9-2.5-4.6c-0.7-1.7-1.2-3.4-1.6-5.1
			c-0.6-2.5-1-4.9-1.3-7.4c-0.3-2.5-0.5-4.9-0.5-7.4c0-1.5,0.1-3,0.2-4.5s0.4-3.1,0.7-4.6c0.3-1.5,0.8-3,1.4-4.4
			c0.6-1.4,1.3-2.7,2.1-3.9s1.9-2.3,3.1-3.2c1.2-0.9,2.6-1.7,4.1-2.2c0.6-0.2,1.2-0.4,1.8-0.4s1.2-0.1,1.9-0.1
			c1.2,0,2.4,0.2,3.5,0.6c1.1,0.4,2.1,1,2.9,1.7c0.8,0.7,1.5,1.6,2,2.7c0.5,1,0.7,2.2,0.7,3.5c0,0.4-0.1,0.8-0.3,1
			c-0.2,0.2-0.5,0.3-1,0.3c-0.9,0-1.6-0.1-2.1-0.4c-0.5-0.3-0.9-0.6-1.2-1.1c-0.3-0.4-0.6-0.9-0.8-1.4c-0.2-0.5-0.4-1-0.7-1.4
			c-0.3-0.4-0.7-0.8-1.1-1.1c-0.5-0.3-1.1-0.4-2-0.4s-1.6,0.2-2.3,0.5c-0.7,0.3-1.4,0.7-2,1.3c-0.6,0.5-1.2,1.1-1.6,1.8
			c-0.5,0.7-0.9,1.3-1.3,2c-1,1.9-1.7,3.8-2.1,5.9c-0.4,2.1-0.6,4.2-0.6,6.3c0,0.7,0,1.6,0.1,2.8s0.2,2.4,0.3,3.7
			c0.1,1.4,0.3,2.8,0.6,4.3c0.2,1.5,0.5,3,0.9,4.4c0.3,1.5,0.8,2.8,1.3,4.2c0.5,1.3,1,2.5,1.7,3.5c0.6,1,1.3,1.8,2.1,2.4
			c0.8,0.6,1.7,0.9,2.7,0.9c1,0,1.9-0.3,2.7-0.8c0.8-0.5,1.5-1.2,2-2c0.6-0.8,1-1.7,1.4-2.7c0.4-1,0.7-1.9,0.9-2.7
			c0.1-0.2,0.1-0.5,0.2-0.6c0.1-0.2,0.1-0.4,0.3-0.5s0.2-0.3,0.4-0.3c0.2-0.1,0.4-0.1,0.7-0.1c0.3,0,0.7,0.1,1.2,0.2
			c0.5,0.1,0.9,0.3,1.3,0.6c0.4,0.2,0.8,0.5,1.1,0.9C515.7,133.5,515.8,133.9,515.8,134.3z"/>
		<path class="st6" d="M543.5,125.2c0,0.5-0.2,1-0.5,1.6c-0.4,0.5-0.8,1-1.2,1.2c-0.1,0.1-0.3,0.1-0.6,0.2c-0.3,0.1-0.6,0.1-0.9,0.2
			c-0.3,0.1-0.6,0.1-0.9,0.2c-0.3,0.1-0.5,0.1-0.7,0.1l0.9,5.3c0.3,1.6,0.5,3.3,0.6,4.9c0.1,1.7,0.4,3.3,0.9,4.9
			c0,0.1,0.1,0.3,0.1,0.4c0,0.1,0.1,0.3,0.1,0.5c0,0.3-0.1,0.5-0.3,0.7c-0.2,0.2-0.4,0.3-0.6,0.4c-0.3,0.1-0.5,0.1-0.8,0.2
			c-0.3,0-0.5,0-0.8,0h-0.5c-0.7,0-1.3-0.1-1.7-0.2c-0.4-0.1-0.7-0.3-0.9-0.6c-0.2-0.3-0.4-0.6-0.4-1.1c-0.1-0.4-0.2-1-0.3-1.6
			c-0.6-4.4-1.2-8.7-1.9-13.1c-1.5,0.2-3,0.4-4.4,0.5c-1.5,0.2-3,0.3-4.5,0.5l-1.1,7c0,0.4-0.1,1-0.2,1.8c-0.1,0.7-0.2,1.5-0.3,2.3
			s-0.2,1.5-0.4,2.2c-0.1,0.7-0.3,1.2-0.4,1.5c-0.1,0.3-0.3,0.5-0.4,0.6c-0.1,0.1-0.3,0.2-0.7,0.2c-0.4,0-0.9-0.1-1.3-0.2
			c-0.4-0.2-0.8-0.4-1.1-0.6c-0.3-0.3-0.6-0.6-0.8-1c-0.2-0.4-0.3-0.8-0.3-1.3c0-0.5,0.1-1,0.2-1.4c0.1-0.5,0.2-1,0.3-1.4
			c0.3-1.6,0.5-3.1,0.7-4.7c0.2-1.6,0.5-3.1,0.7-4.7c-0.2,0-0.4-0.1-0.6-0.1c-0.2-0.1-0.4-0.1-0.6-0.2c-0.2-0.1-0.4-0.2-0.5-0.4
			c-0.1-0.1-0.2-0.3-0.2-0.5c0-0.2,0.1-0.5,0.3-0.7c0.2-0.2,0.4-0.4,0.6-0.6c0.3-0.2,0.5-0.3,0.8-0.5c0.3-0.1,0.5-0.2,0.7-0.3
			c0.5-3.3,1-6.7,1.4-10c0.5-3.3,0.9-6.7,1.2-10c0.1-0.9,0.2-1.8,0.3-2.8c0.1-0.9,0.1-1.9,0.2-2.8c0.1-0.9,0.2-1.8,0.3-2.8
			c0.1-0.9,0.3-1.8,0.6-2.7c0.2-0.9,0.6-1.5,1.1-2.1s1.2-0.8,2.2-0.8c0.3,0,0.6,0,0.8,0.1c0.3,0,0.5,0.1,0.7,0.3
			c0.6,0.3,1.3,1.2,1.9,2.5c0.7,1.4,1.3,3.1,2,5c0.7,2,1.3,4.1,1.9,6.4c0.6,2.3,1.2,4.5,1.7,6.6s0.9,4.1,1.3,5.8
			c0.4,1.7,0.6,3,0.8,3.8c0.5-0.1,1-0.1,1.5-0.2c0.5-0.1,1-0.1,1.5-0.1c0.2,0,0.5,0,0.8,0c0.3,0,0.6,0.1,0.9,0.2
			c0.3,0.1,0.5,0.3,0.7,0.5C543.4,124.6,543.5,124.9,543.5,125.2z M532.2,124.9c-0.6-3.4-1.3-6.7-2-10.1c-0.7-3.3-1.6-6.6-2.6-9.9
			c-0.4,3.6-0.9,7.2-1.4,10.7c-0.5,3.5-1,7.1-1.6,10.6c1.3-0.2,2.6-0.4,3.8-0.6C529.7,125.4,531,125.2,532.2,124.9z"/>
	</g>
</g>
</svg>
