<?xml version="1.0" encoding="utf-8"?>
<!-- Generator: Adobe Illustrator 24.1.2, SVG Export Plug-In . SVG Version: 6.00 Build 0)  -->
<svg version="1.1" id="Layer_1" xmlns="http://www.w3.org/2000/svg" xmlns:xlink="http://www.w3.org/1999/xlink" x="0px" y="0px"
	 viewBox="0 0 750 2792" style="enable-background:new 0 0 750 2792;" xml:space="preserve">
<style type="text/css">
	.st0{fill:#3D2C18;}
	.st1{fill:#73D66E;}
	.st2{fill:#A2D36E;}
	.st3{fill:#8E5D2D;stroke:#000000;stroke-width:3;stroke-miterlimit:10;}
	.st4{fill:#A06B32;}
	.st5{fill:#B28252;}
	.st6{fill:#4A7726;}
	.st7{fill:#C99E77;}
	.st8{fill:#3A0D36;}
	.st9{fill:#470234;}
	.st10{fill:#B9CC9E;}
	.st11{fill:#183403;}
	.st12{fill:#B0C151;}
	.st13{fill:#DCD676;}
	.st14{fill:#9A622F;}
	.st15{fill:#D3BA9B;}
	.st16{fill:#64B75E;}
</style>
<g>
	<g>
		<ellipse transform="matrix(0.7071 -0.7071 0.7071 0.7071 -95.2694 350.1221)" cx="375" cy="290.1" rx="153.7" ry="153.7"/>
		<ellipse transform="matrix(0.7071 -0.7071 0.7071 0.7071 3.0924 309.0716)" cx="374.6" cy="150.8" rx="94.7" ry="94.7"/>
		<polygon points="292.4,102.9 458.2,108.8 516.1,229.2 236.1,224.7 		"/>
	</g>
	<g>
		<circle class="st0" cx="374.7" cy="290.3" r="148.5"/>
		
			<ellipse transform="matrix(0.7071 -0.7071 0.7071 0.7071 -0.459 310.2981)" class="st0" cx="374.3" cy="155.7" rx="91.5" ry="91.5"/>
		<polygon class="st0" points="294.9,109.4 455.1,115.2 511,231.4 240.5,227.1 		"/>
	</g>
	<g>
		<circle class="st1" cx="374.6" cy="287.3" r="141.9"/>
		
			<ellipse transform="matrix(0.7071 -0.7071 0.7071 0.7071 -2.7094 311.1541)" class="st1" cx="374.2" cy="158.8" rx="87.4" ry="87.4"/>
		<polygon class="st1" points="298.4,114.6 451.3,120.1 504.8,231.1 246.4,227 		"/>
	</g>
	<g>
		
			<ellipse transform="matrix(0.7071 -0.7071 0.7071 0.7071 -95.7322 350.6671)" class="st2" cx="375.4" cy="290.9" rx="116" ry="116"/>
		
			<ellipse transform="matrix(0.1466 -0.9892 0.9892 0.1466 136.3026 529.6799)" class="st2" cx="375.1" cy="185.8" rx="71.4" ry="71.4"/>
		<polygon class="st2" points="313.1,149.7 438.2,154.2 481.9,244.9 270.7,241.6 		"/>
	</g>
	
		<ellipse transform="matrix(0.7071 -0.7071 0.7071 0.7071 -96.7881 348.1317)" class="st3" cx="371.8" cy="290.9" rx="85.9" ry="85.9"/>
	<circle class="st4" cx="373.6" cy="291.1" r="81.2"/>
	<circle class="st5" cx="404.4" cy="264.4" r="25.7"/>
</g>
<g>
	<g>
		<ellipse transform="matrix(0.7071 -0.7071 0.7071 0.7071 -550.6291 538.7382)" cx="375" cy="934" rx="144.4" ry="144.4"/>
		<circle cx="375" cy="744.9" r="83.9"/>
		<polyline points="295.5,716.9 235.1,901.6 515.7,901.7 456.8,726.1 		"/>
	</g>
	<g>
		<circle class="st6" cx="374.7" cy="932.6" r="138.9"/>
		
			<ellipse transform="matrix(0.7071 -0.7071 0.7071 0.7071 -421.0422 484.8457)" class="st6" cx="374.7" cy="750.7" rx="80.7" ry="80.7"/>
		<polyline class="st6" points="298.3,723.8 240.2,901.4 510.1,901.5 453.5,732.6 		"/>
	</g>
	<g>
		<circle class="st2" cx="374.6" cy="931.8" r="129"/>
		<circle class="st2" cx="374.6" cy="762.8" r="75"/>
		<polyline class="st2" points="303.6,737.8 249.6,902.8 500.4,902.9 447.7,746 		"/>
	</g>
	<g>
		<circle class="st1" cx="375.2" cy="930.5" r="109.4"/>
		
			<ellipse transform="matrix(0.7071 -0.7071 0.7071 0.7071 -446.7253 495.8981)" class="st1" cx="375.2" cy="787.2" rx="63.6" ry="63.6"/>
		<polyline class="st1" points="315,766 269.2,905.9 481.9,906 437.2,773 		"/>
	</g>
	<ellipse class="st3" cx="376.9" cy="913.5" rx="85.1" ry="104.4"/>
	<ellipse class="st4" cx="375.1" cy="915.8" rx="77.5" ry="95"/>
	<circle class="st7" cx="413.1" cy="875.3" r="17.5"/>
</g>
<g>
	<g>
		<ellipse cx="375" cy="1615.3" rx="118" ry="130.5"/>
		<ellipse cx="368.1" cy="1460.9" rx="76.7" ry="133.5"/>
		<polyline points="294.1,1425.5 261.1,1581.5 490.3,1584.5 440.7,1416.4 		"/>
	</g>
	<g>
		<ellipse class="st8" cx="374.9" cy="1614.2" rx="112.1" ry="123.9"/>
		<ellipse class="st8" cx="368.4" cy="1467.5" rx="72.9" ry="126.8"/>
		<polyline class="st8" points="298.1,1433.9 266.8,1582 484.4,1584.9 437.3,1425.2 		"/>
	</g>
	<g>
		<ellipse class="st9" cx="378" cy="1618.4" rx="78.2" ry="86.4"/>
		<ellipse class="st9" cx="373.4" cy="1516.1" rx="50.8" ry="88.4"/>
		<polyline class="st9" points="324.4,1492.7 302.6,1596 454.3,1598 421.5,1486.6 		"/>
	</g>
	<g>
		<g>
			<ellipse class="st2" cx="374" cy="1608.4" rx="99" ry="109.4"/>
			<ellipse class="st2" cx="368.2" cy="1478.8" rx="64.4" ry="112"/>
			<polyline class="st2" points="306.2,1449.1 278.5,1580 470.7,1582.5 429.1,1441.5 			"/>
		</g>
		<g>
			<ellipse class="st10" cx="373" cy="1604.8" rx="78.2" ry="86.4"/>
			<ellipse class="st10" cx="368.4" cy="1502.5" rx="50.8" ry="88.4"/>
			<polyline class="st10" points="319.5,1479 297.6,1582.3 449.3,1584.3 416.5,1473 			"/>
		</g>
	</g>
	<ellipse class="st3" cx="376" cy="1595.3" rx="73" ry="96.2"/>
	<ellipse class="st4" cx="376.8" cy="1593.8" rx="64.5" ry="85"/>
	<circle class="st7" cx="406.5" cy="1567.3" r="17.5"/>
</g>
<g>
	<g>
		<g>
			<g>
				<ellipse transform="matrix(0.7071 -0.7071 0.7071 0.7071 -1520.6959 940.553)" cx="375" cy="2305.9" rx="140.9" ry="140.9"/>
			</g>
			<circle cx="374.4" cy="2099.9" r="78.1"/>
			<polyline points="296.8,2091.7 240.8,2262.9 509.2,2262.9 452.1,2091.7 			"/>
		</g>
	</g>
	<g>
		<g>
			<g>
				<circle class="st11" cx="374.5" cy="2304.9" r="134.4"/>
			</g>
			
				<ellipse transform="matrix(0.2373 -0.9714 0.9714 0.2373 -1762.8733 1971.2424)" class="st11" cx="373.9" cy="2108.3" rx="74.5" ry="74.5"/>
			<polyline class="st11" points="299.8,2100.5 246.5,2263.8 502.5,2263.8 448,2100.5 			"/>
		</g>
	</g>
	<g>
		<g>
			<g>
				<circle class="st12" cx="374.7" cy="2295.8" r="120"/>
			</g>
			<circle class="st12" cx="374.2" cy="2120.3" r="66.5"/>
			<polyline class="st12" points="308,2113.4 260.4,2259.2 489,2259.2 440.3,2113.4 			"/>
		</g>
	</g>
	<g>
		<g>
			<g>
				
					<ellipse transform="matrix(0.7071 -0.7071 0.7071 0.7071 -1506.582 934.0757)" class="st13" cx="374.2" cy="2285.6" rx="96.6" ry="96.6"/>
			</g>
			
				<ellipse transform="matrix(0.2354 -0.9719 0.9719 0.2354 -1798.3193 2002.9019)" class="st13" cx="373.8" cy="2144.4" rx="53.5" ry="53.5"/>
			<polyline class="st13" points="320.6,2138.8 282.3,2256.2 466.2,2256.2 427.1,2138.8 			"/>
		</g>
	</g>
	<g>
		<circle class="st3" cx="379.1" cy="2283" r="62.8"/>
		<polyline class="st3" points="322.2,2256.5 376.6,2151.3 433.8,2252 		"/>
	</g>
	<g>
		<circle class="st14" cx="376.4" cy="2282.1" r="58.7"/>
		<polyline class="st14" points="323.2,2257.2 374,2158.8 427.5,2253.1 		"/>
	</g>
	<circle class="st15" cx="398.7" cy="2256.8" r="12"/>
</g>
<g>
	<path d="M358.7,495.9c0,0.7-0.2,1.2-0.5,1.5c-0.4,0.3-0.9,0.5-1.5,0.6c0.1,2.4,0.2,4.8,0.3,7.2c0,2.4,0.1,4.8,0.1,7.2
		c0,0.4-0.1,0.7-0.2,0.9c-0.2,0.2-0.4,0.3-0.8,0.3c-0.3,0-0.7,0-1-0.1c-0.3-0.1-0.6-0.2-0.9-0.4c-0.3-0.2-0.5-0.4-0.6-0.7
		c-0.2-0.3-0.2-0.6-0.2-1V504c0-0.9,0-1.8,0-2.8c0-0.9,0-1.8,0-2.8c-1.3,0.2-2.7,0.3-4,0.5c-1.3,0.1-2.7,0.2-4,0.3
		c0,3.3,0.1,6.7,0.3,10c0,0.7,0.1,1.4,0.2,2c0.1,0.7,0.1,1.3,0.1,2c0,0.3-0.1,0.5-0.3,0.7c-0.2,0.2-0.4,0.2-0.7,0.2
		c-0.2,0-0.5,0-0.8-0.1c-0.3,0-0.5-0.1-0.8-0.2c-0.3-0.1-0.5-0.2-0.7-0.4c-0.2-0.1-0.4-0.3-0.5-0.5c0-0.1-0.1-0.3-0.1-0.7
		c0-0.4-0.1-0.9-0.1-1.5c0-0.6,0-1.3-0.1-2c0-0.8,0-1.5,0-2.3s0-1.6,0-2.4c0-0.8,0-1.5,0-2.1c0-0.7,0-1.2,0-1.7c0-0.5,0-0.8,0-1
		c-0.2,0-0.4-0.1-0.6-0.2c-0.2-0.1-0.3-0.3-0.3-0.5c0-0.3,0.1-0.6,0.2-0.8c0.2-0.3,0.4-0.5,0.6-0.6V483c0-0.3,0.1-0.6,0.2-0.8
		c0.1-0.2,0.3-0.3,0.7-0.3c0.5,0,1,0.1,1.3,0.2c0.3,0.2,0.6,0.4,0.7,0.6c0.2,0.3,0.3,0.6,0.3,1c0.1,0.4,0.1,0.8,0.1,1.2
		c0,1.9,0.1,3.8,0.1,5.7c0,1.9,0,3.8,0.1,5.7c1.3-0.1,2.7-0.3,4-0.4c1.3-0.1,2.7-0.3,4-0.6c-0.1-1.7-0.2-3.3-0.3-4.9
		c-0.1-1.6-0.3-3.3-0.5-4.9c-0.1-0.8-0.3-1.6-0.4-2.3c-0.2-0.8-0.3-1.6-0.3-2.4c0-0.3,0.1-0.5,0.3-0.5c0.2-0.1,0.4-0.1,0.7-0.1
		c0.4,0,0.8,0.1,1.1,0.2c0.4,0.1,0.7,0.3,0.9,0.7c0.1,0.2,0.3,0.6,0.4,1.3c0.2,0.6,0.3,1.4,0.4,2.3c0.1,0.9,0.3,1.9,0.4,2.9
		c0.1,1,0.2,2,0.3,3c0.1,0.9,0.2,1.8,0.2,2.6c0.1,0.8,0.1,1.3,0.1,1.7c0.2,0,0.4-0.1,0.6-0.1c0.2,0,0.4-0.1,0.6-0.1
		c0.4,0,0.6,0.1,0.8,0.3C358.6,495.2,358.7,495.5,358.7,495.9z"/>
	<path d="M377.7,501.2c0,0.3-0.1,0.7-0.4,1c-0.2,0.4-0.5,0.6-0.8,0.8c-0.1,0-0.2,0.1-0.4,0.1c-0.2,0-0.4,0.1-0.6,0.1
		c-0.2,0-0.4,0.1-0.6,0.1c-0.2,0-0.3,0.1-0.5,0.1l0.6,3.5c0.2,1.1,0.3,2.2,0.4,3.2c0.1,1.1,0.3,2.2,0.6,3.2c0,0.1,0.1,0.2,0.1,0.3
		c0,0.1,0,0.2,0,0.3c0,0.2-0.1,0.4-0.2,0.5c-0.1,0.1-0.3,0.2-0.4,0.2c-0.2,0.1-0.3,0.1-0.5,0.1c-0.2,0-0.4,0-0.5,0h-0.3
		c-0.5,0-0.9,0-1.1-0.1c-0.3-0.1-0.5-0.2-0.6-0.4s-0.2-0.4-0.3-0.7c0-0.3-0.1-0.6-0.2-1.1c-0.4-2.9-0.8-5.7-1.3-8.6
		c-1,0.1-1.9,0.2-2.9,0.4c-1,0.1-2,0.2-2.9,0.3l-0.8,4.6c0,0.3-0.1,0.7-0.1,1.1c-0.1,0.5-0.1,1-0.2,1.5c-0.1,0.5-0.1,1-0.2,1.4
		c-0.1,0.4-0.2,0.8-0.3,1c-0.1,0.2-0.2,0.3-0.3,0.4c-0.1,0.1-0.2,0.1-0.4,0.1c-0.3,0-0.6-0.1-0.8-0.2c-0.3-0.1-0.5-0.2-0.7-0.4
		c-0.2-0.2-0.4-0.4-0.5-0.6c-0.1-0.2-0.2-0.5-0.2-0.8c0-0.3,0-0.6,0.1-0.9c0.1-0.3,0.1-0.6,0.2-0.9c0.2-1,0.3-2.1,0.5-3.1
		c0.1-1,0.3-2,0.5-3.1c-0.1,0-0.2,0-0.4-0.1c-0.1,0-0.3-0.1-0.4-0.2c-0.1-0.1-0.2-0.1-0.3-0.2c-0.1-0.1-0.1-0.2-0.1-0.3
		c0-0.2,0.1-0.3,0.2-0.4c0.1-0.1,0.3-0.3,0.4-0.4c0.2-0.1,0.3-0.2,0.5-0.3c0.2-0.1,0.3-0.2,0.4-0.2c0.3-2.2,0.6-4.4,0.9-6.5
		c0.3-2.2,0.6-4.4,0.8-6.6c0.1-0.6,0.1-1.2,0.2-1.8s0.1-1.2,0.2-1.8c0.1-0.6,0.1-1.2,0.2-1.8c0.1-0.6,0.2-1.2,0.4-1.8
		c0.1-0.6,0.4-1,0.7-1.4c0.3-0.3,0.8-0.5,1.5-0.5c0.2,0,0.4,0,0.6,0c0.2,0,0.3,0.1,0.5,0.2c0.4,0.2,0.8,0.8,1.3,1.7
		c0.4,0.9,0.9,2,1.3,3.3c0.4,1.3,0.9,2.7,1.3,4.2c0.4,1.5,0.8,3,1.1,4.4c0.3,1.4,0.6,2.7,0.8,3.8c0.2,1.1,0.4,2,0.5,2.5
		c0.3,0,0.7-0.1,1-0.1c0.3,0,0.7-0.1,1-0.1c0.2,0,0.3,0,0.5,0c0.2,0,0.4,0.1,0.6,0.1c0.2,0.1,0.3,0.2,0.4,0.3
		C377.7,500.8,377.7,501,377.7,501.2z M370.4,501c-0.4-2.2-0.8-4.4-1.3-6.6c-0.5-2.2-1-4.4-1.7-6.5c-0.3,2.4-0.6,4.7-0.9,7
		c-0.3,2.3-0.7,4.7-1.1,7c0.8-0.1,1.7-0.3,2.5-0.4C368.7,501.4,369.5,501.2,370.4,501z"/>
	<path d="M392.8,506.7c0,1.2-0.2,2.3-0.6,3.3s-0.9,1.9-1.6,2.7c-0.7,0.8-1.5,1.4-2.5,1.9c-1,0.5-2.1,0.7-3.3,0.7
		c-1.1,0-2-0.2-2.9-0.5c-0.9-0.3-1.7-0.8-2.3-1.4c-0.7-0.6-1.2-1.4-1.5-2.2c-0.4-0.9-0.6-1.9-0.6-2.9c0-0.2,0-0.5,0-0.8
		c0-0.3,0.1-0.6,0.2-0.9c0.1-0.3,0.2-0.6,0.4-0.8c0.2-0.2,0.4-0.3,0.7-0.3c0.2,0,0.5,0.1,0.8,0.2c0.3,0.1,0.6,0.2,0.9,0.4
		c0.3,0.2,0.5,0.4,0.7,0.6c0.2,0.2,0.3,0.5,0.3,0.8v1.4c0,1.1,0.3,2,0.9,2.6c0.6,0.7,1.4,1,2.5,1c0.8,0,1.5-0.2,2-0.5
		c0.6-0.4,1-0.8,1.4-1.4c0.4-0.6,0.6-1.2,0.8-1.9c0.2-0.7,0.2-1.4,0.2-2.1c0-1.3-0.3-2.6-0.8-3.8c-0.5-1.2-1.2-2.4-2-3.6
		c-0.8-1.2-1.7-2.3-2.6-3.5c-1-1.1-1.8-2.3-2.7-3.4c-0.8-1.1-1.5-2.3-2-3.4c-0.5-1.1-0.8-2.3-0.8-3.4c0-1,0.2-1.8,0.6-2.5
		c0.4-0.7,0.9-1.3,1.5-1.7c0.6-0.4,1.4-0.8,2.2-1c0.8-0.2,1.6-0.3,2.5-0.3c1,0,2,0.1,2.8,0.4c0.8,0.3,1.5,0.7,2.1,1.3
		c0.6,0.6,1,1.3,1.3,2.1c0.3,0.8,0.5,1.8,0.5,2.8c0,0.2,0,0.4,0,0.6c0,0.2-0.1,0.5-0.1,0.7c-0.1,0.2-0.2,0.4-0.3,0.6
		c-0.1,0.2-0.3,0.2-0.5,0.2c-0.3,0-0.6-0.1-0.9-0.2c-0.3-0.1-0.5-0.3-0.6-0.4c-0.2-0.1-0.3-0.3-0.4-0.4c-0.1-0.2-0.2-0.3-0.2-0.6
		c0-0.2-0.1-0.5-0.1-0.8c-0.1-0.6-0.2-1.1-0.3-1.5c-0.1-0.5-0.3-0.8-0.6-1.1c-0.2-0.3-0.6-0.6-1-0.7c-0.4-0.2-0.9-0.3-1.6-0.3
		c-0.5,0-0.9,0-1.3,0.1c-0.4,0.1-0.8,0.3-1.1,0.5c-0.3,0.2-0.5,0.5-0.7,0.9c-0.2,0.4-0.3,0.8-0.3,1.3c0,0.7,0.2,1.5,0.5,2.2
		c0.3,0.8,0.7,1.5,1.3,2.3c0.5,0.8,1.1,1.6,1.8,2.4c0.7,0.8,1.3,1.7,2.1,2.5c0.7,0.9,1.4,1.8,2.1,2.7c0.7,0.9,1.3,1.9,1.8,2.9
		c0.5,1,0.9,2,1.3,3.1C392.6,504.5,392.8,505.6,392.8,506.7z"/>
	<path d="M409.5,506.7c0,1.2-0.2,2.3-0.6,3.3c-0.4,1-0.9,1.9-1.6,2.7c-0.7,0.8-1.5,1.4-2.5,1.9c-1,0.5-2.1,0.7-3.3,0.7
		c-1.1,0-2-0.2-2.9-0.5c-0.9-0.3-1.7-0.8-2.3-1.4c-0.7-0.6-1.2-1.4-1.5-2.2c-0.4-0.9-0.6-1.9-0.6-2.9c0-0.2,0-0.5,0-0.8
		c0-0.3,0.1-0.6,0.2-0.9c0.1-0.3,0.2-0.6,0.4-0.8c0.2-0.2,0.4-0.3,0.7-0.3c0.2,0,0.5,0.1,0.8,0.2c0.3,0.1,0.6,0.2,0.9,0.4
		c0.3,0.2,0.5,0.4,0.7,0.6c0.2,0.2,0.3,0.5,0.3,0.8v1.4c0,1.1,0.3,2,0.9,2.6c0.6,0.7,1.4,1,2.5,1c0.8,0,1.5-0.2,2-0.5
		c0.6-0.4,1-0.8,1.4-1.4c0.4-0.6,0.6-1.2,0.8-1.9c0.2-0.7,0.2-1.4,0.2-2.1c0-1.3-0.3-2.6-0.8-3.8c-0.5-1.2-1.2-2.4-2-3.6
		c-0.8-1.2-1.7-2.3-2.6-3.5c-1-1.1-1.8-2.3-2.7-3.4c-0.8-1.1-1.5-2.3-2-3.4c-0.5-1.1-0.8-2.3-0.8-3.4c0-1,0.2-1.8,0.6-2.5
		c0.4-0.7,0.9-1.3,1.5-1.7c0.6-0.4,1.4-0.8,2.2-1c0.8-0.2,1.6-0.3,2.5-0.3c1,0,2,0.1,2.8,0.4c0.8,0.3,1.5,0.7,2.1,1.3
		c0.6,0.6,1,1.3,1.3,2.1c0.3,0.8,0.5,1.8,0.5,2.8c0,0.2,0,0.4,0,0.6c0,0.2-0.1,0.5-0.1,0.7c-0.1,0.2-0.2,0.4-0.3,0.6
		c-0.1,0.2-0.3,0.2-0.5,0.2c-0.3,0-0.6-0.1-0.9-0.2c-0.3-0.1-0.5-0.3-0.6-0.4c-0.2-0.1-0.3-0.3-0.4-0.4c-0.1-0.2-0.2-0.3-0.2-0.6
		c0-0.2-0.1-0.5-0.1-0.8c-0.1-0.6-0.2-1.1-0.3-1.5c-0.1-0.5-0.3-0.8-0.6-1.1c-0.2-0.3-0.6-0.6-1-0.7c-0.4-0.2-0.9-0.3-1.6-0.3
		c-0.5,0-0.9,0-1.3,0.1c-0.4,0.1-0.8,0.3-1.1,0.5c-0.3,0.2-0.5,0.5-0.7,0.9c-0.2,0.4-0.3,0.8-0.3,1.3c0,0.7,0.2,1.5,0.5,2.2
		c0.3,0.8,0.7,1.5,1.3,2.3c0.5,0.8,1.1,1.6,1.8,2.4c0.7,0.8,1.3,1.7,2.1,2.5c0.7,0.9,1.4,1.8,2.1,2.7c0.7,0.9,1.3,1.9,1.8,2.9
		c0.5,1,0.9,2,1.3,3.1C409.3,504.5,409.5,505.6,409.5,506.7z"/>
</g>
<g>
	<path d="M329.8,1138c0,0.3-0.1,0.5-0.3,0.8c-0.2,0.3-0.5,0.5-0.8,0.7c-0.3,0.2-0.6,0.4-0.9,0.6c-0.3,0.2-0.6,0.4-0.8,0.5
		c-0.5,0.3-1.1,0.7-1.6,1c-0.5,0.3-1.1,0.6-1.6,0.8c-0.6,0.2-1.1,0.4-1.7,0.5c-0.6,0.1-1.2,0.2-1.8,0.2l-0.4,0c-0.5,0-1-0.1-1.5-0.2
		c-0.5-0.1-1-0.3-1.4-0.5c-0.4-0.2-0.8-0.6-1.2-0.9c-0.3-0.4-0.6-0.8-0.8-1.4c-0.1-0.4-0.3-0.9-0.3-1.5c-0.1-0.6-0.1-1.2-0.2-1.8
		c0-0.6-0.1-1.2-0.1-1.8c0-0.6,0-1.1-0.1-1.6c-0.2-4.8-0.4-9.6-0.6-14.4c0-0.5-0.1-1.1-0.1-1.6c0-0.5,0-1.1,0-1.6
		c0-0.9,0.1-1.7,0.2-2.4c0.1-0.7,0.3-1.2,0.7-1.6c0.3-0.4,0.8-0.7,1.4-0.9c0.6-0.2,1.4-0.3,2.5-0.3c1,0,2,0,3.1,0c1,0,2.1,0,3.1,0
		c0.3,0,0.6,0,0.9,0c0.3,0,0.6,0,0.9,0.1c0.2,0,0.4,0.1,0.5,0.2c0.1,0.1,0.2,0.2,0.2,0.5c0,0.6-0.2,1-0.6,1.3s-0.8,0.5-1.3,0.6
		c-0.5,0.1-1.1,0.1-1.6,0.1c-0.6,0-1,0-1.4,0h-3c-0.3,0-0.6,0-0.9,0c-0.3,0-0.6,0-0.9,0c-0.1,0.2-0.2,0.5-0.2,0.7c0,0.3,0,0.5,0,0.8
		c0,1.7,0,3.4,0.1,5c0.1,1.7,0.2,3.3,0.2,5c1-0.1,1.9-0.2,2.9-0.3c1-0.1,1.9-0.2,2.9-0.4c0.1,0,0.3,0,0.4,0c0.1,0,0.2,0,0.4,0
		c0.3,0,0.6,0.1,0.7,0.3c0.1,0.2,0.2,0.4,0.2,0.7c0,0.2,0,0.4,0,0.6c0,0.2-0.1,0.4-0.2,0.6c-0.1,0.3-0.3,0.5-0.5,0.7
		c-0.3,0.1-0.5,0.2-0.8,0.3c-0.3,0.1-0.6,0.1-1,0.1c-0.3,0-0.6,0-0.9,0c-0.7,0-1.3,0.1-1.9,0.1c-0.6,0-1.3,0-1.9,0.1
		c0,0.3,0,0.8,0.1,1.5c0,0.7,0.1,1.4,0.1,2.2c0,0.8,0.1,1.7,0.1,2.5c0.1,0.9,0.1,1.7,0.2,2.5c0.1,0.8,0.1,1.5,0.2,2
		c0.1,0.6,0.2,1,0.2,1.2c0.2,0.3,0.4,0.5,0.6,0.6c0.2,0.1,0.5,0.2,0.9,0.2c0.6,0,1.2-0.1,1.8-0.3c0.6-0.2,1.3-0.5,1.9-0.9
		c0.6-0.4,1.2-0.7,1.7-1.2c0.6-0.4,1-0.8,1.4-1.2c0.2-0.1,0.3-0.3,0.5-0.4c0.2-0.1,0.4-0.2,0.6-0.2c0.2,0,0.5,0.1,0.7,0.2
		c0.2,0.1,0.4,0.3,0.6,0.5c0.2,0.2,0.3,0.4,0.4,0.7C329.7,1137.5,329.8,1137.7,329.8,1138z"/>
	<path d="M347.4,1126.3c0,1.7-0.1,3.3-0.4,4.9c-0.3,1.6-0.8,3.1-1.5,4.5c-0.7,1.4-1.6,2.7-2.7,3.8c-1.1,1.1-2.5,2.1-4.1,2.8
		c-0.4,0.2-0.8,0.4-1.3,0.5c-0.5,0.2-1,0.3-1.5,0.4c-0.5,0.1-1,0.2-1.5,0.3c-0.5,0.1-1,0.1-1.4,0.1c-0.2,0-0.4,0-0.6,0
		c-0.2,0-0.4,0-0.6-0.1c-0.2-0.1-0.3-0.1-0.5-0.3c-0.1-0.1-0.2-0.3-0.2-0.5c0-0.2,0-0.4,0.1-0.6c0.1-0.2,0.2-0.4,0.3-0.6
		c0.1-0.2,0.3-0.4,0.4-0.5c0.2-0.1,0.3-0.3,0.5-0.3c-0.1-0.1-0.2-0.5-0.2-1.1c-0.1-0.6-0.1-1.3-0.2-2.2c-0.1-0.9-0.1-1.9-0.2-3
		c0-1.1-0.1-2.2-0.1-3.4c0-1.2-0.1-2.3-0.1-3.5c0-1.2,0-2.2-0.1-3.2c0-1,0-1.8,0-2.6c0-0.7,0-1.3,0-1.6c0-1.5,0-2.9,0.1-4.3
		c0-1.4,0.1-2.9,0.1-4.3c-0.2,0-0.3,0-0.5-0.1c-0.1-0.1-0.2-0.2-0.2-0.4c0-0.2,0.1-0.5,0.2-0.7c0.1-0.2,0.3-0.4,0.5-0.6
		c0.2-0.2,0.4-0.3,0.7-0.4c0.2-0.1,0.5-0.1,0.7-0.1c0.2,0,0.4,0,0.6,0.1c0.2,0,0.4,0.1,0.6,0.1c2.1,0.5,3.9,1.3,5.6,2.3
		c1.6,1,3,2.3,4.1,3.7c1.1,1.5,1.9,3.1,2.5,4.9C347.1,1122.2,347.4,1124.1,347.4,1126.3z M343.9,1125.8c0-1.6-0.2-3-0.6-4.4
		c-0.4-1.4-0.9-2.6-1.7-3.8c-0.7-1.1-1.7-2.2-2.8-3c-1.1-0.9-2.4-1.6-3.9-2.2v0.1c0,4,0.1,8,0.2,12c0.1,4,0.3,8,0.6,12
		c0,0.6,0.1,1.2,0.1,1.8c0,0.6,0.1,1.2,0.2,1.8c1.5-0.5,2.7-1.2,3.7-2.3c1-1,1.8-2.2,2.4-3.5c0.6-1.3,1-2.7,1.3-4.2
		C343.8,1128.7,343.9,1127.2,343.9,1125.8z"/>
	<path d="M368.1,1143c0,0.2-0.1,0.3-0.3,0.5c-0.2,0.1-0.4,0.2-0.7,0.3c-0.3,0.1-0.5,0.1-0.8,0.2c-0.3,0-0.5,0-0.6,0
		c-0.3,0-0.6,0-0.8-0.1c-0.2-0.1-0.4-0.2-0.7-0.3c-0.1,0-0.3-0.2-0.6-0.6c-0.3-0.4-0.6-0.8-1.1-1.4c-0.4-0.6-0.9-1.2-1.5-1.9
		c-0.5-0.7-1.1-1.5-1.7-2.2c-0.6-0.8-1.1-1.5-1.7-2.3c-0.6-0.8-1.1-1.5-1.5-2.1c-0.5-0.6-0.9-1.2-1.2-1.7c-0.3-0.5-0.6-0.8-0.7-1
		l-0.1,0c0.1,1.9,0.2,3.7,0.4,5.6c0.1,1.9,0.4,3.7,0.8,5.5c0,0.2,0.1,0.4,0.2,0.6c0.1,0.2,0.1,0.4,0.1,0.6c0,0.4-0.1,0.6-0.4,0.7
		c-0.2,0.1-0.5,0.2-0.8,0.2c-0.2,0-0.3,0-0.6,0c-0.2,0-0.4,0-0.7-0.1c-0.2,0-0.4-0.1-0.6-0.2c-0.2-0.1-0.3-0.2-0.5-0.3
		c-0.2-0.2-0.4-0.4-0.4-0.6c-0.1-0.2-0.1-0.4-0.2-0.7c-0.5-3.1-0.7-6.3-0.9-9.5c-0.1-3.2-0.2-6.3-0.2-9.5c0-1.4,0-2.7,0-4.1
		c0-1.3,0-2.7,0.1-4.1c-0.2,0-0.4-0.1-0.5-0.2c-0.2-0.1-0.3-0.2-0.4-0.4c-0.1-0.2-0.2-0.3-0.3-0.5c-0.1-0.2-0.1-0.4-0.1-0.5
		s0-0.3,0.1-0.5c0.1-0.2,0.2-0.3,0.3-0.5c0.1-0.1,0.3-0.3,0.4-0.4c0.2-0.1,0.3-0.2,0.4-0.3v-0.4c0-0.2,0-0.3,0-0.5
		c0-0.2,0-0.4,0.1-0.6c0.1-0.2,0.1-0.3,0.3-0.4c0.1-0.1,0.3-0.2,0.6-0.2c0.3,0,0.7,0.1,1,0.2c0.3,0.1,0.6,0.3,0.8,0.6
		c1.2-0.5,2.4-0.7,3.7-0.7c1.1,0,2.2,0.2,3.1,0.7c0.9,0.5,1.7,1.1,2.4,1.8c0.7,0.8,1.2,1.7,1.5,2.7c0.4,1,0.5,2,0.5,3.1
		c0,1.2-0.2,2.3-0.7,3.4c-0.4,1.1-1,2.1-1.7,3.1c-0.7,1-1.5,1.9-2.4,2.7c-0.9,0.8-1.8,1.5-2.7,2.1c1.5,2,3,3.9,4.5,5.8
		c1.5,1.9,3.1,3.8,4.6,5.7c0.1,0.1,0.2,0.3,0.4,0.5c0.2,0.2,0.4,0.5,0.6,0.7c0.2,0.3,0.4,0.5,0.5,0.7
		C368,1142.7,368.1,1142.8,368.1,1143z M361.2,1117.2c0-0.6-0.1-1.2-0.3-1.8c-0.2-0.6-0.5-1.2-0.9-1.7c-0.4-0.5-0.8-0.9-1.3-1.3
		c-0.5-0.3-1.1-0.5-1.7-0.5c-0.5,0-1,0.1-1.5,0.2c-0.5,0.1-1,0.3-1.5,0.6c0,2.3,0.1,4.7,0.1,7c0,2.3,0.1,4.7,0.1,7l0.4,0
		c0.8-0.5,1.6-1,2.4-1.7c0.8-0.7,1.5-1.5,2.1-2.3c0.6-0.8,1.1-1.7,1.5-2.7C361,1119.1,361.2,1118.1,361.2,1117.2z"/>
	<path d="M384.7,1130.2c0,0.3-0.1,0.7-0.4,1s-0.5,0.6-0.8,0.8c-0.1,0-0.2,0.1-0.4,0.1c-0.2,0-0.4,0.1-0.6,0.1
		c-0.2,0-0.4,0.1-0.6,0.1c-0.2,0-0.3,0.1-0.5,0.1l0.6,3.5c0.2,1.1,0.3,2.2,0.4,3.2c0.1,1.1,0.3,2.2,0.6,3.2c0,0.1,0.1,0.2,0.1,0.3
		c0,0.1,0,0.2,0,0.3c0,0.2-0.1,0.4-0.2,0.5c-0.1,0.1-0.3,0.2-0.4,0.2c-0.2,0.1-0.3,0.1-0.5,0.1c-0.2,0-0.4,0-0.5,0h-0.3
		c-0.5,0-0.9,0-1.1-0.1c-0.3-0.1-0.5-0.2-0.6-0.4s-0.2-0.4-0.3-0.7s-0.1-0.6-0.2-1.1c-0.4-2.9-0.8-5.7-1.3-8.6
		c-1,0.1-1.9,0.2-2.9,0.4c-1,0.1-2,0.2-2.9,0.3l-0.8,4.6c0,0.3-0.1,0.7-0.1,1.1c-0.1,0.5-0.1,1-0.2,1.5c-0.1,0.5-0.1,1-0.2,1.4
		c-0.1,0.4-0.2,0.8-0.3,1c-0.1,0.2-0.2,0.3-0.3,0.4c-0.1,0.1-0.2,0.1-0.4,0.1c-0.3,0-0.6-0.1-0.8-0.2c-0.3-0.1-0.5-0.2-0.7-0.4
		c-0.2-0.2-0.4-0.4-0.5-0.6c-0.1-0.2-0.2-0.5-0.2-0.8s0-0.6,0.1-0.9c0.1-0.3,0.1-0.6,0.2-0.9c0.2-1,0.3-2.1,0.5-3.1
		c0.1-1,0.3-2,0.5-3.1c-0.1,0-0.2,0-0.4-0.1c-0.1,0-0.3-0.1-0.4-0.2c-0.1-0.1-0.2-0.1-0.3-0.2c-0.1-0.1-0.1-0.2-0.1-0.3
		c0-0.2,0.1-0.3,0.2-0.4c0.1-0.1,0.3-0.3,0.4-0.4c0.2-0.1,0.3-0.2,0.5-0.3c0.2-0.1,0.3-0.2,0.4-0.2c0.3-2.2,0.6-4.4,0.9-6.5
		c0.3-2.2,0.6-4.4,0.8-6.6c0.1-0.6,0.1-1.2,0.2-1.8c0-0.6,0.1-1.2,0.2-1.8c0.1-0.6,0.1-1.2,0.2-1.8c0.1-0.6,0.2-1.2,0.4-1.8
		c0.1-0.6,0.4-1,0.7-1.4c0.3-0.3,0.8-0.5,1.5-0.5c0.2,0,0.4,0,0.6,0s0.3,0.1,0.5,0.2c0.4,0.2,0.8,0.8,1.3,1.7c0.4,0.9,0.9,2,1.3,3.3
		c0.4,1.3,0.9,2.7,1.3,4.2c0.4,1.5,0.8,3,1.1,4.4c0.3,1.4,0.6,2.7,0.8,3.8c0.2,1.1,0.4,2,0.5,2.5c0.3,0,0.7-0.1,1-0.1
		c0.3,0,0.7-0.1,1-0.1c0.2,0,0.3,0,0.5,0c0.2,0,0.4,0.1,0.6,0.1c0.2,0.1,0.3,0.2,0.4,0.3C384.6,1129.8,384.7,1129.9,384.7,1130.2z
		 M377.3,1130c-0.4-2.2-0.8-4.4-1.3-6.6c-0.5-2.2-1-4.4-1.7-6.5c-0.3,2.4-0.6,4.7-0.9,7s-0.7,4.7-1.1,7c0.8-0.1,1.7-0.3,2.5-0.4
		C375.6,1130.3,376.5,1130.1,377.3,1130z"/>
	<path d="M400.3,1141.1c0,0.3,0,0.6-0.1,0.8c-0.1,0.3-0.1,0.5-0.3,0.7c-0.1,0.2-0.3,0.4-0.5,0.5c-0.2,0.1-0.5,0.2-0.8,0.2
		c-0.4,0-0.8-0.1-1-0.3c-0.3-0.2-0.5-0.4-0.7-0.8c-0.3-0.4-0.6-0.9-0.8-1.5c-0.2-0.6-0.4-1.1-0.6-1.7c-0.2-0.6-0.4-1.2-0.5-1.8
		c-0.2-0.6-0.3-1.1-0.5-1.6c-0.8-2.6-1.6-5.2-2.4-7.9c-0.7-2.6-1.5-5.2-2.3-7.9c-0.1,3.4-0.1,6.8-0.2,10.1c0,3.4-0.1,6.7-0.1,10.1
		c0,0.2,0,0.4,0,0.6c0,0.2-0.1,0.4-0.1,0.6c-0.1,0.2-0.2,0.4-0.3,0.5s-0.3,0.2-0.6,0.2c-0.8,0-1.4-0.2-1.8-0.6
		c-0.4-0.4-0.6-1-0.6-1.8c0-4.4,0-8.7,0-13.1c0-4.3,0-8.7,0-13v-3.3c0-0.4,0.1-0.7,0.2-0.9c0.1-0.2,0.4-0.4,0.9-0.4
		c0.3,0,0.6,0,1,0.1s0.6,0.2,0.9,0.4c0.3,0.2,0.5,0.4,0.6,0.7c0.2,0.3,0.2,0.6,0.2,1c0.7,1.3,1.2,2.5,1.7,3.9c0.4,1.3,0.9,2.7,1.3,4
		c0.6,2,1.2,3.9,1.8,5.9c0.6,2,1.2,3.9,1.8,5.9c-0.1-3-0.2-5.9-0.3-8.9c-0.1-2.9-0.3-5.9-0.6-8.8c-0.1-0.6-0.2-1.3-0.3-1.9
		c-0.1-0.6-0.2-1.2-0.2-1.9c0-0.3,0.1-0.6,0.3-0.7c0.2-0.1,0.5-0.2,0.8-0.2c0.5,0,0.9,0,1.2,0.1c0.3,0.1,0.6,0.2,0.9,0.4
		c0.2,0.2,0.4,0.4,0.5,0.8c0.1,0.3,0.2,0.7,0.3,1.2c0.1,0.8,0.2,1.7,0.2,2.5c0.1,0.9,0.1,1.7,0.2,2.5c0.1,2.1,0.2,4.2,0.3,6.2
		c0.1,2.1,0.1,4.1,0.2,6.2c0,2.1,0.1,4.2,0.2,6.2C400.3,1137,400.3,1139,400.3,1141.1z"/>
	<path d="M419.5,1125.1c0,0.7,0,1.4,0,2.3c0,0.9-0.1,1.8-0.2,2.8s-0.2,2-0.4,3c-0.2,1-0.4,2-0.6,3c-0.3,1-0.6,1.9-1,2.8
		c-0.4,0.9-0.9,1.6-1.4,2.3c-0.5,0.7-1.2,1.2-1.9,1.6c-0.7,0.4-1.5,0.6-2.5,0.6c-0.9,0-1.8-0.2-2.5-0.6c-0.8-0.4-1.4-1-1.9-1.7
		c-0.4-0.6-0.8-1.3-1.1-2.1c-0.3-0.8-0.6-1.7-0.8-2.7c-0.2-1-0.4-2-0.6-3c-0.2-1-0.3-2.1-0.4-3.1c-0.1-1-0.2-2-0.2-2.9
		c0-0.9-0.1-1.7-0.1-2.4c0-1.2,0.1-2.4,0.2-3.6c0.1-1.3,0.3-2.5,0.6-3.8c0.3-1.2,0.7-2.4,1.1-3.6c0.5-1.2,1.1-2.2,1.9-3.1
		c0.1-0.1,0.2-0.2,0.3-0.3c0.1-0.1,0.2-0.2,0.4-0.4c0.1-0.1,0.3-0.2,0.4-0.3c0.1-0.1,0.3-0.1,0.4-0.1c0.1,0,0.3,0,0.4,0.1
		c0.1,0.1,0.2,0.2,0.3,0.3c0.3-0.2,0.7-0.3,1-0.4c0.4-0.1,0.7-0.1,1.1-0.1c1.1,0,2.1,0.3,2.9,0.8c0.8,0.5,1.5,1.2,2.1,2.1
		c0.5,0.9,1,1.9,1.3,3c0.3,1.1,0.6,2.2,0.8,3.4c0.2,1.2,0.3,2.3,0.3,3.4S419.5,1124.2,419.5,1125.1z M415.8,1126.1c0-0.4,0-1,0-1.9
		c0-0.8-0.1-1.8-0.2-2.8c-0.1-1-0.2-2-0.4-3.1c-0.2-1.1-0.4-2-0.7-2.9c-0.3-0.9-0.6-1.6-1-2.1c-0.4-0.6-0.9-0.8-1.5-0.8
		c-0.2,0-0.4,0.1-0.6,0.3c-0.2,0.2-0.4,0.5-0.5,0.8c-0.2,0.3-0.3,0.7-0.5,1.1c-0.1,0.4-0.3,0.8-0.4,1.2c-0.1,0.4-0.3,0.7-0.4,1
		c-0.1,0.3-0.3,0.5-0.4,0.6c0,0-0.1,0.1-0.2,0.1c-0.1,0-0.2,0-0.3,0c-0.3,0-0.5,0-0.8-0.1c-0.3,1.1-0.4,2.1-0.6,3.2
		c-0.1,1.1-0.2,2.1-0.2,3.2c0,0.3,0,0.8,0,1.5c0,0.7,0.1,1.4,0.1,2.3c0.1,0.8,0.1,1.8,0.3,2.7c0.1,1,0.2,1.9,0.4,2.9
		c0.2,1,0.3,1.9,0.6,2.8c0.2,0.9,0.5,1.7,0.7,2.3c0.3,0.7,0.6,1.2,0.9,1.6c0.3,0.4,0.7,0.6,1.1,0.6c0.2,0,0.4-0.1,0.6-0.2
		c0.2-0.1,0.4-0.3,0.5-0.4c0.5-0.4,0.9-1,1.2-1.7c0.3-0.7,0.6-1.4,0.9-2.3s0.4-1.7,0.6-2.6c0.2-0.9,0.3-1.8,0.4-2.7s0.1-1.7,0.2-2.5
		C415.8,1127.4,415.8,1126.7,415.8,1126.1z"/>
	<path d="M436.4,1139.6c0,0.4-0.2,0.7-0.6,1s-0.9,0.6-1.5,0.9c-0.6,0.3-1.3,0.5-2,0.8c-0.7,0.2-1.4,0.4-2.1,0.6
		c-0.7,0.2-1.3,0.3-1.9,0.4c-0.6,0.1-1,0.1-1.3,0.1c-0.5,0-1-0.1-1.5-0.2c-0.4-0.1-0.8-0.3-1.2-0.6c-0.3-0.3-0.6-0.6-0.8-1
		c-0.2-0.4-0.3-0.9-0.3-1.5c0-4.2,0-8.3,0-12.5c0-4.1,0-8.3,0-12.5c0-0.7,0-1.3,0-1.9c0-0.6,0-1.3,0-1.9c0-0.2,0-0.3,0-0.6
		c0-0.2,0.1-0.4,0.1-0.6c0.1-0.2,0.2-0.3,0.3-0.5c0.1-0.1,0.3-0.2,0.5-0.2c0.2,0,0.4,0,0.7,0.1c0.2,0.1,0.5,0.2,0.7,0.3
		c0.2,0.1,0.4,0.3,0.6,0.5c0.2,0.2,0.3,0.4,0.4,0.6c0.1,0.3,0.1,0.6,0.1,0.9c0,0.3,0,0.6,0,1c0.1,4.2,0.1,8.3,0.2,12.4
		s0.1,8.2,0.1,12.4c0,0.5,0,0.9,0,1.4c0,0.5,0,0.9,0.1,1.4c0.4,0,0.9-0.1,1.5-0.2c0.6-0.1,1.2-0.3,1.8-0.5c0.6-0.2,1.2-0.4,1.7-0.7
		c0.5-0.2,1-0.5,1.3-0.8c0.1-0.1,0.3-0.3,0.4-0.4s0.4-0.2,0.6-0.2c0.2,0,0.4,0.1,0.6,0.2c0.2,0.1,0.4,0.3,0.6,0.5
		c0.2,0.2,0.3,0.4,0.5,0.7C436.3,1139.2,436.4,1139.4,436.4,1139.6z"/>
</g>
<g>
	<path d="M264.3,1808.7c0,0.3,0,0.6-0.1,0.8c-0.1,0.3-0.1,0.5-0.3,0.7c-0.1,0.2-0.3,0.4-0.5,0.5c-0.2,0.1-0.5,0.2-0.8,0.2
		c-0.4,0-0.8-0.1-1-0.3c-0.3-0.2-0.5-0.4-0.7-0.8c-0.3-0.4-0.6-0.9-0.8-1.5c-0.2-0.6-0.4-1.1-0.6-1.7c-0.2-0.6-0.4-1.2-0.5-1.8
		c-0.2-0.6-0.3-1.1-0.5-1.6c-0.8-2.6-1.6-5.2-2.4-7.9c-0.7-2.6-1.5-5.2-2.3-7.9c-0.1,3.4-0.1,6.8-0.2,10.1c0,3.4-0.1,6.7-0.1,10.1
		c0,0.2,0,0.4,0,0.6c0,0.2-0.1,0.4-0.1,0.6c-0.1,0.2-0.2,0.4-0.3,0.5c-0.1,0.1-0.3,0.2-0.6,0.2c-0.8,0-1.4-0.2-1.8-0.6
		c-0.4-0.4-0.6-1-0.6-1.8c0-4.4,0-8.7,0-13.1c0-4.3,0-8.7,0-13v-3.3c0-0.4,0.1-0.7,0.2-0.9c0.1-0.2,0.4-0.4,0.9-0.4
		c0.3,0,0.6,0,1,0.1c0.3,0.1,0.6,0.2,0.9,0.4c0.3,0.2,0.5,0.4,0.6,0.7c0.2,0.3,0.2,0.6,0.2,1c0.7,1.3,1.2,2.5,1.7,3.9
		c0.4,1.3,0.9,2.7,1.3,4c0.6,2,1.2,3.9,1.8,5.9c0.6,2,1.2,3.9,1.8,5.9c-0.1-3-0.2-5.9-0.3-8.9c-0.1-2.9-0.3-5.9-0.6-8.8
		c-0.1-0.6-0.2-1.3-0.3-1.9c-0.1-0.6-0.2-1.2-0.2-1.9c0-0.3,0.1-0.5,0.3-0.7c0.2-0.1,0.5-0.2,0.8-0.2c0.5,0,0.9,0,1.2,0.1
		c0.3,0.1,0.6,0.2,0.9,0.4c0.2,0.2,0.4,0.4,0.5,0.8c0.1,0.3,0.2,0.7,0.3,1.2c0.1,0.8,0.2,1.7,0.2,2.5c0.1,0.9,0.1,1.7,0.2,2.5
		c0.1,2.1,0.2,4.2,0.3,6.2c0.1,2.1,0.1,4.1,0.2,6.2c0,2.1,0.1,4.2,0.2,6.2C264.2,1804.5,264.3,1806.6,264.3,1808.7z"/>
	<path d="M284.4,1805.5c0,0.3-0.1,0.5-0.3,0.8c-0.2,0.2-0.5,0.5-0.8,0.7c-0.3,0.2-0.6,0.4-0.9,0.6c-0.3,0.2-0.6,0.4-0.8,0.5
		c-0.5,0.3-1.1,0.7-1.6,1c-0.5,0.3-1.1,0.6-1.6,0.8c-0.6,0.2-1.1,0.4-1.7,0.5c-0.6,0.1-1.2,0.2-1.8,0.2l-0.4,0c-0.5,0-1-0.1-1.5-0.2
		c-0.5-0.1-1-0.3-1.4-0.5c-0.4-0.2-0.8-0.5-1.2-0.9c-0.3-0.4-0.6-0.8-0.8-1.4c-0.1-0.4-0.2-0.9-0.3-1.5c-0.1-0.6-0.1-1.2-0.2-1.8
		s-0.1-1.2-0.1-1.8c0-0.6,0-1.1-0.1-1.6c-0.2-4.8-0.4-9.6-0.6-14.4c0-0.5-0.1-1.1-0.1-1.6c0-0.5,0-1.1,0-1.6c0-0.9,0.1-1.7,0.2-2.4
		c0.1-0.7,0.3-1.2,0.7-1.6c0.3-0.4,0.8-0.7,1.4-0.9c0.6-0.2,1.4-0.3,2.5-0.3c1,0,2,0,3.1,0c1,0,2.1,0,3.1,0c0.3,0,0.6,0,0.9,0
		c0.3,0,0.6,0,0.9,0.1c0.2,0,0.4,0.1,0.5,0.2c0.1,0.1,0.2,0.2,0.2,0.5c0,0.6-0.2,1-0.6,1.3c-0.4,0.3-0.8,0.5-1.3,0.6
		c-0.5,0.1-1.1,0.1-1.6,0.1c-0.6,0-1,0-1.4,0h-3c-0.3,0-0.6,0-0.9,0s-0.6,0-0.9,0c-0.1,0.2-0.2,0.5-0.2,0.7c0,0.2,0,0.5,0,0.8
		c0,1.7,0,3.4,0.1,5c0.1,1.7,0.2,3.3,0.2,5c1-0.1,1.9-0.2,2.9-0.3c1-0.1,1.9-0.2,2.9-0.4c0.1,0,0.3,0,0.4,0c0.1,0,0.2,0,0.4,0
		c0.3,0,0.6,0.1,0.7,0.3c0.1,0.2,0.2,0.4,0.2,0.7c0,0.2,0,0.4,0,0.6c0,0.2-0.1,0.4-0.2,0.6c-0.1,0.3-0.3,0.5-0.5,0.7
		c-0.3,0.1-0.5,0.2-0.8,0.3c-0.3,0.1-0.6,0.1-1,0.1c-0.3,0-0.6,0-0.9,0c-0.7,0-1.3,0.1-1.9,0.1c-0.6,0-1.3,0-1.9,0.1
		c0,0.3,0,0.8,0.1,1.5c0,0.7,0.1,1.4,0.1,2.2c0,0.8,0.1,1.7,0.1,2.5c0.1,0.9,0.1,1.7,0.2,2.5c0.1,0.8,0.1,1.5,0.2,2
		c0.1,0.6,0.2,1,0.2,1.2c0.2,0.3,0.4,0.5,0.6,0.6c0.2,0.1,0.5,0.2,0.9,0.2c0.6,0,1.2-0.1,1.8-0.3s1.3-0.5,1.9-0.9
		c0.6-0.4,1.2-0.7,1.7-1.2c0.6-0.4,1-0.8,1.4-1.2c0.2-0.1,0.3-0.3,0.5-0.4c0.2-0.1,0.4-0.2,0.6-0.2c0.2,0,0.5,0.1,0.7,0.2
		c0.2,0.1,0.4,0.3,0.6,0.5c0.2,0.2,0.3,0.4,0.4,0.7C284.3,1805.1,284.4,1805.3,284.4,1805.5z"/>
	<path d="M303.1,1793.8c0,0.5-0.1,0.9-0.3,1.2c-0.2,0.3-0.4,0.5-0.7,0.6c-0.3,0.1-0.6,0.2-1,0.3c-0.4,0-0.7,0.1-1.1,0.1
		c0.8,0.9,1.5,1.9,2,3c0.5,1.1,0.8,2.3,0.8,3.5c0,1.2-0.2,2.4-0.6,3.5c-0.4,1.1-1,2.2-1.7,3.1c-0.8,0.9-1.7,1.6-2.7,2.2
		s-2.2,0.8-3.5,0.8c-1,0-1.9-0.2-2.7-0.6c-0.8-0.4-1.5-0.9-2.2-1.6c-0.6-0.7-1.2-1.5-1.7-2.4c-0.5-0.9-0.9-1.9-1.2-2.9
		c-0.3-1-0.6-2.1-0.9-3.2c-0.2-1.1-0.4-2.2-0.5-3.2c-0.1-1-0.2-2-0.3-3c-0.1-0.9-0.1-1.8-0.1-2.5c0-0.9,0-1.8,0.1-2.8
		c0.1-1,0.2-2,0.4-3c0.2-1,0.5-2,0.8-3c0.3-1,0.8-1.9,1.3-2.7c0.5-0.8,1.2-1.5,1.9-2.2c0.7-0.6,1.6-1.1,2.5-1.4
		c0.4-0.1,0.7-0.2,1.1-0.3c0.4-0.1,0.7-0.1,1.1-0.1c1.6,0,2.9,0.4,3.9,1.3c1,0.8,1.8,2,2.3,3.4c0.1,0.2,0.2,0.4,0.2,0.7
		c0.1,0.2,0.1,0.5,0.1,0.7c0,0.3-0.1,0.5-0.3,0.5c-0.2,0.1-0.4,0.1-0.6,0.1c-0.6,0-1-0.1-1.4-0.3c-0.3-0.2-0.6-0.5-0.9-0.8
		c-0.2-0.3-0.4-0.6-0.6-1c-0.2-0.4-0.4-0.7-0.6-1s-0.5-0.5-0.8-0.8c-0.3-0.2-0.8-0.3-1.3-0.3c-0.8,0-1.5,0.2-2.1,0.7
		c-0.6,0.4-1.1,1-1.5,1.7c-0.4,0.7-0.8,1.5-1.1,2.4c-0.3,0.9-0.5,1.8-0.7,2.7s-0.3,1.8-0.4,2.6c-0.1,0.8-0.1,1.5-0.1,2.1
		c0,0.6,0,1.5,0.1,2.5c0.1,1.1,0.2,2.3,0.4,3.5c0.2,1.3,0.4,2.6,0.7,3.9c0.3,1.3,0.7,2.5,1.1,3.6c0.5,1.1,1,1.9,1.6,2.6
		c0.6,0.7,1.4,1,2.2,1c0.7,0,1.4-0.2,2-0.6c0.6-0.4,1.1-1,1.5-1.6c0.4-0.6,0.7-1.3,1-2.1c0.2-0.7,0.3-1.4,0.3-2.1
		c0-0.6-0.1-1.2-0.3-1.8c-0.2-0.6-0.4-1.2-0.7-1.7c-0.3-0.5-0.7-1-1.1-1.5c-0.4-0.5-0.9-0.8-1.5-1.2c-0.2-0.1-0.4-0.2-0.6-0.3
		c-0.2-0.1-0.5-0.2-0.7-0.3c-0.1,0-0.4,0-0.7-0.1c-0.4,0-0.7-0.1-1.1-0.1c-0.4,0-0.7-0.1-1-0.2c-0.3-0.1-0.4-0.3-0.4-0.5
		c0-0.3,0-0.6,0.1-0.9c0.1-0.3,0.2-0.6,0.4-0.8c0.2-0.2,0.4-0.4,0.6-0.6c0.2-0.2,0.5-0.2,0.8-0.2c0.5,0,0.9,0.1,1.5,0.2
		c0.5,0.1,1,0.3,1.4,0.5c0.8,0,1.6-0.1,2.3-0.2c0.8-0.1,1.5-0.1,2.3-0.2c0.3,0,0.5-0.1,0.8-0.1c0.3,0,0.5-0.1,0.8-0.1
		c0.4,0,0.7,0.1,0.8,0.3C303.1,1793.1,303.1,1793.4,303.1,1793.8z"/>
	<path d="M323.9,1810.5c0,0.2-0.1,0.3-0.3,0.5c-0.2,0.1-0.4,0.2-0.7,0.3c-0.3,0.1-0.5,0.1-0.8,0.2c-0.3,0-0.4,0-0.6,0
		c-0.3,0-0.6,0-0.8-0.1c-0.2-0.1-0.4-0.2-0.7-0.3c-0.1,0-0.3-0.2-0.6-0.6c-0.3-0.4-0.6-0.8-1.1-1.4c-0.4-0.6-0.9-1.2-1.5-1.9
		c-0.5-0.7-1.1-1.5-1.7-2.2c-0.6-0.8-1.1-1.5-1.7-2.3c-0.6-0.8-1.1-1.5-1.5-2.1s-0.9-1.2-1.2-1.7c-0.3-0.5-0.6-0.8-0.7-1l-0.1,0
		c0.1,1.9,0.2,3.7,0.4,5.6c0.1,1.9,0.4,3.7,0.8,5.5c0,0.2,0.1,0.4,0.2,0.6c0.1,0.2,0.1,0.4,0.1,0.6c0,0.4-0.1,0.6-0.4,0.7
		c-0.2,0.1-0.5,0.2-0.8,0.2c-0.2,0-0.3,0-0.6,0c-0.2,0-0.4,0-0.7-0.1c-0.2,0-0.4-0.1-0.6-0.2c-0.2-0.1-0.3-0.2-0.5-0.3
		c-0.2-0.2-0.4-0.4-0.4-0.6c-0.1-0.2-0.1-0.4-0.2-0.7c-0.5-3.1-0.7-6.3-0.9-9.5c-0.1-3.2-0.2-6.3-0.2-9.5c0-1.4,0-2.7,0-4.1
		c0-1.3,0-2.7,0.1-4.1c-0.2,0-0.4-0.1-0.5-0.2c-0.2-0.1-0.3-0.2-0.4-0.4c-0.1-0.2-0.2-0.3-0.3-0.5c-0.1-0.2-0.1-0.4-0.1-0.5
		c0-0.2,0-0.3,0.1-0.5c0.1-0.2,0.2-0.3,0.3-0.5c0.1-0.1,0.3-0.3,0.4-0.4c0.2-0.1,0.3-0.2,0.4-0.3v-0.4c0-0.2,0-0.3,0-0.5
		c0-0.2,0-0.4,0.1-0.6c0.1-0.2,0.1-0.3,0.3-0.4c0.1-0.1,0.3-0.2,0.6-0.2c0.3,0,0.7,0.1,1,0.2c0.3,0.1,0.6,0.3,0.8,0.6
		c1.2-0.5,2.4-0.7,3.7-0.7c1.1,0,2.2,0.2,3.1,0.7c0.9,0.5,1.7,1.1,2.4,1.8c0.7,0.8,1.2,1.6,1.5,2.7c0.4,1,0.5,2,0.5,3.1
		c0,1.2-0.2,2.3-0.7,3.4c-0.4,1.1-1,2.1-1.7,3.1c-0.7,1-1.5,1.9-2.4,2.7c-0.9,0.8-1.8,1.5-2.7,2.1c1.5,2,3,3.9,4.5,5.8
		c1.5,1.9,3.1,3.8,4.6,5.7c0.1,0.1,0.2,0.3,0.4,0.5s0.4,0.5,0.6,0.7c0.2,0.3,0.4,0.5,0.5,0.7
		C323.8,1810.2,323.9,1810.4,323.9,1810.5z M317,1784.7c0-0.6-0.1-1.2-0.3-1.8c-0.2-0.6-0.5-1.2-0.9-1.7c-0.4-0.5-0.8-0.9-1.3-1.3
		c-0.5-0.3-1.1-0.5-1.7-0.5c-0.5,0-1,0.1-1.5,0.2c-0.5,0.1-1,0.3-1.5,0.6c0,2.3,0.1,4.7,0.1,7c0,2.3,0.1,4.7,0.1,7l0.4,0
		c0.8-0.5,1.6-1,2.4-1.7c0.8-0.7,1.5-1.5,2.1-2.3c0.6-0.8,1.1-1.7,1.5-2.7C316.8,1786.7,317,1785.7,317,1784.7z"/>
	<path d="M340.4,1797.7c0,0.3-0.1,0.7-0.4,1c-0.2,0.4-0.5,0.6-0.8,0.8c-0.1,0-0.2,0.1-0.4,0.1c-0.2,0-0.4,0.1-0.6,0.1
		c-0.2,0-0.4,0.1-0.6,0.1c-0.2,0-0.3,0.1-0.5,0.1l0.6,3.5c0.2,1.1,0.3,2.2,0.4,3.2c0.1,1.1,0.3,2.2,0.6,3.2c0,0.1,0.1,0.2,0.1,0.3
		c0,0.1,0,0.2,0,0.3c0,0.2-0.1,0.4-0.2,0.5c-0.1,0.1-0.3,0.2-0.4,0.2c-0.2,0.1-0.3,0.1-0.5,0.1c-0.2,0-0.4,0-0.5,0H337
		c-0.5,0-0.9,0-1.1-0.1c-0.3-0.1-0.5-0.2-0.6-0.4c-0.1-0.2-0.2-0.4-0.3-0.7c0-0.3-0.1-0.6-0.2-1.1c-0.4-2.9-0.8-5.7-1.3-8.6
		c-1,0.1-1.9,0.2-2.9,0.4c-1,0.1-2,0.2-2.9,0.3l-0.8,4.6c0,0.3-0.1,0.7-0.1,1.1c-0.1,0.5-0.1,1-0.2,1.5c-0.1,0.5-0.1,1-0.2,1.4
		c-0.1,0.4-0.2,0.8-0.3,1c-0.1,0.2-0.2,0.3-0.3,0.4c-0.1,0.1-0.2,0.1-0.4,0.1c-0.3,0-0.6-0.1-0.8-0.2c-0.3-0.1-0.5-0.2-0.7-0.4
		c-0.2-0.2-0.4-0.4-0.5-0.6c-0.1-0.2-0.2-0.5-0.2-0.8c0-0.3,0-0.6,0.1-0.9c0.1-0.3,0.1-0.6,0.2-0.9c0.2-1,0.3-2.1,0.5-3.1
		c0.1-1,0.3-2,0.5-3.1c-0.1,0-0.2,0-0.4-0.1c-0.1,0-0.3-0.1-0.4-0.2c-0.1-0.1-0.2-0.1-0.3-0.2c-0.1-0.1-0.1-0.2-0.1-0.3
		c0-0.2,0.1-0.3,0.2-0.4c0.1-0.1,0.3-0.3,0.4-0.4c0.2-0.1,0.3-0.2,0.5-0.3c0.2-0.1,0.3-0.2,0.4-0.2c0.3-2.2,0.6-4.4,0.9-6.5
		c0.3-2.2,0.6-4.4,0.8-6.6c0.1-0.6,0.1-1.2,0.2-1.8s0.1-1.2,0.2-1.8c0.1-0.6,0.1-1.2,0.2-1.8c0.1-0.6,0.2-1.2,0.4-1.8
		c0.1-0.6,0.4-1,0.7-1.4c0.3-0.3,0.8-0.5,1.5-0.5c0.2,0,0.4,0,0.6,0c0.2,0,0.3,0.1,0.5,0.2c0.4,0.2,0.8,0.8,1.3,1.7
		c0.4,0.9,0.9,2,1.3,3.3c0.4,1.3,0.9,2.7,1.3,4.2c0.4,1.5,0.8,3,1.1,4.4c0.3,1.4,0.6,2.7,0.8,3.8c0.2,1.1,0.4,2,0.5,2.5
		c0.3,0,0.7-0.1,1-0.1c0.3,0,0.7-0.1,1-0.1c0.2,0,0.3,0,0.5,0c0.2,0,0.4,0.1,0.6,0.1s0.3,0.2,0.4,0.3
		C340.4,1797.3,340.4,1797.5,340.4,1797.7z M333.1,1797.5c-0.4-2.2-0.8-4.4-1.3-6.6c-0.5-2.2-1-4.4-1.7-6.5c-0.3,2.4-0.6,4.7-0.9,7
		c-0.3,2.3-0.7,4.7-1.1,7c0.8-0.1,1.7-0.3,2.5-0.4C331.4,1797.9,332.2,1797.7,333.1,1797.5z"/>
	<path d="M364.7,1793.8c0,1.7-0.1,3.3-0.4,4.9c-0.3,1.6-0.8,3.1-1.5,4.5c-0.7,1.4-1.6,2.7-2.7,3.8c-1.1,1.1-2.5,2.1-4.1,2.8
		c-0.4,0.2-0.8,0.4-1.3,0.5c-0.5,0.2-1,0.3-1.5,0.4c-0.5,0.1-1,0.2-1.5,0.3c-0.5,0.1-1,0.1-1.4,0.1c-0.2,0-0.4,0-0.6,0
		c-0.2,0-0.4,0-0.6-0.1c-0.2-0.1-0.3-0.1-0.5-0.3c-0.1-0.1-0.2-0.3-0.2-0.5c0-0.2,0-0.4,0.1-0.6c0.1-0.2,0.2-0.4,0.3-0.6
		s0.3-0.4,0.4-0.5c0.2-0.1,0.3-0.3,0.5-0.3c-0.1-0.1-0.2-0.5-0.2-1.1c-0.1-0.6-0.1-1.3-0.2-2.2c-0.1-0.9-0.1-1.9-0.2-3
		c0-1.1-0.1-2.2-0.1-3.4c0-1.2-0.1-2.3-0.1-3.5c0-1.2,0-2.2-0.1-3.2c0-1,0-1.8,0-2.6c0-0.7,0-1.3,0-1.6c0-1.5,0-2.9,0.1-4.3
		c0-1.4,0.1-2.9,0.1-4.3c-0.2,0-0.3,0-0.5-0.1c-0.1-0.1-0.2-0.2-0.2-0.4c0-0.2,0.1-0.5,0.2-0.7c0.1-0.2,0.3-0.4,0.5-0.6
		s0.4-0.3,0.7-0.4c0.2-0.1,0.5-0.1,0.7-0.1s0.4,0,0.6,0.1c0.2,0,0.4,0.1,0.6,0.1c2.1,0.5,3.9,1.3,5.6,2.3c1.6,1,3,2.3,4.1,3.7
		c1.1,1.5,1.9,3.1,2.5,4.9C364.4,1789.7,364.7,1791.7,364.7,1793.8z M361.2,1793.4c0-1.6-0.2-3-0.6-4.4c-0.4-1.4-0.9-2.6-1.7-3.8
		c-0.7-1.1-1.7-2.2-2.8-3.1c-1.1-0.9-2.4-1.6-3.9-2.2v0.1c0,4,0.1,8,0.2,12s0.3,8,0.6,12c0,0.6,0.1,1.2,0.1,1.8
		c0,0.6,0.1,1.2,0.2,1.8c1.5-0.5,2.7-1.2,3.7-2.3c1-1,1.8-2.2,2.4-3.5c0.6-1.3,1-2.7,1.3-4.2
		C361.1,1796.2,361.2,1794.8,361.2,1793.4z"/>
	<path d="M383.3,1805.5c0,0.3-0.1,0.5-0.3,0.8c-0.2,0.2-0.5,0.5-0.8,0.7c-0.3,0.2-0.6,0.4-0.9,0.6c-0.3,0.2-0.6,0.4-0.8,0.5
		c-0.5,0.3-1.1,0.7-1.6,1c-0.5,0.3-1.1,0.6-1.6,0.8c-0.6,0.2-1.1,0.4-1.7,0.5c-0.6,0.1-1.2,0.2-1.8,0.2l-0.4,0c-0.5,0-1-0.1-1.5-0.2
		c-0.5-0.1-1-0.3-1.4-0.5c-0.4-0.2-0.8-0.5-1.2-0.9c-0.3-0.4-0.6-0.8-0.8-1.4c-0.1-0.4-0.3-0.9-0.3-1.5c-0.1-0.6-0.1-1.2-0.2-1.8
		c0-0.6-0.1-1.2-0.1-1.8c0-0.6,0-1.1-0.1-1.6c-0.2-4.8-0.4-9.6-0.6-14.4c0-0.5-0.1-1.1-0.1-1.6c0-0.5,0-1.1,0-1.6
		c0-0.9,0.1-1.7,0.2-2.4s0.3-1.2,0.7-1.6c0.3-0.4,0.8-0.7,1.4-0.9s1.4-0.3,2.5-0.3c1,0,2,0,3.1,0c1,0,2.1,0,3.1,0c0.3,0,0.6,0,0.9,0
		c0.3,0,0.6,0,0.9,0.1c0.2,0,0.4,0.1,0.5,0.2c0.1,0.1,0.2,0.2,0.2,0.5c0,0.6-0.2,1-0.6,1.3c-0.4,0.3-0.8,0.5-1.3,0.6
		c-0.5,0.1-1.1,0.1-1.6,0.1c-0.6,0-1,0-1.4,0h-3c-0.3,0-0.6,0-0.9,0c-0.3,0-0.6,0-0.9,0c-0.1,0.2-0.2,0.5-0.2,0.7c0,0.2,0,0.5,0,0.8
		c0,1.7,0,3.4,0.1,5s0.2,3.3,0.2,5c1-0.1,1.9-0.2,2.9-0.3s1.9-0.2,2.9-0.4c0.1,0,0.3,0,0.4,0c0.1,0,0.2,0,0.4,0
		c0.3,0,0.6,0.1,0.7,0.3c0.1,0.2,0.2,0.4,0.2,0.7c0,0.2,0,0.4,0,0.6c0,0.2-0.1,0.4-0.2,0.6c-0.1,0.3-0.3,0.5-0.5,0.7
		s-0.5,0.2-0.8,0.3c-0.3,0.1-0.6,0.1-1,0.1s-0.6,0-0.9,0c-0.7,0-1.3,0.1-1.9,0.1c-0.6,0-1.3,0-1.9,0.1c0,0.3,0,0.8,0.1,1.5
		c0,0.7,0.1,1.4,0.1,2.2c0,0.8,0.1,1.7,0.1,2.5c0.1,0.9,0.1,1.7,0.2,2.5c0.1,0.8,0.1,1.5,0.2,2c0.1,0.6,0.2,1,0.2,1.2
		c0.2,0.3,0.4,0.5,0.6,0.6c0.2,0.1,0.5,0.2,0.9,0.2c0.6,0,1.2-0.1,1.8-0.3c0.6-0.2,1.3-0.5,1.9-0.9c0.6-0.4,1.2-0.7,1.7-1.2
		c0.6-0.4,1-0.8,1.4-1.2c0.2-0.1,0.3-0.3,0.5-0.4c0.2-0.1,0.4-0.2,0.6-0.2c0.2,0,0.5,0.1,0.7,0.2s0.4,0.3,0.6,0.5
		c0.2,0.2,0.3,0.4,0.4,0.7C383.3,1805.1,383.3,1805.3,383.3,1805.5z"/>
	<path d="M405.3,1807.2c0,0.4-0.2,0.7-0.6,1c-0.4,0.3-0.9,0.6-1.5,0.9c-0.6,0.3-1.3,0.5-2,0.8c-0.7,0.2-1.4,0.4-2.1,0.6
		c-0.7,0.2-1.3,0.3-1.9,0.4c-0.6,0.1-1,0.1-1.3,0.1c-0.5,0-1-0.1-1.5-0.2c-0.4-0.1-0.8-0.3-1.2-0.6c-0.3-0.3-0.6-0.6-0.8-1
		c-0.2-0.4-0.3-0.9-0.3-1.5c0-4.2,0-8.3,0-12.5c0-4.1,0-8.3,0-12.5c0-0.7,0-1.3,0-1.9c0-0.6,0-1.3,0-1.9c0-0.2,0-0.3,0-0.5
		c0-0.2,0.1-0.4,0.1-0.6c0.1-0.2,0.2-0.3,0.3-0.5c0.1-0.1,0.3-0.2,0.5-0.2c0.2,0,0.4,0,0.7,0.1c0.2,0.1,0.5,0.2,0.7,0.3
		c0.2,0.1,0.4,0.3,0.6,0.5c0.2,0.2,0.3,0.4,0.4,0.6c0.1,0.3,0.1,0.6,0.1,0.9c0,0.3,0,0.6,0,1c0.1,4.2,0.1,8.3,0.2,12.4
		c0,4.1,0.1,8.2,0.1,12.4c0,0.5,0,0.9,0,1.4c0,0.5,0,0.9,0.1,1.4c0.4,0,0.9-0.1,1.5-0.2c0.6-0.1,1.2-0.3,1.8-0.5
		c0.6-0.2,1.2-0.4,1.7-0.7c0.5-0.2,1-0.5,1.3-0.8c0.1-0.1,0.3-0.3,0.4-0.4c0.2-0.1,0.4-0.2,0.6-0.2c0.2,0,0.4,0.1,0.6,0.2
		s0.4,0.3,0.6,0.5c0.2,0.2,0.3,0.4,0.5,0.7C405.2,1806.8,405.3,1807,405.3,1807.2z"/>
	<path d="M422.8,1797.7c0,0.3-0.1,0.7-0.4,1c-0.2,0.4-0.5,0.6-0.8,0.8c-0.1,0-0.2,0.1-0.4,0.1c-0.2,0-0.4,0.1-0.6,0.1
		c-0.2,0-0.4,0.1-0.6,0.1c-0.2,0-0.3,0.1-0.5,0.1l0.6,3.5c0.2,1.1,0.3,2.2,0.4,3.2s0.3,2.2,0.6,3.2c0,0.1,0.1,0.2,0.1,0.3
		c0,0.1,0,0.2,0,0.3c0,0.2-0.1,0.4-0.2,0.5c-0.1,0.1-0.3,0.2-0.4,0.2c-0.2,0.1-0.3,0.1-0.5,0.1c-0.2,0-0.4,0-0.5,0h-0.3
		c-0.5,0-0.9,0-1.1-0.1c-0.3-0.1-0.5-0.2-0.6-0.4c-0.1-0.2-0.2-0.4-0.3-0.7c0-0.3-0.1-0.6-0.2-1.1c-0.4-2.9-0.8-5.7-1.3-8.6
		c-1,0.1-1.9,0.2-2.9,0.4c-1,0.1-2,0.2-2.9,0.3l-0.8,4.6c0,0.3-0.1,0.7-0.1,1.1c-0.1,0.5-0.1,1-0.2,1.5c-0.1,0.5-0.1,1-0.2,1.4
		c-0.1,0.4-0.2,0.8-0.3,1c-0.1,0.2-0.2,0.3-0.3,0.4c-0.1,0.1-0.2,0.1-0.4,0.1c-0.3,0-0.6-0.1-0.8-0.2c-0.3-0.1-0.5-0.2-0.7-0.4
		c-0.2-0.2-0.4-0.4-0.5-0.6c-0.1-0.2-0.2-0.5-0.2-0.8c0-0.3,0-0.6,0.1-0.9c0.1-0.3,0.1-0.6,0.2-0.9c0.2-1,0.3-2.1,0.5-3.1
		c0.1-1,0.3-2,0.5-3.1c-0.1,0-0.2,0-0.4-0.1s-0.3-0.1-0.4-0.2c-0.1-0.1-0.2-0.1-0.3-0.2c-0.1-0.1-0.1-0.2-0.1-0.3
		c0-0.2,0.1-0.3,0.2-0.4c0.1-0.1,0.3-0.3,0.4-0.4c0.2-0.1,0.3-0.2,0.5-0.3c0.2-0.1,0.3-0.2,0.4-0.2c0.3-2.2,0.6-4.4,0.9-6.5
		c0.3-2.2,0.6-4.4,0.8-6.6c0.1-0.6,0.1-1.2,0.2-1.8s0.1-1.2,0.2-1.8c0.1-0.6,0.1-1.2,0.2-1.8c0.1-0.6,0.2-1.2,0.4-1.8
		c0.1-0.6,0.4-1,0.7-1.4c0.3-0.3,0.8-0.5,1.5-0.5c0.2,0,0.4,0,0.6,0c0.2,0,0.3,0.1,0.5,0.2c0.4,0.2,0.8,0.8,1.3,1.7
		c0.4,0.9,0.9,2,1.3,3.3c0.4,1.3,0.9,2.7,1.3,4.2c0.4,1.5,0.8,3,1.1,4.4c0.3,1.4,0.6,2.7,0.8,3.8c0.2,1.1,0.4,2,0.5,2.5
		c0.3,0,0.7-0.1,1-0.1c0.3,0,0.7-0.1,1-0.1c0.2,0,0.3,0,0.5,0c0.2,0,0.4,0.1,0.6,0.1c0.2,0.1,0.3,0.2,0.4,0.3
		C422.7,1797.3,422.8,1797.5,422.8,1797.7z M415.4,1797.5c-0.4-2.2-0.8-4.4-1.3-6.6c-0.5-2.2-1-4.4-1.7-6.5c-0.3,2.4-0.6,4.7-0.9,7
		c-0.3,2.3-0.7,4.7-1.1,7c0.8-0.1,1.7-0.3,2.5-0.4C413.8,1797.9,414.6,1797.7,415.4,1797.5z"/>
	<path d="M448.1,1803.7c0,0.2,0,0.5-0.1,0.7c-0.1,0.2-0.1,0.5-0.2,0.7c-0.3,0.9-0.8,1.7-1.3,2.5c-0.5,0.8-1.1,1.4-1.7,2
		c-0.7,0.5-1.4,1-2.2,1.3c-0.8,0.3-1.7,0.5-2.7,0.5c-1.3,0-2.5-0.3-3.4-0.8c-1-0.6-1.8-1.3-2.4-2.2c-0.7-0.9-1.2-1.9-1.7-3
		c-0.4-1.1-0.8-2.2-1-3.3c-0.4-1.6-0.7-3.2-0.9-4.8s-0.3-3.2-0.3-4.9c0-1,0-1.9,0.1-3s0.2-2,0.5-3c0.2-1,0.5-2,0.9-2.9
		c0.4-0.9,0.8-1.8,1.4-2.6c0.6-0.8,1.2-1.5,2-2.1c0.8-0.6,1.7-1.1,2.7-1.4c0.4-0.1,0.8-0.2,1.2-0.3c0.4-0.1,0.8-0.1,1.2-0.1
		c0.8,0,1.6,0.1,2.3,0.4c0.7,0.3,1.4,0.6,1.9,1.1c0.6,0.5,1,1.1,1.3,1.8c0.3,0.7,0.5,1.5,0.5,2.3c0,0.3-0.1,0.5-0.2,0.6
		c-0.1,0.1-0.3,0.2-0.7,0.2c-0.6,0-1-0.1-1.3-0.3c-0.3-0.2-0.6-0.4-0.8-0.7c-0.2-0.3-0.4-0.6-0.5-0.9s-0.3-0.6-0.5-0.9
		c-0.2-0.3-0.4-0.5-0.8-0.7s-0.7-0.3-1.3-0.3c-0.5,0-1.1,0.1-1.5,0.3c-0.5,0.2-0.9,0.5-1.3,0.8c-0.4,0.3-0.8,0.7-1.1,1.2
		c-0.3,0.4-0.6,0.9-0.9,1.3c-0.7,1.2-1.1,2.5-1.4,3.9c-0.3,1.4-0.4,2.8-0.4,4.2c0,0.5,0,1.1,0.1,1.8c0,0.7,0.1,1.6,0.2,2.5
		c0.1,0.9,0.2,1.8,0.4,2.8c0.2,1,0.3,2,0.6,2.9c0.2,1,0.5,1.9,0.8,2.7c0.3,0.9,0.7,1.6,1.1,2.3c0.4,0.7,0.9,1.2,1.4,1.6
		c0.5,0.4,1.1,0.6,1.8,0.6c0.7,0,1.3-0.2,1.8-0.5s1-0.8,1.3-1.3c0.4-0.5,0.7-1.1,0.9-1.8c0.2-0.6,0.4-1.2,0.6-1.8
		c0-0.2,0.1-0.3,0.1-0.4c0-0.1,0.1-0.2,0.2-0.3c0.1-0.1,0.2-0.2,0.3-0.2c0.1,0,0.3-0.1,0.5-0.1c0.2,0,0.5,0,0.8,0.1
		c0.3,0.1,0.6,0.2,0.9,0.4c0.3,0.2,0.5,0.3,0.7,0.6C448,1803.2,448.1,1803.4,448.1,1803.7z"/>
	<path d="M468,1810.5c0,0.2-0.1,0.3-0.3,0.5c-0.2,0.1-0.4,0.2-0.7,0.3c-0.3,0.1-0.5,0.1-0.8,0.2c-0.3,0-0.5,0-0.6,0
		c-0.3,0-0.6,0-0.8-0.1c-0.2-0.1-0.4-0.2-0.7-0.3c-0.1,0-0.3-0.2-0.6-0.6c-0.3-0.4-0.6-0.8-1.1-1.4c-0.4-0.6-0.9-1.2-1.5-1.9
		c-0.5-0.7-1.1-1.5-1.7-2.2c-0.6-0.8-1.1-1.5-1.7-2.3c-0.6-0.8-1.1-1.5-1.5-2.1s-0.9-1.2-1.2-1.7c-0.3-0.5-0.6-0.8-0.7-1l-0.1,0
		c0.1,1.9,0.2,3.7,0.4,5.6c0.1,1.9,0.4,3.7,0.8,5.5c0,0.2,0.1,0.4,0.2,0.6c0.1,0.2,0.1,0.4,0.1,0.6c0,0.4-0.1,0.6-0.4,0.7
		c-0.2,0.1-0.5,0.2-0.8,0.2c-0.2,0-0.3,0-0.6,0c-0.2,0-0.4,0-0.7-0.1c-0.2,0-0.4-0.1-0.6-0.2s-0.3-0.2-0.5-0.3
		c-0.2-0.2-0.4-0.4-0.4-0.6c-0.1-0.2-0.1-0.4-0.2-0.7c-0.5-3.1-0.7-6.3-0.9-9.5c-0.1-3.2-0.2-6.3-0.2-9.5c0-1.4,0-2.7,0-4.1
		c0-1.3,0-2.7,0.1-4.1c-0.2,0-0.4-0.1-0.5-0.2c-0.2-0.1-0.3-0.2-0.4-0.4c-0.1-0.2-0.2-0.3-0.3-0.5c-0.1-0.2-0.1-0.4-0.1-0.5
		c0-0.2,0-0.3,0.1-0.5s0.2-0.3,0.3-0.5c0.1-0.1,0.3-0.3,0.4-0.4c0.2-0.1,0.3-0.2,0.4-0.3v-0.4c0-0.2,0-0.3,0-0.5
		c0-0.2,0-0.4,0.1-0.6c0.1-0.2,0.1-0.3,0.3-0.4c0.1-0.1,0.3-0.2,0.6-0.2c0.3,0,0.7,0.1,1,0.2c0.3,0.1,0.6,0.3,0.8,0.6
		c1.2-0.5,2.4-0.7,3.7-0.7c1.1,0,2.2,0.2,3.1,0.7c0.9,0.5,1.7,1.1,2.4,1.8c0.7,0.8,1.2,1.6,1.5,2.7c0.4,1,0.5,2,0.5,3.1
		c0,1.2-0.2,2.3-0.7,3.4c-0.4,1.1-1,2.1-1.7,3.1c-0.7,1-1.5,1.9-2.4,2.7c-0.9,0.8-1.8,1.5-2.7,2.1c1.5,2,3,3.9,4.5,5.8
		c1.5,1.9,3.1,3.8,4.6,5.7c0.1,0.1,0.2,0.3,0.4,0.5c0.2,0.2,0.4,0.5,0.6,0.7c0.2,0.3,0.4,0.5,0.5,0.7
		C468,1810.2,468,1810.4,468,1810.5z M461.2,1784.7c0-0.6-0.1-1.2-0.3-1.8s-0.5-1.2-0.9-1.7c-0.4-0.5-0.8-0.9-1.3-1.3
		c-0.5-0.3-1.1-0.5-1.7-0.5c-0.5,0-1,0.1-1.5,0.2c-0.5,0.1-1,0.3-1.5,0.6c0,2.3,0.1,4.7,0.1,7c0,2.3,0.1,4.7,0.1,7l0.4,0
		c0.8-0.5,1.6-1,2.4-1.7c0.8-0.7,1.5-1.5,2.1-2.3c0.6-0.8,1.1-1.7,1.5-2.7C461,1786.7,461.2,1785.7,461.2,1784.7z"/>
	<path d="M484.1,1796.2c0,0.8,0,1.8-0.1,2.8c-0.1,1-0.2,2.1-0.3,3.2c-0.2,1.1-0.4,2.2-0.8,3.2c-0.3,1-0.8,2-1.3,2.8
		c-0.6,0.8-1.3,1.5-2.1,2c-0.8,0.5-1.8,0.7-3,0.7c-0.6,0-1.3-0.1-1.9-0.3s-1.2-0.5-1.7-0.8c-0.8-0.6-1.5-1.5-2.1-2.6
		c-0.6-1.1-1-2.4-1.4-3.8c-0.4-1.4-0.6-2.9-0.8-4.5c-0.2-1.6-0.3-3.1-0.4-4.6c-0.1-1.5-0.1-2.9-0.2-4.3c0-1.3,0-2.5,0-3.4
		c0-0.3,0-0.6,0-1.1s0-1,0-1.6c0-0.6,0-1.2,0-1.8c0-0.6,0-1.2,0.1-1.7c0-0.6,0.1-1,0.1-1.5c0-0.4,0.1-0.7,0.2-0.9
		c0.1-0.2,0.2-0.3,0.3-0.4c0.1-0.1,0.3-0.1,0.5-0.1c0.7,0,1.3,0.2,1.7,0.6c0.4,0.4,0.6,1,0.6,1.7c0,1,0,2.1-0.1,3.1
		c0,1-0.1,2.1-0.1,3.1c0,0.5,0,1.1,0,2c0,0.9,0,1.9,0.1,3c0,1.1,0.1,2.3,0.2,3.6c0.1,1.3,0.2,2.6,0.4,3.8c0.2,1.3,0.4,2.5,0.6,3.6
		c0.2,1.2,0.6,2.2,0.9,3.1c0.4,0.9,0.8,1.6,1.2,2.1c0.5,0.5,1,0.8,1.6,0.8c0.6,0,1.1-0.2,1.5-0.7c0.4-0.5,0.8-1,1.1-1.7
		c0.3-0.7,0.5-1.5,0.7-2.4c0.2-0.9,0.3-1.7,0.4-2.6c0.1-0.9,0.2-1.6,0.2-2.4c0-0.7,0-1.3,0-1.7c0-0.9,0-1.8-0.1-2.9
		c0-1.1-0.1-2.2-0.2-3.3c-0.1-1.1-0.2-2.3-0.3-3.5c-0.1-1.2-0.3-2.3-0.4-3.5c-0.2-1.1-0.4-2.2-0.6-3.2c-0.2-1-0.5-1.9-0.8-2.7
		c0-0.1-0.1-0.3-0.2-0.5c-0.1-0.2-0.2-0.4-0.2-0.5c0-0.2,0.1-0.4,0.2-0.6c0.1-0.1,0.3-0.2,0.4-0.3c0.2-0.1,0.4-0.1,0.6-0.1
		c0.2,0,0.4,0,0.6,0c0.4,0,0.7,0,0.9,0c0.2,0,0.5,0.1,0.9,0.3c0.2,0.1,0.4,0.5,0.6,1c0.2,0.6,0.4,1.3,0.6,2.1
		c0.2,0.9,0.3,1.8,0.5,2.9c0.1,1.1,0.3,2.2,0.4,3.4c0.1,1.1,0.2,2.3,0.3,3.4s0.2,2.2,0.2,3.2c0.1,1,0.1,1.8,0.1,2.6
		C484.1,1795.3,484.1,1795.9,484.1,1796.2z"/>
	<path d="M500,1808c0,0.5-0.1,0.9-0.3,1.3c-0.2,0.4-0.6,0.7-1,0.8c-0.1,0.1-0.4,0.1-0.9,0.2c-0.5,0-1,0.1-1.7,0.1
		c-0.7,0-1.4,0.1-2.1,0.1c-0.8,0-1.5,0-2.2,0c-0.7,0-1.3,0-1.8,0c-0.5,0-0.9,0-1.1,0c-0.1,0.2-0.2,0.3-0.4,0.4
		c-0.2,0.1-0.4,0.2-0.6,0.2c-0.2,0-0.4-0.1-0.7-0.2c-0.3-0.1-0.6-0.2-0.8-0.4c-0.3-0.2-0.5-0.4-0.7-0.6c-0.2-0.2-0.3-0.4-0.3-0.7
		c0-0.2,0-0.5,0.1-0.8c0.1-0.3,0.2-0.7,0.3-1c0.1-0.4,0.3-0.7,0.4-1c0.1-0.3,0.2-0.6,0.3-0.8l4.7-13.7l2.5-7.2
		c0.3-0.8,0.6-1.6,0.8-2.4c0.3-0.8,0.6-1.6,0.9-2.4c-0.5,0-1,0.1-1.5,0.1s-1,0-1.5,0c-0.1,0-0.4,0-0.7,0c-0.4,0-0.8,0-1.2,0
		c-0.4,0-0.9,0-1.4,0c-0.5,0-1,0-1.4,0c-0.4,0-0.8-0.1-1.1-0.1c-0.3,0-0.5-0.1-0.6-0.1c-0.2-0.1-0.3-0.3-0.3-0.5
		c0-0.5,0.1-0.8,0.4-1.1c0.3-0.3,0.7-0.4,1.1-0.6c0.4-0.1,0.9-0.2,1.3-0.2c0.5,0,0.9,0,1.2,0c0.4,0,0.8,0,1.1,0c0.4,0,0.8,0,1.1,0
		c0.8,0,1.6,0,2.3-0.1c0.8-0.1,1.5-0.1,2.3-0.1c0.3,0,0.6,0,0.9,0.1c0.3,0.1,0.6,0.1,0.9,0.3c0.3,0.1,0.5,0.3,0.6,0.5
		c0.2,0.2,0.3,0.5,0.3,0.8c0,0.3-0.1,0.5-0.2,0.8c-0.1,0.2-0.2,0.5-0.4,0.7c-0.5,1.3-1,2.7-1.5,4c-0.4,1.3-0.9,2.7-1.3,4
		c-1.1,3.2-2.1,6.5-3.2,9.7c-1,3.2-2.1,6.4-3.1,9.7c0.6,0,1.3-0.1,1.9-0.1c0.6,0,1.3-0.1,1.9-0.1c0.9-0.1,1.8-0.2,2.7-0.3
		c0.9-0.1,1.8-0.2,2.7-0.2c0.3,0,0.5,0.1,0.8,0.2C499.9,1807.4,500,1807.7,500,1808z"/>
	<path d="M314,1870.1c0,0.2-0.1,0.4-0.3,0.6c-0.2,0.2-0.4,0.4-0.7,0.5c-0.3,0.1-0.6,0.3-0.9,0.3c-0.3,0.1-0.5,0.1-0.7,0.1
		c-0.3,0-0.6-0.1-0.9-0.2c-0.3-0.2-0.5-0.4-0.8-0.6c-0.2-0.3-0.5-0.5-0.7-0.8c-0.2-0.3-0.4-0.5-0.6-0.8c-0.8-1.2-1.5-2.5-2-3.8
		c-0.5-1.3-0.9-2.7-1.2-4.1c-0.3-1.4-0.5-2.8-0.6-4.3c-0.1-1.4-0.2-2.9-0.2-4.3c0-1.5,0.1-3.1,0.2-4.8c0.2-1.7,0.4-3.4,0.8-5.1
		c0.4-1.7,0.9-3.3,1.6-4.8c0.7-1.5,1.5-2.9,2.4-4c0.1-0.1,0.2-0.2,0.3-0.3c0.1-0.1,0.2-0.2,0.4-0.4c0.1-0.1,0.3-0.2,0.4-0.3
		c0.1-0.1,0.3-0.1,0.4-0.1c0.2,0,0.4,0.1,0.5,0.2c0.2,0.1,0.3,0.3,0.4,0.4c0.1,0.2,0.2,0.4,0.3,0.6c0.1,0.2,0.1,0.4,0.1,0.5
		c0,0.2-0.1,0.4-0.2,0.8c-0.2,0.3-0.3,0.7-0.6,1c-0.2,0.4-0.4,0.7-0.6,1.1c-0.2,0.3-0.4,0.6-0.5,0.8c-0.5,1-0.9,2.1-1.2,3.2
		c-0.3,1.1-0.6,2.3-0.8,3.5c-0.2,1.2-0.3,2.4-0.4,3.6s-0.1,2.3-0.1,3.4c0,1.3,0.1,2.5,0.2,3.9c0.1,1.3,0.3,2.7,0.5,4
		c0.3,1.3,0.6,2.6,1.1,3.9c0.5,1.3,1,2.4,1.7,3.5c0.3,0.4,0.5,0.8,0.8,1.1c0.3,0.3,0.6,0.6,1,0.9c0.1,0.1,0.3,0.2,0.5,0.4
		C313.9,1869.7,314,1869.8,314,1870.1z"/>
	<path d="M331.2,1861.3c0,0.2,0,0.5-0.1,0.7c-0.1,0.2-0.1,0.4-0.2,0.7c-0.3,0.9-0.8,1.7-1.3,2.5c-0.5,0.8-1.1,1.4-1.7,2
		c-0.7,0.5-1.4,1-2.2,1.3c-0.8,0.3-1.7,0.5-2.7,0.5c-1.3,0-2.5-0.3-3.4-0.8c-1-0.6-1.8-1.3-2.4-2.2c-0.7-0.9-1.2-1.9-1.7-3
		c-0.4-1.1-0.8-2.2-1-3.3c-0.4-1.6-0.7-3.2-0.9-4.8c-0.2-1.6-0.3-3.2-0.3-4.9c0-1,0-1.9,0.1-3s0.2-2,0.5-3c0.2-1,0.5-2,0.9-2.9
		s0.8-1.8,1.4-2.6c0.6-0.8,1.2-1.5,2-2.1c0.8-0.6,1.7-1.1,2.7-1.4c0.4-0.1,0.8-0.2,1.2-0.3c0.4-0.1,0.8-0.1,1.2-0.1
		c0.8,0,1.6,0.1,2.3,0.4c0.7,0.3,1.4,0.6,1.9,1.1c0.6,0.5,1,1.1,1.3,1.8c0.3,0.7,0.5,1.5,0.5,2.3c0,0.3-0.1,0.5-0.2,0.6
		c-0.1,0.1-0.3,0.2-0.7,0.2c-0.6,0-1-0.1-1.3-0.3c-0.3-0.2-0.6-0.4-0.8-0.7c-0.2-0.3-0.4-0.6-0.5-0.9c-0.1-0.3-0.3-0.6-0.5-0.9
		c-0.2-0.3-0.4-0.5-0.8-0.7c-0.3-0.2-0.7-0.3-1.3-0.3c-0.5,0-1.1,0.1-1.5,0.3c-0.5,0.2-0.9,0.5-1.3,0.8c-0.4,0.3-0.8,0.7-1.1,1.2
		c-0.3,0.4-0.6,0.9-0.9,1.3c-0.7,1.2-1.1,2.5-1.4,3.9c-0.3,1.4-0.4,2.8-0.4,4.2c0,0.5,0,1.1,0.1,1.8c0,0.7,0.1,1.6,0.2,2.5
		c0.1,0.9,0.2,1.8,0.4,2.8c0.2,1,0.3,2,0.6,2.9c0.2,1,0.5,1.9,0.8,2.7c0.3,0.9,0.7,1.6,1.1,2.3c0.4,0.7,0.9,1.2,1.4,1.6
		c0.5,0.4,1.1,0.6,1.8,0.6c0.7,0,1.3-0.2,1.8-0.5c0.5-0.4,1-0.8,1.3-1.3c0.4-0.5,0.7-1.1,0.9-1.8c0.2-0.6,0.4-1.2,0.6-1.8
		c0-0.2,0.1-0.3,0.1-0.4s0.1-0.2,0.2-0.3c0.1-0.1,0.2-0.2,0.3-0.2c0.1,0,0.3-0.1,0.5-0.1c0.2,0,0.5,0,0.8,0.1
		c0.3,0.1,0.6,0.2,0.9,0.4c0.3,0.2,0.5,0.3,0.7,0.6C331.1,1860.8,331.2,1861.1,331.2,1861.3z"/>
	<path d="M350.7,1850c0,0.7-0.2,1.2-0.5,1.5c-0.4,0.3-0.9,0.5-1.5,0.6c0.1,2.4,0.2,4.8,0.3,7.2s0.1,4.8,0.1,7.2
		c0,0.4-0.1,0.7-0.2,0.9c-0.2,0.2-0.4,0.3-0.8,0.3c-0.3,0-0.7,0-1-0.1c-0.3-0.1-0.6-0.2-0.9-0.4c-0.3-0.2-0.5-0.4-0.6-0.7
		c-0.2-0.3-0.2-0.6-0.2-1v-7.3c0-0.9,0-1.8,0-2.8s0-1.8,0-2.8c-1.3,0.2-2.7,0.3-4,0.5c-1.3,0.1-2.7,0.2-4,0.3c0,3.3,0.1,6.7,0.3,10
		c0,0.7,0.1,1.4,0.2,2c0.1,0.7,0.1,1.3,0.1,2c0,0.3-0.1,0.5-0.3,0.7s-0.4,0.2-0.7,0.2c-0.2,0-0.5,0-0.8-0.1c-0.3,0-0.5-0.1-0.8-0.2
		c-0.3-0.1-0.5-0.2-0.7-0.4c-0.2-0.1-0.4-0.3-0.5-0.5c0-0.1-0.1-0.3-0.1-0.7c0-0.4-0.1-0.9-0.1-1.5c0-0.6,0-1.3-0.1-2
		c0-0.8,0-1.5,0-2.3s0-1.6,0-2.4c0-0.8,0-1.5,0-2.1c0-0.7,0-1.2,0-1.7c0-0.5,0-0.8,0-1c-0.2,0-0.4-0.1-0.6-0.2
		c-0.2-0.1-0.3-0.3-0.3-0.5c0-0.3,0.1-0.6,0.2-0.8c0.2-0.3,0.4-0.5,0.6-0.6v-14.2c0-0.3,0.1-0.6,0.2-0.8c0.1-0.2,0.3-0.3,0.7-0.3
		c0.5,0,1,0.1,1.3,0.2c0.3,0.2,0.6,0.4,0.7,0.6c0.2,0.3,0.3,0.6,0.3,1c0.1,0.4,0.1,0.8,0.1,1.2c0,1.9,0.1,3.8,0.1,5.7
		c0,1.9,0,3.8,0.1,5.7c1.3-0.1,2.7-0.3,4-0.4c1.3-0.1,2.7-0.3,4-0.6c-0.1-1.7-0.2-3.3-0.3-4.9c-0.1-1.6-0.3-3.3-0.5-4.9
		c-0.1-0.8-0.3-1.6-0.4-2.3c-0.2-0.8-0.3-1.6-0.3-2.4c0-0.3,0.1-0.5,0.3-0.5c0.2-0.1,0.4-0.1,0.7-0.1c0.4,0,0.8,0.1,1.1,0.2
		c0.4,0.1,0.7,0.3,0.9,0.7c0.1,0.2,0.3,0.6,0.4,1.3c0.2,0.6,0.3,1.4,0.4,2.3c0.1,0.9,0.3,1.9,0.4,2.9c0.1,1,0.2,2,0.3,3
		c0.1,0.9,0.2,1.8,0.2,2.6c0.1,0.8,0.1,1.3,0.1,1.7c0.2,0,0.4-0.1,0.6-0.1c0.2,0,0.4-0.1,0.6-0.1c0.4,0,0.6,0.1,0.8,0.3
		S350.7,1849.7,350.7,1850z"/>
	<path d="M366.5,1864.9c0,0.5-0.1,0.9-0.4,1.3c-0.2,0.4-0.6,0.7-1,0.9c-0.1,0.1-0.4,0.1-0.9,0.2c-0.5,0.1-1,0.1-1.6,0.2
		c-0.6,0-1.1,0.1-1.6,0.1c-0.5,0-0.9,0.1-1.1,0.1c0,0.3-0.2,0.4-0.4,0.6c-0.2,0.1-0.4,0.2-0.7,0.2c-0.3,0-0.6,0-0.9-0.1
		c-0.3-0.1-0.6-0.2-0.9-0.3c-0.7,0.1-1.4,0.2-2.1,0.3c-0.7,0.1-1.4,0.2-2.2,0.2c-0.6,0-0.8-0.3-0.8-0.8s0.1-0.9,0.4-1.2
		c0.3-0.3,0.7-0.5,1.1-0.6c0.4-0.1,0.9-0.2,1.4-0.3c0.5,0,0.9-0.1,1.3-0.2c-0.1-4.4-0.2-8.9-0.2-13.2c-0.1-4.4-0.1-8.8-0.1-13.2
		c-0.6,0-1.3,0.1-1.9,0.1c-0.6,0-1.2,0.1-1.8,0.1c-0.1,0-0.3,0-0.4,0c-0.1,0-0.3,0-0.4-0.1c-0.1,0-0.2-0.1-0.3-0.2
		c-0.1-0.1-0.1-0.2-0.1-0.4c0-0.3,0.1-0.6,0.2-0.8c0.1-0.2,0.3-0.4,0.5-0.6c0.2-0.1,0.4-0.3,0.7-0.4c0.2-0.1,0.5-0.2,0.8-0.2
		c0.7-0.1,1.4-0.2,2.1-0.3c0.7-0.1,1.4-0.2,2.1-0.3c0.7-0.1,1.4-0.2,2.1-0.3c0.7-0.1,1.4-0.2,2.1-0.4c0.7-0.1,1.3-0.3,2-0.6
		c0.7-0.2,1.3-0.3,2-0.3c0.4,0,0.6,0.1,0.8,0.4c0.1,0.3,0.2,0.6,0.2,0.9c0,0.3,0,0.5-0.1,0.8c-0.1,0.2-0.2,0.5-0.3,0.7
		c-0.1,0.1-0.3,0.2-0.6,0.4c-0.3,0.1-0.7,0.2-1.1,0.3c-0.4,0.1-0.9,0.2-1.4,0.3c-0.5,0.1-1,0.2-1.5,0.2c-0.5,0.1-0.9,0.1-1.3,0.2
		c-0.4,0-0.7,0.1-0.9,0.1c0.2,2.2,0.3,4.3,0.4,6.5c0.1,2.2,0.1,4.3,0.2,6.5c0,2.2,0.1,4.3,0.1,6.5s0.1,4.3,0.3,6.5
		c0.9-0.1,1.8-0.3,2.7-0.4c0.9-0.1,1.8-0.2,2.7-0.2c0.3,0,0.5,0.1,0.8,0.2C366.4,1864.3,366.5,1864.6,366.5,1864.9z"/>
	<path d="M382.1,1864.8c0,0.4-0.2,0.7-0.6,1c-0.4,0.3-0.9,0.6-1.5,0.9s-1.3,0.5-2,0.8c-0.7,0.2-1.4,0.4-2.1,0.6
		c-0.7,0.2-1.3,0.3-1.9,0.4c-0.6,0.1-1,0.1-1.3,0.1c-0.5,0-1-0.1-1.5-0.2c-0.4-0.1-0.8-0.3-1.2-0.6c-0.3-0.3-0.6-0.6-0.8-1
		c-0.2-0.4-0.3-0.9-0.3-1.5c0-4.2,0-8.3,0-12.5c0-4.1,0-8.3,0-12.5c0-0.7,0-1.3,0-1.9c0-0.6,0-1.3,0-1.9c0-0.2,0-0.3,0-0.6
		c0-0.2,0.1-0.4,0.1-0.6c0.1-0.2,0.2-0.3,0.3-0.5c0.1-0.1,0.3-0.2,0.5-0.2s0.4,0,0.7,0.1c0.2,0.1,0.5,0.2,0.7,0.3
		c0.2,0.1,0.4,0.3,0.6,0.5c0.2,0.2,0.3,0.4,0.4,0.6c0.1,0.3,0.1,0.6,0.1,0.9c0,0.3,0,0.6,0,1c0.1,4.2,0.1,8.3,0.2,12.4
		c0,4.1,0.1,8.2,0.1,12.4c0,0.5,0,0.9,0,1.4c0,0.5,0,0.9,0.1,1.4c0.4,0,0.9-0.1,1.5-0.2c0.6-0.1,1.2-0.3,1.8-0.5
		c0.6-0.2,1.2-0.4,1.7-0.7c0.5-0.2,1-0.5,1.3-0.8c0.1-0.1,0.3-0.3,0.4-0.4c0.2-0.1,0.4-0.2,0.6-0.2c0.2,0,0.4,0.1,0.6,0.2
		c0.2,0.1,0.4,0.3,0.6,0.5c0.2,0.2,0.3,0.4,0.5,0.7C382.1,1864.4,382.1,1864.6,382.1,1864.8z"/>
	<path d="M399.1,1863.2c0,0.3-0.1,0.5-0.3,0.8c-0.2,0.3-0.5,0.5-0.8,0.7c-0.3,0.2-0.6,0.4-0.9,0.6c-0.3,0.2-0.6,0.4-0.8,0.5
		c-0.5,0.3-1.1,0.7-1.6,1c-0.5,0.3-1.1,0.6-1.6,0.8c-0.6,0.2-1.1,0.4-1.7,0.5c-0.6,0.1-1.2,0.2-1.8,0.2l-0.4,0c-0.5,0-1-0.1-1.5-0.2
		c-0.5-0.1-1-0.3-1.4-0.5c-0.4-0.2-0.8-0.6-1.2-0.9c-0.3-0.4-0.6-0.8-0.8-1.4c-0.1-0.4-0.3-0.9-0.3-1.5c-0.1-0.6-0.1-1.2-0.2-1.8
		c0-0.6-0.1-1.2-0.1-1.8c0-0.6,0-1.1-0.1-1.6c-0.2-4.8-0.4-9.6-0.6-14.4c0-0.5-0.1-1.1-0.1-1.6c0-0.5,0-1.1,0-1.6
		c0-0.9,0.1-1.7,0.2-2.4c0.1-0.7,0.3-1.2,0.7-1.6c0.3-0.4,0.8-0.7,1.4-0.9c0.6-0.2,1.4-0.3,2.5-0.3c1,0,2,0,3.1,0c1,0,2.1,0,3.1,0
		c0.3,0,0.6,0,0.9,0c0.3,0,0.6,0,0.9,0.1c0.2,0,0.4,0.1,0.5,0.2c0.1,0.1,0.2,0.2,0.2,0.5c0,0.6-0.2,1-0.6,1.3
		c-0.4,0.3-0.8,0.5-1.3,0.6c-0.5,0.1-1.1,0.1-1.6,0.1c-0.6,0-1,0-1.4,0h-3c-0.3,0-0.6,0-0.9,0c-0.3,0-0.6,0-0.9,0
		c-0.1,0.2-0.2,0.5-0.2,0.7c0,0.3,0,0.5,0,0.8c0,1.7,0,3.4,0.1,5c0.1,1.7,0.2,3.3,0.2,5c1-0.1,1.9-0.2,2.9-0.3
		c1-0.1,1.9-0.2,2.9-0.4c0.1,0,0.3,0,0.4,0c0.1,0,0.2,0,0.4,0c0.3,0,0.6,0.1,0.7,0.3c0.1,0.2,0.2,0.4,0.2,0.7c0,0.2,0,0.4,0,0.6
		c0,0.2-0.1,0.4-0.2,0.6c-0.1,0.3-0.3,0.5-0.5,0.7c-0.2,0.1-0.5,0.2-0.8,0.3c-0.3,0.1-0.6,0.1-1,0.1s-0.6,0-0.9,0
		c-0.7,0-1.3,0.1-1.9,0.1c-0.6,0-1.3,0-1.9,0.1c0,0.3,0,0.8,0.1,1.5c0,0.7,0.1,1.4,0.1,2.2c0,0.8,0.1,1.7,0.1,2.5s0.1,1.7,0.2,2.5
		c0.1,0.8,0.1,1.5,0.2,2c0.1,0.6,0.2,1,0.2,1.2c0.2,0.3,0.4,0.5,0.6,0.6c0.2,0.1,0.5,0.2,0.9,0.2c0.6,0,1.2-0.1,1.8-0.3
		c0.6-0.2,1.3-0.5,1.9-0.9c0.6-0.4,1.2-0.7,1.7-1.2c0.6-0.4,1-0.8,1.4-1.2c0.2-0.1,0.3-0.3,0.5-0.4c0.2-0.1,0.4-0.2,0.6-0.2
		c0.2,0,0.5,0.1,0.7,0.2c0.2,0.1,0.4,0.3,0.6,0.5c0.2,0.2,0.3,0.4,0.4,0.7C399.1,1862.7,399.1,1863,399.1,1863.2z"/>
	<path d="M415.2,1866.3c0,0.3,0,0.6-0.1,0.8c-0.1,0.3-0.1,0.5-0.3,0.7c-0.1,0.2-0.3,0.4-0.5,0.5c-0.2,0.1-0.5,0.2-0.8,0.2
		c-0.4,0-0.8-0.1-1-0.3c-0.3-0.2-0.5-0.4-0.7-0.8c-0.3-0.4-0.6-0.9-0.8-1.5c-0.2-0.6-0.4-1.1-0.6-1.7c-0.2-0.6-0.4-1.2-0.5-1.8
		c-0.2-0.6-0.3-1.1-0.5-1.6c-0.8-2.6-1.6-5.2-2.4-7.9c-0.7-2.6-1.5-5.2-2.3-7.9c-0.1,3.4-0.1,6.8-0.2,10.1s-0.1,6.7-0.1,10.1
		c0,0.2,0,0.4,0,0.6c0,0.2-0.1,0.4-0.1,0.6c-0.1,0.2-0.2,0.4-0.3,0.5c-0.1,0.1-0.3,0.2-0.6,0.2c-0.8,0-1.4-0.2-1.8-0.6
		s-0.6-1-0.6-1.8c0-4.4,0-8.7,0-13.1c0-4.3,0-8.7,0-13v-3.3c0-0.4,0.1-0.7,0.2-0.9c0.1-0.2,0.4-0.4,0.9-0.4c0.3,0,0.6,0,1,0.1
		c0.3,0.1,0.6,0.2,0.9,0.4c0.3,0.2,0.5,0.4,0.6,0.7c0.2,0.3,0.2,0.6,0.2,1c0.7,1.3,1.2,2.5,1.7,3.9c0.4,1.3,0.9,2.7,1.3,4
		c0.6,2,1.2,3.9,1.8,5.9c0.6,2,1.2,3.9,1.8,5.9c-0.1-3-0.2-5.9-0.3-8.9c-0.1-2.9-0.3-5.9-0.6-8.8c-0.1-0.6-0.2-1.3-0.3-1.9
		c-0.1-0.6-0.2-1.2-0.2-1.9c0-0.3,0.1-0.6,0.3-0.7c0.2-0.1,0.5-0.2,0.8-0.2c0.5,0,0.9,0,1.2,0.1c0.3,0.1,0.6,0.2,0.9,0.4
		c0.2,0.2,0.4,0.4,0.5,0.8c0.1,0.3,0.2,0.7,0.3,1.2c0.1,0.8,0.2,1.7,0.2,2.5c0.1,0.9,0.1,1.7,0.2,2.5c0.1,2.1,0.2,4.2,0.3,6.2
		c0.1,2.1,0.1,4.1,0.2,6.2c0,2.1,0.1,4.2,0.2,6.2C415.2,1862.2,415.2,1864.2,415.2,1866.3z"/>
	<path d="M435.6,1855.4c0,0.3-0.1,0.7-0.4,1c-0.2,0.4-0.5,0.6-0.8,0.8c-0.1,0-0.2,0.1-0.4,0.1c-0.2,0-0.4,0.1-0.6,0.1
		c-0.2,0-0.4,0.1-0.6,0.1c-0.2,0-0.3,0.1-0.5,0.1l0.6,3.5c0.2,1.1,0.3,2.2,0.4,3.2c0.1,1.1,0.3,2.2,0.6,3.2c0,0.1,0.1,0.2,0.1,0.3
		c0,0.1,0,0.2,0,0.3c0,0.2-0.1,0.4-0.2,0.5c-0.1,0.1-0.3,0.2-0.4,0.2c-0.2,0.1-0.3,0.1-0.5,0.1c-0.2,0-0.4,0-0.5,0h-0.3
		c-0.5,0-0.9,0-1.1-0.1c-0.3-0.1-0.5-0.2-0.6-0.4c-0.1-0.2-0.2-0.4-0.3-0.7c0-0.3-0.1-0.6-0.2-1.1c-0.4-2.9-0.8-5.7-1.3-8.6
		c-1,0.1-1.9,0.2-2.9,0.4c-1,0.1-2,0.2-2.9,0.3l-0.8,4.6c0,0.3-0.1,0.7-0.1,1.1c-0.1,0.5-0.1,1-0.2,1.5c-0.1,0.5-0.1,1-0.2,1.4
		c-0.1,0.4-0.2,0.8-0.3,1c-0.1,0.2-0.2,0.3-0.3,0.4c-0.1,0.1-0.2,0.1-0.4,0.1c-0.3,0-0.6-0.1-0.8-0.2c-0.3-0.1-0.5-0.2-0.7-0.4
		c-0.2-0.2-0.4-0.4-0.5-0.6c-0.1-0.2-0.2-0.5-0.2-0.8c0-0.3,0-0.6,0.1-0.9c0.1-0.3,0.1-0.6,0.2-0.9c0.2-1,0.3-2.1,0.5-3.1
		c0.1-1,0.3-2,0.5-3.1c-0.1,0-0.2,0-0.4-0.1s-0.3-0.1-0.4-0.2c-0.1-0.1-0.2-0.1-0.3-0.2c-0.1-0.1-0.1-0.2-0.1-0.3
		c0-0.2,0.1-0.3,0.2-0.4c0.1-0.1,0.3-0.3,0.4-0.4c0.2-0.1,0.3-0.2,0.5-0.3s0.3-0.2,0.4-0.2c0.3-2.2,0.6-4.4,0.9-6.5
		c0.3-2.2,0.6-4.4,0.8-6.6c0.1-0.6,0.1-1.2,0.2-1.8c0-0.6,0.1-1.2,0.2-1.8c0.1-0.6,0.1-1.2,0.2-1.8c0.1-0.6,0.2-1.2,0.4-1.8
		c0.1-0.6,0.4-1,0.7-1.4c0.3-0.3,0.8-0.5,1.5-0.5c0.2,0,0.4,0,0.6,0c0.2,0,0.3,0.1,0.5,0.2c0.4,0.2,0.8,0.8,1.3,1.7
		c0.4,0.9,0.9,2,1.3,3.3c0.4,1.3,0.9,2.7,1.3,4.2c0.4,1.5,0.8,3,1.1,4.4c0.3,1.4,0.6,2.7,0.8,3.8c0.2,1.1,0.4,2,0.5,2.5
		c0.3,0,0.7-0.1,1-0.1c0.3,0,0.7-0.1,1-0.1c0.2,0,0.3,0,0.5,0c0.2,0,0.4,0.1,0.6,0.1c0.2,0.1,0.3,0.2,0.4,0.3
		C435.6,1855,435.6,1855.1,435.6,1855.4z M428.3,1855.2c-0.4-2.2-0.8-4.4-1.3-6.6c-0.5-2.2-1-4.4-1.7-6.5c-0.3,2.4-0.6,4.7-0.9,7
		c-0.3,2.3-0.7,4.7-1.1,7c0.8-0.1,1.7-0.3,2.5-0.4C426.6,1855.5,427.4,1855.4,428.3,1855.2z"/>
	<path d="M443.2,1851.8c0,1.5-0.1,3-0.2,4.7c-0.2,1.7-0.4,3.4-0.8,5.1c-0.4,1.7-0.9,3.3-1.6,4.8c-0.7,1.5-1.5,2.9-2.4,4
		c-0.1,0.1-0.2,0.2-0.3,0.3c-0.1,0.1-0.2,0.3-0.4,0.4c-0.1,0.1-0.3,0.2-0.4,0.3c-0.1,0.1-0.3,0.1-0.4,0.1c-0.2,0-0.4-0.1-0.5-0.2
		c-0.2-0.1-0.3-0.3-0.4-0.4c-0.1-0.2-0.2-0.4-0.3-0.6c-0.1-0.2-0.1-0.4-0.1-0.6s0.1-0.4,0.2-0.8c0.2-0.3,0.3-0.7,0.5-1
		c0.2-0.4,0.4-0.7,0.6-1.1c0.2-0.3,0.4-0.6,0.4-0.8c0.5-1,0.9-2.1,1.2-3.2c0.3-1.1,0.6-2.3,0.8-3.5c0.2-1.2,0.4-2.4,0.4-3.6
		c0.1-1.2,0.1-2.3,0.1-3.4c0-1.2-0.1-2.5-0.2-3.9c-0.1-1.3-0.3-2.7-0.5-4c-0.3-1.3-0.6-2.6-1.1-3.9c-0.5-1.2-1-2.4-1.7-3.5
		c-0.3-0.4-0.6-0.8-0.8-1.1c-0.3-0.3-0.6-0.7-1-0.9c-0.1-0.1-0.3-0.2-0.5-0.4c-0.2-0.1-0.3-0.3-0.3-0.5c0-0.2,0.1-0.4,0.3-0.6
		c0.2-0.2,0.4-0.4,0.7-0.5c0.3-0.1,0.6-0.3,0.8-0.3c0.3-0.1,0.5-0.1,0.7-0.1c0.3,0,0.6,0.1,0.9,0.2c0.3,0.2,0.6,0.4,0.8,0.6
		c0.2,0.3,0.5,0.5,0.7,0.8c0.2,0.3,0.4,0.5,0.5,0.8c0.8,1.2,1.5,2.5,2,3.8c0.5,1.3,1,2.7,1.3,4.1c0.3,1.4,0.5,2.8,0.6,4.3
		C443.1,1848.9,443.2,1850.4,443.2,1851.8z"/>
</g>
<g>
	<path d="M337.5,2495.7c0,0.5-0.1,0.8-0.4,1.1c-0.2,0.3-0.6,0.5-0.9,0.6s-0.8,0.2-1.2,0.2c-0.4,0-0.8,0-1.1,0c-0.7,0-1.4,0-2.1,0
		c-0.7,0-1.4,0-2.1,0c-0.3,0-0.7,0-1,0s-0.7,0-1,0c-0.1,0.3-0.2,0.5-0.2,0.8c0,0.3,0,0.6,0,0.8c0,1.5,0.1,2.9,0.2,4.4
		c0.1,1.4,0.2,2.9,0.4,4.4c0.9-0.1,1.9-0.2,2.8-0.3s1.9-0.2,2.9-0.4c0.1,0,0.2,0,0.4,0c0.1,0,0.2,0,0.4,0c0.6,0,0.9,0.3,0.9,1
		c0,0.2,0,0.4-0.1,0.6c0,0.2-0.1,0.4-0.2,0.6c-0.1,0.3-0.3,0.5-0.5,0.7c-0.3,0.1-0.5,0.2-0.8,0.3c-0.3,0.1-0.6,0.1-1,0.1
		c-0.3,0-0.6,0-0.9,0l-3.7,0.1c0.1,1.5,0.2,3,0.3,4.4c0.1,1.5,0.2,2.9,0.4,4.4c0.1,1.1,0.2,2.3,0.3,3.4c0.1,1.1,0.2,2.3,0.4,3.4v0.4
		c0,0.4-0.1,0.6-0.3,0.7c-0.2,0.1-0.5,0.2-0.8,0.2c-0.6,0-1.1-0.1-1.6-0.3c-0.3-0.1-0.6-0.3-0.8-0.5c-0.2-0.2-0.3-0.4-0.4-0.6
		c-0.1-0.2-0.1-0.5-0.1-0.7c0-0.3,0-0.6,0-0.9c-0.1-2.4-0.3-4.7-0.5-7c-0.2-2.3-0.3-4.7-0.5-7.1c-0.1-1.8-0.2-3.5-0.3-5.2
		c-0.1-1.7-0.2-3.5-0.2-5.2c0-0.9,0.1-1.7,0.2-2.4c0.1-0.6,0.3-1.2,0.7-1.6c0.3-0.4,0.8-0.7,1.4-0.9c0.6-0.2,1.4-0.3,2.4-0.3
		c1,0,2,0,3,0c1,0,2,0,3,0c0.4,0,0.7,0,1,0c0.3,0,0.7,0,1,0.1c0.2,0,0.4,0.1,0.5,0.2C337.4,2495.3,337.5,2495.5,337.5,2495.7z"/>
	<path d="M355.1,2513.2c0,0.8,0,1.8-0.1,2.8c-0.1,1-0.2,2.1-0.3,3.2s-0.4,2.2-0.8,3.2c-0.3,1-0.8,2-1.3,2.8c-0.6,0.8-1.3,1.5-2.1,2
		c-0.8,0.5-1.8,0.7-3,0.7c-0.6,0-1.3-0.1-1.9-0.3c-0.6-0.2-1.2-0.5-1.7-0.8c-0.8-0.6-1.5-1.5-2.1-2.6c-0.6-1.1-1-2.4-1.4-3.8
		c-0.4-1.4-0.6-2.9-0.8-4.5c-0.2-1.6-0.3-3.1-0.4-4.6c-0.1-1.5-0.1-2.9-0.2-4.3c0-1.3,0-2.5,0-3.4c0-0.3,0-0.6,0-1.1
		c0-0.5,0-1,0-1.6c0-0.6,0-1.2,0-1.8c0-0.6,0-1.2,0.1-1.7c0-0.6,0.1-1,0.1-1.5c0-0.4,0.1-0.7,0.2-0.9c0.1-0.2,0.2-0.3,0.3-0.4
		c0.1-0.1,0.3-0.1,0.5-0.1c0.7,0,1.3,0.2,1.7,0.6c0.4,0.4,0.6,1,0.6,1.7c0,1,0,2.1-0.1,3.1s-0.1,2.1-0.1,3.1c0,0.5,0,1.1,0,2
		c0,0.9,0,1.9,0.1,3c0,1.1,0.1,2.3,0.2,3.6c0.1,1.3,0.2,2.6,0.4,3.8c0.2,1.3,0.4,2.5,0.6,3.6c0.2,1.2,0.6,2.2,0.9,3.1
		c0.4,0.9,0.8,1.6,1.2,2.1c0.5,0.5,1,0.8,1.6,0.8c0.6,0,1.1-0.2,1.5-0.7c0.4-0.5,0.8-1,1.1-1.7c0.3-0.7,0.5-1.5,0.7-2.4
		c0.2-0.9,0.3-1.7,0.4-2.6c0.1-0.9,0.2-1.6,0.2-2.4c0-0.7,0-1.3,0-1.7c0-0.9,0-1.8-0.1-2.9c0-1.1-0.1-2.2-0.2-3.3
		c-0.1-1.1-0.2-2.3-0.3-3.5c-0.1-1.2-0.3-2.3-0.4-3.5c-0.2-1.1-0.4-2.2-0.6-3.2c-0.2-1-0.5-1.9-0.8-2.7c0-0.1-0.1-0.3-0.2-0.5
		c-0.1-0.2-0.2-0.4-0.2-0.5c0-0.2,0.1-0.4,0.2-0.6c0.1-0.1,0.3-0.2,0.4-0.3c0.2-0.1,0.4-0.1,0.6-0.1c0.2,0,0.4,0,0.6,0
		c0.4,0,0.7,0,0.9,0c0.2,0,0.5,0.1,0.9,0.3c0.2,0.1,0.4,0.5,0.6,1c0.2,0.6,0.4,1.3,0.6,2.1s0.3,1.8,0.5,2.9c0.1,1.1,0.3,2.2,0.4,3.4
		c0.1,1.1,0.2,2.3,0.3,3.4c0.1,1.1,0.2,2.2,0.2,3.2c0.1,1,0.1,1.8,0.1,2.6C355.1,2512.3,355.1,2512.8,355.1,2513.2z"/>
	<path d="M374.6,2522.5c0,0.3-0.1,0.5-0.3,0.8c-0.2,0.2-0.5,0.5-0.8,0.7c-0.3,0.2-0.6,0.4-0.9,0.6c-0.3,0.2-0.6,0.4-0.8,0.5
		c-0.5,0.3-1.1,0.7-1.6,1c-0.5,0.3-1.1,0.6-1.6,0.8c-0.6,0.2-1.1,0.4-1.7,0.5c-0.6,0.1-1.2,0.2-1.8,0.2l-0.4,0c-0.5,0-1-0.1-1.5-0.2
		c-0.5-0.1-1-0.3-1.4-0.5c-0.4-0.2-0.8-0.6-1.2-0.9c-0.3-0.4-0.6-0.8-0.8-1.4c-0.1-0.4-0.2-0.9-0.3-1.5c-0.1-0.6-0.1-1.2-0.2-1.8
		c0-0.6-0.1-1.2-0.1-1.8c0-0.6,0-1.1-0.1-1.6c-0.2-4.8-0.4-9.6-0.6-14.4c0-0.5-0.1-1.1-0.1-1.6c0-0.5,0-1.1,0-1.6
		c0-0.9,0.1-1.7,0.2-2.4c0.1-0.7,0.3-1.2,0.7-1.6c0.3-0.4,0.8-0.7,1.4-0.9c0.6-0.2,1.4-0.3,2.5-0.3c1,0,2,0,3.1,0c1,0,2.1,0,3.1,0
		c0.3,0,0.6,0,0.9,0c0.3,0,0.6,0,0.9,0.1c0.2,0,0.4,0.1,0.5,0.2c0.1,0.1,0.2,0.2,0.2,0.5c0,0.6-0.2,1-0.6,1.3
		c-0.4,0.3-0.8,0.5-1.3,0.6c-0.5,0.1-1.1,0.1-1.6,0.1s-1,0-1.4,0h-3c-0.3,0-0.6,0-0.9,0c-0.3,0-0.6,0-0.9,0
		c-0.1,0.2-0.2,0.5-0.2,0.7c0,0.3,0,0.5,0,0.8c0,1.7,0,3.4,0.1,5c0.1,1.7,0.2,3.3,0.2,5c1-0.1,1.9-0.2,2.9-0.3
		c1-0.1,1.9-0.2,2.9-0.4c0.1,0,0.3,0,0.4,0c0.1,0,0.2,0,0.4,0c0.3,0,0.6,0.1,0.7,0.3c0.1,0.2,0.2,0.4,0.2,0.7c0,0.2,0,0.4,0,0.6
		c0,0.2-0.1,0.4-0.2,0.6c-0.1,0.3-0.3,0.5-0.5,0.7c-0.3,0.1-0.5,0.2-0.8,0.3c-0.3,0.1-0.6,0.1-1,0.1c-0.3,0-0.6,0-0.9,0
		c-0.7,0-1.3,0.1-1.9,0.1c-0.6,0-1.3,0-1.9,0.1c0,0.3,0,0.8,0.1,1.5c0,0.7,0.1,1.4,0.1,2.2c0,0.8,0.1,1.7,0.1,2.5
		c0.1,0.9,0.1,1.7,0.2,2.5c0.1,0.8,0.1,1.5,0.2,2c0.1,0.6,0.2,1,0.2,1.2c0.2,0.3,0.4,0.5,0.6,0.6c0.2,0.1,0.5,0.2,0.9,0.2
		c0.6,0,1.2-0.1,1.8-0.3c0.6-0.2,1.3-0.5,1.9-0.9c0.6-0.4,1.2-0.7,1.7-1.2c0.6-0.4,1-0.8,1.4-1.2c0.2-0.1,0.3-0.3,0.5-0.4
		c0.2-0.1,0.4-0.2,0.6-0.2c0.2,0,0.5,0.1,0.7,0.2c0.2,0.1,0.4,0.3,0.6,0.5c0.2,0.2,0.3,0.4,0.4,0.7
		C374.6,2522,374.6,2522.3,374.6,2522.5z"/>
	<path d="M394.2,2527.5c0,0.2-0.1,0.3-0.3,0.5c-0.2,0.1-0.4,0.2-0.7,0.3c-0.3,0.1-0.5,0.1-0.8,0.2c-0.3,0-0.5,0-0.6,0
		c-0.3,0-0.6,0-0.8-0.1c-0.2-0.1-0.4-0.2-0.7-0.3c-0.1,0-0.3-0.2-0.6-0.6c-0.3-0.4-0.6-0.8-1.1-1.4c-0.4-0.6-0.9-1.2-1.5-1.9
		c-0.5-0.7-1.1-1.5-1.7-2.2c-0.6-0.8-1.1-1.5-1.7-2.3c-0.6-0.8-1.1-1.5-1.5-2.1c-0.5-0.6-0.9-1.2-1.2-1.7c-0.3-0.5-0.6-0.8-0.7-1
		l-0.1,0c0.1,1.9,0.2,3.7,0.4,5.6c0.1,1.9,0.4,3.7,0.8,5.5c0,0.2,0.1,0.4,0.2,0.6c0.1,0.2,0.1,0.4,0.1,0.6c0,0.4-0.1,0.6-0.4,0.7
		c-0.2,0.1-0.5,0.2-0.8,0.2c-0.2,0-0.3,0-0.6,0c-0.2,0-0.4,0-0.7-0.1c-0.2,0-0.4-0.1-0.6-0.2c-0.2-0.1-0.3-0.2-0.5-0.3
		c-0.2-0.2-0.4-0.4-0.4-0.6c-0.1-0.2-0.1-0.4-0.2-0.7c-0.5-3.1-0.7-6.3-0.9-9.5c-0.1-3.2-0.2-6.3-0.2-9.5c0-1.4,0-2.7,0-4.1
		c0-1.3,0-2.7,0.1-4.1c-0.2,0-0.4-0.1-0.5-0.2c-0.2-0.1-0.3-0.2-0.4-0.4c-0.1-0.2-0.2-0.3-0.3-0.5c-0.1-0.2-0.1-0.4-0.1-0.5
		c0-0.2,0-0.3,0.1-0.5s0.2-0.3,0.3-0.5c0.1-0.1,0.3-0.3,0.4-0.4c0.2-0.1,0.3-0.2,0.4-0.3v-0.4c0-0.2,0-0.3,0-0.5
		c0-0.2,0-0.4,0.1-0.6c0.1-0.2,0.1-0.3,0.3-0.4c0.1-0.1,0.3-0.2,0.6-0.2c0.3,0,0.7,0.1,1,0.2c0.3,0.1,0.6,0.3,0.8,0.6
		c1.2-0.5,2.4-0.7,3.7-0.7c1.1,0,2.2,0.2,3.1,0.7s1.7,1.1,2.4,1.8c0.7,0.8,1.2,1.7,1.5,2.7c0.4,1,0.5,2,0.5,3.1
		c0,1.2-0.2,2.3-0.7,3.4c-0.4,1.1-1,2.1-1.7,3.1c-0.7,1-1.5,1.9-2.4,2.7c-0.9,0.8-1.8,1.5-2.7,2.1c1.5,2,3,3.9,4.5,5.8
		c1.5,1.9,3.1,3.8,4.6,5.7c0.1,0.1,0.2,0.3,0.4,0.5c0.2,0.2,0.4,0.5,0.6,0.7c0.2,0.3,0.4,0.5,0.5,0.7
		C394.1,2527.2,394.2,2527.4,394.2,2527.5z M387.3,2501.7c0-0.6-0.1-1.2-0.3-1.8c-0.2-0.6-0.5-1.2-0.9-1.7c-0.4-0.5-0.8-0.9-1.3-1.3
		c-0.5-0.3-1.1-0.5-1.7-0.5c-0.5,0-1,0.1-1.5,0.2c-0.5,0.1-1,0.3-1.5,0.6c0,2.3,0.1,4.7,0.1,7c0,2.3,0.1,4.7,0.1,7l0.4,0
		c0.8-0.5,1.6-1,2.4-1.7c0.8-0.7,1.5-1.5,2.1-2.3c0.6-0.8,1.1-1.7,1.5-2.7S387.3,2502.7,387.3,2501.7z"/>
	<path d="M408.6,2495.3c0,0.6-0.2,1-0.5,1.4c-0.3,0.4-0.8,0.6-1.3,0.7c-0.9,0.2-1.8,0.3-2.7,0.3c-0.9,0-1.8,0-2.7,0.1v4.6
		c0,3.9,0.1,7.9,0.4,11.8c0.2,3.9,0.6,7.8,1.2,11.8c0,0.2,0.1,0.5,0.2,0.7c0.1,0.2,0.1,0.5,0.1,0.7c0,0.4-0.1,0.6-0.3,0.8
		c-0.2,0.2-0.5,0.3-0.8,0.3c-0.3,0-0.6,0-1-0.1c-0.4-0.1-0.7-0.2-1-0.3c-0.3-0.2-0.5-0.4-0.6-0.6c-0.1-0.2-0.2-0.5-0.2-0.8
		c-0.2-1.1-0.3-2.2-0.4-3.3c-0.1-1.1-0.1-2.2-0.2-3.3c-0.2-2.4-0.3-4.7-0.5-7.1c-0.1-2.4-0.2-4.7-0.2-7.1c0-1.3,0-2.6,0-3.9
		c0-1.3,0-2.6,0-3.9c-1,0.1-1.9,0.2-2.9,0.3c-1,0.1-2,0.1-2.9,0.1c-0.2,0-0.4-0.1-0.6-0.2c-0.1-0.1-0.2-0.3-0.2-0.5
		c0-0.5,0.2-1,0.5-1.3c0.4-0.3,0.8-0.5,1.3-0.6c0.8-0.2,1.6-0.3,2.4-0.3c0.8-0.1,1.7-0.1,2.5-0.2c0-0.2,0-0.3,0-0.5
		c0-0.1,0.1-0.3,0.1-0.4c0.1-0.1,0.1-0.2,0.2-0.3c0.1-0.1,0.3-0.1,0.5-0.1c0.4,0,0.8,0.1,1.1,0.3s0.7,0.4,0.9,0.7l3.9-0.4
		c0.4,0,0.8-0.1,1.1-0.2c0.4-0.1,0.8-0.1,1.1-0.1c0.2,0,0.3,0,0.5,0c0.2,0,0.3,0.1,0.4,0.1c0.1,0.1,0.2,0.2,0.3,0.3
		C408.6,2494.9,408.6,2495.1,408.6,2495.3z"/>
	<path d="M426,2522.5c0,0.3-0.1,0.5-0.3,0.8c-0.2,0.2-0.5,0.5-0.8,0.7c-0.3,0.2-0.6,0.4-0.9,0.6c-0.3,0.2-0.6,0.4-0.8,0.5
		c-0.5,0.3-1.1,0.7-1.6,1c-0.5,0.3-1.1,0.6-1.6,0.8s-1.1,0.4-1.7,0.5c-0.6,0.1-1.2,0.2-1.8,0.2l-0.4,0c-0.5,0-1-0.1-1.5-0.2
		c-0.5-0.1-1-0.3-1.4-0.5c-0.4-0.2-0.8-0.6-1.2-0.9c-0.3-0.4-0.6-0.8-0.8-1.4c-0.1-0.4-0.3-0.9-0.3-1.5c-0.1-0.6-0.1-1.2-0.2-1.8
		c0-0.6-0.1-1.2-0.1-1.8c0-0.6,0-1.1-0.1-1.6c-0.2-4.8-0.4-9.6-0.6-14.4c0-0.5-0.1-1.1-0.1-1.6c0-0.5,0-1.1,0-1.6
		c0-0.9,0.1-1.7,0.2-2.4c0.1-0.7,0.3-1.2,0.7-1.6c0.3-0.4,0.8-0.7,1.4-0.9c0.6-0.2,1.4-0.3,2.5-0.3c1,0,2,0,3.1,0c1,0,2.1,0,3.1,0
		c0.3,0,0.6,0,0.9,0c0.3,0,0.6,0,0.9,0.1c0.2,0,0.4,0.1,0.5,0.2c0.1,0.1,0.2,0.2,0.2,0.5c0,0.6-0.2,1-0.6,1.3
		c-0.4,0.3-0.8,0.5-1.3,0.6c-0.5,0.1-1.1,0.1-1.6,0.1c-0.6,0-1,0-1.4,0h-3c-0.3,0-0.6,0-0.9,0c-0.3,0-0.6,0-0.9,0
		c-0.1,0.2-0.2,0.5-0.2,0.7c0,0.3,0,0.5,0,0.8c0,1.7,0,3.4,0.1,5c0.1,1.7,0.2,3.3,0.2,5c1-0.1,1.9-0.2,2.9-0.3
		c1-0.1,1.9-0.2,2.9-0.4c0.1,0,0.3,0,0.4,0c0.1,0,0.2,0,0.4,0c0.3,0,0.6,0.1,0.7,0.3c0.1,0.2,0.2,0.4,0.2,0.7c0,0.2,0,0.4,0,0.6
		c0,0.2-0.1,0.4-0.2,0.6c-0.1,0.3-0.3,0.5-0.5,0.7c-0.2,0.1-0.5,0.2-0.8,0.3c-0.3,0.1-0.6,0.1-1,0.1s-0.6,0-0.9,0
		c-0.7,0-1.3,0.1-1.9,0.1c-0.6,0-1.3,0-1.9,0.1c0,0.3,0,0.8,0.1,1.5c0,0.7,0.1,1.4,0.1,2.2c0,0.8,0.1,1.7,0.1,2.5
		c0.1,0.9,0.1,1.7,0.2,2.5c0.1,0.8,0.1,1.5,0.2,2c0.1,0.6,0.2,1,0.2,1.2c0.2,0.3,0.4,0.5,0.6,0.6c0.2,0.1,0.5,0.2,0.9,0.2
		c0.6,0,1.2-0.1,1.8-0.3c0.6-0.2,1.3-0.5,1.9-0.9c0.6-0.4,1.2-0.7,1.7-1.2c0.6-0.4,1-0.8,1.4-1.2c0.2-0.1,0.3-0.3,0.5-0.4
		c0.2-0.1,0.4-0.2,0.6-0.2c0.2,0,0.5,0.1,0.7,0.2c0.2,0.1,0.4,0.3,0.6,0.5c0.2,0.2,0.3,0.4,0.4,0.7
		C425.9,2522,426,2522.3,426,2522.5z"/>
</g>
<g>
	<path class="st16" d="M352.5,577.1c0,0.8,0,1.7-0.1,2.6c-0.1,0.9-0.2,1.8-0.4,2.8c-0.2,0.9-0.5,1.8-0.8,2.6
		c-0.3,0.8-0.8,1.6-1.4,2.2c-0.6,0.6-1.2,1.1-2,1.5c-0.8,0.4-1.7,0.6-2.8,0.6c-0.9,0-1.7-0.2-2.4-0.5c-0.7-0.3-1.2-0.8-1.7-1.4
		c-0.5-0.6-0.9-1.2-1.2-2c-0.3-0.7-0.5-1.5-0.7-2.3c-0.2-0.8-0.3-1.6-0.3-2.4c-0.1-0.8-0.1-1.6-0.1-2.3c0-0.9,0-1.8,0.1-2.7
		c0.1-0.9,0.2-1.8,0.4-2.7c0.2-0.9,0.4-1.7,0.8-2.6c0.3-0.8,0.7-1.6,1.3-2.4c-0.5-0.4-0.9-0.9-1.2-1.4c-0.3-0.5-0.6-1.1-0.8-1.7
		c-0.2-0.6-0.3-1.2-0.4-1.9c-0.1-0.6-0.1-1.3-0.1-1.9c0-0.7,0-1.4,0.1-2.2c0.1-0.7,0.2-1.5,0.4-2.2c0.2-0.7,0.5-1.4,0.8-2.1
		c0.3-0.7,0.7-1.3,1.2-1.8c0.1-0.1,0.2-0.2,0.3-0.4c0.1-0.1,0.3-0.3,0.4-0.4c0.1-0.1,0.3-0.2,0.4-0.3c0.2-0.1,0.3-0.1,0.4-0.1
		c0.3,0,0.5,0.1,0.6,0.2c0.3-0.2,0.6-0.3,1-0.4c0.4-0.1,0.7-0.2,1.1-0.2c1,0,1.8,0.3,2.5,0.8c0.7,0.5,1.2,1.2,1.6,2
		c0.4,0.8,0.7,1.7,0.9,2.6c0.2,0.9,0.3,1.8,0.3,2.6c0,0.6,0,1.2-0.1,1.9c-0.1,0.6-0.2,1.3-0.4,1.9c-0.2,0.6-0.4,1.3-0.7,1.9
		c-0.3,0.6-0.6,1.1-0.9,1.6c0.8,0.5,1.5,1.2,2,2c0.5,0.8,0.9,1.6,1.2,2.5c0.3,0.9,0.5,1.9,0.6,2.8
		C352.4,575.2,352.5,576.2,352.5,577.1z M343.5,566.1c0.5-0.2,0.9-0.3,1.4-0.3c0.3-0.4,0.6-0.8,0.8-1.3c0.2-0.5,0.4-1,0.6-1.6
		c0.2-0.6,0.3-1.1,0.3-1.7c0.1-0.6,0.1-1.1,0.1-1.5c0-0.3,0-0.7-0.1-1.1c-0.1-0.4-0.1-0.9-0.2-1.3c-0.1-0.5-0.3-0.9-0.4-1.3
		c-0.2-0.4-0.4-0.7-0.6-0.9c-0.1,0.1-0.2,0.3-0.3,0.4c-0.1,0.1-0.1,0.3-0.2,0.4c-0.1,0.1-0.2,0.2-0.3,0.3c-0.1,0.1-0.3,0.1-0.5,0.1
		c-0.1,0-0.3,0-0.4-0.1c-0.1,0-0.3-0.1-0.4-0.1c-0.4,0.7-0.6,1.6-0.8,2.5c-0.2,0.9-0.2,1.8-0.2,2.6c0,0.3,0,0.7,0.1,1.2
		c0.1,0.5,0.1,1,0.2,1.5c0.1,0.5,0.2,1,0.4,1.4C343,565.6,343.2,565.9,343.5,566.1z M345.4,569.2c-0.1,0.1-0.3,0.3-0.4,0.4
		c-0.1,0.1-0.3,0.2-0.4,0.4c-0.4,0.5-0.8,1.1-1,1.8c-0.3,0.7-0.5,1.5-0.7,2.3c-0.2,0.8-0.3,1.6-0.3,2.4c-0.1,0.8-0.1,1.5-0.1,2.1
		c0,0.3,0,0.6,0,1.1c0,0.5,0.1,1,0.1,1.6c0.1,0.6,0.1,1.2,0.3,1.8c0.1,0.6,0.3,1.2,0.4,1.6c0.2,0.5,0.4,0.9,0.7,1.2
		c0.3,0.3,0.6,0.5,0.9,0.5c0.6,0,1.1-0.2,1.5-0.5c0.4-0.3,0.8-0.8,1.1-1.3c0.3-0.5,0.5-1.1,0.7-1.8c0.2-0.7,0.3-1.4,0.4-2
		c0.1-0.7,0.2-1.3,0.2-1.9c0-0.6,0.1-1.1,0.1-1.5c0-0.6,0-1.3,0-2c0-0.7-0.1-1.4-0.2-2c-0.1-0.7-0.3-1.3-0.6-1.9
		c-0.3-0.6-0.6-1.2-1.1-1.7c-0.2-0.3-0.5-0.5-0.7-0.6L345.4,569.2z"/>
	<path class="st16" d="M367.8,565.3c0,0.5,0,1,0,1.5c0,0.5,0,1,0,1.5c0,3.3-0.4,6.5-1.1,9.6c-0.7,3.1-1.8,6.1-3.1,9.2
		c-0.1,0.1-0.1,0.3-0.2,0.5c-0.1,0.2-0.2,0.4-0.3,0.6c-0.1,0.2-0.3,0.4-0.4,0.5c-0.2,0.1-0.3,0.2-0.5,0.2c-0.2,0-0.5-0.1-0.7-0.2
		c-0.2-0.1-0.4-0.3-0.6-0.5c-0.2-0.2-0.3-0.4-0.4-0.6c-0.1-0.2-0.2-0.5-0.2-0.7c0-0.2,0.1-0.4,0.2-0.8c0.1-0.4,0.3-0.8,0.4-1.2
		c0.2-0.4,0.3-0.8,0.5-1.2c0.2-0.4,0.3-0.7,0.4-0.9c0.4-1.2,0.8-2.4,1.1-3.6c0.3-1.2,0.6-2.4,0.8-3.6c-0.7,0.5-1.5,0.7-2.3,0.7
		c-1.1,0-2-0.2-2.7-0.7c-0.7-0.5-1.3-1.1-1.8-1.9c-0.5-0.8-0.9-1.6-1.1-2.6c-0.3-1-0.5-2-0.6-3c-0.1-1-0.2-2-0.2-3c0-1,0-1.8,0-2.6
		c0-0.7,0-1.4,0.1-2.2c0.1-0.8,0.2-1.6,0.4-2.4c0.2-0.8,0.4-1.6,0.7-2.3c0.3-0.7,0.7-1.4,1.1-2c0.5-0.6,1-1.1,1.7-1.4
		c0.7-0.3,1.4-0.5,2.3-0.5c0.9,0,1.7,0.2,2.4,0.7c0.7,0.5,1.3,1.1,1.8,1.9c0.5,0.8,1,1.7,1.3,2.7c0.3,1,0.6,2,0.9,3
		c0.2,1,0.4,2,0.5,2.9C367.7,563.8,367.8,564.6,367.8,565.3z M363.7,563.8c0-0.4-0.1-0.8-0.1-1.3c-0.1-0.5-0.1-1.1-0.2-1.7
		c-0.1-0.6-0.2-1.2-0.4-1.8c-0.1-0.6-0.3-1.2-0.5-1.8c-0.2-0.6-0.4-1-0.7-1.5c-0.3-0.4-0.5-0.7-0.9-0.9c-0.4,0.1-0.7,0.2-0.9,0.6
		c-0.3,0.3-0.5,0.8-0.7,1.3c-0.2,0.5-0.3,1.1-0.4,1.7c-0.1,0.6-0.2,1.2-0.3,1.8c-0.1,0.6-0.1,1.1-0.1,1.6c0,0.5,0,0.9,0,1.2
		c0,0.3,0,0.8,0,1.4c0,0.6,0.1,1.3,0.1,2c0.1,0.7,0.2,1.5,0.3,2.2c0.1,0.8,0.3,1.5,0.4,2.1c0.2,0.7,0.4,1.2,0.7,1.7
		c0.3,0.5,0.6,0.7,0.9,0.8c0.5-0.4,1-0.9,1.3-1.6c0.3-0.7,0.6-1.5,0.8-2.3c0.2-0.8,0.4-1.6,0.5-2.5c0.1-0.8,0.1-1.5,0.1-2.2
		c0-0.1,0-0.3,0-0.4C363.6,564,363.7,563.9,363.7,563.8z"/>
	<path class="st16" d="M373.9,585.6c0,1.1-0.2,2.1-0.5,3.1c-0.3,1-0.8,1.9-1.4,2.8c-0.1,0.1-0.2,0.2-0.3,0.4
		c-0.1,0.1-0.2,0.3-0.3,0.4c-0.1,0.1-0.2,0.2-0.4,0.3c-0.1,0.1-0.3,0.1-0.4,0.1c-0.2,0-0.4-0.1-0.7-0.2c-0.2-0.1-0.5-0.3-0.7-0.5
		c-0.2-0.2-0.4-0.4-0.5-0.7c-0.1-0.2-0.2-0.5-0.2-0.6c0-0.1,0.1-0.3,0.2-0.5s0.2-0.4,0.3-0.5c0.1-0.2,0.3-0.4,0.4-0.5
		c0.1-0.2,0.2-0.3,0.3-0.5c0.2-0.4,0.4-0.8,0.5-1.1c0.1-0.3,0.2-0.7,0.3-1c0.1-0.3,0.1-0.7,0.1-1c0-0.3,0.1-0.7,0.1-1.2
		c0-0.3,0.1-0.5,0.3-0.6c0.2-0.1,0.4-0.1,0.7-0.1c0.7,0,1.2,0.1,1.6,0.4C373.7,584.3,373.9,584.8,373.9,585.6z"/>
	<path class="st16" d="M386.1,554.2c0,0.4-0.1,0.9-0.2,1.3c-0.4,2.5-0.7,4.9-1,7.4c-0.3,2.4-0.6,4.9-0.8,7.4
		c-0.3,2.5-0.5,5.1-0.7,7.6c-0.2,2.5-0.5,5.1-0.7,7.6l-0.2,1.8c0,0.2-0.1,0.4-0.1,0.6c0,0.2-0.1,0.4-0.1,0.6
		c-0.1,0.2-0.2,0.3-0.3,0.4c-0.2,0.1-0.4,0.2-0.6,0.2c-0.2,0-0.4,0-0.7-0.1c-0.3-0.1-0.6-0.2-0.9-0.3c-0.3-0.1-0.6-0.3-0.8-0.5
		c-0.2-0.2-0.4-0.4-0.5-0.6c0-0.1-0.1-0.3-0.1-0.4c0-0.1,0-0.3,0-0.4c0-0.4,0-0.8,0.1-1.3c0.1-0.4,0.2-0.8,0.2-1.3
		c0.1-0.6,0.2-1.2,0.2-1.8c0.1-0.6,0.1-1.2,0.2-1.8c0.3-2.6,0.6-5.1,0.8-7.7c0.3-2.5,0.6-5.1,0.9-7.6c0.2-1.7,0.5-3.4,0.7-5
		c0.2-1.7,0.5-3.3,0.8-5c-1.1,0.1-2.2,0.2-3.3,0.2c-1.1,0.1-2.2,0.1-3.4,0.1c-0.1,0-0.3,0-0.4,0c-0.2,0-0.3,0-0.4-0.1
		c-0.1-0.1-0.3-0.1-0.3-0.2c-0.1-0.1-0.1-0.2-0.1-0.4c0-0.6,0.2-1.1,0.6-1.5c0.4-0.3,0.9-0.5,1.5-0.6c0.5-0.1,1-0.1,1.5-0.2
		c0.5,0,1-0.1,1.5-0.1c1-0.1,2-0.3,3-0.5c1-0.2,2-0.3,3-0.3c0.4,0,0.7,0.2,0.8,0.5c0.1,0.3,0.2,0.6,0.2,0.9c0,0.2,0,0.4-0.1,0.5
		C386.1,553.8,386.1,554,386.1,554.2z"/>
	<path class="st16" d="M397.2,564.5c0,0.5,0,1.1-0.1,1.7c0,0.6-0.1,1.3-0.2,1.9c-0.1,0.7-0.3,1.3-0.4,2c-0.2,0.6-0.5,1.2-0.8,1.7
		c-0.3,0.5-0.7,0.9-1.2,1.2c-0.5,0.3-1.1,0.5-1.7,0.5c-0.7,0-1.3-0.2-1.8-0.5c-0.5-0.3-0.9-0.7-1.2-1.3c-0.3-0.5-0.6-1.1-0.7-1.7
		c-0.2-0.6-0.3-1.2-0.4-1.8c-0.2-0.8-0.3-1.6-0.3-2.4c-0.1-0.8-0.1-1.6-0.1-2.5s0-1.6,0.1-2.4c0.1-0.8,0.2-1.6,0.5-2.4
		c-0.1-0.1-0.1-0.2-0.1-0.3c0-0.1-0.1-0.2-0.1-0.3c0-0.1,0-0.1,0-0.2s0-0.1,0.1-0.2c0.2-0.4,0.4-0.8,0.6-1.2
		c0.3-0.4,0.5-0.8,0.9-1.1c0.3-0.3,0.7-0.6,1.1-0.8c0.4-0.2,0.9-0.3,1.4-0.3c0.7,0,1.3,0.2,1.8,0.5c0.5,0.4,0.9,0.8,1.3,1.4
		c0.3,0.6,0.6,1.3,0.8,2c0.2,0.7,0.4,1.5,0.5,2.3c0.1,0.8,0.2,1.5,0.2,2.2C397.2,563.4,397.2,564,397.2,564.5z M394.4,565.4
		c0-0.3,0-0.8,0-1.3c0-0.5-0.1-1-0.1-1.6c-0.1-0.6-0.1-1.1-0.2-1.7c-0.1-0.6-0.2-1.2-0.3-1.7c-0.1-0.5-0.3-1-0.4-1.5
		c-0.2-0.4-0.4-0.8-0.6-1.1c-0.4,0.6-0.7,1.1-0.9,1.6c-0.2,0.5-0.4,1-0.5,1.5c-0.1,0.5-0.2,1-0.2,1.6c0,0.6-0.1,1.2-0.1,1.9
		c0,0.2,0,0.6,0,1.1c0,0.5,0.1,1.1,0.1,1.7c0.1,0.6,0.1,1.3,0.2,1.9c0.1,0.7,0.2,1.3,0.3,1.8c0.1,0.5,0.3,1,0.5,1.4
		c0.2,0.4,0.4,0.5,0.6,0.5c0.1,0,0.2-0.1,0.3-0.2c0.1-0.1,0.2-0.2,0.2-0.3c0.1-0.1,0.1-0.3,0.2-0.4c0.1-0.1,0.1-0.2,0.2-0.3
		c0.3-0.8,0.5-1.6,0.6-2.4C394.3,567,394.4,566.2,394.4,565.4z M405.5,558.5c0,0.4-0.1,0.8-0.2,1.1c-0.2,0.4-0.3,0.7-0.5,1.1
		c-1.4,3.6-2.7,7.1-3.9,10.7c-1.3,3.6-2.5,7.1-3.7,10.7c-0.1,0.2-0.1,0.4-0.2,0.7c-0.1,0.3-0.2,0.7-0.3,1c-0.1,0.3-0.2,0.7-0.3,0.9
		c-0.1,0.3-0.2,0.5-0.3,0.6c-0.1,0.2-0.3,0.3-0.5,0.3c-0.2,0-0.4,0-0.6-0.1c-0.2-0.1-0.4-0.2-0.7-0.3c-0.2-0.1-0.4-0.3-0.5-0.5
		c-0.1-0.2-0.2-0.4-0.2-0.5c0-0.2,0.1-0.5,0.3-1.1c0.2-0.6,0.5-1.4,0.8-2.3c0.3-0.9,0.7-2,1.1-3.1c0.4-1.2,0.9-2.3,1.3-3.6
		c0.5-1.2,0.9-2.4,1.4-3.7c0.5-1.2,0.9-2.3,1.3-3.3c0.4-1,0.7-1.9,1-2.7c0.3-0.8,0.5-1.3,0.6-1.7l1.3-3.4c0.1-0.3,0.2-0.6,0.3-0.9
		c0.1-0.3,0.2-0.6,0.4-0.8c0.1-0.2,0.2-0.3,0.3-0.4c0.1-0.1,0.2-0.2,0.4-0.2c0.4,0,0.7,0.2,1,0.5
		C405.4,557.8,405.5,558.2,405.5,558.5z M411.5,577.8c0,0.5,0,1.1-0.1,1.7c0,0.6-0.1,1.3-0.2,1.9s-0.3,1.3-0.4,2
		c-0.2,0.6-0.5,1.2-0.8,1.7c-0.3,0.5-0.7,0.9-1.2,1.2c-0.5,0.3-1.1,0.5-1.7,0.5c-0.7,0-1.3-0.2-1.8-0.5c-0.5-0.3-0.9-0.7-1.2-1.3
		c-0.3-0.5-0.6-1.1-0.7-1.7c-0.2-0.6-0.3-1.2-0.4-1.8c-0.2-0.8-0.3-1.6-0.3-2.4c-0.1-0.8-0.1-1.6-0.1-2.5s0-1.6,0.1-2.4
		c0.1-0.8,0.2-1.6,0.5-2.4c-0.1-0.1-0.1-0.2-0.1-0.3c0-0.1-0.1-0.2-0.1-0.3c0-0.1,0-0.1,0-0.2s0-0.1,0.1-0.2
		c0.2-0.4,0.4-0.8,0.6-1.2c0.3-0.4,0.5-0.8,0.9-1.1c0.3-0.3,0.7-0.6,1.1-0.8c0.4-0.2,0.9-0.3,1.4-0.3c0.7,0,1.3,0.2,1.8,0.5
		c0.5,0.4,0.9,0.8,1.3,1.4c0.3,0.6,0.6,1.3,0.8,2c0.2,0.7,0.4,1.5,0.5,2.3c0.1,0.8,0.2,1.5,0.2,2.2
		C411.5,576.7,411.5,577.3,411.5,577.8z M408.7,578.6c0-0.3,0-0.8,0-1.3c0-0.5-0.1-1-0.1-1.6c-0.1-0.6-0.1-1.1-0.2-1.7
		c-0.1-0.6-0.2-1.2-0.3-1.7c-0.1-0.5-0.3-1-0.4-1.5c-0.2-0.4-0.4-0.8-0.6-1.1c-0.4,0.6-0.7,1.1-0.9,1.6c-0.2,0.5-0.4,1-0.5,1.5
		c-0.1,0.5-0.2,1-0.2,1.6c0,0.6-0.1,1.2-0.1,1.9c0,0.2,0,0.6,0,1.1c0,0.5,0.1,1.1,0.1,1.7c0.1,0.6,0.1,1.3,0.2,1.9
		c0.1,0.7,0.2,1.3,0.3,1.8c0.1,0.5,0.3,1,0.5,1.4c0.2,0.4,0.4,0.5,0.7,0.5c0.1,0,0.2-0.1,0.3-0.2c0.1-0.1,0.2-0.2,0.2-0.3
		c0.1-0.1,0.1-0.3,0.2-0.4c0.1-0.1,0.1-0.2,0.2-0.3c0.3-0.8,0.5-1.6,0.6-2.4C408.6,580.3,408.7,579.5,408.7,578.6z"/>
</g>
<g>
	<path class="st16" d="M357.3,1204.1c0,0.4-0.1,0.6-0.2,0.8s-0.4,0.2-0.8,0.2c-0.2,0-0.5,0-0.7-0.1c-0.2-0.1-0.5-0.1-0.7-0.2
		c-0.2-0.1-0.4-0.2-0.6-0.4c-0.2-0.2-0.3-0.4-0.4-0.6c-0.1-0.1-0.1-0.4-0.2-0.9c-0.1-0.5-0.1-1.1-0.2-1.7c-0.1-0.7-0.1-1.4-0.2-2.2
		c-0.1-0.8-0.1-1.5-0.2-2.2c0-0.7-0.1-1.3-0.1-1.9c0-0.5-0.1-0.9-0.1-1.1c-0.4,0-0.7,0-1.1,0c-0.4,0-0.7,0-1.1,0c-0.4,0-0.9,0-1.5,0
		c-0.6,0-1.2-0.1-1.7-0.2c-0.6-0.1-1-0.4-1.4-0.7c-0.4-0.3-0.6-0.7-0.6-1.3c0-0.6,0.1-1.2,0.3-1.8c0.2-0.6,0.3-1.2,0.5-1.7
		c0.8-2.8,1.7-5.6,2.6-8.3c0.9-2.7,1.8-5.5,2.7-8.2c-0.1-0.5-0.1-1-0.2-1.5c-0.1-0.5-0.1-1-0.1-1.5c0-0.4,0.1-0.7,0.4-0.8
		c0.3-0.1,0.6-0.2,0.9-0.2c0.3,0,0.6,0,1,0.1c0.4,0.1,0.7,0.2,1,0.4s0.6,0.4,0.8,0.7c0.2,0.3,0.3,0.6,0.3,0.9c0,0.1,0,0.2-0.1,0.3
		c0,0.1-0.1,0.2-0.1,0.3c0,1,0,1.9,0.1,2.9c0.1,1,0.1,2,0.2,2.9l0.7,14.1c0.5-0.1,1.1-0.1,1.6-0.2c0.5-0.1,1.1-0.1,1.6-0.1
		c0.3,0,0.6,0.1,0.8,0.2s0.3,0.4,0.3,0.8c0,0.7-0.1,1.2-0.4,1.5c-0.2,0.3-0.6,0.6-0.9,0.8c-0.4,0.2-0.8,0.3-1.3,0.3
		c-0.5,0-1,0.1-1.5,0.1l0.3,5.8c0,0.8,0.1,1.6,0.1,2.4C357.3,1202.5,357.3,1203.3,357.3,1204.1z M352.8,1190.5
		c-0.1-1.5-0.2-3.1-0.3-4.6c-0.1-1.5-0.2-3-0.3-4.5c-0.4,1.5-0.9,3-1.4,4.5c-0.5,1.6-0.9,3.1-1.2,4.6h0.7c0.4,0,0.8,0,1.2,0
		S352.4,1190.5,352.8,1190.5z"/>
	<path class="st16" d="M365.5,1202.3c0,1.1-0.2,2.1-0.5,3.1c-0.3,1-0.8,1.9-1.4,2.8c-0.1,0.1-0.2,0.2-0.3,0.4
		c-0.1,0.1-0.2,0.3-0.3,0.4c-0.1,0.1-0.2,0.2-0.4,0.3c-0.1,0.1-0.3,0.1-0.4,0.1c-0.2,0-0.4-0.1-0.7-0.2c-0.2-0.1-0.5-0.3-0.7-0.5
		c-0.2-0.2-0.4-0.4-0.5-0.7c-0.1-0.2-0.2-0.5-0.2-0.6c0-0.1,0.1-0.3,0.2-0.5s0.2-0.4,0.3-0.5c0.1-0.2,0.3-0.4,0.4-0.5
		c0.1-0.2,0.2-0.3,0.3-0.5c0.2-0.4,0.4-0.8,0.5-1.1c0.1-0.3,0.2-0.7,0.3-1c0.1-0.3,0.1-0.7,0.1-1c0-0.3,0.1-0.7,0.1-1.2
		c0-0.3,0.1-0.5,0.3-0.6c0.2-0.1,0.4-0.1,0.7-0.1c0.7,0,1.2,0.1,1.6,0.4C365.3,1200.9,365.5,1201.4,365.5,1202.3z"/>
	<path class="st16" d="M377,1204.1c0,0.4-0.1,0.6-0.2,0.8s-0.4,0.2-0.8,0.2c-0.2,0-0.5,0-0.7-0.1c-0.2-0.1-0.5-0.1-0.7-0.2
		c-0.2-0.1-0.4-0.2-0.6-0.4c-0.2-0.2-0.3-0.4-0.4-0.6c-0.1-0.1-0.1-0.4-0.2-0.9c-0.1-0.5-0.1-1.1-0.2-1.7c-0.1-0.7-0.1-1.4-0.2-2.2
		c-0.1-0.8-0.1-1.5-0.2-2.2c0-0.7-0.1-1.3-0.1-1.9c0-0.5-0.1-0.9-0.1-1.1c-0.4,0-0.7,0-1.1,0c-0.4,0-0.7,0-1.1,0c-0.4,0-0.9,0-1.5,0
		c-0.6,0-1.2-0.1-1.7-0.2c-0.6-0.1-1-0.4-1.4-0.7c-0.4-0.3-0.6-0.7-0.6-1.3c0-0.6,0.1-1.2,0.3-1.8c0.2-0.6,0.3-1.2,0.5-1.7
		c0.8-2.8,1.7-5.6,2.6-8.3c0.9-2.7,1.8-5.5,2.7-8.2c-0.1-0.5-0.1-1-0.2-1.5c-0.1-0.5-0.1-1-0.1-1.5c0-0.4,0.1-0.7,0.4-0.8
		c0.3-0.1,0.6-0.2,0.9-0.2c0.3,0,0.6,0,1,0.1c0.4,0.1,0.7,0.2,1,0.4s0.6,0.4,0.8,0.7c0.2,0.3,0.3,0.6,0.3,0.9c0,0.1,0,0.2-0.1,0.3
		c0,0.1-0.1,0.2-0.1,0.3c0,1,0,1.9,0.1,2.9c0.1,1,0.1,2,0.2,2.9l0.7,14.1c0.5-0.1,1.1-0.1,1.6-0.2c0.5-0.1,1.1-0.1,1.6-0.1
		c0.3,0,0.6,0.1,0.8,0.2s0.3,0.4,0.3,0.8c0,0.7-0.1,1.2-0.4,1.5c-0.2,0.3-0.6,0.6-0.9,0.8c-0.4,0.2-0.8,0.3-1.3,0.3
		c-0.5,0-1,0.1-1.5,0.1l0.3,5.8c0,0.8,0.1,1.6,0.1,2.4C377,1202.5,377,1203.3,377,1204.1z M372.6,1190.5c-0.1-1.5-0.2-3.1-0.3-4.6
		c-0.1-1.5-0.2-3-0.3-4.5c-0.4,1.5-0.9,3-1.4,4.5c-0.5,1.6-0.9,3.1-1.2,4.6h0.7c0.4,0,0.8,0,1.2,0
		C371.8,1190.6,372.2,1190.5,372.6,1190.5z"/>
	<path class="st16" d="M390.1,1181.1c0,0.5,0,1.1-0.1,1.7s-0.1,1.3-0.2,1.9s-0.3,1.3-0.4,2c-0.2,0.6-0.5,1.2-0.8,1.7
		c-0.3,0.5-0.7,0.9-1.2,1.2c-0.5,0.3-1.1,0.5-1.7,0.5c-0.7,0-1.3-0.2-1.8-0.5c-0.5-0.3-0.9-0.7-1.2-1.3c-0.3-0.5-0.6-1.1-0.7-1.7
		c-0.2-0.6-0.3-1.2-0.4-1.8c-0.2-0.8-0.3-1.6-0.3-2.4c-0.1-0.8-0.1-1.6-0.1-2.5c0-0.8,0-1.6,0.1-2.4c0.1-0.8,0.2-1.6,0.5-2.4
		c-0.1-0.1-0.1-0.2-0.1-0.3c0-0.1-0.1-0.2-0.1-0.3c0-0.1,0-0.1,0-0.2s0-0.1,0.1-0.2c0.2-0.4,0.4-0.8,0.6-1.2
		c0.3-0.4,0.6-0.8,0.9-1.1c0.3-0.3,0.7-0.6,1.1-0.8c0.4-0.2,0.9-0.3,1.4-0.3c0.7,0,1.3,0.2,1.8,0.5c0.5,0.4,0.9,0.8,1.3,1.4
		c0.3,0.6,0.6,1.3,0.8,2c0.2,0.7,0.4,1.5,0.5,2.3c0.1,0.8,0.2,1.5,0.2,2.2C390,1180,390.1,1180.6,390.1,1181.1z M387.2,1182
		c0-0.3,0-0.8,0-1.3c0-0.5-0.1-1-0.1-1.6c-0.1-0.6-0.1-1.1-0.2-1.7c-0.1-0.6-0.2-1.2-0.3-1.7c-0.1-0.5-0.3-1-0.4-1.5
		c-0.2-0.4-0.4-0.8-0.6-1.1c-0.4,0.6-0.7,1.1-0.9,1.6c-0.2,0.5-0.4,1-0.5,1.5c-0.1,0.5-0.2,1-0.2,1.6c0,0.6-0.1,1.2-0.1,1.9
		c0,0.2,0,0.6,0,1.1c0,0.5,0.1,1.1,0.1,1.7c0.1,0.6,0.1,1.3,0.2,1.9c0.1,0.7,0.2,1.3,0.3,1.8c0.1,0.5,0.3,1,0.5,1.4
		c0.2,0.4,0.4,0.5,0.6,0.5c0.1,0,0.2-0.1,0.3-0.2c0.1-0.1,0.2-0.2,0.2-0.3c0.1-0.1,0.1-0.3,0.2-0.4c0.1-0.1,0.1-0.2,0.2-0.3
		c0.3-0.8,0.5-1.6,0.6-2.4C387.1,1183.6,387.2,1182.8,387.2,1182z M398.3,1175.1c0,0.4-0.1,0.8-0.2,1.1c-0.2,0.4-0.3,0.7-0.5,1.1
		c-1.4,3.6-2.7,7.1-3.9,10.7c-1.3,3.6-2.5,7.1-3.7,10.7c-0.1,0.2-0.1,0.4-0.2,0.7s-0.2,0.7-0.3,1c-0.1,0.3-0.2,0.7-0.3,0.9
		c-0.1,0.3-0.2,0.5-0.3,0.6c-0.1,0.2-0.3,0.3-0.5,0.3c-0.2,0-0.4,0-0.6-0.1c-0.2-0.1-0.4-0.2-0.7-0.3c-0.2-0.1-0.4-0.3-0.5-0.5
		c-0.1-0.2-0.2-0.4-0.2-0.5c0-0.2,0.1-0.5,0.3-1.1s0.5-1.4,0.8-2.3c0.3-0.9,0.7-2,1.1-3.1c0.4-1.2,0.9-2.3,1.3-3.6
		c0.5-1.2,0.9-2.4,1.4-3.7c0.5-1.2,0.9-2.3,1.3-3.3c0.4-1,0.7-1.9,1-2.7c0.3-0.8,0.5-1.3,0.6-1.7l1.3-3.4c0.1-0.3,0.2-0.6,0.3-0.9
		s0.2-0.6,0.4-0.8c0.1-0.2,0.2-0.3,0.3-0.4s0.2-0.2,0.4-0.2c0.4,0,0.7,0.2,1,0.5C398.2,1174.4,398.3,1174.8,398.3,1175.1z
		 M404.4,1194.4c0,0.5,0,1.1-0.1,1.7c0,0.6-0.1,1.3-0.2,1.9c-0.1,0.7-0.3,1.3-0.4,2c-0.2,0.6-0.5,1.2-0.8,1.7
		c-0.3,0.5-0.7,0.9-1.2,1.2s-1.1,0.5-1.7,0.5c-0.7,0-1.3-0.2-1.8-0.5c-0.5-0.3-0.9-0.7-1.2-1.3c-0.3-0.5-0.6-1.1-0.7-1.7
		c-0.2-0.6-0.3-1.2-0.4-1.8c-0.2-0.8-0.3-1.6-0.3-2.4c-0.1-0.8-0.1-1.6-0.1-2.5s0-1.6,0.1-2.4c0.1-0.8,0.2-1.6,0.5-2.4
		c-0.1-0.1-0.1-0.2-0.1-0.3c0-0.1-0.1-0.2-0.1-0.3c0-0.1,0-0.1,0-0.2s0-0.1,0.1-0.2c0.2-0.4,0.4-0.8,0.6-1.2
		c0.3-0.4,0.6-0.8,0.9-1.1c0.3-0.3,0.7-0.6,1.1-0.8c0.4-0.2,0.9-0.3,1.4-0.3c0.7,0,1.3,0.2,1.8,0.5c0.5,0.4,0.9,0.8,1.3,1.4
		c0.3,0.6,0.6,1.3,0.8,2c0.2,0.7,0.4,1.5,0.5,2.3c0.1,0.8,0.2,1.5,0.2,2.2C404.3,1193.3,404.4,1193.9,404.4,1194.4z M401.5,1195.3
		c0-0.3,0-0.8,0-1.3c0-0.5-0.1-1-0.1-1.6c-0.1-0.6-0.1-1.1-0.2-1.7c-0.1-0.6-0.2-1.2-0.3-1.7c-0.1-0.5-0.3-1-0.4-1.5
		c-0.2-0.4-0.4-0.8-0.6-1.1c-0.4,0.6-0.7,1.1-0.9,1.6c-0.2,0.5-0.4,1-0.5,1.5c-0.1,0.5-0.2,1-0.2,1.6c0,0.6-0.1,1.2-0.1,1.9
		c0,0.2,0,0.6,0,1.1c0,0.5,0.1,1.1,0.1,1.7c0.1,0.6,0.1,1.3,0.2,1.9c0.1,0.7,0.2,1.3,0.3,1.8c0.1,0.5,0.3,1,0.5,1.4
		c0.2,0.4,0.4,0.5,0.7,0.5c0.1,0,0.2-0.1,0.3-0.2c0.1-0.1,0.2-0.2,0.2-0.3c0.1-0.1,0.1-0.3,0.2-0.4c0.1-0.1,0.1-0.2,0.2-0.3
		c0.3-0.8,0.5-1.6,0.6-2.4C401.4,1196.9,401.5,1196.1,401.5,1195.3z"/>
</g>
<g>
	<path class="st16" d="M355.5,1944.8c0,0.4-0.1,0.7-0.4,0.8c-0.3,0.1-0.6,0.2-0.9,0.2c-0.3,0-0.6,0-0.9-0.1s-0.7-0.2-0.9-0.3
		c-0.3-0.2-0.6-0.3-0.7-0.5c-0.2-0.2-0.3-0.4-0.3-0.7c-0.1-0.3-0.1-0.5-0.1-0.8c0-0.3,0-0.6,0-0.9c-0.3-5.2-0.6-10.5-0.7-15.6
		c-0.2-5.2-0.3-10.4-0.3-15.6c0-0.3,0.1-0.6,0.2-0.8c0.1-0.2,0.4-0.3,0.8-0.3c0.5,0,0.9,0.1,1.4,0.3c0.5,0.2,0.8,0.6,1,1
		c0.1,0.1,0.1,0.4,0.1,0.7c0,0.3,0,0.7,0.1,1c0,0.4,0,0.7,0,1.1c0,0.3,0,0.6,0,0.8c0.1,4.4,0.3,8.8,0.5,13.1s0.5,8.7,0.9,13.1
		c0.1,0.6,0.1,1.2,0.2,1.8C355.4,1943.7,355.5,1944.3,355.5,1944.8z"/>
	<path class="st16" d="M362.2,1943.4c0,1.1-0.2,2.1-0.5,3.1c-0.3,1-0.8,1.9-1.4,2.8c-0.1,0.1-0.2,0.2-0.3,0.4
		c-0.1,0.1-0.2,0.3-0.3,0.4c-0.1,0.1-0.2,0.2-0.4,0.3c-0.1,0.1-0.3,0.1-0.4,0.1c-0.2,0-0.4-0.1-0.7-0.2c-0.2-0.1-0.5-0.3-0.7-0.5
		c-0.2-0.2-0.4-0.4-0.5-0.7c-0.1-0.2-0.2-0.5-0.2-0.6c0-0.1,0.1-0.3,0.2-0.5c0.1-0.2,0.2-0.4,0.3-0.5c0.1-0.2,0.3-0.4,0.4-0.5
		c0.1-0.2,0.2-0.3,0.3-0.5c0.2-0.4,0.4-0.8,0.5-1.1c0.1-0.3,0.2-0.7,0.3-1c0.1-0.3,0.1-0.7,0.1-1c0-0.3,0.1-0.7,0.1-1.2
		c0-0.3,0.1-0.5,0.3-0.6c0.2-0.1,0.4-0.1,0.7-0.1c0.7,0,1.2,0.1,1.6,0.4C362.1,1942,362.2,1942.6,362.2,1943.4z"/>
	<path class="st16" d="M374.5,1911.9c0,0.4-0.1,0.9-0.2,1.3c-0.4,2.5-0.7,4.9-1,7.4s-0.6,4.9-0.8,7.4c-0.3,2.5-0.5,5.1-0.7,7.6
		c-0.2,2.5-0.5,5.1-0.7,7.6l-0.2,1.8c0,0.2-0.1,0.4-0.1,0.6c0,0.2-0.1,0.4-0.1,0.6c-0.1,0.2-0.2,0.3-0.3,0.4
		c-0.2,0.1-0.4,0.2-0.6,0.2c-0.2,0-0.4,0-0.7-0.1c-0.3-0.1-0.6-0.2-0.9-0.3c-0.3-0.1-0.6-0.3-0.8-0.5c-0.2-0.2-0.4-0.4-0.5-0.6
		c0-0.1-0.1-0.3-0.1-0.4c0-0.1,0-0.3,0-0.4c0-0.4,0-0.8,0.1-1.3c0.1-0.4,0.2-0.8,0.2-1.3c0.1-0.6,0.2-1.2,0.2-1.8
		c0.1-0.6,0.1-1.2,0.2-1.8c0.3-2.6,0.6-5.1,0.8-7.7c0.3-2.5,0.6-5.1,0.9-7.6c0.2-1.7,0.5-3.4,0.7-5c0.2-1.7,0.5-3.3,0.8-5
		c-1.1,0.1-2.2,0.2-3.3,0.2c-1.1,0.1-2.2,0.1-3.4,0.1c-0.1,0-0.3,0-0.4,0c-0.2,0-0.3,0-0.4-0.1s-0.3-0.1-0.3-0.2s-0.1-0.2-0.1-0.4
		c0-0.6,0.2-1.1,0.6-1.5c0.4-0.3,0.9-0.5,1.5-0.6c0.5-0.1,1-0.1,1.5-0.2c0.5,0,1-0.1,1.5-0.1c1-0.1,2-0.3,3-0.5c1-0.2,2-0.3,3-0.3
		c0.4,0,0.7,0.2,0.8,0.5c0.1,0.3,0.2,0.6,0.2,0.9c0,0.2,0,0.4-0.1,0.5C374.5,1911.5,374.5,1911.7,374.5,1911.9z"/>
	<path class="st16" d="M385.6,1922.2c0,0.5,0,1.1-0.1,1.7c0,0.6-0.1,1.3-0.2,1.9s-0.3,1.3-0.4,2c-0.2,0.6-0.5,1.2-0.8,1.7
		c-0.3,0.5-0.7,0.9-1.2,1.2c-0.5,0.3-1.1,0.5-1.7,0.5c-0.7,0-1.3-0.2-1.8-0.5c-0.5-0.3-0.9-0.7-1.2-1.3c-0.3-0.5-0.6-1.1-0.7-1.7
		c-0.2-0.6-0.3-1.2-0.4-1.8c-0.2-0.8-0.3-1.6-0.3-2.4c-0.1-0.8-0.1-1.6-0.1-2.5c0-0.8,0-1.6,0.1-2.4c0.1-0.8,0.2-1.6,0.5-2.4
		c-0.1-0.1-0.1-0.2-0.1-0.3c0-0.1-0.1-0.2-0.1-0.3c0-0.1,0-0.1,0-0.2s0-0.1,0.1-0.2c0.2-0.4,0.4-0.8,0.6-1.2
		c0.3-0.4,0.5-0.8,0.9-1.1c0.3-0.3,0.7-0.6,1.1-0.8c0.4-0.2,0.9-0.3,1.4-0.3c0.7,0,1.3,0.2,1.8,0.5c0.5,0.4,0.9,0.8,1.3,1.4
		c0.3,0.6,0.6,1.3,0.8,2c0.2,0.7,0.4,1.5,0.5,2.3c0.1,0.8,0.2,1.5,0.2,2.2C385.6,1921.1,385.6,1921.7,385.6,1922.2z M382.8,1923.1
		c0-0.3,0-0.8,0-1.3c0-0.5-0.1-1-0.1-1.6c-0.1-0.6-0.1-1.1-0.2-1.7c-0.1-0.6-0.2-1.2-0.3-1.7c-0.1-0.5-0.3-1-0.4-1.5
		c-0.2-0.4-0.4-0.8-0.6-1.1c-0.4,0.6-0.7,1.1-0.9,1.6c-0.2,0.5-0.4,1-0.5,1.5c-0.1,0.5-0.2,1-0.2,1.6c0,0.6-0.1,1.2-0.1,1.9
		c0,0.2,0,0.6,0,1.1c0,0.5,0.1,1.1,0.1,1.7c0.1,0.6,0.1,1.3,0.2,1.9s0.2,1.3,0.3,1.8c0.1,0.5,0.3,1,0.5,1.4c0.2,0.4,0.4,0.5,0.6,0.5
		c0.1,0,0.2-0.1,0.3-0.2c0.1-0.1,0.2-0.2,0.2-0.3c0.1-0.1,0.1-0.3,0.2-0.4c0.1-0.1,0.1-0.2,0.2-0.3c0.3-0.8,0.5-1.6,0.6-2.4
		C382.7,1924.7,382.8,1923.9,382.8,1923.1z M393.9,1916.2c0,0.4-0.1,0.8-0.2,1.1c-0.2,0.4-0.3,0.7-0.5,1.1
		c-1.4,3.6-2.7,7.1-3.9,10.7c-1.3,3.6-2.5,7.1-3.7,10.7c-0.1,0.2-0.1,0.4-0.2,0.7c-0.1,0.3-0.2,0.7-0.3,1c-0.1,0.3-0.2,0.7-0.3,0.9
		c-0.1,0.3-0.2,0.5-0.3,0.6c-0.1,0.2-0.3,0.3-0.5,0.3c-0.2,0-0.4,0-0.6-0.1c-0.2-0.1-0.4-0.2-0.7-0.3c-0.2-0.1-0.4-0.3-0.5-0.5
		c-0.1-0.2-0.2-0.4-0.2-0.5c0-0.2,0.1-0.5,0.3-1.1c0.2-0.6,0.5-1.4,0.8-2.3c0.3-0.9,0.7-2,1.1-3.1c0.4-1.2,0.9-2.3,1.3-3.6
		c0.5-1.2,0.9-2.4,1.4-3.7c0.5-1.2,0.9-2.3,1.3-3.3c0.4-1,0.7-1.9,1-2.7c0.3-0.8,0.5-1.3,0.6-1.7l1.3-3.4c0.1-0.3,0.2-0.6,0.3-0.9
		s0.2-0.6,0.4-0.8c0.1-0.2,0.2-0.3,0.3-0.4s0.2-0.2,0.4-0.2c0.4,0,0.7,0.2,1,0.5C393.8,1915.6,393.9,1915.9,393.9,1916.2z
		 M399.9,1935.5c0,0.5,0,1.1-0.1,1.7c0,0.6-0.1,1.3-0.2,1.9s-0.3,1.3-0.4,2c-0.2,0.6-0.5,1.2-0.8,1.7c-0.3,0.5-0.7,0.9-1.2,1.2
		c-0.5,0.3-1.1,0.5-1.7,0.5c-0.7,0-1.3-0.2-1.8-0.5c-0.5-0.3-0.9-0.7-1.2-1.3c-0.3-0.5-0.6-1.1-0.7-1.7c-0.2-0.6-0.3-1.2-0.4-1.8
		c-0.2-0.8-0.3-1.6-0.3-2.4c-0.1-0.8-0.1-1.6-0.1-2.5c0-0.8,0-1.6,0.1-2.4c0.1-0.8,0.2-1.6,0.5-2.4c-0.1-0.1-0.1-0.2-0.1-0.3
		c0-0.1-0.1-0.2-0.1-0.3c0-0.1,0-0.1,0-0.2s0-0.1,0.1-0.2c0.2-0.4,0.4-0.8,0.6-1.2s0.5-0.8,0.9-1.1c0.3-0.3,0.7-0.6,1.1-0.8
		c0.4-0.2,0.9-0.3,1.4-0.3c0.7,0,1.3,0.2,1.8,0.5c0.5,0.4,0.9,0.8,1.3,1.4c0.3,0.6,0.6,1.3,0.8,2c0.2,0.7,0.4,1.5,0.5,2.3
		c0.1,0.8,0.2,1.5,0.2,2.2C399.9,1934.4,399.9,1935,399.9,1935.5z M397.1,1936.4c0-0.3,0-0.8,0-1.3c0-0.5-0.1-1-0.1-1.6
		c-0.1-0.6-0.1-1.1-0.2-1.7c-0.1-0.6-0.2-1.2-0.3-1.7c-0.1-0.5-0.3-1-0.4-1.5c-0.2-0.4-0.4-0.8-0.6-1.1c-0.4,0.6-0.7,1.1-0.9,1.6
		c-0.2,0.5-0.4,1-0.5,1.5c-0.1,0.5-0.2,1-0.2,1.6c0,0.6-0.1,1.2-0.1,1.9c0,0.2,0,0.6,0,1.1c0,0.5,0.1,1.1,0.1,1.7
		c0.1,0.6,0.1,1.3,0.2,1.9c0.1,0.7,0.2,1.3,0.3,1.8c0.1,0.5,0.3,1,0.5,1.4c0.2,0.4,0.4,0.5,0.7,0.5c0.1,0,0.2-0.1,0.3-0.2
		c0.1-0.1,0.2-0.2,0.2-0.3c0.1-0.1,0.1-0.3,0.2-0.4c0.1-0.1,0.1-0.2,0.2-0.3c0.3-0.8,0.5-1.6,0.6-2.4
		C397,1938,397.1,1937.2,397.1,1936.4z"/>
</g>
<g>
	<path class="st16" d="M353.8,2591.1c0,0.4-0.1,0.7-0.4,0.8c-0.3,0.1-0.6,0.2-0.9,0.2c-0.3,0-0.6,0-0.9-0.1
		c-0.4-0.1-0.7-0.2-0.9-0.3c-0.3-0.2-0.6-0.3-0.7-0.5c-0.2-0.2-0.3-0.4-0.3-0.7c-0.1-0.3-0.1-0.5-0.1-0.8c0-0.3,0-0.6,0-0.9
		c-0.3-5.2-0.6-10.5-0.7-15.6c-0.2-5.2-0.3-10.4-0.3-15.6c0-0.3,0.1-0.6,0.2-0.8c0.1-0.2,0.4-0.3,0.8-0.3c0.5,0,0.9,0.1,1.4,0.3
		c0.5,0.2,0.8,0.6,1,1c0.1,0.1,0.1,0.4,0.1,0.7c0,0.3,0,0.7,0.1,1c0,0.4,0,0.7,0,1.1c0,0.3,0,0.6,0,0.8c0.1,4.4,0.3,8.8,0.5,13.1
		c0.2,4.4,0.5,8.7,0.9,13.1c0.1,0.6,0.1,1.2,0.2,1.8C353.8,2589.9,353.8,2590.5,353.8,2591.1z"/>
	<path class="st16" d="M360.6,2589.7c0,1.1-0.2,2.1-0.5,3.1c-0.3,1-0.8,1.9-1.4,2.8c-0.1,0.1-0.2,0.2-0.3,0.4
		c-0.1,0.1-0.2,0.3-0.3,0.4c-0.1,0.1-0.2,0.2-0.4,0.3c-0.1,0.1-0.3,0.1-0.4,0.1c-0.2,0-0.4-0.1-0.7-0.2c-0.2-0.1-0.5-0.3-0.7-0.5
		c-0.2-0.2-0.4-0.4-0.5-0.7c-0.1-0.2-0.2-0.5-0.2-0.6c0-0.1,0.1-0.3,0.2-0.5s0.2-0.4,0.3-0.5c0.1-0.2,0.3-0.4,0.4-0.5
		c0.1-0.2,0.2-0.3,0.3-0.5c0.2-0.4,0.4-0.8,0.5-1.1c0.1-0.3,0.2-0.7,0.3-1c0.1-0.3,0.1-0.7,0.1-1c0-0.3,0.1-0.7,0.1-1.2
		c0-0.3,0.1-0.5,0.3-0.6c0.2-0.1,0.4-0.1,0.7-0.1c0.7,0,1.2,0.1,1.6,0.4C360.4,2588.3,360.6,2588.9,360.6,2589.7z"/>
	<path class="st16" d="M376.7,2581.9c0,0.7,0,1.4-0.1,2.2c-0.1,0.8-0.2,1.6-0.3,2.5c-0.2,0.8-0.4,1.6-0.7,2.4
		c-0.3,0.8-0.7,1.5-1.1,2.1c-0.5,0.6-1,1.1-1.7,1.5c-0.7,0.4-1.4,0.5-2.3,0.5c-0.9,0-1.7-0.3-2.4-0.8c-0.7-0.5-1.3-1.2-1.8-2
		c-0.5-0.8-1-1.7-1.3-2.8c-0.3-1-0.6-2.1-0.8-3.1c-0.2-1-0.4-2-0.5-3c-0.1-1-0.1-1.8-0.1-2.4c0-0.5,0-0.9,0-1.4c0-0.5,0-0.9,0-1.4
		c0-3.4,0.4-6.6,1.1-9.7c0.7-3.1,1.7-6.2,3.1-9.3c0.1-0.1,0.1-0.3,0.2-0.5s0.2-0.4,0.3-0.6c0.1-0.2,0.3-0.4,0.4-0.5
		c0.1-0.1,0.3-0.2,0.5-0.2c0.2,0,0.5,0.1,0.7,0.2c0.2,0.1,0.5,0.3,0.7,0.4c0.2,0.2,0.4,0.4,0.5,0.6c0.1,0.2,0.2,0.5,0.2,0.7
		c0,0.2-0.1,0.5-0.2,0.9s-0.3,0.9-0.5,1.4c-0.2,0.5-0.4,1-0.5,1.4c-0.2,0.5-0.3,0.8-0.4,1c-0.4,1.1-0.7,2.2-1,3.4
		c-0.3,1.1-0.5,2.3-0.8,3.4c0.4-0.3,0.7-0.4,1.2-0.6c0.4-0.1,0.8-0.2,1.3-0.2c1,0,1.9,0.2,2.7,0.7c0.7,0.5,1.3,1.1,1.8,1.9
		c0.5,0.8,0.9,1.7,1.1,2.6s0.5,2,0.6,3c0.1,1,0.2,2,0.3,3C376.7,2580.3,376.7,2581.2,376.7,2581.9z M367.6,2580.8
		c0,0.3,0.1,0.8,0.1,1.3c0.1,0.5,0.1,1.1,0.2,1.7c0.1,0.6,0.2,1.3,0.4,1.9c0.1,0.6,0.3,1.3,0.5,1.8c0.2,0.6,0.4,1.1,0.7,1.5
		c0.3,0.4,0.5,0.7,0.9,0.9c0.4,0,0.7-0.2,0.9-0.6c0.3-0.3,0.5-0.8,0.7-1.3c0.2-0.5,0.3-1.1,0.4-1.6c0.1-0.6,0.2-1.2,0.3-1.8
		c0.1-0.6,0.1-1.1,0.1-1.6c0-0.5,0-0.9,0-1.1c0-0.3,0-0.8,0-1.4c0-0.6-0.1-1.3-0.1-2.1c-0.1-0.7-0.2-1.5-0.3-2.3
		c-0.1-0.8-0.3-1.5-0.4-2.2c-0.2-0.7-0.4-1.2-0.7-1.7c-0.3-0.5-0.6-0.8-0.9-0.9c-0.5,0.4-1,1-1.3,1.7c-0.3,0.7-0.6,1.5-0.8,2.4
		c-0.2,0.8-0.4,1.7-0.5,2.5c-0.1,0.8-0.1,1.6-0.1,2.2c0,0.1,0,0.3,0,0.4S367.6,2580.7,367.6,2580.8z"/>
	<path class="st16" d="M387.2,2568.5c0,0.5,0,1.1-0.1,1.7c0,0.6-0.1,1.3-0.2,1.9c-0.1,0.7-0.3,1.3-0.4,2c-0.2,0.6-0.5,1.2-0.8,1.7
		c-0.3,0.5-0.7,0.9-1.2,1.2c-0.5,0.3-1.1,0.5-1.7,0.5c-0.7,0-1.3-0.2-1.8-0.5c-0.5-0.3-0.9-0.7-1.2-1.3c-0.3-0.5-0.6-1.1-0.7-1.7
		c-0.2-0.6-0.3-1.2-0.4-1.8c-0.2-0.8-0.3-1.6-0.3-2.4c-0.1-0.8-0.1-1.6-0.1-2.5s0-1.6,0.1-2.4c0.1-0.8,0.2-1.6,0.5-2.4
		c-0.1-0.1-0.1-0.2-0.1-0.3c0-0.1-0.1-0.2-0.1-0.3c0-0.1,0-0.1,0-0.2s0-0.1,0.1-0.2c0.2-0.4,0.4-0.8,0.6-1.2
		c0.3-0.4,0.5-0.8,0.9-1.1c0.3-0.3,0.7-0.6,1.1-0.8c0.4-0.2,0.9-0.3,1.4-0.3c0.7,0,1.3,0.2,1.8,0.5c0.5,0.4,0.9,0.8,1.3,1.4
		c0.3,0.6,0.6,1.3,0.8,2c0.2,0.7,0.4,1.5,0.5,2.3c0.1,0.8,0.2,1.5,0.2,2.2C387.2,2567.4,387.2,2568,387.2,2568.5z M384.4,2569.4
		c0-0.3,0-0.8,0-1.3c0-0.5-0.1-1-0.1-1.6c-0.1-0.6-0.1-1.1-0.2-1.7c-0.1-0.6-0.2-1.2-0.3-1.7c-0.1-0.5-0.3-1-0.4-1.5
		c-0.2-0.4-0.4-0.8-0.6-1.1c-0.4,0.6-0.7,1.1-0.9,1.6c-0.2,0.5-0.4,1-0.5,1.5c-0.1,0.5-0.2,1-0.2,1.6s-0.1,1.2-0.1,1.9
		c0,0.2,0,0.6,0,1.1c0,0.5,0.1,1.1,0.1,1.7c0.1,0.6,0.1,1.3,0.2,1.9c0.1,0.7,0.2,1.3,0.3,1.8c0.1,0.5,0.3,1,0.5,1.4
		c0.2,0.4,0.4,0.5,0.6,0.5c0.1,0,0.2-0.1,0.3-0.2c0.1-0.1,0.2-0.2,0.2-0.3c0.1-0.1,0.1-0.3,0.2-0.4c0.1-0.1,0.1-0.2,0.2-0.3
		c0.3-0.8,0.5-1.6,0.6-2.4C384.3,2571,384.4,2570.2,384.4,2569.4z M395.5,2562.5c0,0.4-0.1,0.8-0.2,1.1c-0.2,0.4-0.3,0.7-0.5,1.1
		c-1.4,3.6-2.7,7.1-3.9,10.7c-1.3,3.6-2.5,7.1-3.7,10.7c-0.1,0.2-0.1,0.4-0.2,0.7c-0.1,0.3-0.2,0.7-0.3,1s-0.2,0.7-0.3,0.9
		c-0.1,0.3-0.2,0.5-0.3,0.6c-0.1,0.2-0.3,0.3-0.5,0.3c-0.2,0-0.4,0-0.6-0.1c-0.2-0.1-0.4-0.2-0.7-0.3c-0.2-0.1-0.4-0.3-0.5-0.5
		c-0.1-0.2-0.2-0.4-0.2-0.5c0-0.2,0.1-0.5,0.3-1.1c0.2-0.6,0.5-1.4,0.8-2.3c0.3-0.9,0.7-2,1.1-3.1c0.4-1.2,0.9-2.3,1.3-3.6
		c0.5-1.2,0.9-2.4,1.4-3.7c0.5-1.2,0.9-2.3,1.3-3.3c0.4-1,0.7-1.9,1-2.7c0.3-0.8,0.5-1.3,0.6-1.7l1.3-3.4c0.1-0.3,0.2-0.6,0.3-0.9
		c0.1-0.3,0.2-0.6,0.4-0.8c0.1-0.2,0.2-0.3,0.3-0.4c0.1-0.1,0.2-0.2,0.4-0.2c0.4,0,0.7,0.2,1,0.5
		C395.4,2561.8,395.5,2562.2,395.5,2562.5z M401.5,2581.8c0,0.5,0,1.1-0.1,1.7c0,0.6-0.1,1.3-0.2,1.9c-0.1,0.7-0.3,1.3-0.4,2
		c-0.2,0.6-0.5,1.2-0.8,1.7c-0.3,0.5-0.7,0.9-1.2,1.2s-1.1,0.5-1.7,0.5c-0.7,0-1.3-0.2-1.8-0.5c-0.5-0.3-0.9-0.7-1.2-1.3
		c-0.3-0.5-0.6-1.1-0.7-1.7c-0.2-0.6-0.3-1.2-0.4-1.8c-0.2-0.8-0.3-1.6-0.3-2.4c-0.1-0.8-0.1-1.6-0.1-2.5s0-1.6,0.1-2.4
		c0.1-0.8,0.2-1.6,0.5-2.4c-0.1-0.1-0.1-0.2-0.1-0.3c0-0.1-0.1-0.2-0.1-0.3c0-0.1,0-0.1,0-0.2s0-0.1,0.1-0.2
		c0.2-0.4,0.4-0.8,0.6-1.2c0.3-0.4,0.5-0.8,0.9-1.1c0.3-0.3,0.7-0.6,1.1-0.8c0.4-0.2,0.9-0.3,1.4-0.3c0.7,0,1.3,0.2,1.8,0.5
		c0.5,0.4,0.9,0.8,1.3,1.4c0.3,0.6,0.6,1.3,0.8,2c0.2,0.7,0.4,1.5,0.5,2.3s0.2,1.5,0.2,2.2C401.5,2580.7,401.5,2581.3,401.5,2581.8z
		 M398.7,2582.7c0-0.3,0-0.8,0-1.3c0-0.5-0.1-1-0.1-1.6c-0.1-0.6-0.1-1.1-0.2-1.7c-0.1-0.6-0.2-1.2-0.3-1.7c-0.1-0.5-0.3-1-0.4-1.5
		c-0.2-0.4-0.4-0.8-0.6-1.1c-0.4,0.6-0.7,1.1-0.9,1.6c-0.2,0.5-0.4,1-0.5,1.5c-0.1,0.5-0.2,1-0.2,1.6c0,0.6-0.1,1.2-0.1,1.9
		c0,0.2,0,0.6,0,1.1c0,0.5,0.1,1.1,0.1,1.7c0.1,0.6,0.1,1.3,0.2,1.9c0.1,0.7,0.2,1.3,0.3,1.8c0.1,0.5,0.3,1,0.5,1.4
		c0.2,0.4,0.4,0.5,0.7,0.5c0.1,0,0.2-0.1,0.3-0.2c0.1-0.1,0.2-0.2,0.2-0.3c0.1-0.1,0.1-0.3,0.2-0.4s0.1-0.2,0.2-0.3
		c0.3-0.8,0.5-1.6,0.6-2.4C398.6,2584.3,398.7,2583.5,398.7,2582.7z"/>
</g>
</svg>
