<?xml version="1.0" encoding="utf-8"?>
<!-- Generator: Adobe Illustrator 24.1.2, SVG Export Plug-In . SVG Version: 6.00 Build 0)  -->
<svg version="1.1" id="Layer_1" xmlns="http://www.w3.org/2000/svg" xmlns:xlink="http://www.w3.org/1999/xlink" x="0px" y="0px"
	 viewBox="0 0 1920 837" style="enable-background:new 0 0 1920 837;" xml:space="preserve">
<style type="text/css">
	.st0{fill:#3D2C18;}
	.st1{fill:#73D66E;}
	.st2{fill:#A2D36E;}
	.st3{fill:#8E5D2D;stroke:#000000;stroke-width:3;stroke-miterlimit:10;}
	.st4{fill:#A06B32;}
	.st5{fill:#B28252;}
	.st6{fill:#4A7726;}
	.st7{fill:#C99E77;}
	.st8{fill:#3A0D36;}
	.st9{fill:#470234;}
	.st10{fill:#B9CC9E;}
	.st11{fill:#183403;}
	.st12{fill:#B0C151;}
	.st13{fill:#DCD676;}
	.st14{fill:#9A622F;}
	.st15{fill:#D3BA9B;}
	.st16{fill:#64B75E;}
</style>
<g>
	<g>
		<ellipse transform="matrix(0.7071 -0.7071 0.7071 0.7071 -151.7952 332.5296)" cx="325.5" cy="349.5" rx="153.7" ry="153.7"/>
		<ellipse transform="matrix(0.7071 -0.7071 0.7071 0.7071 -53.4333 291.4792)" cx="325.1" cy="210.2" rx="94.7" ry="94.7"/>
		<polygon points="242.9,162.3 408.7,168.3 466.6,288.6 186.6,284.1 		"/>
	</g>
	<g>
		
			<ellipse transform="matrix(0.7071 -0.7071 0.7071 0.7071 -152.023 332.369)" class="st0" cx="325.2" cy="349.7" rx="148.5" ry="148.5"/>
		<circle class="st0" cx="324.8" cy="215.1" r="91.5"/>
		<polygon class="st0" points="245.4,168.9 405.6,174.6 461.5,290.8 191,286.5 		"/>
	</g>
	<g>
		<circle class="st1" cx="325.1" cy="346.8" r="141.9"/>
		
			<ellipse transform="matrix(0.7071 -0.7071 0.7071 0.7071 -59.2351 293.5616)" class="st1" cx="324.7" cy="218.3" rx="87.4" ry="87.4"/>
		<polygon class="st1" points="248.9,174.1 401.8,179.6 455.3,290.6 196.9,286.5 		"/>
	</g>
	<g>
		
			<ellipse transform="matrix(0.7071 -0.7071 0.7071 0.7071 -152.2579 333.0747)" class="st2" cx="325.9" cy="350.3" rx="116" ry="116"/>
		
			<ellipse transform="matrix(0.7071 -0.7071 0.7071 0.7071 -78.0572 302.1077)" class="st2" cx="325.6" cy="245.3" rx="71.4" ry="71.4"/>
		<polygon class="st2" points="263.6,209.1 388.7,213.6 432.4,304.4 221.2,301 		"/>
	</g>
	
		<ellipse transform="matrix(0.7071 -0.7071 0.7071 0.7071 -153.3138 330.5392)" class="st3" cx="322.3" cy="350.3" rx="85.9" ry="85.9"/>
	<circle class="st4" cx="324.1" cy="350.6" r="81.2"/>
	<circle class="st5" cx="354.9" cy="323.8" r="25.7"/>
</g>
<g>
	<g>
		<ellipse transform="matrix(0.7071 -0.7071 0.7071 0.7071 -31.1654 651.7071)" cx="771.1" cy="363.5" rx="144.4" ry="144.4"/>
		<circle cx="771.1" cy="174.3" r="83.9"/>
		<polyline points="691.6,146.3 631.2,331 911.8,331.1 852.9,155.6 		"/>
	</g>
	<g>
		
			<ellipse transform="matrix(0.7071 -0.7071 0.7071 0.7071 -30.2348 651.1057)" class="st6" cx="770.8" cy="362" rx="138.9" ry="138.9"/>
		<circle class="st6" cx="770.8" cy="180.1" r="80.7"/>
		<polyline class="st6" points="694.4,153.2 636.3,330.8 906.2,330.9 849.6,162 		"/>
	</g>
	<g>
		<circle class="st2" cx="770.7" cy="361.2" r="129"/>
		<circle class="st2" cx="770.7" cy="192.2" r="75"/>
		<polyline class="st2" points="699.7,167.2 645.7,332.2 896.5,332.3 843.8,175.5 		"/>
	</g>
	<g>
		<circle class="st1" cx="771.3" cy="359.9" r="109.4"/>
		
			<ellipse transform="matrix(0.7071 -0.7071 0.7071 0.7071 72.7384 608.867)" class="st1" cx="771.3" cy="216.6" rx="63.6" ry="63.6"/>
		<polyline class="st1" points="711.1,195.4 665.3,335.3 878,335.4 833.3,202.4 		"/>
	</g>
	<ellipse class="st3" cx="773" cy="342.9" rx="85.1" ry="104.4"/>
	<ellipse class="st4" cx="771.2" cy="345.2" rx="77.5" ry="95"/>
	<circle class="st7" cx="809.2" cy="304.7" r="17.5"/>
</g>
<g>
	<g>
		<ellipse cx="1234.5" cy="377.8" rx="118" ry="130.5"/>
		<ellipse cx="1227.6" cy="223.3" rx="76.7" ry="133.5"/>
		<polyline points="1153.6,188 1120.6,343.9 1349.8,347 1300.2,178.8 		"/>
	</g>
	<g>
		<ellipse class="st8" cx="1234.4" cy="376.6" rx="112.1" ry="123.9"/>
		<ellipse class="st8" cx="1227.9" cy="229.9" rx="72.9" ry="126.8"/>
		<polyline class="st8" points="1157.6,196.3 1126.2,344.4 1343.9,347.3 1296.8,187.7 		"/>
	</g>
	<g>
		<ellipse class="st9" cx="1237.5" cy="380.8" rx="78.2" ry="86.4"/>
		<ellipse class="st9" cx="1232.9" cy="278.5" rx="50.8" ry="88.4"/>
		<polyline class="st9" points="1183.9,255.1 1162.1,358.4 1313.8,360.4 1281,249.1 		"/>
	</g>
	<g>
		<g>
			<ellipse class="st2" cx="1233.5" cy="370.8" rx="99" ry="109.4"/>
			<ellipse class="st2" cx="1227.7" cy="241.2" rx="64.4" ry="112"/>
			<polyline class="st2" points="1165.7,211.6 1138,342.4 1330.2,344.9 1288.6,203.9 			"/>
		</g>
		<g>
			<ellipse class="st10" cx="1232.5" cy="367.2" rx="78.2" ry="86.4"/>
			<ellipse class="st10" cx="1227.9" cy="264.9" rx="50.8" ry="88.4"/>
			<polyline class="st10" points="1178.9,241.5 1157.1,344.8 1308.8,346.8 1276,235.4 			"/>
		</g>
	</g>
	<ellipse class="st3" cx="1235.5" cy="357.8" rx="73" ry="96.2"/>
	<ellipse class="st4" cx="1236.3" cy="356.3" rx="64.5" ry="85"/>
	<circle class="st7" cx="1266" cy="329.7" r="17.5"/>
</g>
<g>
	<g>
		<g>
			<g>
				<ellipse transform="matrix(0.7071 -0.7071 0.7071 0.7071 231.3197 1287.1655)" cx="1669.4" cy="364.4" rx="140.9" ry="140.9"/>
			</g>
			<circle cx="1668.8" cy="158.3" r="78.1"/>
			<polyline points="1591.2,150.2 1535.2,321.4 1803.6,321.4 1746.5,150.2 			"/>
		</g>
	</g>
	<g>
		<g>
			<g>
				<circle class="st11" cx="1668.9" cy="363.3" r="134.4"/>
			</g>
			
				<ellipse transform="matrix(0.2298 -0.9732 0.9732 0.2298 1122.7648 1752.123)" class="st11" cx="1668.3" cy="166.7" rx="74.5" ry="74.5"/>
			<polyline class="st11" points="1594.3,159 1540.9,322.3 1796.9,322.3 1742.4,159 			"/>
		</g>
	</g>
	<g>
		<g>
			<g>
				<circle class="st12" cx="1669.1" cy="354.2" r="120"/>
			</g>
			<circle class="st12" cx="1668.6" cy="178.7" r="66.5"/>
			<polyline class="st12" points="1602.4,171.8 1554.8,317.6 1783.4,317.6 1734.7,171.8 			"/>
		</g>
	</g>
	<g>
		<g>
			<g>
				
					<ellipse transform="matrix(0.7071 -0.7071 0.7071 0.7071 245.4335 1280.6881)" class="st13" cx="1668.6" cy="344.1" rx="96.6" ry="96.6"/>
			</g>
			
				<ellipse transform="matrix(0.7071 -0.7071 0.7071 0.7071 345.1766 1239.0399)" class="st13" cx="1668.2" cy="202.9" rx="53.5" ry="53.5"/>
			<polyline class="st13" points="1615,197.3 1576.7,314.6 1760.6,314.6 1721.5,197.3 			"/>
		</g>
	</g>
	<g>
		<circle class="st3" cx="1673.5" cy="341.4" r="62.8"/>
		<polyline class="st3" points="1616.6,314.9 1671,209.7 1728.2,310.5 		"/>
	</g>
	<g>
		<circle class="st14" cx="1670.8" cy="340.5" r="58.7"/>
		<polyline class="st14" points="1617.6,315.7 1668.4,217.2 1721.9,311.5 		"/>
	</g>
	<circle class="st15" cx="1693.1" cy="315.2" r="12"/>
</g>
<g>
	<path d="M310.2,576.8c0,0.7-0.2,1.1-0.5,1.4c-0.3,0.3-0.8,0.5-1.4,0.6c0.1,2.3,0.2,4.5,0.3,6.7c0,2.2,0.1,4.5,0.1,6.7
		c0,0.4-0.1,0.6-0.2,0.8s-0.4,0.3-0.8,0.3c-0.3,0-0.6,0-1-0.1s-0.6-0.2-0.8-0.3c-0.2-0.2-0.5-0.4-0.6-0.6c-0.2-0.3-0.2-0.6-0.2-1
		v-6.9c0-0.9,0-1.7,0-2.6s0-1.7,0-2.6c-1.3,0.2-2.5,0.3-3.8,0.5c-1.3,0.1-2.5,0.2-3.8,0.3c0,3.1,0.1,6.2,0.3,9.4
		c0,0.6,0.1,1.3,0.1,1.9s0.1,1.2,0.1,1.8c0,0.3-0.1,0.5-0.2,0.7s-0.4,0.2-0.7,0.2c-0.2,0-0.5,0-0.7-0.1s-0.5-0.1-0.7-0.2
		c-0.2-0.1-0.5-0.2-0.7-0.3s-0.4-0.3-0.5-0.5c0-0.1-0.1-0.3-0.1-0.7s-0.1-0.8-0.1-1.4c0-0.6,0-1.2-0.1-1.9s0-1.4,0-2.2s0-1.5,0-2.2
		c0-0.7,0-1.4,0-2s0-1.1,0-1.6s0-0.8,0-0.9c-0.2,0-0.4,0-0.5-0.1c-0.2-0.1-0.2-0.3-0.2-0.5c0-0.3,0.1-0.5,0.2-0.8
		c0.2-0.2,0.3-0.4,0.6-0.6v-13.3c0-0.3,0.1-0.5,0.2-0.7c0.1-0.2,0.3-0.3,0.6-0.3c0.5,0,0.9,0.1,1.2,0.2s0.5,0.3,0.7,0.6
		c0.2,0.3,0.3,0.6,0.3,0.9c0.1,0.4,0.1,0.7,0.1,1.2c0,1.8,0.1,3.6,0.1,5.4s0,3.6,0.1,5.4c1.3-0.1,2.5-0.2,3.8-0.4
		c1.2-0.1,2.5-0.3,3.8-0.6c-0.1-1.6-0.2-3.1-0.3-4.6c-0.1-1.5-0.3-3.1-0.5-4.6c-0.1-0.7-0.3-1.5-0.4-2.2c-0.2-0.7-0.2-1.5-0.2-2.2
		c0-0.3,0.1-0.4,0.3-0.5c0.2-0.1,0.4-0.1,0.6-0.1c0.4,0,0.7,0.1,1.1,0.2s0.6,0.3,0.9,0.6c0.1,0.2,0.3,0.6,0.4,1.2
		c0.1,0.6,0.3,1.3,0.4,2.2c0.1,0.8,0.2,1.7,0.4,2.7s0.2,1.9,0.3,2.8c0.1,0.9,0.2,1.7,0.2,2.4c0.1,0.7,0.1,1.2,0.1,1.5
		c0.2,0,0.4-0.1,0.5-0.1c0.2,0,0.4-0.1,0.5-0.1c0.4,0,0.6,0.1,0.8,0.3C310.1,576.2,310.2,576.5,310.2,576.8z"/>
	<path d="M328.1,581.8c0,0.3-0.1,0.6-0.3,1s-0.5,0.6-0.7,0.7c-0.1,0-0.2,0.1-0.4,0.1s-0.4,0.1-0.6,0.1c-0.2,0-0.4,0.1-0.6,0.1
		c-0.2,0-0.3,0.1-0.4,0.1l0.5,3.3c0.2,1,0.3,2,0.4,3c0.1,1,0.3,2,0.6,3c0,0.1,0.1,0.2,0.1,0.2s0,0.2,0,0.3c0,0.2-0.1,0.3-0.2,0.4
		c-0.1,0.1-0.2,0.2-0.4,0.2c-0.2,0.1-0.3,0.1-0.5,0.1s-0.3,0-0.5,0h-0.3c-0.5,0-0.8,0-1-0.1c-0.2-0.1-0.4-0.2-0.6-0.4
		s-0.2-0.4-0.3-0.7c0-0.3-0.1-0.6-0.2-1c-0.4-2.7-0.7-5.4-1.2-8c-0.9,0.1-1.8,0.2-2.7,0.3c-0.9,0.1-1.8,0.2-2.8,0.3l-0.7,4.3
		c0,0.3-0.1,0.6-0.1,1.1s-0.1,0.9-0.2,1.4c-0.1,0.5-0.1,0.9-0.2,1.3s-0.2,0.7-0.3,0.9c-0.1,0.2-0.2,0.3-0.2,0.4s-0.2,0.1-0.4,0.1
		c-0.3,0-0.5,0-0.8-0.1c-0.3-0.1-0.5-0.2-0.7-0.4c-0.2-0.2-0.4-0.4-0.5-0.6s-0.2-0.5-0.2-0.8s0-0.6,0.1-0.9c0.1-0.3,0.1-0.6,0.2-0.9
		c0.2-1,0.3-1.9,0.4-2.9c0.1-1,0.3-1.9,0.4-2.9c-0.1,0-0.2,0-0.4-0.1c-0.1,0-0.3-0.1-0.4-0.1s-0.2-0.1-0.3-0.2s-0.1-0.2-0.1-0.3
		c0-0.1,0.1-0.3,0.2-0.4c0.1-0.1,0.2-0.2,0.4-0.4c0.2-0.1,0.3-0.2,0.5-0.3c0.2-0.1,0.3-0.1,0.4-0.2c0.3-2.1,0.6-4.1,0.9-6.1
		s0.5-4.1,0.7-6.2c0.1-0.6,0.1-1.1,0.2-1.7s0.1-1.1,0.1-1.7c0.1-0.6,0.1-1.1,0.2-1.7s0.2-1.1,0.3-1.7c0.1-0.5,0.4-1,0.7-1.3
		s0.8-0.5,1.4-0.5c0.2,0,0.3,0,0.5,0c0.2,0,0.3,0.1,0.5,0.2c0.4,0.2,0.8,0.7,1.2,1.6s0.8,1.9,1.2,3.1c0.4,1.2,0.8,2.5,1.2,3.9
		c0.4,1.4,0.7,2.8,1,4.1s0.6,2.5,0.8,3.6c0.2,1.1,0.4,1.8,0.5,2.4c0.3,0,0.6-0.1,0.9-0.1c0.3,0,0.6-0.1,0.9-0.1c0.1,0,0.3,0,0.5,0
		s0.4,0.1,0.5,0.1c0.2,0.1,0.3,0.2,0.4,0.3C328,581.4,328.1,581.6,328.1,581.8z M321.2,581.6c-0.4-2.1-0.8-4.1-1.2-6.2
		c-0.4-2-1-4.1-1.6-6.1c-0.3,2.2-0.5,4.4-0.9,6.6s-0.6,4.4-1,6.5c0.8-0.1,1.6-0.2,2.3-0.4C319.6,581.9,320.4,581.8,321.2,581.6z"/>
	<path d="M342.1,587c0,1.1-0.2,2.1-0.5,3.1s-0.9,1.8-1.5,2.5c-0.7,0.7-1.4,1.3-2.4,1.7c-0.9,0.4-1.9,0.6-3.1,0.6
		c-1,0-1.9-0.2-2.8-0.5c-0.8-0.3-1.6-0.8-2.2-1.3s-1.1-1.3-1.4-2.1s-0.5-1.7-0.5-2.7c0-0.2,0-0.5,0-0.8s0.1-0.6,0.1-0.9
		c0.1-0.3,0.2-0.5,0.4-0.7c0.2-0.2,0.4-0.3,0.7-0.3c0.2,0,0.5,0,0.8,0.1c0.3,0.1,0.6,0.2,0.8,0.4s0.5,0.4,0.6,0.6
		c0.2,0.2,0.3,0.5,0.3,0.7v1.3c0,1,0.3,1.8,0.8,2.5c0.5,0.6,1.3,1,2.4,1c0.7,0,1.4-0.2,1.9-0.5s1-0.8,1.3-1.3
		c0.3-0.5,0.6-1.1,0.7-1.8c0.2-0.7,0.2-1.3,0.2-1.9c0-1.2-0.3-2.4-0.8-3.6c-0.5-1.2-1.1-2.3-1.9-3.4c-0.8-1.1-1.6-2.2-2.5-3.3
		s-1.7-2.1-2.5-3.2s-1.4-2.1-1.9-3.2c-0.5-1.1-0.8-2.1-0.8-3.2c0-0.9,0.2-1.7,0.5-2.3c0.4-0.7,0.8-1.2,1.4-1.6
		c0.6-0.4,1.3-0.7,2-0.9c0.8-0.2,1.5-0.3,2.3-0.3c1,0,1.9,0.1,2.6,0.4s1.4,0.7,2,1.2s1,1.2,1.2,1.9c0.3,0.8,0.4,1.6,0.4,2.6
		c0,0.1,0,0.3,0,0.5s-0.1,0.4-0.1,0.6c-0.1,0.2-0.1,0.4-0.3,0.5c-0.1,0.2-0.3,0.2-0.5,0.2c-0.3,0-0.6-0.1-0.9-0.2
		c-0.2-0.1-0.5-0.3-0.6-0.4c-0.2-0.1-0.3-0.3-0.4-0.4c-0.1-0.2-0.2-0.3-0.2-0.5s-0.1-0.4-0.1-0.7c-0.1-0.5-0.2-1-0.3-1.4
		s-0.3-0.8-0.5-1.1s-0.5-0.5-0.9-0.7s-0.9-0.2-1.5-0.2c-0.4,0-0.8,0-1.2,0.1c-0.4,0.1-0.7,0.2-1,0.4c-0.3,0.2-0.5,0.5-0.7,0.8
		c-0.2,0.3-0.3,0.7-0.3,1.2c0,0.7,0.1,1.4,0.5,2.1c0.3,0.7,0.7,1.4,1.2,2.2c0.5,0.7,1,1.5,1.7,2.3c0.6,0.8,1.3,1.6,1.9,2.4
		s1.3,1.7,1.9,2.5c0.6,0.9,1.2,1.8,1.7,2.7s0.9,1.9,1.2,2.9C342,584.8,342.1,585.9,342.1,587z"/>
	<path d="M357.8,587c0,1.1-0.2,2.1-0.5,3.1s-0.9,1.8-1.5,2.5c-0.7,0.7-1.4,1.3-2.4,1.7c-0.9,0.4-1.9,0.6-3.1,0.6
		c-1,0-1.9-0.2-2.8-0.5c-0.8-0.3-1.6-0.8-2.2-1.3s-1.1-1.3-1.4-2.1s-0.5-1.7-0.5-2.7c0-0.2,0-0.5,0-0.8s0.1-0.6,0.1-0.9
		c0.1-0.3,0.2-0.5,0.4-0.7c0.2-0.2,0.4-0.3,0.7-0.3c0.2,0,0.5,0,0.8,0.1c0.3,0.1,0.6,0.2,0.8,0.4s0.5,0.4,0.6,0.6
		c0.2,0.2,0.3,0.5,0.3,0.7v1.3c0,1,0.3,1.8,0.8,2.5c0.5,0.6,1.3,1,2.4,1c0.7,0,1.4-0.2,1.9-0.5s1-0.8,1.3-1.3
		c0.3-0.5,0.6-1.1,0.7-1.8c0.2-0.7,0.2-1.3,0.2-1.9c0-1.2-0.3-2.4-0.8-3.6c-0.5-1.2-1.1-2.3-1.9-3.4c-0.8-1.1-1.6-2.2-2.5-3.3
		s-1.7-2.1-2.5-3.2s-1.4-2.1-1.9-3.2c-0.5-1.1-0.8-2.1-0.8-3.2c0-0.9,0.2-1.7,0.5-2.3c0.4-0.7,0.8-1.2,1.4-1.6
		c0.6-0.4,1.3-0.7,2-0.9c0.8-0.2,1.5-0.3,2.3-0.3c1,0,1.9,0.1,2.6,0.4s1.4,0.7,2,1.2s1,1.2,1.2,1.9c0.3,0.8,0.4,1.6,0.4,2.6
		c0,0.1,0,0.3,0,0.5s-0.1,0.4-0.1,0.6c-0.1,0.2-0.1,0.4-0.3,0.5c-0.1,0.2-0.3,0.2-0.5,0.2c-0.3,0-0.6-0.1-0.9-0.2
		c-0.2-0.1-0.5-0.3-0.6-0.4c-0.2-0.1-0.3-0.3-0.4-0.4c-0.1-0.2-0.2-0.3-0.2-0.5s-0.1-0.4-0.1-0.7c-0.1-0.5-0.2-1-0.3-1.4
		s-0.3-0.8-0.5-1.1s-0.5-0.5-0.9-0.7s-0.9-0.2-1.5-0.2c-0.4,0-0.8,0-1.2,0.1c-0.4,0.1-0.7,0.2-1,0.4c-0.3,0.2-0.5,0.5-0.7,0.8
		c-0.2,0.3-0.3,0.7-0.3,1.2c0,0.7,0.1,1.4,0.5,2.1c0.3,0.7,0.7,1.4,1.2,2.2c0.5,0.7,1,1.5,1.7,2.3c0.6,0.8,1.3,1.6,1.9,2.4
		s1.3,1.7,1.9,2.5c0.6,0.9,1.2,1.8,1.7,2.7s0.9,1.9,1.2,2.9C357.6,584.8,357.8,585.9,357.8,587z"/>
</g>
<g>
	<path d="M728.7,589.2c0,0.2-0.1,0.5-0.3,0.7c-0.2,0.2-0.4,0.5-0.7,0.7s-0.6,0.4-0.9,0.6c-0.3,0.2-0.5,0.3-0.7,0.5
		c-0.5,0.3-1,0.6-1.5,0.9s-1,0.5-1.5,0.7c-0.5,0.2-1.1,0.4-1.6,0.5c-0.5,0.1-1.1,0.2-1.7,0.2l-0.4,0c-0.5,0-1-0.1-1.4-0.2
		c-0.5-0.1-0.9-0.3-1.3-0.5c-0.4-0.2-0.8-0.5-1.1-0.9s-0.6-0.8-0.7-1.3c-0.1-0.4-0.2-0.9-0.3-1.4s-0.1-1.1-0.2-1.7s-0.1-1.2-0.1-1.7
		c0-0.6,0-1.1-0.1-1.5c-0.2-4.5-0.4-9-0.5-13.4c0-0.5-0.1-1-0.1-1.5s0-1,0-1.5c0-0.9,0.1-1.6,0.2-2.2s0.3-1.1,0.6-1.5
		s0.8-0.7,1.3-0.9c0.6-0.2,1.3-0.3,2.3-0.3s1.9,0,2.9,0s1.9,0,2.9,0c0.3,0,0.6,0,0.9,0c0.3,0,0.6,0,0.9,0.1c0.2,0,0.3,0.1,0.5,0.1
		c0.1,0.1,0.2,0.2,0.2,0.4c0,0.5-0.2,0.9-0.5,1.2c-0.4,0.3-0.8,0.4-1.3,0.5s-1,0.1-1.5,0.1c-0.5,0-0.9,0-1.3,0h-2.9
		c-0.3,0-0.6,0-0.9,0s-0.6,0-0.9,0c-0.1,0.2-0.1,0.4-0.2,0.7s0,0.5,0,0.7c0,1.6,0,3.2,0.1,4.7c0.1,1.6,0.2,3.1,0.2,4.7
		c0.9-0.1,1.8-0.2,2.7-0.3s1.8-0.2,2.7-0.4c0.1,0,0.3,0,0.4,0c0.1,0,0.2,0,0.3,0c0.3,0,0.5,0.1,0.6,0.2c0.1,0.2,0.2,0.4,0.2,0.7
		c0,0.2,0,0.4,0,0.6c0,0.2-0.1,0.4-0.1,0.5c-0.1,0.3-0.3,0.5-0.5,0.6s-0.5,0.2-0.8,0.3c-0.3,0.1-0.6,0.1-0.9,0.1c-0.3,0-0.6,0-0.8,0
		c-0.6,0-1.2,0.1-1.8,0.1c-0.6,0-1.2,0-1.8,0.1c0,0.3,0,0.8,0.1,1.4s0.1,1.3,0.1,2.1c0,0.8,0.1,1.6,0.1,2.4c0.1,0.8,0.1,1.6,0.2,2.3
		c0.1,0.7,0.1,1.4,0.2,1.9s0.1,0.9,0.2,1.1c0.2,0.3,0.3,0.5,0.5,0.6c0.2,0.1,0.5,0.1,0.8,0.1c0.5,0,1.1-0.1,1.7-0.3
		c0.6-0.2,1.2-0.5,1.8-0.8c0.6-0.3,1.1-0.7,1.6-1.1s1-0.8,1.4-1.2c0.2-0.1,0.3-0.3,0.5-0.4c0.2-0.1,0.4-0.2,0.6-0.2s0.4,0.1,0.6,0.2
		s0.4,0.3,0.5,0.5c0.2,0.2,0.3,0.4,0.4,0.6C728.7,588.8,728.7,589,728.7,589.2z"/>
	<path d="M745.2,578.2c0,1.6-0.1,3.1-0.4,4.6c-0.3,1.5-0.7,2.9-1.4,4.3c-0.6,1.3-1.5,2.5-2.5,3.6c-1,1.1-2.3,2-3.8,2.6
		c-0.4,0.2-0.8,0.3-1.2,0.5s-0.9,0.3-1.4,0.4c-0.5,0.1-0.9,0.2-1.4,0.2s-0.9,0.1-1.3,0.1c-0.2,0-0.3,0-0.5,0c-0.2,0-0.4,0-0.6-0.1
		c-0.2-0.1-0.3-0.1-0.4-0.3s-0.2-0.3-0.2-0.5c0-0.2,0-0.4,0.1-0.5s0.2-0.4,0.3-0.5c0.1-0.2,0.3-0.3,0.4-0.5c0.1-0.1,0.3-0.2,0.5-0.3
		c-0.1-0.1-0.1-0.4-0.2-1c-0.1-0.5-0.1-1.2-0.2-2.1c-0.1-0.8-0.1-1.8-0.1-2.8c0-1-0.1-2.1-0.1-3.2c0-1.1-0.1-2.2-0.1-3.3
		c0-1.1,0-2.1-0.1-3s0-1.7,0-2.4c0-0.7,0-1.2,0-1.5c0-1.4,0-2.7,0.1-4.1s0.1-2.7,0.1-4.1c-0.2,0-0.3,0-0.5-0.1s-0.2-0.2-0.2-0.4
		c0-0.2,0.1-0.5,0.2-0.6c0.1-0.2,0.3-0.4,0.5-0.5c0.2-0.1,0.4-0.3,0.6-0.3c0.2-0.1,0.4-0.1,0.6-0.1s0.4,0,0.6,0.1
		c0.2,0,0.4,0.1,0.6,0.1c1.9,0.5,3.7,1.2,5.2,2.1s2.8,2.1,3.8,3.5c1,1.4,1.8,2.9,2.4,4.6S745.2,576.3,745.2,578.2z M742,577.9
		c0-1.5-0.2-2.8-0.5-4.1c-0.4-1.3-0.9-2.5-1.6-3.6c-0.7-1.1-1.6-2-2.6-2.9c-1-0.8-2.3-1.5-3.6-2.1v0.1c0,3.8,0.1,7.5,0.2,11.2
		c0.1,3.7,0.3,7.5,0.6,11.2c0,0.6,0.1,1.1,0.1,1.7c0,0.6,0.1,1.1,0.2,1.7c1.4-0.5,2.5-1.2,3.5-2.1s1.7-2,2.3-3.3
		c0.6-1.2,1-2.5,1.2-3.9C741.8,580.5,742,579.2,742,577.9z"/>
	<path d="M764.6,593.9c0,0.2-0.1,0.3-0.3,0.4s-0.4,0.2-0.6,0.3c-0.2,0.1-0.5,0.1-0.7,0.2c-0.2,0-0.4,0-0.5,0c-0.3,0-0.5,0-0.7-0.1
		c-0.2-0.1-0.4-0.1-0.6-0.3c-0.1,0-0.2-0.2-0.5-0.6c-0.3-0.3-0.6-0.8-1-1.3s-0.9-1.1-1.4-1.8c-0.5-0.7-1-1.4-1.6-2.1
		c-0.5-0.7-1.1-1.4-1.6-2.1c-0.5-0.7-1-1.4-1.4-2c-0.4-0.6-0.8-1.1-1.1-1.6c-0.3-0.4-0.5-0.8-0.7-0.9l-0.1,0
		c0.1,1.7,0.2,3.5,0.3,5.2c0.1,1.7,0.4,3.5,0.7,5.2c0,0.2,0.1,0.4,0.1,0.5s0.1,0.4,0.1,0.6c0,0.3-0.1,0.6-0.3,0.6
		c-0.2,0.1-0.5,0.1-0.7,0.1c-0.1,0-0.3,0-0.5,0s-0.4,0-0.6-0.1s-0.4-0.1-0.6-0.2c-0.2-0.1-0.3-0.2-0.4-0.3c-0.2-0.2-0.3-0.4-0.4-0.5
		s-0.1-0.4-0.1-0.7c-0.4-2.9-0.7-5.9-0.8-8.9c-0.1-3-0.2-5.9-0.2-8.9c0-1.3,0-2.6,0-3.8s0-2.5,0.1-3.8c-0.2,0-0.3-0.1-0.5-0.2
		c-0.2-0.1-0.3-0.2-0.4-0.4c-0.1-0.2-0.2-0.3-0.3-0.5c-0.1-0.2-0.1-0.3-0.1-0.5s0-0.3,0.1-0.5c0.1-0.2,0.2-0.3,0.3-0.4
		c0.1-0.1,0.3-0.3,0.4-0.4s0.3-0.2,0.4-0.3v-0.4c0-0.1,0-0.3,0-0.5s0-0.4,0.1-0.5c0.1-0.2,0.1-0.3,0.3-0.4c0.1-0.1,0.3-0.2,0.5-0.2
		c0.3,0,0.6,0.1,0.9,0.2s0.6,0.3,0.8,0.5c1.1-0.4,2.3-0.7,3.5-0.7c1.1,0,2,0.2,2.9,0.6s1.6,1,2.3,1.7c0.6,0.7,1.1,1.5,1.4,2.5
		s0.5,1.9,0.5,2.9c0,1.1-0.2,2.2-0.6,3.2c-0.4,1-0.9,2-1.6,2.9s-1.4,1.8-2.3,2.5c-0.8,0.8-1.7,1.4-2.6,2c1.4,1.8,2.8,3.6,4.2,5.4
		c1.4,1.8,2.9,3.6,4.3,5.4c0.1,0.1,0.2,0.3,0.4,0.5s0.4,0.4,0.6,0.7c0.2,0.2,0.4,0.5,0.5,0.7S764.6,593.8,764.6,593.9z M758.2,569.7
		c0-0.5-0.1-1.1-0.3-1.7s-0.5-1.1-0.8-1.6c-0.4-0.5-0.8-0.9-1.3-1.2s-1-0.5-1.6-0.5c-0.5,0-1,0.1-1.4,0.2c-0.5,0.1-0.9,0.3-1.4,0.5
		c0,2.2,0.1,4.4,0.1,6.5c0,2.2,0.1,4.4,0.1,6.5l0.4,0c0.8-0.4,1.5-1,2.3-1.6s1.4-1.4,2-2.2c0.6-0.8,1.1-1.6,1.4-2.5
		C758,571.5,758.2,570.6,758.2,569.7z"/>
	<path d="M780.2,581.9c0,0.3-0.1,0.6-0.3,1s-0.5,0.6-0.7,0.7c-0.1,0-0.2,0.1-0.4,0.1s-0.4,0.1-0.6,0.1c-0.2,0-0.4,0.1-0.6,0.1
		c-0.2,0-0.3,0.1-0.4,0.1l0.5,3.3c0.2,1,0.3,2,0.4,3c0.1,1,0.3,2,0.6,3c0,0.1,0.1,0.2,0.1,0.2s0,0.2,0,0.3c0,0.2-0.1,0.3-0.2,0.4
		c-0.1,0.1-0.2,0.2-0.4,0.2c-0.2,0.1-0.3,0.1-0.5,0.1s-0.3,0-0.5,0h-0.3c-0.5,0-0.8,0-1-0.1c-0.2-0.1-0.4-0.2-0.6-0.4
		s-0.2-0.4-0.3-0.7c0-0.3-0.1-0.6-0.2-1c-0.4-2.7-0.7-5.4-1.2-8c-0.9,0.1-1.8,0.2-2.7,0.3c-0.9,0.1-1.8,0.2-2.8,0.3l-0.7,4.3
		c0,0.3-0.1,0.6-0.1,1.1s-0.1,0.9-0.2,1.4c-0.1,0.5-0.1,0.9-0.2,1.3s-0.2,0.7-0.3,0.9c-0.1,0.2-0.2,0.3-0.2,0.4s-0.2,0.1-0.4,0.1
		c-0.3,0-0.5,0-0.8-0.1c-0.3-0.1-0.5-0.2-0.7-0.4c-0.2-0.2-0.4-0.4-0.5-0.6s-0.2-0.5-0.2-0.8s0-0.6,0.1-0.9c0.1-0.3,0.1-0.6,0.2-0.9
		c0.2-1,0.3-1.9,0.4-2.9c0.1-1,0.3-1.9,0.4-2.9c-0.1,0-0.2,0-0.4-0.1c-0.1,0-0.3-0.1-0.4-0.1s-0.2-0.1-0.3-0.2s-0.1-0.2-0.1-0.3
		c0-0.1,0.1-0.3,0.2-0.4c0.1-0.1,0.2-0.2,0.4-0.4c0.2-0.1,0.3-0.2,0.5-0.3c0.2-0.1,0.3-0.1,0.4-0.2c0.3-2.1,0.6-4.1,0.9-6.1
		s0.5-4.1,0.7-6.2c0.1-0.6,0.1-1.1,0.2-1.7s0.1-1.1,0.1-1.7c0.1-0.6,0.1-1.1,0.2-1.7s0.2-1.1,0.3-1.7c0.1-0.5,0.4-1,0.7-1.3
		s0.8-0.5,1.4-0.5c0.2,0,0.3,0,0.5,0c0.2,0,0.3,0.1,0.5,0.2c0.4,0.2,0.8,0.7,1.2,1.6s0.8,1.9,1.2,3.1c0.4,1.2,0.8,2.5,1.2,3.9
		c0.4,1.4,0.7,2.8,1,4.1s0.6,2.5,0.8,3.6c0.2,1.1,0.4,1.8,0.5,2.4c0.3,0,0.6-0.1,0.9-0.1c0.3,0,0.6-0.1,0.9-0.1c0.1,0,0.3,0,0.5,0
		s0.4,0.1,0.5,0.1c0.2,0.1,0.3,0.2,0.4,0.3C780.1,581.5,780.2,581.7,780.2,581.9z M773.3,581.7c-0.4-2.1-0.8-4.1-1.2-6.2
		c-0.4-2-1-4.1-1.6-6.1c-0.3,2.2-0.5,4.4-0.9,6.6s-0.6,4.4-1,6.5c0.8-0.1,1.6-0.2,2.3-0.4C771.7,582,772.5,581.9,773.3,581.7z"/>
	<path d="M794.8,592.2c0,0.3,0,0.5-0.1,0.8c-0.1,0.3-0.1,0.5-0.3,0.7c-0.1,0.2-0.3,0.4-0.5,0.5s-0.5,0.2-0.8,0.2
		c-0.4,0-0.7-0.1-1-0.3c-0.2-0.2-0.5-0.4-0.7-0.7c-0.3-0.4-0.5-0.9-0.7-1.4c-0.2-0.5-0.4-1.1-0.6-1.6c-0.2-0.5-0.3-1.1-0.5-1.6
		c-0.2-0.5-0.3-1.1-0.5-1.5c-0.8-2.5-1.5-4.9-2.2-7.4c-0.7-2.4-1.4-4.9-2.2-7.4c-0.1,3.2-0.1,6.3-0.2,9.5s-0.1,6.3-0.1,9.5
		c0,0.2,0,0.3,0,0.5s-0.1,0.4-0.1,0.6c-0.1,0.2-0.2,0.3-0.3,0.5c-0.1,0.1-0.3,0.2-0.5,0.2c-0.7,0-1.3-0.2-1.7-0.6
		c-0.4-0.4-0.6-1-0.6-1.7c0-4.1,0-8.2,0-12.2s0-8.1,0-12.2v-3.1c0-0.3,0.1-0.6,0.2-0.8c0.1-0.2,0.4-0.3,0.8-0.3c0.3,0,0.6,0,0.9,0.1
		c0.3,0.1,0.6,0.2,0.8,0.4c0.2,0.2,0.4,0.4,0.6,0.6c0.2,0.3,0.2,0.6,0.2,0.9c0.6,1.2,1.1,2.4,1.5,3.6c0.4,1.2,0.8,2.5,1.2,3.8
		c0.6,1.8,1.1,3.7,1.7,5.5s1.1,3.7,1.7,5.5c-0.1-2.8-0.2-5.5-0.3-8.3c-0.1-2.8-0.3-5.5-0.6-8.3c-0.1-0.6-0.2-1.2-0.3-1.8
		s-0.1-1.2-0.1-1.8c0-0.3,0.1-0.5,0.3-0.6c0.2-0.1,0.4-0.2,0.7-0.2c0.5,0,0.8,0,1.2,0.1s0.6,0.2,0.8,0.4s0.4,0.4,0.5,0.7
		c0.1,0.3,0.2,0.7,0.3,1.1c0.1,0.8,0.2,1.6,0.2,2.4c0.1,0.8,0.1,1.6,0.1,2.4c0.1,2,0.2,3.9,0.3,5.8s0.1,3.9,0.2,5.8
		c0,1.9,0.1,3.9,0.2,5.8C794.8,588.3,794.8,590.2,794.8,592.2z"/>
	<path d="M812.8,577.1c0,0.6,0,1.3,0,2.1c0,0.8-0.1,1.7-0.2,2.6s-0.2,1.9-0.4,2.8c-0.2,1-0.4,1.9-0.6,2.8s-0.6,1.8-0.9,2.6
		s-0.8,1.5-1.3,2.2s-1.1,1.1-1.8,1.5s-1.4,0.5-2.3,0.5s-1.6-0.2-2.4-0.6c-0.7-0.4-1.3-0.9-1.8-1.6c-0.4-0.5-0.7-1.2-1-1.9
		c-0.3-0.8-0.6-1.6-0.8-2.5c-0.2-0.9-0.4-1.9-0.6-2.8s-0.3-1.9-0.4-2.9c-0.1-1-0.2-1.9-0.2-2.7c0-0.9-0.1-1.6-0.1-2.3
		c0-1.1,0-2.2,0.1-3.4c0.1-1.2,0.3-2.4,0.5-3.5c0.3-1.2,0.6-2.3,1.1-3.4s1-2.1,1.8-2.9c0.1-0.1,0.2-0.2,0.3-0.3
		c0.1-0.1,0.2-0.2,0.4-0.3c0.1-0.1,0.3-0.2,0.4-0.3c0.1-0.1,0.3-0.1,0.4-0.1s0.3,0,0.4,0.1s0.2,0.2,0.3,0.3c0.3-0.2,0.6-0.3,1-0.4
		c0.3-0.1,0.7-0.1,1-0.1c1.1,0,2,0.3,2.8,0.8c0.8,0.5,1.4,1.2,1.9,2s0.9,1.8,1.2,2.8s0.5,2.1,0.7,3.2s0.3,2.1,0.3,3.1
		S812.8,576.3,812.8,577.1z M809.3,578.1c0-0.4,0-1,0-1.7c0-0.8-0.1-1.6-0.2-2.6c-0.1-0.9-0.2-1.9-0.4-2.9c-0.2-1-0.4-1.9-0.6-2.7
		c-0.3-0.8-0.6-1.5-1-2c-0.4-0.5-0.9-0.8-1.4-0.8c-0.2,0-0.4,0.1-0.6,0.3s-0.3,0.5-0.5,0.8s-0.3,0.7-0.4,1.1s-0.3,0.7-0.4,1.1
		s-0.3,0.7-0.4,0.9s-0.2,0.5-0.4,0.6c0,0-0.1,0.1-0.2,0.1c-0.1,0-0.2,0-0.3,0c-0.2,0-0.5,0-0.7-0.1c-0.2,1-0.4,2-0.5,3
		c-0.1,1-0.1,2-0.1,3c0,0.3,0,0.8,0,1.4s0.1,1.3,0.1,2.1s0.1,1.6,0.2,2.5s0.2,1.8,0.4,2.7c0.1,0.9,0.3,1.8,0.5,2.6
		c0.2,0.8,0.4,1.6,0.7,2.2c0.3,0.6,0.6,1.1,0.9,1.5s0.7,0.6,1.1,0.6c0.2,0,0.4-0.1,0.6-0.2c0.2-0.1,0.3-0.3,0.5-0.4
		c0.4-0.4,0.8-0.9,1.1-1.6s0.6-1.4,0.8-2.1s0.4-1.6,0.5-2.5c0.1-0.9,0.3-1.7,0.3-2.5s0.1-1.6,0.2-2.4
		C809.3,579.3,809.3,578.6,809.3,578.1z"/>
	<path d="M828.6,590.8c0,0.3-0.2,0.7-0.5,1s-0.8,0.6-1.4,0.8c-0.6,0.3-1.2,0.5-1.9,0.7c-0.7,0.2-1.3,0.4-2,0.5
		c-0.7,0.1-1.2,0.3-1.8,0.3c-0.5,0.1-0.9,0.1-1.2,0.1c-0.5,0-1-0.1-1.4-0.2c-0.4-0.1-0.8-0.3-1.1-0.5c-0.3-0.2-0.5-0.6-0.7-0.9
		s-0.3-0.8-0.3-1.4c0-3.9,0-7.8,0-11.7s0-7.8,0-11.7c0-0.6,0-1.2,0-1.8s0-1.2,0-1.8c0-0.1,0-0.3,0-0.5c0-0.2,0.1-0.4,0.1-0.5
		c0.1-0.2,0.1-0.3,0.3-0.4s0.3-0.2,0.5-0.2s0.4,0,0.6,0.1s0.4,0.1,0.6,0.3c0.2,0.1,0.4,0.3,0.5,0.4c0.2,0.2,0.3,0.4,0.3,0.6
		c0.1,0.3,0.1,0.5,0.1,0.8c0,0.3,0,0.6,0,0.9c0.1,3.9,0.1,7.8,0.2,11.6s0.1,7.7,0.1,11.6c0,0.4,0,0.9,0,1.3c0,0.4,0,0.9,0.1,1.3
		c0.4,0,0.9-0.1,1.5-0.2s1.1-0.3,1.7-0.5c0.6-0.2,1.1-0.4,1.6-0.6s0.9-0.5,1.2-0.7c0.1-0.1,0.3-0.3,0.4-0.4c0.1-0.1,0.3-0.2,0.5-0.2
		c0.2,0,0.4,0.1,0.6,0.2s0.4,0.3,0.6,0.5c0.2,0.2,0.3,0.4,0.4,0.6S828.6,590.6,828.6,590.8z"/>
</g>
<g>
	<path d="M1130.7,592.7c0,0.3,0,0.5-0.1,0.8c-0.1,0.3-0.1,0.5-0.3,0.7c-0.1,0.2-0.3,0.4-0.5,0.5s-0.5,0.2-0.8,0.2
		c-0.4,0-0.7-0.1-1-0.3c-0.2-0.2-0.5-0.4-0.7-0.7c-0.3-0.4-0.5-0.9-0.7-1.4c-0.2-0.5-0.4-1.1-0.6-1.6c-0.2-0.5-0.3-1.1-0.5-1.6
		c-0.2-0.5-0.3-1.1-0.5-1.5c-0.8-2.5-1.5-4.9-2.2-7.4c-0.7-2.4-1.4-4.9-2.2-7.4c-0.1,3.2-0.1,6.3-0.2,9.5c0,3.1-0.1,6.3-0.1,9.5
		c0,0.2,0,0.3,0,0.5s-0.1,0.4-0.1,0.6c-0.1,0.2-0.2,0.3-0.3,0.5c-0.1,0.1-0.3,0.2-0.5,0.2c-0.7,0-1.3-0.2-1.7-0.6
		c-0.4-0.4-0.6-1-0.6-1.7c0-4.1,0-8.2,0-12.2s0-8.1,0-12.2v-3.1c0-0.3,0.1-0.6,0.2-0.8c0.1-0.2,0.4-0.3,0.8-0.3c0.3,0,0.6,0,0.9,0.1
		c0.3,0.1,0.6,0.2,0.8,0.4c0.2,0.2,0.4,0.4,0.6,0.6c0.2,0.3,0.2,0.6,0.2,0.9c0.6,1.2,1.1,2.4,1.5,3.6c0.4,1.2,0.8,2.5,1.2,3.8
		c0.6,1.8,1.1,3.7,1.7,5.5s1.1,3.7,1.7,5.5c-0.1-2.8-0.2-5.5-0.3-8.3c-0.1-2.8-0.3-5.5-0.6-8.3c-0.1-0.6-0.2-1.2-0.3-1.8
		c-0.1-0.6-0.1-1.2-0.1-1.8c0-0.3,0.1-0.5,0.3-0.6c0.2-0.1,0.4-0.2,0.7-0.2c0.5,0,0.8,0,1.2,0.1s0.6,0.2,0.8,0.4s0.4,0.4,0.5,0.7
		c0.1,0.3,0.2,0.7,0.3,1.1c0.1,0.8,0.2,1.6,0.2,2.4c0.1,0.8,0.1,1.6,0.1,2.4c0.1,2,0.2,3.9,0.3,5.8s0.1,3.9,0.2,5.8
		c0,1.9,0.1,3.9,0.2,5.8C1130.7,588.8,1130.7,590.7,1130.7,592.7z"/>
	<path d="M1149.6,589.7c0,0.2-0.1,0.5-0.3,0.7c-0.2,0.2-0.4,0.5-0.7,0.7s-0.6,0.4-0.9,0.6c-0.3,0.2-0.5,0.3-0.7,0.5
		c-0.5,0.3-1,0.6-1.5,0.9c-0.5,0.3-1,0.5-1.5,0.7c-0.5,0.2-1.1,0.4-1.6,0.5c-0.5,0.1-1.1,0.2-1.7,0.2l-0.4,0c-0.5,0-1-0.1-1.4-0.2
		c-0.5-0.1-0.9-0.3-1.3-0.5c-0.4-0.2-0.8-0.5-1.1-0.9s-0.6-0.8-0.7-1.3c-0.1-0.4-0.2-0.9-0.3-1.4s-0.1-1.1-0.2-1.7
		c0-0.6-0.1-1.2-0.1-1.7c0-0.6,0-1.1-0.1-1.5c-0.2-4.5-0.4-9-0.5-13.4c0-0.5-0.1-1-0.1-1.5s0-1,0-1.5c0-0.9,0.1-1.6,0.2-2.2
		s0.3-1.1,0.6-1.5s0.8-0.7,1.3-0.9c0.6-0.2,1.3-0.3,2.3-0.3s1.9,0,2.9,0c1,0,1.9,0,2.9,0c0.3,0,0.6,0,0.9,0c0.3,0,0.6,0,0.9,0.1
		c0.2,0,0.3,0.1,0.5,0.1c0.1,0.1,0.2,0.2,0.2,0.4c0,0.5-0.2,0.9-0.5,1.2c-0.4,0.3-0.8,0.4-1.3,0.5s-1,0.1-1.5,0.1
		c-0.5,0-0.9,0-1.3,0h-2.9c-0.3,0-0.6,0-0.9,0s-0.6,0-0.9,0c-0.1,0.2-0.1,0.4-0.2,0.7s0,0.5,0,0.7c0,1.6,0,3.2,0.1,4.7
		c0.1,1.6,0.2,3.1,0.2,4.7c0.9-0.1,1.8-0.2,2.7-0.3s1.8-0.2,2.7-0.4c0.1,0,0.3,0,0.4,0c0.1,0,0.2,0,0.3,0c0.3,0,0.5,0.1,0.6,0.2
		c0.1,0.2,0.2,0.4,0.2,0.7c0,0.2,0,0.4,0,0.6c0,0.2-0.1,0.4-0.1,0.5c-0.1,0.3-0.3,0.5-0.5,0.6s-0.5,0.2-0.8,0.3
		c-0.3,0.1-0.6,0.1-0.9,0.1c-0.3,0-0.6,0-0.8,0c-0.6,0-1.2,0.1-1.8,0.1c-0.6,0-1.2,0-1.8,0.1c0,0.3,0,0.8,0.1,1.4s0.1,1.3,0.1,2.1
		c0,0.8,0.1,1.6,0.1,2.4c0.1,0.8,0.1,1.6,0.2,2.3c0.1,0.7,0.1,1.4,0.2,1.9s0.1,0.9,0.2,1.1c0.2,0.3,0.3,0.5,0.5,0.6
		c0.2,0.1,0.5,0.1,0.8,0.1c0.5,0,1.1-0.1,1.7-0.3c0.6-0.2,1.2-0.5,1.8-0.8c0.6-0.3,1.1-0.7,1.6-1.1c0.5-0.4,1-0.8,1.4-1.2
		c0.2-0.1,0.3-0.3,0.5-0.4c0.2-0.1,0.4-0.2,0.6-0.2s0.4,0.1,0.6,0.2s0.4,0.3,0.5,0.5c0.2,0.2,0.3,0.4,0.4,0.6
		C1149.5,589.3,1149.6,589.5,1149.6,589.7z"/>
	<path d="M1167.2,578.7c0,0.5-0.1,0.8-0.3,1.1c-0.2,0.3-0.4,0.5-0.7,0.6s-0.6,0.2-0.9,0.2c-0.3,0-0.7,0.1-1,0.1
		c0.8,0.8,1.4,1.8,1.9,2.8s0.7,2.2,0.7,3.3c0,1.1-0.2,2.2-0.6,3.3c-0.4,1.1-0.9,2-1.6,2.9s-1.5,1.5-2.5,2s-2.1,0.8-3.3,0.8
		c-1,0-1.8-0.2-2.6-0.5s-1.4-0.9-2-1.5c-0.6-0.6-1.1-1.4-1.6-2.2c-0.5-0.8-0.8-1.7-1.2-2.7c-0.3-1-0.6-2-0.8-3c-0.2-1-0.4-2-0.5-3
		c-0.1-1-0.2-1.9-0.3-2.8c-0.1-0.9-0.1-1.7-0.1-2.4c0-0.8,0-1.7,0.1-2.6c0.1-0.9,0.2-1.9,0.4-2.8s0.4-1.9,0.8-2.8s0.7-1.7,1.2-2.5
		c0.5-0.8,1.1-1.4,1.8-2c0.7-0.6,1.5-1,2.4-1.3c0.3-0.1,0.7-0.2,1-0.3s0.7-0.1,1-0.1c1.5,0,2.7,0.4,3.7,1.2c1,0.8,1.7,1.9,2.2,3.2
		c0.1,0.2,0.2,0.4,0.2,0.6c0.1,0.2,0.1,0.4,0.1,0.6c0,0.3-0.1,0.4-0.3,0.5s-0.4,0.1-0.6,0.1c-0.5,0-1-0.1-1.3-0.3s-0.6-0.4-0.8-0.7
		s-0.4-0.6-0.6-0.9c-0.2-0.3-0.4-0.6-0.6-0.9s-0.5-0.5-0.8-0.7s-0.7-0.3-1.2-0.3c-0.7,0-1.4,0.2-1.9,0.6s-1,0.9-1.5,1.6
		c-0.4,0.7-0.8,1.4-1,2.3c-0.3,0.8-0.5,1.7-0.7,2.5c-0.2,0.8-0.3,1.7-0.4,2.4s-0.1,1.4-0.1,2c0,0.6,0,1.4,0.1,2.4s0.2,2.1,0.4,3.3
		c0.2,1.2,0.4,2.4,0.7,3.6c0.3,1.2,0.6,2.3,1.1,3.3c0.4,1,0.9,1.8,1.5,2.4c0.6,0.6,1.3,0.9,2.1,0.9c0.7,0,1.3-0.2,1.9-0.6
		c0.6-0.4,1-0.9,1.4-1.5c0.4-0.6,0.7-1.3,0.9-2c0.2-0.7,0.3-1.3,0.3-1.9c0-0.6-0.1-1.1-0.2-1.7c-0.2-0.6-0.4-1.1-0.7-1.6
		c-0.3-0.5-0.6-1-1.1-1.4c-0.4-0.4-0.9-0.8-1.4-1.1c-0.2-0.1-0.4-0.2-0.6-0.3c-0.2-0.1-0.4-0.2-0.6-0.3c-0.1,0-0.3,0-0.7-0.1
		c-0.3,0-0.7-0.1-1-0.1s-0.7-0.1-0.9-0.2c-0.3-0.1-0.4-0.2-0.4-0.4c0-0.3,0-0.5,0.1-0.8s0.2-0.5,0.4-0.7c0.2-0.2,0.4-0.4,0.6-0.5
		c0.2-0.1,0.5-0.2,0.8-0.2c0.4,0,0.9,0.1,1.4,0.2c0.5,0.1,0.9,0.3,1.3,0.4c0.7,0,1.5-0.1,2.2-0.1c0.7-0.1,1.4-0.1,2.1-0.2
		c0.2,0,0.5-0.1,0.7-0.1c0.2,0,0.5-0.1,0.8-0.1c0.4,0,0.6,0.1,0.8,0.2S1167.2,578.4,1167.2,578.7z"/>
	<path d="M1186.6,594.4c0,0.2-0.1,0.3-0.3,0.4s-0.4,0.2-0.6,0.3c-0.2,0.1-0.5,0.1-0.7,0.2c-0.2,0-0.4,0-0.5,0c-0.3,0-0.5,0-0.7-0.1
		c-0.2-0.1-0.4-0.1-0.6-0.3c-0.1,0-0.2-0.2-0.5-0.6c-0.3-0.3-0.6-0.8-1-1.3c-0.4-0.5-0.9-1.1-1.4-1.8c-0.5-0.7-1-1.4-1.6-2.1
		c-0.5-0.7-1.1-1.4-1.6-2.1c-0.5-0.7-1-1.4-1.4-2c-0.4-0.6-0.8-1.1-1.1-1.6c-0.3-0.4-0.5-0.8-0.7-0.9l-0.1,0
		c0.1,1.7,0.2,3.5,0.3,5.2c0.1,1.7,0.4,3.5,0.7,5.2c0,0.2,0.1,0.4,0.1,0.5c0.1,0.2,0.1,0.4,0.1,0.6c0,0.3-0.1,0.6-0.3,0.6
		c-0.2,0.1-0.5,0.1-0.7,0.1c-0.1,0-0.3,0-0.5,0s-0.4,0-0.6-0.1s-0.4-0.1-0.6-0.2c-0.2-0.1-0.3-0.2-0.4-0.3c-0.2-0.2-0.3-0.4-0.4-0.5
		c-0.1-0.2-0.1-0.4-0.1-0.7c-0.4-2.9-0.7-5.9-0.8-8.9c-0.1-3-0.2-5.9-0.2-8.9c0-1.3,0-2.6,0-3.8s0-2.5,0.1-3.8
		c-0.2,0-0.3-0.1-0.5-0.2c-0.2-0.1-0.3-0.2-0.4-0.4c-0.1-0.2-0.2-0.3-0.3-0.5c-0.1-0.2-0.1-0.3-0.1-0.5s0-0.3,0.1-0.5
		c0.1-0.2,0.2-0.3,0.3-0.4c0.1-0.1,0.3-0.3,0.4-0.4s0.3-0.2,0.4-0.3v-0.4c0-0.1,0-0.3,0-0.5c0-0.2,0-0.4,0.1-0.5
		c0.1-0.2,0.1-0.3,0.3-0.4c0.1-0.1,0.3-0.2,0.5-0.2c0.3,0,0.6,0.1,0.9,0.2s0.6,0.3,0.8,0.5c1.1-0.4,2.3-0.7,3.5-0.7
		c1.1,0,2,0.2,2.9,0.6s1.6,1,2.3,1.7c0.6,0.7,1.1,1.5,1.4,2.5s0.5,1.9,0.5,2.9c0,1.1-0.2,2.2-0.6,3.2c-0.4,1-0.9,2-1.6,2.9
		s-1.4,1.8-2.3,2.5c-0.8,0.8-1.7,1.4-2.6,2c1.4,1.8,2.8,3.6,4.2,5.4c1.4,1.8,2.9,3.6,4.3,5.4c0.1,0.1,0.2,0.3,0.4,0.5
		c0.2,0.2,0.4,0.4,0.6,0.7c0.2,0.2,0.4,0.5,0.5,0.7C1186.5,594.1,1186.6,594.3,1186.6,594.4z M1180.2,570.3c0-0.5-0.1-1.1-0.3-1.7
		s-0.5-1.1-0.8-1.6c-0.4-0.5-0.8-0.9-1.3-1.2c-0.5-0.3-1-0.5-1.6-0.5c-0.5,0-1,0.1-1.4,0.2c-0.5,0.1-0.9,0.3-1.4,0.5
		c0,2.2,0.1,4.4,0.1,6.5c0,2.2,0.1,4.4,0.1,6.5l0.4,0c0.8-0.4,1.5-1,2.3-1.6c0.7-0.6,1.4-1.4,2-2.2c0.6-0.8,1.1-1.6,1.4-2.5
		C1180,572.1,1180.2,571.2,1180.2,570.3z"/>
	<path d="M1202.1,582.4c0,0.3-0.1,0.6-0.3,1s-0.5,0.6-0.7,0.7c-0.1,0-0.2,0.1-0.4,0.1s-0.4,0.1-0.6,0.1c-0.2,0-0.4,0.1-0.6,0.1
		c-0.2,0-0.3,0.1-0.4,0.1l0.5,3.3c0.2,1,0.3,2,0.4,3c0.1,1,0.3,2,0.6,3c0,0.1,0.1,0.2,0.1,0.2s0,0.2,0,0.3c0,0.2-0.1,0.3-0.2,0.4
		c-0.1,0.1-0.2,0.2-0.4,0.2c-0.2,0.1-0.3,0.1-0.5,0.1s-0.3,0-0.5,0h-0.3c-0.5,0-0.8,0-1-0.1c-0.2-0.1-0.4-0.2-0.6-0.4
		s-0.2-0.4-0.3-0.7c0-0.3-0.1-0.6-0.2-1c-0.4-2.7-0.7-5.4-1.2-8c-0.9,0.1-1.8,0.2-2.7,0.3c-0.9,0.1-1.8,0.2-2.8,0.3l-0.7,4.3
		c0,0.3-0.1,0.6-0.1,1.1c-0.1,0.5-0.1,0.9-0.2,1.4c-0.1,0.5-0.1,0.9-0.2,1.3c-0.1,0.4-0.2,0.7-0.3,0.9c-0.1,0.2-0.2,0.3-0.2,0.4
		s-0.2,0.1-0.4,0.1c-0.3,0-0.5,0-0.8-0.1c-0.3-0.1-0.5-0.2-0.7-0.4c-0.2-0.2-0.4-0.4-0.5-0.6s-0.2-0.5-0.2-0.8s0-0.6,0.1-0.9
		c0.1-0.3,0.1-0.6,0.2-0.9c0.2-1,0.3-1.9,0.4-2.9c0.1-1,0.3-1.9,0.4-2.9c-0.1,0-0.2,0-0.4-0.1c-0.1,0-0.3-0.1-0.4-0.1
		c-0.1-0.1-0.2-0.1-0.3-0.2s-0.1-0.2-0.1-0.3c0-0.1,0.1-0.3,0.2-0.4c0.1-0.1,0.2-0.2,0.4-0.4c0.2-0.1,0.3-0.2,0.5-0.3
		c0.2-0.1,0.3-0.1,0.4-0.2c0.3-2.1,0.6-4.1,0.9-6.1s0.5-4.1,0.7-6.2c0.1-0.6,0.1-1.1,0.2-1.7s0.1-1.1,0.1-1.7
		c0.1-0.6,0.1-1.1,0.2-1.7c0.1-0.6,0.2-1.1,0.3-1.7c0.1-0.5,0.4-1,0.7-1.3s0.8-0.5,1.4-0.5c0.2,0,0.3,0,0.5,0c0.2,0,0.3,0.1,0.5,0.2
		c0.4,0.2,0.8,0.7,1.2,1.6s0.8,1.9,1.2,3.1c0.4,1.2,0.8,2.5,1.2,3.9c0.4,1.4,0.7,2.8,1,4.1s0.6,2.5,0.8,3.6c0.2,1.1,0.4,1.8,0.5,2.4
		c0.3,0,0.6-0.1,0.9-0.1c0.3,0,0.6-0.1,0.9-0.1c0.1,0,0.3,0,0.5,0s0.4,0.1,0.5,0.1c0.2,0.1,0.3,0.2,0.4,0.3
		C1202.1,582.1,1202.1,582.2,1202.1,582.4z M1195.2,582.2c-0.4-2.1-0.8-4.1-1.2-6.2c-0.4-2-1-4.1-1.6-6.1c-0.3,2.2-0.5,4.4-0.9,6.6
		s-0.6,4.4-1,6.5c0.8-0.1,1.6-0.2,2.3-0.4C1193.7,582.6,1194.4,582.4,1195.2,582.2z"/>
	<path d="M1224.8,578.8c0,1.6-0.1,3.1-0.4,4.6c-0.3,1.5-0.7,2.9-1.4,4.3c-0.6,1.3-1.5,2.5-2.5,3.6c-1,1.1-2.3,2-3.8,2.6
		c-0.4,0.2-0.8,0.3-1.2,0.5c-0.4,0.1-0.9,0.3-1.4,0.4c-0.5,0.1-0.9,0.2-1.4,0.2s-0.9,0.1-1.3,0.1c-0.2,0-0.3,0-0.5,0
		c-0.2,0-0.4,0-0.6-0.1c-0.2-0.1-0.3-0.1-0.4-0.3s-0.2-0.3-0.2-0.5c0-0.2,0-0.4,0.1-0.5s0.2-0.4,0.3-0.5c0.1-0.2,0.3-0.3,0.4-0.5
		c0.1-0.1,0.3-0.2,0.5-0.3c-0.1-0.1-0.1-0.4-0.2-1c-0.1-0.5-0.1-1.2-0.2-2.1c-0.1-0.8-0.1-1.8-0.1-2.8c0-1-0.1-2.1-0.1-3.2
		c0-1.1-0.1-2.2-0.1-3.3c0-1.1,0-2.1-0.1-3s0-1.7,0-2.4c0-0.7,0-1.2,0-1.5c0-1.4,0-2.7,0.1-4.1s0.1-2.7,0.1-4.1
		c-0.2,0-0.3,0-0.5-0.1c-0.1-0.1-0.2-0.2-0.2-0.4c0-0.2,0.1-0.5,0.2-0.6c0.1-0.2,0.3-0.4,0.5-0.5c0.2-0.1,0.4-0.3,0.6-0.3
		c0.2-0.1,0.4-0.1,0.6-0.1s0.4,0,0.6,0.1c0.2,0,0.4,0.1,0.6,0.1c1.9,0.5,3.7,1.2,5.2,2.1s2.8,2.1,3.8,3.5c1,1.4,1.8,2.9,2.4,4.6
		S1224.8,576.8,1224.8,578.8z M1221.6,578.4c0-1.5-0.2-2.8-0.5-4.1c-0.4-1.3-0.9-2.5-1.6-3.6c-0.7-1.1-1.6-2-2.6-2.9
		c-1-0.8-2.3-1.5-3.6-2.1v0.1c0,3.8,0.1,7.5,0.2,11.2c0.1,3.7,0.3,7.5,0.6,11.2c0,0.6,0.1,1.1,0.1,1.7c0,0.6,0.1,1.1,0.2,1.7
		c1.4-0.5,2.5-1.2,3.5-2.1s1.7-2,2.3-3.3c0.6-1.2,1-2.5,1.2-3.9C1221.4,581,1221.6,579.7,1221.6,578.4z"/>
	<path d="M1242.3,589.7c0,0.2-0.1,0.5-0.3,0.7c-0.2,0.2-0.4,0.5-0.7,0.7s-0.6,0.4-0.9,0.6c-0.3,0.2-0.5,0.3-0.7,0.5
		c-0.5,0.3-1,0.6-1.5,0.9c-0.5,0.3-1,0.5-1.5,0.7c-0.5,0.2-1.1,0.4-1.6,0.5c-0.5,0.1-1.1,0.2-1.7,0.2l-0.4,0c-0.5,0-1-0.1-1.4-0.2
		c-0.5-0.1-0.9-0.3-1.3-0.5c-0.4-0.2-0.8-0.5-1.1-0.9s-0.6-0.8-0.7-1.3c-0.1-0.4-0.2-0.9-0.3-1.4s-0.1-1.1-0.2-1.7
		c0-0.6-0.1-1.2-0.1-1.7c0-0.6,0-1.1-0.1-1.5c-0.2-4.5-0.4-9-0.5-13.4c0-0.5-0.1-1-0.1-1.5s0-1,0-1.5c0-0.9,0.1-1.6,0.2-2.2
		s0.3-1.1,0.6-1.5s0.8-0.7,1.3-0.9c0.6-0.2,1.3-0.3,2.3-0.3s1.9,0,2.9,0c1,0,1.9,0,2.9,0c0.3,0,0.6,0,0.9,0c0.3,0,0.6,0,0.9,0.1
		c0.2,0,0.3,0.1,0.5,0.1c0.1,0.1,0.2,0.2,0.2,0.4c0,0.5-0.2,0.9-0.5,1.2c-0.4,0.3-0.8,0.4-1.3,0.5s-1,0.1-1.5,0.1
		c-0.5,0-0.9,0-1.3,0h-2.9c-0.3,0-0.6,0-0.9,0s-0.6,0-0.9,0c-0.1,0.2-0.1,0.4-0.2,0.7s0,0.5,0,0.7c0,1.6,0,3.2,0.1,4.7
		c0.1,1.6,0.2,3.1,0.2,4.7c0.9-0.1,1.8-0.2,2.7-0.3s1.8-0.2,2.7-0.4c0.1,0,0.3,0,0.4,0c0.1,0,0.2,0,0.3,0c0.3,0,0.5,0.1,0.6,0.2
		c0.1,0.2,0.2,0.4,0.2,0.7c0,0.2,0,0.4,0,0.6c0,0.2-0.1,0.4-0.1,0.5c-0.1,0.3-0.3,0.5-0.5,0.6s-0.5,0.2-0.8,0.3
		c-0.3,0.1-0.6,0.1-0.9,0.1c-0.3,0-0.6,0-0.8,0c-0.6,0-1.2,0.1-1.8,0.1c-0.6,0-1.2,0-1.8,0.1c0,0.3,0,0.8,0.1,1.4s0.1,1.3,0.1,2.1
		c0,0.8,0.1,1.6,0.1,2.4c0.1,0.8,0.1,1.6,0.2,2.3c0.1,0.7,0.1,1.4,0.2,1.9s0.1,0.9,0.2,1.1c0.2,0.3,0.3,0.5,0.5,0.6
		c0.2,0.1,0.5,0.1,0.8,0.1c0.5,0,1.1-0.1,1.7-0.3c0.6-0.2,1.2-0.5,1.8-0.8c0.6-0.3,1.1-0.7,1.6-1.1c0.5-0.4,1-0.8,1.4-1.2
		c0.2-0.1,0.3-0.3,0.5-0.4c0.2-0.1,0.4-0.2,0.6-0.2s0.4,0.1,0.6,0.2s0.4,0.3,0.5,0.5c0.2,0.2,0.3,0.4,0.4,0.6
		C1242.2,589.3,1242.3,589.5,1242.3,589.7z"/>
	<path d="M1262.8,591.3c0,0.3-0.2,0.7-0.5,1c-0.4,0.3-0.8,0.6-1.4,0.8c-0.6,0.3-1.2,0.5-1.9,0.7c-0.7,0.2-1.3,0.4-2,0.5
		c-0.7,0.1-1.2,0.3-1.8,0.3c-0.5,0.1-0.9,0.1-1.2,0.1c-0.5,0-1-0.1-1.4-0.2c-0.4-0.1-0.8-0.3-1.1-0.5c-0.3-0.2-0.5-0.6-0.7-0.9
		c-0.2-0.4-0.3-0.8-0.3-1.4c0-3.9,0-7.8,0-11.7s0-7.8,0-11.7c0-0.6,0-1.2,0-1.8s0-1.2,0-1.8c0-0.1,0-0.3,0-0.5
		c0-0.2,0.1-0.4,0.1-0.5c0.1-0.2,0.1-0.3,0.3-0.4s0.3-0.2,0.5-0.2s0.4,0,0.6,0.1c0.2,0.1,0.4,0.1,0.6,0.3c0.2,0.1,0.4,0.3,0.5,0.4
		c0.2,0.2,0.3,0.4,0.3,0.6c0.1,0.3,0.1,0.5,0.1,0.8c0,0.3,0,0.6,0,0.9c0.1,3.9,0.1,7.8,0.2,11.6c0,3.8,0.1,7.7,0.1,11.6
		c0,0.4,0,0.9,0,1.3c0,0.4,0,0.9,0.1,1.3c0.4,0,0.9-0.1,1.5-0.2s1.1-0.3,1.7-0.5c0.6-0.2,1.1-0.4,1.6-0.6s0.9-0.5,1.2-0.7
		c0.1-0.1,0.3-0.3,0.4-0.4c0.1-0.1,0.3-0.2,0.5-0.2c0.2,0,0.4,0.1,0.6,0.2c0.2,0.1,0.4,0.3,0.6,0.5c0.2,0.2,0.3,0.4,0.4,0.6
		S1262.8,591.1,1262.8,591.3z"/>
	<path d="M1279.3,582.4c0,0.3-0.1,0.6-0.3,1s-0.5,0.6-0.7,0.7c-0.1,0-0.2,0.1-0.4,0.1s-0.4,0.1-0.6,0.1c-0.2,0-0.4,0.1-0.6,0.1
		c-0.2,0-0.3,0.1-0.4,0.1l0.5,3.3c0.2,1,0.3,2,0.4,3c0.1,1,0.3,2,0.6,3c0,0.1,0.1,0.2,0.1,0.2s0,0.2,0,0.3c0,0.2-0.1,0.3-0.2,0.4
		c-0.1,0.1-0.2,0.2-0.4,0.2c-0.2,0.1-0.3,0.1-0.5,0.1s-0.3,0-0.5,0h-0.3c-0.5,0-0.8,0-1-0.1c-0.2-0.1-0.4-0.2-0.6-0.4
		s-0.2-0.4-0.3-0.7c0-0.3-0.1-0.6-0.2-1c-0.4-2.7-0.7-5.4-1.2-8c-0.9,0.1-1.8,0.2-2.7,0.3c-0.9,0.1-1.8,0.2-2.8,0.3l-0.7,4.3
		c0,0.3-0.1,0.6-0.1,1.1c-0.1,0.5-0.1,0.9-0.2,1.4c-0.1,0.5-0.1,0.9-0.2,1.3c-0.1,0.4-0.2,0.7-0.3,0.9c-0.1,0.2-0.2,0.3-0.2,0.4
		s-0.2,0.1-0.4,0.1c-0.3,0-0.5,0-0.8-0.1c-0.3-0.1-0.5-0.2-0.7-0.4c-0.2-0.2-0.4-0.4-0.5-0.6s-0.2-0.5-0.2-0.8s0-0.6,0.1-0.9
		c0.1-0.3,0.1-0.6,0.2-0.9c0.2-1,0.3-1.9,0.4-2.9c0.1-1,0.3-1.9,0.4-2.9c-0.1,0-0.2,0-0.4-0.1c-0.1,0-0.3-0.1-0.4-0.1
		c-0.1-0.1-0.2-0.1-0.3-0.2s-0.1-0.2-0.1-0.3c0-0.1,0.1-0.3,0.2-0.4c0.1-0.1,0.2-0.2,0.4-0.4c0.2-0.1,0.3-0.2,0.5-0.3
		c0.2-0.1,0.3-0.1,0.4-0.2c0.3-2.1,0.6-4.1,0.9-6.1s0.5-4.1,0.7-6.2c0.1-0.6,0.1-1.1,0.2-1.7s0.1-1.1,0.1-1.7
		c0.1-0.6,0.1-1.1,0.2-1.7c0.1-0.6,0.2-1.1,0.3-1.7c0.1-0.5,0.4-1,0.7-1.3s0.8-0.5,1.4-0.5c0.2,0,0.3,0,0.5,0c0.2,0,0.3,0.1,0.5,0.2
		c0.4,0.2,0.8,0.7,1.2,1.6s0.8,1.9,1.2,3.1c0.4,1.2,0.8,2.5,1.2,3.9c0.4,1.4,0.7,2.8,1,4.1s0.6,2.5,0.8,3.6c0.2,1.1,0.4,1.8,0.5,2.4
		c0.3,0,0.6-0.1,0.9-0.1c0.3,0,0.6-0.1,0.9-0.1c0.1,0,0.3,0,0.5,0s0.4,0.1,0.5,0.1c0.2,0.1,0.3,0.2,0.4,0.3
		C1279.2,582.1,1279.3,582.2,1279.3,582.4z M1272.4,582.2c-0.4-2.1-0.8-4.1-1.2-6.2c-0.4-2-1-4.1-1.6-6.1c-0.3,2.2-0.5,4.4-0.9,6.6
		s-0.6,4.4-1,6.5c0.8-0.1,1.6-0.2,2.3-0.4C1270.8,582.6,1271.6,582.4,1272.4,582.2z"/>
	<path d="M1303,588c0,0.2,0,0.4-0.1,0.6c-0.1,0.2-0.1,0.4-0.2,0.6c-0.3,0.8-0.7,1.6-1.2,2.3c-0.5,0.7-1,1.3-1.6,1.8
		s-1.3,0.9-2.1,1.2s-1.6,0.4-2.6,0.4c-1.2,0-2.3-0.3-3.2-0.8s-1.7-1.2-2.3-2.1c-0.6-0.8-1.1-1.8-1.5-2.8c-0.4-1-0.7-2.1-1-3.1
		c-0.4-1.5-0.6-3-0.8-4.5c-0.2-1.5-0.3-3-0.3-4.6c0-0.9,0-1.8,0.1-2.8c0.1-1,0.2-1.9,0.4-2.8c0.2-0.9,0.5-1.8,0.8-2.7
		c0.4-0.9,0.8-1.7,1.3-2.4c0.5-0.7,1.2-1.4,1.9-2c0.7-0.6,1.6-1,2.5-1.3c0.4-0.1,0.7-0.2,1.1-0.3c0.4-0.1,0.8-0.1,1.1-0.1
		c0.8,0,1.5,0.1,2.2,0.4s1.3,0.6,1.8,1.1c0.5,0.5,0.9,1,1.2,1.6c0.3,0.6,0.5,1.4,0.5,2.2c0,0.3-0.1,0.5-0.2,0.6s-0.3,0.2-0.6,0.2
		c-0.5,0-1-0.1-1.3-0.3c-0.3-0.2-0.5-0.4-0.7-0.7s-0.3-0.5-0.5-0.9c-0.1-0.3-0.3-0.6-0.5-0.9s-0.4-0.5-0.7-0.7s-0.7-0.3-1.2-0.3
		s-1,0.1-1.4,0.3c-0.4,0.2-0.9,0.5-1.2,0.8c-0.4,0.3-0.7,0.7-1,1.1c-0.3,0.4-0.6,0.8-0.8,1.2c-0.6,1.1-1,2.4-1.3,3.7
		c-0.2,1.3-0.4,2.6-0.4,3.9c0,0.4,0,1,0.1,1.7c0,0.7,0.1,1.5,0.2,2.3c0.1,0.8,0.2,1.7,0.3,2.6c0.1,0.9,0.3,1.8,0.5,2.7
		c0.2,0.9,0.5,1.8,0.8,2.6c0.3,0.8,0.6,1.5,1,2.2c0.4,0.6,0.8,1.1,1.3,1.5c0.5,0.4,1,0.5,1.7,0.5c0.6,0,1.2-0.2,1.7-0.5
		c0.5-0.3,0.9-0.7,1.2-1.3c0.3-0.5,0.6-1.1,0.9-1.6c0.2-0.6,0.4-1.1,0.5-1.7c0-0.1,0.1-0.3,0.1-0.4c0-0.1,0.1-0.2,0.2-0.3
		c0.1-0.1,0.1-0.2,0.3-0.2s0.2-0.1,0.4-0.1c0.2,0,0.5,0,0.7,0.1c0.3,0.1,0.6,0.2,0.8,0.3c0.3,0.1,0.5,0.3,0.6,0.5
		S1303,587.8,1303,588z"/>
	<path d="M1321.6,594.4c0,0.2-0.1,0.3-0.3,0.4s-0.4,0.2-0.6,0.3c-0.2,0.1-0.5,0.1-0.7,0.2c-0.2,0-0.4,0-0.5,0c-0.3,0-0.5,0-0.7-0.1
		c-0.2-0.1-0.4-0.1-0.6-0.3c-0.1,0-0.2-0.2-0.5-0.6c-0.3-0.3-0.6-0.8-1-1.3c-0.4-0.5-0.9-1.1-1.4-1.8c-0.5-0.7-1-1.4-1.6-2.1
		c-0.5-0.7-1.1-1.4-1.6-2.1c-0.5-0.7-1-1.4-1.4-2c-0.4-0.6-0.8-1.1-1.1-1.6c-0.3-0.4-0.5-0.8-0.7-0.9l-0.1,0
		c0.1,1.7,0.2,3.5,0.3,5.2c0.1,1.7,0.4,3.5,0.7,5.2c0,0.2,0.1,0.4,0.1,0.5c0.1,0.2,0.1,0.4,0.1,0.6c0,0.3-0.1,0.6-0.3,0.6
		c-0.2,0.1-0.5,0.1-0.7,0.1c-0.1,0-0.3,0-0.5,0s-0.4,0-0.6-0.1s-0.4-0.1-0.6-0.2c-0.2-0.1-0.3-0.2-0.4-0.3c-0.2-0.2-0.3-0.4-0.4-0.5
		c-0.1-0.2-0.1-0.4-0.1-0.7c-0.4-2.9-0.7-5.9-0.8-8.9c-0.1-3-0.2-5.9-0.2-8.9c0-1.3,0-2.6,0-3.8s0-2.5,0.1-3.8
		c-0.2,0-0.3-0.1-0.5-0.2c-0.2-0.1-0.3-0.2-0.4-0.4c-0.1-0.2-0.2-0.3-0.3-0.5c-0.1-0.2-0.1-0.3-0.1-0.5s0-0.3,0.1-0.5
		c0.1-0.2,0.2-0.3,0.3-0.4c0.1-0.1,0.3-0.3,0.4-0.4s0.3-0.2,0.4-0.3v-0.4c0-0.1,0-0.3,0-0.5c0-0.2,0-0.4,0.1-0.5
		c0.1-0.2,0.1-0.3,0.3-0.4c0.1-0.1,0.3-0.2,0.5-0.2c0.3,0,0.6,0.1,0.9,0.2s0.6,0.3,0.8,0.5c1.1-0.4,2.3-0.7,3.5-0.7
		c1.1,0,2,0.2,2.9,0.6s1.6,1,2.3,1.7c0.6,0.7,1.1,1.5,1.4,2.5s0.5,1.9,0.5,2.9c0,1.1-0.2,2.2-0.6,3.2c-0.4,1-0.9,2-1.6,2.9
		s-1.4,1.8-2.3,2.5c-0.8,0.8-1.7,1.4-2.6,2c1.4,1.8,2.8,3.6,4.2,5.4c1.4,1.8,2.9,3.6,4.3,5.4c0.1,0.1,0.2,0.3,0.4,0.5
		c0.2,0.2,0.4,0.4,0.6,0.7c0.2,0.2,0.4,0.5,0.5,0.7C1321.6,594.1,1321.6,594.3,1321.6,594.4z M1315.2,570.3c0-0.5-0.1-1.1-0.3-1.7
		s-0.5-1.1-0.8-1.6c-0.4-0.5-0.8-0.9-1.3-1.2c-0.5-0.3-1-0.5-1.6-0.5c-0.5,0-1,0.1-1.4,0.2c-0.5,0.1-0.9,0.3-1.4,0.5
		c0,2.2,0.1,4.4,0.1,6.5c0,2.2,0.1,4.4,0.1,6.5l0.4,0c0.8-0.4,1.5-1,2.3-1.6c0.7-0.6,1.4-1.4,2-2.2c0.6-0.8,1.1-1.6,1.4-2.5
		C1315,572.1,1315.2,571.2,1315.2,570.3z"/>
	<path d="M1336.7,581c0,0.8,0,1.7-0.1,2.7c-0.1,1-0.2,2-0.3,3s-0.4,2-0.7,3c-0.3,1-0.7,1.8-1.3,2.6s-1.2,1.4-1.9,1.8
		c-0.8,0.5-1.7,0.7-2.8,0.7c-0.6,0-1.2-0.1-1.8-0.3s-1.1-0.4-1.6-0.8c-0.8-0.6-1.4-1.4-1.9-2.4c-0.5-1-0.9-2.2-1.3-3.5
		c-0.3-1.3-0.6-2.7-0.8-4.2c-0.2-1.5-0.3-2.9-0.4-4.3c-0.1-1.4-0.1-2.8-0.1-4s0-2.3,0-3.2c0-0.2,0-0.6,0-1s0-0.9,0-1.5
		c0-0.5,0-1.1,0-1.7s0-1.1,0.1-1.6c0-0.5,0.1-1,0.1-1.4s0.1-0.7,0.2-0.9s0.2-0.3,0.3-0.4c0.1-0.1,0.2-0.1,0.5-0.1
		c0.7,0,1.2,0.2,1.6,0.6c0.4,0.4,0.6,0.9,0.6,1.6c0,1,0,1.9-0.1,2.9s-0.1,1.9-0.1,2.9c0,0.4,0,1,0,1.9c0,0.8,0,1.8,0.1,2.8
		c0,1,0.1,2.2,0.2,3.4s0.2,2.4,0.4,3.6c0.2,1.2,0.3,2.3,0.6,3.4c0.2,1.1,0.5,2.1,0.8,2.9c0.3,0.8,0.7,1.5,1.2,2s0.9,0.7,1.5,0.7
		c0.5,0,1-0.2,1.4-0.6c0.4-0.4,0.7-1,1-1.6c0.3-0.7,0.5-1.4,0.7-2.2c0.2-0.8,0.3-1.6,0.4-2.4c0.1-0.8,0.1-1.5,0.2-2.2
		c0-0.7,0-1.2,0-1.6c0-0.8,0-1.7-0.1-2.7c0-1-0.1-2-0.2-3.1c-0.1-1.1-0.2-2.2-0.3-3.3s-0.3-2.2-0.4-3.2c-0.2-1-0.3-2-0.6-3
		c-0.2-1-0.5-1.8-0.7-2.5c0-0.1-0.1-0.3-0.2-0.5c-0.1-0.2-0.1-0.4-0.1-0.5c0-0.2,0.1-0.4,0.2-0.5c0.1-0.1,0.2-0.2,0.4-0.3
		c0.2-0.1,0.3-0.1,0.5-0.1c0.2,0,0.4,0,0.5,0c0.4,0,0.6,0,0.9,0c0.2,0,0.5,0.1,0.8,0.3c0.2,0.1,0.4,0.4,0.6,1c0.2,0.5,0.4,1.2,0.5,2
		s0.3,1.7,0.5,2.7c0.1,1,0.3,2.1,0.4,3.1c0.1,1.1,0.2,2.1,0.3,3.2s0.2,2.1,0.2,3s0.1,1.7,0.1,2.4S1336.7,580.7,1336.7,581z"/>
	<path d="M1351.6,592c0,0.4-0.1,0.8-0.3,1.2c-0.2,0.4-0.5,0.6-0.9,0.8c-0.1,0.1-0.4,0.1-0.9,0.1c-0.4,0-1,0.1-1.6,0.1
		s-1.3,0.1-2,0.1s-1.4,0-2,0c-0.6,0-1.2,0-1.7,0s-0.9,0-1.1,0c-0.1,0.2-0.2,0.3-0.4,0.4c-0.2,0.1-0.3,0.2-0.5,0.2
		c-0.2,0-0.4,0-0.7-0.1c-0.3-0.1-0.5-0.2-0.8-0.4c-0.2-0.2-0.5-0.3-0.6-0.5s-0.3-0.4-0.3-0.6c0-0.2,0-0.4,0.1-0.7s0.2-0.6,0.3-1
		c0.1-0.3,0.2-0.7,0.4-1s0.2-0.6,0.3-0.8l4.4-12.8l2.3-6.7c0.3-0.7,0.5-1.5,0.8-2.3c0.2-0.8,0.5-1.5,0.9-2.2c-0.5,0-0.9,0.1-1.4,0.1
		s-0.9,0-1.4,0c-0.1,0-0.4,0-0.7,0c-0.3,0-0.7,0-1.1,0c-0.4,0-0.9,0-1.3,0c-0.5,0-0.9,0-1.3,0c-0.4,0-0.7,0-1-0.1
		c-0.3,0-0.5-0.1-0.5-0.1c-0.2-0.1-0.3-0.3-0.3-0.5c0-0.4,0.1-0.8,0.4-1c0.3-0.2,0.6-0.4,1-0.5s0.8-0.2,1.2-0.2c0.4,0,0.8,0,1.1,0
		c0.4,0,0.7,0,1.1,0s0.7,0,1.1,0c0.7,0,1.5,0,2.2-0.1s1.4-0.1,2.1-0.1c0.2,0,0.5,0,0.8,0.1c0.3,0.1,0.6,0.1,0.8,0.3
		c0.2,0.1,0.4,0.3,0.6,0.5s0.2,0.5,0.2,0.8c0,0.3-0.1,0.5-0.2,0.7c-0.1,0.2-0.2,0.4-0.3,0.7c-0.5,1.2-1,2.5-1.4,3.7
		c-0.4,1.3-0.8,2.5-1.2,3.8c-1,3-2,6.1-3,9.1c-1,3-1.9,6-2.9,9.1c0.6,0,1.2-0.1,1.8-0.1c0.6,0,1.2-0.1,1.8-0.1
		c0.8-0.1,1.7-0.2,2.5-0.3c0.8-0.1,1.7-0.2,2.5-0.2c0.3,0,0.5,0.1,0.7,0.2C1351.5,591.5,1351.6,591.7,1351.6,592z"/>
	<path d="M1175.4,650.2c0,0.2-0.1,0.4-0.3,0.5s-0.4,0.3-0.7,0.5s-0.5,0.2-0.8,0.3c-0.3,0.1-0.5,0.1-0.6,0.1c-0.3,0-0.6-0.1-0.8-0.2
		c-0.3-0.2-0.5-0.3-0.7-0.6c-0.2-0.2-0.4-0.5-0.6-0.7c-0.2-0.3-0.4-0.5-0.5-0.7c-0.8-1.1-1.4-2.3-1.9-3.6c-0.5-1.3-0.9-2.5-1.2-3.9
		c-0.3-1.3-0.5-2.7-0.6-4c-0.1-1.4-0.2-2.7-0.2-4.1c0-1.4,0.1-2.9,0.2-4.5c0.2-1.6,0.4-3.2,0.8-4.8c0.4-1.6,0.9-3.1,1.5-4.5
		c0.6-1.4,1.4-2.7,2.3-3.8c0.1-0.1,0.2-0.2,0.3-0.3c0.1-0.1,0.2-0.2,0.4-0.3c0.1-0.1,0.3-0.2,0.4-0.3c0.1-0.1,0.3-0.1,0.4-0.1
		c0.2,0,0.3,0.1,0.5,0.2c0.1,0.1,0.3,0.2,0.4,0.4c0.1,0.2,0.2,0.3,0.3,0.5c0.1,0.2,0.1,0.4,0.1,0.5c0,0.2-0.1,0.4-0.2,0.7
		s-0.3,0.6-0.5,1c-0.2,0.3-0.4,0.7-0.6,1c-0.2,0.3-0.3,0.6-0.4,0.8c-0.4,1-0.8,2-1.1,3c-0.3,1.1-0.5,2.2-0.7,3.3
		c-0.2,1.1-0.3,2.2-0.4,3.4c-0.1,1.1-0.1,2.2-0.1,3.2c0,1.2,0,2.4,0.1,3.6c0.1,1.3,0.3,2.5,0.5,3.7c0.2,1.2,0.6,2.5,1,3.6
		c0.4,1.2,1,2.3,1.6,3.3c0.2,0.4,0.5,0.7,0.8,1c0.3,0.3,0.6,0.6,1,0.9c0.1,0.1,0.3,0.2,0.5,0.4
		C1175.3,649.8,1175.4,650,1175.4,650.2z"/>
	<path d="M1191.5,642c0,0.2,0,0.4-0.1,0.6c-0.1,0.2-0.1,0.4-0.2,0.6c-0.3,0.8-0.7,1.6-1.2,2.3c-0.5,0.7-1,1.3-1.6,1.8
		s-1.3,0.9-2.1,1.2s-1.6,0.4-2.6,0.4c-1.2,0-2.3-0.3-3.2-0.8s-1.7-1.2-2.3-2.1c-0.6-0.8-1.1-1.8-1.5-2.8c-0.4-1-0.7-2.1-1-3.1
		c-0.4-1.5-0.6-3-0.8-4.5c-0.2-1.5-0.3-3-0.3-4.6c0-0.9,0-1.8,0.1-2.8c0.1-1,0.2-1.9,0.4-2.8c0.2-0.9,0.5-1.8,0.8-2.7
		c0.4-0.9,0.8-1.7,1.3-2.4c0.5-0.7,1.2-1.4,1.9-2c0.7-0.6,1.6-1,2.5-1.3c0.4-0.1,0.7-0.2,1.1-0.3c0.4-0.1,0.8-0.1,1.1-0.1
		c0.8,0,1.5,0.1,2.2,0.4s1.3,0.6,1.8,1.1c0.5,0.5,0.9,1,1.2,1.6c0.3,0.6,0.5,1.4,0.5,2.2c0,0.3-0.1,0.5-0.2,0.6
		c-0.1,0.1-0.3,0.2-0.6,0.2c-0.5,0-1-0.1-1.3-0.3c-0.3-0.2-0.5-0.4-0.7-0.7s-0.3-0.5-0.5-0.9c-0.1-0.3-0.3-0.6-0.5-0.9
		s-0.4-0.5-0.7-0.7s-0.7-0.3-1.2-0.3s-1,0.1-1.4,0.3c-0.4,0.2-0.9,0.5-1.2,0.8c-0.4,0.3-0.7,0.7-1,1.1c-0.3,0.4-0.6,0.8-0.8,1.2
		c-0.6,1.1-1,2.4-1.3,3.7c-0.2,1.3-0.4,2.6-0.4,3.9c0,0.4,0,1,0.1,1.7c0,0.7,0.1,1.5,0.2,2.3c0.1,0.8,0.2,1.7,0.3,2.6
		c0.1,0.9,0.3,1.8,0.5,2.7c0.2,0.9,0.5,1.8,0.8,2.6c0.3,0.8,0.6,1.5,1,2.2c0.4,0.6,0.8,1.1,1.3,1.5c0.5,0.4,1,0.5,1.7,0.5
		c0.6,0,1.2-0.2,1.7-0.5c0.5-0.3,0.9-0.7,1.2-1.3c0.3-0.5,0.6-1.1,0.9-1.6c0.2-0.6,0.4-1.1,0.5-1.7c0-0.1,0.1-0.3,0.1-0.4
		c0-0.1,0.1-0.2,0.2-0.3c0.1-0.1,0.2-0.2,0.3-0.2c0.1,0,0.2-0.1,0.4-0.1c0.2,0,0.5,0,0.7,0.1c0.3,0.1,0.6,0.2,0.8,0.3
		c0.3,0.1,0.5,0.3,0.6,0.5C1191.4,641.5,1191.5,641.8,1191.5,642z"/>
	<path d="M1209.7,631.4c0,0.7-0.2,1.1-0.5,1.4c-0.3,0.3-0.8,0.5-1.4,0.6c0.1,2.3,0.2,4.5,0.3,6.7c0,2.2,0.1,4.5,0.1,6.7
		c0,0.4-0.1,0.6-0.2,0.8c-0.1,0.2-0.4,0.3-0.8,0.3c-0.3,0-0.6,0-1-0.1c-0.3-0.1-0.6-0.2-0.8-0.3c-0.2-0.2-0.5-0.4-0.6-0.6
		c-0.2-0.3-0.2-0.6-0.2-1v-6.9c0-0.9,0-1.7,0-2.6s0-1.7,0-2.6c-1.3,0.2-2.5,0.3-3.8,0.5c-1.3,0.1-2.5,0.2-3.8,0.3
		c0,3.1,0.1,6.2,0.3,9.4c0,0.6,0.1,1.3,0.1,1.9c0.1,0.6,0.1,1.2,0.1,1.8c0,0.3-0.1,0.5-0.2,0.7s-0.4,0.2-0.7,0.2
		c-0.2,0-0.5,0-0.7-0.1c-0.2,0-0.5-0.1-0.7-0.2c-0.2-0.1-0.5-0.2-0.7-0.3s-0.4-0.3-0.5-0.5c0-0.1-0.1-0.3-0.1-0.7s-0.1-0.8-0.1-1.4
		c0-0.6,0-1.2-0.1-1.9s0-1.4,0-2.2s0-1.5,0-2.2c0-0.7,0-1.4,0-2s0-1.1,0-1.6s0-0.8,0-0.9c-0.2,0-0.4,0-0.5-0.1
		c-0.2-0.1-0.2-0.3-0.2-0.5c0-0.3,0.1-0.5,0.2-0.8c0.2-0.2,0.3-0.4,0.6-0.6v-13.3c0-0.3,0.1-0.5,0.2-0.7c0.1-0.2,0.3-0.3,0.6-0.3
		c0.5,0,0.9,0.1,1.2,0.2c0.3,0.1,0.5,0.3,0.7,0.6c0.2,0.3,0.3,0.6,0.3,0.9c0.1,0.4,0.1,0.7,0.1,1.2c0,1.8,0.1,3.6,0.1,5.4
		s0,3.6,0.1,5.4c1.3-0.1,2.5-0.2,3.8-0.4c1.2-0.1,2.5-0.3,3.8-0.6c-0.1-1.6-0.2-3.1-0.3-4.6c-0.1-1.5-0.3-3.1-0.5-4.6
		c-0.1-0.7-0.3-1.5-0.4-2.2c-0.2-0.7-0.2-1.5-0.2-2.2c0-0.3,0.1-0.4,0.3-0.5c0.2-0.1,0.4-0.1,0.6-0.1c0.4,0,0.7,0.1,1.1,0.2
		c0.4,0.1,0.6,0.3,0.9,0.6c0.1,0.2,0.3,0.6,0.4,1.2c0.1,0.6,0.3,1.3,0.4,2.2c0.1,0.8,0.2,1.7,0.4,2.7s0.2,1.9,0.3,2.8
		c0.1,0.9,0.2,1.7,0.2,2.4c0.1,0.7,0.1,1.2,0.1,1.5c0.2,0,0.4-0.1,0.5-0.1c0.2,0,0.4-0.1,0.5-0.1c0.4,0,0.6,0.1,0.8,0.3
		C1209.6,630.8,1209.7,631.1,1209.7,631.4z"/>
	<path d="M1224.6,645.3c0,0.4-0.1,0.8-0.3,1.2c-0.2,0.4-0.5,0.6-0.9,0.8c-0.1,0.1-0.4,0.1-0.9,0.2c-0.5,0.1-0.9,0.1-1.5,0.1
		s-1,0.1-1.5,0.1c-0.5,0-0.8,0.1-1,0.1c0,0.2-0.2,0.4-0.4,0.5c-0.2,0.1-0.4,0.1-0.6,0.1c-0.2,0-0.5,0-0.9-0.1
		c-0.3-0.1-0.6-0.2-0.9-0.2c-0.7,0.1-1.3,0.2-2,0.3c-0.7,0.1-1.4,0.2-2,0.2c-0.5,0-0.8-0.2-0.8-0.7s0.1-0.9,0.4-1.1s0.6-0.5,1-0.6
		c0.4-0.1,0.8-0.2,1.3-0.3c0.5,0,0.9-0.1,1.2-0.2c-0.1-4.2-0.2-8.3-0.2-12.4c-0.1-4.1-0.1-8.2-0.1-12.4c-0.6,0-1.2,0.1-1.8,0.1
		c-0.6,0-1.1,0.1-1.7,0.1c-0.1,0-0.2,0-0.4,0c-0.1,0-0.3,0-0.4-0.1c-0.1,0-0.2-0.1-0.3-0.2c-0.1-0.1-0.1-0.2-0.1-0.4
		c0-0.3,0.1-0.5,0.2-0.7c0.1-0.2,0.3-0.4,0.5-0.5c0.2-0.1,0.4-0.3,0.6-0.3s0.5-0.2,0.7-0.2c0.6-0.1,1.3-0.2,1.9-0.3
		c0.7-0.1,1.3-0.2,2-0.2c0.7-0.1,1.3-0.2,2-0.3c0.7-0.1,1.3-0.2,1.9-0.4c0.6-0.1,1.2-0.3,1.8-0.5c0.6-0.2,1.2-0.3,1.9-0.3
		c0.4,0,0.6,0.1,0.7,0.4c0.1,0.3,0.2,0.5,0.2,0.8c0,0.2,0,0.5-0.1,0.7c-0.1,0.2-0.2,0.4-0.3,0.6c-0.1,0.1-0.3,0.2-0.6,0.3
		c-0.3,0.1-0.7,0.2-1.1,0.3c-0.4,0.1-0.9,0.2-1.3,0.3c-0.5,0.1-0.9,0.2-1.4,0.2c-0.4,0.1-0.9,0.1-1.2,0.2s-0.6,0.1-0.8,0.1
		c0.2,2,0.3,4.1,0.3,6.1c0.1,2,0.1,4.1,0.2,6.1s0.1,4.1,0.1,6.1s0.1,4.1,0.2,6.1c0.8-0.1,1.7-0.3,2.5-0.4c0.8-0.1,1.7-0.2,2.6-0.2
		c0.2,0,0.5,0.1,0.7,0.2C1224.5,644.8,1224.6,645,1224.6,645.3z"/>
	<path d="M1239.2,645.3c0,0.3-0.2,0.7-0.5,1c-0.4,0.3-0.8,0.6-1.4,0.8c-0.6,0.3-1.2,0.5-1.9,0.7c-0.7,0.2-1.3,0.4-2,0.5
		c-0.7,0.1-1.2,0.3-1.8,0.3c-0.5,0.1-0.9,0.1-1.2,0.1c-0.5,0-1-0.1-1.4-0.2c-0.4-0.1-0.8-0.3-1.1-0.5c-0.3-0.2-0.5-0.6-0.7-0.9
		c-0.2-0.4-0.3-0.8-0.3-1.4c0-3.9,0-7.8,0-11.7s0-7.8,0-11.7c0-0.6,0-1.2,0-1.8s0-1.2,0-1.8c0-0.1,0-0.3,0-0.5
		c0-0.2,0.1-0.4,0.1-0.5c0.1-0.2,0.1-0.3,0.3-0.4s0.3-0.2,0.5-0.2s0.4,0,0.6,0.1c0.2,0.1,0.4,0.1,0.6,0.3c0.2,0.1,0.4,0.3,0.5,0.4
		c0.2,0.2,0.3,0.4,0.3,0.6c0.1,0.3,0.1,0.5,0.1,0.8c0,0.3,0,0.6,0,0.9c0.1,3.9,0.1,7.8,0.2,11.6c0,3.8,0.1,7.7,0.1,11.6
		c0,0.4,0,0.9,0,1.3c0,0.4,0,0.9,0.1,1.3c0.4,0,0.9-0.1,1.5-0.2c0.6-0.1,1.1-0.3,1.7-0.5c0.6-0.2,1.1-0.4,1.6-0.6s0.9-0.5,1.2-0.7
		c0.1-0.1,0.3-0.3,0.4-0.4c0.1-0.1,0.3-0.2,0.5-0.2c0.2,0,0.4,0.1,0.6,0.2c0.2,0.1,0.4,0.3,0.6,0.5c0.2,0.2,0.3,0.4,0.4,0.6
		S1239.2,645.1,1239.2,645.3z"/>
	<path d="M1255.1,643.7c0,0.2-0.1,0.5-0.3,0.7c-0.2,0.2-0.4,0.5-0.7,0.7s-0.6,0.4-0.9,0.6c-0.3,0.2-0.5,0.3-0.7,0.5
		c-0.5,0.3-1,0.6-1.5,0.9c-0.5,0.3-1,0.5-1.5,0.7c-0.5,0.2-1.1,0.4-1.6,0.5c-0.5,0.1-1.1,0.2-1.7,0.2l-0.4,0c-0.5,0-1-0.1-1.4-0.2
		c-0.5-0.1-0.9-0.3-1.3-0.5c-0.4-0.2-0.8-0.5-1.1-0.9s-0.6-0.8-0.7-1.3c-0.1-0.4-0.2-0.9-0.3-1.4s-0.1-1.1-0.2-1.7
		c0-0.6-0.1-1.2-0.1-1.7c0-0.6,0-1.1-0.1-1.5c-0.2-4.5-0.4-9-0.5-13.4c0-0.5-0.1-1-0.1-1.5s0-1,0-1.5c0-0.9,0.1-1.6,0.2-2.2
		s0.3-1.1,0.6-1.5c0.3-0.4,0.8-0.7,1.3-0.9c0.6-0.2,1.3-0.3,2.3-0.3s1.9,0,2.9,0c1,0,1.9,0,2.9,0c0.3,0,0.6,0,0.9,0
		c0.3,0,0.6,0,0.9,0.1c0.2,0,0.3,0.1,0.5,0.1c0.1,0.1,0.2,0.2,0.2,0.4c0,0.5-0.2,0.9-0.5,1.2c-0.4,0.3-0.8,0.4-1.3,0.5
		s-1,0.1-1.5,0.1c-0.5,0-0.9,0-1.3,0h-2.9c-0.3,0-0.6,0-0.9,0s-0.6,0-0.9,0c-0.1,0.2-0.1,0.4-0.2,0.7s0,0.5,0,0.7
		c0,1.6,0,3.2,0.1,4.7c0.1,1.6,0.2,3.1,0.2,4.7c0.9-0.1,1.8-0.2,2.7-0.3s1.8-0.2,2.7-0.4c0.1,0,0.3,0,0.4,0c0.1,0,0.2,0,0.3,0
		c0.3,0,0.5,0.1,0.6,0.2c0.1,0.2,0.2,0.4,0.2,0.7c0,0.2,0,0.4,0,0.6c0,0.2-0.1,0.4-0.1,0.5c-0.1,0.3-0.3,0.5-0.5,0.6
		c-0.2,0.1-0.5,0.2-0.8,0.3c-0.3,0.1-0.6,0.1-0.9,0.1c-0.3,0-0.6,0-0.8,0c-0.6,0-1.2,0.1-1.8,0.1c-0.6,0-1.2,0-1.8,0.1
		c0,0.3,0,0.8,0.1,1.4s0.1,1.3,0.1,2.1c0,0.8,0.1,1.6,0.1,2.4c0.1,0.8,0.1,1.6,0.2,2.3c0.1,0.7,0.1,1.4,0.2,1.9s0.1,0.9,0.2,1.1
		c0.2,0.3,0.3,0.5,0.5,0.6c0.2,0.1,0.5,0.1,0.8,0.1c0.5,0,1.1-0.1,1.7-0.3c0.6-0.2,1.2-0.5,1.8-0.8c0.6-0.3,1.1-0.7,1.6-1.1
		c0.5-0.4,1-0.8,1.4-1.2c0.2-0.1,0.3-0.3,0.5-0.4c0.2-0.1,0.4-0.2,0.6-0.2s0.4,0.1,0.6,0.2c0.2,0.1,0.4,0.3,0.5,0.5
		c0.2,0.2,0.3,0.4,0.4,0.6C1255.1,643.3,1255.1,643.5,1255.1,643.7z"/>
	<path d="M1270.2,646.7c0,0.3,0,0.5-0.1,0.8c-0.1,0.3-0.1,0.5-0.3,0.7c-0.1,0.2-0.3,0.4-0.5,0.5s-0.5,0.2-0.8,0.2
		c-0.4,0-0.7-0.1-1-0.3c-0.2-0.2-0.5-0.4-0.7-0.7c-0.3-0.4-0.5-0.9-0.7-1.4c-0.2-0.5-0.4-1.1-0.6-1.6c-0.2-0.5-0.3-1.1-0.5-1.6
		c-0.2-0.5-0.3-1.1-0.5-1.5c-0.8-2.5-1.5-4.9-2.2-7.4c-0.7-2.4-1.4-4.9-2.2-7.4c-0.1,3.2-0.1,6.3-0.2,9.5c0,3.1-0.1,6.3-0.1,9.5
		c0,0.2,0,0.3,0,0.5c0,0.2-0.1,0.4-0.1,0.6c-0.1,0.2-0.2,0.3-0.3,0.5c-0.1,0.1-0.3,0.2-0.5,0.2c-0.7,0-1.3-0.2-1.7-0.6
		c-0.4-0.4-0.6-1-0.6-1.7c0-4.1,0-8.2,0-12.2s0-8.1,0-12.2v-3.1c0-0.3,0.1-0.6,0.2-0.8c0.1-0.2,0.4-0.3,0.8-0.3c0.3,0,0.6,0,0.9,0.1
		c0.3,0.1,0.6,0.2,0.8,0.4c0.2,0.2,0.4,0.4,0.6,0.6c0.2,0.3,0.2,0.6,0.2,0.9c0.6,1.2,1.1,2.4,1.5,3.6c0.4,1.2,0.8,2.5,1.2,3.8
		c0.6,1.8,1.1,3.7,1.7,5.5s1.1,3.7,1.7,5.5c-0.1-2.8-0.2-5.5-0.3-8.3c-0.1-2.8-0.3-5.5-0.6-8.3c-0.1-0.6-0.2-1.2-0.3-1.8
		c-0.1-0.6-0.1-1.2-0.1-1.8c0-0.3,0.1-0.5,0.3-0.6c0.2-0.1,0.4-0.2,0.7-0.2c0.5,0,0.8,0,1.2,0.1c0.3,0.1,0.6,0.2,0.8,0.4
		s0.4,0.4,0.5,0.7c0.1,0.3,0.2,0.7,0.3,1.1c0.1,0.8,0.2,1.6,0.2,2.4c0.1,0.8,0.1,1.6,0.1,2.4c0.1,2,0.2,3.9,0.3,5.8s0.1,3.9,0.2,5.8
		c0,1.9,0.1,3.9,0.2,5.8C1270.1,642.8,1270.2,644.7,1270.2,646.7z"/>
	<path d="M1289.3,636.4c0,0.3-0.1,0.6-0.3,1s-0.5,0.6-0.7,0.7c-0.1,0-0.2,0.1-0.4,0.1s-0.4,0.1-0.6,0.1c-0.2,0-0.4,0.1-0.6,0.1
		c-0.2,0-0.3,0.1-0.4,0.1l0.5,3.3c0.2,1,0.3,2,0.4,3c0.1,1,0.3,2,0.6,3c0,0.1,0.1,0.2,0.1,0.2s0,0.2,0,0.3c0,0.2-0.1,0.3-0.2,0.4
		c-0.1,0.1-0.2,0.2-0.4,0.2c-0.2,0.1-0.3,0.1-0.5,0.1c-0.2,0-0.3,0-0.5,0h-0.3c-0.5,0-0.8,0-1-0.1c-0.2-0.1-0.4-0.2-0.6-0.4
		s-0.2-0.4-0.3-0.7c0-0.3-0.1-0.6-0.2-1c-0.4-2.7-0.7-5.4-1.2-8c-0.9,0.1-1.8,0.2-2.7,0.3c-0.9,0.1-1.8,0.2-2.8,0.3l-0.7,4.3
		c0,0.3-0.1,0.6-0.1,1.1c-0.1,0.5-0.1,0.9-0.2,1.4c-0.1,0.5-0.1,0.9-0.2,1.3c-0.1,0.4-0.2,0.7-0.3,0.9c-0.1,0.2-0.2,0.3-0.2,0.4
		c-0.1,0.1-0.2,0.1-0.4,0.1c-0.3,0-0.5,0-0.8-0.1c-0.3-0.1-0.5-0.2-0.7-0.4c-0.2-0.2-0.4-0.4-0.5-0.6s-0.2-0.5-0.2-0.8
		s0-0.6,0.1-0.9c0.1-0.3,0.1-0.6,0.2-0.9c0.2-1,0.3-1.9,0.4-2.9c0.1-1,0.3-1.9,0.4-2.9c-0.1,0-0.2,0-0.4-0.1c-0.1,0-0.3-0.1-0.4-0.1
		c-0.1-0.1-0.2-0.1-0.3-0.2s-0.1-0.2-0.1-0.3c0-0.1,0.1-0.3,0.2-0.4c0.1-0.1,0.2-0.2,0.4-0.4c0.2-0.1,0.3-0.2,0.5-0.3
		c0.2-0.1,0.3-0.1,0.4-0.2c0.3-2.1,0.6-4.1,0.9-6.1c0.3-2,0.5-4.1,0.7-6.2c0.1-0.6,0.1-1.1,0.2-1.7c0-0.6,0.1-1.1,0.1-1.7
		c0.1-0.6,0.1-1.1,0.2-1.7c0.1-0.6,0.2-1.1,0.3-1.7c0.1-0.5,0.4-1,0.7-1.3s0.8-0.5,1.4-0.5c0.2,0,0.3,0,0.5,0c0.2,0,0.3,0.1,0.5,0.2
		c0.4,0.2,0.8,0.7,1.2,1.6c0.4,0.9,0.8,1.9,1.2,3.1c0.4,1.2,0.8,2.5,1.2,3.9c0.4,1.4,0.7,2.8,1,4.1s0.6,2.5,0.8,3.6
		c0.2,1.1,0.4,1.8,0.5,2.4c0.3,0,0.6-0.1,0.9-0.1c0.3,0,0.6-0.1,0.9-0.1c0.1,0,0.3,0,0.5,0c0.2,0,0.4,0.1,0.5,0.1
		c0.2,0.1,0.3,0.2,0.4,0.3C1289.3,636.1,1289.3,636.2,1289.3,636.4z M1282.4,636.2c-0.4-2.1-0.8-4.1-1.2-6.2c-0.4-2-1-4.1-1.6-6.1
		c-0.3,2.2-0.5,4.4-0.9,6.6s-0.6,4.4-1,6.5c0.8-0.1,1.6-0.2,2.3-0.4C1280.9,636.6,1281.6,636.4,1282.4,636.2z"/>
	<path d="M1296.4,633.1c0,1.4-0.1,2.8-0.2,4.4c-0.2,1.6-0.4,3.2-0.8,4.8c-0.4,1.6-0.9,3.1-1.5,4.5c-0.6,1.4-1.4,2.7-2.3,3.8
		c-0.1,0.1-0.2,0.2-0.3,0.3c-0.1,0.1-0.2,0.2-0.4,0.4c-0.1,0.1-0.3,0.2-0.4,0.3s-0.3,0.1-0.4,0.1c-0.2,0-0.3-0.1-0.5-0.2
		c-0.2-0.1-0.3-0.2-0.4-0.4c-0.1-0.2-0.2-0.3-0.3-0.5c-0.1-0.2-0.1-0.4-0.1-0.5s0.1-0.4,0.2-0.7s0.3-0.6,0.5-1
		c0.2-0.3,0.4-0.7,0.6-1c0.2-0.3,0.3-0.6,0.4-0.8c0.4-0.9,0.8-1.9,1.1-3s0.6-2.2,0.7-3.3c0.2-1.1,0.3-2.2,0.4-3.4
		c0.1-1.1,0.1-2.2,0.1-3.2c0-1.2,0-2.4-0.1-3.6c-0.1-1.3-0.3-2.5-0.5-3.8c-0.2-1.2-0.6-2.5-1-3.6c-0.4-1.2-1-2.2-1.6-3.2
		c-0.3-0.4-0.5-0.7-0.8-1.1s-0.6-0.6-0.9-0.9c-0.1-0.1-0.3-0.2-0.5-0.3c-0.2-0.1-0.3-0.3-0.3-0.5c0-0.2,0.1-0.4,0.3-0.5
		s0.4-0.3,0.7-0.5s0.5-0.2,0.8-0.3c0.3-0.1,0.5-0.1,0.6-0.1c0.3,0,0.6,0.1,0.8,0.2c0.3,0.2,0.5,0.3,0.7,0.6c0.2,0.2,0.4,0.5,0.6,0.7
		s0.4,0.5,0.5,0.7c0.8,1.1,1.4,2.3,1.9,3.6c0.5,1.3,0.9,2.5,1.2,3.9c0.3,1.3,0.5,2.7,0.6,4C1296.3,630.4,1296.4,631.7,1296.4,633.1z
		"/>
</g>
<g>
	<path d="M1634.2,564.6c0,0.4-0.1,0.8-0.4,1s-0.5,0.4-0.9,0.5s-0.7,0.2-1.1,0.2s-0.8,0-1.1,0c-0.6,0-1.3,0-1.9,0s-1.3,0-1.9,0
		c-0.3,0-0.6,0-0.9,0s-0.6,0-0.9,0c-0.1,0.2-0.2,0.5-0.2,0.8c0,0.3,0,0.5,0,0.8c0,1.4,0.1,2.7,0.2,4.1s0.2,2.7,0.3,4.1
		c0.9-0.1,1.8-0.2,2.6-0.3s1.8-0.2,2.7-0.4c0.1,0,0.2,0,0.3,0s0.2,0,0.3,0c0.6,0,0.9,0.3,0.9,1c0,0.2,0,0.4-0.1,0.5
		c0,0.2-0.1,0.4-0.2,0.5c-0.1,0.3-0.3,0.5-0.5,0.6c-0.2,0.1-0.5,0.2-0.8,0.3c-0.3,0.1-0.6,0.1-0.9,0.1c-0.3,0-0.6,0-0.8,0l-3.4,0.1
		c0.1,1.4,0.2,2.8,0.3,4.1s0.2,2.7,0.3,4.1c0.1,1.1,0.2,2.1,0.3,3.2c0.1,1.1,0.2,2.1,0.4,3.2v0.4c0,0.3-0.1,0.6-0.3,0.7
		c-0.2,0.1-0.4,0.2-0.7,0.2c-0.5,0-1.1-0.1-1.5-0.3c-0.3-0.1-0.6-0.3-0.7-0.4c-0.2-0.2-0.3-0.4-0.3-0.6c-0.1-0.2-0.1-0.4-0.1-0.7
		s0-0.5,0-0.8c-0.1-2.2-0.3-4.4-0.4-6.6c-0.2-2.2-0.3-4.4-0.4-6.6c-0.1-1.6-0.2-3.3-0.3-4.9s-0.2-3.2-0.2-4.9c0-0.9,0.1-1.6,0.2-2.2
		c0.1-0.6,0.3-1.1,0.6-1.5s0.7-0.7,1.3-0.8s1.3-0.3,2.2-0.3c1,0,1.9,0,2.8,0s1.9,0,2.8,0c0.3,0,0.7,0,1,0c0.3,0,0.6,0,0.9,0.1
		c0.2,0,0.3,0.1,0.5,0.1C1634.2,564.3,1634.2,564.4,1634.2,564.6z"/>
	<path d="M1650.8,581c0,0.8,0,1.7-0.1,2.7c-0.1,1-0.2,2-0.3,3s-0.4,2-0.7,3c-0.3,1-0.7,1.8-1.3,2.6s-1.2,1.4-1.9,1.8
		c-0.8,0.5-1.7,0.7-2.8,0.7c-0.6,0-1.2-0.1-1.8-0.3s-1.1-0.4-1.6-0.8c-0.8-0.6-1.4-1.4-1.9-2.4c-0.5-1-0.9-2.2-1.3-3.5
		c-0.3-1.3-0.6-2.7-0.8-4.2c-0.2-1.5-0.3-2.9-0.4-4.3c-0.1-1.4-0.1-2.8-0.1-4s0-2.3,0-3.2c0-0.2,0-0.6,0-1s0-0.9,0-1.5
		c0-0.5,0-1.1,0-1.7s0-1.1,0.1-1.6c0-0.5,0.1-1,0.1-1.4s0.1-0.7,0.2-0.9s0.2-0.3,0.3-0.4c0.1-0.1,0.2-0.1,0.5-0.1
		c0.7,0,1.2,0.2,1.6,0.6c0.4,0.4,0.6,0.9,0.6,1.6c0,1,0,1.9-0.1,2.9s-0.1,1.9-0.1,2.9c0,0.4,0,1,0,1.9c0,0.8,0,1.8,0.1,2.8
		c0,1,0.1,2.2,0.2,3.4s0.2,2.4,0.4,3.6c0.2,1.2,0.3,2.3,0.6,3.4c0.2,1.1,0.5,2.1,0.8,2.9c0.3,0.8,0.7,1.5,1.2,2s0.9,0.7,1.5,0.7
		c0.5,0,1-0.2,1.4-0.6c0.4-0.4,0.7-1,1-1.6c0.3-0.7,0.5-1.4,0.7-2.2c0.2-0.8,0.3-1.6,0.4-2.4c0.1-0.8,0.1-1.5,0.2-2.2
		c0-0.7,0-1.2,0-1.6c0-0.8,0-1.7-0.1-2.7c0-1-0.1-2-0.2-3.1c-0.1-1.1-0.2-2.2-0.3-3.3s-0.3-2.2-0.4-3.2c-0.2-1-0.3-2-0.6-3
		c-0.2-1-0.5-1.8-0.7-2.5c0-0.1-0.1-0.3-0.2-0.5c-0.1-0.2-0.1-0.4-0.1-0.5c0-0.2,0.1-0.4,0.2-0.5c0.1-0.1,0.2-0.2,0.4-0.3
		c0.2-0.1,0.3-0.1,0.5-0.1c0.2,0,0.4,0,0.5,0c0.4,0,0.6,0,0.9,0c0.2,0,0.5,0.1,0.8,0.3c0.2,0.1,0.4,0.4,0.6,1c0.2,0.5,0.4,1.2,0.5,2
		s0.3,1.7,0.5,2.7c0.1,1,0.3,2.1,0.4,3.1c0.1,1.1,0.2,2.2,0.3,3.2s0.2,2.1,0.2,3s0.1,1.7,0.1,2.4S1650.8,580.7,1650.8,581z"/>
	<path d="M1669,589.7c0,0.2-0.1,0.5-0.3,0.7c-0.2,0.2-0.4,0.5-0.7,0.7s-0.6,0.4-0.9,0.6c-0.3,0.2-0.5,0.3-0.7,0.5
		c-0.5,0.3-1,0.6-1.5,0.9c-0.5,0.3-1,0.5-1.5,0.7c-0.5,0.2-1.1,0.4-1.6,0.5c-0.5,0.1-1.1,0.2-1.7,0.2l-0.4,0c-0.5,0-1-0.1-1.4-0.2
		c-0.5-0.1-0.9-0.3-1.3-0.5c-0.4-0.2-0.8-0.5-1.1-0.9s-0.6-0.8-0.7-1.3c-0.1-0.4-0.2-0.9-0.3-1.4s-0.1-1.1-0.2-1.7
		c0-0.6-0.1-1.2-0.1-1.7c0-0.6,0-1.1-0.1-1.5c-0.2-4.5-0.4-9-0.5-13.4c0-0.5-0.1-1-0.1-1.5s0-1,0-1.5c0-0.9,0.1-1.6,0.2-2.2
		s0.3-1.1,0.6-1.5s0.8-0.7,1.3-0.9c0.6-0.2,1.3-0.3,2.3-0.3s1.9,0,2.9,0c1,0,1.9,0,2.9,0c0.3,0,0.6,0,0.9,0c0.3,0,0.6,0,0.9,0.1
		c0.2,0,0.3,0.1,0.5,0.1c0.1,0.1,0.2,0.2,0.2,0.4c0,0.5-0.2,0.9-0.5,1.2c-0.4,0.3-0.8,0.4-1.3,0.5s-1,0.1-1.5,0.1
		c-0.5,0-0.9,0-1.3,0h-2.9c-0.3,0-0.6,0-0.9,0s-0.6,0-0.9,0c-0.1,0.2-0.1,0.4-0.2,0.7s0,0.5,0,0.7c0,1.6,0,3.2,0.1,4.7
		c0.1,1.6,0.2,3.1,0.2,4.7c0.9-0.1,1.8-0.2,2.7-0.3s1.8-0.2,2.7-0.4c0.1,0,0.3,0,0.4,0c0.1,0,0.2,0,0.3,0c0.3,0,0.5,0.1,0.6,0.2
		c0.1,0.2,0.2,0.4,0.2,0.7c0,0.2,0,0.4,0,0.6c0,0.2-0.1,0.4-0.1,0.5c-0.1,0.3-0.3,0.5-0.5,0.6s-0.5,0.2-0.8,0.3
		c-0.3,0.1-0.6,0.1-0.9,0.1c-0.3,0-0.6,0-0.8,0c-0.6,0-1.2,0.1-1.8,0.1c-0.6,0-1.2,0-1.8,0.1c0,0.3,0,0.8,0.1,1.4s0.1,1.3,0.1,2.1
		c0,0.8,0.1,1.6,0.1,2.4c0.1,0.8,0.1,1.6,0.2,2.3c0.1,0.7,0.1,1.4,0.2,1.9s0.1,0.9,0.2,1.1c0.2,0.3,0.3,0.5,0.5,0.6
		c0.2,0.1,0.5,0.1,0.8,0.1c0.5,0,1.1-0.1,1.7-0.3c0.6-0.2,1.2-0.5,1.8-0.8c0.6-0.3,1.1-0.7,1.6-1.1c0.5-0.4,1-0.8,1.4-1.2
		c0.2-0.1,0.3-0.3,0.5-0.4c0.2-0.1,0.4-0.2,0.6-0.2s0.4,0.1,0.6,0.2s0.4,0.3,0.5,0.5c0.2,0.2,0.3,0.4,0.4,0.6
		C1669,589.3,1669,589.5,1669,589.7z"/>
	<path d="M1687.3,594.4c0,0.2-0.1,0.3-0.3,0.4s-0.4,0.2-0.6,0.3c-0.2,0.1-0.5,0.1-0.7,0.2c-0.2,0-0.4,0-0.5,0c-0.3,0-0.5,0-0.7-0.1
		c-0.2-0.1-0.4-0.1-0.6-0.3c-0.1,0-0.2-0.2-0.5-0.6c-0.3-0.3-0.6-0.8-1-1.3c-0.4-0.5-0.9-1.1-1.4-1.8c-0.5-0.7-1-1.4-1.6-2.1
		c-0.5-0.7-1.1-1.4-1.6-2.1c-0.5-0.7-1-1.4-1.4-2c-0.4-0.6-0.8-1.1-1.1-1.6c-0.3-0.4-0.5-0.8-0.7-0.9l-0.1,0
		c0.1,1.7,0.2,3.5,0.3,5.2c0.1,1.7,0.4,3.5,0.7,5.2c0,0.2,0.1,0.4,0.1,0.5c0.1,0.2,0.1,0.4,0.1,0.6c0,0.3-0.1,0.6-0.3,0.6
		c-0.2,0.1-0.5,0.1-0.7,0.1c-0.1,0-0.3,0-0.5,0s-0.4,0-0.6-0.1s-0.4-0.1-0.6-0.2c-0.2-0.1-0.3-0.2-0.4-0.3c-0.2-0.2-0.3-0.4-0.4-0.5
		c-0.1-0.2-0.1-0.4-0.1-0.7c-0.4-2.9-0.7-5.9-0.8-8.9c-0.1-3-0.2-5.9-0.2-8.9c0-1.3,0-2.6,0-3.8s0-2.5,0.1-3.8
		c-0.2,0-0.3-0.1-0.5-0.2c-0.2-0.1-0.3-0.2-0.4-0.4c-0.1-0.2-0.2-0.3-0.3-0.5c-0.1-0.2-0.1-0.3-0.1-0.5s0-0.3,0.1-0.5
		c0.1-0.2,0.2-0.3,0.3-0.4c0.1-0.1,0.3-0.3,0.4-0.4s0.3-0.2,0.4-0.3v-0.4c0-0.1,0-0.3,0-0.5c0-0.2,0-0.4,0.1-0.5
		c0.1-0.2,0.1-0.3,0.3-0.4c0.1-0.1,0.3-0.2,0.5-0.2c0.3,0,0.6,0.1,0.9,0.2s0.6,0.3,0.8,0.5c1.1-0.4,2.3-0.7,3.5-0.7
		c1.1,0,2,0.2,2.9,0.6s1.6,1,2.3,1.7c0.6,0.7,1.1,1.5,1.4,2.5s0.5,1.9,0.5,2.9c0,1.1-0.2,2.2-0.6,3.2c-0.4,1-0.9,2-1.6,2.9
		s-1.4,1.8-2.3,2.5c-0.8,0.8-1.7,1.4-2.6,2c1.4,1.8,2.8,3.6,4.2,5.4c1.4,1.8,2.9,3.6,4.3,5.4c0.1,0.1,0.2,0.3,0.4,0.5
		c0.2,0.2,0.4,0.4,0.6,0.7c0.2,0.2,0.4,0.5,0.5,0.7C1687.3,594.1,1687.3,594.3,1687.3,594.4z M1680.9,570.3c0-0.5-0.1-1.1-0.3-1.7
		s-0.5-1.1-0.8-1.6c-0.4-0.5-0.8-0.9-1.3-1.2c-0.5-0.3-1-0.5-1.6-0.5c-0.5,0-1,0.1-1.4,0.2c-0.5,0.1-0.9,0.3-1.4,0.5
		c0,2.2,0.1,4.4,0.1,6.5c0,2.2,0.1,4.4,0.1,6.5l0.4,0c0.8-0.4,1.5-1,2.3-1.6c0.7-0.6,1.4-1.4,2-2.2c0.6-0.8,1.1-1.6,1.4-2.5
		C1680.7,572.1,1680.9,571.2,1680.9,570.3z"/>
	<path d="M1700.9,564.3c0,0.5-0.2,1-0.5,1.3c-0.3,0.3-0.7,0.6-1.2,0.7c-0.8,0.2-1.7,0.3-2.5,0.3c-0.9,0-1.7,0-2.5,0.1v4.4
		c0,3.7,0.1,7.4,0.3,11c0.2,3.7,0.6,7.3,1.1,11c0,0.2,0.1,0.4,0.1,0.7c0.1,0.2,0.1,0.4,0.1,0.7c0,0.4-0.1,0.6-0.3,0.8
		c-0.2,0.2-0.4,0.2-0.8,0.2c-0.3,0-0.6,0-1-0.1c-0.4-0.1-0.7-0.2-0.9-0.3c-0.3-0.2-0.5-0.4-0.6-0.5c-0.1-0.2-0.1-0.4-0.2-0.7
		c-0.2-1-0.3-2.1-0.3-3.1s-0.1-2.1-0.2-3.1c-0.2-2.2-0.3-4.4-0.4-6.7s-0.2-4.4-0.2-6.7c0-1.2,0-2.4,0-3.6s0-2.4,0-3.7
		c-0.9,0.1-1.8,0.2-2.7,0.3c-0.9,0.1-1.8,0.1-2.8,0.1c-0.2,0-0.4-0.1-0.5-0.2c-0.1-0.1-0.2-0.3-0.2-0.5c0-0.5,0.2-0.9,0.5-1.2
		c0.3-0.3,0.7-0.5,1.2-0.6c0.7-0.2,1.5-0.3,2.3-0.3c0.8-0.1,1.6-0.1,2.3-0.2c0-0.1,0-0.3,0-0.4c0-0.1,0-0.3,0.1-0.4
		c0.1-0.1,0.1-0.2,0.2-0.3s0.2-0.1,0.4-0.1c0.4,0,0.7,0.1,1.1,0.2s0.7,0.4,0.9,0.7l3.6-0.4c0.4,0,0.7-0.1,1.1-0.1
		c0.4-0.1,0.7-0.1,1.1-0.1c0.2,0,0.3,0,0.5,0c0.2,0,0.3,0.1,0.4,0.1c0.1,0.1,0.2,0.2,0.3,0.3
		C1700.8,563.9,1700.9,564.1,1700.9,564.3z"/>
	<path d="M1717.1,589.7c0,0.2-0.1,0.5-0.3,0.7c-0.2,0.2-0.4,0.5-0.7,0.7s-0.6,0.4-0.9,0.6c-0.3,0.2-0.5,0.3-0.7,0.5
		c-0.5,0.3-1,0.6-1.5,0.9c-0.5,0.3-1,0.5-1.5,0.7c-0.5,0.2-1.1,0.4-1.6,0.5c-0.5,0.1-1.1,0.2-1.7,0.2l-0.4,0c-0.5,0-1-0.1-1.4-0.2
		c-0.5-0.1-0.9-0.3-1.3-0.5c-0.4-0.2-0.8-0.5-1.1-0.9s-0.6-0.8-0.7-1.3c-0.1-0.4-0.2-0.9-0.3-1.4s-0.1-1.1-0.2-1.7
		c0-0.6-0.1-1.2-0.1-1.7c0-0.6,0-1.1-0.1-1.5c-0.2-4.5-0.4-9-0.5-13.4c0-0.5-0.1-1-0.1-1.5s0-1,0-1.5c0-0.9,0.1-1.6,0.2-2.2
		s0.3-1.1,0.6-1.5s0.8-0.7,1.3-0.9c0.6-0.2,1.3-0.3,2.3-0.3s1.9,0,2.9,0c1,0,1.9,0,2.9,0c0.3,0,0.6,0,0.9,0c0.3,0,0.6,0,0.9,0.1
		c0.2,0,0.3,0.1,0.5,0.1c0.1,0.1,0.2,0.2,0.2,0.4c0,0.5-0.2,0.9-0.5,1.2c-0.4,0.3-0.8,0.4-1.3,0.5s-1,0.1-1.5,0.1
		c-0.5,0-0.9,0-1.3,0h-2.9c-0.3,0-0.6,0-0.9,0s-0.6,0-0.9,0c-0.1,0.2-0.1,0.4-0.2,0.7s0,0.5,0,0.7c0,1.6,0,3.2,0.1,4.7
		c0.1,1.6,0.2,3.1,0.2,4.7c0.9-0.1,1.8-0.2,2.7-0.3s1.8-0.2,2.7-0.4c0.1,0,0.3,0,0.4,0c0.1,0,0.2,0,0.3,0c0.3,0,0.5,0.1,0.6,0.2
		c0.1,0.2,0.2,0.4,0.2,0.7c0,0.2,0,0.4,0,0.6c0,0.2-0.1,0.4-0.1,0.5c-0.1,0.3-0.3,0.5-0.5,0.6s-0.5,0.2-0.8,0.3
		c-0.3,0.1-0.6,0.1-0.9,0.1c-0.3,0-0.6,0-0.8,0c-0.6,0-1.2,0.1-1.8,0.1c-0.6,0-1.2,0-1.8,0.1c0,0.3,0,0.8,0.1,1.4s0.1,1.3,0.1,2.1
		c0,0.8,0.1,1.6,0.1,2.4c0.1,0.8,0.1,1.6,0.2,2.3c0.1,0.7,0.1,1.4,0.2,1.9s0.1,0.9,0.2,1.1c0.2,0.3,0.3,0.5,0.5,0.6
		c0.2,0.1,0.5,0.1,0.8,0.1c0.5,0,1.1-0.1,1.7-0.3c0.6-0.2,1.2-0.5,1.8-0.8c0.6-0.3,1.1-0.7,1.6-1.1c0.5-0.4,1-0.8,1.4-1.2
		c0.2-0.1,0.3-0.3,0.5-0.4c0.2-0.1,0.4-0.2,0.6-0.2s0.4,0.1,0.6,0.2s0.4,0.3,0.5,0.5c0.2,0.2,0.3,0.4,0.4,0.6
		C1717.1,589.3,1717.1,589.5,1717.1,589.7z"/>
</g>
<g>
	<path class="st16" d="M299.7,713.8c0,1,0,2-0.1,3s-0.2,2.1-0.5,3.2s-0.6,2-1,3c-0.4,1-0.9,1.8-1.6,2.5s-1.4,1.3-2.3,1.7
		s-2,0.6-3.2,0.6c-1.1,0-2-0.2-2.8-0.6c-0.8-0.4-1.4-0.9-2-1.6c-0.5-0.7-1-1.4-1.3-2.2c-0.3-0.8-0.6-1.7-0.8-2.6
		c-0.2-0.9-0.3-1.8-0.4-2.8c-0.1-0.9-0.1-1.8-0.1-2.6c0-1,0-2,0.1-3.1c0.1-1,0.2-2.1,0.4-3.1s0.5-2,0.9-2.9c0.4-1,0.9-1.9,1.5-2.7
		c-0.6-0.4-1-1-1.4-1.6c-0.4-0.6-0.7-1.3-0.9-2c-0.2-0.7-0.4-1.4-0.5-2.2s-0.1-1.5-0.1-2.1c0-0.8,0.1-1.6,0.2-2.5
		c0.1-0.9,0.3-1.7,0.5-2.5s0.5-1.6,0.9-2.4c0.4-0.8,0.8-1.5,1.3-2.1c0.1-0.1,0.2-0.3,0.3-0.4s0.3-0.3,0.5-0.4
		c0.2-0.1,0.3-0.3,0.5-0.4s0.3-0.1,0.5-0.1c0.3,0,0.5,0.1,0.7,0.2c0.4-0.2,0.7-0.3,1.2-0.5c0.4-0.1,0.8-0.2,1.2-0.2
		c1.2,0,2.1,0.3,2.9,0.9c0.8,0.6,1.4,1.4,1.9,2.3s0.8,1.9,1,3s0.3,2.1,0.3,3c0,0.7,0,1.4-0.1,2.2c-0.1,0.7-0.2,1.5-0.5,2.2
		s-0.5,1.4-0.8,2.1c-0.3,0.7-0.6,1.3-1,1.9c1,0.6,1.7,1.4,2.3,2.3s1,1.9,1.4,2.9s0.5,2.1,0.7,3.3S299.7,712.8,299.7,713.8z
		 M289.3,701.3c0.5-0.2,1.1-0.4,1.6-0.4c0.4-0.4,0.7-0.9,0.9-1.5s0.5-1.2,0.7-1.8s0.3-1.3,0.4-1.9s0.1-1.2,0.1-1.8
		c0-0.4,0-0.8-0.1-1.3s-0.2-1-0.3-1.5c-0.1-0.5-0.3-1-0.5-1.5s-0.4-0.8-0.7-1.1c-0.1,0.2-0.2,0.3-0.3,0.5c-0.1,0.2-0.2,0.3-0.2,0.4
		s-0.2,0.2-0.4,0.3s-0.3,0.1-0.6,0.1c-0.2,0-0.3,0-0.5-0.1c-0.2,0-0.3-0.1-0.5-0.2c-0.4,0.9-0.7,1.8-0.9,2.9c-0.2,1.1-0.3,2.1-0.3,3
		c0,0.4,0,0.8,0.1,1.4s0.1,1.1,0.3,1.7s0.3,1.1,0.5,1.6C288.8,700.7,289.1,701,289.3,701.3z M291.6,704.8c-0.2,0.2-0.3,0.3-0.5,0.4
		c-0.2,0.1-0.3,0.3-0.5,0.4c-0.5,0.5-0.9,1.2-1.2,2.1c-0.3,0.8-0.6,1.7-0.7,2.6c-0.2,0.9-0.3,1.8-0.4,2.7c-0.1,0.9-0.1,1.7-0.1,2.4
		c0,0.3,0,0.7,0,1.3c0,0.6,0.1,1.2,0.1,1.8c0.1,0.7,0.2,1.3,0.3,2c0.1,0.7,0.3,1.3,0.5,1.9s0.5,1,0.7,1.4s0.6,0.5,1.1,0.5
		c0.6,0,1.2-0.2,1.7-0.6c0.5-0.4,0.9-0.9,1.2-1.5c0.3-0.6,0.6-1.3,0.8-2.1s0.4-1.6,0.5-2.3c0.1-0.8,0.2-1.5,0.2-2.2
		c0-0.7,0.1-1.3,0.1-1.8c0-0.7,0-1.5,0-2.3c0-0.8-0.1-1.6-0.2-2.3s-0.4-1.5-0.7-2.2c-0.3-0.7-0.7-1.4-1.3-1.9
		c-0.3-0.3-0.5-0.5-0.8-0.6L291.6,704.8z"/>
	<path class="st16" d="M317.2,700.3c0,0.6,0,1.1,0,1.7c0,0.6,0,1.1,0,1.7c0,3.8-0.4,7.5-1.2,11c-0.8,3.5-2,7-3.6,10.5
		c-0.1,0.2-0.2,0.4-0.3,0.6c-0.1,0.2-0.2,0.5-0.4,0.7s-0.3,0.4-0.5,0.6s-0.4,0.2-0.6,0.2c-0.3,0-0.5-0.1-0.8-0.2s-0.5-0.3-0.7-0.5
		s-0.4-0.5-0.5-0.7c-0.1-0.3-0.2-0.5-0.2-0.8c0-0.2,0.1-0.5,0.2-0.9c0.1-0.4,0.3-0.9,0.5-1.3s0.4-0.9,0.5-1.3c0.2-0.4,0.3-0.8,0.4-1
		c0.5-1.3,0.9-2.7,1.2-4.1s0.7-2.8,0.9-4.2c-0.9,0.5-1.8,0.8-2.7,0.8c-1.2,0-2.3-0.3-3.1-0.8c-0.8-0.5-1.5-1.2-2.1-2.1
		c-0.6-0.9-1-1.9-1.3-3c-0.3-1.1-0.5-2.3-0.7-3.4c-0.2-1.2-0.2-2.3-0.3-3.4s0-2.1,0-3c0-0.8,0-1.6,0.1-2.5c0.1-0.9,0.2-1.8,0.4-2.8
		c0.2-0.9,0.5-1.8,0.8-2.7c0.3-0.9,0.8-1.6,1.3-2.3c0.5-0.7,1.2-1.2,1.9-1.6c0.8-0.4,1.6-0.6,2.7-0.6c1,0,2,0.3,2.8,0.8
		c0.8,0.6,1.5,1.3,2.1,2.2c0.6,0.9,1.1,1.9,1.5,3.1c0.4,1.1,0.7,2.3,1,3.4c0.3,1.2,0.4,2.3,0.5,3.3
		C317.2,698.6,317.2,699.5,317.2,700.3z M312.5,698.6c0-0.4-0.1-0.9-0.2-1.5c-0.1-0.6-0.2-1.3-0.3-1.9s-0.3-1.4-0.4-2.1
		c-0.2-0.7-0.4-1.4-0.6-2c-0.2-0.6-0.5-1.2-0.8-1.7s-0.6-0.8-1-1.1c-0.4,0.1-0.8,0.3-1.1,0.7s-0.5,0.9-0.8,1.5
		c-0.2,0.6-0.4,1.2-0.5,1.9c-0.1,0.7-0.2,1.4-0.3,2.1c-0.1,0.7-0.1,1.3-0.1,1.9c0,0.6,0,1,0,1.3c0,0.4,0,0.9,0,1.6s0.1,1.4,0.2,2.3
		c0.1,0.8,0.2,1.7,0.3,2.5c0.1,0.9,0.3,1.7,0.5,2.4s0.5,1.4,0.7,1.9s0.6,0.8,1,0.9c0.6-0.4,1.1-1,1.5-1.9c0.4-0.8,0.7-1.7,1-2.6
		c0.2-0.9,0.4-1.9,0.5-2.8c0.1-0.9,0.2-1.8,0.2-2.5c0-0.2,0-0.3,0-0.4S312.5,698.7,312.5,698.6z"/>
	<path class="st16" d="M324.2,723.6c0,1.2-0.2,2.4-0.6,3.5c-0.4,1.1-0.9,2.2-1.6,3.2c-0.1,0.1-0.2,0.3-0.3,0.4
		c-0.1,0.2-0.2,0.3-0.4,0.5c-0.1,0.1-0.3,0.3-0.4,0.4c-0.2,0.1-0.3,0.1-0.5,0.1c-0.2,0-0.5-0.1-0.7-0.2c-0.3-0.2-0.5-0.4-0.8-0.6
		c-0.2-0.2-0.4-0.5-0.6-0.8c-0.2-0.3-0.2-0.5-0.2-0.7c0-0.2,0.1-0.3,0.2-0.5s0.2-0.4,0.4-0.6s0.3-0.4,0.5-0.6
		c0.2-0.2,0.3-0.4,0.4-0.5c0.3-0.4,0.4-0.9,0.6-1.3c0.1-0.4,0.2-0.8,0.3-1.2s0.1-0.8,0.1-1.2s0.1-0.8,0.2-1.3c0-0.4,0.2-0.6,0.3-0.7
		c0.2-0.1,0.4-0.1,0.8-0.1c0.8,0,1.4,0.2,1.9,0.5S324.2,722.7,324.2,723.6z"/>
	<path class="st16" d="M338.2,687.5c0,0.5-0.1,1-0.2,1.5c-0.4,2.8-0.8,5.6-1.1,8.4c-0.3,2.8-0.6,5.6-0.9,8.4
		c-0.3,2.9-0.6,5.8-0.8,8.7c-0.3,2.9-0.5,5.8-0.8,8.7l-0.2,2.1c0,0.2-0.1,0.5-0.1,0.7c0,0.3-0.1,0.5-0.1,0.7
		c-0.1,0.2-0.2,0.4-0.4,0.5s-0.4,0.2-0.7,0.2c-0.2,0-0.5,0-0.8-0.1c-0.3-0.1-0.7-0.2-1-0.4c-0.3-0.2-0.7-0.3-0.9-0.5
		c-0.3-0.2-0.5-0.4-0.5-0.7c0-0.2-0.1-0.3-0.1-0.5c0-0.1,0-0.3,0-0.5c0-0.5,0.1-0.9,0.2-1.4c0.1-0.5,0.2-1,0.2-1.4
		c0.1-0.7,0.2-1.4,0.3-2c0.1-0.7,0.1-1.3,0.2-2c0.3-2.9,0.6-5.9,1-8.8c0.3-2.9,0.6-5.8,1-8.7c0.3-2,0.6-3.9,0.8-5.8
		c0.3-1.9,0.6-3.8,0.9-5.8c-1.3,0.1-2.5,0.2-3.8,0.2c-1.3,0.1-2.6,0.1-3.9,0.1c-0.2,0-0.3,0-0.5,0c-0.2,0-0.4,0-0.5-0.1
		c-0.2-0.1-0.3-0.1-0.4-0.3c-0.1-0.1-0.2-0.3-0.2-0.5c0-0.7,0.2-1.3,0.7-1.7s1-0.6,1.7-0.7c0.6-0.1,1.1-0.2,1.7-0.2
		c0.6,0,1.1-0.1,1.7-0.1c1.1-0.1,2.3-0.3,3.4-0.6s2.3-0.4,3.4-0.4c0.5,0,0.8,0.2,0.9,0.5s0.2,0.7,0.2,1.1c0,0.2,0,0.4-0.1,0.6
		C338.3,687.1,338.2,687.3,338.2,687.5z"/>
	<path class="st16" d="M351,699.4c0,0.6,0,1.2-0.1,1.9c0,0.7-0.1,1.5-0.2,2.2s-0.3,1.5-0.5,2.2c-0.2,0.7-0.5,1.4-0.9,2
		s-0.8,1.1-1.4,1.4s-1.2,0.5-2,0.5c-0.8,0-1.5-0.2-2.1-0.6s-1-0.8-1.4-1.4c-0.4-0.6-0.6-1.2-0.8-1.9s-0.4-1.4-0.5-2.1
		c-0.2-0.9-0.3-1.9-0.4-2.8s-0.1-1.9-0.1-2.8s0-1.9,0.1-2.8s0.3-1.9,0.6-2.8c-0.1-0.1-0.1-0.2-0.2-0.3c0-0.1-0.1-0.2-0.1-0.3
		c0-0.1,0-0.1,0-0.2s0-0.1,0.1-0.2c0.2-0.5,0.4-0.9,0.7-1.4s0.6-0.9,1-1.2s0.8-0.6,1.3-0.9s1-0.3,1.6-0.3c0.8,0,1.5,0.2,2.1,0.6
		c0.6,0.4,1.1,1,1.5,1.7c0.4,0.7,0.7,1.5,0.9,2.3s0.4,1.7,0.5,2.6s0.2,1.7,0.2,2.5C351,698.1,351,698.8,351,699.4z M347.7,700.4
		c0-0.4,0-0.9,0-1.5c0-0.6-0.1-1.2-0.1-1.8s-0.1-1.3-0.2-2c-0.1-0.7-0.2-1.3-0.4-1.9c-0.1-0.6-0.3-1.2-0.5-1.7s-0.4-0.9-0.7-1.2
		c-0.4,0.7-0.8,1.3-1.1,1.8c-0.3,0.6-0.5,1.1-0.6,1.7s-0.2,1.2-0.3,1.8c0,0.6-0.1,1.3-0.1,2.1c0,0.3,0,0.7,0,1.2s0.1,1.2,0.1,1.9
		s0.1,1.5,0.2,2.2c0.1,0.8,0.2,1.5,0.4,2.1c0.2,0.6,0.3,1.1,0.6,1.6c0.2,0.4,0.5,0.6,0.7,0.6c0.1,0,0.2-0.1,0.3-0.2
		c0.1-0.1,0.2-0.2,0.3-0.4s0.2-0.3,0.2-0.5c0.1-0.2,0.1-0.3,0.2-0.4c0.3-0.9,0.6-1.8,0.7-2.7C347.6,702.3,347.7,701.3,347.7,700.4z
		 M360.5,692.5c0,0.4-0.1,0.9-0.3,1.3c-0.2,0.4-0.4,0.8-0.5,1.3c-1.6,4.1-3.1,8.2-4.5,12.3c-1.5,4.1-2.9,8.2-4.3,12.3
		c-0.1,0.2-0.1,0.5-0.2,0.8c-0.1,0.4-0.2,0.8-0.3,1.1s-0.2,0.8-0.4,1.1s-0.2,0.5-0.3,0.6c-0.1,0.2-0.3,0.3-0.6,0.3
		c-0.2,0-0.4,0-0.7-0.1s-0.5-0.2-0.7-0.4s-0.4-0.3-0.6-0.5c-0.2-0.2-0.2-0.4-0.2-0.6c0-0.2,0.1-0.6,0.3-1.3c0.2-0.7,0.5-1.6,0.9-2.7
		s0.8-2.3,1.3-3.6c0.5-1.3,1-2.7,1.5-4.1s1.1-2.8,1.6-4.2s1-2.7,1.5-3.8c0.4-1.2,0.8-2.2,1.2-3.1c0.3-0.9,0.6-1.5,0.7-1.9l1.5-3.9
		c0.1-0.3,0.2-0.7,0.4-1s0.3-0.6,0.4-0.9c0.1-0.2,0.2-0.3,0.3-0.5s0.3-0.2,0.5-0.2c0.4,0,0.8,0.2,1.1,0.5
		C360.3,691.7,360.5,692.1,360.5,692.5z M367.4,714.6c0,0.6,0,1.2-0.1,1.9c0,0.7-0.1,1.5-0.2,2.2s-0.3,1.5-0.5,2.2
		c-0.2,0.7-0.5,1.4-0.9,2s-0.8,1.1-1.4,1.4c-0.5,0.4-1.2,0.5-2,0.5c-0.8,0-1.5-0.2-2.1-0.6s-1-0.8-1.4-1.4c-0.4-0.6-0.6-1.2-0.8-1.9
		s-0.4-1.4-0.5-2.1c-0.2-0.9-0.3-1.9-0.4-2.8s-0.1-1.9-0.1-2.8s0-1.9,0.1-2.8s0.3-1.9,0.6-2.8c-0.1-0.1-0.1-0.2-0.2-0.3
		c0-0.1-0.1-0.2-0.1-0.3c0-0.1,0-0.1,0-0.2s0-0.1,0.1-0.2c0.2-0.5,0.4-0.9,0.7-1.4s0.6-0.9,1-1.2s0.8-0.6,1.3-0.9s1-0.3,1.6-0.3
		c0.8,0,1.5,0.2,2.1,0.6c0.6,0.4,1.1,1,1.5,1.7c0.4,0.7,0.7,1.5,0.9,2.3s0.4,1.7,0.5,2.6s0.2,1.7,0.2,2.5
		C367.4,713.4,367.4,714,367.4,714.6z M364.1,715.6c0-0.4,0-0.9,0-1.5c0-0.6-0.1-1.2-0.1-1.8s-0.1-1.3-0.2-2
		c-0.1-0.7-0.2-1.3-0.4-1.9c-0.1-0.6-0.3-1.2-0.5-1.7s-0.4-0.9-0.7-1.2c-0.4,0.7-0.8,1.3-1.1,1.8c-0.3,0.6-0.5,1.1-0.6,1.7
		s-0.2,1.2-0.3,1.8c0,0.6-0.1,1.3-0.1,2.1c0,0.3,0,0.7,0,1.2s0.1,1.2,0.1,1.9s0.1,1.5,0.2,2.2c0.1,0.8,0.2,1.5,0.4,2.1
		c0.2,0.6,0.3,1.1,0.5,1.6s0.5,0.6,0.7,0.6c0.1,0,0.2-0.1,0.3-0.2c0.1-0.1,0.2-0.2,0.3-0.4s0.2-0.3,0.2-0.5c0.1-0.2,0.1-0.3,0.2-0.4
		c0.3-0.9,0.6-1.8,0.7-2.7C364.1,717.5,364.1,716.5,364.1,715.6z"/>
</g>
<g>
	<path class="st16" d="M750.8,726.5c0,0.4-0.1,0.7-0.2,0.9s-0.4,0.3-0.9,0.3c-0.3,0-0.6,0-0.8-0.1c-0.3-0.1-0.6-0.2-0.8-0.3
		s-0.5-0.3-0.7-0.5s-0.4-0.4-0.5-0.7c-0.1-0.1-0.2-0.5-0.2-1.1c-0.1-0.6-0.1-1.2-0.2-2c-0.1-0.8-0.1-1.6-0.2-2.5
		c-0.1-0.9-0.1-1.7-0.2-2.5c0-0.8-0.1-1.5-0.1-2.2c0-0.6-0.1-1.1-0.1-1.3c-0.4,0-0.8,0-1.2,0s-0.8,0-1.2,0c-0.4,0-1,0-1.7,0
		c-0.7,0-1.3-0.1-2-0.3s-1.2-0.4-1.7-0.8c-0.5-0.4-0.7-0.8-0.7-1.5c0-0.7,0.1-1.4,0.3-2.1s0.4-1.3,0.6-2c0.9-3.2,1.9-6.4,2.9-9.5
		c1-3.1,2.1-6.3,3-9.5c-0.1-0.6-0.1-1.1-0.2-1.7c-0.1-0.6-0.1-1.1-0.1-1.7c0-0.5,0.2-0.8,0.5-0.9c0.3-0.1,0.7-0.2,1.1-0.2
		c0.3,0,0.7,0,1.1,0.1s0.8,0.2,1.1,0.4s0.6,0.4,0.9,0.7c0.2,0.3,0.4,0.7,0.4,1.1c0,0.1,0,0.2-0.1,0.3c0,0.1-0.1,0.2-0.1,0.3
		c0,1.1,0,2.2,0.1,3.4c0.1,1.1,0.1,2.3,0.2,3.4l0.8,16.2c0.6-0.1,1.2-0.1,1.9-0.2c0.6-0.1,1.2-0.2,1.8-0.2c0.4,0,0.7,0.1,0.9,0.2
		s0.4,0.5,0.4,0.9c0,0.8-0.1,1.4-0.4,1.8c-0.3,0.4-0.6,0.7-1.1,0.9c-0.4,0.2-1,0.3-1.5,0.3c-0.6,0-1.2,0.1-1.8,0.1l0.4,6.6
		c0,0.9,0.1,1.8,0.1,2.8S750.8,725.6,750.8,726.5z M745.7,710.9c-0.1-1.8-0.2-3.5-0.3-5.2c-0.1-1.7-0.2-3.4-0.3-5.2
		c-0.5,1.7-1,3.4-1.6,5.2s-1,3.5-1.3,5.3h0.8c0.5,0,0.9,0,1.4,0S745.2,711,745.7,710.9z"/>
	<path class="st16" d="M760.2,724.4c0,1.2-0.2,2.4-0.6,3.5c-0.4,1.1-0.9,2.2-1.6,3.2c-0.1,0.1-0.2,0.3-0.3,0.4
		c-0.1,0.2-0.2,0.3-0.4,0.5c-0.1,0.1-0.3,0.3-0.4,0.4c-0.2,0.1-0.3,0.1-0.5,0.1c-0.2,0-0.5-0.1-0.7-0.2c-0.3-0.2-0.5-0.4-0.8-0.6
		c-0.2-0.2-0.4-0.5-0.6-0.8c-0.2-0.3-0.2-0.5-0.2-0.7c0-0.2,0.1-0.3,0.2-0.5s0.2-0.4,0.4-0.6s0.3-0.4,0.5-0.6
		c0.2-0.2,0.3-0.4,0.4-0.5c0.3-0.4,0.4-0.9,0.6-1.3c0.1-0.4,0.2-0.8,0.3-1.2s0.1-0.8,0.1-1.2s0.1-0.8,0.2-1.3c0-0.4,0.2-0.6,0.3-0.7
		c0.2-0.1,0.4-0.1,0.8-0.1c0.8,0,1.4,0.2,1.9,0.5S760.2,723.5,760.2,724.4z"/>
	<path class="st16" d="M773.4,726.5c0,0.4-0.1,0.7-0.2,0.9s-0.4,0.3-0.9,0.3c-0.3,0-0.6,0-0.8-0.1c-0.3-0.1-0.6-0.2-0.8-0.3
		s-0.5-0.3-0.7-0.5s-0.4-0.4-0.5-0.7c-0.1-0.1-0.2-0.5-0.2-1.1c-0.1-0.6-0.1-1.2-0.2-2c-0.1-0.8-0.1-1.6-0.2-2.5
		c-0.1-0.9-0.1-1.7-0.2-2.5c0-0.8-0.1-1.5-0.1-2.2c0-0.6-0.1-1.1-0.1-1.3c-0.4,0-0.8,0-1.2,0s-0.8,0-1.2,0c-0.4,0-1,0-1.7,0
		c-0.7,0-1.3-0.1-2-0.3s-1.2-0.4-1.7-0.8c-0.5-0.4-0.7-0.8-0.7-1.5c0-0.7,0.1-1.4,0.3-2.1s0.4-1.3,0.6-2c0.9-3.2,1.9-6.4,2.9-9.5
		c1-3.1,2.1-6.3,3-9.5c-0.1-0.6-0.1-1.1-0.2-1.7c-0.1-0.6-0.1-1.1-0.1-1.7c0-0.5,0.2-0.8,0.5-0.9c0.3-0.1,0.7-0.2,1.1-0.2
		c0.3,0,0.7,0,1.1,0.1s0.8,0.2,1.1,0.4s0.6,0.4,0.9,0.7c0.2,0.3,0.4,0.7,0.4,1.1c0,0.1,0,0.2-0.1,0.3c0,0.1-0.1,0.2-0.1,0.3
		c0,1.1,0,2.2,0.1,3.4c0.1,1.1,0.1,2.3,0.2,3.4l0.8,16.2c0.6-0.1,1.2-0.1,1.9-0.2c0.6-0.1,1.2-0.2,1.8-0.2c0.4,0,0.7,0.1,0.9,0.2
		s0.4,0.5,0.4,0.9c0,0.8-0.1,1.4-0.4,1.8c-0.3,0.4-0.6,0.7-1.1,0.9c-0.4,0.2-1,0.3-1.5,0.3c-0.6,0-1.2,0.1-1.8,0.1l0.4,6.6
		c0,0.9,0.1,1.8,0.1,2.8S773.4,725.6,773.4,726.5z M768.3,710.9c-0.1-1.8-0.2-3.5-0.3-5.2c-0.1-1.7-0.2-3.4-0.3-5.2
		c-0.5,1.7-1,3.4-1.6,5.2s-1,3.5-1.3,5.3h0.8c0.5,0,0.9,0,1.4,0S767.9,711,768.3,710.9z"/>
	<path class="st16" d="M788.4,700.1c0,0.6,0,1.2-0.1,1.9c0,0.7-0.1,1.5-0.2,2.2s-0.3,1.5-0.5,2.2c-0.2,0.7-0.5,1.4-0.9,2
		s-0.8,1.1-1.4,1.4s-1.2,0.5-2,0.5c-0.8,0-1.5-0.2-2.1-0.6s-1-0.8-1.4-1.4c-0.4-0.6-0.6-1.2-0.8-1.9s-0.4-1.4-0.5-2.1
		c-0.2-0.9-0.3-1.9-0.4-2.8s-0.1-1.9-0.1-2.8s0-1.9,0.1-2.8s0.3-1.9,0.6-2.8c-0.1-0.1-0.1-0.2-0.2-0.3c0-0.1-0.1-0.2-0.1-0.3
		c0-0.1,0-0.1,0-0.2s0-0.1,0.1-0.2c0.2-0.5,0.4-0.9,0.7-1.4s0.6-0.9,1-1.2s0.8-0.6,1.3-0.9s1-0.3,1.6-0.3c0.8,0,1.5,0.2,2.1,0.6
		c0.6,0.4,1.1,1,1.5,1.7c0.4,0.7,0.7,1.5,0.9,2.3s0.4,1.7,0.5,2.6s0.2,1.7,0.2,2.5C788.3,698.9,788.4,699.6,788.4,700.1z
		 M785.1,701.1c0-0.4,0-0.9,0-1.5c0-0.6-0.1-1.2-0.1-1.8s-0.1-1.3-0.2-2c-0.1-0.7-0.2-1.3-0.4-1.9c-0.1-0.6-0.3-1.2-0.5-1.7
		s-0.4-0.9-0.7-1.2c-0.4,0.7-0.8,1.3-1.1,1.8c-0.3,0.6-0.5,1.1-0.6,1.7s-0.2,1.2-0.3,1.8c0,0.6-0.1,1.3-0.1,2.1c0,0.3,0,0.7,0,1.2
		s0.1,1.2,0.1,1.9s0.1,1.5,0.2,2.2c0.1,0.8,0.2,1.5,0.4,2.1c0.2,0.6,0.3,1.1,0.6,1.6c0.2,0.4,0.5,0.6,0.7,0.6c0.1,0,0.2-0.1,0.3-0.2
		c0.1-0.1,0.2-0.2,0.3-0.4s0.2-0.3,0.2-0.5c0.1-0.2,0.1-0.3,0.2-0.4c0.3-0.9,0.6-1.8,0.7-2.7C785,703,785.1,702.1,785.1,701.1z
		 M797.9,693.3c0,0.4-0.1,0.9-0.3,1.3c-0.2,0.4-0.4,0.8-0.5,1.3c-1.6,4.1-3.1,8.2-4.5,12.3c-1.5,4.1-2.9,8.2-4.3,12.3
		c-0.1,0.2-0.1,0.5-0.2,0.8c-0.1,0.4-0.2,0.8-0.3,1.1s-0.2,0.8-0.4,1.1s-0.2,0.5-0.3,0.6c-0.1,0.2-0.3,0.3-0.6,0.3
		c-0.2,0-0.4,0-0.7-0.1s-0.5-0.2-0.7-0.4s-0.4-0.3-0.6-0.5c-0.2-0.2-0.2-0.4-0.2-0.6c0-0.2,0.1-0.6,0.3-1.3c0.2-0.7,0.5-1.6,0.9-2.7
		s0.8-2.3,1.3-3.6c0.5-1.3,1-2.7,1.5-4.1s1.1-2.8,1.6-4.2s1-2.7,1.5-3.8c0.4-1.2,0.8-2.2,1.2-3.1c0.3-0.9,0.6-1.5,0.7-1.9l1.5-3.9
		c0.1-0.3,0.2-0.7,0.4-1s0.3-0.6,0.4-0.9c0.1-0.2,0.2-0.3,0.3-0.5s0.3-0.2,0.5-0.2c0.4,0,0.8,0.2,1.1,0.5
		C797.7,692.5,797.9,692.9,797.9,693.3z M804.8,715.4c0,0.6,0,1.2-0.1,1.9c0,0.7-0.1,1.5-0.2,2.2s-0.3,1.5-0.5,2.2
		c-0.2,0.7-0.5,1.4-0.9,2s-0.8,1.1-1.4,1.4c-0.5,0.4-1.2,0.5-2,0.5c-0.8,0-1.5-0.2-2.1-0.6s-1-0.8-1.4-1.4c-0.4-0.6-0.6-1.2-0.8-1.9
		s-0.4-1.4-0.5-2.1c-0.2-0.9-0.3-1.9-0.4-2.8s-0.1-1.9-0.1-2.8s0-1.9,0.1-2.8s0.3-1.9,0.6-2.8c-0.1-0.1-0.1-0.2-0.2-0.3
		c0-0.1-0.1-0.2-0.1-0.3c0-0.1,0-0.1,0-0.2s0-0.1,0.1-0.2c0.2-0.5,0.4-0.9,0.7-1.4s0.6-0.9,1-1.2s0.8-0.6,1.3-0.9s1-0.3,1.6-0.3
		c0.8,0,1.5,0.2,2.1,0.6c0.6,0.4,1.1,1,1.5,1.7c0.4,0.7,0.7,1.5,0.9,2.3s0.4,1.7,0.5,2.6s0.2,1.7,0.2,2.5
		C804.8,714.1,804.8,714.8,804.8,715.4z M801.5,716.4c0-0.4,0-0.9,0-1.5c0-0.6-0.1-1.2-0.1-1.8s-0.1-1.3-0.2-2
		c-0.1-0.7-0.2-1.3-0.4-1.9c-0.1-0.6-0.3-1.2-0.5-1.7s-0.4-0.9-0.7-1.2c-0.4,0.7-0.8,1.3-1.1,1.8c-0.3,0.6-0.5,1.1-0.6,1.7
		s-0.2,1.2-0.3,1.8c0,0.6-0.1,1.3-0.1,2.1c0,0.3,0,0.7,0,1.2s0.1,1.2,0.1,1.9s0.1,1.5,0.2,2.2c0.1,0.8,0.2,1.5,0.4,2.1
		c0.2,0.6,0.3,1.1,0.5,1.6s0.5,0.6,0.7,0.6c0.1,0,0.2-0.1,0.3-0.2c0.1-0.1,0.2-0.2,0.3-0.4s0.2-0.3,0.2-0.5c0.1-0.2,0.1-0.3,0.2-0.4
		c0.3-0.9,0.6-1.8,0.7-2.7C801.4,718.2,801.5,717.3,801.5,716.4z"/>
</g>
<g>
	<path class="st16" d="M1212.1,725.2c0,0.4-0.2,0.7-0.5,0.9c-0.3,0.1-0.7,0.2-1.1,0.2c-0.3,0-0.6,0-1.1-0.1s-0.8-0.2-1.1-0.3
		c-0.4-0.2-0.7-0.4-0.8-0.6s-0.3-0.5-0.4-0.8c-0.1-0.3-0.1-0.6-0.1-0.9s0-0.7,0-1c-0.4-6-0.6-12-0.8-17.9
		c-0.2-5.9-0.3-11.9-0.3-17.9c0-0.4,0.1-0.7,0.2-0.9s0.4-0.4,0.9-0.4c0.5,0,1.1,0.1,1.6,0.4s1,0.6,1.2,1.1c0.1,0.2,0.1,0.4,0.2,0.8
		s0.1,0.8,0.1,1.2c0,0.4,0,0.8,0,1.2c0,0.4,0,0.7,0,0.9c0.2,5,0.3,10.1,0.5,15.1c0.2,5,0.5,10,1.1,15.1c0.1,0.7,0.1,1.4,0.2,2
		C1212,723.8,1212.1,724.5,1212.1,725.2z"/>
	<path class="st16" d="M1219.9,723.5c0,1.2-0.2,2.4-0.6,3.5c-0.4,1.1-0.9,2.2-1.6,3.2c-0.1,0.1-0.2,0.3-0.3,0.4
		c-0.1,0.2-0.2,0.3-0.4,0.5c-0.1,0.1-0.3,0.3-0.4,0.4c-0.2,0.1-0.3,0.1-0.5,0.1c-0.2,0-0.5-0.1-0.7-0.2c-0.3-0.2-0.5-0.4-0.8-0.6
		c-0.2-0.2-0.4-0.5-0.6-0.8s-0.2-0.5-0.2-0.7c0-0.2,0.1-0.3,0.2-0.5s0.2-0.4,0.4-0.6s0.3-0.4,0.5-0.6c0.2-0.2,0.3-0.4,0.4-0.5
		c0.3-0.4,0.4-0.9,0.6-1.3c0.1-0.4,0.2-0.8,0.3-1.2s0.1-0.8,0.1-1.2s0.1-0.8,0.2-1.3c0-0.4,0.2-0.6,0.3-0.7c0.2-0.1,0.4-0.1,0.8-0.1
		c0.8,0,1.4,0.2,1.9,0.5S1219.9,722.5,1219.9,723.5z"/>
	<path class="st16" d="M1233.9,687.4c0,0.5-0.1,1-0.2,1.5c-0.4,2.8-0.8,5.6-1.1,8.4c-0.3,2.8-0.6,5.6-0.9,8.4
		c-0.3,2.9-0.6,5.8-0.8,8.7c-0.3,2.9-0.5,5.8-0.8,8.7l-0.2,2.1c0,0.2-0.1,0.5-0.1,0.7c0,0.3-0.1,0.5-0.1,0.7
		c-0.1,0.2-0.2,0.4-0.4,0.5s-0.4,0.2-0.7,0.2c-0.2,0-0.5,0-0.8-0.1c-0.3-0.1-0.7-0.2-1-0.4c-0.3-0.2-0.7-0.3-0.9-0.5
		c-0.3-0.2-0.5-0.4-0.5-0.7c0-0.2-0.1-0.3-0.1-0.5c0-0.1,0-0.3,0-0.5c0-0.5,0.1-0.9,0.2-1.4c0.1-0.5,0.2-1,0.2-1.4
		c0.1-0.7,0.2-1.4,0.3-2c0.1-0.7,0.1-1.3,0.2-2c0.3-2.9,0.6-5.9,1-8.8c0.3-2.9,0.6-5.8,1-8.7c0.3-2,0.6-3.9,0.8-5.8
		c0.3-1.9,0.6-3.8,0.9-5.8c-1.3,0.1-2.5,0.2-3.8,0.2c-1.3,0.1-2.6,0.1-3.9,0.1c-0.2,0-0.3,0-0.5,0c-0.2,0-0.4,0-0.5-0.1
		s-0.3-0.1-0.4-0.3s-0.2-0.3-0.2-0.5c0-0.7,0.2-1.3,0.7-1.7s1-0.6,1.7-0.7c0.6-0.1,1.1-0.2,1.7-0.2c0.6,0,1.1-0.1,1.7-0.1
		c1.1-0.1,2.3-0.3,3.4-0.6s2.3-0.4,3.4-0.4c0.5,0,0.8,0.2,0.9,0.5s0.2,0.7,0.2,1.1c0,0.2,0,0.4-0.1,0.6
		C1233.9,686.9,1233.9,687.1,1233.9,687.4z"/>
	<path class="st16" d="M1246.7,699.2c0,0.6,0,1.2-0.1,1.9c0,0.7-0.1,1.5-0.2,2.2s-0.3,1.5-0.5,2.2c-0.2,0.7-0.5,1.4-0.9,2
		s-0.8,1.1-1.4,1.4s-1.2,0.5-2,0.5c-0.8,0-1.5-0.2-2.1-0.6s-1-0.8-1.4-1.4c-0.4-0.6-0.6-1.2-0.8-1.9c-0.2-0.7-0.4-1.4-0.5-2.1
		c-0.2-0.9-0.3-1.8-0.4-2.8c-0.1-0.9-0.1-1.9-0.1-2.8s0-1.9,0.1-2.8c0.1-0.9,0.3-1.9,0.6-2.8c-0.1-0.1-0.1-0.2-0.2-0.3
		c0-0.1-0.1-0.2-0.1-0.3c0-0.1,0-0.1,0-0.2s0-0.1,0.1-0.2c0.2-0.5,0.4-0.9,0.7-1.4c0.3-0.5,0.6-0.9,1-1.2s0.8-0.6,1.3-0.9
		c0.5-0.2,1-0.3,1.6-0.3c0.8,0,1.5,0.2,2.1,0.6c0.6,0.4,1.1,1,1.5,1.7c0.4,0.7,0.7,1.5,0.9,2.3s0.4,1.7,0.5,2.6
		c0.1,0.9,0.2,1.7,0.2,2.5C1246.6,697.9,1246.7,698.6,1246.7,699.2z M1243.4,700.2c0-0.4,0-0.9,0-1.5c0-0.6-0.1-1.2-0.1-1.8
		s-0.1-1.3-0.2-2c-0.1-0.7-0.2-1.3-0.4-1.9c-0.1-0.6-0.3-1.2-0.5-1.7s-0.4-0.9-0.7-1.2c-0.5,0.7-0.8,1.3-1.1,1.8
		c-0.3,0.6-0.5,1.1-0.6,1.7c-0.1,0.6-0.2,1.2-0.3,1.8c0,0.6-0.1,1.3-0.1,2.1c0,0.3,0,0.7,0,1.2s0.1,1.2,0.1,1.9
		c0.1,0.7,0.1,1.5,0.2,2.2c0.1,0.8,0.2,1.5,0.4,2.1c0.2,0.6,0.3,1.1,0.6,1.6c0.2,0.4,0.5,0.6,0.7,0.6c0.1,0,0.2-0.1,0.3-0.2
		c0.1-0.1,0.2-0.2,0.3-0.4s0.2-0.3,0.2-0.5c0.1-0.2,0.1-0.3,0.2-0.4c0.3-0.9,0.6-1.8,0.7-2.7
		C1243.3,702.1,1243.4,701.1,1243.4,700.2z M1256.2,692.3c0,0.4-0.1,0.9-0.3,1.3c-0.2,0.4-0.4,0.8-0.5,1.3
		c-1.6,4.1-3.1,8.2-4.5,12.3c-1.5,4.1-2.9,8.2-4.3,12.3c-0.1,0.2-0.1,0.5-0.2,0.8c-0.1,0.4-0.2,0.8-0.3,1.1s-0.2,0.8-0.4,1.1
		s-0.2,0.5-0.3,0.6c-0.1,0.2-0.3,0.3-0.6,0.3c-0.2,0-0.4,0-0.7-0.1s-0.5-0.2-0.7-0.4s-0.4-0.3-0.6-0.5c-0.2-0.2-0.2-0.4-0.2-0.6
		c0-0.2,0.1-0.6,0.3-1.3c0.2-0.7,0.5-1.6,0.9-2.7s0.8-2.3,1.3-3.6c0.5-1.3,1-2.7,1.5-4.1s1.1-2.8,1.6-4.2s1-2.7,1.5-3.8
		c0.4-1.2,0.8-2.2,1.2-3.1c0.3-0.9,0.6-1.5,0.7-1.9l1.5-3.9c0.1-0.3,0.2-0.7,0.4-1s0.3-0.6,0.4-0.9c0.1-0.2,0.2-0.3,0.3-0.5
		c0.1-0.1,0.3-0.2,0.5-0.2c0.4,0,0.8,0.2,1.1,0.5C1256,691.5,1256.2,691.9,1256.2,692.3z M1263.1,714.4c0,0.6,0,1.2-0.1,1.9
		c0,0.7-0.1,1.5-0.2,2.2s-0.3,1.5-0.5,2.2c-0.2,0.7-0.5,1.4-0.9,2s-0.8,1.1-1.4,1.4c-0.5,0.4-1.2,0.5-2,0.5c-0.8,0-1.5-0.2-2.1-0.6
		s-1-0.8-1.4-1.4c-0.4-0.6-0.6-1.2-0.8-1.9s-0.4-1.4-0.5-2.1c-0.2-0.9-0.3-1.8-0.4-2.8c-0.1-0.9-0.1-1.9-0.1-2.8s0-1.9,0.1-2.8
		c0.1-0.9,0.3-1.9,0.6-2.8c-0.1-0.1-0.1-0.2-0.2-0.3c0-0.1-0.1-0.2-0.1-0.3c0-0.1,0-0.1,0-0.2s0-0.1,0.1-0.2
		c0.2-0.5,0.4-0.9,0.7-1.4c0.3-0.5,0.6-0.9,1-1.2s0.8-0.6,1.3-0.9c0.5-0.2,1-0.3,1.6-0.3c0.8,0,1.5,0.2,2.1,0.6
		c0.6,0.4,1.1,1,1.5,1.7c0.4,0.7,0.7,1.5,0.9,2.3s0.4,1.7,0.5,2.6c0.1,0.9,0.2,1.7,0.2,2.5C1263,713.2,1263.1,713.9,1263.1,714.4z
		 M1259.8,715.4c0-0.4,0-0.9,0-1.5c0-0.6-0.1-1.2-0.1-1.8s-0.1-1.3-0.2-2c-0.1-0.7-0.2-1.3-0.4-1.9c-0.1-0.6-0.3-1.2-0.5-1.7
		s-0.4-0.9-0.7-1.2c-0.5,0.7-0.8,1.3-1.1,1.8c-0.3,0.6-0.5,1.1-0.6,1.7c-0.1,0.6-0.2,1.2-0.3,1.8c0,0.6-0.1,1.3-0.1,2.1
		c0,0.3,0,0.7,0,1.2s0.1,1.2,0.1,1.9c0.1,0.7,0.1,1.5,0.2,2.2c0.1,0.8,0.2,1.5,0.4,2.1c0.2,0.6,0.3,1.1,0.5,1.6s0.5,0.6,0.7,0.6
		c0.1,0,0.2-0.1,0.3-0.2c0.1-0.1,0.2-0.2,0.3-0.4s0.2-0.3,0.2-0.5c0.1-0.2,0.1-0.3,0.2-0.4c0.3-0.9,0.6-1.8,0.7-2.7
		C1259.7,717.3,1259.8,716.4,1259.8,715.4z"/>
</g>
<g>
	<path class="st16" d="M1645.1,725.6c0,0.4-0.2,0.7-0.5,0.9s-0.7,0.2-1.1,0.2c-0.3,0-0.6,0-1.1-0.1s-0.8-0.2-1.1-0.3
		c-0.4-0.2-0.7-0.4-0.8-0.6s-0.3-0.5-0.4-0.8s-0.1-0.6-0.1-0.9s0-0.7,0-1c-0.4-6-0.6-12-0.8-17.9s-0.3-11.9-0.3-17.9
		c0-0.4,0.1-0.7,0.2-0.9s0.4-0.4,0.9-0.4c0.5,0,1.1,0.1,1.6,0.4s1,0.6,1.2,1.1c0.1,0.2,0.1,0.4,0.2,0.8s0.1,0.8,0.1,1.2s0,0.8,0,1.2
		s0,0.7,0,0.9c0.2,5,0.3,10.1,0.5,15.1s0.5,10,1.1,15.1c0.1,0.7,0.1,1.4,0.2,2S1645.1,724.9,1645.1,725.6z"/>
	<path class="st16" d="M1652.9,723.9c0,1.2-0.2,2.4-0.6,3.5s-0.9,2.2-1.6,3.2c-0.1,0.1-0.2,0.3-0.3,0.4s-0.2,0.3-0.4,0.5
		s-0.3,0.3-0.4,0.4s-0.3,0.1-0.5,0.1c-0.2,0-0.5-0.1-0.7-0.2s-0.5-0.4-0.8-0.6s-0.4-0.5-0.6-0.8c-0.2-0.3-0.2-0.5-0.2-0.7
		c0-0.2,0.1-0.3,0.2-0.5s0.2-0.4,0.4-0.6s0.3-0.4,0.5-0.6s0.3-0.4,0.4-0.5c0.3-0.4,0.4-0.9,0.6-1.3s0.2-0.8,0.3-1.2s0.1-0.8,0.1-1.2
		s0.1-0.8,0.2-1.3c0-0.4,0.2-0.6,0.3-0.7s0.4-0.1,0.8-0.1c0.8,0,1.4,0.2,1.9,0.5S1652.9,723,1652.9,723.9z"/>
	<path class="st16" d="M1671.4,715c0,0.8,0,1.6-0.1,2.5s-0.2,1.9-0.4,2.8s-0.4,1.9-0.8,2.8s-0.8,1.7-1.3,2.4s-1.2,1.3-1.9,1.7
		s-1.7,0.6-2.7,0.6c-1.1,0-2-0.3-2.8-0.9s-1.5-1.3-2.1-2.3s-1.1-2-1.5-3.2s-0.7-2.4-1-3.5s-0.4-2.3-0.5-3.4s-0.2-2-0.2-2.8
		c0-0.5,0-1.1,0-1.6s0-1.1,0-1.6c0-3.9,0.4-7.6,1.2-11.2s2-7.1,3.6-10.6c0.1-0.2,0.1-0.4,0.2-0.6s0.2-0.5,0.4-0.7s0.3-0.4,0.5-0.6
		s0.4-0.2,0.6-0.2c0.3,0,0.5,0.1,0.8,0.2s0.5,0.3,0.7,0.5s0.4,0.4,0.5,0.7s0.2,0.5,0.2,0.8c0,0.2-0.1,0.6-0.2,1.1s-0.3,1-0.5,1.6
		s-0.4,1.1-0.6,1.6s-0.4,0.9-0.5,1.2c-0.4,1.3-0.8,2.6-1.1,3.9s-0.6,2.6-0.9,3.9c0.4-0.3,0.9-0.5,1.3-0.7s1-0.2,1.5-0.2
		c1.2,0,2.2,0.3,3,0.8s1.5,1.3,2.1,2.2s1,1.9,1.3,3s0.5,2.3,0.7,3.5s0.3,2.3,0.3,3.4S1671.4,714.1,1671.4,715z M1660.9,713.7
		c0,0.4,0.1,0.9,0.2,1.5s0.2,1.3,0.3,2s0.3,1.4,0.4,2.2s0.4,1.4,0.6,2.1s0.5,1.2,0.8,1.7s0.6,0.8,1,1.1c0.4,0,0.8-0.3,1.1-0.6
		s0.6-0.9,0.8-1.5s0.4-1.2,0.5-1.9s0.2-1.4,0.3-2s0.1-1.3,0.1-1.9s0-1,0-1.3c0-0.4,0-0.9,0-1.6s-0.1-1.5-0.2-2.4s-0.2-1.7-0.3-2.7
		s-0.3-1.8-0.5-2.5s-0.5-1.4-0.7-2s-0.6-0.9-1.1-1c-0.6,0.5-1.1,1.1-1.5,2s-0.7,1.7-1,2.7s-0.4,1.9-0.5,2.9s-0.2,1.8-0.2,2.5
		c0,0.2,0,0.3,0,0.4S1660.9,713.6,1660.9,713.7z"/>
	<path class="st16" d="M1683.4,699.6c0,0.6,0,1.2-0.1,1.9s-0.1,1.5-0.2,2.2s-0.3,1.5-0.5,2.2s-0.5,1.4-0.9,2s-0.8,1.1-1.4,1.4
		s-1.2,0.5-2,0.5c-0.8,0-1.5-0.2-2.1-0.6s-1-0.8-1.4-1.4s-0.6-1.2-0.8-1.9s-0.4-1.4-0.5-2.1c-0.2-0.9-0.3-1.9-0.4-2.8
		s-0.1-1.9-0.1-2.8s0-1.9,0.1-2.8s0.3-1.9,0.6-2.8c-0.1-0.1-0.1-0.2-0.2-0.3s-0.1-0.2-0.1-0.3c0-0.1,0-0.1,0-0.2s0-0.1,0.1-0.2
		c0.2-0.5,0.4-0.9,0.7-1.4s0.6-0.9,1-1.2s0.8-0.6,1.3-0.9s1-0.3,1.6-0.3c0.8,0,1.5,0.2,2.1,0.6s1.1,1,1.5,1.7s0.7,1.5,0.9,2.3
		s0.4,1.7,0.5,2.6s0.2,1.7,0.2,2.5S1683.4,699,1683.4,699.6z M1680.1,700.6c0-0.4,0-0.9,0-1.5s-0.1-1.2-0.1-1.8s-0.1-1.3-0.2-2
		s-0.2-1.3-0.4-1.9s-0.3-1.2-0.5-1.7s-0.4-0.9-0.7-1.2c-0.4,0.7-0.8,1.3-1.1,1.8s-0.5,1.1-0.6,1.7s-0.2,1.2-0.3,1.8
		s-0.1,1.3-0.1,2.1c0,0.3,0,0.7,0,1.2s0.1,1.2,0.1,1.9s0.1,1.5,0.2,2.2s0.2,1.5,0.4,2.1s0.3,1.1,0.6,1.6s0.5,0.6,0.7,0.6
		c0.1,0,0.2-0.1,0.3-0.2s0.2-0.2,0.3-0.4s0.2-0.3,0.2-0.5s0.1-0.3,0.2-0.4c0.3-0.9,0.6-1.8,0.7-2.7S1680.1,701.5,1680.1,700.6z
		 M1692.9,692.8c0,0.4-0.1,0.9-0.3,1.3s-0.4,0.8-0.5,1.3c-1.6,4.1-3.1,8.2-4.5,12.3s-2.9,8.2-4.3,12.3c-0.1,0.2-0.1,0.5-0.2,0.8
		c-0.1,0.4-0.2,0.8-0.3,1.1s-0.2,0.8-0.4,1.1s-0.2,0.5-0.3,0.6c-0.1,0.2-0.3,0.3-0.6,0.3c-0.2,0-0.4,0-0.7-0.1s-0.5-0.2-0.7-0.4
		s-0.4-0.3-0.6-0.5s-0.2-0.4-0.2-0.6c0-0.2,0.1-0.6,0.3-1.3s0.5-1.6,0.9-2.7s0.8-2.3,1.3-3.6s1-2.7,1.5-4.1s1.1-2.8,1.6-4.2
		s1-2.7,1.5-3.8s0.8-2.2,1.2-3.1s0.6-1.5,0.7-1.9l1.5-3.9c0.1-0.3,0.2-0.7,0.4-1s0.3-0.6,0.4-0.9c0.1-0.2,0.2-0.3,0.3-0.5
		s0.3-0.2,0.5-0.2c0.4,0,0.8,0.2,1.1,0.5S1692.9,692.3,1692.9,692.8z M1699.8,714.8c0,0.6,0,1.2-0.1,1.9s-0.1,1.5-0.2,2.2
		s-0.3,1.5-0.5,2.2s-0.5,1.4-0.9,2s-0.8,1.1-1.4,1.4s-1.2,0.5-2,0.5c-0.8,0-1.5-0.2-2.1-0.6s-1-0.8-1.4-1.4s-0.6-1.2-0.8-1.9
		s-0.4-1.4-0.5-2.1c-0.2-0.9-0.3-1.9-0.4-2.8s-0.1-1.9-0.1-2.8s0-1.9,0.1-2.8s0.3-1.9,0.6-2.8c-0.1-0.1-0.1-0.2-0.2-0.3
		s-0.1-0.2-0.1-0.3c0-0.1,0-0.1,0-0.2s0-0.1,0.1-0.2c0.2-0.5,0.4-0.9,0.7-1.4s0.6-0.9,1-1.2s0.8-0.6,1.3-0.9s1-0.3,1.6-0.3
		c0.8,0,1.5,0.2,2.1,0.6s1.1,1,1.5,1.7s0.7,1.5,0.9,2.3s0.4,1.7,0.5,2.6s0.2,1.7,0.2,2.5S1699.8,714.3,1699.8,714.8z M1696.5,715.8
		c0-0.4,0-0.9,0-1.5s-0.1-1.2-0.1-1.8s-0.1-1.3-0.2-2s-0.2-1.3-0.4-1.9s-0.3-1.2-0.5-1.7s-0.4-0.9-0.7-1.2c-0.4,0.7-0.8,1.3-1.1,1.8
		s-0.5,1.1-0.6,1.7s-0.2,1.2-0.3,1.8s-0.1,1.3-0.1,2.1c0,0.3,0,0.7,0,1.2s0.1,1.2,0.1,1.9s0.1,1.5,0.2,2.2s0.2,1.5,0.4,2.1
		s0.3,1.1,0.5,1.6s0.5,0.6,0.7,0.6c0.1,0,0.2-0.1,0.3-0.2s0.2-0.2,0.3-0.4s0.2-0.3,0.2-0.5s0.1-0.3,0.2-0.4c0.3-0.9,0.6-1.8,0.7-2.7
		S1696.5,716.8,1696.5,715.8z"/>
</g>
</svg>
